<?xml version="1.0" encoding="UTF-8"?>
<!-- Generator: Adobe Illustrator 25.2.0, SVG Export Plug-In . SVG Version: 6.00 Build 0)  -->
<svg xmlns="http://www.w3.org/2000/svg" xmlns:xlink="http://www.w3.org/1999/xlink" version="1.1" id="Capa_1" x="0px" y="0px" viewBox="0 0 512 512" style="enable-background:new 0 0 512 512;" xml:space="preserve" width="512" height="512">
<g>
	<path style="fill:#EF9B65;" d="M167.567,247.798c0,0-79.98-185.42-70.766-189.092s33.751-17.713,33.751-17.713l72.192,188.881   L167.567,247.798z"/>
	<path style="fill:#EF9B65;" d="M263.243,207.621c0,0-15.456-201.342-5.549-201.824C267.601,5.315,295.367,0,295.367,0   l6.966,202.087L263.243,207.621z"/>
	<path style="fill:#EF9B65;" d="M206.334,225.132c0,0-15.456-201.342-5.549-201.824c9.907-0.482,37.673-5.797,37.673-5.797   l6.966,202.087L206.334,225.132z"/>
	<path style="fill:#EF9B65;" d="M186.544,250.435c0,0-40.404-197.851-30.634-199.563s36.658-10.442,36.658-10.442l32.072,199.647   L186.544,250.435z"/>
	<path style="fill:#EF9B65;" d="M141.098,312.923c0,0-73.703-188.004-64.37-191.364s34.327-16.568,34.327-16.568l65.802,191.201   L141.098,312.923z"/>
	<path style="fill:#EF9B65;" d="M282.172,230.974c0,0,61.757-192.259,71.112-188.963c9.355,3.297,37.071,8.866,37.071,8.866   l-69.899,189.741L282.172,230.974z"/>
	<path style="fill:#EF9B65;" d="M316.099,260.523c0,0,61.757-192.259,71.112-188.963c9.355,3.297,37.071,8.866,37.071,8.866   l-69.899,189.741L316.099,260.523z"/>
	<path style="fill:#EF9B65;" d="M318.685,259.73c0,0,102.003-174.278,110.419-169.031c8.417,5.248,34.264,16.698,34.264,16.698   L353.963,277.452L318.685,259.73z"/>
	<path style="fill:#F9DD96;" d="M164.102,260.938c0,0-72.957-171.449-62.013-175.097c10.944-3.648,51.07-18.239,51.07-18.239   l54.718,167.801L164.102,260.938z"/>
	<path style="fill:#F9DD96;" d="M193.266,259.75c0,0-25.706-184.544-14.19-185.211c11.516-0.667,54.06-4.285,54.06-4.285   l9.05,176.265L193.266,259.75z"/>
	<path style="fill:#F9DD96;" d="M156.052,305.575c0,0-115.291-165.788-106.993-171.22c8.298-5.433,29.549-24.077,29.549-24.077   l108.347,170.729L156.052,305.575z"/>
	<path style="fill:#F9DD96;" d="M263.851,222.953c0,0,31.365-199.484,41.116-197.669c9.751,1.814,37.995,3.042,37.995,3.042   l-39.798,198.252L263.851,222.953z"/>
	<path style="fill:#F9DD96;" d="M250.104,226.044c0,0-66.424-190.697-56.97-193.696s34.939-15.237,34.939-15.237l58.407,193.588   L250.104,226.044z"/>
	<path style="fill:#F9DD96;" d="M301.997,283.161c0,0,80.485-185.202,89.467-180.996c8.982,4.206,36.012,12.492,36.012,12.492   l-88.338,181.89L301.997,283.161z"/>
	<path style="fill:#F9DD96;" d="M328.263,306.143c0,0,80.485-185.202,89.467-180.996c8.982,4.206,36.012,12.492,36.012,12.492   l-88.338,181.89L328.263,306.143z"/>
	<path style="fill:#F9DD96;" d="M244.522,241.359c0,0-25.706-184.544-14.19-185.211c11.516-0.667,54.06-4.285,54.06-4.285   l9.05,176.265L244.522,241.359z"/>
	<path style="fill:#F9DD96;" d="M289.775,258.115c0,0,14.547-185.757,25.937-183.934c11.391,1.823,53.718,7.43,53.718,7.43   l-29.035,174.092L289.775,258.115z"/>
	<g>
		<path style="fill:#87506C;" d="M165.109,417.976l-63.021-171.629c0,0,175.097-127.675,317.362,14.591l-69.508,166.766    L165.109,417.976z"/>
		<path style="fill:#241726;" d="M405.879,268.442c-0.274,0-0.55-0.089-0.78-0.273c-61.186-48.697-130.913-50.713-178.629-43.832    c-51.798,7.472-89.598,26.747-89.972,26.942c-0.611,0.317-1.369,0.077-1.687-0.538c-0.318-0.615-0.076-1.37,0.538-1.687    c0.379-0.196,38.487-19.639,90.686-27.183c48.229-6.967,118.714-4.935,180.624,44.339c0.54,0.43,0.631,1.217,0.2,1.759    C406.613,268.281,406.246,268.442,405.879,268.442z"/>
	</g>
	<polygon style="fill:#F9DD96;" points="218.614,406.816 408.311,358.176 420.471,397.088 235.638,453.024  "/>
	<polygon style="fill:#F9DD96;" points="70.363,398.379 251.176,473.598 237.49,512 56.176,445.536  "/>
	<polygon style="fill:#F9DD96;" points="259.084,412.956 454.733,421.456 455.078,462.222 261.966,462.116  "/>
	<path style="fill:#241726;" d="M244.96,446.421c-0.54,0-1.037-0.351-1.2-0.894c-0.196-0.663,0.181-1.36,0.843-1.557l135.707-40.493   c0.655-0.202,1.357,0.181,1.557,0.841c0.196,0.663-0.181,1.36-0.843,1.557l-135.707,40.493   C245.199,446.404,245.077,446.421,244.96,446.421z"/>
	<path style="fill:#241726;" d="M284.882,189.242c-0.685,0-1.244-0.552-1.252-1.238l-1.369-132.897   c-0.007-0.692,0.548-1.258,1.239-1.265c0.57-0.026,1.257,0.548,1.264,1.238l1.369,132.897c0.007,0.692-0.548,1.258-1.239,1.265   C284.889,189.242,284.887,189.242,284.882,189.242z"/>
	<path style="fill:#241726;" d="M234.827,193.861c-0.67,0-1.225-0.529-1.252-1.204l-4.748-123.816   c-0.024-0.691,0.513-1.272,1.203-1.298c0.017-0.001,0.034-0.001,0.049-0.001c0.67,0,1.225,0.529,1.252,1.204l4.748,123.816   c0.024,0.691-0.513,1.272-1.203,1.298C234.858,193.861,234.841,193.861,234.827,193.861z"/>
	<path style="fill:#241726;" d="M194.335,203.986c-0.545,0-1.046-0.357-1.203-0.906l-16.071-55.899   c-0.191-0.665,0.193-1.358,0.858-1.549c0.66-0.188,1.357,0.192,1.547,0.857l16.071,55.899c0.191,0.665-0.193,1.358-0.858,1.549   C194.565,203.97,194.45,203.986,194.335,203.986z"/>
	<path style="fill:#241726;" d="M304.544,194.671c-0.095,0-0.196-0.011-0.293-0.034c-0.672-0.163-1.085-0.839-0.924-1.511   l26.752-111.062c0.161-0.67,0.829-1.088,1.511-0.924c0.672,0.163,1.085,0.839,0.924,1.511l-26.752,111.062   C305.622,194.286,305.112,194.671,304.544,194.671z"/>
	<path style="fill:#241726;" d="M345.891,210.074c-0.081,0-0.159-0.007-0.24-0.023c-0.68-0.131-1.122-0.787-0.993-1.467   l9.727-50.262c0.132-0.68,0.799-1.123,1.467-0.99c0.68,0.131,1.122,0.787,0.993,1.467l-9.727,50.262   C347.001,209.659,346.478,210.074,345.891,210.074z"/>
	<path style="fill:#241726;" d="M371.83,223.856c-0.193,0-0.386-0.044-0.567-0.136c-0.616-0.314-0.863-1.067-0.548-1.683   l47.021-92.417c0.313-0.62,1.076-0.856,1.682-0.549c0.616,0.314,0.863,1.067,0.548,1.683l-47.021,92.417   C372.724,223.607,372.284,223.856,371.83,223.856z"/>
	<path style="fill:#241726;" d="M147.275,222.234c-0.418,0-0.826-0.21-1.063-0.592l-54.316-87.553   c-0.364-0.588-0.183-1.359,0.403-1.724c0.587-0.358,1.357-0.186,1.724,0.403l54.316,87.553c0.364,0.588,0.183,1.359-0.403,1.723   C147.73,222.173,147.502,222.234,147.275,222.234z"/>
	<g>
		<path style="fill:#241726;" d="M169.536,349.302c-0.381,0-0.76-0.176-1.007-0.507c-1.692-2.291-2.843-9.885-2.97-10.744    c-0.1-0.683,0.374-1.319,1.059-1.419c0.665-0.11,1.318,0.37,1.42,1.057c0.44,3.003,1.508,8.27,2.506,9.617    c0.411,0.556,0.293,1.34-0.264,1.75C170.057,349.222,169.795,349.302,169.536,349.302z"/>
		<path style="fill:#241726;" d="M155.694,339.07c-0.381,0-0.76-0.176-1.007-0.507c-1.692-2.291-2.841-9.886-2.968-10.744    c-0.1-0.683,0.374-1.319,1.059-1.419c0.67-0.11,1.318,0.37,1.42,1.057c0.438,3.003,1.506,8.27,2.503,9.617    c0.411,0.556,0.293,1.34-0.264,1.75C156.215,338.99,155.954,339.07,155.694,339.07z"/>
		<path style="fill:#241726;" d="M164.882,324.383c-0.381,0-0.76-0.176-1.007-0.507c-1.692-2.291-2.843-9.885-2.97-10.744    c-0.1-0.683,0.374-1.319,1.059-1.419c0.667-0.106,1.318,0.37,1.42,1.057c0.44,3.003,1.508,8.27,2.506,9.617    c0.411,0.556,0.293,1.34-0.264,1.75C165.402,324.304,165.141,324.383,164.882,324.383z"/>
		<path style="fill:#241726;" d="M153.465,310.47c-0.489,0-0.956-0.29-1.156-0.771c-1.093-2.629-0.389-10.279-0.306-11.142    c0.068-0.689,0.741-1.189,1.367-1.125c0.689,0.066,1.193,0.678,1.127,1.367c-0.293,3.022-0.521,8.391,0.125,9.939    c0.264,0.638-0.037,1.37-0.675,1.635C153.788,310.44,153.626,310.47,153.465,310.47z"/>
		<path style="fill:#241726;" d="M164.026,301.396c-0.489,0-0.956-0.29-1.156-0.771c-1.093-2.629-0.389-10.279-0.306-11.142    c0.068-0.688,0.736-1.177,1.367-1.125c0.689,0.066,1.193,0.678,1.127,1.367c-0.293,3.022-0.521,8.391,0.125,9.939    c0.264,0.638-0.037,1.37-0.675,1.635C164.349,301.365,164.187,301.396,164.026,301.396z"/>
		<path style="fill:#241726;" d="M176.978,328.699c-0.381,0-0.76-0.176-1.007-0.507c-1.692-2.291-2.841-9.886-2.968-10.744    c-0.1-0.683,0.374-1.319,1.059-1.419c0.67-0.106,1.318,0.37,1.42,1.057c0.438,3.003,1.506,8.27,2.503,9.617    c0.411,0.556,0.293,1.34-0.264,1.75C177.499,328.62,177.237,328.699,176.978,328.699z"/>
		<path style="fill:#241726;" d="M184.361,356.669c-0.384,0-0.763-0.176-1.007-0.508c-1.689-2.289-2.841-9.884-2.968-10.743    c-0.1-0.683,0.374-1.319,1.059-1.419c0.67-0.109,1.318,0.37,1.42,1.057c0.44,3.003,1.508,8.272,2.503,9.619    c0.411,0.556,0.293,1.34-0.264,1.75C184.882,356.589,184.62,356.669,184.361,356.669z"/>
		<path style="fill:#241726;" d="M163.566,363.788c-0.381,0-0.76-0.176-1.007-0.507c-1.692-2.291-2.843-9.885-2.97-10.744    c-0.1-0.683,0.374-1.319,1.059-1.419c0.665-0.115,1.318,0.372,1.42,1.057c0.44,3.003,1.508,8.27,2.506,9.617    c0.411,0.556,0.293,1.34-0.264,1.75C164.087,363.708,163.825,363.788,163.566,363.788z"/>
		<path style="fill:#241726;" d="M179.088,377.216c-0.384,0-0.763-0.176-1.007-0.508c-1.689-2.289-2.841-9.884-2.968-10.743    c-0.1-0.683,0.374-1.319,1.059-1.419c0.672-0.111,1.318,0.372,1.42,1.057c0.44,3.003,1.508,8.272,2.503,9.619    c0.411,0.556,0.293,1.34-0.264,1.75C179.608,377.137,179.347,377.216,179.088,377.216z"/>
	</g>
</g>















</svg>
