<?xml version="1.0" encoding="UTF-8"?>
<!-- Generator: Adobe Illustrator 25.2.0, SVG Export Plug-In . SVG Version: 6.00 Build 0)  -->
<svg xmlns="http://www.w3.org/2000/svg" xmlns:xlink="http://www.w3.org/1999/xlink" version="1.1" id="Capa_1" x="0px" y="0px" viewBox="0 0 512 512" style="enable-background:new 0 0 512 512;" xml:space="preserve" width="512" height="512">
<g>
	<g>
		<path style="fill:#A6B470;" d="M272.347,155.712c0,0,6.059-44.371-15.965-55.149s-31.162,18.254-14.141,17.457    s15.114-63.952-9.717-56.229c-24.831,7.723-4.973,28.312-1.085,16.059c3.888-12.254-3.711-51.262-24.336-48.984    s-21.634,31.191-9.858,24.867c11.776-6.324,15.114-63.952-25.457-50.506s-23.403,60.666-13.911,56.023s-9.965-27.876-21.504-5.292    s11.44,53.787,23.375,50.866c11.935-2.92-13.888-33.203-19.103,1.156c-5.215,34.359,30.861,59.438,32.507,44.141    s-24.584-20.631-22.79,12.089s14.885,48.902,26.141,37.091c11.256-11.811,3.25-25.87-11.251-10.495    c-14.501,15.375-9.303,47.934,35.31,47.946"/>
		<path style="fill:#70A471;" d="M260.236,181.148c0,0,4.526-33.147-11.927-41.199s-23.279,13.636-10.564,13.041    c12.715-0.595,11.291-47.775-7.259-42.006c-18.55,5.769-3.715,21.151-0.811,11.997c2.904-9.154-2.773-38.295-18.18-36.594    c-15.408,1.701-16.161,23.302-7.364,18.577c8.797-4.725,11.291-47.775-19.018-37.731s-17.483,45.32-10.392,41.852    c7.091-3.469-7.444-20.824-16.065-3.953s8.546,40.181,17.462,38s-10.375-24.804-14.271,0.864    c-3.896,25.668,23.055,44.403,24.285,32.975s-18.365-15.412-17.025,9.031c1.34,24.443,11.12,36.532,19.529,27.709    c8.409-8.824,2.428-19.326-8.405-7.841c-10.833,11.486-6.95,35.809,26.378,35.818"/>
		<path style="fill:#241726;" d="M200.562,237.951L200.562,237.951c-20.851-0.005-36-7.404-41.56-20.296    c-2.746-6.366-2.811-13.608-0.494-20.068c-5.046-7.279-8.501-19.899-9.345-35.312c-0.427-7.772,0.686-13.141,2.344-16.844    c-8.339-9.466-14.44-23.886-12.05-39.632c0.664-4.374,1.657-7.669,2.818-10.14c-8.622-11.064-14.086-28.329-6.973-42.249    c3.222-6.305,6.927-8.934,10.089-9.891c-0.67-4.055-0.777-8.483-0.072-12.888c2.167-13.552,11.433-23.687,26.09-28.545    c20.351-6.74,28.609,4.386,31.721,11.616c1.833,4.259,2.79,9.161,3.044,14.07c0.262-0.038,0.528-0.07,0.797-0.101    c5.911-0.657,11.385,1.875,15.837,7.305c5.376,6.557,8.668,16.45,10.046,25.468c5.129-1.359,9.757,0.033,13.433,4.057    c6.566,7.188,9.127,21.669,8.071,33.876c0.824,0.31,1.674,0.676,2.552,1.105c22.544,11.034,16.879,54.543,16.628,56.39    c-0.092,0.659-0.693,1.117-1.353,1.028c-0.658-0.089-1.118-0.695-1.029-1.352c0.06-0.436,5.686-43.636-15.302-53.907    c-0.593-0.291-1.18-0.551-1.765-0.786c-0.483,3.698-1.318,7.11-2.49,9.947c-2.201,5.325-5.418,8.234-9.302,8.415    c-4.528,0.214-7.943-1.596-9.377-4.958c-1.749-4.104-0.249-9.556,3.651-13.259c2.022-1.92,7.161-5.571,15.42-3.384    c0.865-11.454-1.522-24.973-7.479-31.494c-3.139-3.438-6.952-4.536-11.334-3.276c0.733,6.247,0.515,11.867-0.595,15.366    c-1.008,3.173-3.248,4.869-5.971,4.613c-3.724-0.392-7.1-4.212-7.526-8.521c-0.265-2.673,0.381-9.117,11.445-13.115    c-1.313-8.776-4.509-18.501-9.583-24.689c-3.971-4.843-8.591-7.005-13.716-6.442c-0.338,0.038-0.668,0.082-0.993,0.131    c0.059,11.201-3.427,21.913-8.428,24.597c-3.516,1.891-5.753,0.791-6.772-0.04c-2.584-2.098-3.294-7-1.765-12.198    c1.695-5.766,6.376-12.203,14.581-14.314c-0.221-4.656-1.123-9.377-2.933-13.585c-3.405-7.913-11.158-16.11-28.758-10.285    c-17.64,5.845-23.045,17.715-24.473,26.641c-0.681,4.259-0.563,8.375,0.049,12.066c0.996-0.08,1.897-0.009,2.643,0.113    c5.853,0.964,10.485,6.381,11.138,10.834c0.415,2.835-0.72,5.132-3.119,6.305c-1.625,0.796-3.507,0.505-5.3-0.824    c-3.072-2.274-5.831-7.371-7.253-13.636c-3.162,1.042-6.02,3.959-8.409,8.636c-6.46,12.644-1.684,28.383,6.104,38.858    c2.68-4.104,5.863-4.919,8.042-4.851c6.016,0.122,11.865,6.538,12.434,11.703c0.323,2.926-1.169,5.085-3.989,5.775    c-4.54,1.112-10.559-2.027-16.05-8.267c-0.92,2.279-1.644,5.104-2.151,8.439c-2.215,14.598,3.251,28,10.878,36.997    c1.566-2.518,3.359-3.966,4.781-4.789c3.635-2.105,8.091-1.976,11.63,0.326c3.785,2.464,5.739,6.782,5.225,11.555    c-0.348,3.241-2.026,4.604-3.372,5.177c-3.198,1.354-8.228-0.253-13.464-4.315c-1.422-1.103-2.825-2.351-4.184-3.726    c-1.463,3.837-2.087,8.866-1.765,14.76c0.844,15.378,4.115,26.287,8.077,32.745c1.205-2.504,2.792-4.843,4.74-6.909    c5.092-5.4,10.012-7.859,13.833-6.953c2.176,0.519,3.753,2.084,4.44,4.402c1,3.379,0.138,9.016-5.279,14.699    c-4.63,4.858-8.902,4.658-11.667,3.64c-1.927-0.711-3.742-2.039-5.416-3.91c-1.616,5.51-1.38,11.515,0.92,16.847    c5.163,11.97,19.506,18.839,39.353,18.844c0.664,0,1.201,0.537,1.201,1.201S201.225,237.951,200.562,237.951z M161.229,197.2    c1.731,2.227,3.542,3.663,5.308,4.313c3.04,1.129,6.104,0.101,9.097-3.041c4.714-4.949,5.485-9.753,4.713-12.362    c-0.305-1.033-1.021-2.347-2.693-2.746c-1.381-0.329-5.265-0.375-11.528,6.263C164.022,191.859,162.381,194.438,161.229,197.2z     M154.401,145.043c1.477,1.558,3.017,2.954,4.582,4.168c4.401,3.414,8.735,4.984,11.049,4.001    c1.097-0.465,1.745-1.549,1.924-3.222c0.414-3.853-1.136-7.324-4.147-9.281c-2.818-1.835-6.229-1.934-9.117-0.26    C156.967,141.446,155.529,143.004,154.401,145.043z M246.983,99.368c-3.38,0-6.39,1.131-8.756,3.377    c-3.136,2.978-4.437,7.422-3.095,10.572c1.034,2.424,3.543,3.68,7.054,3.504c3.647-0.171,5.925-3.865,7.194-6.934    c1.139-2.757,1.935-6.141,2.376-9.825C250.106,99.598,248.506,99.368,246.983,99.368z M145.118,95.356    c5.01,5.986,10.562,9.208,14.344,8.3c1.652-0.406,2.362-1.446,2.171-3.18c-0.451-4.095-5.427-9.469-10.094-9.563    C149.062,90.805,146.818,92.392,145.118,95.356z M230.852,63.636c-6.404,2.448-9.794,6.186-9.374,10.436    c0.341,3.454,3.112,6.127,5.384,6.364c1.991,0.204,2.966-1.488,3.431-2.95C231.298,74.32,231.483,69.275,230.852,63.636z     M148.213,45.443c1.375,5.89,3.968,10.389,6.321,12.13c1.065,0.791,2.011,0.993,2.815,0.596c1.457-0.713,2.063-1.99,1.798-3.797    c-0.52-3.541-4.406-8.03-9.152-8.812C149.393,45.459,148.801,45.431,148.213,45.443z M203.91,30.701    c-8.691,2.466-11.601,10.048-12.33,12.529c-1.219,4.147-0.808,8.206,0.975,9.654c0.983,0.805,2.371,0.732,4.121-0.211    C200.612,50.558,203.878,41.054,203.91,30.701z"/>
		<path style="fill:#A6B470;" d="M142.964,250.226c0,0-35.425-27.397-27.274-50.522s35.019-8.826,22.322,2.537    c-12.697,11.363-55.609-35.013-32.487-46.912s23.393,16.705,12.031,10.692s-33.288-39.16-16.982-51.993    s37.293,7.079,24.462,10.824s-55.609-35.013-17.25-53.865s59.217,26.859,49.193,30.202c-10.024,3.343-12.434-26.865,11.626-18.848    s29.546,46.378,18.987,52.662s-13.371-33.415,14.434-12.566s19.657,64.023,7.759,54.267c-11.897-9.756,3.07-31.946,24.727-7.355    s23.664,45.309,7.357,44.777c-16.307-0.533-20.453-16.171,0.666-15.372s40.237,27.664,8.428,58.945"/>
		<path style="fill:#70A471;" d="M169.432,259.876c0,0-26.464-20.467-20.375-37.742c6.089-17.276,26.161-6.594,16.676,1.895    c-9.485,8.489-41.543-26.157-24.269-35.046s17.476,12.48,8.988,7.987c-8.488-4.492-24.867-29.254-12.686-38.842    s27.86,5.289,18.274,8.086c-9.586,2.797-41.543-26.157-12.886-40.24s44.238,20.065,36.749,22.562    c-7.489,2.497-9.289-20.07,8.686-14.081c17.975,5.989,22.072,34.647,14.184,39.341c-7.888,4.694-9.989-24.962,10.783-9.388    s14.685,47.828,5.797,40.54c-8.888-7.288,2.294-23.865,18.472-5.494s17.679,33.848,5.496,33.451s-15.279-12.08,0.498-11.483    c15.777,0.597,30.059,20.666,6.296,44.035"/>
		<path style="fill:#241726;" d="M250.966,258.9c-0.311,0-0.622-0.12-0.857-0.359c-0.466-0.474-0.459-1.234,0.014-1.699    c14.15-13.918,19.565-28.871,14.854-41.029c-2.097-5.411-6.138-9.858-11.152-12.655c0.118,2.506-0.245,4.726-1.122,6.582    c-1.258,2.668-4.215,5.782-10.872,5.585c-7.847-0.258-12.413-3.672-14.068-6.782c-1.137-2.135-1.108-4.355,0.08-6.251    c2.092-3.337,7.318-5.001,14.739-4.74c2.837,0.108,5.608,0.664,8.225,1.605c-1.7-7.383-7.015-17.457-17.195-29.016    c-3.901-4.428-7.872-7.58-11.605-9.29c-0.004,1.934-0.13,3.806-0.371,5.592c-0.887,6.564-3.346,11.243-6.578,12.515    c-1.361,0.535-3.515,0.739-6.034-1.326c-3.712-3.044-5.347-7.495-4.373-11.905c0.91-4.123,4.001-7.338,8.065-8.385    c1.589-0.413,3.884-0.634,6.767,0.063c-0.868-11.761-6.363-25.151-18.177-34.007c-2.699-2.025-5.195-3.532-7.449-4.51    c0.458,8.295-1.636,14.758-5.65,17.147c-2.496,1.485-5.071,0.988-6.894-1.324c-3.215-4.085-3.54-12.761,0.663-17.065    c1.514-1.551,4.345-3.227,9.135-2.178c-1.789-12.928-9.417-27.5-22.886-31.989c-4.983-1.661-9.066-1.734-12.05-0.263    c3.377,5.465,4.983,11.034,4.386,14.807c-0.348,2.203-1.485,3.731-3.202,4.304c-2.529,0.84-4.954,0.002-6.645-2.311    c-2.655-3.633-3.149-10.743,0.348-15.532c0.447-0.612,1.038-1.288,1.807-1.934c-2.151-3.062-4.953-6.08-8.422-8.638    c-7.276-5.367-19.454-10.048-36.131-1.847c-16.64,8.176-16.417,19.465-13.298,27.493c1.658,4.271,4.324,8.272,7.431,11.745    c7.329-4.24,15.18-2.933,20.432-0.014c4.734,2.635,7.664,6.629,7.292,9.938c-0.147,1.302-0.964,3.656-4.801,4.775    c-5.451,1.607-15.443-3.607-23.253-11.632c-0.268,0.19-0.535,0.392-0.803,0.601c-4.056,3.194-5.828,7.976-5.265,14.211    c0.719,7.972,5.256,17.145,10.473,24.323c10.696-4.909,15.673-0.76,17.357,1.331c2.715,3.37,2.986,8.462,0.603,11.351    c-1.746,2.119-4.547,2.45-7.492,0.896c-3.243-1.718-7.338-5.571-11.195-10.541c-4.012,2.171-5.958,5.63-5.787,10.283    c0.323,8.826,8.098,20.139,16.743,27.702c4.359-7.345,10.582-8.347,13.37-8.396c5.431-0.174,10.27,2.743,11.899,6.897    c1.334,3.403,0.164,7.087-3.211,10.109c-2.899,2.593-7.231,2.771-12.535,0.516c-2.824-1.199-5.811-3.048-8.749-5.346    c-0.251,0.575-0.488,1.173-0.706,1.795c-7.769,22.04,26.529,48.904,26.876,49.174c0.524,0.406,0.621,1.162,0.215,1.685    c-0.406,0.528-1.162,0.624-1.685,0.216c-1.475-1.14-36.016-28.2-27.673-51.872c0.325-0.922,0.675-1.779,1.044-2.577    c-9.309-7.964-17.633-20.087-17.989-29.816c-0.199-5.447,2.126-9.689,6.735-12.31c-5.337-7.397-9.924-16.757-10.687-25.203    c-0.632-6.998,1.502-12.639,6.173-16.314c0.212-0.169,0.426-0.331,0.641-0.488c-3.263-3.68-6.016-7.845-7.695-12.167    c-2.85-7.34-4.759-21.068,14.479-30.523c13.855-6.81,27.569-6.075,38.617,2.07c3.589,2.647,6.618,5.881,8.982,9.241    c2.924-1.535,7.411-2.255,14.13-0.019c14.828,4.942,23.035,21.087,24.642,35.019c2.561,0.948,5.579,2.602,9.119,5.256    c12.741,9.553,18.499,24.114,19.188,36.711c3.778,1.478,8.335,4.527,13.479,10.37c10.203,11.583,16.587,23.006,18.089,31.736    c6.181,2.983,11.21,8.19,13.715,14.655c5.073,13.094-0.543,28.988-15.41,43.61C251.575,258.785,251.27,258.9,250.966,258.9z     M240.963,199.924c-7.906,0-10.373,2.511-11.082,3.644c-0.913,1.455-0.502,2.893,0.004,3.844c1.279,2.403,5.197,5.287,12.025,5.51    c4.354,0.15,7.238-1.272,8.622-4.208c0.803-1.699,1.088-3.994,0.761-6.794c-2.758-1.164-5.738-1.852-8.801-1.966    C241.961,199.934,241.451,199.924,240.963,199.924z M118.637,196.102c2.897,2.318,5.837,4.175,8.582,5.341    c3.059,1.3,7.273,2.335,9.992-0.096c2.622-2.349,3.538-4.991,2.577-7.441c-1.25-3.189-5.306-5.475-9.619-5.371    C125.435,188.616,121.38,191.321,118.637,196.102z M215.845,159.355c-0.873,0-1.717,0.103-2.527,0.312    c-3.232,0.833-5.594,3.292-6.32,6.578c-0.774,3.508,0.553,7.07,3.549,9.527c1.302,1.065,2.523,1.389,3.631,0.948    c2.338-0.92,4.331-5.08,5.076-10.6c0.265-1.962,0.384-4.036,0.345-6.183C218.305,159.553,217.048,159.355,215.845,159.355z     M108.012,155.474c3.502,4.463,7.17,7.929,10.107,9.483c1.355,0.72,3.236,1.248,4.515-0.3c1.454-1.762,1.556-5.611-0.622-8.314    C119.334,153.017,114.293,152.731,108.012,155.474z M188.279,117.524c-1.862,0-3.407,0.598-4.583,1.802    c-3.262,3.339-3.044,10.658-0.495,13.897c1.078,1.37,2.313,1.614,3.777,0.746c3.345-1.99,5.035-8.192,4.411-15.974    C190.274,117.682,189.235,117.524,188.279,117.524z M104.14,113.099c7.283,7.364,16.282,11.834,20.56,10.6    c1.907-0.559,2.945-1.478,3.087-2.739c0.257-2.286-2.297-5.468-6.073-7.57C119.453,112.132,112.064,108.767,104.14,113.099z     M154.193,84.568c-0.433,0.397-0.83,0.84-1.189,1.333c-2.836,3.884-2.46,9.809-0.35,12.698c1.077,1.474,2.405,1.974,3.945,1.448    c0.847-0.282,1.382-1.089,1.589-2.396C158.646,94.76,157.341,89.733,154.193,84.568z"/>
		<path style="fill:#A6B470;" d="M327.919,181.991c0,0,13.751-42.619-6.039-57.095c-19.79-14.476-33.881,12.502-16.985,14.705    c16.896,2.203,26.103-60.307,0.301-57.062c-25.801,3.245-9.864,27-3.887,15.619s5.342-51.117-15.362-52.495    s-26.772,26.911-14.069,22.751s26.103-60.307-16.199-54.19s-33.686,55.617-23.526,52.712s-4.918-29.192-20.242-8.983    s1.823,54.96,14.086,54.179c12.262-0.781-7.846-35.125-19.009-2.214c-11.164,32.911,19.952,63.932,24.257,49.16    s-20.582-24.625-24.558,7.902c-3.976,32.526,6.072,50.755,19.227,41.103c13.154-9.652,7.74-24.898-9.234-12.307    c-16.974,12.591-17.571,45.558,26.348,53.398"/>
		<path style="fill:#70A471;" d="M311.531,204.907c0,0,10.273-31.839-4.511-42.653s-25.311,9.34-12.689,10.985    c12.622,1.645,19.5-45.052,0.225-42.628c-19.275,2.424-7.369,20.17-2.904,11.668c4.466-8.502,3.991-38.187-11.477-39.216    c-15.467-1.029-20,20.104-10.51,16.996s19.5-45.052-12.101-40.483c-31.601,4.57-25.165,41.549-17.575,39.379    c7.59-2.17-3.674-21.808-15.122-6.711s1.362,41.058,10.523,40.474c9.16-0.583-5.861-26.24-14.201-1.654    c-8.34,24.586,14.905,47.76,18.121,36.725c3.216-11.035-15.376-18.396-18.346,5.903s4.536,37.917,14.363,30.706    s5.782-18.6-6.898-9.194c-12.681,9.406-13.126,34.034,19.683,39.891"/>
		<path style="fill:#241726;" d="M243.027,250.375c-0.07,0-0.141-0.007-0.212-0.019c-20.526-3.663-34.14-13.606-37.353-27.273    c-1.586-6.751-0.379-13.89,3.037-19.843c-3.691-8.051-4.877-21.085-3.005-36.406c0.945-7.725,2.981-12.817,5.264-16.171    c-6.547-10.783-10.024-26.05-4.908-41.13c1.422-4.191,2.977-7.261,4.555-9.49c-6.546-12.407-8.896-30.361,0.549-42.817    c4.278-5.641,8.388-7.58,11.669-7.967c0.052-4.111,0.724-8.49,2.191-12.702c4.511-12.96,15.413-21.315,30.694-23.525    c21.215-3.065,27.395,9.337,29.191,17.004c1.057,4.515,1.139,9.509,0.526,14.387c0.266,0.009,0.533,0.021,0.804,0.04    c5.93,0.394,10.878,3.844,14.31,9.973c4.142,7.399,5.646,17.717,5.421,26.834c5.278-0.451,9.599,1.746,12.512,6.352    c5.202,8.227,5.183,22.934,2.002,34.765c0.757,0.451,1.529,0.96,2.318,1.537c20.257,14.819,7.045,56.66,6.473,58.434    c-0.203,0.631-0.879,0.981-1.512,0.774c-0.631-0.204-0.979-0.88-0.776-1.511c0.135-0.418,13.256-41.963-5.605-55.758    c-0.532-0.39-1.064-0.749-1.598-1.082c-1.125,3.555-2.545,6.768-4.197,9.354c-3.101,4.858-6.788,7.16-10.635,6.657    c-4.493-0.587-7.54-2.966-8.361-6.528c-1.003-4.348,1.433-9.455,5.922-12.414c2.328-1.535,8.03-4.222,15.774-0.627    c2.861-11.123,2.884-24.853-1.836-32.318c-2.487-3.935-6.052-5.693-10.583-5.212c-0.375,6.28-1.576,11.773-3.282,15.021    c-1.55,2.952-4.046,4.257-6.689,3.494c-3.597-1.037-6.25-5.393-5.914-9.706c0.209-2.68,1.976-8.91,13.569-10.905    c0.248-8.87-1.192-19.005-5.1-25.989c-3.059-5.463-7.222-8.406-12.373-8.748c-0.339-0.023-0.673-0.038-1.001-0.045    c-1.909,11.036-7.221,20.972-12.614,22.739c-3.795,1.241-5.801-0.237-6.66-1.227c-2.177-2.52-2.015-7.469,0.402-12.32    c2.681-5.378,8.42-10.893,16.866-11.534c0.601-4.623,0.541-9.429-0.503-13.89c-1.964-8.387-8.164-17.844-26.506-15.173    c-18.393,2.659-25.797,13.397-28.77,21.934c-1.417,4.074-2.024,8.148-2.069,11.89c0.997,0.099,1.869,0.321,2.584,0.575    c5.592,1.976,9.201,8.119,9.063,12.618c-0.087,2.863-1.61,4.926-4.176,5.66c-1.739,0.5-3.541-0.12-5.073-1.741    c-2.625-2.776-4.447-8.279-4.747-14.695c-3.297,0.469-6.622,2.839-9.795,7.023c-8.578,11.313-6.639,27.648-0.811,39.327    c3.363-3.574,6.645-3.78,8.769-3.365c5.899,1.178,10.532,8.518,10.187,13.704c-0.196,2.938-2.043,4.801-4.941,4.987    c-4.667,0.282-10.04-3.853-14.35-10.956c-1.306,2.081-2.514,4.736-3.597,7.929c-4.744,13.984-1.714,28.136,4.216,38.332    c1.983-2.203,4.002-3.316,5.546-3.877c3.946-1.427,8.312-0.526,11.393,2.363c3.295,3.088,4.46,7.683,3.116,12.292    c-0.912,3.13-2.803,4.177-4.229,4.506c-3.394,0.781-8.057-1.697-12.497-6.61c-1.207-1.335-2.37-2.811-3.466-4.405    c-2.114,3.52-3.61,8.361-4.327,14.221c-1.868,15.288-0.562,26.604,2.206,33.656c1.626-2.253,3.6-4.278,5.88-5.97    c5.959-4.421,11.23-5.993,14.839-4.416c2.051,0.892,3.329,2.708,3.597,5.111c0.391,3.504-1.447,8.901-7.776,13.545    c-5.41,3.971-9.581,3.02-12.125,1.537c-1.773-1.04-3.326-2.666-4.645-4.799c-2.559,5.141-3.38,11.093-2.052,16.746    c2.981,12.691,15.897,21.969,35.435,25.456c0.654,0.117,1.088,0.742,0.971,1.394C244.105,249.966,243.598,250.375,243.027,250.375    z M211.245,203.336c1.313,2.494,2.844,4.226,4.468,5.177c2.796,1.636,5.989,1.166,9.489-1.401c5.51-4.041,7.111-8.636,6.81-11.339    c-0.12-1.07-0.593-2.49-2.169-3.175c-1.3-0.57-5.117-1.295-12.448,4.142C214.933,198.566,212.863,200.818,211.245,203.336z     M213.675,150.79c1.18,1.793,2.451,3.44,3.779,4.909c3.734,4.132,7.719,6.413,10.176,5.878c1.162-0.268,1.989-1.22,2.459-2.835    c1.084-3.722,0.168-7.411-2.453-9.868c-2.455-2.3-5.789-2.997-8.93-1.856C216.833,147.697,215.143,148.979,213.675,150.79z     M310.368,121.847c-2.418,0-4.705,0.664-6.745,2.011c-3.61,2.379-5.672,6.531-4.903,9.868c0.593,2.565,2.841,4.229,6.33,4.684    c3.634,0.505,6.513-2.767,8.3-5.566c1.605-2.513,2.983-5.707,4.063-9.255C315.012,122.431,312.633,121.847,310.368,121.847z     M213.256,100.246c3.881,6.77,8.705,10.926,12.664,10.687c1.698-0.108,2.579-1.007,2.695-2.748    c0.275-4.111-3.682-10.276-8.259-11.186C217.857,96.494,215.449,97.63,213.256,100.246z M303.226,84.064    c-6.734,1.284-10.728,4.369-11.06,8.626c-0.27,3.461,1.989,6.578,4.184,7.211c1.917,0.561,3.181-0.946,3.894-2.302    C301.79,94.659,302.858,89.726,303.226,84.064z M282.482,46.912c-8.989,0.901-13.183,7.857-14.337,10.17    c-1.928,3.867-2.236,7.936-0.734,9.675c0.832,0.96,2.209,1.131,4.093,0.514C275.749,65.882,280.633,57.098,282.482,46.912z     M225.062,51.649c0.32,6.038,2.084,10.921,4.094,13.05c0.91,0.962,1.819,1.328,2.666,1.082c1.561-0.446,2.381-1.598,2.436-3.424    c0.11-3.576-2.927-8.678-7.462-10.281C226.22,51.875,225.641,51.732,225.062,51.649z"/>
	</g>
	<path style="fill:#FBE998;" d="M201.707,284.31c0,0-68.666-157.672-64.927-156.993c3.738,0.679,20.051,4.415,20.051,4.415   s67.474,140.851,63.057,143.91C215.469,278.701,201.707,284.31,201.707,284.31z"/>
	<path style="fill:#FBE998;" d="M277.107,241.178c0,0-13.648-171.433-10.334-169.575c3.314,1.858,17.524,10.697,17.524,10.697   s17.993,155.139,12.821,156.594C291.946,240.351,277.107,241.178,277.107,241.178z"/>
	<path style="fill:#FBE998;" d="M210.672,251.891c0,0-13.648-171.433-10.334-169.575c3.314,1.858,17.524,10.697,17.524,10.697   s17.993,155.139,12.821,156.594C225.51,251.064,210.672,251.891,210.672,251.891z"/>
	<path style="fill:#FBE998;" d="M247.206,269.728c0,0-13.648-171.433-10.334-169.575c3.314,1.858,17.524,10.697,17.524,10.697   s17.993,155.139,12.821,156.594C262.044,268.9,247.206,269.728,247.206,269.728z"/>
	<path style="fill:#B15078;" d="M220.476,292.008c0,0-49.061-164.829-45.432-163.702c3.628,1.127,19.368,6.811,19.368,6.811   s49.916,147.987,45.16,150.488S220.476,292.008,220.476,292.008z"/>
	<path style="fill:#B15078;" d="M278.417,289.792c0,0-49.061-164.829-45.432-163.702s19.368,6.811,19.368,6.811   s49.916,147.987,45.16,150.488C292.757,285.891,278.417,289.792,278.417,289.792z"/>
	<path style="fill:#B15078;" d="M316.244,265.907c0,0-35.96-165.099-33.366-163.95s13.852,6.925,13.852,6.925   s36.47,148.264,33.094,150.737C326.447,262.092,316.244,265.907,316.244,265.907z"/>
	<path style="fill:#B15078;" d="M226.452,292.831c0,0-113.022-125.605-110.2-125.893c2.822-0.288,15.463-0.846,15.463-0.846   s105.126,110.729,103.418,114.549C233.425,284.463,226.452,292.831,226.452,292.831z"/>
	<path style="fill:#EF9B65;" d="M266.105,252.712c0,0-90.401-142.753-87.57-142.564s15.387,1.754,15.387,1.754   s85.106,126.764,82.783,130.245C274.382,245.629,266.105,252.712,266.105,252.712z"/>
	<path style="fill:#EF9B65;" d="M272.406,265.339c0,0-19.946-167.788-17.474-166.396c2.472,1.392,13.123,8.223,13.123,8.223   s22.069,151.08,18.471,153.218C282.929,262.521,272.406,265.339,272.406,265.339z"/>
	<path style="fill:#EF9B65;" d="M195.61,305.449c0,0-19.946-167.788-17.474-166.396c2.472,1.392,13.123,8.223,13.123,8.223   s22.069,151.08,18.471,153.218C206.132,302.631,195.61,305.449,195.61,305.449z"/>
	<g>
		<path style="fill:#E2394B;" d="M209.708,177.316c0,0,83.672,24.811,86.517,27.767c2.845,2.956-21.906,48.462-58.731,36.599    S201.924,175.828,209.708,177.316z"/>
		<path style="fill:#241726;" d="M248.357,233.061c-1.091,0-2.191-0.077-3.298-0.23c-24.716-3.412-23.847-49.225-23.797-51.173    c0.015-0.664,0.547-1.216,1.232-1.171c0.663,0.016,1.187,0.568,1.171,1.232c-0.012,0.455-0.874,45.614,21.723,48.733    c22.669,3.095,33.713-30.232,33.822-30.57c0.204-0.631,0.876-0.976,1.512-0.774c0.631,0.204,0.977,0.88,0.774,1.511    c-0.117,0.361-2.922,8.941-8.748,17.255C265.744,227.866,257.368,233.061,248.357,233.061z"/>
		<path style="fill:#241726;" d="M242.92,223.459c-0.499,0-0.906-0.141-1.201-0.298c-1.27-0.664-4.56-4.341,2.611-24.168    c-4.847,4.468-12.041,10.316-15.28,9.093c-0.719-0.272-1.2-0.828-1.356-1.565c-0.771-3.654,8.721-13.488,12.837-17.548    c0.474-0.462,1.233-0.462,1.699,0.014c0.466,0.472,0.461,1.232-0.012,1.699c-6.885,6.789-12.459,13.815-12.173,15.338    c1.802,0.612,10.001-5.946,16.46-12.465c0.401-0.408,1.034-0.474,1.51-0.162c0.479,0.314,0.67,0.92,0.46,1.45    c-4.619,11.653-7.989,24.959-5.641,26.186c0.036,0.019,0.101,0.054,0.296-0.028c3.359-1.347,9.54-16.516,12.647-25.759    c0.19-0.563,0.77-0.896,1.347-0.8c0.585,0.103,1.008,0.617,0.994,1.211c-0.123,5.174,0.47,19.238,4.638,22.136    c0.199,0.136,0.319,0.171,0.348,0.171c1.457-0.774,1.836-11.046,0.77-21.967c-0.065-0.662,0.419-1.248,1.078-1.314    c0.668-0.033,1.248,0.422,1.313,1.079c0.642,6.575,1.734,22.103-1.986,24.283c-0.505,0.296-1.551,0.65-2.893-0.282    c-3.913-2.717-5.154-11.365-5.53-17.583c-2.912,7.751-7.881,19.47-11.829,21.056C243.62,223.398,243.251,223.459,242.92,223.459z"/>
	</g>
	<g>
		<path style="fill:#E2394B;" d="M298.449,121.936c0,0,40.961,77.063,40.847,81.165s-49.917,18.35-67.271-16.228    S294.054,115.342,298.449,121.936z"/>
		<path style="fill:#241726;" d="M305.714,196.026c-9.631,0-17.175-3.379-22.074-9.961c-14.894-20.017,18.387-51.513,19.811-52.844    c0.485-0.451,1.243-0.425,1.698,0.056c0.453,0.486,0.427,1.246-0.057,1.699c-0.332,0.312-33.142,31.351-19.523,49.653    c13.649,18.351,45.19,2.851,45.508,2.689c0.593-0.296,1.316-0.059,1.612,0.537c0.298,0.591,0.057,1.314-0.535,1.612    c-0.339,0.169-8.424,4.184-18.438,5.857C310.913,195.792,308.241,196.026,305.714,196.026z"/>
		<path style="fill:#241726;" d="M306.835,190.883c-0.214,0-0.415-0.023-0.605-0.075c-0.563-0.153-1.551-0.648-1.827-2.262    c-0.805-4.696,4.493-11.644,8.664-16.269c-7.568,3.356-19.403,8.035-23.309,6.322c-1.002-0.436-1.404-1.164-1.565-1.697    c-0.415-1.37-0.097-6.294,19.069-15.079c-6.587-0.324-15.799-1.347-17.197-4.524c-0.31-0.702-0.251-1.436,0.165-2.063    c2.065-3.109,15.727-3.248,21.513-3.145c0.664,0.012,1.193,0.556,1.183,1.22c-0.011,0.664-0.576,1.253-1.22,1.183    c-9.665-0.171-18.587,0.796-19.472,2.07c0.862,1.657,11.25,2.964,20.43,2.999c0.57,0.002,1.061,0.406,1.173,0.964    c0.113,0.561-0.185,1.122-0.711,1.345c-11.55,4.876-23.401,11.799-22.632,14.336c0.012,0.035,0.032,0.103,0.228,0.19    c3.315,1.441,18.468-4.775,27.237-9.037c0.536-0.26,1.178-0.092,1.515,0.399c0.338,0.488,0.266,1.15-0.168,1.558    c-3.777,3.539-13.39,13.819-12.533,18.825c0.041,0.237,0.101,0.347,0.121,0.368c1.591,0.502,9.168-6.437,16.207-14.852    c0.425-0.509,1.18-0.575,1.692-0.15c0.509,0.427,0.576,1.185,0.15,1.694C320.895,180.036,311.32,190.883,306.835,190.883z"/>
	</g>
	<g>
		<path style="fill:#E2394B;" d="M126.474,240.903c0,0,35.242-79.841,38.536-82.287c3.293-2.446,45.285,27.887,28.839,62.905    S124.009,248.434,126.474,240.903z"/>
		<path style="fill:#241726;" d="M147.754,231.064c-8.292,0-14.799-0.962-15.504-1.07c-0.656-0.101-1.105-0.713-1.004-1.37    c0.102-0.655,0.712-1.103,1.37-1.004c0.448,0.068,45.129,6.667,51.097-15.356c5.979-22.072-25.705-37.279-26.025-37.431    c-0.601-0.282-0.858-0.997-0.575-1.598c0.28-0.598,0.996-0.857,1.598-0.575c0.343,0.16,8.497,4.032,16.003,10.87    c10.114,9.211,14.027,19.364,11.318,29.364C181.893,228.168,162.139,231.064,147.754,231.064z"/>
		<path style="fill:#241726;" d="M157.57,226.781c-3.799,0-12.16-10.436-15.616-14.972c-0.401-0.528-0.299-1.281,0.229-1.683    c0.527-0.404,1.282-0.298,1.684,0.228c5.818,7.638,12.031,14.026,13.634,14.026c0.012,0,0.022,0,0.033-0.002    c0.767-1.699-4.628-10.673-10.275-17.91c-0.352-0.451-0.338-1.084,0.033-1.518c0.368-0.439,0.993-0.551,1.495-0.272    c10.974,6.064,23.741,11.1,25.262,8.924c0.022-0.033,0.062-0.092,0.009-0.298c-0.912-3.504-15.171-11.562-23.945-15.819    c-0.535-0.26-0.799-0.871-0.623-1.438c0.178-0.568,0.754-0.911,1.328-0.831c5.118,0.779,19.142,1.978,22.544-1.788    c0.162-0.181,0.211-0.296,0.216-0.324c-0.584-1.544-10.723-3.224-21.692-3.553c-0.663-0.021-1.184-0.575-1.165-1.237    c0.021-0.666,0.607-1.124,1.238-1.166c6.602,0.199,22.142,1.087,23.834,5.055c0.229,0.537,0.451,1.622-0.646,2.835    c-3.195,3.534-11.93,3.665-18.144,3.25c7.318,3.874,18.31,10.292,19.382,14.411c0.275,1.058-0.047,1.823-0.366,2.279    c-0.818,1.178-4.885,3.975-23.642-5.66c3.819,5.376,8.71,13.247,7.077,16.311c-0.361,0.678-0.974,1.084-1.725,1.145    C157.676,226.779,157.623,226.781,157.57,226.781z"/>
	</g>
	<g>
		
			<ellipse transform="matrix(0.9899 -0.1415 0.1415 0.9899 -31.6422 30.6472)" style="fill:#70A471;" cx="199.605" cy="237.743" rx="38.439" ry="40.337"/>
		
			<ellipse transform="matrix(0.9899 -0.1415 0.1415 0.9899 -31.8083 30.6832)" style="fill:#A6B470;" cx="199.774" cy="238.929" rx="29.665" ry="31.13"/>
		<path style="fill:#241726;" d="M212.254,229.795c-1.668,0-4.154-0.35-6.309-2.065c-2.636-2.1-4.02-5.608-4.112-10.426    c-0.013-0.664,0.515-1.211,1.178-1.225c0.587,0.031,0.922,0.282,1.115,0.699c0.101-0.063,0.212-0.11,0.334-0.143    c0.632-0.157,6.275-1.18,10.587,11.43c0.111,0.326,0.077,0.685-0.093,0.983c-0.17,0.3-0.461,0.512-0.798,0.582    C214.082,229.647,213.342,229.795,212.254,229.795z M204.328,218.904c0.309,3.21,1.353,5.543,3.113,6.946    c1.617,1.286,3.528,1.544,4.802,1.544c0.001,0,0.002,0,0.005,0c-3.457-8.99-7.198-8.42-7.238-8.42    C204.769,219.016,204.537,218.988,204.328,218.904z"/>
		<path style="fill:#241726;" d="M181.106,236.79c-0.219,0-0.441-0.005-0.666-0.009c-0.663-0.019-1.186-0.57-1.17-1.232    c0.013-0.493,0.319-0.906,0.746-1.082c-0.057-0.103-0.1-0.216-0.124-0.34c-0.13-0.636-0.898-6.319,11.896-10.058    c0.33-0.099,0.688-0.047,0.977,0.136c0.291,0.183,0.49,0.483,0.546,0.824c0.031,0.19,0.722,4.689-2.272,8.117    C188.927,235.565,185.587,236.79,181.106,236.79z M190.984,226.835c-9.132,3.046-8.738,6.81-8.732,6.847    c0.032,0.237-0.007,0.472-0.101,0.678c3.21-0.162,5.581-1.094,7.062-2.778C190.574,230.034,190.923,228.119,190.984,226.835z"/>
		<path style="fill:#241726;" d="M182.331,258.562c-0.219,0-0.441-0.005-0.666-0.009c-0.663-0.019-1.186-0.57-1.17-1.232    c0.013-0.493,0.319-0.906,0.746-1.082c-0.057-0.103-0.1-0.216-0.124-0.34c-0.13-0.636-0.898-6.32,11.896-10.058    c0.329-0.099,0.686-0.047,0.977,0.136c0.291,0.183,0.49,0.483,0.546,0.824c0.031,0.19,0.723,4.689-2.27,8.117    C190.152,257.337,186.812,258.562,182.331,258.562z M192.216,248.605c-9.138,3.046-8.745,6.812-8.739,6.85    c0.032,0.237-0.007,0.472-0.101,0.678c3.222-0.164,5.598-1.101,7.079-2.797C191.816,251.778,192.158,249.877,192.216,248.605z"/>
		<path style="fill:#241726;" d="M201.956,260.477c-0.219,0-0.441-0.005-0.666-0.009c-0.663-0.019-1.186-0.57-1.17-1.232    c0.013-0.493,0.32-0.908,0.749-1.082c-0.057-0.103-0.101-0.218-0.126-0.343c-0.13-0.636-0.899-6.319,11.896-10.055    c0.329-0.099,0.686-0.047,0.977,0.136c0.291,0.183,0.49,0.483,0.546,0.824c0.031,0.19,0.722,4.689-2.272,8.117    C209.778,259.252,206.437,260.477,201.956,260.477z M211.842,250.52c-9.14,3.044-8.745,6.808-8.739,6.847    c0.033,0.239-0.007,0.474-0.102,0.681c3.222-0.164,5.598-1.101,7.079-2.797C211.441,253.693,211.785,251.792,211.842,250.52z"/>
		<path style="fill:#241726;" d="M216.43,243.879c-0.591,0-1.209-0.056-1.843-0.19c-3.297-0.692-6.107-3.203-8.354-7.467    c-0.31-0.587-0.084-1.314,0.503-1.624c0.433-0.23,0.946-0.167,1.307,0.122c0.062-0.101,0.141-0.195,0.236-0.277    c0.492-0.425,5.076-3.877,14.593,5.458c0.245,0.242,0.377,0.577,0.359,0.92c-0.019,0.345-0.183,0.664-0.452,0.88    C222.65,241.802,219.993,243.879,216.43,243.879z M209.18,236.529c1.718,2.731,3.697,4.346,5.901,4.808    c2.025,0.422,3.851-0.204,4.989-0.779c-7.129-6.484-10.216-4.294-10.249-4.271C209.629,236.431,209.405,236.511,209.18,236.529z"/>
	</g>
	<g>
		
			<ellipse transform="matrix(0.7938 -0.6082 0.6082 0.7938 -65.754 209.8005)" style="fill:#70A471;" cx="276.5" cy="201.863" rx="38.439" ry="40.337"/>
		
			<ellipse transform="matrix(0.7938 -0.6082 0.6082 0.7938 -65.326 209.1615)" style="fill:#A6B470;" cx="275.772" cy="200.912" rx="29.665" ry="31.13"/>
		<path style="fill:#241726;" d="M279.186,223.766c-2.401,0-6.124-1.178-11.408-5.902c-0.257-0.23-0.404-0.559-0.401-0.903    s0.151-0.671,0.411-0.896c0.144-0.127,3.594-3.095,8.09-2.365c3.325,0.54,6.249,2.919,8.691,7.077    c0.336,0.573,0.144,1.307-0.427,1.643c-0.424,0.251-0.939,0.207-1.313-0.061c-0.057,0.103-0.133,0.199-0.223,0.286    C282.384,222.853,281.298,223.766,279.186,223.766z M270.551,217.083c7.354,6.09,10.374,3.844,10.401,3.816    c0.184-0.174,0.409-0.279,0.643-0.314c-1.832-2.628-3.873-4.144-6.081-4.508C273.479,215.729,271.673,216.454,270.551,217.083z"/>
		<path style="fill:#241726;" d="M289.154,210.32c-0.02,0-0.041,0-0.061-0.002c-0.344-0.016-0.664-0.181-0.879-0.451    c-0.12-0.15-2.926-3.734-1.995-8.19c0.689-3.297,3.2-6.111,7.461-8.361c0.584-0.31,1.314-0.087,1.624,0.502    c0.229,0.434,0.165,0.948-0.122,1.309c0.101,0.061,0.194,0.141,0.277,0.235c0.424,0.49,3.877,5.071-5.447,14.596    C289.787,210.191,289.477,210.32,289.154,210.32z M293.375,196.263c-2.72,1.715-4.331,3.689-4.798,5.883    c-0.429,2.016,0.205,3.858,0.781,5.005c6.47-7.129,4.284-10.215,4.259-10.245C293.473,196.714,293.392,196.491,293.375,196.263z"/>
		<path style="fill:#241726;" d="M277.424,191.936c-0.02,0-0.041,0-0.061-0.002c-0.344-0.016-0.664-0.181-0.879-0.451    c-0.12-0.15-2.926-3.734-1.995-8.19c0.689-3.297,3.2-6.111,7.461-8.361c0.588-0.307,1.313-0.084,1.624,0.502    c0.229,0.434,0.165,0.948-0.122,1.309c0.101,0.061,0.195,0.141,0.277,0.235c0.424,0.49,3.877,5.073-5.447,14.596    C278.056,191.807,277.746,191.936,277.424,191.936z M281.644,177.88c-2.72,1.715-4.331,3.689-4.798,5.883    c-0.429,2.016,0.205,3.858,0.781,5.005c6.471-7.127,4.283-10.215,4.259-10.245C281.743,178.33,281.662,178.107,281.644,177.88z"/>
		<path style="fill:#241726;" d="M259.376,199.88c-0.02,0-0.041,0-0.061-0.002c-0.344-0.016-0.664-0.181-0.879-0.451    c-0.12-0.15-2.926-3.734-1.996-8.19c0.69-3.297,3.2-6.111,7.462-8.361c0.585-0.307,1.314-0.087,1.624,0.502    c0.229,0.434,0.165,0.948-0.122,1.309c0.101,0.061,0.194,0.141,0.277,0.235c0.424,0.49,3.877,5.071-5.447,14.596    C260.008,199.751,259.698,199.88,259.376,199.88z M263.596,185.823c-2.729,1.72-4.342,3.701-4.804,5.904    c-0.424,2.027,0.209,3.853,0.783,4.989c6.474-7.131,4.288-10.22,4.264-10.25C263.695,186.274,263.614,186.051,263.596,185.823z"/>
		<path style="fill:#241726;" d="M262.842,212.554c-2.01,0-4.529-0.329-7.684-1.18c-0.332-0.089-0.61-0.317-0.764-0.627    c-0.153-0.307-0.165-0.666-0.035-0.986c0.072-0.178,1.826-4.379,6.167-5.745c3.209-1.016,6.894-0.199,10.942,2.419    c0.557,0.361,0.717,1.105,0.357,1.661c-0.266,0.413-0.746,0.62-1.201,0.533c-0.005,0.12-0.028,0.239-0.07,0.357    C270.386,209.447,269.03,212.554,262.842,212.554z M257.286,209.43c9.376,2.164,11.003-1.258,11.02-1.295    c0.096-0.218,0.252-0.399,0.44-0.526c-2.825-1.532-5.337-1.974-7.476-1.307C259.302,206.915,258.006,208.367,257.286,209.43z"/>
	</g>
	<g>
		<path style="fill:#F3BB89;" d="M194.768,498.913c0,0-105.893-282.215-83.126-292.753c22.767-10.538,102.207,34.141,155.574,61.284    c52.9,26.905,86.248,203.922,66.2,216.499C313.368,496.519,195.79,523.041,194.768,498.913z"/>
		<path style="fill:#F3BB89;" d="M194.768,498.913c0,0-34.347-106.128-22.788-150.882    c23.437-90.737,146.294-192.101,161.751-201.673c14.092-8.726,103.666,283.878,84.638,303.59    C399.341,469.662,188.656,541.053,194.768,498.913z"/>
		<path style="fill:#251626;" d="M165.077,416.974c-0.524,0-1.007-0.347-1.156-0.878c-23.04-82.182,69.458-177.723,70.396-178.678    c0.463-0.479,1.226-0.481,1.699-0.019c0.474,0.465,0.481,1.227,0.016,1.699c-0.927,0.946-92.462,95.508-69.797,176.35    c0.18,0.638-0.194,1.302-0.833,1.481C165.294,416.96,165.185,416.974,165.077,416.974z"/>
		<g>
			<g>
				<circle style="fill:#EF9B65;" cx="331.609" cy="220.843" r="17.55"/>
				<circle style="fill:#EF9B65;" cx="303.982" cy="242.666" r="11.214"/>
				<circle style="fill:#EF9B65;" cx="328.63" cy="257.277" r="11.214"/>
				<circle style="fill:#EF9B65;" cx="360.933" cy="413.255" r="11.214"/>
				<circle style="fill:#EF9B65;" cx="364.666" cy="371.455" r="11.214"/>
				<circle style="fill:#EF9B65;" cx="315.392" cy="383.356" r="11.214"/>
				<circle style="fill:#EF9B65;" cx="300.644" cy="219.321" r="6.335"/>
				<circle style="fill:#EF9B65;" cx="307.276" cy="265.701" r="6.335"/>
				<circle style="fill:#EF9B65;" cx="347.152" cy="244.518" r="6.335"/>
				<circle style="fill:#EF9B65;" cx="378.765" cy="342.738" r="6.335"/>
				<circle style="fill:#EF9B65;" cx="389.137" cy="398.299" r="6.335"/>
				<circle style="fill:#EF9B65;" cx="202.395" cy="348.537" r="6.335"/>
				<circle style="fill:#EF9B65;" cx="232.122" cy="284.816" r="6.335"/>
				<circle style="fill:#EF9B65;" cx="256.602" cy="388.121" r="6.335"/>
			</g>
			<g>
				<circle style="fill:#EF9B65;" cx="229.784" cy="467.801" r="17.55"/>
				<circle style="fill:#EF9B65;" cx="250.145" cy="439.08" r="11.214"/>
				<circle style="fill:#EF9B65;" cx="222.38" cy="432.003" r="11.214"/>
				<circle style="fill:#EF9B65;" cx="259.924" cy="460.54" r="6.335"/>
				<circle style="fill:#EF9B65;" cx="240.496" cy="417.905" r="6.335"/>
				<circle style="fill:#EF9B65;" cx="208.201" cy="449.463" r="6.335"/>
			</g>
			<g>
				<circle style="fill:#EF9B65;" cx="154.149" cy="286.852" r="17.55"/>
				<circle style="fill:#EF9B65;" cx="174.51" cy="258.13" r="11.214"/>
				<circle style="fill:#EF9B65;" cx="146.744" cy="251.054" r="11.214"/>
				<circle style="fill:#EF9B65;" cx="184.289" cy="279.59" r="6.335"/>
				<circle style="fill:#EF9B65;" cx="164.861" cy="236.956" r="6.335"/>
				<circle style="fill:#EF9B65;" cx="132.566" cy="268.513" r="6.335"/>
			</g>
		</g>
	</g>
	<g>
		<path style="fill:#241726;" d="M288.365,222.905c-0.126,0-0.253-0.019-0.379-0.061c-0.63-0.209-0.97-0.889-0.761-1.518    c0.736-2.215,5.01-6.35,5.86-7.155c0.482-0.458,1.24-0.439,1.699,0.045c0.456,0.481,0.436,1.241-0.045,1.697    c-1.931,1.835-4.832,4.961-5.233,6.169C289.337,222.586,288.868,222.905,288.365,222.905z"/>
		<path style="fill:#241726;" d="M288.685,208.755c-0.126,0-0.252-0.019-0.378-0.061c-0.63-0.209-0.971-0.889-0.763-1.518    c0.734-2.215,5.01-6.352,5.86-7.157c0.483-0.455,1.243-0.436,1.699,0.042c0.456,0.483,0.436,1.244-0.045,1.699    c-1.931,1.835-4.832,4.963-5.233,6.172C289.658,208.435,289.188,208.755,288.685,208.755z"/>
		<path style="fill:#241726;" d="M302.91,207.968c-0.126,0-0.252-0.019-0.378-0.061c-0.63-0.209-0.971-0.889-0.763-1.518    c0.734-2.215,5.01-6.35,5.86-7.155c0.481-0.455,1.243-0.441,1.699,0.045c0.456,0.481,0.436,1.241-0.045,1.697    c-1.931,1.835-4.832,4.961-5.233,6.169C303.883,207.649,303.414,207.968,302.91,207.968z"/>
		<path style="fill:#241726;" d="M306.85,193.703c-0.219,0-0.441-0.061-0.641-0.185c-0.561-0.354-0.729-1.096-0.374-1.657    c1.246-1.974,6.389-4.963,7.407-5.543c0.569-0.326,1.307-0.129,1.638,0.451c0.329,0.577,0.127,1.309-0.451,1.638    c-2.315,1.319-5.882,3.658-6.562,4.736C307.639,193.506,307.249,193.703,306.85,193.703z"/>
		<path style="fill:#241726;" d="M317.955,196.5c-0.219,0-0.441-0.059-0.639-0.185c-0.562-0.354-0.73-1.096-0.375-1.657    c1.245-1.974,6.388-4.961,7.406-5.54c0.582-0.331,1.311-0.124,1.638,0.451c0.329,0.577,0.127,1.309-0.451,1.638    c-2.315,1.316-5.882,3.656-6.561,4.733C318.743,196.303,318.354,196.5,317.955,196.5z"/>
		<path style="fill:#241726;" d="M305.742,218.146c-0.126,0-0.252-0.019-0.378-0.061c-0.63-0.209-0.971-0.889-0.763-1.518    c0.734-2.215,5.01-6.352,5.86-7.157c0.483-0.455,1.243-0.436,1.699,0.042c0.456,0.483,0.436,1.244-0.045,1.699    c-1.931,1.835-4.832,4.963-5.233,6.172C306.714,217.827,306.245,218.146,305.742,218.146z"/>
		<path style="fill:#241726;" d="M290.439,236.363c-0.126,0-0.253-0.019-0.379-0.061c-0.63-0.209-0.97-0.889-0.762-1.518    c0.736-2.215,5.01-6.352,5.86-7.157c0.483-0.458,1.245-0.439,1.698,0.042c0.458,0.481,0.438,1.241-0.043,1.699    c-1.931,1.835-4.832,4.963-5.233,6.172C291.412,236.044,290.943,236.363,290.439,236.363z"/>
		<path style="fill:#241726;" d="M275.8,225.758c-0.126,0-0.253-0.019-0.379-0.061c-0.63-0.209-0.97-0.889-0.761-1.518    c0.736-2.215,5.01-6.352,5.86-7.157c0.481-0.455,1.241-0.439,1.698,0.042c0.458,0.481,0.438,1.241-0.043,1.699    c-1.931,1.835-4.832,4.963-5.233,6.172C276.772,225.439,276.303,225.758,275.8,225.758z"/>
		<path style="fill:#241726;" d="M274.128,242.556c-0.126,0-0.253-0.019-0.379-0.061c-0.63-0.209-0.97-0.889-0.761-1.518    c0.736-2.215,5.011-6.352,5.861-7.157c0.483-0.455,1.243-0.439,1.699,0.042c0.456,0.483,0.436,1.244-0.045,1.699    c-1.931,1.835-4.833,4.963-5.234,6.172C275.1,242.236,274.631,242.556,274.128,242.556z"/>
	</g>
	<g>
		<path style="fill:#241726;" d="M209.146,461.823c-0.307,0-0.614-0.117-0.848-0.35c-1.652-1.647-3.44-7.322-3.782-8.443    c-0.194-0.634,0.163-1.305,0.798-1.499c0.639-0.197,1.306,0.164,1.499,0.8c0.778,2.546,2.279,6.54,3.181,7.439    c0.469,0.469,0.47,1.23,0.002,1.699C209.762,461.706,209.454,461.823,209.146,461.823z"/>
		<path style="fill:#241726;" d="M196.63,455.21c-0.307,0-0.615-0.117-0.849-0.352c-1.651-1.65-3.438-7.319-3.779-8.441    c-0.194-0.634,0.163-1.305,0.798-1.499c0.637-0.195,1.307,0.164,1.499,0.8c0.778,2.546,2.277,6.54,3.181,7.441    c0.469,0.467,0.469,1.23,0.001,1.699C197.246,455.093,196.937,455.21,196.63,455.21z"/>
		<path style="fill:#241726;" d="M202.289,442.135c-0.307,0-0.614-0.117-0.848-0.35c-1.652-1.647-3.44-7.322-3.782-8.443    c-0.192-0.634,0.165-1.305,0.799-1.5c0.634-0.19,1.306,0.164,1.5,0.8c0.778,2.548,2.277,6.54,3.18,7.439    c0.469,0.469,0.471,1.23,0.002,1.699C202.905,442.018,202.598,442.135,202.289,442.135z"/>
		<path style="fill:#241726;" d="M191.293,432.23c-0.407,0-0.804-0.207-1.029-0.58c-1.209-1.997-1.582-7.932-1.645-9.103    c-0.035-0.662,0.473-1.227,1.136-1.263c0.651-0.092,1.227,0.472,1.265,1.136c0.142,2.659,0.641,6.894,1.3,7.986    c0.344,0.568,0.162,1.307-0.406,1.65C191.718,432.173,191.505,432.23,191.293,432.23z"/>
		<path style="fill:#241726;" d="M198.761,423.55c-0.407,0-0.804-0.207-1.029-0.58c-1.209-1.995-1.582-7.932-1.645-9.103    c-0.035-0.662,0.473-1.227,1.136-1.262c0.639-0.075,1.228,0.472,1.265,1.136c0.142,2.659,0.641,6.894,1.3,7.986    c0.344,0.568,0.162,1.307-0.406,1.65C199.187,423.493,198.973,423.55,198.761,423.55z"/>
		<path style="fill:#241726;" d="M212.659,444.153c-0.307,0-0.614-0.117-0.848-0.35c-1.652-1.647-3.44-7.322-3.782-8.443    c-0.194-0.634,0.163-1.305,0.798-1.5c0.634-0.195,1.306,0.164,1.5,0.8c0.778,2.546,2.279,6.54,3.181,7.439    c0.469,0.469,0.471,1.23,0.002,1.699C213.275,444.036,212.967,444.153,212.659,444.153z"/>
		<path style="fill:#241726;" d="M222.11,465.986c-0.307,0-0.614-0.117-0.848-0.35c-1.652-1.647-3.44-7.322-3.782-8.443    c-0.192-0.634,0.165-1.305,0.799-1.5c0.637-0.195,1.307,0.164,1.499,0.8c0.778,2.548,2.277,6.54,3.18,7.439    c0.469,0.469,0.471,1.23,0.002,1.699C222.726,465.869,222.418,465.986,222.11,465.986z"/>
		<path style="fill:#241726;" d="M206.078,474.338c-0.307,0-0.614-0.117-0.848-0.35c-1.652-1.647-3.44-7.322-3.782-8.443    c-0.194-0.634,0.163-1.305,0.798-1.5c0.634-0.195,1.306,0.164,1.5,0.8c0.778,2.546,2.279,6.54,3.181,7.439    c0.469,0.469,0.471,1.23,0.002,1.699C206.694,474.221,206.386,474.338,206.078,474.338z"/>
		<path style="fill:#241726;" d="M220.353,483.344c-0.307,0-0.614-0.117-0.848-0.35c-1.652-1.647-3.44-7.322-3.782-8.443    c-0.192-0.634,0.165-1.305,0.799-1.5c0.634-0.19,1.306,0.164,1.499,0.8c0.778,2.548,2.277,6.54,3.18,7.439    c0.469,0.469,0.47,1.23,0.002,1.699C220.969,483.227,220.662,483.344,220.353,483.344z"/>
	</g>
	<g>
		<path style="fill:#241726;" d="M155.834,237.388c-0.174,0-0.351-0.038-0.519-0.117c-2.402-1.155-6.346-2.846-7.628-2.699    c-0.636,0.026-1.224-0.486-1.252-1.15c-0.028-0.664,0.486-1.225,1.149-1.253c2.365-0.007,7.715,2.429,8.772,2.936    c0.597,0.286,0.849,1.004,0.562,1.603C156.711,237.137,156.282,237.388,155.834,237.388z"/>
		<path style="fill:#241726;" d="M169.175,232.657c-0.175,0-0.352-0.038-0.52-0.12c-2.401-1.152-6.343-2.804-7.627-2.696    c-0.705,0.026-1.225-0.486-1.253-1.15c-0.029-0.662,0.485-1.223,1.148-1.253c0.046,0,0.094-0.002,0.142-0.002    c2.402,0,7.597,2.438,8.632,2.938c0.597,0.286,0.849,1.004,0.562,1.603C170.053,232.406,169.624,232.657,169.175,232.657z"/>
		<path style="fill:#241726;" d="M174.966,245.674c-0.174,0-0.351-0.038-0.519-0.117c-2.402-1.155-6.352-2.823-7.629-2.699    c-0.624,0.019-1.224-0.486-1.252-1.15c-0.028-0.664,0.486-1.225,1.149-1.253c2.368-0.04,7.716,2.424,8.772,2.933    c0.598,0.289,0.851,1.007,0.563,1.605C175.843,245.423,175.414,245.674,174.966,245.674z"/>
		<path style="fill:#241726;" d="M188.786,246.174c-0.269,0-0.54-0.089-0.764-0.275c-2.054-1.697-5.509-4.198-6.758-4.452    c-0.651-0.131-1.071-0.767-0.94-1.417c0.131-0.648,0.765-1.072,1.416-0.939c2.288,0.465,6.909,4.208,7.812,4.954    c0.512,0.422,0.584,1.18,0.162,1.692C189.476,246.026,189.132,246.174,188.786,246.174z"/>
		<path style="fill:#241726;" d="M190.117,257.546c-0.269,0-0.54-0.089-0.764-0.275c-2.054-1.694-5.509-4.196-6.758-4.449    c-0.651-0.131-1.071-0.767-0.94-1.417c0.133-0.648,0.769-1.07,1.416-0.939c2.288,0.465,6.909,4.205,7.812,4.951    c0.512,0.422,0.584,1.18,0.162,1.692C190.807,257.398,190.463,257.546,190.117,257.546z"/>
		<path style="fill:#241726;" d="M166.459,251.937c-0.174,0-0.351-0.038-0.519-0.117c-2.401-1.155-6.335-2.802-7.629-2.699    c-0.659,0.019-1.224-0.486-1.252-1.15c-0.028-0.664,0.486-1.225,1.149-1.253c2.394-0.031,7.717,2.429,8.773,2.936    c0.597,0.286,0.849,1.004,0.562,1.603C167.337,251.686,166.907,251.937,166.459,251.937z"/>
		<path style="fill:#241726;" d="M143.994,244.109c-0.174,0-0.351-0.038-0.519-0.117c-2.401-1.155-6.327-2.835-7.629-2.699    c-0.665,0.007-1.224-0.486-1.252-1.15c-0.028-0.664,0.486-1.225,1.149-1.253c2.347-0.002,7.716,2.426,8.772,2.933    c0.598,0.289,0.851,1.007,0.563,1.605C144.871,243.858,144.442,244.109,143.994,244.109z"/>
		<path style="fill:#241726;" d="M148.702,226.657c-0.174,0-0.351-0.038-0.519-0.117c-2.401-1.155-6.307-2.861-7.628-2.699    c-0.644,0.026-1.224-0.486-1.252-1.15s0.486-1.225,1.149-1.253c2.344-0.035,7.715,2.426,8.772,2.936    c0.597,0.286,0.849,1.004,0.562,1.603C149.58,226.406,149.15,226.657,148.702,226.657z"/>
		<path style="fill:#241726;" d="M132.408,231.064c-0.174,0-0.351-0.038-0.519-0.117c-2.401-1.155-6.339-2.792-7.629-2.699    c-0.644-0.002-1.224-0.486-1.252-1.15c-0.028-0.664,0.486-1.225,1.149-1.253c2.378-0.012,7.716,2.429,8.773,2.936    c0.597,0.286,0.849,1.004,0.562,1.603C133.286,230.813,132.857,231.064,132.408,231.064z"/>
	</g>
	<path style="fill:#251626;" d="M211.531,501.019c-0.153,0-0.303,0-0.454,0c-0.664-0.002-1.2-0.54-1.199-1.204   c0.001-0.664,0.54-1.199,1.201-1.199h0.002c0.149,0,0.302,0,0.449,0c45.662,0,95.421-16.647,129.177-30.638   c36.74-15.23,62.967-30.689,63.228-30.844c0.575-0.333,1.311-0.148,1.646,0.422c0.338,0.57,0.149,1.307-0.421,1.647   c-0.262,0.155-26.609,15.685-63.499,30.98C307.698,484.264,257.597,501.019,211.531,501.019z"/>
</g>















</svg>
