<?xml version="1.0" encoding="UTF-8"?>
<!-- Generator: Adobe Illustrator 25.2.0, SVG Export Plug-In . SVG Version: 6.00 Build 0)  -->
<svg xmlns="http://www.w3.org/2000/svg" xmlns:xlink="http://www.w3.org/1999/xlink" version="1.1" id="Capa_1" x="0px" y="0px" viewBox="0 0 512 512" style="enable-background:new 0 0 512 512;" xml:space="preserve" width="512" height="512">
<g>
	<path style="fill:#241726;" d="M213.484,415.011c-106.959,0.002-183.989-33.062-206.654-68.534   c-9.483-14.842-9.083-29.379,1.157-42.038c45.651-56.437,102.324-66.331,102.892-66.424c0.604-0.11,1.194,0.313,1.295,0.93   c0.101,0.615-0.315,1.194-0.93,1.295c-0.557,0.093-56.42,9.879-101.504,65.618c-9.57,11.831-9.92,25.457-1.009,39.405   c16.645,26.047,61.057,48.288,118.807,59.488c48.372,9.383,127.424,15.184,229.342-10.46   c108.479-27.292,157.756-86.994,150.369-131.863c-6.528-39.649-55.069-61.722-123.661-56.23c-0.604,0.055-1.165-0.412-1.214-1.033   c-0.051-0.621,0.412-1.165,1.033-1.214c84.8-6.788,120.709,25.569,126.069,58.109c3.974,24.14-7.438,50.537-32.135,74.329   c-27.504,26.495-68.969,47.274-119.911,60.092C305.589,409.523,257.048,415.011,213.484,415.011z"/>
	<path style="fill:#A6B470;" d="M72.96,240.385c0,0-25.997-24.702-36.911,14.174s24.823,33.975,19.252,23.849   c-5.571-10.127-20.243,4.291-20.594,27.373s35.366,31.883,38.759,18.608c3.393-13.275-23.381-11.523-14.672,14.418   c8.709,25.941,61.19,30.868,51.521,12.514s-35.534,10.065-1.93,22.025s64.411-8.125,44.925-16.586s-22.29,34.01,28.729,30.187   s60.76-33.426,44.838-29.445c-15.921,3.981-10.36,20.959,23.777,28.704s47.164-34.289,36.835-33.883s-16.902,25.27,25.997,24.702   c42.898-0.568,39.907-44.629,32.63-41.267c-7.278,3.362-7.126,42.781,34.417,32.62s25.287-64.466,9.249-52.791   c-16.038,11.675,12.092,19.517,35.407,4.48c23.316-15.037,27.049-44.543,13.763-41.085c-13.285,3.458,5.134,20.35,20.222,9.411   c15.088-10.939,10.498-42.355-10.482-39.013c-20.979,3.341-9.507,14.215-3.393,13.275c6.115-0.939,15.033-44.35-13.63-47.977   c-28.663-3.626-43.762,14.163-43.762,14.163"/>
	<path style="fill:#70A471;" d="M99.8,245.992c0,0-22.42-21.304-31.833,12.224s21.408,29.301,16.604,20.568   s-17.458,3.701-17.76,23.607c-0.302,19.906,30.501,27.497,33.427,16.048c2.926-11.449-20.165-9.938-12.653,12.434   c7.511,22.372,52.772,26.621,44.433,10.792s-30.646,8.68-1.665,18.995s55.549-7.007,38.744-14.304s-19.223,29.331,24.776,26.034   s52.401-28.827,38.67-25.394c-13.731,3.434-8.935,18.075,20.506,24.755c29.441,6.68,40.676-29.572,31.767-29.222   c-8.909,0.35-14.576,21.794,22.42,21.304s34.417-38.489,28.141-35.59c-6.276,2.899-6.145,36.896,29.682,28.132   s21.808-55.597,7.976-45.528c-13.832,10.069,10.428,16.832,30.536,3.863s23.327-38.415,11.87-35.433s4.428,17.55,17.44,8.116   c13.013-9.434,9.054-36.528-9.04-33.646c-18.093,2.882-8.199,12.259-2.926,11.449c5.273-0.81,12.965-38.249-11.755-41.376   s-37.741,12.215-37.741,12.215"/>
	<path style="fill:#241726;" d="M175.672,388.321c-18.76,0-27.863-6.77-32.055-11.873c-9.747,2.498-22.628,2.58-35.609-2.04   c-9.269-3.298-13.701-7.645-15.765-11.467c-13.906-2.058-29.96-10.203-34.516-23.776c-1.055-3.139-1.591-5.88-1.76-8.257   c-11.511-2.736-22.586-11.895-22.386-25.144c0.132-8.749,2.357-16.517,5.475-22.181c-4.325-3.47-9.112-11.447-4.091-29.328   c3.558-12.672,9.119-20.132,16.532-22.172c10.994-3.025,21.789,7.054,22.243,7.486c0.452,0.43,0.469,1.141,0.04,1.593   c-0.427,0.456-1.141,0.471-1.593,0.042c-0.104-0.095-10.33-9.639-20.099-6.942c-6.594,1.818-11.624,8.751-14.95,20.601   c-4.585,16.329-0.648,23.589,3.089,26.759c2.602-4.034,5.666-6.686,8.619-7.422c3.04-0.753,5.752,0.579,7.449,3.664   c1.238,2.254,0.905,4.554-0.914,6.31c-2.82,2.719-9.103,3.723-14.452,0.679c-2.798,5.113-4.957,12.291-5.089,20.947   c-0.181,11.833,9.665,20.097,20.077,22.774c0.2-6.521,3.331-9.837,5.087-11.187c3.375-2.595,7.865-3.005,10.919-0.991   c2.586,1.705,3.549,4.721,2.642,8.275c-1.357,5.301-7.268,7.911-15.415,6.83c-0.291-0.04-0.584-0.082-0.879-0.13   c0.203,2.047,0.696,4.393,1.597,7.079c4.107,12.229,18.442,19.771,31.328,22.04c-0.626-1.948-0.69-3.626-0.615-4.772   c0.359-5.402,4.373-10.271,9.339-11.324c4.58-0.974,8.742,1.362,11.399,6.402c2.128,4.041,1.271,6.733,0.178,8.277   c-2.415,3.413-8.442,4.928-16.409,4.21c2.569,3.595,7.242,6.711,13.681,9.004c12.379,4.406,24.342,4.34,33.399,2.194   c-0.604-0.923-1.029-1.727-1.315-2.34c-2.597-5.563-2.104-11.599,1.227-15.023c2.811-2.886,7.07-3.393,11.683-1.392   c7.907,3.435,7.01,8.242,6.259,10.148c-1.555,3.939-6.731,7.618-14.021,9.901c4.613,5.142,14.748,11.648,35.957,10.048   c19.075-1.428,31.831-6.336,39.779-11.522c-3.113-3.082-4.475-6.125-4.503-8.696c-0.046-4.342,3.369-7.693,9.374-9.196   c3.28-0.815,5.867-0.359,7.295,1.293c1.346,1.562,1.469,3.922,0.344,6.645c-1.375,3.324-4.338,6.849-8.815,10.148   c5.063,3.97,13.448,7.885,25.475,10.615c17.343,3.922,27.647-5.457,32.254-11.401c0.5-0.646,0.972-1.302,1.417-1.965   c-4.012-2.941-5.781-6.556-5.874-10.088c-0.145-5.475,3.86-10.264,8.746-10.458c1.732-0.033,3.045,0.742,3.831,2.274   c1.901,3.692,0.269,10.996-3.644,17.64c5.094,2.961,13.355,4.966,25.836,4.79c18.751-0.249,27.596-8.934,31.712-16.131   c-1.084-1.767-1.807-3.448-2.278-4.796c-2.882-8.244-1.525-18.268,2.738-20.238c1.152-0.533,2.368-0.315,3.342,0.601   c2.937,2.758,3.77,12.111,0.271,21.117c-0.386,0.991-0.859,2.069-1.439,3.195c4.221,5.986,13.298,12.322,32.447,7.638   c19.024-4.655,23.846-18.123,25.027-25.737c0.692-4.461,0.487-8.762-0.315-12.553c-9.681,1.461-17.636-0.405-20.147-4.069   c-0.98-1.43-2.525-5.29,4.289-10.249c3.102-2.26,6.537-2.45,9.665-0.542c3.591,2.19,6.36,6.726,7.878,12.236   c5.666-1.102,11.91-3.38,17.916-7.25c11.463-7.394,17.768-18.039,19.954-26.343c-2.298-0.454-4.356-1.287-6.01-2.287   c-3.611-2.185-5.611-5.213-5.219-7.898c0.185-1.282,1.132-3.6,5.367-4.701c3.71-0.969,6.669,0.339,8.101,3.595   c1.013,2.313,1.201,5.596,0.524,9.374c3.521,0.207,7.46-0.654,11.218-3.382c8.588-6.224,10.132-19.183,6.638-27.618   c-2.518-6.081-7.204-9.458-13.113-9.59c-1.13,6.973-3.573,13.04-6.565,13.498c-3.732,0.56-9.286-2.617-9.916-6.651   c-0.388-2.472,0.78-6.913,12.961-8.852c0.531-0.084,1.057-0.148,1.577-0.189c0.256-2.069,0.394-4.292,0.363-6.607   c-0.117-8.707-2.727-23.622-18.929-25.671c-27.737-3.505-42.61,13.6-42.76,13.772c-0.401,0.478-1.113,0.535-1.588,0.13   c-0.476-0.403-0.533-1.115-0.13-1.588c0.154-0.185,15.834-18.207,44.761-14.552c18.563,2.349,20.802,20.28,20.903,27.88   c0.026,2.141-0.101,4.384-0.361,6.587c6.656,0.26,12.071,4.177,14.882,10.969c3.906,9.429,2.208,23.346-7.396,30.31   c-4.364,3.161-8.951,4.093-13.027,3.781c-2.311,9.081-9.191,20.304-21.013,27.927c-6.184,3.99-12.652,6.409-18.601,7.592   c0.857,4.184,1.02,8.79,0.322,13.287c-1.267,8.169-6.422,22.617-26.717,27.581c-19.579,4.794-29.379-1.364-34.21-7.654   c-4.611,7.506-14.043,16.081-33.091,16.334c-12.831,0.174-21.544-1.965-27.041-5.177c-0.48,0.718-0.987,1.423-1.52,2.111   c-4.937,6.371-15.99,16.437-34.534,12.218c-13.199-2.994-21.809-7.187-26.942-11.443c-8.938,5.889-22.875,10.826-41.341,12.21   C179.855,388.241,177.707,388.321,175.672,388.321z M148.421,356.763c-1.868,0-3.483,0.646-4.728,1.926   c-2.681,2.756-3.003,7.777-0.8,12.496c0.317,0.676,0.82,1.61,1.58,2.683c7.167-2.093,12.137-5.506,13.446-8.823   c1.408-3.567-1.974-5.911-5.058-7.25C151.277,357.105,149.781,356.763,148.421,356.763z M229.564,358.264   c-0.714,0-1.525,0.11-2.412,0.333c-4.906,1.227-7.7,3.772-7.665,6.982c0.024,2.21,1.384,4.783,4.166,7.396   c4.776-3.481,7.46-6.964,8.506-9.491c0.771-1.868,0.784-3.439,0.031-4.309C231.673,358.572,230.758,358.264,229.564,358.264z    M287.643,353.448c-0.035,0-0.073,0-0.108,0.002c-3.615,0.141-6.691,3.948-6.581,8.143c0.077,2.877,1.531,5.814,4.798,8.273   c3.681-6.283,4.893-12.701,3.521-15.365C288.901,353.776,288.394,353.448,287.643,353.448z M93.707,360.863   c7.715,0.954,13.913-0.229,15.944-3.098c1.06-1.498,0.947-3.49-0.333-5.92c-2.152-4.085-5.393-5.988-8.936-5.25   c-4.012,0.853-7.261,4.838-7.554,9.268C92.713,357.585,93.015,359.262,93.707,360.863z M346.891,336.702   c-0.112,0-0.209,0.035-0.302,0.079c-2.602,1.203-4.336,9.495-1.555,17.444c0.319,0.912,0.764,1.992,1.381,3.144   c0.278-0.601,0.522-1.183,0.738-1.736c3.287-8.464,2.366-16.702,0.286-18.656C347.217,336.768,347.041,336.702,346.891,336.702z    M58.16,329.061c0.427,0.077,0.857,0.143,1.284,0.2c5.424,0.72,11.677-0.249,12.93-5.153c0.665-2.602,0.062-4.673-1.696-5.829   c-2.23-1.472-5.719-1.093-8.304,0.892C60.878,320.326,58.213,323.201,58.16,329.061z M394.366,315.076   c-1.309,0-2.617,0.474-3.922,1.423c-2.157,1.571-5.512,4.587-3.754,7.149c1.897,2.765,8.92,4.371,17.726,3.1   c-1.472-5.091-4.034-8.997-6.808-10.689C396.534,315.404,395.45,315.076,394.366,315.076z M440.969,279.828   c-0.533,0-1.11,0.082-1.732,0.245c-1.56,0.405-3.468,1.227-3.703,2.844c-0.251,1.718,1.419,3.985,4.155,5.64   c1.467,0.888,3.296,1.624,5.338,2.018c0.632-3.428,0.496-6.314-0.324-8.182C443.954,280.688,442.7,279.828,440.969,279.828z    M42.077,282.913c4.305,2.421,9.5,1.798,11.734-0.364c1.077-1.038,1.245-2.249,0.502-3.598c-1.216-2.212-2.866-3.067-4.926-2.562   C47.146,276.947,44.463,279.227,42.077,282.913z M449.755,250.373c-0.293,0.033-0.588,0.073-0.883,0.121   c-7.374,1.172-11.518,3.518-11.088,6.274c0.397,2.531,4.527,5.197,7.345,4.77C446.446,261.335,448.633,256.843,449.755,250.373z"/>
	<g>
		<path style="fill:#FFFFFF;" d="M344.639,142.93l74.575-8.512c0,0,4.895-38.693,22.656-30.464s3.709,51.747-0.69,39.225    s37.68-20.871,36.469,15.724c-1.212,36.596-49.628-6.279-49.628-6.279l-75.852,18.606L344.639,142.93z"/>
		<path style="fill:#241726;" d="M466.448,174.815c-13.959,0-35.276-17.964-38.729-20.954l-75.283,18.464    c-0.597,0.148-1.201-0.212-1.359-0.804l-7.528-28.301c-0.084-0.317-0.026-0.657,0.159-0.925c0.185-0.271,0.478-0.449,0.804-0.487    l73.705-8.411c0.782-5.31,5.362-31.718,18.881-31.718c1.688,0,3.452,0.421,5.246,1.251c9.506,4.406,10.577,17.964,8.537,28.969    c1.641-0.335,3.362-0.509,5.067-0.509c6.376,0,12.113,2.3,16.155,6.482c4.73,4.887,6.973,11.976,6.673,21.071    c-0.434,13.117-6.944,15.871-12.326,15.873H466.448z M428.021,151.497c0.273,0,0.54,0.099,0.747,0.284    c0.236,0.207,23.631,20.775,37.68,20.778c0,0,0,0,0.002,0c6.471-0.002,9.766-4.481,10.07-13.692    c0.28-8.46-1.751-14.997-6.039-19.427c-3.613-3.736-8.775-5.794-14.534-5.794c-1.892,0-3.807,0.236-5.578,0.683    c-1.364,5.788-3.992,12.225-7.182,12.227l0,0c-1.34,0-2.373-1.009-3.071-3.001c-0.617-1.756-0.489-3.56,0.368-5.221    c1.28-2.483,4.166-4.576,7.973-5.801c2.15-10.368,1.564-23.558-7.061-27.554c-1.496-0.694-2.941-1.044-4.298-1.044    c-12.734,0-16.726,30.319-16.766,30.625c-0.066,0.516-0.476,0.921-0.991,0.98l-73.276,8.361l6.909,25.97l74.778-18.341    C427.84,151.508,427.931,151.497,428.021,151.497z M447.838,135.156c-2.556,1.046-4.497,2.556-5.349,4.212    c-0.573,1.11-0.657,2.267-0.245,3.437c0.427,1.218,0.835,1.494,0.943,1.494C444.057,144.299,446.223,141.244,447.838,135.156z"/>
	</g>
	<path style="fill:#E97442;" d="M214.738,149.517c0,0,16.196-75.034,82.169-66.688s150.823,79.408,70.323,132.901   S178.333,225.346,214.738,149.517z"/>
	<path style="fill:#E97442;" d="M65.108,256.888c0,0,11.932-165.929,173.548-165.799c159.736,0.129,177.024,149.826,191.848,165.108   c14.824,15.281-53.733,80.34-152.733,94.626S32.001,333.134,65.108,256.888z"/>
	<g>
		<path style="fill:#FFFFFF;" d="M368.248,232.001l74.575-8.512c0,0,4.895-38.693,22.656-30.464s3.709,51.747-0.69,39.225    c-4.398-12.521,37.68-20.871,36.469,15.724c-1.212,36.596-49.628-6.279-49.628-6.279l-75.852,18.606L368.248,232.001z"/>
		<path style="fill:#241726;" d="M490.056,263.887c-13.959,0-35.276-17.964-38.729-20.954l-75.28,18.464    c-0.597,0.148-1.201-0.211-1.359-0.804l-7.53-28.301c-0.084-0.317-0.026-0.657,0.159-0.925c0.185-0.271,0.478-0.449,0.804-0.487    l73.705-8.411c0.784-5.31,5.365-31.718,18.881-31.718c1.688,0,3.452,0.421,5.246,1.251c9.509,4.406,10.579,17.964,8.537,28.969    c1.641-0.335,3.364-0.509,5.067-0.509c6.376,0,12.113,2.3,16.155,6.479c4.73,4.889,6.973,11.978,6.673,21.073    c-0.434,13.117-6.944,15.871-12.326,15.873H490.056z M451.629,240.569c0.273,0,0.54,0.099,0.747,0.284    c0.236,0.207,23.631,20.775,37.68,20.778c0,0,0,0,0.002,0c6.471-0.002,9.766-4.481,10.07-13.692    c0.28-8.46-1.751-14.997-6.039-19.429c-3.613-3.734-8.775-5.792-14.534-5.792c-1.892,0-3.807,0.234-5.576,0.683    c-1.364,5.788-3.994,12.225-7.182,12.225c-1.34,0-2.375-1.009-3.073-3.001c-0.617-1.754-0.489-3.56,0.368-5.219    c1.282-2.485,4.168-4.578,7.975-5.803c2.15-10.366,1.564-23.556-7.063-27.552c-1.496-0.694-2.941-1.044-4.298-1.044    c-12.741,0-16.726,30.319-16.766,30.625c-0.066,0.516-0.474,0.921-0.991,0.98l-73.276,8.361l6.911,25.97l74.776-18.341    C451.449,240.58,451.539,240.569,451.629,240.569z M471.449,224.228c-2.558,1.046-4.497,2.556-5.351,4.21    c-0.573,1.11-0.654,2.267-0.245,3.437c0.427,1.221,0.835,1.494,0.943,1.494C467.666,233.369,469.832,230.316,471.449,224.228z"/>
	</g>
	<path style="fill:#E97442;" d="M238.347,238.588c0,0,15.683-65.397,82.169-66.688c89.779-1.742,150.823,79.408,70.323,132.901   S201.942,314.417,238.347,238.588z"/>
	<path style="fill:#241726;" d="M313.133,328.768c-17.834,0-38.416-4.043-57.14-17.673c-25.719-18.722-38.599-46.045-34.459-73.088   c4.836-31.573,31.575-57.763,73.359-71.859c86.644-29.231,112.354,38.614,112.603,39.306c0.214,0.584-0.09,1.232-0.674,1.443   c-0.586,0.214-1.234-0.088-1.445-0.674c-0.242-0.668-25.252-66.448-109.761-37.938c-40.96,13.818-67.149,39.354-71.85,70.063   c-4.012,26.193,8.533,52.707,33.553,70.923c26.098,18.997,55.972,18.905,76.452,15.488c35.232-5.887,64.67-24.695,75.538-40.231   c0.359-0.516,1.062-0.63,1.573-0.28c0.509,0.359,0.635,1.062,0.278,1.571c-11.139,15.924-41.172,35.175-77.019,41.165   C327.883,328.028,320.758,328.768,313.133,328.768z"/>
	<path style="fill:#241726;" d="M368.574,156.253c-0.39,0-0.771-0.205-0.978-0.568c-0.471-0.822-48.308-81.945-158.455-61.44   c-0.604,0.108-1.201-0.289-1.315-0.901s0.289-1.203,0.901-1.315c58.396-10.881,98.995,6.689,122.78,23.338   c25.783,18.046,37.927,38.991,38.048,39.2c0.308,0.54,0.121,1.229-0.421,1.538C368.958,156.205,368.766,156.253,368.574,156.253z"/>
	<g>
		<path style="fill:#241726;" d="M341.201,187.412c-0.11,0-0.223-0.015-0.335-0.051c-2.611-0.813-7.299-1.985-8.793-1.712    c-0.599,0.11-1.203-0.284-1.32-0.897c-0.117-0.612,0.284-1.203,0.897-1.32c2.525-0.48,9.139,1.542,9.885,1.774    c0.595,0.185,0.927,0.817,0.742,1.412C342.128,187.101,341.681,187.412,341.201,187.412z"/>
		<path style="fill:#241726;" d="M354.908,180.148c-0.11,0-0.223-0.015-0.335-0.051c-2.615-0.813-7.314-2.014-8.793-1.71    c-0.617,0.115-1.205-0.282-1.322-0.894c-0.117-0.612,0.284-1.203,0.894-1.322c2.529-0.474,9.143,1.54,9.89,1.771    c0.595,0.185,0.928,0.817,0.742,1.412C355.836,179.838,355.389,180.148,354.908,180.148z"/>
		<path style="fill:#241726;" d="M363.267,193.334c-0.11,0-0.223-0.015-0.335-0.051c-2.615-0.815-7.321-2.007-8.793-1.71    c-0.615,0.112-1.205-0.282-1.322-0.894c-0.117-0.612,0.284-1.203,0.894-1.322c2.534-0.474,9.143,1.54,9.89,1.771    c0.595,0.185,0.928,0.817,0.742,1.412C364.194,193.023,363.747,193.334,363.267,193.334z"/>
		<path style="fill:#241726;" d="M378.325,191.664c-0.198,0-0.399-0.053-0.582-0.163c-2.34-1.414-6.616-3.69-8.125-3.77    c-0.621-0.031-1.099-0.562-1.066-1.185c0.031-0.621,0.557-1.117,1.185-1.066c2.562,0.134,8.504,3.686,9.174,4.091    c0.533,0.322,0.703,1.016,0.381,1.549C379.081,191.47,378.709,191.664,378.325,191.664z"/>
		<path style="fill:#241726;" d="M381.588,203.781c-0.198,0-0.399-0.053-0.582-0.163c-2.342-1.414-6.618-3.69-8.125-3.772    c-0.624-0.033-1.099-0.564-1.066-1.185s0.586-1.135,1.185-1.066c2.562,0.137,8.504,3.688,9.174,4.093    c0.533,0.322,0.703,1.016,0.381,1.549C382.344,203.587,381.971,203.781,381.588,203.781z"/>
		<path style="fill:#241726;" d="M355.047,201.483c-0.11,0-0.223-0.015-0.335-0.051c-2.611-0.811-7.299-1.987-8.793-1.71    c-0.597,0.11-1.203-0.284-1.32-0.897c-0.117-0.61,0.284-1.203,0.897-1.32c2.518-0.48,9.139,1.54,9.885,1.771    c0.595,0.185,0.928,0.817,0.742,1.412C355.975,201.173,355.527,201.483,355.047,201.483z"/>
		<path style="fill:#241726;" d="M329.44,196.592c-0.11,0-0.223-0.015-0.335-0.051c-2.613-0.815-7.31-2.009-8.79-1.71    c-0.619,0.112-1.205-0.282-1.322-0.894c-0.117-0.612,0.284-1.203,0.894-1.322c2.538-0.476,9.141,1.54,9.888,1.771    c0.595,0.185,0.927,0.817,0.742,1.412C330.368,196.282,329.921,196.592,329.44,196.592z"/>
		<path style="fill:#241726;" d="M331.754,176.919c-0.11,0-0.223-0.015-0.335-0.051c-2.613-0.815-7.319-2.007-8.79-1.71    c-0.621,0.115-1.205-0.282-1.322-0.894s0.284-1.203,0.894-1.322c2.538-0.471,9.141,1.54,9.888,1.771    c0.595,0.185,0.928,0.817,0.742,1.412C332.681,176.608,332.234,176.919,331.754,176.919z"/>
		<path style="fill:#241726;" d="M314.796,184.304c-0.11,0-0.223-0.015-0.335-0.051c-2.615-0.815-7.317-2.014-8.793-1.71    c-0.617,0.108-1.205-0.282-1.322-0.894c-0.117-0.612,0.284-1.203,0.894-1.322c2.536-0.469,9.143,1.54,9.89,1.771    c0.595,0.185,0.927,0.817,0.742,1.412C315.724,183.993,315.276,184.304,314.796,184.304z"/>
	</g>
	<g>
		<path style="fill:#241726;" d="M93.947,221.897c-0.599,0-1.097-0.469-1.126-1.073c-0.128-2.562,2.8-8.834,3.135-9.542    c0.269-0.564,0.941-0.8,1.503-0.538c0.564,0.267,0.804,0.939,0.538,1.503c-1.17,2.472-2.998,6.957-2.924,8.467    c0.031,0.621-0.447,1.15-1.071,1.181C93.985,221.897,93.965,221.897,93.947,221.897z"/>
		<path style="fill:#241726;" d="M88.671,207.311c-0.599,0-1.097-0.469-1.126-1.073c-0.126-2.564,2.802-8.834,3.137-9.542    c0.269-0.566,0.941-0.798,1.503-0.538c0.564,0.267,0.804,0.939,0.538,1.503c-1.17,2.472-2.998,6.957-2.926,8.467    c0.031,0.623-0.449,1.152-1.071,1.181C88.706,207.311,88.688,207.311,88.671,207.311z"/>
		<path style="fill:#241726;" d="M102.896,200.878c-0.599,0-1.097-0.469-1.126-1.073c-0.128-2.56,2.8-8.834,3.135-9.542    c0.269-0.566,0.943-0.798,1.503-0.538c0.562,0.267,0.804,0.939,0.538,1.503c-1.17,2.474-2.998,6.96-2.924,8.467    c0.031,0.621-0.447,1.15-1.071,1.181C102.934,200.878,102.914,200.878,102.896,200.878z"/>
		<path style="fill:#241726;" d="M101.279,184.74c-0.073,0-0.145-0.007-0.22-0.022c-0.61-0.119-1.009-0.712-0.888-1.324    c0.493-2.516,4.84-7.903,5.334-8.511c0.392-0.485,1.106-0.551,1.586-0.161c0.485,0.394,0.555,1.104,0.163,1.586    c-1.729,2.122-4.58,6.039-4.871,7.521C102.279,184.367,101.806,184.74,101.279,184.74z"/>
		<path style="fill:#241726;" d="M113.733,183.204c-0.073,0-0.145-0.007-0.218-0.02c-0.612-0.121-1.011-0.714-0.892-1.324    c0.493-2.518,4.842-7.907,5.336-8.513c0.394-0.485,1.108-0.551,1.588-0.161c0.482,0.394,0.553,1.104,0.161,1.588    c-1.729,2.119-4.58,6.037-4.869,7.517C114.734,182.832,114.262,183.204,113.733,183.204z"/>
		<path style="fill:#241726;" d="M109.818,210.155c-0.599,0-1.097-0.469-1.126-1.073c-0.128-2.56,2.8-8.834,3.135-9.542    c0.269-0.566,0.943-0.798,1.503-0.538c0.562,0.267,0.804,0.939,0.538,1.503c-1.17,2.474-2.998,6.96-2.924,8.467    c0.031,0.621-0.447,1.15-1.071,1.181C109.856,210.155,109.836,210.155,109.818,210.155z"/>
		<path style="fill:#241726;" d="M101.394,234.825c-0.599,0-1.097-0.469-1.126-1.073c-0.128-2.56,2.8-8.834,3.135-9.542    c0.269-0.566,0.943-0.798,1.503-0.538c0.562,0.267,0.804,0.939,0.538,1.503c-1.17,2.474-2.998,6.96-2.924,8.467    c0.031,0.621-0.447,1.15-1.071,1.181C101.431,234.825,101.411,234.825,101.394,234.825z"/>
		<path style="fill:#241726;" d="M82.235,229.785c-0.599,0-1.097-0.469-1.126-1.073c-0.126-2.564,2.802-8.834,3.137-9.542    c0.269-0.566,0.943-0.798,1.503-0.538c0.564,0.267,0.804,0.939,0.538,1.503c-1.17,2.472-2.998,6.957-2.926,8.467    c0.031,0.623-0.449,1.152-1.071,1.181C82.271,229.785,82.253,229.785,82.235,229.785z"/>
		<path style="fill:#241726;" d="M87.177,247.61c-0.599,0-1.097-0.469-1.126-1.073c-0.126-2.562,2.8-8.834,3.135-9.542    c0.269-0.566,0.943-0.795,1.503-0.538c0.562,0.267,0.804,0.939,0.538,1.503c-1.17,2.472-2.996,6.957-2.924,8.467    c0.031,0.623-0.449,1.152-1.071,1.181C87.212,247.61,87.195,247.61,87.177,247.61z"/>
	</g>
	<g>
		<path style="fill:#241726;" d="M244.969,106.653c-0.048,0-0.097-0.002-0.145-0.009c-2.714-0.346-7.543-0.698-8.956-0.161    c-0.582,0.214-1.234-0.073-1.456-0.654c-0.22-0.582,0.073-1.234,0.654-1.456c2.399-0.912,9.269-0.064,10.044,0.033    c0.617,0.079,1.055,0.646,0.976,1.262C246.013,106.236,245.526,106.653,244.969,106.653z"/>
		<path style="fill:#241726;" d="M257.209,97.124c-0.048,0-0.097-0.002-0.145-0.009c-2.716-0.348-7.55-0.701-8.958-0.161    c-0.577,0.214-1.234-0.073-1.456-0.654c-0.22-0.582,0.073-1.234,0.654-1.456c2.397-0.912,9.271-0.064,10.046,0.033    c0.617,0.079,1.055,0.643,0.976,1.262C258.253,96.708,257.766,97.124,257.209,97.124z"/>
		<path style="fill:#241726;" d="M267.724,108.66c-0.048,0-0.097-0.002-0.145-0.009c-2.716-0.35-7.546-0.696-8.956-0.161    c-0.579,0.223-1.234-0.066-1.454-0.652c-0.223-0.582,0.068-1.234,0.652-1.454c2.393-0.916,9.269-0.071,10.044,0.029    c0.617,0.079,1.055,0.646,0.976,1.262C268.769,108.243,268.282,108.66,267.724,108.66z"/>
		<path style="fill:#241726;" d="M282.267,104.405c-0.137,0-0.273-0.024-0.408-0.077c-2.549-0.987-7.127-2.448-8.654-2.304    c-0.608,0.077-1.181-0.366-1.256-0.983c-0.075-0.619,0.366-1.181,0.983-1.256c2.52-0.337,9.013,2.157,9.742,2.441    c0.582,0.225,0.87,0.877,0.643,1.458C283.146,104.132,282.719,104.405,282.267,104.405z"/>
		<path style="fill:#241726;" d="M287.581,115.773c-0.137,0-0.273-0.024-0.408-0.077c-2.553-0.989-7.143-2.516-8.656-2.304    c-0.606,0.088-1.179-0.364-1.256-0.983c-0.077-0.617,0.364-1.181,0.983-1.256c2.527-0.341,9.015,2.157,9.744,2.441    c0.582,0.225,0.87,0.877,0.643,1.458C288.46,115.5,288.033,115.773,287.581,115.773z"/>
		<path style="fill:#241726;" d="M261.045,118.111c-0.048,0-0.097-0.002-0.145-0.009c-2.714-0.348-7.552-0.696-8.958-0.159    c-0.579,0.214-1.234-0.073-1.456-0.654c-0.22-0.582,0.073-1.234,0.654-1.456c2.399-0.91,9.271-0.066,10.046,0.031    c0.617,0.079,1.055,0.643,0.976,1.262C262.089,117.695,261.602,118.111,261.045,118.111z"/>
		<path style="fill:#241726;" d="M234.977,117.732c-0.048,0-0.097-0.002-0.145-0.009c-2.712-0.348-7.546-0.696-8.956-0.159    c-0.579,0.212-1.234-0.07-1.456-0.654c-0.22-0.582,0.073-1.234,0.654-1.456c2.399-0.91,9.269-0.068,10.044,0.031    c0.617,0.079,1.055,0.643,0.976,1.262C236.022,117.316,235.535,117.732,234.977,117.732z"/>
		<path style="fill:#241726;" d="M233.845,97.957c-0.048,0-0.097-0.002-0.145-0.009c-2.712-0.346-7.543-0.698-8.956-0.161    c-0.582,0.212-1.234-0.07-1.456-0.654c-0.22-0.582,0.073-1.234,0.654-1.456c2.399-0.912,9.269-0.064,10.044,0.033    c0.617,0.079,1.055,0.646,0.976,1.262C234.889,97.54,234.402,97.957,233.845,97.957z"/>
		<path style="fill:#241726;" d="M218.423,108.168c-0.048,0-0.097-0.002-0.145-0.009c-2.712-0.348-7.546-0.696-8.956-0.159    c-0.579,0.214-1.234-0.073-1.456-0.654c-0.22-0.582,0.073-1.234,0.654-1.456c2.401-0.912,9.269-0.068,10.044,0.031    c0.617,0.079,1.055,0.643,0.976,1.262C219.467,107.752,218.981,108.168,218.423,108.168z"/>
	</g>
	<g>
		<path style="fill:#E2394B;" d="M141.237,336.347c0,0,71.268-26.341,74.793-25.764s10.003,45.208-21.855,56.143    S135.035,339.369,141.237,336.347z"/>
		<path style="fill:#241726;" d="M186.723,358.788c-16.993,0.002-34.386-24.199-35.234-25.393c-0.359-0.507-0.24-1.212,0.269-1.571    c0.507-0.359,1.21-0.245,1.573,0.267c0.227,0.322,23.153,32.181,40.451,22.617c17.361-9.601,7.695-38.559,7.596-38.85    c-0.203-0.59,0.112-1.232,0.701-1.432c0.588-0.207,1.232,0.11,1.432,0.701c0.434,1.262,10.379,31.037-8.636,41.555    C192.217,358.151,189.472,358.786,186.723,358.788z"/>
		<path style="fill:#241726;" d="M187.152,351.72c-1.767,0-5.629-2.192-10.458-17.973c-1.066,5.633-3.02,13.21-5.904,14.04    c-0.672,0.198-1.324,0.051-1.837-0.401c-2.474-2.17-0.985-14.012-0.229-19.002c0.093-0.617,0.674-1.049,1.284-0.945    c0.615,0.093,1.04,0.668,0.945,1.284c-1.194,7.898-1.456,15.378-0.619,16.821c1.677-0.985,3.88-9.445,4.944-17.079    c0.073-0.531,0.511-0.936,1.046-0.969c0.529-0.042,1.018,0.313,1.159,0.831c3.144,11.584,7.561,21.412,9.634,21.141    c1.758-2.805-1.842-16.572-4.492-24.624c-0.174-0.529,0.064-1.108,0.562-1.359c0.5-0.249,1.104-0.104,1.428,0.352    c2.584,3.633,10.205,12.979,14.602,12.979c0.035,0,0.07,0,0.106-0.002c0.218-0.007,0.293-0.048,0.293-0.048    c0.48-1.333-4.607-8.647-10.938-15.589c-0.421-0.46-0.388-1.174,0.073-1.593c0.46-0.423,1.176-0.388,1.593,0.073    c3.889,4.259,12.769,14.545,11.295,18.05c-0.205,0.487-0.767,1.311-2.236,1.364c-4.089,0.123-9.326-5.01-12.846-9.116    c2,6.942,4.53,17.418,2.622,20.551c-0.511,0.839-1.207,1.11-1.703,1.192C187.377,351.712,187.269,351.72,187.152,351.72z"/>
	</g>
	<g>
		<path style="fill:#E2394B;" d="M364.37,285.849c0,0,71.268-26.341,74.793-25.764c3.525,0.577,10.003,45.208-21.855,56.143    S358.168,288.871,364.37,285.849z"/>
		<path style="fill:#241726;" d="M409.856,308.29c-16.993,0.002-34.386-24.197-35.234-25.391c-0.359-0.507-0.24-1.212,0.269-1.571    c0.507-0.361,1.212-0.245,1.573,0.267c0.227,0.322,23.137,32.183,40.451,22.615c17.361-9.601,7.695-38.559,7.596-38.85    c-0.203-0.59,0.112-1.232,0.701-1.432c0.59-0.207,1.232,0.112,1.432,0.701c0.434,1.262,10.379,31.037-8.636,41.555    C415.351,307.654,412.606,308.288,409.856,308.29z"/>
		<path style="fill:#241726;" d="M410.286,301.223c-1.767,0-5.629-2.192-10.458-17.973c-1.066,5.633-3.02,13.21-5.904,14.04    c-0.672,0.194-1.324,0.051-1.837-0.401c-2.474-2.168-0.985-14.01-0.229-19.002c0.093-0.617,0.67-1.049,1.284-0.945    c0.615,0.093,1.04,0.668,0.945,1.284c-1.194,7.896-1.456,15.376-0.619,16.821c1.677-0.987,3.88-9.447,4.944-17.079    c0.073-0.531,0.511-0.936,1.047-0.969c0.54-0.057,1.018,0.313,1.159,0.831c3.144,11.584,7.643,21.432,9.634,21.141    c1.758-2.805-1.842-16.572-4.492-24.624c-0.174-0.529,0.064-1.108,0.562-1.359c0.498-0.249,1.104-0.101,1.428,0.352    c2.584,3.633,10.205,12.979,14.602,12.979c0.035,0,0.07,0,0.106-0.002c0.218-0.007,0.293-0.048,0.293-0.048    c0.48-1.333-4.607-8.647-10.938-15.589c-0.421-0.46-0.388-1.174,0.073-1.593c0.46-0.421,1.176-0.388,1.593,0.073    c3.888,4.259,12.769,14.545,11.295,18.05c-0.205,0.487-0.767,1.311-2.236,1.364c-4.159,0.139-9.326-5.01-12.846-9.116    c2,6.942,4.53,17.418,2.622,20.551c-0.511,0.839-1.207,1.11-1.703,1.192C410.51,301.214,410.403,301.223,410.286,301.223z"/>
	</g>
	<g>
		<path style="fill:#E2394B;" d="M79.86,282.586c0,0,69.054,31.694,71.142,34.592c2.088,2.898-24.852,39.067-55.127,24.305    C65.6,326.72,73.335,280.344,79.86,282.586z"/>
		<path style="fill:#241726;" d="M109.288,335.704c-1.875,0-3.816-0.262-5.825-0.837c-20.952-6.006-14.543-45.45-14.261-47.127    c0.104-0.615,0.696-1.027,1.3-0.925c0.615,0.104,1.029,0.685,0.925,1.3c-0.066,0.39-6.365,39.132,12.657,44.584    c19.086,5.47,32.683-21.862,32.82-22.139c0.278-0.56,0.95-0.784,1.509-0.518c0.56,0.273,0.791,0.947,0.518,1.509    C138.402,312.635,126.917,335.704,109.288,335.704z"/>
		<path style="fill:#241726;" d="M103.13,326.554c-0.615,0-1.075-0.225-1.379-0.445c-1.304-0.939-3.192-4.779,5.043-20.319    c-4.734,3.236-11.461,7.224-14.098,5.768c-0.61-0.337-0.972-0.899-1.016-1.582c-0.218-3.28,9.198-10.612,13.258-13.611    c0.496-0.363,1.205-0.264,1.577,0.238c0.37,0.5,0.264,1.207-0.238,1.577c-6.422,4.746-11.89,9.852-12.32,11.467    c1.703,0.414,8.682-3.391,15.563-8.597c0.427-0.324,1.024-0.3,1.425,0.051c0.403,0.355,0.5,0.943,0.234,1.408    c-5.955,10.419-9.747,20.59-8.112,21.771c3.225-0.745,10.401-13.031,14.212-20.601c0.251-0.5,0.835-0.736,1.357-0.566    c0.531,0.174,0.855,0.709,0.762,1.26c-0.742,4.43-1.963,16.587,1.247,19.572c0.159,0.148,0.24,0.172,0.242,0.172    c1.28-0.604,2.849-9.374,3.269-18.762c0.026-0.606,0.524-1.077,1.126-1.077c0.015,0,0.033,0,0.051,0.002    c0.621,0.026,1.104,0.553,1.075,1.176c-0.256,5.761-1.236,19.315-4.754,20.756c-0.487,0.2-1.469,0.386-2.547-0.615    c-2.99-2.78-3.065-10.134-2.655-15.525c-3.485,6.325-9.097,15.525-12.659,16.398C103.557,326.528,103.335,326.554,103.13,326.554z    "/>
	</g>
	<path style="fill:#241726;" d="M228.533,429.819c-27.407,0-54.382-2.152-79.847-6.51c-69.814-11.947-119.984-38.453-141.27-74.639   c-0.317-0.538-0.137-1.229,0.399-1.544c0.533-0.315,1.227-0.141,1.544,0.399c29.72,50.522,119.109,80.116,219.75,80.121   c43.267,0,88.598-5.466,132.189-17.092c43.987-11.729,102.608-36.01,132.063-85.069c17.594-29.304,16.376-53.921,16.363-54.168   c-0.037-0.621,0.438-1.154,1.06-1.192c0.54-0.051,1.154,0.436,1.192,1.057c0.015,0.251,1.291,25.448-16.598,55.327   c-29.815,49.793-89.054,74.373-133.498,86.225C319.465,424.044,273.424,429.819,228.533,429.819z"/>
	<path style="fill:#241726;" d="M329.436,314.541c-12.93,0-29.365-2.679-47.429-11.994c-24.69-12.732-36.794-28.737-42.602-39.923   c-6.323-12.181-6.761-21.245-6.777-21.624c-0.024-0.621,0.458-1.146,1.082-1.172c0.604-0.119,1.146,0.458,1.174,1.08   c0.013,0.355,2.062,35.865,48.158,59.634c24.115,12.437,45.226,12.787,58.7,10.892c14.609-2.056,23.633-7.125,23.721-7.176   c0.54-0.306,1.229-0.119,1.54,0.421c0.308,0.542,0.119,1.229-0.421,1.54c-0.377,0.214-9.412,5.303-24.417,7.433   C338.458,314.179,334.181,314.541,329.436,314.541z"/>
</g>















</svg>
