<?xml version="1.0" encoding="UTF-8"?>
<!-- Generator: Adobe Illustrator 25.2.0, SVG Export Plug-In . SVG Version: 6.00 Build 0)  -->
<svg xmlns="http://www.w3.org/2000/svg" xmlns:xlink="http://www.w3.org/1999/xlink" version="1.1" id="Capa_1" x="0px" y="0px" viewBox="0 0 512 512" style="enable-background:new 0 0 512 512;" xml:space="preserve" width="512" height="512">
<g>
	<g>
		<path style="fill:#241726;" d="M248.531,275.343c-25.729,0-93.412-15.694-144.112-27.45c-29.837-6.918-55.605-12.892-62.61-13.276    c-0.676-0.036-1.192-0.614-1.155-1.289c0.036-0.677,0.621-1.214,1.289-1.155c7.216,0.395,31.847,6.105,63.029,13.335    c55.705,12.916,131.994,30.596,149.613,26.916c15.292-3.203,20.551-7.487,22.268-10.518c1.091-1.922,0.655-3.239,0.638-3.294    c-0.218-0.63,0.104-1.331,0.73-1.562c0.626-0.222,1.316,0.071,1.559,0.69c0.091,0.232,0.843,2.348-0.701,5.207    c-2.77,5.126-10.842,9.121-23.991,11.875C253.391,275.175,251.183,275.343,248.531,275.343z"/>
		<path style="fill:#F3BB89;" d="M43.386,225c0,0,237.112,56.49,237.285,32.131c0.173-24.359-92.307-208.934-128.76-221.372    S-44.082,192.712,43.386,225z"/>
		<path style="fill:#F7DAB1;" d="M71.598,207.857c0,0,69.353-111.172,105.191-137.169s-37.848-61.782-56.434-53.293    C40.954,53.662-9.549,158.699,1.516,200.7C6.693,220.35,39.811,270.32,71.598,207.857z"/>
		<path style="fill:#241726;" d="M68.802,216.507c-0.203,0-0.41-0.05-0.6-0.158c-0.588-0.331-0.798-1.079-0.465-1.669    c0.612-1.087,61.855-109.156,114.629-145.739c0.555-0.388,1.319-0.248,1.704,0.31c0.385,0.555,0.246,1.318-0.31,1.704    C131.443,107.221,70.48,214.801,69.87,215.884C69.645,216.282,69.23,216.507,68.802,216.507z"/>
		<circle style="fill:#E2394B;" cx="196.371" cy="144.721" r="23.148"/>
		<path style="fill:#241726;" d="M195.218,162.588c-2.805,0-5.515-0.488-7.948-1.53c-8.167-3.5-11.09-12.345-8.02-24.267    c2.014-7.821,5.735-13.298,11.06-16.277c7.485-4.186,15.322-1.847,15.651-1.747c0.646,0.199,1.008,0.883,0.81,1.529    c-0.196,0.648-0.879,1.009-1.527,0.813c-0.072-0.019-7.21-2.124-13.762,1.558c-4.704,2.643-8.021,7.601-9.858,14.734    c-2.778,10.786-0.431,18.388,6.612,21.405c8.973,3.842,22.797-1.09,28.446-10.151c2.729-4.379,3.534-8.612,2.392-12.581    c-2.216-7.704-11.051-12.082-11.139-12.125c-0.608-0.295-0.862-1.029-0.567-1.636c0.295-0.61,1.031-0.86,1.635-0.568    c0.403,0.196,9.892,4.879,12.421,13.638c1.348,4.669,0.452,9.571-2.664,14.569C213.945,157.676,204.113,162.588,195.218,162.588z"/>
		<circle style="fill:#E2394B;" cx="126.364" cy="189.879" r="23.148"/>
		<path style="fill:#241726;" d="M125.211,207.744c-2.805,0.001-5.515-0.488-7.948-1.53c-8.167-3.499-11.09-12.343-8.02-24.266    c2.014-7.821,5.735-13.298,11.06-16.277c7.484-4.185,15.322-1.848,15.651-1.747c0.646,0.199,1.008,0.883,0.81,1.529    c-0.196,0.647-0.882,1.013-1.527,0.813c-0.072-0.02-7.21-2.124-13.762,1.558c-4.704,2.643-8.021,7.601-9.858,14.734    c-2.778,10.786-0.431,18.387,6.612,21.405c8.969,3.841,22.797-1.088,28.447-10.151c2.733-4.382,3.537-8.62,2.389-12.593    c-2.229-7.722-11.046-12.07-11.134-12.113c-0.609-0.295-0.864-1.027-0.569-1.636c0.295-0.61,1.032-0.862,1.636-0.569    c0.403,0.196,9.892,4.879,12.421,13.639c1.348,4.669,0.452,9.571-2.664,14.569C143.939,202.833,134.107,207.744,125.211,207.744z"/>
		<circle style="fill:#E2394B;" cx="216.052" cy="199.625" r="23.148"/>
		<path style="fill:#241726;" d="M214.899,217.491c-2.805,0-5.515-0.488-7.948-1.53c-8.167-3.499-11.09-12.345-8.02-24.267    c2.014-7.821,5.735-13.297,11.06-16.276c7.485-4.189,15.319-1.849,15.649-1.749c0.646,0.199,1.007,0.883,0.81,1.529    c-0.196,0.647-0.882,1.012-1.527,0.813c-0.069-0.018-7.21-2.122-13.762,1.558c-4.703,2.643-8.02,7.601-9.857,14.734    c-2.778,10.787-0.431,18.388,6.612,21.406c8.973,3.842,22.797-1.09,28.446-10.151c2.733-4.382,3.537-8.62,2.389-12.593    c-2.229-7.722-11.046-12.07-11.134-12.113c-0.609-0.295-0.864-1.027-0.569-1.636c0.295-0.61,1.031-0.859,1.636-0.569    c0.403,0.196,9.892,4.879,12.421,13.639c1.348,4.669,0.452,9.571-2.664,14.569C233.626,212.579,223.795,217.491,214.899,217.491z"/>
		<g>
			<path style="fill:#241726;" d="M82.364,62.679c-0.414,0-0.818-0.211-1.049-0.59c-0.35-0.579-0.165-1.332,0.413-1.683     c1.997-1.21,4.417-2.958,4.844-3.672c0.348-0.579,1.099-0.767,1.68-0.422c0.58,0.348,0.769,1.1,0.422,1.68     c-0.957,1.598-4.897,4.037-5.677,4.509C82.799,62.621,82.58,62.679,82.364,62.679z"/>
			<path style="fill:#241726;" d="M80.09,71.157c-0.414,0-0.818-0.211-1.049-0.59c-0.35-0.579-0.165-1.332,0.413-1.683     c1.997-1.21,4.417-2.958,4.844-3.673c0.348-0.58,1.098-0.767,1.68-0.422c0.58,0.348,0.769,1.099,0.422,1.68     c-0.957,1.599-4.897,4.038-5.677,4.51C80.525,71.099,80.307,71.157,80.09,71.157z"/>
			<path style="fill:#241726;" d="M67.657,73.193c-0.414,0-0.818-0.211-1.049-0.59c-0.35-0.579-0.165-1.332,0.413-1.683     c1.997-1.21,4.417-2.958,4.844-3.672c0.348-0.58,1.1-0.767,1.68-0.422c0.58,0.348,0.769,1.1,0.422,1.68     c-0.957,1.598-4.897,4.037-5.677,4.509C68.092,73.136,67.873,73.193,67.657,73.193z"/>
			<path style="fill:#241726;" d="M66.374,81.139c-0.414,0-0.818-0.211-1.049-0.59c-0.35-0.579-0.165-1.332,0.413-1.683     c1.997-1.21,4.417-2.958,4.844-3.672c0.348-0.58,1.099-0.768,1.68-0.422c0.58,0.348,0.769,1.1,0.422,1.68     c-0.957,1.598-4.897,4.037-5.677,4.509C66.809,81.082,66.59,81.139,66.374,81.139z"/>
			<path style="fill:#241726;" d="M71.724,63.703c-0.414,0-0.818-0.211-1.049-0.59c-0.35-0.579-0.165-1.332,0.413-1.683     c1.997-1.21,4.417-2.958,4.844-3.672c0.348-0.58,1.098-0.765,1.68-0.422c0.58,0.348,0.769,1.1,0.422,1.68     c-0.957,1.598-4.897,4.037-5.677,4.509C72.159,63.645,71.94,63.703,71.724,63.703z"/>
			<path style="fill:#241726;" d="M88.198,50.762c-0.414,0-0.818-0.211-1.049-0.59c-0.35-0.579-0.165-1.332,0.413-1.683     c1.997-1.21,4.417-2.958,4.844-3.672c0.347-0.58,1.099-0.767,1.68-0.422c0.58,0.348,0.769,1.1,0.422,1.68     c-0.957,1.598-4.897,4.037-5.677,4.509C88.634,50.705,88.415,50.762,88.198,50.762z"/>
			<path style="fill:#241726;" d="M93.683,60.16c-0.414,0-0.818-0.209-1.049-0.59c-0.35-0.579-0.165-1.332,0.413-1.683     c1.996-1.21,4.416-2.958,4.843-3.672c0.348-0.581,1.099-0.769,1.68-0.422c0.58,0.348,0.769,1.1,0.422,1.68     c-0.957,1.598-4.896,4.037-5.675,4.509C94.119,60.102,93.9,60.16,93.683,60.16z"/>
			<path style="fill:#241726;" d="M99.926,49.329c-0.414,0-0.818-0.211-1.049-0.59c-0.35-0.579-0.165-1.332,0.413-1.683     c1.997-1.21,4.417-2.958,4.844-3.672c0.348-0.578,1.098-0.767,1.68-0.422c0.58,0.348,0.769,1.1,0.422,1.68     c-0.957,1.598-4.897,4.037-5.677,4.509C100.361,49.272,100.142,49.329,99.926,49.329z"/>
		</g>
		<g>
			<path style="fill:#70A471;" d="M145.609,137.995c0,0-5.457,15.086-0.963,16.049c4.494,0.963,14.444,0.642,14.444,0.642     l-1.284-13.802c0,0,6.099,7.062,10.592,1.926c4.494-5.136,1.926-27.283-17.333-25.037     C131.806,120.02,130.843,144.415,145.609,137.995z"/>
			<path style="fill:#241726;" d="M146.997,158.191c-2.38,0-3.861-0.712-4.403-2.116c-0.938-2.43,0.971-7.517,2.555-11.028     c-0.81,0.263-1.716,0.445-2.677,0.445c-2.332,0-5.612-1.096-7.98-6.315c-2.268-5.002-0.19-8.557,2.557-10.322     c-0.257-1.563-0.066-3.21,0.572-4.907c2.432-6.468,7.516-11.163,12.092-11.163c1.68,0,4.739,0.661,6.569,5.026     c1.67-0.829,3.442-1.276,5.111-1.276c3.338,0,6.154,1.767,7.926,4.974c2.914,5.27,2.233,9.085,0.905,11.535     c1.896,2.493,1.964,5.811,0.134,9.063c-1.402,2.493-4.046,3.756-7.862,3.756c-2.887,0-5.886-0.736-7.936-1.371     c1.233,3.412,2.977,9.002,2.097,11.253c-0.133,0.338-0.409,0.6-0.754,0.715C155.693,156.53,150.67,158.191,146.997,158.191z      M147.885,140.996c0.273,0,0.545,0.091,0.77,0.273c0.454,0.367,0.586,1.005,0.315,1.521c-2.124,4.045-4.797,10.567-4.091,12.403     c0.106,0.273,0.801,0.548,2.118,0.548c2.557,0,6.041-0.966,7.475-1.399c0.127-1.983-1.427-7.209-3.134-11.425     c-0.185-0.457-0.078-0.981,0.273-1.329c0.35-0.347,0.873-0.449,1.332-0.262c0.05,0.022,5.081,2.086,9.553,2.086     c2.865,0,4.791-0.843,5.728-2.507c1.463-2.601,1.131-4.508,0.453-5.752c-2.008,2.088-4.769,3.173-6.775,3.173     c-2.227,0-3.113-1.28-3.195-2.375c-0.177-2.363,0.627-3.768,1.334-4.528c1.854-2.001,5.632-1.975,8.314-0.145     c1.009-2.406,0.611-5.343-1.181-8.585c-1.361-2.462-3.306-3.709-5.783-3.709c-1.399,0-2.915,0.416-4.342,1.185     c0.943,3.935,0.109,7.414-1.225,9.221c-0.715,0.97-1.609,1.503-2.514,1.503c0,0,0,0-0.001,0c-1.02,0-2.788-0.632-3.159-4.861     c-0.201-2.296,1.352-4.939,4.012-6.92c-0.016-0.042-0.032-0.085-0.049-0.127c-0.672-1.712-1.983-3.751-4.402-3.751     c-3.534,0-7.747,4.117-9.798,9.575c-0.39,1.037-0.562,2.033-0.518,2.978c0.932-0.281,1.905-0.427,2.88-0.427     c3.253,0,5.715,1.606,6.423,4.193c0.455,1.663,0.016,2.713-0.434,3.301c-0.629,0.825-1.682,1.28-2.964,1.28     c-2.591,0-5.887-1.819-7.452-4.852c-1.38,1.085-2.802,3.19-1.127,6.883c1.468,3.237,3.403,4.878,5.748,4.878     c2.445,0,4.607-1.745,4.629-1.763C147.327,141.091,147.606,140.996,147.885,140.996z M161.153,135.768     c0.025,0,0.26,0.109,0.751,0.109c1.463,0,3.604-0.884,5.122-2.539c-0.932-0.651-2.052-1.032-3.103-1.032     c-0.62,0-1.484,0.136-2.085,0.783c-0.537,0.579-0.775,1.505-0.687,2.679H161.153z M140.023,130.159     c1.169,2.307,3.672,3.526,5.279,3.526c0.486,0,0.866-0.118,1.017-0.316c0.158-0.207,0.165-0.634,0.018-1.17     c-0.606-2.218-3.26-2.39-4.059-2.39C141.525,129.81,140.752,129.93,140.023,130.159z M154.864,121.704     c-1.487,1.332-2.378,2.894-2.271,4.114c0.166,1.893,0.632,2.556,0.781,2.639c-0.012-0.024,0.304-0.195,0.672-0.807     C154.744,126.489,155.286,124.342,154.864,121.704z"/>
		</g>
		<g>
			<path style="fill:#70A471;" d="M247.62,239.918c0,0,15.94,1.81,15.835-2.785s-2.725-14.199-2.725-14.199l-13.128,4.45     c0,0,5.455-7.57-0.583-10.75c-6.038-3.18-26.986,4.454-20.335,22.666C233.335,257.513,257.288,252.792,247.62,239.918z"/>
			<path style="fill:#241726;" d="M245.862,252.562c-1.896,0-3.696-0.774-5.153-2.197c-1.068,0.445-2.239,0.671-3.495,0.671     c-0.001,0-0.001,0-0.001,0c-0.451,0-0.919-0.03-1.407-0.091c-6.929-0.874-12.541-4.625-13.65-9.122     c-0.405-1.647-0.494-4.795,3.351-7.606c-1.743-2.086-2.703-4.522-2.673-6.861c0.032-2.462,1.155-4.772,3.249-6.68     c3.609-3.29,7.434-4.509,11.011-3.555c1.97-2.409,5.175-3.263,8.783-2.233c6.033,1.725,6.284,10.333,5.988,14.813     c3.051-2.006,8.1-4.986,10.457-4.647c0.36,0.05,0.678,0.258,0.871,0.566c1.521,2.45,6.216,10.628,2.713,13.037     c-0.867,0.596-2.214,0.886-4.117,0.886c-2.288,0-5.044-0.416-7.211-0.83c0.689,1.128,1.248,2.532,1.262,4.136     c0.024,2.715-1.488,5.275-4.492,7.606c-1.8,1.397-3.646,2.106-5.483,2.106C245.865,252.562,245.863,252.562,245.862,252.562z      M242.889,249.024c0.896,0.708,1.92,1.088,2.973,1.088c0.001,0,0.001,0,0.001,0c1.282,0,2.622-0.536,3.982-1.592     c2.369-1.838,3.562-3.739,3.545-5.649c-0.026-2.921-2.892-5.146-2.921-5.167c-0.469-0.35-0.624-0.982-0.372-1.509     c0.252-0.527,0.848-0.803,1.408-0.658c0.061,0.016,6.157,1.557,10.284,1.557c1.866,0,2.53-0.318,2.729-0.456     c0.905-0.622-0.555-4.943-3.032-9.109c-2.402,0.432-7.515,3.613-10.407,5.673c-0.401,0.285-0.937,0.304-1.356,0.043     c-0.42-0.261-0.641-0.748-0.563-1.236c0.582-3.626,1.007-13.348-3.954-14.766c-2.575-0.739-4.606-0.099-5.702,0.891     c2.952,1.741,4.852,4.872,4.795,7.048c-0.031,1.213-0.67,2.134-1.706,2.465c-0.779,0.249-1.531,0.374-2.235,0.374h-0.001     c-1.892,0-3.427-0.892-4.321-2.514c-0.968-1.755-1.025-4.082-0.226-6.162c-2.594-0.434-5.333,0.639-8.075,3.14     c-1.603,1.46-2.427,3.109-2.45,4.9c-0.024,1.855,0.821,3.833,2.341,5.534c1.953-0.988,4.069-1.525,6.049-1.525     c2.885,0,5.009,1.141,5.284,2.841c0.154,0.954-0.163,2.747-4.03,4.036c-2.161,0.719-5.15-0.203-7.661-2.299     c-0.038,0.026-0.075,0.051-0.114,0.078c-1.517,1.057-3.203,2.816-2.618,5.185c0.843,3.423,5.82,6.552,11.577,7.278     c1.123,0.141,2.113,0.074,3.019-0.189c-1.105-1.908-1.573-4.165-1.204-6.084c0.33-1.72,1.267-3.046,2.709-3.837     c2.375-1.301,4.568-0.327,5.212,2.117C246.521,243.07,245.542,246.759,242.889,249.024z M242.725,240.256     c-0.169,0-0.464,0.051-0.911,0.297c-0.792,0.434-1.289,1.157-1.481,2.149c-0.261,1.362,0.118,3.05,0.959,4.465     c1.995-1.698,2.592-4.489,2.189-6.021C243.324,240.556,243.07,240.256,242.725,240.256z M229.629,234.696     c1.618,1.118,3.394,1.628,4.525,1.253c1.805-0.602,2.342-1.208,2.387-1.373c-0.087-0.129-0.975-0.73-2.867-0.73     C232.367,233.846,230.973,234.142,229.629,234.696z M238.124,220.166c-0.557,1.422-0.557,3.048,0.056,4.161     c0.665,1.206,1.947,1.537,3.67,0.988c-0.002-0.024,0.078-0.411-0.193-1.169C241.195,222.848,239.931,221.176,238.124,220.166z"/>
		</g>
		<g>
			<path style="fill:#70A471;" d="M172.238,215.502c0,0-10.929-11.744-13.838-8.187s-7.168,12.557-7.168,12.557l12.865,5.162     c0,0-9.067,2.2-6.551,8.544c2.516,6.343,23.392,14.174,30.189-3.985S173.271,199.434,172.238,215.502z"/>
			<path style="fill:#241726;" d="M175.427,244.135c-5.61,0-8.522-2.275-10.028-4.475c-3.07,0.545-6.077-0.926-8.121-4.018     c-3.46-5.234,1.951-11.936,5.092-15.143c-3.599-0.462-9.366-1.463-10.967-3.275c-0.24-0.273-0.347-0.637-0.292-0.996     c0.421-2.74,2.105-11.681,6.129-11.681c0.043,0,0.249,0.011,0.292,0.016c2.589,0.275,6.243,4.296,8.643,7.308     c0.203-1.253,0.666-2.621,1.621-3.812c1.733-2.166,4.486-3.177,8.469-2.987c5.486,0.266,7.699,3.738,8.014,6.99     c1.509,0.486,2.887,1.408,4.106,2.751c4.527,4.986,6.41,11.358,4.579,15.492c-1.127,2.545-3.51,3.946-6.714,3.947     c-0.001,0-0.001,0-0.001,0c-0.299,0-0.608-0.012-0.926-0.037c-0.033,2.719-0.889,5.195-2.433,6.952     c-1.627,1.848-3.982,2.872-6.814,2.959L175.427,244.135z M167.826,238.808c1.592,1.889,4.189,2.878,7.601,2.878l0.574-0.01     c2.166-0.066,3.865-0.782,5.049-2.128c1.225-1.393,1.871-3.445,1.822-5.726c-4.953-1.214-8.319-4.726-8.091-7.308     c0.092-1.045,0.887-2.265,2.828-2.265c0.886,0,1.963,0.255,3.199,0.76c2.135,0.868,3.776,3.457,4.323,6.728     c0.045,0.005,0.091,0.01,0.136,0.014c0.342,0.035,0.667,0.051,0.982,0.051c0,0,0,0,0.001,0c2.238,0,3.743-0.837,4.475-2.489     c1.427-3.223-0.319-8.63-4.153-12.854c-0.745-0.82-1.555-1.43-2.417-1.822c-0.643,3.458-3.118,6.672-6.498,6.673     c-0.364,0-0.733-0.039-1.098-0.116c-2.438-0.512-3.153-2.174-3.008-3.56c0.287-2.761,3.931-5.97,8.2-5.97     c0.002,0,0.004,0,0.005,0c-0.335-1.724-1.56-3.949-5.61-4.146c-3.083-0.163-5.212,0.548-6.429,2.06     c-1.816,2.253-1.087,5.717-1.08,5.752c0.124,0.569-0.17,1.149-0.704,1.384c-0.53,0.24-1.158,0.061-1.494-0.415     c-2.628-3.737-7.209-9.094-9.164-9.302c-0.001,0-0.001,0-0.001,0c-1.127,0-2.817,4.245-3.629,8.92     c1.7,1.018,7.064,2.025,11.601,2.433c0.492,0.044,0.908,0.379,1.057,0.85c0.15,0.47,0.001,0.984-0.376,1.304     c-2.801,2.375-9.449,9.482-6.605,13.786c1.34,2.025,3.123,3.044,4.907,3.032c-0.998-2.903-0.603-6.016,0.433-7.766     c0.841-1.422,2.18-1.991,3.412-1.469c2.457,1.037,3.802,2.894,3.692,5.095C171.654,235.41,170.073,237.592,167.826,238.808z      M167.121,230.344c-0.014,0.02-0.327,0.263-0.615,1.015c-0.493,1.286-0.621,3.379,0.094,5.323     c1.52-0.807,2.649-2.258,2.717-3.622C169.391,231.613,168.163,230.784,167.121,230.344z M177.607,226.699     c-0.269,0-0.401,0.049-0.429,0.068c0.028,0,0.036,0.359,0.411,0.966c0.713,1.152,2.377,2.613,4.917,3.442     c-0.508-1.932-1.489-3.438-2.623-3.899C178.709,226.798,177.997,226.699,177.607,226.699z M181.749,214.115     c-3.156,0-5.626,2.448-5.764,3.774c-0.023,0.216-0.069,0.667,1.076,0.909c2.285,0.472,4.222-2.032,4.696-4.683     C181.754,214.115,181.751,214.115,181.749,214.115z"/>
		</g>
	</g>
	<g>
		<path style="fill:#241726;" d="M298.768,495.878c-39.696,0.001-77.309-9.566-110.43-28.292    c-42.278-23.904-74.618-62.15-91.065-107.697c-21.236-58.809-18.66-81.173-12.759-89.579c3.128-4.454,6.904-4.506,7.063-4.506    c0.677,0,1.225,0.548,1.225,1.225c0,0.672-0.541,1.218-1.212,1.225c-0.134,0.004-2.792,0.126-5.16,3.593    c-4.483,6.562-8.735,26.616,13.146,87.209c16.249,44.996,48.199,82.783,89.967,106.397c43.232,24.443,94.24,33.101,147.508,25.053    c56.932-8.606,107.657-39.96,139.168-86.022c30.654-44.81,40.604-100.37,28.016-156.446c-0.148-0.66,0.267-1.314,0.927-1.463    c0.664-0.147,1.314,0.266,1.463,0.927c12.739,56.746,2.659,112.988-28.384,158.365c-31.893,46.622-83.222,78.353-140.823,87.061    C324.377,494.9,311.463,495.878,298.768,495.878z"/>
		<path style="fill:#F3BB89;" d="M91.577,267.03c0,0,210.564,32.526,213.988,23.967c3.424-8.56-42.798-169.479-29.102-176.326    c13.695-6.848,104.908-37.153,195.157,58.205c90.731,95.867,3.692,300.568-147.224,309.855    C101.848,496.425,86.441,284.149,91.577,267.03z"/>
		<path style="fill:#241726;" d="M289.424,452.204c-32.252,0-60.865-9.237-85.351-27.605    C136.625,374,123.017,269.938,122.888,268.892c-0.084-0.671,0.394-1.283,1.065-1.366c0.675-0.089,1.282,0.392,1.366,1.064    c0.129,1.035,13.621,104.091,80.235,154.055c31.286,23.466,69.481,31.755,113.512,24.637    c66.235-10.705,111.512-37.316,134.571-79.094c32.345-58.599,9.286-123.325,1.45-141.766    c-26.207-61.659-79.156-85.706-171.675-78.007c-0.702,0.063-1.267-0.445-1.322-1.118c-0.056-0.675,0.444-1.265,1.118-1.322    c44.426-3.709,79.399-0.035,106.917,11.214c31.107,12.714,53.094,35.047,67.214,68.273c7.948,18.699,31.322,84.341-1.559,143.909    c-23.442,42.47-69.309,69.497-136.326,80.328C309.127,451.371,299.11,452.204,289.424,452.204z"/>
		<path style="fill:#241726;" d="M305.566,292.222c-0.382,0-0.758-0.178-0.997-0.512c-0.394-0.55-0.267-1.314,0.283-1.709    c1.385-0.992,138.796-99.471,159.02-121.381c0.457-0.495,1.233-0.526,1.731-0.068c0.496,0.458,0.527,1.233,0.068,1.731    c-20.393,22.093-153.728,117.653-159.393,121.711C306.063,292.148,305.813,292.222,305.566,292.222z"/>
		<path style="fill:#241726;" d="M457.923,408.631c-0.249,0-0.5-0.075-0.718-0.233c-5.596-4.057-137.234-99.561-152.551-116.581    c-0.452-0.502-0.411-1.277,0.091-1.73c0.501-0.453,1.275-0.414,1.73,0.091c15.145,16.829,150.8,115.244,152.168,116.237    c0.548,0.397,0.67,1.163,0.273,1.71C458.677,408.455,458.302,408.631,457.923,408.631z"/>
		<path style="fill:#241726;" d="M218.257,465.124c-0.172,0-0.349-0.037-0.516-0.115c-0.614-0.286-0.879-1.014-0.593-1.627    c0.702-1.507,70.284-150.858,78.742-169.469c0.279-0.614,0.999-0.89,1.622-0.608c0.616,0.28,0.888,1.006,0.608,1.622    c-8.463,18.62-78.05,167.982-78.752,169.488C219.161,464.862,218.718,465.124,218.257,465.124z"/>
		<g>
			<path style="fill:#70A471;" d="M327.071,233.006c0,0-5.457,15.086-0.963,16.049c4.494,0.963,14.444,0.642,14.444,0.642     l-1.284-13.802c0,0,6.099,7.062,10.592,1.926c4.494-5.136,1.926-27.283-17.333-25.037     C313.268,215.031,312.305,239.426,327.071,233.006z"/>
			<path style="fill:#241726;" d="M328.457,253.202c-2.378,0-3.859-0.712-4.4-2.116c-0.938-2.43,0.971-7.517,2.555-11.028     c-0.81,0.262-1.716,0.444-2.676,0.445c-2.334,0-5.612-1.096-7.98-6.315c-2.269-5.002-0.191-8.557,2.556-10.322     c-0.257-1.564-0.066-3.211,0.572-4.909c2.432-6.467,7.516-11.162,12.091-11.162c1.682,0,4.739,0.661,6.569,5.026     c1.67-0.829,3.443-1.276,5.112-1.276c3.338,0,6.154,1.767,7.926,4.974c2.914,5.27,2.234,9.085,0.905,11.535     c1.895,2.493,1.964,5.811,0.135,9.061c-1.403,2.493-4.049,3.757-7.863,3.757c-2.887,0-5.886-0.736-7.936-1.371     c1.233,3.411,2.977,9.002,2.096,11.251c-0.132,0.339-0.408,0.6-0.752,0.715C337.155,251.541,332.131,253.202,328.457,253.202z      M329.346,236.009c0.274,0,0.548,0.092,0.773,0.275c0.452,0.367,0.584,1.002,0.312,1.518c-2.124,4.045-4.797,10.566-4.089,12.402     c0.105,0.273,0.801,0.549,2.116,0.549c2.554,0,6.043-0.968,7.478-1.401c0.126-1.982-1.427-7.206-3.134-11.424     c-0.185-0.457-0.078-0.981,0.273-1.329c0.352-0.347,0.876-0.446,1.332-0.262c0.05,0.022,5.08,2.086,9.552,2.086     c2.866,0,4.793-0.844,5.729-2.508c1.463-2.6,1.13-4.507,0.453-5.751c-2.009,2.088-4.77,3.172-6.776,3.172     c-2.227,0-3.112-1.279-3.195-2.373c-0.177-2.366,0.628-3.769,1.334-4.53c1.853-2,5.634-1.977,8.315-0.146     c1.009-2.405,0.611-5.342-1.181-8.584c-1.361-2.462-3.307-3.709-5.783-3.709c-1.401,0-2.915,0.416-4.343,1.185     c0.944,3.934,0.11,7.414-1.224,9.221c-0.715,0.969-1.609,1.502-2.515,1.503c-1.02,0-2.788-0.632-3.159-4.863     c-0.202-2.295,1.352-4.936,4.01-6.917c-0.016-0.043-0.032-0.086-0.049-0.128c-0.672-1.712-1.982-3.751-4.402-3.751     c-3.534,0-7.746,4.116-9.797,9.573c-0.39,1.037-0.562,2.033-0.518,2.978c0.932-0.281,1.905-0.427,2.879-0.427     c3.255,0,5.716,1.608,6.424,4.195c0.454,1.663,0.014,2.713-0.434,3.301c-0.629,0.825-1.682,1.28-2.964,1.28h-0.001     c-2.591,0-5.886-1.82-7.45-4.854c-1.38,1.085-2.802,3.191-1.127,6.885c1.468,3.237,3.403,4.878,5.748,4.878     c2.459-0.001,4.61-1.747,4.631-1.765C328.792,236.103,329.069,236.009,329.346,236.009z M342.615,230.78     c0.025,0,0.261,0.108,0.75,0.108c1.464,0,3.605-0.883,5.124-2.539c-0.933-0.649-2.054-1.031-3.103-1.031     c-0.621,0-1.487,0.136-2.087,0.783c-0.537,0.579-0.774,1.505-0.687,2.68L342.615,230.78z M321.485,225.17     c1.169,2.307,3.672,3.526,5.279,3.526c0.486,0,0.866-0.118,1.017-0.317c0.158-0.207,0.165-0.633,0.018-1.169     c-0.606-2.218-3.262-2.391-4.061-2.391C322.987,224.82,322.215,224.942,321.485,225.17z M336.325,216.715     c-1.486,1.332-2.378,2.893-2.27,4.112c0.166,1.895,0.632,2.557,0.781,2.641c-0.012-0.025,0.304-0.196,0.672-0.809     C336.206,221.499,336.747,219.354,336.325,216.715z"/>
		</g>
		<g>
			<path style="fill:#70A471;" d="M431.261,299.238c0,0,14.816,6.153,15.987,1.709s1.314-14.399,1.314-14.399l-13.847,0.64     c0,0,7.338-5.763,2.417-10.491c-4.921-4.728-27.164-3.194-25.817,16.148C412.662,312.188,436.986,314.286,431.261,299.238z"/>
			<path style="fill:#241726;" d="M428.141,311.187c-2.743,0-5.037-1.381-6.416-3.825c-1.574,0.176-3.219-0.091-4.87-0.8     c-6.415-2.758-10.768-7.917-10.588-12.546c0.066-1.694,0.853-4.742,5.326-6.379c-1.097-2.487-1.346-5.094-0.669-7.333     c0.712-2.356,2.432-4.265,4.972-5.519c4.378-2.164,8.424-2.264,11.565-0.367c2.554-1.761,5.886-1.698,9.058,0.287     c5.324,3.33,3.172,11.682,1.646,15.901c2.636-0.81,6.727-1.922,9.319-1.922c0.841,0,1.502,0.112,2.021,0.344     c0.331,0.148,0.58,0.435,0.678,0.786c0.785,2.775,3.03,11.933-1.002,13.276c-2.406,0.806-7.452-1.324-10.899-3.073     c0.349,1.273,0.494,2.772,0.065,4.314c-0.728,2.616-2.89,4.656-6.423,6.064C430.61,310.92,429.337,311.186,428.141,311.187z      M424.192,306.676c0.731,1.029,1.959,2.061,3.949,2.061c0.884-0.001,1.852-0.208,2.877-0.616c2.778-1.108,4.449-2.6,4.966-4.434     c0.8-2.837-1.352-5.76-1.373-5.789c-0.349-0.468-0.322-1.117,0.067-1.551c0.388-0.435,1.027-0.539,1.531-0.242     c2.245,1.316,8.712,4.732,11.632,4.732c0.294,0,0.471-0.038,0.567-0.071c1.041-0.347,0.831-4.913-0.396-9.609     c-0.14-0.014-0.315-0.024-0.527-0.024c-3.573,0-10.964,2.584-11.039,2.61c-0.462,0.165-0.983,0.031-1.316-0.335     c-0.33-0.366-0.409-0.896-0.199-1.342c1.563-3.324,4.663-12.548,0.289-15.285c-2.151-1.343-4.356-1.383-5.724-0.72     c2.354,2.491,3.311,6.025,2.654,8.1c-0.366,1.157-1.233,1.865-2.32,1.896c-0.012,0-0.246,0.004-0.258,0.004     c-2.562,0-4.472-1.158-5.24-3.174c-0.783-2.058-0.24-4.672,1.279-6.686c-2.352-1.12-5.317-0.855-8.63,0.781     c-1.944,0.959-3.192,2.316-3.711,4.032c-0.537,1.775-0.273,3.91,0.716,5.965c5.216-0.998,10.482,1.171,10.542,4.077     c0.017,0.866-0.435,2.899-5.007,3.086c-0.002,0-0.006,0-0.008,0c-2.414,0-4.917-1.672-6.715-4.329     c-0.043,0.014-0.087,0.029-0.13,0.043c-1.751,0.596-3.857,1.818-3.953,4.256c-0.138,3.524,3.778,7.908,9.108,10.199     c1.012,0.435,2.003,0.655,2.947,0.655c0.002,0,0.005,0,0.007,0c-0.535-2.14-0.358-4.437,0.527-6.18     c0.793-1.561,2.061-2.576,3.666-2.936c2.386-0.535,4.136,0.626,4.392,2.795C429.692,301.447,427.598,305.129,424.192,306.676z      M426.111,298.164c-0.178,0-0.383,0.025-0.605,0.075c-0.882,0.197-1.56,0.755-2.018,1.657c-0.628,1.236-0.731,2.96-0.317,4.552     c2.478-1.134,3.951-3.882,3.758-5.516C426.854,298.289,426.572,298.164,426.111,298.164z M415.421,289.236     c1.23,1.5,2.709,2.46,3.911,2.459c1.989-0.079,2.673-0.513,2.763-0.659c-0.081-0.378-1.875-1.873-5.366-1.873     C416.296,289.163,415.86,289.189,415.421,289.236z M427.605,277.627c-1.035,1.352-1.465,3.124-0.984,4.387     c0.403,1.06,1.396,1.597,2.951,1.597c0.194-0.028,0.377-0.378,0.328-1.181C429.813,281.056,429.062,279.1,427.605,277.627z"/>
		</g>
		<g>
			<path style="fill:#70A471;" d="M341.304,373.918c0,0-14.465-6.938-15.872-2.563c-1.408,4.375-2.083,14.308-2.083,14.308     l13.861,0.103c0,0-7.636,5.362-2.975,10.347c4.661,4.985,26.954,4.645,26.644-14.742     C360.569,361.983,336.393,358.585,341.304,373.918z"/>
			<path style="fill:#241726;" d="M349.291,400.538c-2.044,0-3.934-0.562-5.522-1.634c-2.652,1.624-5.972,1.378-9.03-0.77     c-5.137-3.61-2.542-11.835-0.792-15.966c-2.487,0.621-6.242,1.436-8.827,1.436c-1.123,0-1.968-0.153-2.581-0.468     c-0.323-0.165-0.556-0.465-0.636-0.82c-0.634-2.813-2.386-12.08,1.714-13.205c2.452-0.679,7.376,1.728,10.718,3.653     c-0.281-1.289-0.346-2.795,0.166-4.312c0.867-2.573,3.135-4.495,6.739-5.712c4.382-1.483,8.222-0.019,10.02,3.576     c1.567-0.085,3.208,0.261,4.821,1.06c6.259,3.099,10.33,8.484,9.902,13.097c-0.157,1.688-1.106,4.69-5.661,6.083     c0.963,2.542,1.07,5.16,0.275,7.359c-0.837,2.314-2.656,4.128-5.26,5.244C353.201,400.074,351.168,400.538,349.291,400.538z      M345.714,397.225c2.283,1.244,5.259,1.14,8.658-0.317c1.991-0.854,3.311-2.141,3.921-3.826c0.632-1.745,0.482-3.891-0.396-5.996     c-4.253,0.575-8.577-0.862-9.915-3.182c-0.492-0.85-0.521-1.774-0.084-2.533c0.666-1.152,2.233-1.737,4.659-1.737     c2.484,0.03,4.973,1.84,6.68,4.685c0.044-0.012,0.089-0.024,0.133-0.037c1.78-0.501,3.948-1.608,4.174-4.037     c0.325-3.51-3.35-8.1-8.55-10.674c-0.99-0.49-1.969-0.763-2.914-0.812c0.419,2.165,0.12,4.449-0.858,6.143     c-0.877,1.517-2.197,2.463-3.819,2.737c-2.513,0.416-4.034-0.792-4.227-2.91c-0.254-2.798,2.064-6.471,5.587-7.859     c-0.712-1.127-1.972-2.279-4.152-2.279c-0.797,0-1.667,0.158-2.588,0.469c-2.842,0.96-4.592,2.365-5.203,4.175     c-0.933,2.767,1.044,5.808,1.065,5.839c0.328,0.483,0.267,1.131-0.144,1.547c-0.41,0.415-1.059,0.482-1.547,0.16     c-2.253-1.489-8.717-5.352-11.523-5.352c-0.205,0-0.335,0.024-0.408,0.043c-1.059,0.291-1.094,4.863-0.121,9.618     c0.226,0.036,0.542,0.065,0.976,0.065c3.741,0,10.645-2.007,10.714-2.027c0.468-0.139,0.984,0.023,1.294,0.405     c0.311,0.383,0.361,0.916,0.128,1.35c-1.74,3.235-5.33,12.28-1.109,15.246c1.982,1.395,3.953,1.747,5.673,1.027     c-2.223-2.6-2.982-6.106-2.228-8.186c0.411-1.136,1.298-1.814,2.369-1.814c2.731,0.068,4.661,1.305,5.363,3.393     C348.035,392.663,347.362,395.274,345.714,397.225z M341.965,389.606c-0.006,0.023-0.208,0.364-0.201,1.169     c0.011,1.377,0.657,3.371,2.032,4.918c1.121-1.306,1.642-3.069,1.207-4.362C344.542,389.956,343.097,389.635,341.965,389.606z      M352.714,382.085c-1.941,0-2.604,0.38-2.697,0.514c0.072,0.502,2.167,2.174,5.885,2.174c0.227,0,0.456-0.007,0.685-0.02     c-1.177-1.611-2.64-2.653-3.865-2.668C352.72,382.085,352.718,382.085,352.714,382.085z M349.661,369.15     c-2.557,1.013-4.191,3.741-4.044,5.357c0.063,0.715,0.494,0.864,1.38,0.716c0.89-0.15,1.598-0.67,2.104-1.545     C349.794,372.478,349.99,370.761,349.661,369.15z"/>
		</g>
		<g>
			<path style="fill:#70A471;" d="M212.055,332.832c0,0-14.465-6.938-15.872-2.563c-1.408,4.375-2.083,14.308-2.083,14.308     l13.861,0.103c0,0-7.636,5.362-2.975,10.347c4.661,4.985,26.954,4.645,26.644-14.743     C231.32,320.897,207.144,317.499,212.055,332.832z"/>
			<path style="fill:#241726;" d="M220.041,359.452c-2.043,0.001-3.934-0.561-5.521-1.633c-2.65,1.621-5.971,1.377-9.03-0.771     c-5.137-3.61-2.542-11.835-0.792-15.966c-2.487,0.621-6.242,1.436-8.827,1.436c-1.123,0-1.968-0.153-2.581-0.468     c-0.323-0.165-0.556-0.465-0.636-0.821c-0.634-2.813-2.386-12.079,1.714-13.203c2.445-0.676,7.376,1.725,10.718,3.652     c-0.281-1.289-0.346-2.795,0.166-4.312c0.867-2.573,3.135-4.495,6.737-5.711c4.386-1.484,8.224-0.019,10.021,3.576     c1.555-0.094,3.208,0.262,4.821,1.06c6.259,3.098,10.33,8.483,9.902,13.095c-0.157,1.689-1.106,4.691-5.661,6.084     c0.962,2.542,1.07,5.16,0.275,7.359c-0.838,2.314-2.656,4.128-5.26,5.244C223.952,358.988,221.919,359.452,220.041,359.452z      M216.464,356.14c2.283,1.242,5.262,1.136,8.66-0.318c1.991-0.854,3.311-2.141,3.921-3.826c0.632-1.744,0.482-3.891-0.396-5.996     c-4.246,0.575-8.577-0.862-9.915-3.182c-0.492-0.85-0.521-1.774-0.084-2.533c0.666-1.152,2.233-1.737,4.659-1.737     c2.484,0.031,4.973,1.841,6.68,4.685c0.044-0.012,0.089-0.024,0.133-0.037c1.78-0.501,3.948-1.608,4.174-4.037     c0.325-3.51-3.35-8.099-8.55-10.673c-0.99-0.49-1.969-0.763-2.914-0.813c0.419,2.166,0.118,4.451-0.859,6.143     c-0.876,1.517-2.196,2.463-3.818,2.737c-0.324,0.054-0.627,0.079-0.905,0.079h-0.001c-1.88,0.001-3.153-1.145-3.32-2.988     c-0.255-2.796,2.064-6.471,5.587-7.859c-0.712-1.128-1.972-2.279-4.152-2.279c-0.797,0-1.669,0.158-2.59,0.469     c-2.835,0.957-4.583,2.357-5.197,4.161c-0.951,2.79,1.042,5.825,1.062,5.855c0.324,0.484,0.262,1.133-0.15,1.545     c-0.409,0.415-1.054,0.482-1.543,0.159c-2.253-1.488-8.716-5.351-11.522-5.351c-0.206,0-0.335,0.024-0.409,0.043     c-1.059,0.291-1.094,4.862-0.121,9.616c0.226,0.036,0.542,0.065,0.976,0.065c3.741,0,10.645-2.007,10.714-2.027     c0.471-0.138,0.984,0.022,1.294,0.405c0.311,0.383,0.361,0.916,0.128,1.35c-1.74,3.235-5.33,12.28-1.109,15.246     c1.982,1.395,3.953,1.743,5.673,1.029c-2.223-2.6-2.983-6.107-2.229-8.187c0.413-1.136,1.299-1.814,2.372-1.814     c2.729,0.068,4.66,1.305,5.362,3.393C218.787,351.577,218.112,354.188,216.464,356.14z M212.717,348.52     c-0.006,0.023-0.208,0.364-0.202,1.167c0.012,1.378,0.657,3.373,2.033,4.921c1.12-1.307,1.641-3.07,1.207-4.364     C215.293,348.87,213.848,348.548,212.717,348.52z M223.466,340.999c-1.941,0-2.604,0.38-2.697,0.514     c0.072,0.502,2.167,2.174,5.885,2.174c0.227,0,0.456-0.007,0.685-0.02c-1.178-1.611-2.641-2.653-3.865-2.668     C223.474,340.999,223.468,340.999,223.466,340.999z M220.412,328.065c-2.557,1.013-4.191,3.743-4.044,5.357     c0.063,0.713,0.487,0.861,1.38,0.715c0.89-0.15,1.598-0.67,2.103-1.545C220.545,331.392,220.74,329.676,220.412,328.065z"/>
		</g>
		<g>
			<circle style="fill:#E2394B;" cx="316.462" cy="185.212" r="19.545"/>
			<path style="fill:#241726;" d="M315.478,200.485c-2.391,0-4.703-0.416-6.776-1.305c-6.992-2.995-9.5-10.545-6.882-20.712     c1.715-6.656,4.887-11.32,9.43-13.862c6.394-3.573,13.085-1.574,13.365-1.492c0.646,0.199,1.007,0.883,0.81,1.529     c-0.195,0.647-0.884,1.012-1.527,0.813c-0.06-0.02-6.017-1.769-11.476,1.303c-3.922,2.206-6.691,6.351-8.228,12.32     c-2.319,9.005-0.376,15.346,5.473,17.851c7.502,3.213,19.057-0.915,23.783-8.497c2.277-3.653,2.95-7.179,1.996-10.479     c-1.86-6.44-9.228-10.073-9.302-10.109c-0.609-0.295-0.864-1.029-0.569-1.636c0.294-0.611,1.032-0.86,1.636-0.569     c0.343,0.166,8.43,4.159,10.588,11.635c1.154,3.996,0.39,8.187-2.27,12.455C331.428,196.305,323.057,200.485,315.478,200.485z"/>
		</g>
		<g>
			<circle style="fill:#E2394B;" cx="377.234" cy="198.907" r="19.545"/>
			<path style="fill:#241726;" d="M376.252,214.18c-2.392,0-4.703-0.416-6.777-1.304c-6.992-2.996-9.5-10.546-6.882-20.714     c1.715-6.656,4.887-11.32,9.43-13.862c6.392-3.573,13.085-1.574,13.365-1.492c0.646,0.199,1.007,0.883,0.81,1.529     c-0.195,0.647-0.879,1.012-1.527,0.813c-0.062-0.019-6.017-1.77-11.476,1.303c-3.922,2.206-6.691,6.351-8.228,12.32     c-2.319,9.006-0.376,15.346,5.473,17.851c7.499,3.213,19.056-0.917,23.783-8.497c2.277-3.653,2.95-7.179,1.996-10.479     c-1.86-6.44-9.228-10.073-9.302-10.109c-0.609-0.295-0.864-1.029-0.569-1.636c0.295-0.611,1.032-0.862,1.636-0.569     c0.343,0.166,8.43,4.159,10.588,11.635c1.154,3.996,0.39,8.187-2.27,12.455C392.2,210,383.829,214.18,376.252,214.18z"/>
		</g>
		<g>
			<circle style="fill:#E2394B;" cx="369.531" cy="287.07" r="19.545"/>
			<path style="fill:#241726;" d="M368.548,302.344c-2.391,0-4.703-0.416-6.776-1.305c-6.992-2.995-9.5-10.545-6.882-20.712     c1.715-6.656,4.887-11.321,9.431-13.862c6.389-3.574,13.083-1.576,13.363-1.491c0.646,0.199,1.007,0.883,0.81,1.529     c-0.195,0.646-0.876,1.011-1.527,0.813c-0.062-0.019-6.017-1.768-11.475,1.301c-3.922,2.207-6.691,6.351-8.228,12.321     c-2.319,9.005-0.376,15.346,5.473,17.851c7.503,3.213,19.058-0.916,23.783-8.497c2.277-3.653,2.948-7.179,1.995-10.48     c-1.86-6.438-9.228-10.072-9.302-10.108c-0.609-0.295-0.864-1.027-0.569-1.636c0.297-0.609,1.033-0.861,1.636-0.569     c0.343,0.166,8.429,4.158,10.589,11.634c1.154,3.997,0.39,8.187-2.27,12.456C384.498,298.164,376.126,302.344,368.548,302.344z"/>
		</g>
		<g>
			<circle style="fill:#E2394B;" cx="432.015" cy="249.409" r="19.545"/>
			<path style="fill:#241726;" d="M431.032,264.682c-2.391,0-4.703-0.416-6.776-1.305c-6.992-2.995-9.5-10.545-6.882-20.712     c1.715-6.656,4.887-11.321,9.431-13.862c6.389-3.571,13.083-1.575,13.363-1.492c0.646,0.199,1.007,0.883,0.81,1.529     c-0.195,0.646-0.873,1.013-1.527,0.813c-0.062-0.018-6.019-1.769-11.475,1.301c-3.922,2.207-6.691,6.351-8.228,12.321     c-2.319,9.005-0.376,15.346,5.473,17.851c7.501,3.21,19.057-0.915,23.783-8.497c2.277-3.653,2.95-7.179,1.996-10.48     c-1.86-6.44-9.228-10.072-9.302-10.108c-0.609-0.295-0.864-1.027-0.569-1.636c0.294-0.608,1.03-0.86,1.636-0.569     c0.343,0.166,8.429,4.158,10.588,11.634c1.154,3.997,0.391,8.187-2.27,12.456C446.982,260.502,438.61,264.682,431.032,264.682z"/>
		</g>
		<g>
			<circle style="fill:#E2394B;" cx="423.456" cy="340.996" r="19.545"/>
			<path style="fill:#241726;" d="M422.473,356.269c-2.391,0-4.703-0.416-6.776-1.305c-6.992-2.995-9.5-10.545-6.882-20.712     c1.715-6.656,4.887-11.321,9.431-13.862c6.387-3.573,13.083-1.576,13.363-1.491c0.646,0.199,1.007,0.883,0.81,1.529     c-0.196,0.645-0.874,1.012-1.527,0.813c-0.06-0.019-6.017-1.767-11.475,1.301c-3.922,2.207-6.691,6.351-8.228,12.321     c-2.319,9.005-0.376,15.346,5.473,17.851c7.501,3.21,19.057-0.915,23.783-8.497c2.277-3.653,2.948-7.179,1.995-10.48     c-1.86-6.438-9.228-10.072-9.302-10.108c-0.609-0.295-0.864-1.027-0.569-1.636c0.297-0.61,1.03-0.86,1.636-0.569     c0.343,0.166,8.429,4.158,10.589,11.634c1.154,3.997,0.39,8.187-2.27,12.456C438.423,352.089,430.051,356.269,422.473,356.269z"/>
		</g>
		<g>
			<circle style="fill:#E2394B;" cx="314.75" cy="342.707" r="19.545"/>
			<path style="fill:#241726;" d="M313.767,357.981c-2.391,0-4.703-0.416-6.776-1.305c-6.992-2.995-9.5-10.545-6.882-20.712     c1.715-6.656,4.887-11.321,9.431-13.862c6.388-3.573,13.084-1.576,13.363-1.491c0.646,0.199,1.007,0.883,0.81,1.529     c-0.195,0.646-0.879,1.011-1.527,0.813c-0.061-0.019-6.016-1.768-11.475,1.301c-3.922,2.207-6.691,6.351-8.228,12.321     c-2.319,9.005-0.376,15.346,5.473,17.851c7.501,3.211,19.057-0.915,23.783-8.497c2.277-3.653,2.95-7.179,1.996-10.479     c-1.86-6.44-9.228-10.073-9.302-10.109c-0.609-0.295-0.864-1.029-0.569-1.636c0.294-0.611,1.032-0.86,1.636-0.569     c0.343,0.166,8.43,4.159,10.588,11.635c1.154,3.996,0.39,8.187-2.27,12.455C329.716,353.8,321.345,357.981,313.767,357.981z"/>
		</g>
		<g>
			<circle style="fill:#E2394B;" cx="390.93" cy="398.344" r="19.545"/>
			<path style="fill:#241726;" d="M389.947,413.618c-2.392,0-4.703-0.416-6.777-1.305c-6.991-2.995-9.499-10.545-6.881-20.712     c1.715-6.657,4.887-11.321,9.431-13.862c6.387-3.576,13.08-1.579,13.363-1.493c0.646,0.199,1.007,0.883,0.81,1.529     c-0.196,0.648-0.885,1.009-1.527,0.813c-0.061-0.019-6.016-1.77-11.475,1.303c-3.922,2.206-6.691,6.351-8.228,12.321     c-2.32,9.005-0.376,15.346,5.473,17.851c7.503,3.213,19.057-0.919,23.781-8.498c2.277-3.653,2.95-7.179,1.996-10.479     c-1.86-6.438-9.228-10.072-9.302-10.108c-0.609-0.295-0.864-1.027-0.569-1.636c0.295-0.608,1.032-0.861,1.636-0.569     c0.343,0.166,8.43,4.158,10.588,11.634c1.154,3.996,0.39,8.187-2.27,12.455C405.897,409.437,397.524,413.617,389.947,413.618z"/>
		</g>
		<g>
			<circle style="fill:#E2394B;" cx="299.343" cy="412.04" r="19.545"/>
			<path style="fill:#241726;" d="M298.36,427.313c-2.392,0-4.703-0.416-6.777-1.305c-6.991-2.995-9.499-10.545-6.881-20.712     c1.715-6.656,4.887-11.321,9.431-13.862c6.388-3.571,13.084-1.575,13.363-1.492c0.646,0.199,1.007,0.883,0.81,1.529     c-0.196,0.645-0.874,1.012-1.527,0.813c-0.06-0.019-6.017-1.767-11.475,1.301c-3.922,2.207-6.691,6.351-8.228,12.321     c-2.32,9.005-0.376,15.346,5.473,17.851c7.503,3.213,19.057-0.919,23.781-8.498c2.277-3.653,2.95-7.179,1.996-10.479     c-1.86-6.438-9.228-10.072-9.302-10.108c-0.609-0.295-0.864-1.027-0.569-1.636c0.295-0.609,1.031-0.861,1.636-0.569     c0.343,0.166,8.43,4.158,10.588,11.634c1.154,3.996,0.391,8.187-2.27,12.455C314.31,423.132,305.937,427.312,298.36,427.313z"/>
		</g>
		<g>
			<circle style="fill:#E2394B;" cx="207.756" cy="389.785" r="19.545"/>
			<path style="fill:#241726;" d="M206.773,405.058c-2.391,0-4.703-0.416-6.777-1.305c-6.991-2.995-9.499-10.545-6.881-20.712     c1.715-6.656,4.887-11.321,9.431-13.862c6.388-3.573,13.083-1.574,13.363-1.492c0.646,0.199,1.007,0.883,0.81,1.529     c-0.196,0.647-0.882,1.012-1.527,0.813c-0.061-0.018-6.016-1.769-11.475,1.301c-3.922,2.207-6.691,6.351-8.228,12.321     c-2.32,9.005-0.376,15.346,5.473,17.851c7.503,3.209,19.057-0.917,23.782-8.497c2.277-3.653,2.95-7.179,1.996-10.479     c-1.86-6.44-9.228-10.073-9.302-10.109c-0.609-0.295-0.864-1.029-0.569-1.636c0.295-0.61,1.031-0.862,1.636-0.569     c0.343,0.166,8.43,4.159,10.588,11.635c1.154,3.996,0.39,8.187-2.27,12.455C222.723,400.878,214.35,405.058,206.773,405.058z"/>
		</g>
		<g>
			<circle style="fill:#E2394B;" cx="170.094" cy="314.461" r="19.545"/>
			<path style="fill:#241726;" d="M169.111,329.734c-2.391,0-4.703-0.416-6.777-1.305c-6.991-2.995-9.499-10.545-6.881-20.712     c1.715-6.656,4.887-11.321,9.431-13.862c6.387-3.571,13.083-1.576,13.363-1.492c0.646,0.199,1.007,0.883,0.81,1.529     c-0.196,0.647-0.88,1.012-1.527,0.813c-0.06-0.02-6.017-1.769-11.475,1.301c-3.922,2.207-6.691,6.351-8.228,12.321     c-2.32,9.005-0.376,15.346,5.473,17.851c7.499,3.211,19.057-0.917,23.782-8.497c2.277-3.653,2.95-7.179,1.996-10.479     c-1.86-6.44-9.228-10.073-9.302-10.109c-0.609-0.295-0.864-1.029-0.569-1.636c0.294-0.611,1.033-0.861,1.636-0.569     c0.343,0.166,8.43,4.159,10.588,11.635c1.154,3.996,0.39,8.187-2.27,12.455C185.061,325.554,176.688,329.734,169.111,329.734z"/>
		</g>
		<g>
			<circle style="fill:#E2394B;" cx="253.977" cy="319.597" r="19.545"/>
			<path style="fill:#241726;" d="M252.994,334.87c-2.391,0-4.703-0.416-6.776-1.305c-6.992-2.995-9.5-10.545-6.882-20.712     c1.715-6.656,4.887-11.321,9.431-13.862c6.388-3.573,13.083-1.576,13.363-1.491c0.646,0.199,1.007,0.883,0.81,1.529     c-0.195,0.645-0.876,1.012-1.527,0.813c-0.061-0.02-6.016-1.769-11.475,1.301c-3.922,2.207-6.691,6.351-8.228,12.321     c-2.319,9.005-0.376,15.346,5.473,17.851c7.498,3.213,19.057-0.915,23.783-8.497c2.277-3.653,2.948-7.179,1.995-10.48     c-1.86-6.438-9.228-10.072-9.302-10.108c-0.609-0.295-0.864-1.027-0.569-1.636c0.295-0.609,1.032-0.859,1.636-0.569     c0.343,0.166,8.429,4.158,10.589,11.634c1.154,3.997,0.39,8.187-2.27,12.456C268.944,330.69,260.573,334.87,252.994,334.87z"/>
		</g>
		<path style="fill:#FBE998;" d="M385.382,254.833c0,0,10.913-15.407,12.839-14.444c1.926,0.963,6.42,5.136,6.42,5.136    s-9.309,16.37-11.234,16.049C391.481,261.252,385.382,254.833,385.382,254.833z"/>
		<path style="fill:#FBE998;" d="M378.889,312.423c0,0,16.496,9.185,15.747,11.203c-0.749,2.019-4.412,6.937-4.412,6.937    s-17.28-7.485-17.169-9.435S378.889,312.423,378.889,312.423z"/>
		<path style="fill:#FBE998;" d="M337.803,411.713c0,0,16.496,9.185,15.747,11.203c-0.749,2.019-4.412,6.937-4.412,6.937    s-17.28-7.485-17.169-9.435C332.08,418.47,337.803,411.713,337.803,411.713z"/>
		<path style="fill:#FBE998;" d="M259.911,416.849c0,0,16.496,9.185,15.747,11.203c-0.749,2.019-4.412,6.937-4.412,6.937    s-17.28-7.485-17.169-9.435C254.188,423.606,259.911,416.849,259.911,416.849z"/>
		<path style="fill:#FBE998;" d="M210.266,291.88c0,0,16.496,9.185,15.747,11.203c-0.749,2.019-4.412,6.937-4.412,6.937    s-17.28-7.485-17.169-9.435C204.543,298.637,210.266,291.88,210.266,291.88z"/>
		<path style="fill:#FBE998;" d="M166.612,344.949c0,0,16.496,9.185,15.747,11.203c-0.749,2.019-4.412,6.937-4.412,6.937    s-17.28-7.485-17.169-9.435C160.889,351.706,166.612,344.949,166.612,344.949z"/>
		<path style="fill:#FBE998;" d="M348.716,159.314c0,0,16.496,9.185,15.747,11.203c-0.749,2.019-4.412,6.937-4.412,6.937    s-17.28-7.485-17.169-9.435C342.993,166.071,348.716,159.314,348.716,159.314z"/>
		<path style="fill:#FBE998;" d="M330.099,286.423c0,0,16.496,9.185,15.747,11.203c-0.749,2.019-4.412,6.937-4.412,6.937    s-17.28-7.485-17.169-9.435C324.376,293.18,330.099,286.423,330.099,286.423z"/>
		<path style="fill:#FBE998;" d="M276.751,367.451c0,0,11.49-14.982,13.378-13.947c1.888,1.035,6.22,5.375,6.22,5.375    s-9.922,16.005-11.835,15.612C282.602,374.097,276.751,367.451,276.751,367.451z"/>
		<path style="fill:#FBE998;" d="M236.521,368.307c0,0,11.49-14.982,13.378-13.947c1.888,1.035,6.22,5.375,6.22,5.375    s-9.922,16.005-11.835,15.612C242.372,374.953,236.521,368.307,236.521,368.307z"/>
		<path style="fill:#FBE998;" d="M312.353,214.079c0,0-6.214,17.829-8.332,17.438s-7.592-3.155-7.592-3.155    s4.405-18.309,6.345-18.535C304.713,209.602,312.353,214.079,312.353,214.079z"/>
		<g>
			<path style="fill:#241726;" d="M435.468,156.893c-0.36,0-0.716-0.158-0.958-0.46c-1.457-1.825-3.502-4-4.265-4.332     c-0.62-0.27-0.904-0.992-0.634-1.612c0.269-0.621,0.987-0.909,1.612-0.634c1.708,0.744,4.632,4.337,5.201,5.05     c0.422,0.529,0.336,1.3-0.193,1.721C436.005,156.806,435.736,156.893,435.468,156.893z"/>
			<path style="fill:#241726;" d="M444.307,157.174c-0.36,0-0.716-0.158-0.958-0.46c-1.458-1.825-3.502-4.001-4.264-4.332     c-0.621-0.269-0.905-0.992-0.635-1.611c0.268-0.62,0.986-0.91,1.611-0.635c1.708,0.743,4.634,4.337,5.202,5.05     c0.422,0.529,0.336,1.3-0.193,1.721C444.844,157.087,444.575,157.174,444.307,157.174z"/>
			<path style="fill:#241726;" d="M410.168,148.082c-0.231,0-0.465-0.066-0.672-0.202c-1.951-1.283-4.568-2.719-5.395-2.798     c-0.673-0.063-1.167-0.661-1.103-1.335c0.063-0.673,0.648-1.178,1.335-1.103c1.855,0.176,5.748,2.688,6.51,3.19     c0.566,0.372,0.721,1.131,0.349,1.696C410.956,147.888,410.566,148.082,410.168,148.082z"/>
			<path style="fill:#241726;" d="M446.666,169.927c-0.429,0-0.846-0.226-1.07-0.627c-1.139-2.038-2.801-4.518-3.5-4.97     c-0.568-0.367-0.731-1.126-0.364-1.694c0.367-0.568,1.125-0.73,1.694-0.364c1.566,1.013,3.863,5.035,4.308,5.832     c0.33,0.59,0.118,1.336-0.471,1.666C447.073,169.877,446.868,169.927,446.666,169.927z"/>
			<path style="fill:#241726;" d="M455.352,170.099c-0.422,0-0.832-0.218-1.06-0.609c-1.175-2.018-2.878-4.469-3.585-4.909     c-0.574-0.358-0.749-1.114-0.391-1.688c0.358-0.573,1.111-0.749,1.688-0.391c1.58,0.986,3.947,4.967,4.405,5.755     c0.34,0.585,0.142,1.335-0.443,1.674C455.773,170.045,455.561,170.099,455.352,170.099z"/>
			<path style="fill:#241726;" d="M436.789,167.627c-0.36,0-0.716-0.158-0.958-0.46c-1.457-1.825-3.501-4.001-4.264-4.332     c-0.621-0.269-0.905-0.99-0.635-1.611c0.267-0.622,0.986-0.911,1.611-0.635c1.709,0.743,4.634,4.337,5.203,5.05     c0.421,0.53,0.335,1.3-0.194,1.721C437.326,167.54,437.057,167.627,436.789,167.627z"/>
			<path style="fill:#241726;" d="M423.262,152.208c-0.291,0-0.581-0.103-0.815-0.311c-1.744-1.554-4.125-3.354-4.933-3.554     c-0.657-0.161-1.059-0.825-0.896-1.482c0.163-0.657,0.83-1.062,1.482-0.896c1.808,0.446,5.296,3.496,5.977,4.104     c0.505,0.45,0.549,1.224,0.098,1.728C423.935,152.07,423.598,152.208,423.262,152.208z"/>
			<path style="fill:#241726;" d="M429.334,145.77c-0.288,0-0.577-0.1-0.809-0.305c-1.753-1.542-4.148-3.324-4.958-3.518     c-0.658-0.157-1.063-0.818-0.907-1.476c0.158-0.657,0.82-1.061,1.476-0.907c1.812,0.433,5.321,3.459,6.005,4.061     c0.508,0.446,0.557,1.22,0.111,1.728C430.012,145.629,429.673,145.77,429.334,145.77z"/>
			<path style="fill:#241726;" d="M415.16,139.224c-0.251,0-0.505-0.077-0.722-0.237c-1.884-1.38-4.427-2.944-5.25-3.064     c-0.67-0.098-1.133-0.72-1.035-1.389c0.097-0.669,0.714-1.143,1.389-1.035c1.844,0.269,5.607,2.972,6.343,3.512     c0.545,0.399,0.664,1.166,0.264,1.712C415.909,139.05,415.537,139.224,415.16,139.224z"/>
			<path style="fill:#241726;" d="M405.247,140.543c-0.251,0-0.505-0.077-0.722-0.237c-1.884-1.38-4.427-2.945-5.251-3.066     c-0.669-0.098-1.131-0.72-1.033-1.39c0.098-0.67,0.696-1.147,1.39-1.033c1.843,0.27,5.606,2.973,6.342,3.513     c0.545,0.399,0.664,1.166,0.264,1.712C405.996,140.37,405.624,140.543,405.247,140.543z"/>
			<path style="fill:#241726;" d="M401.938,132.77c-0.251,0-0.505-0.077-0.722-0.237c-1.884-1.38-4.425-2.945-5.248-3.066     c-0.67-0.098-1.133-0.72-1.035-1.389c0.097-0.67,0.721-1.147,1.389-1.035c1.844,0.269,5.607,2.973,6.343,3.513     c0.545,0.401,0.663,1.166,0.263,1.712C402.686,132.596,402.314,132.77,401.938,132.77z"/>
			<path style="fill:#241726;" d="M423.104,159.887c-0.251,0-0.505-0.077-0.722-0.237c-1.884-1.38-4.427-2.945-5.248-3.066     c-0.67-0.098-1.133-0.72-1.035-1.389c0.097-0.67,0.715-1.141,1.389-1.035c1.843,0.269,5.606,2.973,6.342,3.513     c0.547,0.401,0.664,1.166,0.264,1.712C423.853,159.714,423.481,159.887,423.104,159.887z"/>
		</g>
		<g>
			<path style="fill:#241726;" d="M492.489,316.964c-0.208,0-0.42-0.053-0.612-0.165c-0.586-0.338-0.785-1.088-0.446-1.673     c1.17-2.021,2.453-4.716,2.484-5.547c0.025-0.676,0.531-1.261,1.27-1.177c0.676,0.025,1.203,0.593,1.177,1.27     c-0.069,1.861-2.355,5.893-2.812,6.681C493.322,316.745,492.911,316.964,492.489,316.964z"/>
			<path style="fill:#241726;" d="M495.442,325.299c-0.208,0-0.42-0.053-0.612-0.165c-0.585-0.338-0.785-1.088-0.446-1.673     c1.17-2.021,2.452-4.716,2.484-5.547c0.026-0.676,0.649-1.222,1.27-1.177c0.676,0.025,1.203,0.594,1.177,1.27     c-0.071,1.861-2.355,5.892-2.812,6.681C496.275,325.08,495.864,325.299,495.442,325.299z"/>
			<path style="fill:#241726;" d="M491.499,290.193c-0.085,0-0.17-0.008-0.256-0.027c-0.661-0.14-1.084-0.791-0.944-1.452     c0.487-2.285,0.872-5.245,0.645-6.045c-0.184-0.651,0.193-1.328,0.844-1.512c0.641-0.188,1.326,0.193,1.512,0.844     c0.508,1.791-0.415,6.331-0.605,7.222C492.574,289.8,492.065,290.193,491.499,290.193z"/>
			<path style="fill:#241726;" d="M484.42,332.135c-0.274,0-0.549-0.092-0.777-0.28c-0.521-0.429-0.597-1.201-0.166-1.724     c1.483-1.802,3.189-4.253,3.356-5.069c0.136-0.661,0.771-1.084,1.446-0.953c0.663,0.136,1.09,0.783,0.953,1.446     c-0.374,1.825-3.286,5.43-3.866,6.133C485.124,331.983,484.774,332.135,484.42,332.135z"/>
			<path style="fill:#241726;" d="M487.417,340.288c-0.267,0-0.536-0.087-0.761-0.267c-0.53-0.421-0.617-1.191-0.196-1.72     c1.453-1.829,3.117-4.307,3.269-5.124c0.126-0.665,0.767-1.086,1.429-0.98c0.665,0.124,1.104,0.764,0.98,1.429     c-0.343,1.831-3.194,5.485-3.762,6.199C488.135,340.13,487.779,340.288,487.417,340.288z"/>
			<path style="fill:#241726;" d="M482.97,322.096c-0.208,0-0.42-0.053-0.612-0.165c-0.586-0.339-0.785-1.088-0.446-1.673     c1.17-2.021,2.453-4.716,2.485-5.547c0.026-0.677,0.658-1.231,1.27-1.177c0.676,0.025,1.203,0.594,1.177,1.27     c-0.071,1.862-2.356,5.893-2.813,6.681C483.804,321.877,483.393,322.096,482.97,322.096z"/>
			<path style="fill:#241726;" d="M492.416,303.891c-0.142,0-0.286-0.024-0.427-0.077c-0.634-0.236-0.957-0.941-0.721-1.575     c0.813-2.189,1.624-5.062,1.517-5.887c-0.089-0.67,0.384-1.286,1.055-1.373c0.67-0.098,1.286,0.384,1.373,1.055     c0.243,1.847-1.33,6.204-1.648,7.059C493.38,303.586,492.912,303.891,492.416,303.891z"/>
			<path style="fill:#241726;" d="M500.621,307.205c-0.139,0-0.28-0.024-0.419-0.074c-0.635-0.231-0.964-0.933-0.732-1.569     c0.798-2.195,1.587-5.073,1.474-5.897c-0.093-0.67,0.374-1.289,1.044-1.381c0.661-0.109,1.288,0.374,1.381,1.044     c0.256,1.846-1.286,6.215-1.598,7.071C501.591,306.896,501.121,307.205,500.621,307.205z"/>
			<path style="fill:#241726;" d="M501.566,291.621c-0.105,0-0.211-0.013-0.317-0.042c-0.653-0.173-1.042-0.844-0.867-1.499     c0.6-2.256,1.133-5.192,0.945-6.003c-0.152-0.659,0.26-1.317,0.919-1.469c0.66-0.148,1.316,0.26,1.469,0.919     c0.419,1.816-0.731,6.303-0.966,7.185C502.601,291.26,502.106,291.621,501.566,291.621z"/>
			<path style="fill:#241726;" d="M496.732,282.867c-0.105,0-0.211-0.013-0.316-0.042c-0.654-0.173-1.043-0.844-0.87-1.497     c0.602-2.257,1.134-5.195,0.946-6.005c-0.152-0.659,0.26-1.317,0.919-1.469c0.658-0.153,1.316,0.26,1.469,0.919     c0.419,1.816-0.731,6.305-0.965,7.186C497.768,282.506,497.273,282.867,496.732,282.867z"/>
			<path style="fill:#241726;" d="M502.77,276.958c-0.105,0-0.211-0.013-0.317-0.042c-0.653-0.173-1.042-0.844-0.867-1.499     c0.6-2.256,1.133-5.192,0.945-6.003c-0.152-0.659,0.26-1.317,0.919-1.469c0.659-0.147,1.316,0.26,1.469,0.919     c0.419,1.816-0.731,6.303-0.966,7.185C503.806,276.596,503.311,276.958,502.77,276.958z"/>
			<path style="fill:#241726;" d="M485.207,306.536c-0.105,0-0.211-0.013-0.317-0.042c-0.653-0.173-1.042-0.844-0.867-1.499     c0.6-2.256,1.133-5.193,0.946-6.003c-0.152-0.659,0.26-1.317,0.919-1.469c0.666-0.153,1.318,0.26,1.469,0.919     c0.417,1.816-0.732,6.303-0.968,7.185C486.243,306.175,485.748,306.536,485.207,306.536z"/>
		</g>
		<g>
			<path style="fill:#241726;" d="M325.422,474.153c-2.087,0-5.596-1.005-6.362-1.231c-0.648-0.193-1.018-0.874-0.827-1.523     c0.193-0.647,0.873-1.019,1.523-0.827c2.237,0.664,5.15,1.265,5.976,1.112c0.664-0.135,1.309,0.295,1.442,0.959     c0.134,0.663-0.295,1.309-0.959,1.442C325.988,474.132,325.719,474.153,325.422,474.153z"/>
			<path style="fill:#241726;" d="M318.014,478.98c-2.087,0-5.596-1.005-6.362-1.231c-0.648-0.193-1.018-0.874-0.826-1.523     c0.194-0.647,0.874-1.02,1.523-0.826c2.238,0.663,5.156,1.265,5.976,1.112c0.658-0.138,1.309,0.295,1.442,0.959     c0.134,0.663-0.295,1.309-0.959,1.442C318.58,478.96,318.311,478.98,318.014,478.98z"/>
			<path style="fill:#241726;" d="M345.197,465.724c-0.66,0-1.206-0.526-1.224-1.191c-0.018-0.677,0.516-1.239,1.191-1.258     c2.335-0.063,5.302-0.384,6.027-0.793c0.59-0.336,1.336-0.123,1.669,0.465c0.332,0.59,0.124,1.336-0.465,1.669     c-1.623,0.915-6.252,1.084-7.163,1.109C345.22,465.724,345.209,465.724,345.197,465.724z"/>
			<path style="fill:#241726;" d="M309.01,470.886c-1.903,0-5.97-1.927-6.777-2.319c-0.609-0.295-0.862-1.027-0.567-1.636     c0.294-0.61,1.03-0.864,1.636-0.567c2.103,1.02,4.899,2.088,5.714,2.073c0.724-0.038,1.243,0.505,1.267,1.181     c0.024,0.677-0.505,1.244-1.181,1.267C309.072,470.885,309.041,470.886,309.01,470.886z"/>
			<path style="fill:#241726;" d="M301.796,475.608c-1.926,0-5.96-1.829-6.767-2.203c-0.612-0.286-0.879-1.014-0.594-1.627     c0.286-0.614,1.017-0.882,1.627-0.596c2.119,0.984,4.917,1.997,5.75,1.975c0.647-0.057,1.251,0.483,1.287,1.16     c0.035,0.675-0.484,1.251-1.16,1.287C301.892,475.607,301.844,475.608,301.796,475.608z"/>
			<path style="fill:#241726;" d="M318.199,466.106c-2.087,0-5.596-1.005-6.362-1.231c-0.648-0.193-1.018-0.874-0.826-1.523     c0.193-0.647,0.877-1.023,1.523-0.827c2.237,0.663,5.154,1.264,5.976,1.112c0.658-0.135,1.309,0.297,1.442,0.959     c0.134,0.663-0.295,1.309-0.959,1.442C318.765,466.085,318.496,466.106,318.199,466.106z"/>
			<path style="fill:#241726;" d="M336.317,470.109c-1.835,0-3.805-0.219-4.364-0.286c-0.671-0.081-1.151-0.69-1.07-1.362     c0.083-0.67,0.669-1.154,1.362-1.07c2.316,0.277,5.299,0.391,6.077,0.093c0.629-0.246,1.34,0.069,1.582,0.702     c0.244,0.63-0.071,1.34-0.702,1.582C338.539,470.025,337.454,470.109,336.317,470.109z"/>
			<path style="fill:#241726;" d="M334.862,478.833c-1.785,0-3.653-0.194-4.195-0.255c-0.672-0.077-1.157-0.682-1.081-1.354     s0.693-1.158,1.354-1.081c2.322,0.261,5.305,0.355,6.078,0.049c0.628-0.246,1.341,0.061,1.588,0.691     c0.248,0.629-0.062,1.341-0.691,1.588C337.219,478.746,336.059,478.833,334.862,478.833z"/>
			<path style="fill:#241726;" d="M347.105,475.854c-0.437,0-0.775-0.006-0.96-0.01c-0.676-0.017-1.212-0.578-1.196-1.253     c0.016-0.676,0.53-1.206,1.253-1.196c2.328,0.055,5.314-0.118,6.058-0.489c0.604-0.303,1.342-0.056,1.643,0.548     c0.303,0.605,0.057,1.341-0.548,1.643C352.027,475.76,348.816,475.854,347.105,475.854z"/>
			<path style="fill:#241726;" d="M354.48,469.101c-0.437,0-0.775-0.006-0.96-0.01c-0.676-0.017-1.212-0.578-1.196-1.253     c0.016-0.676,0.562-1.186,1.253-1.196c2.328,0.059,5.314-0.118,6.058-0.489c0.605-0.3,1.341-0.057,1.643,0.548     c0.303,0.605,0.057,1.341-0.548,1.643C359.403,469.007,356.191,469.101,354.48,469.101z"/>
			<path style="fill:#241726;" d="M361.642,473.582c-0.437,0-0.775-0.006-0.96-0.01c-0.676-0.017-1.212-0.578-1.196-1.253     c0.016-0.676,0.554-1.207,1.253-1.196c2.322,0.057,5.313-0.118,6.058-0.489c0.605-0.299,1.342-0.057,1.643,0.548     c0.303,0.605,0.057,1.341-0.548,1.643C366.564,473.489,363.353,473.582,361.642,473.582z"/>
			<path style="fill:#241726;" d="M328.767,463.454c-0.438,0-0.776-0.006-0.962-0.01c-0.676-0.017-1.212-0.578-1.196-1.254     c0.016-0.676,0.519-1.179,1.253-1.196c2.329,0.055,5.315-0.118,6.059-0.489c0.604-0.301,1.341-0.057,1.643,0.548     c0.303,0.605,0.057,1.341-0.548,1.643C333.689,463.361,330.478,463.454,328.767,463.454z"/>
		</g>
		<g>
			<path style="fill:#241726;" d="M125.089,368.115c-0.352,0-0.7-0.15-0.943-0.44c-1.192-1.432-2.191-5.956-2.379-6.849     c-0.14-0.661,0.283-1.311,0.946-1.451c0.665-0.142,1.312,0.285,1.451,0.946c0.482,2.285,1.331,5.146,1.865,5.784     c0.433,0.52,0.362,1.293-0.157,1.726C125.642,368.022,125.365,368.115,125.089,368.115z"/>
			<path style="fill:#241726;" d="M117.318,363.895c-0.352,0-0.7-0.15-0.943-0.44c-1.192-1.432-2.191-5.956-2.379-6.849     c-0.14-0.661,0.283-1.311,0.946-1.451c0.655-0.142,1.31,0.285,1.451,0.946c0.482,2.284,1.331,5.146,1.865,5.784     c0.433,0.52,0.362,1.293-0.157,1.726C117.872,363.802,117.594,363.895,117.318,363.895z"/>
			<path style="fill:#241726;" d="M145.585,386.38c-0.222,0-0.449-0.061-0.651-0.188c-1.578-0.993-3.928-4.984-4.382-5.775     c-0.338-0.586-0.136-1.335,0.45-1.672c0.587-0.34,1.335-0.136,1.672,0.45c1.166,2.023,2.861,4.48,3.564,4.923     c0.573,0.36,0.745,1.117,0.385,1.689C146.39,386.178,145.991,386.38,145.585,386.38z"/>
			<path style="fill:#241726;" d="M119.877,351.702c-0.42,0-0.829-0.216-1.057-0.604c-0.944-1.608-1.191-6.234-1.231-7.145     c-0.03-0.676,0.494-1.247,1.17-1.277c0.684-0.054,1.249,0.495,1.277,1.17c0.103,2.332,0.475,5.295,0.896,6.011     c0.342,0.584,0.147,1.335-0.435,1.677C120.302,351.649,120.088,351.702,119.877,351.702z"/>
			<path style="fill:#241726;" d="M112.306,347.629c-0.413,0-0.816-0.208-1.047-0.587c-0.971-1.59-1.297-6.212-1.352-7.123     c-0.041-0.675,0.472-1.256,1.148-1.297c0.688-0.011,1.256,0.472,1.297,1.148c0.142,2.33,0.565,5.285,0.998,5.996     c0.353,0.577,0.17,1.331-0.408,1.683C112.744,347.571,112.524,347.629,112.306,347.629z"/>
			<path style="fill:#241726;" d="M128.73,357.933c-0.352,0-0.7-0.15-0.943-0.44c-1.192-1.432-2.192-5.956-2.38-6.85     c-0.14-0.661,0.283-1.311,0.946-1.451c0.659-0.136,1.311,0.283,1.451,0.946c0.482,2.284,1.332,5.147,1.866,5.785     c0.433,0.52,0.362,1.293-0.157,1.726C129.283,357.84,129.006,357.933,128.73,357.933z"/>
			<path style="fill:#241726;" d="M134.92,377.336c-0.282,0-0.565-0.097-0.795-0.293c-1.417-1.21-3.162-5.503-3.497-6.351     c-0.249-0.629,0.059-1.341,0.688-1.59c0.627-0.249,1.341,0.057,1.59,0.688c0.86,2.172,2.178,4.85,2.811,5.389     c0.514,0.44,0.575,1.213,0.136,1.727C135.609,377.19,135.266,377.336,134.92,377.336z"/>
			<path style="fill:#241726;" d="M126.646,380.339c-0.279,0-0.559-0.095-0.788-0.288c-1.425-1.201-3.202-5.478-3.543-6.324     c-0.254-0.627,0.049-1.341,0.676-1.594c0.63-0.256,1.341,0.049,1.594,0.676c0.876,2.165,2.215,4.833,2.851,5.369     c0.517,0.437,0.582,1.209,0.147,1.726C127.341,380.191,126.995,380.339,126.646,380.339z"/>
			<path style="fill:#241726;" d="M136.875,392.246c-0.243,0-0.488-0.072-0.702-0.221c-1.525-1.069-3.674-5.175-4.089-5.988     c-0.307-0.602-0.069-1.34,0.533-1.648c0.599-0.307,1.34-0.069,1.648,0.533c1.063,2.079,2.633,4.618,3.314,5.095     c0.554,0.389,0.688,1.152,0.3,1.707C137.64,392.064,137.261,392.246,136.875,392.246z"/>
			<path style="fill:#241726;" d="M146.324,395.519c-0.243,0-0.488-0.072-0.702-0.222c-1.526-1.069-3.673-5.174-4.088-5.986     c-0.307-0.603-0.069-1.34,0.533-1.648c0.603-0.305,1.342-0.066,1.648,0.533c1.063,2.079,2.631,4.618,3.313,5.096     c0.554,0.388,0.688,1.152,0.299,1.706C147.089,395.338,146.71,395.519,146.324,395.519z"/>
			<path style="fill:#241726;" d="M145.789,403.951c-0.243,0-0.488-0.072-0.702-0.221c-1.525-1.069-3.673-5.175-4.088-5.988     c-0.307-0.603-0.069-1.34,0.533-1.648c0.604-0.306,1.342-0.068,1.648,0.533c1.062,2.079,2.631,4.618,3.313,5.095     c0.554,0.389,0.688,1.152,0.3,1.707C146.555,403.769,146.175,403.951,145.789,403.951z"/>
			<path style="fill:#241726;" d="M139.054,370.216c-0.243,0-0.488-0.072-0.702-0.222c-1.526-1.069-3.673-5.174-4.088-5.986     c-0.307-0.603-0.069-1.34,0.533-1.648c0.604-0.306,1.341-0.067,1.648,0.533c1.063,2.079,2.631,4.618,3.313,5.096     c0.554,0.388,0.688,1.152,0.299,1.706C139.82,370.035,139.44,370.216,139.054,370.216z"/>
		</g>
	</g>
</g>















</svg>
