<?xml version="1.0" encoding="UTF-8"?>
<!-- Generator: Adobe Illustrator 25.2.0, SVG Export Plug-In . SVG Version: 6.00 Build 0)  -->
<svg xmlns="http://www.w3.org/2000/svg" xmlns:xlink="http://www.w3.org/1999/xlink" version="1.1" id="Capa_1" x="0px" y="0px" viewBox="0 0 512 512" style="enable-background:new 0 0 512 512;" xml:space="preserve" width="512" height="512">
<g>
	<path style="fill:#EF9B65;" d="M7.818,403.965c0,0-40.979-318.469,180.943-345.302C349.472,39.23,470.396,201.062,460.902,210.555   C451.409,220.049,1.489,422.951,7.818,403.965z"/>
	<g>
		<path style="fill:#A6B470;" d="M58.961,440.899c0,0-45.061,5.569-52.973-14.999s18.987-49.049,22.151-37.973    S9.153,433.81,2.824,392.673s9.493-94.933,31.644-79.111s11.076,52.213-4.747,33.227c-15.822-18.987-33.227-74.364,4.747-74.364    s68.035,22.151,34.809,17.404c-33.227-4.747-42.72-68.035-12.658-69.617s49.049,12.658,28.48,14.24s-53.795-44.302-12.658-60.124    s56.96,12.658,39.555,11.076s-15.822-64.871,17.404-53.795c33.227,11.076,20.569,25.315,14.24,20.569    c-6.329-4.747-11.076-53.795,22.151-47.466s42.72,30.062,25.315,23.733c-17.404-6.329-4.747-64.871,30.062-45.884    s30.062,42.72,20.569,31.644c-9.493-11.076,4.189-74.749,56.403-39.941s-12.101,54.181,0.557,41.523    c12.658-12.658,47.466-58.542,66.453-22.151c18.987,36.391-31.644,56.96-25.315,42.72c6.329-14.24,56.96-45.884,69.617-17.404    c12.658,28.48-6.329,56.96-11.076,37.973s20.569-39.555,36.391-12.658c15.822,26.898-20.569,37.973-17.404,26.898    c3.164-11.076,47.466-58.542,55.378-7.911s-34.809,66.453-31.644,49.049s47.466-42.72,60.124-12.658s-12.658,50.631-23.733,37.973    "/>
		<path style="fill:#241726;" d="M45.69,443.03c-14.313,0-35.586-2.489-41.022-16.622c-2.385-6.205-1.786-13.211,0.491-19.767    c-1.596-3.381-2.844-7.972-3.733-13.752c-4.285-27.858,1.461-60.48,12.134-75.328c-3.683-12.464-4.815-25.505-0.583-34.542    c3.73-7.968,10.961-12.009,21.488-12.009c3.114,0,6.201,0.149,9.213,0.424c-4.605-8.534-6.971-18.678-6.549-28.117    c0.657-14.746,7.916-23.911,19.412-24.517c0.605-0.032,1.209-0.057,1.808-0.076c-2.888-4.26-5.088-8.983-6.168-13.765    c-1.888-8.37-1.836-23.65,19.749-31.952c11.345-4.362,20.699-5.374,28.026-4.674c-1.4-11.655,1.237-25.932,8.763-33.719    c5.447-5.636,12.755-7.138,21.127-4.347c2.982,0.994,5.583,2.006,7.849,3.019c0.025-6.045,0.986-12.432,3.291-17.652    c3.175-7.189,10.105-15.155,25.069-12.312c6.22,1.184,11.56,2.927,16.06,4.95c0.964-10.238,5.734-21.545,14.07-27.223    c5.102-3.48,13.697-6.255,25.657,0.269c7.049,3.843,12.546,7.929,16.74,11.924c1.516-7.264,4.743-14.895,9.986-20.813    c6.85-7.726,22.499-17.914,50.354,0.657c11.414,7.609,17.14,14.427,19.669,20.167c9.558-8.639,20.55-15.946,30.641-14.633    c6.897,0.91,12.673,5.741,17.17,14.36c3.437,6.586,4.597,12.544,4.401,17.78c6.786-2.876,13.741-4.724,19.917-4.724    c9.511-0.001,16.433,4.266,20.022,12.339c1.756,3.954,2.924,7.896,3.614,11.713c8.001-1.122,15.864,3.667,21.626,13.46    c0.525,0.89,0.991,1.76,1.405,2.61c6.231-4.475,13.026-7.583,19.086-7.202c9.313,0.574,15.254,8.675,17.662,24.077    c1.264,8.088,1.242,15.367,0.306,21.811c0.834-0.15,1.665-0.272,2.49-0.362c11.999-1.307,21.069,3.875,25.588,14.612    c7.841,18.622,1.657,34.797-8.504,41.152c-6.325,3.956-13.233,3.287-17.595-1.701c-0.516-0.587-0.456-1.48,0.133-1.995    c0.585-0.512,1.477-0.458,1.993,0.134c3.454,3.944,8.807,4.39,13.97,1.164c9.147-5.719,14.625-20.49,7.397-37.658    c-5.119-12.158-15.166-13.718-22.673-12.899c-1.102,0.121-2.206,0.297-3.305,0.523c-2.88,14.666-10.577,24.601-18.137,29.414    c-5.365,3.418-10.621,4.244-13.719,2.159c-1.237-0.831-3.189-2.889-2.38-7.34c1.922-10.561,17.01-22.74,31.787-26.553    c1.049-6.429,1.143-13.78-0.146-22.025c-2.173-13.912-7.234-21.209-15.042-21.691c-5.486-0.331-11.842,2.736-17.742,7.091    c4.335,11.527-1.173,18.937-4.056,21.818c-5.088,5.087-12.921,7.572-16.731,5.324c-1.778-1.045-2.424-2.954-1.77-5.237    c1.345-4.71,9.343-15.22,19.081-22.883c-0.436-0.94-0.947-1.911-1.535-2.911c-5.191-8.817-11.836-13.067-18.769-12.1    c1.543,12.486-1.869,23.294-5.98,28.305c-2.079,2.536-4.404,3.675-6.554,3.189c-1.676-0.375-3.943-1.913-5.243-7.109    c-2.584-10.337,3.258-21.996,13.023-25.991c0.514-0.211,1.03-0.398,1.546-0.558c-0.641-3.655-1.739-7.427-3.413-11.193    c-3.145-7.074-9.012-10.661-17.438-10.66c-6.378,0-13.443,2.027-20.21,5.07c-1.599,10.919-8.929,18.21-12.06,20.871    c-7.234,6.151-15.842,9.112-19.202,6.61c-0.9-0.674-2.189-2.301-0.707-5.635c3.117-7.017,15.63-17.292,29.401-23.744    c0.433-5.131-0.563-11.07-4.048-17.747c-4.045-7.755-9.103-12.083-15.033-12.865c-9.365-1.237-19.962,6.15-29.235,14.702    c0.922,3.297,0.798,6.167,0.204,8.542c-2.457,9.837-14.042,15.799-19.84,16.374c-2.717,0.268-3.777-0.675-4.175-1.516    c-0.919-1.942,1.187-4.049,1.88-4.741c1.543-1.543,3.418-3.586,5.555-5.913c3.691-4.017,8.208-8.933,13.186-13.631    c-2.399-6.27-8.805-12.952-19.084-19.804c-24.774-16.517-39.051-9.731-46.668-1.135c-5.204,5.871-8.355,13.998-9.649,21.423    c6.913,7.449,9.351,14.325,8.956,18.386c-0.21,2.158-1.223,3.678-2.777,4.169c-1.138,0.358-3.487,0.418-6.554-3.16    c-2.75-3.21-3.791-10.402-2.667-18.495c-4.152-4.227-9.879-8.668-17.504-12.827c-8.598-4.689-16.234-4.826-22.714-0.416    c-7.918,5.396-12.317,16.44-12.943,26.194c9.655,4.961,14.801,11.149,15.953,15.124c0.806,2.787-0.254,4.308-0.961,4.968    c-1.209,1.131-3.794,2.068-9.202,0.099c-4.561-1.658-7.557-6.434-8.435-13.448c-0.196-1.575-0.279-3.234-0.248-4.948    c-4.58-2.185-10.072-4.068-16.414-5.276c-10.549-2.017-17.938,1.583-21.952,10.677c-2.377,5.382-3.147,11.94-3.001,17.887    c9.782,5.015,11.897,9.902,12.165,12.736c0.251,2.642-0.983,5.064-3.219,6.318c-2.181,1.224-4.757,1.067-6.728-0.41    c-2.604-1.951-4.619-8.849-5.019-16.871c-2.427-1.153-5.334-2.326-8.818-3.488c-7.369-2.453-13.495-1.236-18.2,3.631    c-6.919,7.162-9.384,21.073-7.891,32.141c7.408,1.26,12.386,4.325,14.892,7.079c2.468,2.714,3.269,5.69,2.14,7.961    c-0.674,1.351-2.612,3.555-8.026,3.051c-4.188-0.381-7.692-3.817-9.87-9.674c-0.676-1.822-1.215-3.829-1.61-5.961    c-6.993-0.791-16.127,0.119-27.441,4.471c-14.528,5.587-20.922,15.776-18.007,28.69c1.124,4.986,3.62,9.964,6.866,14.343    c18.449,0.131,32.943,6.059,33.308,11.664c0.138,2.159-1.466,4.869-9.909,5.518c-8.103,0.621-17.888-5.551-24.821-14.355    c-1.204,0.014-2.435,0.052-3.694,0.119c-9.892,0.52-16.151,8.678-16.737,21.82c-0.431,9.6,2.159,19.968,7.12,28.353    c19.13,2.356,34.843,9.509,37.482,14.625c0.839,1.63,0.304,2.804-0.091,3.359c-0.585,0.817-2.352,3.308-15.389,1.448    c-9.964-1.423-18.079-8.003-23.645-16.797c-3.512-0.38-7.181-0.594-10.966-0.594c-9.335,0-15.704,3.493-18.929,10.38    c-3.647,7.79-2.855,19.281,0.224,30.616c1.317-1.443,2.697-2.623,4.133-3.506c4.879-3.004,10.204-2.621,15.395,1.085    c11.093,7.925,14.332,20.867,12.617,30.177c-1.055,5.732-3.929,9.743-7.695,10.73c-2.576,0.671-6.681,0.25-11.577-5.625    c-5.171-6.205-10.442-16.096-14.003-26.729c-9.373,14.845-14.376,45.714-10.411,71.493c0.687,4.467,1.538,7.852,2.449,10.416    c1.902-4.186,4.423-8.069,7.189-11.288c4.594-5.345,9.208-8.125,12.352-7.442c1.126,0.247,2.612,1.037,3.286,3.395    c1.634,5.715-2.659,16.927-8.664,22.635c-3.205,3.044-6.48,4.118-9.453,3.102c-1.596-0.544-3.029-1.672-4.302-3.374    c-1.447,5.253-1.629,10.664,0.229,15.49c7.43,19.318,51.039,14.158,51.48,14.104c0.787-0.104,1.48,0.454,1.576,1.229    c0.097,0.776-0.456,1.481-1.229,1.576C58.498,442.38,53.001,443.03,45.69,443.03z M8.222,406.432    c1.51,2.777,3.015,3.807,4.072,4.168c2.408,0.827,4.92-0.888,6.59-2.475c5.182-4.924,9.238-15.106,7.896-19.811    c-0.353-1.229-0.95-1.36-1.173-1.409c-1.629-0.352-5.315,1.532-9.605,6.524C12.871,397.073,10.066,401.611,8.222,406.432z     M16.698,318.048c3.393,10.954,8.758,21.412,14.108,27.834c3.078,3.693,6.168,5.363,8.691,4.701c2.634-0.69,4.793-3.95,5.63-8.506    c1.552-8.43-1.397-20.162-11.483-27.365c-4.252-3.036-8.379-3.367-12.267-0.977C19.738,314.743,18.175,316.204,16.698,318.048z     M49.081,274.891c5.061,7.138,12.021,12.343,20.395,13.538c11.414,1.628,12.695-0.284,12.7-0.305    c0.011-0.052-0.033-0.369-0.486-0.941C78.794,283.515,66.107,277.347,49.081,274.891z M64.111,221.544    c6.204,7.122,14.244,12.02,20.881,11.498c5.45-0.42,7.352-1.734,7.303-2.517C92.113,227.723,81.246,222.1,64.111,221.544z     M470.904,188.565c-14.039,4.039-26.891,15.596-28.415,23.988c-0.273,1.503-0.293,3.502,1.173,4.488    c1.739,1.171,5.701,0.94,10.624-2.196C461.103,210.505,468.024,201.652,470.904,188.565z M103.363,171.635    c0.34,1.604,0.768,3.12,1.287,4.515c1.03,2.769,3.368,7.471,7.474,7.844c2.717,0.254,4.652-0.315,5.24-1.494    c0.583-1.169-0.069-3.008-1.701-4.8C113.557,175.383,109.46,172.844,103.363,171.635z M436.216,150.686    c-8.904,7.207-16.328,16.791-17.493,20.864c-0.425,1.49,0.213,1.865,0.486,2.025c2.109,1.24,8.487-0.075,13.299-4.887    C435.459,165.739,439.316,159.818,436.216,150.686z M411.986,133.556c-0.295,0.102-0.591,0.214-0.889,0.334    c-8.515,3.484-13.606,13.662-11.347,22.691c0.729,2.92,1.866,4.756,3.117,5.036c1.035,0.232,2.402-0.578,3.752-2.223    C410.23,154.986,413.297,145.033,411.986,133.556z M140.752,137.969c0.544,6.59,2.156,11.891,3.736,13.076    c1.264,0.948,2.717,0.729,3.65,0.206c1.267-0.711,1.935-2.05,1.789-3.586C149.797,146.296,148.673,142.406,140.752,137.969z     M367.446,115.392c-12.736,6.376-23.821,15.917-26.317,21.537c-0.237,0.533-0.729,1.814-0.182,2.223    c1.507,1.118,8.603-0.485,15.677-6.499C359.995,129.786,365.616,123.902,367.446,115.392z M184.767,112.821    c0.025,1.081,0.102,2.134,0.229,3.149c0.428,3.422,1.855,9.42,6.596,11.144c3.617,1.316,5.635,1.121,6.306,0.491    c0.538-0.504,0.34-1.542,0.174-2.116C197.089,122.09,192.517,117.076,184.767,112.821z M298.525,118.247    c2.225,0.479,12.007-2.569,16.728-10.039c1.977-3.124,2.65-6.434,2.049-9.887c-4.486,4.325-8.584,8.785-11.966,12.464    c-2.167,2.362-4.072,4.433-5.638,5.999C298.978,117.504,298.663,117.98,298.525,118.247z M240.543,99.416    c-0.588,6.191,0.213,11.468,2.269,13.868c1.817,2.12,3.089,2.461,3.556,2.303c0.409-0.13,0.721-0.799,0.814-1.746    C247.481,110.744,245.615,105.424,240.543,99.416z"/>
	</g>
	<path style="fill:#AC2E2D;" d="M53.812,419.468c0,0-25.048-17.341-10.597-63.583s37.655-42.553,29.865-84.778   s12.524-90.558,54.913-104.046s33.718-56.84,78.998-61.657c45.279-4.817,54.507,29.45,100.563,15.216   c46.056-14.234,68.993-10.4,81.517,20.429c12.524,30.828,64.547,19.268,77.071,53.95c12.524,34.682,14.451,46.242-0.963,66.474   C449.764,281.704,53.812,419.468,53.812,419.468z"/>
	<path style="fill:#F3BB89;" d="M46.303,453.556c0,0,31.644-310.114,193.03-322.772c161.386-12.658,281.634,142.399,272.141,151.893   S39.974,472.543,46.303,453.556z"/>
	<path style="fill:#F9DD96;" d="M50.522,371.028c-29.205,0-31.378-16.564-31.455-17.27l11.24-1.248l-0.039-0.26   c0.566,2.583,5.527,7.468,20.254,7.468c0.387,0,0.665-0.026,0.856-0.057c0.652-3.574-4.426-15.443-7.507-22.647   c-6.543-15.298-13.31-31.117-8.711-41.791c1.728-4.01,4.953-6.982,9.329-8.593c10.759-3.963,20.006-2.935,27.444-2.105   c11.775,1.32,16.646,1.858,22.145-16.012c4.348-14.133-1.797-27.061-7.217-38.467c-6.477-13.633-14.542-30.602,7.46-41.125   c17.231-8.241,25.851-5.011,32.148-2.652c5.196,1.949,8.067,3.027,18.211-5.993c8.523-7.577,7.361-15.678,5.889-25.935   c-1.977-13.772-4.437-30.91,22.769-43.003c23.305-10.352,34.498,2.214,42.678,11.39c7.7,8.64,12.573,13.379,23.25,10.126   c10.828-3.295,16.298-10.948,22.09-19.05c8.898-12.448,18.984-26.548,48.082-16.226c26.858,9.529,34.081,24.862,39.352,36.058   c3.763,7.989,5.359,10.625,9.876,11.27c5.312,0.761,10.171-2.906,15.773-7.156c9.241-7.014,21.894-16.624,39.934-2.588   c12.206,9.492,11.342,24.757,10.646,37.021c-0.414,7.316-0.842,14.883,2.021,17.121c1.734,1.357,7.032,2.896,22.987-2.043   c2.976-0.926,6.149,0.744,7.074,3.73c0.925,2.983-0.745,6.15-3.727,7.074c-16.599,5.137-26.867,5.181-33.3,0.149   c-7.524-5.882-6.924-16.45-6.345-26.669c0.602-10.621,1.223-21.606-6.298-27.456c-11.179-8.694-17.137-4.175-26.157,2.671   c-6.657,5.051-14.216,10.763-24.211,9.343c-10.928-1.561-14.779-9.739-18.504-17.646c-4.917-10.436-10.486-22.266-32.905-30.22   c-21.074-7.477-26.651,0.329-35.1,12.145c-6.325,8.849-13.495,18.879-27.999,23.294c-18.114,5.514-27.466-4.985-34.984-13.421   c-8.062-9.046-13.887-15.584-29.641-8.581c-19.393,8.618-18.04,18.033-16.171,31.062c1.56,10.861,3.501,24.378-9.567,35.993   c-14.15,12.572-21.229,11.302-29.694,8.131c-5.351-2.004-10.403-3.903-23.299,2.264c-10.737,5.134-9.989,9.524-2.126,26.07   c5.994,12.612,13.451,28.306,7.808,46.646c-7.656,24.894-18.998,25.624-34.205,23.926c-6.902-0.772-14.031-1.565-22.281,1.476   c-1.88,0.693-2.496,1.632-2.852,2.457c-2.678,6.215,3.909,21.621,8.722,32.869c6.3,14.734,11.278,26.37,6.499,33.612   C59.31,368.391,56.348,371.028,50.522,371.028z"/>
	<g>
		<path style="fill:#241726;" d="M113.725,111.637c-0.265,0-0.53-0.073-0.768-0.228c-0.657-0.424-0.842-1.299-0.42-1.955    c1.632-2.515,8.316-6.328,9.638-7.067c0.679-0.375,1.543-0.139,1.924,0.545c0.381,0.682,0.135,1.542-0.544,1.923    c-2.83,1.579-7.678,4.641-8.644,6.136C114.642,111.409,114.186,111.637,113.725,111.637z"/>
		<path style="fill:#241726;" d="M118.079,97.438c-0.265,0-0.53-0.073-0.768-0.228c-0.657-0.424-0.842-1.299-0.42-1.955    c1.632-2.515,8.316-6.328,9.638-7.067c0.676-0.377,1.541-0.139,1.924,0.545c0.381,0.682,0.135,1.542-0.544,1.923    c-2.83,1.579-7.678,4.641-8.644,6.136C118.996,97.21,118.54,97.438,118.079,97.438z"/>
		<path style="fill:#241726;" d="M139.225,94.739c-0.265,0-0.53-0.073-0.768-0.228c-0.657-0.424-0.842-1.299-0.42-1.955    c1.632-2.515,8.316-6.328,9.638-7.067c0.676-0.38,1.541-0.139,1.924,0.545c0.381,0.682,0.135,1.542-0.544,1.923    c-2.83,1.579-7.678,4.641-8.644,6.136C140.142,94.511,139.686,94.739,139.225,94.739z"/>
		<path style="fill:#241726;" d="M141.873,81.379c-0.265,0-0.53-0.073-0.768-0.228c-0.657-0.424-0.842-1.299-0.42-1.955    c1.632-2.515,8.316-6.328,9.638-7.067c0.679-0.38,1.541-0.139,1.924,0.545c0.381,0.682,0.135,1.542-0.544,1.923    c-2.83,1.579-7.678,4.641-8.644,6.136C142.79,81.151,142.334,81.379,141.873,81.379z"/>
		<path style="fill:#241726;" d="M131.779,110.544c-0.265,0-0.53-0.073-0.768-0.228c-0.657-0.424-0.842-1.299-0.42-1.955    c1.632-2.515,8.316-6.328,9.638-7.067c0.676-0.375,1.541-0.139,1.924,0.545c0.381,0.682,0.135,1.542-0.544,1.923    c-2.83,1.579-7.678,4.641-8.644,6.136C132.696,110.316,132.24,110.544,131.779,110.544z"/>
		<path style="fill:#241726;" d="M103.143,131.438c-0.265,0-0.53-0.073-0.768-0.228c-0.657-0.424-0.842-1.299-0.42-1.955    c1.632-2.515,8.316-6.328,9.638-7.067c0.676-0.377,1.543-0.138,1.924,0.545c0.381,0.682,0.135,1.542-0.544,1.923    c-2.83,1.579-7.678,4.641-8.644,6.136C104.059,131.211,103.604,131.438,103.143,131.438z"/>
		<path style="fill:#241726;" d="M94.435,115.218c-0.265,0-0.53-0.073-0.768-0.228c-0.657-0.424-0.842-1.299-0.42-1.955    c1.629-2.515,8.313-6.329,9.636-7.068c0.679-0.375,1.543-0.139,1.924,0.545c0.381,0.681,0.138,1.542-0.544,1.923    c-2.827,1.579-7.675,4.643-8.642,6.138C95.351,114.99,94.896,115.218,94.435,115.218z"/>
		<path style="fill:#241726;" d="M83.225,133.157c-0.265,0-0.53-0.073-0.768-0.228c-0.657-0.424-0.842-1.299-0.42-1.955    c1.632-2.515,8.316-6.329,9.638-7.068c0.676-0.38,1.541-0.138,1.924,0.545c0.381,0.681,0.135,1.542-0.544,1.923    c-2.83,1.579-7.678,4.643-8.644,6.138C84.142,132.929,83.686,133.157,83.225,133.157z"/>
	</g>
	<g>
		<path style="fill:#241726;" d="M420.34,295.101c-0.693,0-1.3-0.514-1.397-1.22c-0.108-0.774,0.433-1.487,1.207-1.593    c3.211-0.442,8.84-1.53,10.284-2.569c0.627-0.457,1.516-0.313,1.974,0.322c0.456,0.634,0.312,1.517-0.323,1.973    c-2.432,1.75-10.047,2.869-11.549,3.074C420.47,295.097,420.406,295.101,420.34,295.101z"/>
		<path style="fill:#241726;" d="M411.119,306.741c-0.693,0-1.3-0.512-1.397-1.22c-0.108-0.774,0.433-1.487,1.207-1.593    c3.208-0.442,8.838-1.531,10.284-2.57c0.635-0.457,1.516-0.312,1.974,0.323c0.456,0.635,0.309,1.517-0.323,1.974    c-2.435,1.749-10.047,2.867-11.549,3.073C411.248,306.737,411.185,306.741,411.119,306.741z"/>
		<path style="fill:#241726;" d="M390.439,301.556c-0.693,0-1.3-0.514-1.397-1.222c-0.108-0.773,0.434-1.485,1.207-1.592    c3.208-0.442,8.838-1.53,10.284-2.569c0.632-0.454,1.516-0.312,1.974,0.323c0.456,0.635,0.309,1.517-0.323,1.974    c-2.435,1.749-10.047,2.866-11.549,3.072C390.569,301.552,390.506,301.556,390.439,301.556z"/>
		<path style="fill:#241726;" d="M383.112,313.036c-0.693,0-1.3-0.512-1.397-1.22c-0.108-0.774,0.433-1.487,1.207-1.593    c3.208-0.442,8.838-1.53,10.282-2.569c0.627-0.456,1.516-0.315,1.974,0.322c0.456,0.634,0.312,1.517-0.323,1.973    c-2.432,1.75-10.044,2.869-11.546,3.074C383.242,313.032,383.178,313.036,383.112,313.036z"/>
		<path style="fill:#241726;" d="M403.129,289.546c-0.693,0-1.3-0.512-1.397-1.22c-0.108-0.774,0.433-1.487,1.207-1.593    c3.208-0.442,8.838-1.531,10.284-2.57c0.635-0.456,1.516-0.313,1.974,0.323c0.456,0.635,0.309,1.517-0.323,1.974    c-2.435,1.749-10.047,2.867-11.549,3.073C403.258,289.542,403.195,289.546,403.129,289.546z"/>
		<path style="fill:#241726;" d="M437.405,280.509c-0.693,0-1.3-0.514-1.397-1.222c-0.108-0.773,0.433-1.485,1.207-1.592    c3.208-0.442,8.838-1.53,10.284-2.569c0.635-0.454,1.516-0.313,1.974,0.323c0.456,0.635,0.309,1.517-0.323,1.974    c-2.435,1.749-10.047,2.866-11.549,3.072C437.535,280.505,437.472,280.509,437.405,280.509z"/>
		<path style="fill:#241726;" d="M439.614,298.788c-0.693,0-1.3-0.514-1.397-1.222c-0.108-0.773,0.433-1.485,1.207-1.592    c3.208-0.442,8.838-1.53,10.284-2.569c0.632-0.454,1.516-0.311,1.974,0.323c0.456,0.635,0.309,1.517-0.323,1.974    c-2.435,1.749-10.047,2.866-11.549,3.072C439.744,298.784,439.68,298.788,439.614,298.788z"/>
		<path style="fill:#241726;" d="M456.583,286.161c-0.693,0-1.3-0.512-1.397-1.22c-0.108-0.774,0.433-1.487,1.207-1.593    c3.208-0.442,8.838-1.531,10.284-2.57c0.632-0.457,1.516-0.312,1.974,0.323c0.456,0.635,0.309,1.517-0.323,1.974    c-2.435,1.749-10.047,2.867-11.549,3.073C456.713,286.157,456.649,286.161,456.583,286.161z"/>
	</g>
	<g>
		<path style="fill:#241726;" d="M140.238,404.966c-0.693,0-1.3-0.512-1.397-1.22c-0.108-0.774,0.433-1.487,1.207-1.593    c3.208-0.442,8.838-1.531,10.284-2.57c0.632-0.457,1.516-0.315,1.974,0.323c0.456,0.635,0.309,1.517-0.323,1.974    c-2.435,1.749-10.047,2.867-11.549,3.073C140.368,404.962,140.305,404.966,140.238,404.966z"/>
		<path style="fill:#241726;" d="M131.014,416.605c-0.693,0-1.3-0.514-1.397-1.222c-0.108-0.773,0.433-1.485,1.207-1.592    c3.211-0.442,8.84-1.53,10.284-2.568c0.627-0.456,1.516-0.315,1.974,0.322c0.456,0.634,0.312,1.517-0.323,1.973    c-2.432,1.75-10.047,2.867-11.549,3.073C131.144,416.601,131.08,416.605,131.014,416.605z"/>
		<path style="fill:#241726;" d="M110.338,411.421c-0.693,0-1.3-0.512-1.397-1.22c-0.108-0.774,0.433-1.487,1.207-1.593    c3.208-0.442,8.838-1.531,10.284-2.57c0.632-0.457,1.516-0.312,1.974,0.323c0.456,0.635,0.309,1.517-0.323,1.974    c-2.435,1.749-10.047,2.867-11.549,3.073C110.467,411.417,110.404,411.421,110.338,411.421z"/>
		<path style="fill:#241726;" d="M103.007,422.901c-0.693,0-1.3-0.512-1.397-1.22c-0.108-0.774,0.433-1.487,1.207-1.593    c3.208-0.442,8.838-1.531,10.284-2.57c0.632-0.456,1.519-0.313,1.974,0.323c0.456,0.635,0.309,1.517-0.323,1.974    c-2.435,1.749-10.047,2.867-11.549,3.073C103.137,422.897,103.074,422.901,103.007,422.901z"/>
		<path style="fill:#241726;" d="M123.024,399.411c-0.693,0-1.3-0.514-1.397-1.22c-0.108-0.774,0.433-1.487,1.207-1.593    c3.211-0.442,8.84-1.53,10.284-2.569c0.627-0.457,1.516-0.313,1.974,0.322c0.456,0.634,0.312,1.517-0.323,1.973    c-2.432,1.75-10.047,2.869-11.549,3.074C123.154,399.407,123.09,399.411,123.024,399.411z"/>
		<path style="fill:#241726;" d="M157.304,390.375c-0.693,0-1.3-0.512-1.397-1.22c-0.108-0.774,0.433-1.487,1.207-1.593    c3.208-0.442,8.838-1.531,10.284-2.57c0.635-0.454,1.516-0.313,1.974,0.323c0.456,0.635,0.309,1.517-0.323,1.974    c-2.435,1.749-10.047,2.867-11.549,3.073C157.433,390.371,157.37,390.375,157.304,390.375z"/>
		<path style="fill:#241726;" d="M159.51,408.654c-0.693,0-1.3-0.514-1.397-1.222c-0.108-0.773,0.433-1.485,1.207-1.592    c3.208-0.442,8.838-1.53,10.284-2.569c0.627-0.456,1.516-0.313,1.974,0.322c0.456,0.634,0.312,1.517-0.323,1.973    c-2.435,1.752-10.047,2.869-11.549,3.074C159.639,408.65,159.576,408.654,159.51,408.654z"/>
		<path style="fill:#241726;" d="M176.478,396.025c-0.693,0-1.3-0.514-1.397-1.222c-0.108-0.773,0.433-1.485,1.207-1.592    c3.208-0.442,8.838-1.53,10.284-2.569c0.632-0.457,1.516-0.312,1.974,0.323c0.456,0.635,0.309,1.517-0.323,1.974    c-2.435,1.749-10.047,2.866-11.549,3.072C176.608,396.021,176.545,396.025,176.478,396.025z"/>
	</g>
</g>















</svg>
