<?xml version="1.0" encoding="UTF-8"?>
<!-- Generator: Adobe Illustrator 25.2.0, SVG Export Plug-In . SVG Version: 6.00 Build 0)  -->
<svg xmlns="http://www.w3.org/2000/svg" xmlns:xlink="http://www.w3.org/1999/xlink" version="1.1" id="Capa_1" x="0px" y="0px" viewBox="0 0 512 512" style="enable-background:new 0 0 512 512;" xml:space="preserve" width="512" height="512">
<g>
	<path style="fill:#F3BB89;" d="M58.814,275.58c0,0-26.944-113.327,82.689-130.981S358.29,84.304,406.875,99.481   s126.363,194.227,43.214,243.099s-254.928,54.234-310.726,71.775S58.814,275.58,58.814,275.58z"/>
	<g>
		<path style="fill:#241726;" d="M301.362,126.714c-0.425,0-0.835-0.226-1.052-0.625c-0.314-0.581-0.098-1.307,0.483-1.619    c1.668-0.903,6.408-0.994,7.341-1.003c0.004,0,0.008,0,0.012,0c0.654,0,1.188,0.527,1.195,1.183    c0.006,0.66-0.523,1.199-1.183,1.206c-2.404,0.023-5.469,0.303-6.228,0.714C301.748,126.667,301.554,126.714,301.362,126.714z"/>
		<path style="fill:#241726;" d="M307.179,119.747c-0.425,0-0.835-0.226-1.051-0.625c-0.315-0.581-0.099-1.307,0.481-1.619    c1.668-0.903,6.409-0.994,7.342-1.003c0.004,0,0.008,0,0.012,0c0.654,0,1.188,0.527,1.195,1.183    c0.006,0.66-0.523,1.199-1.183,1.206c-2.404,0.023-5.469,0.303-6.227,0.714C307.566,119.701,307.371,119.747,307.179,119.747z"/>
		<path style="fill:#241726;" d="M278.84,143.653c-0.296,0-0.591-0.11-0.824-0.329c-0.477-0.455-0.497-1.211-0.042-1.689    c1.307-1.374,5.785-2.93,6.669-3.227c0.631-0.208,1.303,0.126,1.513,0.751c0.211,0.625-0.125,1.302-0.75,1.512    c-2.278,0.768-5.106,1.983-5.701,2.611C279.471,143.529,279.156,143.653,278.84,143.653z"/>
		<path style="fill:#241726;" d="M325.765,125.046c-0.061,0-0.122-0.005-0.184-0.014c-2.378-0.371-5.446-0.597-6.261-0.313    c-0.624,0.212-1.304-0.117-1.519-0.74c-0.215-0.623,0.116-1.304,0.74-1.519c1.787-0.618,6.484,0.065,7.407,0.21    c0.652,0.103,1.099,0.712,0.997,1.365C326.852,124.624,326.343,125.046,325.765,125.046z"/>
		<path style="fill:#241726;" d="M331.397,118.133c-0.054,0-0.108-0.005-0.164-0.012c-2.381-0.327-5.456-0.502-6.266-0.203    c-0.624,0.226-1.307-0.093-1.532-0.714c-0.226-0.618,0.093-1.304,0.713-1.531c1.783-0.649,6.485-0.047,7.411,0.082    c0.653,0.089,1.111,0.693,1.02,1.346C332.497,117.699,331.985,118.133,331.397,118.133z"/>
		<path style="fill:#241726;" d="M310.873,132.435c-0.425,0-0.834-0.226-1.051-0.625c-0.315-0.579-0.099-1.304,0.481-1.619    c1.668-0.905,6.409-0.996,7.342-1.006c0.004,0,0.008,0,0.012,0c0.654,0,1.188,0.527,1.195,1.183    c0.006,0.66-0.523,1.199-1.183,1.206c-2.403,0.023-5.468,0.303-6.227,0.716C311.261,132.388,311.066,132.435,310.873,132.435z"/>
		<path style="fill:#241726;" d="M290.098,134.747c-0.355,0-0.705-0.156-0.94-0.457c-0.408-0.518-0.317-1.269,0.202-1.678    c1.492-1.171,6.15-2.058,7.068-2.224c0.658-0.112,1.269,0.313,1.388,0.964c0.117,0.649-0.315,1.272-0.964,1.388    c-2.366,0.427-5.339,1.218-6.018,1.752C290.616,134.663,290.356,134.747,290.098,134.747z"/>
		<path style="fill:#241726;" d="M288.747,125.816c-0.352,0-0.7-0.154-0.936-0.45c-0.411-0.516-0.325-1.267,0.19-1.68    c1.484-1.181,6.135-2.102,7.052-2.275c0.651-0.119,1.274,0.303,1.395,0.952c0.122,0.649-0.304,1.274-0.952,1.395    c-2.363,0.446-5.331,1.26-6.007,1.799C289.269,125.732,289.007,125.816,288.747,125.816z"/>
		<path style="fill:#241726;" d="M274.698,133.704c-0.315,0-0.63-0.124-0.864-0.371c-0.455-0.476-0.437-1.232,0.04-1.689    c1.374-1.309,5.926-2.636,6.825-2.891c0.637-0.175,1.296,0.191,1.475,0.826c0.178,0.635-0.191,1.295-0.826,1.475    c-2.315,0.651-5.199,1.724-5.824,2.322C275.29,133.595,274.994,133.704,274.698,133.704z"/>
		<path style="fill:#241726;" d="M269.495,142.552c-0.315,0-0.63-0.124-0.864-0.371c-0.455-0.476-0.437-1.232,0.04-1.689    c1.374-1.309,5.926-2.636,6.825-2.891c0.639-0.177,1.296,0.191,1.475,0.826c0.178,0.635-0.191,1.295-0.826,1.475    c-2.315,0.651-5.199,1.724-5.824,2.322C270.087,142.442,269.791,142.552,269.495,142.552z"/>
		<path style="fill:#241726;" d="M261.119,140.309c-0.315,0-0.63-0.124-0.864-0.371c-0.455-0.476-0.437-1.232,0.04-1.689    c1.374-1.309,5.926-2.636,6.825-2.888c0.636-0.173,1.295,0.194,1.473,0.826c0.178,0.637-0.191,1.295-0.827,1.475    c-2.313,0.651-5.197,1.722-5.821,2.319C261.711,140.2,261.415,140.309,261.119,140.309z"/>
		<path style="fill:#241726;" d="M296.425,140.347c-0.315,0-0.63-0.124-0.864-0.371c-0.455-0.476-0.437-1.232,0.04-1.689    c1.374-1.309,5.926-2.636,6.824-2.891c0.637-0.173,1.296,0.191,1.475,0.826c0.178,0.635-0.191,1.295-0.826,1.475    c-2.314,0.651-5.199,1.724-5.824,2.322C297.018,140.237,296.722,140.347,296.425,140.347z"/>
	</g>
	<path style="fill:#A6B470;" d="M65.989,242.619c0,0-14.258-38.7,27.497-37.682c41.755,1.018,46.847,35.645,32.589,22.405   s-20.368-39.718,19.35-37.682c39.718,2.037,47.866,25.46,31.571,29.534c-16.295,4.074-4.074-54.995,29.534-39.718   s43.792,33.608,23.424,30.553c-20.368-3.055-8.147-73.326,33.608-48.884s41.755,36.663,28.516,35.645   c-13.239-1.018,8.147-62.124,33.608-44.81c25.46,17.313,28.516,35.645,14.258,29.534s-24.442-65.179,26.479-49.903   s51.939,45.829,32.589,39.718c-19.35-6.111-7.129-59.068,22.405-43.792s39.718,56.013,19.35,64.16"/>
	<path style="fill:#70A471;" d="M80.484,262.385c0,0-14.258-38.7,27.497-37.682s46.847,35.645,32.589,22.405   c-14.258-13.239-20.368-39.718,19.35-37.682c39.718,2.037,47.866,25.46,31.571,29.534s-4.074-54.995,29.534-39.718   s43.792,33.608,23.424,30.553c-20.368-3.055-8.147-73.326,33.608-48.884s41.755,36.663,28.516,35.645   c-13.239-1.018,8.147-62.124,33.608-44.81s28.516,35.645,14.258,29.534s-24.442-65.179,26.479-49.903s51.939,45.829,32.589,39.718   s-7.129-59.068,22.405-43.792c29.534,15.276,39.718,56.013,19.35,64.16"/>
	<path style="fill:#A6B470;" d="M81.014,312.372c0,0-24.554,19.216-7.473,43.77s46.973-13.878,30.96-5.338s-27.757,16.014,0,30.96   c27.757,14.946,53.379-6.405,39.5-10.676c-13.878-4.27-24.554,34.162,17.081,29.892s61.919-49.108,39.5-38.433   c-22.419,10.676-9.608,40.568,25.622,28.824c35.23-11.743,37.365-56.581,25.622-45.906c-11.743,10.676-9.608,26.689,28.824,21.351   c38.433-5.338,42.703-42.703,23.487-41.635c-19.216,1.068-11.743,33.095,26.689,20.284s51.243-45.906,36.297-40.568   s-3.203,44.838,32.027,33.095c35.23-11.743,44.838-55.514,21.351-43.77c-23.487,11.743,9.608,30.96,28.824,14.946   c19.216-16.014,26.689-42.703,9.608-43.77s-12.811,28.824,20.284,11.743c33.095-17.081,34.162-71.527-5.338-57.649"/>
	<path style="fill:#70A471;" d="M95.665,303.805c0,0-22.796,17.84-6.938,40.637s43.61-12.885,28.743-4.956s-25.77,14.867,0,28.743   s49.557-5.947,36.672-9.911c-12.885-3.965-22.796,31.716,15.858,27.752c38.654-3.965,57.486-45.592,36.672-35.681   c-20.814,9.911-8.92,37.663,23.787,26.761c32.708-10.902,34.69-52.53,23.787-42.619s-8.92,24.778,26.761,19.823   s39.646-39.646,21.805-38.654c-17.84,0.991-10.902,30.725,24.778,18.832s47.575-42.619,33.699-37.663   c-13.876,4.956-2.973,41.628,29.734,30.725c32.708-10.903,41.628-51.539,19.823-40.637c-21.805,10.902,8.92,28.743,26.761,13.876   c17.84-14.867,24.778-39.646,8.92-40.637c-15.858-0.991-11.894,26.761,18.832,10.902c30.725-15.858,31.716-66.406-4.956-53.521"/>
	<path style="fill:#241726;" d="M65.989,243.813c-0.486,0-0.943-0.299-1.121-0.782c-0.265-0.721-6.407-17.781,1.857-29.33   c4.952-6.92,13.97-10.294,26.791-9.958c8.086,0.198,14.911,1.664,20.528,3.833c-0.222-2.692,0.108-5.345,1.156-7.825   c2.423-5.73,9.642-12.356,30.286-11.283c11.003,0.565,19.911,2.835,26.549,6.01c1.596-3.735,3.751-7.335,6.443-10.366   c7.631-8.591,17.764-10.623,28.547-5.723c4.565,2.074,8.824,4.274,12.684,6.519c1.54-9.785,6.136-19.897,13.588-25.497   c5.927-4.454,16.088-7.949,30.868,0.702c10.442,6.113,18.853,11.813,24.994,16.88c3.048-9.533,8.95-20.014,16.577-25.499   c6.791-4.886,13.922-5.056,20.621-0.502c0.285,0.194,0.569,0.387,0.849,0.583c0.204-3.171,0.789-6.274,1.828-9.137   c2.846-7.844,11.532-19.837,37.731-11.971c9.795,2.937,17.773,6.444,24.14,10.161c1.982-5.397,5.176-10.32,9.578-13.509   c4.32-3.129,11.553-5.782,21.481-0.644c20.873,10.796,31.345,32.93,30.602,48.278c-0.43,8.885-4.463,15.296-11.357,18.052   c-0.608,0.247-1.308-0.054-1.553-0.665c-0.245-0.611,0.054-1.307,0.666-1.552c5.973-2.391,9.474-8.054,9.856-15.952   c0.717-14.806-10.05-36.075-29.312-46.038c-7.005-3.626-13.571-3.467-18.984,0.455c-4.137,2.998-7.113,7.688-8.923,12.816   c11.464,7.163,17.16,14.942,18.524,20.84c0.832,3.595,0.135,6.643-1.96,8.579c-2.398,2.217-6.259,2.639-10.873,1.178   c-5.183-1.636-8.664-6.409-9.803-13.439c-0.782-4.827-0.348-10.618,1.296-16.118c-6.261-3.686-14.207-7.198-24.067-10.156   c-23.097-6.925-31.673,1.885-34.799,10.502c-1.139,3.136-1.675,6.545-1.743,9.988c15.505,11.433,22.222,23.411,19.47,28.437   c-0.67,1.218-2.936,3.752-9.535,0.931c-6.714-2.877-12.279-15.665-12.349-28.171c-0.684-0.49-1.387-0.982-2.11-1.475   c-5.877-3.997-11.893-3.84-17.881,0.469c-7.4,5.32-13.189,15.929-16.013,25.222c7.477,6.535,10.913,11.913,9.754,15.621   c-0.5,1.601-2.323,4.225-8.887,3.703c-2.255-0.173-3.907-1.734-4.654-4.396c-0.911-3.252-0.461-8.411,1.094-14.116   c-5.654-4.755-13.919-10.534-25.468-17.293c-10.799-6.321-20.561-6.617-28.226-0.856c-7.219,5.425-11.566,15.401-12.841,24.89   c13.165,8.031,21.071,16.439,19.531,21.64c-0.659,2.233-3.214,4.636-11.647,3.36c-4.663-0.698-8.109-4.552-9.702-10.849   c-0.954-3.773-1.179-8.25-0.698-12.9c-3.871-2.286-8.315-4.613-13.341-6.897c-12.494-5.679-20.909-0.343-25.772,5.135   c-2.542,2.86-4.587,6.304-6.102,9.869c7.34,4.029,11.4,9.221,11.883,14.2c0.492,5.056-2.864,9.113-8.759,10.588   c-2.922,0.737-5.385-0.25-6.911-2.767c-2.556-4.221-2.215-12.72,0.81-20.966c-6.051-2.935-14.508-5.189-25.82-5.77   c-15.264-0.777-24.917,2.618-27.963,9.83c-1.034,2.445-1.23,5.17-0.796,7.97c10.471,4.755,16.164,11.974,17.535,17.172   c0.665,2.52,0.227,4.456-1.199,5.31c-1.258,0.758-3.613,0.859-7.68-2.916c-4.928-4.575-9.342-11.164-10.787-17.797   c-7.129-2.811-15.04-4.144-21.017-4.288c-11.973-0.324-20.32,2.716-24.783,8.95c-7.531,10.513-1.625,26.96-1.564,27.123   c0.227,0.621-0.09,1.307-0.709,1.533C66.265,243.79,66.125,243.813,65.989,243.813z M117.289,211.63   c1.637,5.434,5.328,10.873,9.599,14.839c2.96,2.748,4.484,2.816,4.825,2.618c0.283-0.17,0.549-1.017,0.118-2.653   C130.061,219.726,124.267,214.894,117.289,211.63z M173.311,197.736c-2.689,7.436-3.083,14.998-0.892,18.614   c0.976,1.61,2.377,2.175,4.288,1.687c4.732-1.183,7.334-4.188,6.96-8.038C183.311,206.34,180.154,201.602,173.311,197.736z    M221.619,188.821c-0.297,3.948-0.046,7.723,0.772,10.954c0.777,3.07,2.816,8.334,7.74,9.074c5.101,0.765,8.465,0.14,9.003-1.678   C240.076,203.991,234.334,196.739,221.619,188.821z M290.414,181.191c-1.209,4.799-1.536,9.048-0.78,11.75   c0.707,2.517,2.084,2.625,2.536,2.66c3.534,0.259,5.939-0.492,6.423-2.037C299.289,191.338,297.091,187.18,290.414,181.191z    M329.595,156.275c0.633,11.192,5.798,21.988,10.819,24.139c3.327,1.426,5.757,1.468,6.499,0.119   C348.563,177.519,343.945,167.283,329.595,156.275z M392.231,144.185c-1.384,4.946-1.725,10.119-1.022,14.461   c0.572,3.528,2.391,9.722,8.163,11.545c3.763,1.188,6.79,0.957,8.532-0.656c1.438-1.33,1.884-3.563,1.254-6.286   C407.918,157.89,402.71,150.825,392.231,144.185z"/>
	<path style="fill:#241726;" d="M154.95,402.504c-14.721,0.002-20.427-6.181-22.578-10.191c-0.791-1.477-1.314-3.017-1.608-4.566   c-7.923,1.265-17.397,0.147-26.829-4.93c-11.833-6.372-17.339-11.796-17.328-17.069c0-0.03,0-0.061,0.001-0.091   c-4.673-0.292-9.683-2.557-14.048-8.833c-17.523-25.187,7.464-45.193,7.718-45.392c0.517-0.404,1.27-0.317,1.676,0.203   s0.315,1.269-0.203,1.678c-0.061,0.047-6.024,4.781-9.851,12.349c-5.057,10.005-4.175,20.03,2.621,29.799   c3.893,5.595,8.362,7.566,12.507,7.781c1.711-5.016,8.455-8.98,16.91-13.49c1.186-0.63,4.795-2.557,6.044-0.418   c1.5,2.564-3.709,8.528-9.37,12.144c-2.47,1.577-6.75,3.808-11.616,4.165c-0.001,0.035-0.001,0.072-0.001,0.11   c-0.008,4.181,5.399,9.214,16.071,14.96c9.576,5.159,18.452,5.814,25.42,4.634c-0.202-4.531,1.38-8.915,3.742-11.787   c2.807-3.411,6.496-4.734,10.122-3.612c3.448,1.059,4.446,2.982,4.674,4.405c0.426,2.641-1.44,5.658-5.119,8.273   c-2.898,2.063-6.589,3.707-10.804,4.669c0.253,1.321,0.701,2.632,1.374,3.889c3.713,6.923,13.107,9.984,26.483,8.609   c12.635-1.297,23.094-6.286,30.962-12.235c-1.116-1.337-1.986-2.788-2.596-4.302c-3.319-8.236,1.099-17.193,10.742-21.785   c4.392-2.091,7.582-2.326,9.464-0.679c1.156,1.006,2.243,3.124,0.855,7.499c-1.626,5.124-6.779,12.727-14.949,19.468   c5.644,4.96,16.084,7.247,30.386,2.48c13.563-4.519,22.114-14.006,26.77-23.285c-4.463-1.708-6.482-4.139-7.39-6.08   c-2.229-4.76,0-11.001,5.817-16.29c2.526-2.298,4.376-2.144,5.486-1.61c2.154,1.036,3.174,4.242,2.871,9.027   c-0.244,3.861-1.358,8.598-3.492,13.507c4.952,1.295,12.641,1.785,24.597,0.128c14.667-2.037,24.131-8.857,29.162-16.213   c-7.233-0.978-11.27-4.176-13.121-6.136c-3.509-3.717-4.682-8.553-3.058-12.625c1.575-3.952,5.439-6.384,10.601-6.671   c6.79-0.397,11.65,3.892,12.327,10.877c0.383,3.948-0.576,8.266-2.656,12.396c5.016,0.068,10.652-0.91,16.707-2.93   c13.716-4.571,24.231-11.806,31.256-18.92c-0.292-0.672-0.558-1.353-0.796-2.044c-3.119-9.039-0.675-17.279,5.813-19.596   c3.391-1.216,5.245-0.483,6.2,0.341c0.937,0.807,1.917,2.469,1.262,5.786c-0.824,4.176-4.092,9.977-9.646,15.917   c5.094,9.995,17.031,16.787,34.235,11.043c12.635-4.211,21.81-12.671,27.307-20.954c-2.234-0.439-4.332-1.115-6.205-1.974   c-5.365-2.457-8.608-6.283-8.676-10.236c-0.048-2.786,1.435-6.874,8.769-10.541c6.267-3.129,9.772-2.186,11.609-0.849   c2.506,1.832,3.475,5.464,2.732,10.236c-0.56,3.595-1.982,7.541-4.18,11.5c6.098,0.39,12.856-1.143,18.432-5.789   c9.089-7.576,15.09-17.107,17.505-25.065c-8.622,1.556-13.144-1.304-15.008-3.042c-3-2.797-3.952-6.899-2.423-10.453   c1.61-3.74,5.482-5.805,10.374-5.485c6.449,0.404,8.982,4.088,9.97,7.109c0.811,2.475,0.897,5.411,0.362,8.595   c2.918-0.859,6.052-2.14,9.33-3.831c19.715-10.175,28.047-34.204,22.06-48.087c-3.969-9.2-13.608-11.885-26.455-7.375   c-0.619,0.224-1.303-0.107-1.522-0.73c-0.219-0.623,0.108-1.304,0.731-1.524c14.18-4.984,24.909-1.818,29.44,8.684   c6.394,14.827-2.328,40.403-23.158,51.155c-4.185,2.158-7.835,3.551-11.008,4.384c-2.398,9.111-9.316,19.706-18.668,27.499   c-6.455,5.38-14.343,6.967-21.31,6.227c-5.885,9.335-16.011,18.399-29.253,22.814c-18.201,6.066-30.993-0.945-36.744-11.505   c-7.288,7.216-17.908,14.419-31.581,18.978c-7.687,2.562-13.874,3.315-18.816,3.073c-1.064,1.708-2.322,3.362-3.754,4.921   c-4.593,4.991-13.147,11.37-27.82,13.406c-12.384,1.722-20.555,1.185-25.942-0.303c-4.872,9.872-13.901,20.012-28.29,24.809   c-15.486,5.156-26.858,2.422-33.032-3.248c-8.221,6.286-19.149,11.556-32.347,12.909   C158.957,402.399,156.875,402.504,154.95,402.504z M206.296,362.098c-1.289,0-3.079,0.518-5.201,1.528   c-9.912,4.72-11.94,12.811-9.552,18.735c0.527,1.311,1.282,2.566,2.254,3.721c7.837-6.414,12.768-13.647,14.314-18.516   c0.765-2.413,0.713-4.225-0.147-4.974C207.585,362.261,207.019,362.098,206.296,362.098z M141.861,371.958   c-2.07,0-4.109,1.08-5.786,3.119c-1.97,2.394-3.31,6.015-3.227,9.785c4.161-1.003,7.489-2.629,9.674-4.183   c2.824-2.009,4.413-4.288,4.146-5.947c-0.222-1.37-1.764-2.116-3.019-2.504C143.056,372.047,142.457,371.958,141.861,371.958z    M255.043,345.036c-0.621,0-1.47,0.457-2.414,1.316c-5.013,4.557-7.029,9.734-5.261,13.509c0.629,1.342,2.225,3.418,6.246,4.93   c2.07-4.704,3.147-9.246,3.381-12.94c0.254-4.018-0.581-6.272-1.522-6.724C255.346,345.066,255.202,345.036,255.043,345.036z    M107.84,350.754c-0.404,0.058-1.242,0.287-2.776,1.106c-7.207,3.843-13.396,7.412-15.393,11.293   c1.653-0.191,3.214-0.618,4.618-1.143C101.97,359.137,107.338,352.742,107.84,350.754z M304.924,326.356   c-0.237,0-0.477,0.005-0.721,0.019c-4.195,0.233-7.298,2.118-8.515,5.17c-1.275,3.196-0.288,7.067,2.576,10.103   c2.969,3.145,7.393,4.984,12.803,5.481c2.357-4.242,3.293-8.516,2.951-12.03C313.483,329.578,310.103,326.356,304.924,326.356z    M369.973,305.514c-0.67,0-1.498,0.17-2.449,0.509c-5.889,2.105-6.65,9.928-4.357,16.565c0.106,0.31,0.219,0.616,0.337,0.922   c4.786-5.287,7.605-10.364,8.336-14.071c0.331-1.685,0.158-2.965-0.478-3.514C371.043,305.649,370.572,305.514,369.973,305.514z    M427.377,293.445c-1.729,0-3.886,0.621-6.34,1.848c-4.924,2.461-7.5,5.355-7.449,8.362c0.051,3.01,2.773,6.041,7.282,8.105   c1.963,0.898,4.194,1.582,6.573,1.972c2.479-4.2,3.991-8.25,4.507-11.559c0.589-3.787-0.06-6.68-1.781-7.937   C429.443,293.706,428.5,293.445,427.377,293.445z M458.076,266.566c-3.459,0-6.136,1.491-7.248,4.071   c-1.125,2.613-0.395,5.66,1.858,7.76c3.011,2.807,7.958,3.507,14.053,2.184c0.705-3.32,0.708-6.26-0.033-8.523   c-1.102-3.371-3.744-5.21-7.848-5.467C458.594,266.576,458.333,266.566,458.076,266.566z"/>
	<path style="fill:#E2394B;" d="M74.022,231.85c0,0,91.339,18.736,220.15-25.762s180.921-99.536,209.025-43.327   s-8.427,93.771-148.133,141.692c-107.538,36.887-183.068,61.478-286.117,31.032S-12.633,208.43,74.022,231.85z"/>
	<g>
		<path style="fill:#241726;" d="M148.906,332.464c-2.094,0-4.754-0.432-5.423-0.546c-0.651-0.112-1.087-0.73-0.975-1.381    c0.111-0.649,0.737-1.085,1.379-0.975c2.369,0.406,5.433,0.677,6.256,0.411c0.63-0.198,1.302,0.138,1.506,0.765    c0.205,0.628-0.136,1.302-0.764,1.507C150.395,332.404,149.69,332.464,148.906,332.464z"/>
		<path style="fill:#241726;" d="M141.933,338.279c-2.094,0-4.751-0.434-5.421-0.548c-0.65-0.112-1.086-0.73-0.974-1.381    c0.112-0.649,0.73-1.083,1.38-0.975c2.368,0.408,5.434,0.679,6.252,0.413c0.628-0.21,1.302,0.135,1.508,0.761    c0.205,0.628-0.135,1.302-0.762,1.507C143.424,338.218,142.719,338.279,141.933,338.279z"/>
		<path style="fill:#241726;" d="M169.096,321.438c-0.583,0-1.094-0.427-1.181-1.022c-0.096-0.653,0.357-1.26,1.009-1.356    c2.38-0.345,5.378-1.036,6.076-1.545c0.533-0.392,1.281-0.271,1.669,0.259c0.388,0.532,0.273,1.281-0.26,1.668    c-1.531,1.12-6.217,1.848-7.139,1.983C169.212,321.433,169.153,321.438,169.096,321.438z"/>
		<path style="fill:#241726;" d="M132.525,331.076c-2.085,0-5.904-1.288-6.709-1.568c-0.623-0.217-0.953-0.898-0.736-1.521    c0.218-0.625,0.903-0.947,1.52-0.737c2.271,0.791,5.252,1.568,6.102,1.428c0.656-0.1,1.263,0.348,1.363,0.999    c0.1,0.651-0.346,1.262-0.999,1.363C132.904,331.065,132.722,331.076,132.525,331.076z"/>
		<path style="fill:#241726;" d="M125.702,336.762c-2.103,0-5.848-1.192-6.647-1.456c-0.626-0.205-0.967-0.88-0.762-1.507    c0.206-0.625,0.882-0.971,1.507-0.761c2.285,0.749,5.285,1.486,6.128,1.321c0.649-0.103,1.269,0.327,1.379,0.975    c0.112,0.651-0.324,1.269-0.975,1.381C126.146,336.746,125.934,336.762,125.702,336.762z"/>
		<path style="fill:#241726;" d="M140.578,325.134c-2.095,0-4.758-0.434-5.429-0.548c-0.65-0.112-1.086-0.73-0.974-1.381    c0.112-0.651,0.729-1.085,1.38-0.975c2.369,0.408,5.432,0.681,6.255,0.413c0.626-0.198,1.302,0.138,1.506,0.765    c0.205,0.628-0.136,1.302-0.764,1.507C142.062,325.073,141.359,325.134,140.578,325.134z"/>
		<path style="fill:#241726;" d="M156.28,327.203c-0.014,0-0.028,0-0.04,0c-0.66,0-1.195-0.537-1.193-1.197    c0.001-0.658,0.535-1.192,1.195-1.192h0.001c0.013,0,0.026,0,0.038,0c2.398,0,5.437-0.245,6.198-0.646    c0.583-0.306,1.307-0.084,1.613,0.499c0.308,0.586,0.084,1.307-0.5,1.615C161.937,327.154,157.301,327.203,156.28,327.203z"/>
		<path style="fill:#241726;" d="M155.976,336.281c-0.657,0-1.191-0.53-1.195-1.188c-0.003-0.66,0.528-1.197,1.188-1.202    c2.404-0.014,5.47-0.282,6.23-0.691c0.587-0.31,1.305-0.093,1.618,0.488c0.313,0.581,0.094,1.304-0.486,1.617    c-1.672,0.898-6.414,0.971-7.347,0.975C155.98,336.281,155.978,336.281,155.976,336.281z"/>
		<path style="fill:#241726;" d="M171.309,331.636c-0.609,0-1.129-0.464-1.188-1.083c-0.063-0.656,0.419-1.239,1.076-1.302    c2.394-0.226,5.423-0.765,6.146-1.239c0.552-0.362,1.291-0.208,1.654,0.343c0.362,0.551,0.209,1.293-0.343,1.654    c-1.587,1.041-6.302,1.533-7.23,1.622C171.385,331.634,171.346,331.636,171.309,331.636z"/>
		<path style="fill:#241726;" d="M178.012,323.862c-0.609,0-1.129-0.464-1.188-1.083c-0.063-0.656,0.42-1.239,1.077-1.302    c2.393-0.226,5.422-0.763,6.143-1.239c0.554-0.359,1.294-0.21,1.654,0.343c0.363,0.551,0.21,1.29-0.341,1.654    c-1.587,1.043-6.303,1.533-7.233,1.622C178.087,323.86,178.05,323.862,178.012,323.862z"/>
		<path style="fill:#241726;" d="M185.852,327.569c-0.609,0-1.129-0.464-1.188-1.083c-0.063-0.656,0.419-1.239,1.076-1.302    c2.394-0.226,5.425-0.765,6.146-1.239c0.551-0.359,1.293-0.21,1.654,0.343c0.362,0.551,0.209,1.293-0.343,1.654    c-1.585,1.041-6.302,1.533-7.23,1.622C185.928,327.567,185.889,327.569,185.852,327.569z"/>
		<path style="fill:#241726;" d="M151.123,321.207c-0.609,0-1.129-0.464-1.188-1.083c-0.063-0.656,0.419-1.239,1.076-1.302    c2.394-0.226,5.425-0.765,6.146-1.239c0.552-0.362,1.291-0.21,1.654,0.343c0.362,0.551,0.209,1.293-0.343,1.654    c-1.585,1.041-6.302,1.533-7.23,1.622C151.198,321.205,151.16,321.207,151.123,321.207z"/>
	</g>
	<g>
		<path style="fill:#241726;" d="M371.02,280.092c-0.624,0-1.149-0.483-1.191-1.115c-0.043-0.658,0.455-1.227,1.113-1.272    c2.4-0.159,5.443-0.611,6.178-1.066c0.562-0.343,1.297-0.173,1.644,0.39c0.346,0.562,0.173,1.297-0.388,1.645    c-1.615,0.996-6.344,1.353-7.275,1.416C371.074,280.092,371.047,280.092,371.02,280.092z"/>
		<path style="fill:#241726;" d="M365.607,287.376c-0.624,0-1.149-0.483-1.191-1.115c-0.043-0.658,0.455-1.227,1.113-1.272    c2.398-0.159,5.442-0.611,6.177-1.066c0.565-0.343,1.298-0.17,1.644,0.39c0.346,0.562,0.173,1.297-0.388,1.645    c-1.615,0.996-6.343,1.353-7.274,1.416C365.661,287.376,365.634,287.376,365.607,287.376z"/>
		<path style="fill:#241726;" d="M393.266,263.932c-0.474,0-0.922-0.282-1.108-0.749c-0.246-0.614,0.051-1.309,0.664-1.554    c2.232-0.896,4.986-2.27,5.545-2.928c0.423-0.504,1.182-0.562,1.683-0.14c0.504,0.427,0.566,1.181,0.139,1.685    c-1.227,1.449-5.611,3.252-6.478,3.6C393.564,263.904,393.414,263.932,393.266,263.932z"/>
		<path style="fill:#241726;" d="M357.289,282.091c-1.708,0-3.409-0.154-3.928-0.203c-0.657-0.065-1.136-0.651-1.072-1.307    s0.635-1.115,1.305-1.073c2.391,0.236,5.469,0.287,6.267-0.042c0.61-0.25,1.309,0.042,1.559,0.653    c0.251,0.609-0.041,1.307-0.651,1.559C359.994,281.996,358.64,282.091,357.289,282.091z"/>
		<path style="fill:#241726;" d="M351.543,289.252c-1.515,0-2.929-0.105-3.395-0.142c-0.657-0.051-1.147-0.628-1.094-1.286    c0.055-0.658,0.642-1.134,1.287-1.094c2.4,0.191,5.474,0.189,6.267-0.152c0.602-0.264,1.308,0.016,1.569,0.623    s-0.017,1.309-0.624,1.57C354.681,289.147,353.061,289.252,351.543,289.252z"/>
		<path style="fill:#241726;" d="M361.202,274.917c-0.624,0-1.149-0.483-1.191-1.115c-0.043-0.658,0.455-1.227,1.113-1.272    c2.398-0.159,5.442-0.611,6.177-1.066c0.563-0.341,1.298-0.173,1.644,0.39c0.346,0.562,0.173,1.297-0.388,1.645    c-1.615,0.996-6.343,1.353-7.274,1.416C361.256,274.917,361.229,274.917,361.202,274.917z"/>
		<path style="fill:#241726;" d="M382.119,272.549c-0.54,0-1.029-0.369-1.161-0.917c-0.153-0.642,0.243-1.286,0.884-1.44    c2.337-0.56,5.26-1.517,5.909-2.088c0.497-0.436,1.249-0.387,1.686,0.107c0.436,0.495,0.388,1.248-0.106,1.685    c-1.424,1.255-6.025,2.403-6.933,2.62C382.305,272.539,382.211,272.549,382.119,272.549z"/>
		<path style="fill:#241726;" d="M383.988,281.438c-0.537,0-1.023-0.364-1.158-0.908c-0.159-0.639,0.232-1.288,0.873-1.447    c2.334-0.579,5.252-1.559,5.896-2.133c0.493-0.436,1.246-0.397,1.687,0.096c0.44,0.492,0.397,1.248-0.096,1.687    c-1.415,1.262-6.007,2.445-6.913,2.669C384.179,281.426,384.084,281.438,383.988,281.438z"/>
		<path style="fill:#241726;" d="M397.807,273.326c-0.496,0-0.959-0.31-1.129-0.807c-0.215-0.623,0.118-1.302,0.741-1.517    c2.274-0.782,5.093-2.016,5.684-2.643c0.451-0.485,1.207-0.509,1.688-0.054c0.482,0.45,0.506,1.206,0.055,1.687    c-1.297,1.384-5.768,2.965-6.65,3.269C398.066,273.305,397.936,273.326,397.807,273.326z"/>
		<path style="fill:#241726;" d="M402.503,264.201c-0.496,0-0.959-0.31-1.129-0.805c-0.215-0.625,0.117-1.304,0.741-1.519    c2.274-0.784,5.093-2.018,5.684-2.646c0.451-0.485,1.207-0.509,1.688-0.054c0.482,0.45,0.506,1.206,0.055,1.687    c-1.296,1.384-5.766,2.968-6.65,3.271C402.763,264.18,402.631,264.201,402.503,264.201z"/>
		<path style="fill:#241726;" d="M410.993,265.964c-0.496,0-0.959-0.31-1.129-0.807c-0.215-0.623,0.117-1.302,0.741-1.517    c2.274-0.782,5.092-2.016,5.684-2.646c0.45-0.485,1.207-0.504,1.688-0.056c0.482,0.453,0.506,1.209,0.055,1.689    c-1.297,1.386-5.768,2.968-6.65,3.271C411.253,265.943,411.121,265.964,410.993,265.964z"/>
		<path style="fill:#241726;" d="M375.74,267.92c-0.496,0-0.959-0.31-1.129-0.807c-0.215-0.623,0.117-1.302,0.741-1.517    c2.274-0.782,5.092-2.016,5.684-2.646c0.449-0.485,1.207-0.504,1.688-0.056c0.482,0.453,0.506,1.209,0.055,1.689    c-1.297,1.386-5.768,2.968-6.65,3.271C376,267.899,375.868,267.92,375.74,267.92z"/>
	</g>
	<path style="fill:#F9DD96;" d="M105.145,342.24c-5.595,0-10.674-1.962-14.891-5.793c-21.966-19.96-16.193-86.74-15.463-94.288   c0.254-2.627,2.6-4.566,5.216-4.295c2.626,0.252,4.55,2.587,4.297,5.215c-1.853,19.193-3.238,72.109,12.38,86.297   c3.245,2.949,6.933,3.896,11.602,2.993c18.005-3.502,28.72-40.086,36.544-66.799c7.453-25.45,11.75-38.796,20.476-40.165   c4.129-0.642,8.017,1.654,11.538,6.843c8.529,12.569,8.74,32.032,8.943,50.856c0.197,18.213,0.4,37.046,8.964,43.15   c4.608,3.283,12.264,3.18,22.751-0.317c29.018-9.673,26.596-35.161,24.253-59.808c-2.018-21.241-4.105-43.203,17.765-48.994   c22.736-6.027,32.653,20.289,41.394,43.504c5.268,13.992,11.24,29.853,18.486,32.338c0.829,0.287,3.349,1.15,8.03-1.72   c13.688-8.39,7.373-33.901,1.802-56.407c-4.79-19.347-8.926-36.057-1.083-44.111c3.936-4.043,9.881-5.124,18.174-3.301   c22.787,5,31.642,23.861,39.454,40.504c9.189,19.573,16.449,35.042,42.211,30.828c6.945-1.134,11.671-3.866,14.448-8.353   c7.796-12.592,0.019-37.716-6.231-57.9c-5.498-17.758-9.471-30.59-5.192-37.783c1.464-2.459,3.777-4.069,6.692-4.65   c2.59-0.511,5.106,1.162,5.623,3.747c0.517,2.59-1.162,5.105-3.749,5.623c-0.226,0.047-0.306,0.098-0.306,0.098   c-2.501,2.48,3.069,20.474,6.062,30.14c7.178,23.185,15.315,49.463,5.227,65.756c-4.258,6.878-11.336,11.169-21.034,12.753   c-32.894,5.385-43.253-16.712-52.401-36.199c-7.542-16.064-14.665-31.239-32.852-35.231c-2.667-0.579-7.414-1.276-9.279,0.637   c-4.137,4.249-0.073,20.663,3.511,35.147c6.36,25.688,13.567,54.804-6.085,66.85c-5.649,3.465-11.073,4.342-16.123,2.613   c-11.503-3.945-17.733-20.492-24.329-38.012c-9.136-24.265-16.621-41.164-30.005-37.632c-13.383,3.542-12.828,16.411-10.696,38.852   c2.443,25.707,5.483,57.702-30.745,69.778c-13.737,4.58-23.981,4.26-31.318-0.968c-12.521-8.922-12.741-29.277-12.974-50.828   c-0.189-17.408-0.384-35.406-7.295-45.592c-1.132-1.666-1.913-2.359-2.294-2.629c-3.648,2.562-8.83,20.254-12.642,33.271   c-8.987,30.69-20.174,68.882-43.89,73.492C108.416,342.077,106.76,342.24,105.145,342.24z"/>
</g>















</svg>
