<?xml version="1.0" encoding="UTF-8"?>
<!-- Generator: Adobe Illustrator 25.2.0, SVG Export Plug-In . SVG Version: 6.00 Build 0)  -->
<svg xmlns="http://www.w3.org/2000/svg" xmlns:xlink="http://www.w3.org/1999/xlink" version="1.1" id="Capa_1" x="0px" y="0px" viewBox="0 0 512 512" style="enable-background:new 0 0 512 512;" xml:space="preserve" width="512" height="512">
<g>
	<path style="fill:#241726;" d="M231.538,495.787c-31.477,0-60.848-3.262-87.298-9.693C72.17,468.565,27.663,431.022,28.09,388.115   c0.399-39.941,39.567-74.397,99.786-87.777c0.69-0.105,62.066-9.065,132.932-9.065c75.433,0,173.095,10.333,209.978,59.551   c13.599,18.149,15.86,36.62,6.716,54.896C452.657,455.384,342.319,495.787,231.538,495.787z M260.809,293.516   c-70.695,0-131.916,8.935-132.525,9.025c-59.085,13.133-97.563,46.736-97.95,85.598c-0.416,41.805,43.433,78.505,114.437,95.775   c26.276,6.39,55.468,9.63,86.767,9.63c110.016,0,219.454-39.847,243.958-88.827c8.732-17.455,6.543-35.135-6.506-52.548   C432.663,303.694,335.729,293.516,260.809,293.516z"/>
	<g>
		<path style="fill:#F9DD96;" d="M184.179,300.24c0,0-22.888-58.874,5.364-104.898c36.953-60.197,26.622-90.991,10.728-112.447    c0,0,37.35-15.099,48.475-3.576s34.37,68.938,8.145,123.175c-19.18,39.667,11.92,60.992,25.032,73.309    C281.925,275.804,200.47,315.339,184.179,300.24z"/>
		<path style="fill:#241726;" d="M196.694,284.673c-0.447,0-0.867-0.267-1.043-0.708c-0.162-0.41-16.097-41.354-0.556-72.437    c1.989-3.978,4.182-8.132,6.504-12.528c10.935-20.71,23.33-44.182,21.398-62.544c-0.066-0.618,0.381-1.17,0.997-1.233    c0.635-0.064,1.17,0.381,1.233,0.997c2.004,19.043-10.559,42.835-21.643,63.827c-2.315,4.386-4.504,8.528-6.482,12.484    c-15.087,30.176,0.475,70.204,0.635,70.605c0.228,0.576-0.053,1.229-0.629,1.457C196.972,284.646,196.832,284.673,196.694,284.673    z"/>
		<path style="fill:#241726;" d="M218.747,286.462c-0.427,0-0.837-0.245-1.023-0.662c-0.762-1.7-18.557-41.875-7.141-65.909    c2.368-4.986,4.968-9.963,7.483-14.778c9.707-18.581,19.744-37.794,21.615-65.871c0.042-0.62,0.585-1.091,1.194-1.045    c0.618,0.042,1.087,0.576,1.045,1.194c-1.904,28.548-12.05,47.974-21.867,66.763c-2.504,4.795-5.095,9.753-7.446,14.701    c-10.968,23.093,6.981,63.619,7.163,64.025c0.254,0.565,0.002,1.229-0.563,1.483C219.058,286.432,218.9,286.462,218.747,286.462z"/>
		<path style="fill:#241726;" d="M245.569,273.945c-0.313,0-0.627-0.131-0.848-0.388c-0.195-0.226-19.376-22.887-9.155-52.947    l1.901-5.566c10-29.22,22.445-65.587,14.228-84.213c-0.252-0.567,0.007-1.229,0.572-1.479c0.57-0.252,1.229,0.004,1.479,0.572    c8.572,19.431-4.031,56.257-14.156,85.847l-1.899,5.562c-9.799,28.813,8.539,50.542,8.725,50.756    c0.405,0.469,0.353,1.179-0.114,1.582C246.09,273.856,245.829,273.945,245.569,273.945z"/>
		<path style="fill:#241726;" d="M216.811,141.863c-0.499,0-1.122-0.412-1.262-0.889c-0.296-1.008-0.786-2.69,51.468-36.228    l-1.518-3.536c-54.509,26.16-55.876,26.158-56.327,26.158c-0.324,0-0.67-0.149-0.883-0.394c-0.212-0.245-0.313-0.585-0.267-0.907    c0.296-2.105,46.443-29.926,53.479-34.13l-2.064-4.749c-17.448,8.02-55.654,25.404-58.984,25.404    c-0.364,0-0.881-0.228-1.091-0.524c-0.21-0.296-0.267-0.758-0.147-1.1c1.019-2.9,47.652-29.258,55.838-33.689    c-0.3-0.654-0.548-1.182-0.729-1.55c-3.844,0.25-19.273,5.731-32.923,10.582c-15.831,5.623-25.619,9.038-28.051,9.038    c-0.622,0-1.073-0.206-1.343-0.616c-0.208-0.315-0.241-0.876-0.092-1.222c1.737-4.042,66.98-33.26,70.377-33.26    c3.172,0.196,9.676,11.175,12.34,15.913C306.038,57.501,403.419,0,410.955,0c0.381,0,0.708,0.093,0.97,0.278    c4.125,2.912,11.393,13.216,11.7,13.653c0.182,0.26,0.245,0.584,0.175,0.893c-0.07,0.309-0.267,0.575-0.543,0.729    c-1.146,0.645-113.434,63.78-141.386,75.394c2.668,6.541,3.65,11.133,2.92,13.658c-2.438,8.423-60.697,34.226-67.332,37.142    c-0.079,0.035-0.162,0.059-0.248,0.077C217.144,141.835,216.878,141.863,216.811,141.863z M266.068,98.57    c0.134,0,0.267,0.024,0.394,0.072c0.285,0.107,0.515,0.326,0.635,0.607l2.355,5.487c0.215,0.504,0.035,1.089-0.427,1.384    c-14.734,9.45-36.519,23.744-46.329,30.839c24.627-11.089,58.454-27.843,59.939-32.977c0.351-1.211,0.392-4.539-3.266-13.214    c-0.116-0.278-0.116-0.591,0-0.87c0.116-0.278,0.34-0.497,0.62-0.609c24.548-9.78,129.184-68.404,141.077-75.08    c-1.906-2.624-7.119-9.62-10.243-11.962c-6.175,0.602-72.544,38.686-136.034,76.432c-0.261,0.156-0.576,0.196-0.867,0.118    c-0.294-0.079-0.541-0.274-0.688-0.54c-5.643-10.219-9.908-15.454-11.012-15.773c-3.869,0.092-50.798,21.838-64.592,29.595    c5.384-1.619,14.605-4.894,23.021-7.884c18.237-6.48,30.441-10.727,33.788-10.727c0.806,0,1.36,0.261,1.643,0.775    c0.239,0.433,0.758,1.533,1.452,3.068c0.245,0.544,0.022,1.186-0.51,1.459c-9.19,4.716-38.561,21.763-50.62,29.484    c10.331-4.164,32.14-13.926,53.137-23.586c0.274-0.125,0.591-0.138,0.867-0.028c0.283,0.107,0.508,0.322,0.629,0.598l2.916,6.712    c0.23,0.535,0.015,1.157-0.497,1.433c-8.438,4.543-31.266,18.859-44.217,27.277c9.678-4.48,25.807-12.121,46.344-21.983    C265.735,98.608,265.902,98.57,266.068,98.57z"/>
		<path style="fill:#F9DD96;" d="M197.887,82.101c0,0,40.131-24.635,46.091-16.291c5.96,8.344,43.31,53.641,23.84,59.601    c-19.47,5.96-29.403,14.304-36.953,13.51C223.317,138.126,210.602,83.691,197.887,82.101z"/>
		<path style="fill:#241726;" d="M234.839,140.838c-0.405,0-0.8-0.221-0.997-0.609c-0.285-0.55-0.068-1.227,0.484-1.509    c1.078-0.554,1.788-1.516,2.171-2.935c3.807-14.112-25.746-60.559-26.044-61.026c-0.335-0.522-0.182-1.216,0.34-1.55    c0.521-0.332,1.216-0.184,1.549,0.341c1.244,1.943,30.384,47.762,26.322,62.82c-0.55,2.035-1.663,3.496-3.312,4.344    C235.188,140.799,235.012,140.838,234.839,140.838z"/>
		<path style="fill:#241726;" d="M248.747,135.673c-0.62,0-1.122-0.502-1.122-1.122c0-30.59-29.591-62.09-29.889-62.406    c-0.427-0.449-0.41-1.159,0.039-1.585c0.449-0.426,1.159-0.41,1.586,0.041c1.246,1.311,30.506,32.473,30.506,63.95    C249.869,135.171,249.367,135.673,248.747,135.673z"/>
		<path style="fill:#241726;" d="M260.666,129.313c-0.221,0-0.445-0.064-0.637-0.199c-0.51-0.353-0.637-1.051-0.285-1.56    c4.096-5.919,0.066-18.061-11.661-35.115c-9.038-13.144-19.527-24.562-19.63-24.676c-0.421-0.456-0.392-1.165,0.064-1.585    c0.456-0.418,1.168-0.39,1.584,0.065c1.746,1.893,42.601,46.538,31.488,62.587C261.372,129.145,261.021,129.313,260.666,129.313z"/>
		<path style="fill:#241726;" d="M309.052,64.73c-0.399,0-0.786-0.214-0.988-0.591c-0.294-0.545-0.088-1.226,0.458-1.518    l100.371-53.89c0.541-0.291,1.225-0.09,1.518,0.458c0.294,0.545,0.088,1.226-0.458,1.518l-100.371,53.89    C309.414,64.687,309.232,64.73,309.052,64.73z"/>
	</g>
	<g>
		<g>
			<path style="fill:#F9DD96;" d="M126.366,425.402c0,0,214.563,21.456,269.396-16.688s-38.145-171.651-150.194-159.73     S50.077,399.178,126.366,425.402z"/>
			<path style="fill:#241726;" d="M189.941,430.497c-0.14,0-0.285-0.026-0.423-0.083c-0.574-0.232-0.85-0.887-0.616-1.461     c0.131-0.326,13.63-32.723,43.065-35.707c11.196-1.135,25.071,1.045,39.759,3.354c43.553,6.85,97.758,15.371,133.206-50.664     c0.294-0.548,0.977-0.749,1.518-0.458c0.545,0.294,0.751,0.973,0.458,1.518c-36.2,67.433-91.276,58.776-135.53,51.819     c-14.541-2.285-28.281-4.445-39.183-3.338c-28.108,2.85-41.087,34.007-41.216,34.322     C190.802,430.234,190.383,430.497,189.941,430.497z"/>
			<path style="fill:#241726;" d="M117.756,422.924c-0.171,0-0.344-0.039-0.506-0.12c-0.554-0.28-0.775-0.955-0.495-1.507     c0.381-0.751,38.596-75.008,93.232-77.834c12.23-0.633,25.387,0.035,39.31,0.749c48.397,2.467,98.439,5.016,117.905-46.171     c0.221-0.578,0.874-0.859,1.448-0.651c0.578,0.221,0.87,0.87,0.651,1.448c-20.051,52.717-73.205,50.007-120.117,47.613     c-13.867-0.705-26.966-1.378-39.082-0.749c-53.352,2.76-90.971,75.869-91.344,76.607     C118.56,422.698,118.163,422.924,117.756,422.924z"/>
			<path style="fill:#241726;" d="M178.495,355.133c-0.445,0-0.865-0.267-1.041-0.705c-10.964-27.407-53.733-32.228-54.165-32.274     c-0.616-0.066-1.062-0.618-0.997-1.233c0.066-0.618,0.591-1.073,1.233-0.997c1.812,0.191,44.541,5.003,56.009,33.672     c0.23,0.574-0.048,1.227-0.624,1.457C178.775,355.107,178.633,355.133,178.495,355.133z"/>
			<path style="fill:#241726;" d="M255.247,345.703c-0.587,0-1.082-0.456-1.119-1.049c-2.754-43.144-63.779-76.912-64.395-77.249     c-0.543-0.296-0.745-0.977-0.447-1.52c0.294-0.548,0.977-0.747,1.52-0.447c0.158,0.083,15.831,8.697,31.634,22.625     c14.657,12.922,32.441,33.203,33.926,56.447c0.039,0.62-0.429,1.152-1.047,1.192     C255.295,345.703,255.269,345.703,255.247,345.703z"/>
			<path style="fill:#241726;" d="M310.805,344.761c-0.541,0-1.016-0.392-1.106-0.944c-0.026-0.164-2.6-16.557-2.131-34.579     c0.635-24.46,6.28-40.138,16.78-46.598c0.519-0.324,1.216-0.16,1.542,0.368c0.324,0.528,0.16,1.218-0.368,1.542     c-23.569,14.502-13.709,78.27-13.606,78.912c0.096,0.613-0.32,1.187-0.931,1.286     C310.923,344.757,310.864,344.761,310.805,344.761z"/>
			<path style="fill:#241726;" d="M309.865,301.444c-0.35,0-0.699-0.164-0.916-0.475c-17.33-24.55-34.87-36.684-46.535-42.541     c-12.622-6.337-21.269-6.892-21.354-6.896c-0.618-0.035-1.091-0.563-1.058-1.181c0.035-0.618,0.51-1.106,1.181-1.058     c1.444,0.077,35.772,2.462,69.598,50.384c0.357,0.506,0.237,1.205-0.269,1.562C310.316,301.378,310.088,301.444,309.865,301.444z     "/>
			<path style="fill:#241726;" d="M139.417,422.924c-0.171,0-0.342-0.037-0.504-0.12c-0.554-0.278-0.775-0.951-0.497-1.505     c0.324-0.648,33.093-64.978,78.605-62.101c5.185,0.324,11.15,0.854,17.468,1.417c47.919,4.263,128.124,11.409,142.087-50.182     c0.138-0.605,0.729-0.995,1.341-0.846c0.605,0.136,0.984,0.736,0.846,1.341c-14.392,63.505-95.821,56.257-144.472,51.922     c-6.302-0.561-12.252-1.091-17.409-1.413c-43.86-2.808-76.143,60.235-76.463,60.87     C140.221,422.698,139.826,422.924,139.417,422.924z"/>
			<path style="fill:#241726;" d="M158.95,430.155c-0.215,0-0.432-0.061-0.622-0.188c-0.517-0.344-0.655-1.041-0.311-1.555     c1.426-2.136,35.251-52.303,64.491-55.341c12.887-1.341,29.319,0.824,46.721,3.115c50.173,6.613,107.037,14.09,126.2-48.881     c0.18-0.591,0.802-0.922,1.4-0.747c0.594,0.182,0.927,0.808,0.747,1.4c-19.718,64.789-80.11,56.839-128.641,50.454     c-17.264-2.274-33.571-4.421-46.195-3.111c-28.193,2.931-62.515,53.843-62.857,54.355     C159.667,429.98,159.312,430.155,158.95,430.155z"/>
			<path style="fill:#241726;" d="M162.733,364.588c-0.482,0-0.927-0.311-1.073-0.795c-6.311-20.741-45.573-27.457-45.968-27.523     c-0.611-0.101-1.025-0.677-0.924-1.288c0.101-0.613,0.683-1.03,1.288-0.924c1.674,0.276,41.032,7.01,47.751,29.082     c0.18,0.591-0.153,1.218-0.747,1.4C162.95,364.573,162.841,364.588,162.733,364.588z"/>
			<path style="fill:#241726;" d="M153.542,375.839c-0.456,0-0.885-0.28-1.051-0.734c-6.311-17.126-45.889-26.513-46.287-26.605     c-0.602-0.14-0.979-0.745-0.839-1.347c0.14-0.6,0.743-0.975,1.347-0.839c1.678,0.39,41.159,9.766,47.882,28.016     c0.215,0.581-0.083,1.227-0.664,1.439C153.802,375.817,153.671,375.839,153.542,375.839z"/>
			<path style="fill:#241726;" d="M140.359,385.256c-0.499,0-0.953-0.333-1.084-0.839c-5.36-20.548-38.097-19.869-38.438-19.88     c-0.613,0.004-1.135-0.471-1.152-1.091c-0.015-0.62,0.471-1.135,1.091-1.152c1.415-0.033,34.859-0.714,40.668,21.558     c0.158,0.598-0.202,1.211-0.802,1.367C140.547,385.245,140.451,385.256,140.359,385.256z"/>
			<path style="fill:#241726;" d="M132.256,397.53c-0.232,0-0.464-0.07-0.666-0.219c-8.184-6.033-9.089-28.793-9.124-29.759     c-0.022-0.618,0.462-1.139,1.082-1.161c0.598-0.013,1.139,0.462,1.161,1.082c0.007,0.226,0.896,22.64,8.213,28.033     c0.497,0.368,0.605,1.069,0.237,1.568C132.939,397.373,132.6,397.53,132.256,397.53z"/>
			<path style="fill:#241726;" d="M121.524,411.563c-0.302,0-0.602-0.12-0.824-0.359c-0.637-0.69-15.58-17.214-13.091-46.675     c0.053-0.618,0.6-1.049,1.211-1.023c0.618,0.053,1.076,0.594,1.023,1.211c-2.401,28.427,12.355,44.802,12.504,44.964     c0.421,0.453,0.392,1.163-0.064,1.584C122.069,411.465,121.796,411.563,121.524,411.563z"/>
			<path style="fill:#241726;" d="M276.844,432.048c-0.276,0-0.552-0.101-0.769-0.305c-0.451-0.427-11.076-10.716-10.44-35.521     c0.015-0.618,0.587-1.135,1.15-1.093c0.62,0.015,1.108,0.53,1.093,1.15c-0.611,23.81,9.632,33.733,9.735,33.829     c0.451,0.425,0.473,1.135,0.048,1.586C277.44,431.929,277.142,432.048,276.844,432.048z"/>
			<path style="fill:#241726;" d="M250.366,432.678c-0.44,0-0.857-0.261-1.036-0.692c-0.313-0.758-7.654-18.734-6.388-36.447     c0.046-0.618,0.581-1.082,1.2-1.038c0.618,0.044,1.082,0.581,1.038,1.2c-1.229,17.187,6.147,35.247,6.221,35.426     c0.237,0.574-0.035,1.229-0.607,1.465C250.655,432.652,250.509,432.678,250.366,432.678z"/>
			<path style="fill:#241726;" d="M227.038,432.678c-0.234,0-0.471-0.072-0.673-0.223c-7.923-5.945-8.015-31.948-8.015-33.052     c0-0.62,0.502-1.122,1.122-1.122s1.122,0.502,1.122,1.122c0,7.209,1.282,26.879,7.117,31.255     c0.495,0.372,0.596,1.076,0.226,1.571C227.715,432.523,227.378,432.678,227.038,432.678z"/>
			<path style="fill:#241726;" d="M366.996,421.96c-0.567,0-1.056-0.432-1.113-1.01c-1.275-12.727,6.664-33.672,7.003-34.557     c0.221-0.578,0.876-0.865,1.448-0.646c0.578,0.221,0.867,0.87,0.646,1.448c-0.081,0.212-8.088,21.334-6.868,33.532     c0.064,0.616-0.388,1.165-1.003,1.227C367.073,421.958,367.033,421.96,366.996,421.96z"/>
			<path style="fill:#241726;" d="M389.695,413.134c-0.018,0-0.037,0-0.057-0.002c-0.62-0.031-1.095-0.559-1.062-1.176     c0.077-1.501,1.972-36.934,8.267-53.304c0.221-0.576,0.865-0.861,1.45-0.644c0.578,0.223,0.865,0.872,0.644,1.45     c-6.169,16.04-8.103,52.248-8.123,52.612C390.784,412.669,390.288,413.134,389.695,413.134z"/>
			<path style="fill:#241726;" d="M344.932,425.743c-0.421,0-0.826-0.239-1.016-0.646c-4.563-9.777,1.595-26.04,1.86-26.728     c0.223-0.576,0.865-0.865,1.45-0.644c0.578,0.223,0.865,0.872,0.644,1.45c-0.061,0.16-6.081,16.061-1.921,24.971     c0.263,0.563,0.02,1.229-0.541,1.492C345.254,425.71,345.092,425.743,344.932,425.743z"/>
			<path style="fill:#241726;" d="M314.645,419.167c-22.662,0-45.593-7.52-46.982-7.983c-0.587-0.197-0.905-0.832-0.71-1.419     c0.197-0.587,0.837-0.9,1.42-0.71c0.486,0.164,48.999,16.072,74.121,1.978c0.537-0.298,1.222-0.11,1.527,0.432     c0.302,0.539,0.11,1.222-0.432,1.527C335.412,417.579,325.055,419.167,314.645,419.167z"/>
			<path style="fill:#241726;" d="M170.298,340.001c-0.366,0-0.725-0.18-0.94-0.51c-0.337-0.519-0.191-1.214,0.329-1.551     c0.401-0.261,40.662-25.985,82.323-10.83c0.583,0.21,0.883,0.854,0.67,1.437c-0.208,0.583-0.848,0.885-1.437,0.67     c-40.612-14.771-79.939,10.348-80.334,10.603C170.72,339.942,170.508,340.001,170.298,340.001z"/>
			<path style="fill:#241726;" d="M154.536,331.806c-0.298,0-0.594-0.118-0.815-0.35c-0.425-0.449-0.405-1.161,0.044-1.586     c0.357-0.335,36.202-33.678,80.949-29.304c0.618,0.061,1.067,0.611,1.008,1.227c-0.064,0.62-0.622,1.047-1.227,1.008     c-43.755-4.331-78.837,28.368-79.188,28.699C155.09,331.705,154.812,331.806,154.536,331.806z"/>
			<path style="fill:#241726;" d="M210.018,303.435c-0.208,0-0.416-0.057-0.602-0.175c-13.779-8.769-36.469-28.272-36.697-28.467     c-0.469-0.405-0.521-1.113-0.118-1.582c0.405-0.471,1.113-0.517,1.582-0.118c0.226,0.195,22.795,19.593,36.438,28.274     c0.521,0.333,0.677,1.025,0.344,1.549C210.749,303.251,210.388,303.435,210.018,303.435z"/>
			<path style="fill:#241726;" d="M187.952,310.371c-0.197,0-0.396-0.05-0.576-0.16c-0.907-0.543-22.285-13.411-32.344-22.839     c-0.451-0.425-0.475-1.135-0.053-1.586c0.425-0.456,1.135-0.473,1.586-0.053c9.884,9.266,31.744,22.423,31.963,22.554     c0.532,0.318,0.705,1.008,0.386,1.538C188.703,310.176,188.331,310.371,187.952,310.371z"/>
			<path style="fill:#241726;" d="M168.407,319.827c-0.079,0-0.162-0.009-0.243-0.026c-5.823-1.295-27.834-16.548-28.767-17.196     c-0.508-0.355-0.635-1.054-0.283-1.562c0.355-0.508,1.051-0.631,1.562-0.283c6.263,4.351,23.496,15.856,27.974,16.85     c0.605,0.136,0.986,0.734,0.852,1.338C169.386,319.473,168.922,319.827,168.407,319.827z"/>
			<path style="fill:#241726;" d="M204.342,273.174c-0.469,0-0.905-0.296-1.062-0.762c-0.199-0.587,0.116-1.222,0.703-1.422     c1.838-0.622,45.229-15.194,61.6-13.926c0.618,0.046,1.08,0.585,1.032,1.203c-0.046,0.62-0.624,1.122-1.203,1.032     c-15.996-1.236-60.266,13.665-60.71,13.816C204.583,273.155,204.46,273.174,204.342,273.174z"/>
			<path style="fill:#241726;" d="M218.747,286.462c-0.429,0-0.839-0.248-1.025-0.666c-0.252-0.565,0.004-1.229,0.57-1.481     c1.636-0.727,40.379-17.796,64.999-14.638c0.616,0.079,1.049,0.642,0.97,1.255c-0.079,0.613-0.655,1.047-1.255,0.97     c-24.013-3.071-63.409,14.285-63.803,14.462C219.054,286.432,218.9,286.462,218.747,286.462z"/>
			<path style="fill:#241726;" d="M270.539,346.936c-0.602,0-1.1-0.478-1.122-1.082c-0.013-0.368-1.625-37.122-31.816-66.695     c-0.442-0.434-0.451-1.143-0.018-1.586c0.436-0.445,1.146-0.449,1.586-0.018c30.857,30.226,32.478,67.845,32.491,68.222     c0.02,0.618-0.464,1.137-1.082,1.159C270.566,346.936,270.553,346.936,270.539,346.936z"/>
			<path style="fill:#241726;" d="M295.124,346.305c-0.583,0-1.076-0.453-1.117-1.045c-0.031-0.456-3.439-45.961-29.33-73.705     c-0.423-0.451-0.399-1.161,0.055-1.584c0.449-0.423,1.161-0.397,1.584,0.055c26.445,28.333,29.897,74.616,29.93,75.081     c0.042,0.618-0.425,1.152-1.043,1.196C295.177,346.305,295.151,346.305,295.124,346.305z"/>
			<path style="fill:#241726;" d="M326.647,340.001c-0.532,0-1.005-0.381-1.102-0.927c-0.366-2.057-8.699-50.627,11.698-69.113     c0.46-0.414,1.168-0.381,1.584,0.077c0.416,0.46,0.381,1.168-0.077,1.584c-19.49,17.663-11.084,66.57-10.997,67.063     c0.107,0.609-0.298,1.192-0.909,1.299C326.779,339.994,326.713,340.001,326.647,340.001z"/>
			<path style="fill:#241726;" d="M346.823,328.023c-0.486,0-0.933-0.318-1.078-0.808c-0.368-1.262-8.832-31.113,7.901-45.913     c0.46-0.414,1.17-0.372,1.582,0.096c0.412,0.464,0.368,1.172-0.096,1.582c-15.663,13.856-7.319,43.313-7.231,43.608     c0.173,0.594-0.169,1.216-0.764,1.389C347.031,328.007,346.926,328.023,346.823,328.023z"/>
			<path style="fill:#241726;" d="M312.779,276.327c-0.307,0-0.613-0.125-0.835-0.372c-0.162-0.182-16.445-18.173-35.505-25.553     c-0.578-0.223-0.865-0.872-0.64-1.45c0.223-0.581,0.876-0.865,1.45-0.64c19.569,7.575,36.2,25.961,36.364,26.145     c0.414,0.462,0.375,1.17-0.085,1.584C313.313,276.232,313.046,276.327,312.779,276.327z"/>
		</g>
		<path style="fill:#AC2E2D;" d="M139.304,300.17c0,0,9.266,46.267,63.653,23.678c44.255-18.381,32.431,13.771,89.648,13.771    s74.056-50.327,67.699-53.505S236.718,181.102,139.304,300.17z"/>
		<path style="fill:#241726;" d="M280.763,328.117c-0.039,0-0.079-0.002-0.12-0.007c-6.679-0.703-15.012-5.071-23.834-9.696    c-8.664-4.543-17.626-9.24-26.149-11.207c-8.602-1.978-20.936,1.926-32.872,5.704c-11.632,3.682-22.62,7.161-28.653,4.32    c-11.704-5.507-17.168-18.226-17.396-18.765c-0.241-0.572,0.028-1.229,0.598-1.47c0.563-0.237,1.227,0.028,1.47,0.598    c0.053,0.125,5.371,12.471,16.283,17.608c5.244,2.464,15.821-0.885,27.021-4.432c12.221-3.869,24.855-7.873,34.053-5.75    c8.806,2.033,17.897,6.797,26.688,11.406c8.624,4.521,16.773,8.793,23.028,9.452c0.616,0.064,1.062,0.616,0.997,1.233    C281.817,327.69,281.328,328.117,280.763,328.117z"/>
		<path style="fill:#241726;" d="M306.358,320.033c-0.611,0-1.111-0.489-1.122-1.102c-0.011-0.618,0.482-1.13,1.1-1.141    c0.364-0.007,36.335-1.016,44.754-29.51c0.177-0.594,0.804-0.927,1.393-0.758c0.594,0.175,0.933,0.8,0.758,1.393    c-8.887,30.081-46.485,31.111-46.863,31.117C306.371,320.033,306.364,320.033,306.358,320.033z"/>
		<g>
			<path style="fill:#A6B470;" d="M256.456,273.405c0,0-11.19-54.471-56.988-33.33c0,0,18.422,38.181,54.655,39.283     c0,0,45.19-3.417,46.616-42.904C300.739,236.454,268.504,224.346,256.456,273.405z"/>
			<path style="fill:#70A471;" d="M247.574,274.037c0,0-25.594-16.227-29.275-27.769C218.3,246.267,245.734,247.773,247.574,274.037     z"/>
			<path style="fill:#241726;" d="M251.794,273.553c-0.469,0-0.905-0.296-1.062-0.765c-1.812-5.393-19.275-18.44-25.849-23.014     c-0.508-0.353-0.635-1.051-0.28-1.56c0.353-0.508,1.051-0.635,1.56-0.28c0.99,0.688,24.278,16.944,26.695,24.14     c0.197,0.587-0.118,1.222-0.705,1.42C252.033,273.536,251.913,273.553,251.794,273.553z"/>
			<path style="fill:#70A471;" d="M264.805,270.022c0,0,23.754-17.397,25.594-25.929     C290.399,244.093,266.645,242.253,264.805,270.022z"/>
			<path style="fill:#241726;" d="M262.128,273.15c-0.022,0-0.046,0-0.07-0.002c-0.618-0.039-1.089-0.572-1.049-1.189     c0.703-11.238,17.775-21.608,18.5-22.044c0.537-0.315,1.222-0.142,1.54,0.383c0.318,0.532,0.147,1.22-0.383,1.54     c-0.169,0.101-16.787,10.199-17.417,20.261C263.21,272.692,262.717,273.15,262.128,273.15z"/>
		</g>
		<path style="fill:#241726;" d="M326.873,267.498c-0.394,0-0.778-0.21-0.981-0.581c-1.229-2.228-4.957-2.62-4.995-2.622    c-0.616-0.061-1.067-0.609-1.008-1.225c0.057-0.616,0.611-1.054,1.22-1.01c0.202,0.02,4.942,0.502,6.745,3.774    c0.3,0.543,0.103,1.225-0.44,1.522C327.243,267.455,327.057,267.498,326.873,267.498z"/>
		<path style="fill:#241726;" d="M318.741,274.8c-0.394,0-0.778-0.21-0.981-0.581c-1.229-2.228-4.957-2.62-4.995-2.622    c-0.616-0.061-1.067-0.609-1.008-1.225c0.059-0.616,0.618-1.043,1.22-1.01c0.202,0.02,4.942,0.502,6.745,3.774    c0.3,0.543,0.103,1.225-0.44,1.522C319.112,274.756,318.925,274.8,318.741,274.8z"/>
		<path style="fill:#241726;" d="M313.979,266.675c-0.394,0-0.778-0.21-0.981-0.581c-1.229-2.23-4.957-2.622-4.995-2.624    c-0.616-0.061-1.067-0.609-1.008-1.225c0.059-0.618,0.653-1.043,1.22-1.01c0.202,0.02,4.942,0.504,6.745,3.777    c0.3,0.543,0.103,1.225-0.44,1.522C314.349,266.631,314.163,266.675,313.979,266.675z"/>
		<path style="fill:#241726;" d="M326.115,279.812c-0.394,0-0.778-0.21-0.984-0.581c-1.214-2.21-4.951-2.622-4.988-2.624    c-0.616-0.059-1.069-0.605-1.012-1.222c0.059-0.616,0.627-1.056,1.222-1.012c0.202,0.02,4.942,0.502,6.745,3.777    c0.298,0.543,0.099,1.225-0.443,1.525C326.483,279.768,326.299,279.812,326.115,279.812z"/>
		<path style="fill:#241726;" d="M335.916,275.834c-0.394,0-0.778-0.21-0.984-0.581c-1.227-2.23-4.955-2.622-4.992-2.624    c-0.616-0.061-1.067-0.609-1.008-1.225s0.618-1.054,1.22-1.01c0.202,0.02,4.942,0.502,6.747,3.777    c0.298,0.543,0.101,1.225-0.442,1.525C336.286,275.79,336.1,275.834,335.916,275.834z"/>
		<path style="fill:#241726;" d="M339.324,288.736c-0.394,0-0.778-0.21-0.984-0.581c-1.227-2.23-4.955-2.622-4.992-2.624    c-0.616-0.061-1.067-0.609-1.008-1.225c0.057-0.618,0.611-1.051,1.22-1.01c0.202,0.02,4.942,0.502,6.747,3.777    c0.298,0.543,0.101,1.225-0.442,1.525C339.694,288.693,339.508,288.736,339.324,288.736z"/>
		<path style="fill:#241726;" d="M323.399,285.067c-0.394,0-0.778-0.21-0.981-0.581c-1.229-2.228-4.957-2.62-4.995-2.622    c-0.616-0.061-1.067-0.609-1.008-1.225c0.057-0.618,0.609-1.049,1.22-1.01c0.202,0.02,4.942,0.502,6.745,3.774    c0.3,0.543,0.103,1.225-0.44,1.522C323.769,285.023,323.583,285.067,323.399,285.067z"/>
		<path style="fill:#241726;" d="M307.679,278.811c-0.394,0-0.778-0.21-0.984-0.581c-1.227-2.23-4.955-2.622-4.992-2.624    c-0.616-0.061-1.067-0.609-1.008-1.225c0.057-0.616,0.609-1.045,1.22-1.01c0.202,0.02,4.942,0.502,6.747,3.777    c0.298,0.543,0.101,1.225-0.443,1.525C308.049,278.767,307.863,278.811,307.679,278.811z"/>
		<path style="fill:#241726;" d="M306.656,270.699c-0.219,0-0.44-0.064-0.635-0.197c-2.085-1.43-5.606-0.123-5.639-0.107    c-0.574,0.226-1.227-0.061-1.452-0.637c-0.226-0.578,0.061-1.229,0.637-1.452c0.191-0.077,4.642-1.766,7.724,0.348    c0.51,0.35,0.64,1.049,0.289,1.56C307.363,270.528,307.013,270.699,306.656,270.699z"/>
	</g>
	<g>
		<circle style="fill:#AC2E2D;" cx="104.581" cy="408.878" r="34.966"/>
		<path style="fill:#241726;" d="M124.214,388.753c-0.497,0-0.951-0.331-1.084-0.832c-0.815-3.056-5.187-4.664-5.231-4.679    c-0.585-0.204-0.894-0.843-0.688-1.428s0.841-0.894,1.428-0.688c0.226,0.079,5.527,1.976,6.659,6.217    c0.16,0.598-0.197,1.214-0.795,1.374C124.407,388.739,124.308,388.753,124.214,388.753z"/>
		<path style="fill:#241726;" d="M112.573,394.945c-0.497,0-0.951-0.331-1.084-0.832c-0.815-3.056-5.187-4.666-5.231-4.681    c-0.585-0.204-0.894-0.843-0.688-1.428c0.204-0.585,0.843-0.898,1.428-0.688c0.226,0.079,5.527,1.98,6.659,6.219    c0.16,0.598-0.197,1.214-0.795,1.374C112.766,394.932,112.667,394.945,112.573,394.945z"/>
		<path style="fill:#241726;" d="M109.353,384.047c-0.497,0-0.951-0.331-1.084-0.832c-0.821-3.087-5.19-4.664-5.233-4.679    c-0.583-0.206-0.889-0.846-0.686-1.43c0.206-0.583,0.846-0.894,1.428-0.686c0.226,0.079,5.529,1.976,6.659,6.217    c0.16,0.598-0.197,1.214-0.795,1.374C109.546,384.034,109.447,384.047,109.353,384.047z"/>
		<path style="fill:#241726;" d="M124.957,403.861c-0.497,0-0.951-0.331-1.084-0.832c-0.821-3.087-5.19-4.664-5.233-4.679    c-0.583-0.206-0.889-0.846-0.686-1.43c0.206-0.583,0.841-0.896,1.428-0.686c0.226,0.079,5.529,1.976,6.659,6.217    c0.16,0.598-0.197,1.214-0.795,1.374C125.149,403.85,125.051,403.861,124.957,403.861z"/>
		<path style="fill:#241726;" d="M132.387,401.136c-0.497,0-0.951-0.331-1.084-0.832c-0.815-3.056-5.187-4.664-5.231-4.679    c-0.585-0.204-0.894-0.843-0.688-1.428c0.204-0.585,0.841-0.896,1.428-0.688c0.226,0.079,5.527,1.976,6.659,6.217    c0.16,0.598-0.197,1.214-0.795,1.374C132.58,401.123,132.481,401.136,132.387,401.136z"/>
		<path style="fill:#241726;" d="M132.635,417.235c-0.497,0-0.951-0.331-1.084-0.832c-0.815-3.056-5.187-4.664-5.231-4.679    c-0.585-0.204-0.894-0.843-0.688-1.428c0.206-0.583,0.846-0.898,1.428-0.688c0.226,0.079,5.527,1.976,6.659,6.217    c0.16,0.598-0.197,1.214-0.795,1.374C132.827,417.222,132.729,417.235,132.635,417.235z"/>
		<path style="fill:#241726;" d="M115.048,408.319c-0.497,0-0.951-0.331-1.084-0.832c-0.821-3.087-5.187-4.664-5.231-4.679    c-0.583-0.206-0.889-0.846-0.686-1.43c0.206-0.583,0.846-0.894,1.428-0.686c0.226,0.079,5.527,1.976,6.657,6.217    c0.16,0.598-0.197,1.214-0.795,1.374C115.241,408.306,115.143,408.319,115.048,408.319z"/>
		<path style="fill:#241726;" d="M98.455,396.431c-0.497,0-0.951-0.331-1.084-0.832c-0.821-3.087-5.187-4.664-5.231-4.679    c-0.583-0.206-0.889-0.846-0.686-1.43c0.206-0.581,0.843-0.896,1.428-0.686c0.226,0.079,5.527,1.976,6.657,6.217    c0.16,0.598-0.197,1.214-0.795,1.374C98.647,396.42,98.549,396.431,98.455,396.431z"/>
		<path style="fill:#241726;" d="M99.609,386.636c-0.309,0-0.618-0.127-0.839-0.377c-2.12-2.39-6.734-1.847-6.776-1.838    c-0.635,0.085-1.179-0.359-1.253-0.973c-0.079-0.613,0.353-1.174,0.968-1.253c0.232-0.031,5.827-0.705,8.738,2.574    c0.412,0.464,0.368,1.172-0.094,1.584C100.139,386.542,99.874,386.636,99.609,386.636z"/>
	</g>
	<g>
		<circle style="fill:#AC2E2D;" cx="230.04" cy="422.748" r="34.966"/>
		<path style="fill:#241726;" d="M249.672,402.623c-0.497,0-0.951-0.331-1.084-0.832c-0.821-3.089-5.187-4.666-5.231-4.681    c-0.583-0.206-0.889-0.848-0.686-1.43c0.208-0.583,0.841-0.894,1.428-0.686c0.226,0.079,5.527,1.98,6.657,6.219    c0.16,0.598-0.197,1.214-0.795,1.374C249.865,402.612,249.766,402.623,249.672,402.623z"/>
		<path style="fill:#241726;" d="M238.031,408.814c-0.497,0-0.951-0.331-1.084-0.832c-0.821-3.087-5.187-4.664-5.231-4.679    c-0.583-0.206-0.889-0.846-0.686-1.43c0.206-0.583,0.841-0.892,1.428-0.686c0.226,0.079,5.527,1.976,6.657,6.217    c0.16,0.598-0.197,1.214-0.795,1.374C238.224,408.801,238.125,408.814,238.031,408.814z"/>
		<path style="fill:#241726;" d="M234.811,397.916c-0.497,0-0.951-0.331-1.084-0.832c-0.821-3.087-5.187-4.664-5.231-4.679    c-0.583-0.206-0.889-0.848-0.686-1.43c0.208-0.583,0.846-0.894,1.428-0.686c0.226,0.079,5.527,1.98,6.657,6.217    c0.16,0.598-0.197,1.214-0.795,1.374C235.003,397.903,234.905,397.916,234.811,397.916z"/>
		<path style="fill:#241726;" d="M250.414,417.73c-0.497,0-0.951-0.331-1.084-0.832c-0.821-3.087-5.187-4.664-5.231-4.679    c-0.583-0.206-0.889-0.846-0.686-1.43c0.206-0.583,0.846-0.894,1.428-0.686c0.226,0.079,5.527,1.976,6.657,6.217    c0.16,0.598-0.197,1.214-0.795,1.374C250.607,417.717,250.509,417.73,250.414,417.73z"/>
		<path style="fill:#241726;" d="M257.845,415.007c-0.497,0-0.951-0.331-1.084-0.832c-0.821-3.089-5.187-4.666-5.231-4.681    c-0.583-0.206-0.889-0.848-0.686-1.43c0.208-0.583,0.846-0.894,1.428-0.686c0.226,0.079,5.527,1.98,6.657,6.219    c0.16,0.598-0.197,1.214-0.795,1.374C258.038,414.996,257.939,415.007,257.845,415.007z"/>
		<path style="fill:#241726;" d="M258.092,431.106c-0.497,0-0.951-0.331-1.084-0.832c-0.821-3.089-5.187-4.666-5.231-4.681    c-0.583-0.206-0.889-0.848-0.686-1.43c0.208-0.583,0.843-0.894,1.428-0.686c0.226,0.079,5.527,1.98,6.657,6.219    c0.16,0.598-0.197,1.214-0.795,1.374C258.285,431.095,258.187,431.106,258.092,431.106z"/>
		<path style="fill:#241726;" d="M240.508,422.19c-0.497,0-0.951-0.331-1.084-0.832c-0.815-3.056-5.187-4.666-5.231-4.681    c-0.585-0.204-0.894-0.843-0.688-1.428c0.206-0.585,0.841-0.9,1.428-0.688c0.226,0.079,5.529,1.98,6.659,6.219    c0.16,0.598-0.197,1.214-0.795,1.374C240.701,422.179,240.603,422.19,240.508,422.19z"/>
		<path style="fill:#241726;" d="M223.915,410.301c-0.497,0-0.951-0.331-1.084-0.832c-0.815-3.056-5.187-4.666-5.231-4.681    c-0.585-0.204-0.894-0.843-0.688-1.428c0.206-0.585,0.843-0.896,1.428-0.688c0.226,0.079,5.527,1.98,6.659,6.219    c0.16,0.598-0.197,1.214-0.795,1.374C224.107,410.288,224.009,410.301,223.915,410.301z"/>
		<path style="fill:#241726;" d="M225.067,400.505c-0.309,0-0.618-0.127-0.839-0.377c-2.12-2.392-6.734-1.847-6.773-1.838    c-0.635,0.088-1.179-0.359-1.253-0.973c-0.079-0.613,0.353-1.174,0.968-1.253c0.23-0.031,5.827-0.705,8.736,2.574    c0.412,0.464,0.368,1.174-0.094,1.584C225.597,400.413,225.332,400.505,225.067,400.505z"/>
	</g>
	<g>
		<circle style="fill:#AC2E2D;" cx="376.304" cy="403.204" r="34.966"/>
		<path style="fill:#241726;" d="M395.936,383.079c-0.497,0-0.951-0.331-1.084-0.832c-0.821-3.087-5.19-4.664-5.233-4.679    c-0.583-0.206-0.889-0.846-0.686-1.43c0.206-0.583,0.843-0.892,1.428-0.686c0.226,0.079,5.529,1.976,6.659,6.217    c0.16,0.598-0.197,1.214-0.795,1.374C396.129,383.066,396.03,383.079,395.936,383.079z"/>
		<path style="fill:#241726;" d="M384.295,389.27c-0.497,0-0.951-0.331-1.084-0.832c-0.821-3.087-5.187-4.664-5.231-4.679    c-0.583-0.206-0.889-0.848-0.686-1.43c0.208-0.583,0.841-0.894,1.428-0.686c0.226,0.079,5.527,1.98,6.657,6.217    c0.16,0.598-0.197,1.214-0.795,1.374C384.488,389.256,384.389,389.27,384.295,389.27z"/>
		<path style="fill:#241726;" d="M381.075,378.373c-0.497,0-0.951-0.331-1.084-0.832c-0.821-3.089-5.187-4.666-5.231-4.681    c-0.583-0.206-0.889-0.848-0.686-1.43c0.208-0.581,0.846-0.896,1.428-0.686c0.226,0.079,5.527,1.98,6.657,6.219    c0.16,0.598-0.197,1.214-0.795,1.374C381.268,378.362,381.169,378.373,381.075,378.373z"/>
		<path style="fill:#241726;" d="M396.678,398.187c-0.497,0-0.951-0.331-1.084-0.832c-0.821-3.089-5.187-4.666-5.231-4.681    c-0.583-0.206-0.889-0.848-0.686-1.43c0.208-0.581,0.846-0.896,1.428-0.686c0.226,0.079,5.527,1.98,6.657,6.219    c0.16,0.598-0.197,1.214-0.795,1.374C396.871,398.176,396.773,398.187,396.678,398.187z"/>
		<path style="fill:#241726;" d="M404.109,395.462c-0.497,0-0.951-0.331-1.084-0.832c-0.821-3.087-5.19-4.664-5.233-4.679    c-0.583-0.206-0.889-0.846-0.686-1.43c0.204-0.583,0.843-0.894,1.428-0.686c0.226,0.079,5.529,1.976,6.659,6.217    c0.16,0.598-0.197,1.214-0.795,1.374C404.302,395.451,404.203,395.462,404.109,395.462z"/>
		<path style="fill:#241726;" d="M404.357,411.561c-0.497,0-0.951-0.331-1.084-0.832c-0.821-3.087-5.187-4.664-5.231-4.679    c-0.583-0.206-0.889-0.846-0.686-1.43c0.204-0.583,0.843-0.892,1.428-0.686c0.226,0.079,5.527,1.976,6.657,6.217    c0.16,0.598-0.197,1.214-0.795,1.374C404.549,411.548,404.451,411.561,404.357,411.561z"/>
		<path style="fill:#241726;" d="M386.773,402.645c-0.497,0-0.951-0.331-1.084-0.832c-0.815-3.056-5.187-4.666-5.231-4.681    c-0.585-0.204-0.894-0.843-0.688-1.428c0.206-0.585,0.841-0.896,1.428-0.688c0.226,0.079,5.527,1.98,6.659,6.219    c0.16,0.598-0.197,1.214-0.795,1.374C386.965,402.632,386.867,402.645,386.773,402.645z"/>
		<path style="fill:#241726;" d="M370.177,390.757c-0.497,0-0.951-0.331-1.084-0.832c-0.821-3.089-5.187-4.666-5.231-4.681    c-0.583-0.206-0.889-0.848-0.686-1.43c0.208-0.583,0.843-0.896,1.428-0.686c0.226,0.079,5.527,1.98,6.657,6.219    c0.16,0.598-0.197,1.214-0.795,1.374C370.369,390.746,370.271,390.757,370.177,390.757z"/>
		<path style="fill:#241726;" d="M371.331,380.963c-0.309,0-0.618-0.127-0.839-0.377c-2.121-2.394-6.736-1.842-6.776-1.838    c-0.605,0.079-1.176-0.357-1.253-0.97c-0.079-0.613,0.353-1.176,0.966-1.255c0.239-0.031,5.831-0.708,8.74,2.576    c0.412,0.462,0.368,1.172-0.094,1.582C371.861,380.871,371.596,380.963,371.331,380.963z"/>
	</g>
	<path style="fill:#241726;" d="M241.065,512c-1.928,0-3.847-0.009-5.805-0.024c-57.54-0.482-135.344-10.822-179.244-57.341   c-26.373-27.95-27.945-56.165-27.956-56.447c-0.028-0.618,0.449-1.141,1.067-1.17c0.631-0.066,1.146,0.449,1.172,1.067   c0.013,0.276,1.586,27.788,27.47,55.137c23.945,25.304,74.178,55.646,177.509,56.511c1.947,0.015,3.882,0.024,5.796,0.024   c127.78,0,187.662-35.904,215.443-66.283c17.499-19.139,26.824-42.02,24.942-61.21c-0.059-0.616,0.392-1.165,1.008-1.227   c0.62-0.026,1.168,0.392,1.227,1.008c1.941,19.812-7.599,43.341-25.523,62.942C430.087,475.7,369.651,512,241.065,512z"/>
</g>















</svg>
