<?xml version="1.0" encoding="UTF-8"?>
<!-- Generator: Adobe Illustrator 25.2.0, SVG Export Plug-In . SVG Version: 6.00 Build 0)  -->
<svg xmlns="http://www.w3.org/2000/svg" xmlns:xlink="http://www.w3.org/1999/xlink" version="1.1" id="Capa_1" x="0px" y="0px" viewBox="0 0 512 512" style="enable-background:new 0 0 512 512;" xml:space="preserve" width="512" height="512">
<g>
	<path style="fill:#251626;" d="M278.289,482.275c-90.598,0-185.106-6.76-235.425-17.059c-25.378-5.195-38.929-10.877-41.428-17.372   c-2.205-5.735-1.871-11.721,0.994-17.792c13.706-29.041,80.94-51.729,83.796-52.68c0.735-0.248,1.513,0.15,1.754,0.876   c0.242,0.727-0.15,1.513-0.876,1.754c-0.688,0.23-68.965,23.262-82.165,51.234c-2.529,5.358-2.836,10.611-0.913,15.609   c1.182,3.076,7.874,9.2,39.393,15.65c116.06,23.757,419.125,24.884,456.258-13.345c8.268-8.512,11.18-16.64,8.654-24.16   c-9.82-29.243-95.772-42.72-96.639-42.853c-0.757-0.115-1.277-0.824-1.161-1.581c0.115-0.756,0.807-1.284,1.581-1.161   c3.608,0.553,88.496,13.881,98.85,44.711c2.882,8.584-0.245,17.66-9.296,26.978C479.918,473.475,381.648,482.275,278.289,482.275z"/>
	<path style="fill:#F9DD96;" d="M37.407,229.584c0,0,24.966,194.183,30.514,213.601c5.548,19.418,385.591,11.096,382.817,0   c-2.774-11.096,19.418-216.375,5.548-219.149S48.503,212.94,37.407,229.584z"/>
	<path style="fill:#EB867B;" d="M37.407,229.584c0,0,110.962-183.087,152.572-169.216s274.63,138.702,266.308,163.668   S29.085,249.002,37.407,229.584z"/>
	<path style="fill:#AC2E2D;" d="M47.655,307.429c4.33,32.257,9.297,68.38,13.351,95.479c45.027,6.394,344.609,6.271,391.791-4.003   c1.928-26.764,4.637-61.593,6.378-93.119C396.155,319.377,89.314,308.922,47.655,307.429z"/>
	<path style="fill:#251626;" d="M224.624,385.44c-9.086,0.001-15.199-4.169-18.989-8.211c-0.396-0.42-0.776-0.852-1.143-1.292   c-4.832,3.518-12.474,6.323-24.419,5.524c-11.708-0.791-20.285-3.692-26.28-7.543c-3.469,2.569-7.538,4.7-12.185,6.099   c-12.728,3.839-27.457,1.933-37.2-3.863c-4.691,3.086-10.646,4.781-17.907,3.913c-18.554-2.224-27.154-12.493-31.101-20.716   c-4.257-8.865-4.129-17.102-4.122-17.447c0.016-0.765,0.665-1.291,1.415-1.356c0.765,0.015,1.373,0.649,1.359,1.414   c-0.026,1.28-0.238,31.392,32.779,35.35c6.343,0.767,11.272-0.57,15.084-2.808c-2.568-1.891-4.658-4.1-6.097-6.582   c-2.37-4.085-4.809-12.395,5.478-22.141c6.342-6.011,10.365-5.512,12.625-4.023c4.203,2.762,4.978,10.995,1.842,19.577   c-1.727,4.726-4.695,9.457-8.932,13.01c8.588,4.752,21.432,6.794,33.977,3.017c3.999-1.206,7.536-2.988,10.595-5.132   c-5.662-4.397-8.437-9.696-9.006-14.462c-0.97-8.138,3.961-15.145,12.562-17.851c5.609-1.762,8.791-0.276,10.474,1.281   c2.713,2.509,3.552,7.053,2.303,12.467c-1.409,6.097-5.356,12.99-11.665,18.431c5.568,3.35,13.468,5.873,24.189,6.596   c9.468,0.638,17.205-1.096,22.565-4.958c-5.642-8.187-7.156-18.696-5.104-24.827c1.055-3.151,3.04-5.127,5.586-5.567   c2.807-0.488,5.448,0.796,7.432,3.607c3.352,4.743,4.528,14.037,0.104,21.917c-0.89,1.586-2.23,3.477-4.207,5.31   c0.329,0.396,0.669,0.782,1.021,1.157c4.416,4.707,12.384,9.599,25.281,6.178c6.407-1.699,12.348-3.993,17.572-6.59   c-2.135-1.651-3.982-3.614-5.486-5.865c-3.879-5.808-4.508-12.479-1.64-17.41c2.933-5.043,8.945-7.496,16.925-6.934   c11.584,0.829,14.413,5.226,14.747,8.768c0.623,6.618-7.214,14.942-19.039,21.655c5.57,2.855,12.602,3.916,20.301,2.874   c10.628-1.428,18.661-5.415,24.285-10.174c-5.373-4.914-8.092-10.718-8.321-15.677c-0.302-6.556,3.751-11.112,10.324-11.607   c6.103-0.461,10.256,2.736,10.843,8.342c0.572,5.451-2.284,12.602-8.493,18.805c6.548,4.867,16.318,8.425,29.607,8.218   c10.716-0.18,17.609-3.075,22.015-6.428c-6.293-3.531-10.445-8.741-11.596-14.071c-1.364-6.323,1.797-11.722,8.252-14.091   c4.057-1.489,7.969-0.685,10.732,2.2c3.981,4.157,4.819,11.714,2.041,18.379c-0.726,1.741-2.091,4.302-4.534,6.903   c4.416,1.768,9.839,2.725,16.22,2.258c7-0.515,13.38-3.619,18.694-7.818c-2.888-3.602-4.268-7.518-4.492-11.093   c-0.53-8.487,5.012-16.188,13.788-19.162c4.284-1.453,6.529-0.36,7.661,0.814c2.07,2.152,2.095,6.246,0.074,11.523   c-2.045,5.339-6.559,12.437-12.999,18.225c3.676,3.543,9.282,6.583,17.322,8.23c8.54,1.749,15.544,0.605,20.808-3.4   c9.102-6.924,10.105-20.169,10.113-20.303c0.053-0.763,0.687-1.298,1.479-1.289c0.764,0.053,1.341,0.714,1.289,1.479   c-0.041,0.593-1.108,14.642-11.202,22.321c-5.933,4.516-13.681,5.831-23.046,3.909c-8.739-1.791-14.859-5.173-18.89-9.144   c-5.633,4.504-12.532,7.898-20.396,8.475c-7.098,0.53-13.412-0.691-18.583-2.977c-4.757,4.017-12.432,7.629-24.705,7.836   c-14.332,0.211-24.823-3.645-31.799-9.005c-6.12,5.26-14.844,9.557-26.124,11.073c-9.031,1.214-17.255-0.274-23.563-4.055   c-5.843,3.026-12.49,5.637-19.475,7.489C230.36,385.063,227.357,385.44,224.624,385.44z M258.095,347.404   c-5.847,0-10.179,1.967-12.314,5.636c-2.33,4.007-1.736,9.553,1.55,14.474c1.573,2.354,3.576,4.356,5.929,5.976   c11.996-6.521,19.528-14.495,19.034-19.751c-0.329-3.499-4.655-5.723-12.182-6.262   C259.421,347.428,258.748,347.404,258.095,347.404z M110.644,343.578c-1.946,0-4.511,1.438-7.442,4.215   c-6.693,6.342-8.417,12.82-4.985,18.737c1.336,2.305,3.454,4.451,6.154,6.3c5.287-4.139,7.853-9.897,8.785-12.447   c2.568-7.03,2.228-14.346-0.759-16.308C111.89,343.742,111.303,343.578,110.644,343.578z M204.444,346.015   c-0.215,0-0.438,0.019-0.666,0.058c-1.914,0.331-2.92,2.202-3.427,3.714c-1.818,5.429-0.279,14.882,4.623,22.164   c1.365-1.306,2.521-2.789,3.45-4.446c3.867-6.888,2.911-14.908,0.049-18.958C207.629,347.352,206.274,346.015,204.444,346.015z    M159.65,341.895c-1.337,0-2.702,0.303-3.86,0.668c-7.267,2.286-11.443,8.126-10.638,14.875c0.513,4.302,3.133,9.098,8.521,13.063   c6.177-5.092,10.022-11.669,11.359-17.461c1.005-4.352,0.451-8.017-1.483-9.807C162.476,342.242,161.079,341.895,159.65,341.895z    M357.195,343.351c-0.951,0-1.956,0.192-3.006,0.577c-5.211,1.914-7.578,5.887-6.496,10.902c0.928,4.295,4.697,9.395,11.1,12.745   c2.572-2.518,3.95-5.056,4.651-6.74c2.368-5.678,1.758-12.008-1.483-15.391C360.632,344.054,359.014,343.351,357.195,343.351z    M303.792,343.278c-0.316,0-0.642,0.012-0.978,0.038c-5.094,0.383-7.996,3.641-7.761,8.714c0.198,4.292,2.733,9.441,7.679,13.857   c5.86-5.803,8.416-12.342,7.958-16.705C310.288,345.347,307.852,343.278,303.792,343.278z M409.41,335.06   c-0.926,0-1.96,0.26-2.836,0.558c-7.692,2.606-12.367,9.029-11.91,16.361c0.191,3.046,1.376,6.381,3.848,9.482   c5.934-5.292,10.288-11.83,12.315-17.125c1.546-4.034,1.743-7.332,0.516-8.608C410.874,335.24,410.18,335.06,409.41,335.06z"/>
	<g>
		<path style="fill:#E2394B;" d="M368.31,213.657c0,0-7.412-77.521,31.424-74.747s60.335,72.125,32.595,78.367    C404.589,223.518,370.39,226.834,368.31,213.657z"/>
		<g>
			<path style="fill:#FFFFFF;" d="M362.614,218.54c0,0-3.255-21.157,21.97-26.039c25.225-4.882,45.568-24.818,55.74-18.715     c10.171,6.103,26.039,30.921,6.103,46.382S362.614,238.069,362.614,218.54z"/>
			<path style="fill:#251626;" d="M396.403,233.863c-22.027,0-35.177-5.728-35.177-15.324c-0.019-0.014-3.138-22.322,23.094-27.4     c11.341-2.196,21.609-7.448,30.666-12.084c8.187-4.189,15.257-7.807,20.842-7.807c1.965,0,3.718,0.454,5.209,1.348     c6.121,3.673,15.531,14.984,16.283,27.594c0.496,8.306-2.977,15.593-10.044,21.073     C437.71,228.682,416.79,233.863,396.403,233.863z M435.829,174.022c-4.915,0-11.71,3.477-19.578,7.503     c-9.222,4.719-19.676,10.068-31.402,12.337c-23.644,4.577-20.99,23.657-20.865,24.467c0.016,7.835,12.735,12.761,32.419,12.761     c19.829,0,40.049-4.941,49.173-12.017c6.401-4.964,9.421-11.261,8.976-18.717c-0.664-11.108-9.104-21.878-14.942-25.381     C438.543,174.334,437.305,174.022,435.829,174.022z"/>
		</g>
		<path style="fill:#251626;" d="M368.308,226.84c-0.592,0-1.139-0.381-1.323-0.977c-0.053-0.171-4.99-17.254,20.002-25.726    c5.085-1.723,10.652-3.314,16.036-4.855c14.923-4.267,30.353-8.678,33.158-15.429c0.779-1.877,0.539-3.909-0.733-6.212    c-0.371-0.67-0.127-1.514,0.543-1.884c0.672-0.374,1.514-0.126,1.884,0.543c1.685,3.048,1.976,5.946,0.867,8.617    c-3.317,7.985-18.687,12.379-34.957,17.032c-5.352,1.531-10.886,3.113-15.907,4.815c-22.348,7.576-18.419,21.691-18.24,22.288    c0.218,0.731-0.195,1.505-0.926,1.727C368.577,226.821,368.442,226.84,368.308,226.84z"/>
		<path style="fill:#251626;" d="M402.487,230.912c-0.106,0-0.211-0.012-0.318-0.038c-0.745-0.175-1.208-0.918-1.033-1.665    c0.122-0.524,3.114-12.898,13.343-18.014c0.962-0.481,2.113-1.016,3.397-1.612c7.944-3.69,21.239-9.865,24.238-19.819    c1.398-4.635,0.397-9.767-2.972-15.253c-0.401-0.653-0.196-1.508,0.456-1.908c0.647-0.401,1.505-0.198,1.909,0.456    c3.801,6.19,4.898,12.08,3.263,17.506c-3.358,11.146-17.359,17.649-25.725,21.534c-1.257,0.584-2.385,1.108-3.325,1.578    c-9.048,4.524-11.856,16.048-11.883,16.165C403.686,230.479,403.116,230.912,402.487,230.912z"/>
		<path style="fill:#251626;" d="M430.967,226.436c-0.091,0-0.181-0.009-0.274-0.027c-0.752-0.15-1.238-0.88-1.088-1.632    c0.087-0.433,2.186-10.671,7.742-15.8c1.042-0.962,2.392-1.929,3.821-2.954c6.4-4.588,13.653-9.788,7.305-20.975    c-0.378-0.665-0.144-1.512,0.523-1.891c0.665-0.377,1.513-0.144,1.891,0.523c7.58,13.355-1.857,20.121-8.103,24.598    c-1.357,0.973-2.64,1.892-3.556,2.736c-4.89,4.515-6.885,14.21-6.904,14.308C432.193,225.981,431.615,226.436,430.967,226.436z"/>
		<path style="fill:#251626;" d="M383.391,161.806c-0.622,0-1.187-0.42-1.344-1.051c-1.592-6.359,1.644-9.686,1.783-9.824    c0.542-0.542,1.42-0.542,1.961,0c0.538,0.538,0.542,1.409,0.011,1.951c-0.104,0.111-2.251,2.453-1.065,7.202    c0.187,0.742-0.266,1.495-1.009,1.681C383.616,161.792,383.502,161.806,383.391,161.806z"/>
		<path style="fill:#251626;" d="M391.529,172.407c-0.622,0-1.187-0.42-1.344-1.051c-1.592-6.359,1.643-9.685,1.781-9.823    c0.542-0.542,1.42-0.542,1.961,0c0.538,0.538,0.542,1.409,0.009,1.952c-0.114,0.121-2.246,2.462-1.062,7.199    c0.187,0.742-0.265,1.495-1.009,1.681C391.754,172.394,391.64,172.407,391.529,172.407z"/>
		<path style="fill:#251626;" d="M375.994,181.038c-0.622,0-1.187-0.42-1.344-1.051c-1.592-6.359,1.644-9.686,1.783-9.824    c0.542-0.542,1.42-0.542,1.961,0c0.538,0.538,0.542,1.409,0.011,1.951c-0.104,0.111-2.251,2.453-1.065,7.202    c0.187,0.742-0.265,1.495-1.009,1.681C376.219,181.025,376.105,181.038,375.994,181.038z"/>
		<path style="fill:#251626;" d="M386.104,187.449c-0.622,0-1.187-0.42-1.344-1.051c-1.592-6.359,1.643-9.685,1.781-9.823    c0.542-0.542,1.42-0.542,1.961,0c0.538,0.538,0.542,1.409,0.009,1.952c-0.114,0.121-2.246,2.461-1.062,7.199    c0.187,0.742-0.265,1.495-1.009,1.681C386.329,187.436,386.216,187.449,386.104,187.449z"/>
		<path style="fill:#251626;" d="M396.46,153.914c-0.622,0-1.187-0.42-1.344-1.051c-1.589-6.359,1.644-9.685,1.783-9.823    c0.542-0.542,1.42-0.542,1.961,0c0.539,0.539,0.542,1.41,0.009,1.952c-0.122,0.13-2.243,2.471-1.063,7.199    c0.187,0.742-0.265,1.495-1.009,1.681C396.685,153.901,396.571,153.914,396.46,153.914z"/>
		<path style="fill:#251626;" d="M402.825,177.102c-0.509,0-0.998-0.28-1.242-0.767c-2.934-5.861-0.501-9.811-0.396-9.976    c0.41-0.646,1.268-0.836,1.914-0.427c0.643,0.408,0.836,1.257,0.435,1.903c-0.089,0.15-1.655,2.899,0.528,7.259    c0.343,0.684,0.065,1.517-0.62,1.861C403.244,177.055,403.033,177.102,402.825,177.102z"/>
		<path style="fill:#251626;" d="M410.342,155.729c-0.042,0-0.084-0.001-0.127-0.005c-0.757-0.069-1.317-0.736-1.257-1.491    c0.009-0.152,0.16-3.325-3.793-6.213c-0.619-0.452-0.753-1.319-0.302-1.938c0.451-0.619,1.318-0.756,1.938-0.302    c5.293,3.867,4.939,8.494,4.921,8.689C411.656,155.188,411.052,155.729,410.342,155.729z"/>
		<path style="fill:#251626;" d="M415.52,172.25c-0.042,0-0.084-0.001-0.127-0.005c-0.757-0.069-1.317-0.735-1.257-1.491    c0.009-0.154,0.158-3.327-3.793-6.213c-0.619-0.452-0.753-1.319-0.302-1.938c0.454-0.619,1.318-0.754,1.938-0.302    c5.293,3.867,4.939,8.494,4.921,8.689C416.834,171.709,416.23,172.25,415.52,172.25z"/>
		<path style="fill:#251626;" d="M427.356,165.838c-0.042,0-0.084-0.001-0.127-0.005c-0.759-0.069-1.318-0.737-1.257-1.494    c0.011-0.172,0.145-3.332-3.791-6.21c-0.619-0.452-0.753-1.321-0.302-1.938c0.452-0.619,1.321-0.754,1.938-0.302    c5.292,3.87,4.937,8.494,4.92,8.689C428.67,165.296,428.066,165.838,427.356,165.838z"/>
	</g>
	<g>
		<path style="fill:#E2394B;" d="M189.847,221.055c0,0-7.412-77.521,31.424-74.747c38.837,2.774,60.335,72.125,32.595,78.367    S191.927,234.231,189.847,221.055z"/>
		<g>
			<path style="fill:#FFFFFF;" d="M184.151,225.937c0,0-3.255-21.157,21.97-26.039c25.225-4.882,45.568-24.818,55.74-18.715     c10.171,6.103,26.039,30.921,6.103,46.382S184.151,245.466,184.151,225.937z"/>
			<path style="fill:#251626;" d="M217.941,241.26c-22.027,0-35.177-5.728-35.177-15.324c-0.019-0.014-3.138-22.322,23.093-27.399     c11.341-2.196,21.609-7.45,30.666-12.085c8.188-4.189,15.259-7.807,20.842-7.807c1.967,0,3.718,0.454,5.209,1.348     c6.122,3.673,15.531,14.985,16.284,27.595c0.496,8.306-2.979,15.592-10.044,21.072     C259.248,236.079,238.327,241.26,217.941,241.26z M257.365,181.419c-4.916,0-11.71,3.477-19.578,7.503     c-9.223,4.719-19.676,10.068-31.402,12.338c-23.566,4.561-20.984,23.658-20.864,24.468c0.016,7.832,12.735,12.758,32.419,12.758     c19.827,0,40.049-4.941,49.173-12.017c6.4-4.963,9.421-11.26,8.975-18.715c-0.662-11.108-9.102-21.878-14.942-25.382     C260.079,181.731,258.841,181.419,257.365,181.419z"/>
		</g>
		<path style="fill:#251626;" d="M189.847,234.241c-0.593,0-1.142-0.383-1.326-0.979c-0.053-0.172-4.989-17.255,20.003-25.726    c5.086-1.724,10.655-3.316,16.04-4.856c14.921-4.267,30.349-8.68,33.153-15.429c0.78-1.876,0.54-3.908-0.731-6.21    c-0.371-0.67-0.127-1.514,0.543-1.884c0.673-0.372,1.513-0.127,1.884,0.543c1.684,3.046,1.975,5.946,0.867,8.616    c-3.317,7.985-18.684,12.379-34.953,17.032c-5.353,1.531-10.889,3.114-15.911,4.817c-22.469,7.615-18.287,22.137-18.243,22.283    c0.225,0.731-0.186,1.508-0.918,1.734C190.119,234.222,189.981,234.241,189.847,234.241z"/>
		<path style="fill:#251626;" d="M224.024,238.309c-0.104,0-0.21-0.012-0.317-0.037c-0.745-0.173-1.21-0.92-1.035-1.666    c0.122-0.524,3.114-12.898,13.343-18.012c0.962-0.481,2.114-1.017,3.4-1.613c7.943-3.69,21.236-9.865,24.236-19.818    c1.397-4.637,0.396-9.769-2.973-15.255c-0.401-0.653-0.196-1.508,0.456-1.909c0.65-0.398,1.504-0.198,1.909,0.456    c3.801,6.19,4.898,12.081,3.263,17.506c-3.358,11.146-17.358,17.649-25.724,21.534c-1.257,0.585-2.385,1.108-3.327,1.579    c-9.078,4.538-11.856,16.046-11.883,16.162C225.224,237.876,224.653,238.309,224.024,238.309z"/>
		<path style="fill:#251626;" d="M252.504,233.833c-0.091,0-0.182-0.008-0.274-0.027c-0.75-0.15-1.238-0.88-1.088-1.632    c0.087-0.433,2.186-10.671,7.744-15.799c1.04-0.962,2.391-1.93,3.821-2.956c6.399-4.588,13.652-9.789,7.305-20.975    c-0.378-0.665-0.144-1.512,0.523-1.891c0.666-0.375,1.512-0.142,1.891,0.523c7.578,13.354-1.858,20.12-8.103,24.598    c-1.359,0.974-2.641,1.894-3.556,2.737c-4.902,4.524-6.886,14.209-6.905,14.306C253.731,233.378,253.151,233.833,252.504,233.833z    "/>
		<path style="fill:#251626;" d="M204.928,169.203c-0.622,0-1.187-0.42-1.344-1.051c-1.589-6.359,1.644-9.686,1.783-9.824    c0.542-0.542,1.42-0.542,1.961,0c0.539,0.538,0.542,1.409,0.009,1.952c-0.121,0.127-2.244,2.471-1.063,7.201    c0.187,0.742-0.265,1.495-1.009,1.681C205.153,169.189,205.039,169.203,204.928,169.203z"/>
		<path style="fill:#251626;" d="M213.066,179.806c-0.622,0-1.187-0.42-1.344-1.051c-1.592-6.359,1.644-9.686,1.783-9.824    c0.542-0.542,1.42-0.542,1.961,0c0.538,0.538,0.542,1.409,0.011,1.951c-0.104,0.111-2.251,2.453-1.065,7.202    c0.187,0.742-0.265,1.495-1.009,1.681C213.29,179.792,213.177,179.806,213.066,179.806z"/>
		<path style="fill:#251626;" d="M197.531,188.435c-0.622,0-1.187-0.42-1.344-1.051c-1.592-6.359,1.644-9.685,1.783-9.823    c0.542-0.542,1.42-0.542,1.961,0c0.538,0.538,0.542,1.409,0.011,1.951c-0.107,0.112-2.251,2.454-1.065,7.201    c0.187,0.742-0.265,1.495-1.009,1.681C197.756,188.422,197.642,188.435,197.531,188.435z"/>
		<path style="fill:#251626;" d="M207.641,194.846c-0.622,0-1.187-0.42-1.344-1.051c-1.592-6.359,1.644-9.685,1.783-9.823    c0.542-0.542,1.42-0.542,1.961,0c0.538,0.538,0.542,1.409,0.011,1.95c-0.107,0.112-2.251,2.454-1.065,7.201    c0.187,0.742-0.265,1.495-1.009,1.681C207.866,194.833,207.752,194.846,207.641,194.846z"/>
		<path style="fill:#251626;" d="M217.997,161.311c-0.622,0-1.187-0.42-1.344-1.051c-1.592-6.359,1.644-9.685,1.783-9.823    c0.542-0.542,1.42-0.542,1.961,0c0.538,0.538,0.542,1.409,0.011,1.951c-0.107,0.112-2.251,2.454-1.065,7.201    c0.187,0.742-0.265,1.495-1.009,1.681C218.222,161.298,218.108,161.311,217.997,161.311z"/>
		<path style="fill:#251626;" d="M224.362,184.499c-0.509,0-0.998-0.28-1.242-0.765c-2.935-5.862-0.501-9.812-0.396-9.977    c0.41-0.645,1.265-0.836,1.915-0.425c0.642,0.409,0.834,1.258,0.433,1.903c-0.085,0.141-1.659,2.891,0.528,7.256    c0.343,0.685,0.065,1.518-0.619,1.862C224.782,184.452,224.571,184.499,224.362,184.499z"/>
		<path style="fill:#251626;" d="M231.878,163.126c-0.042,0-0.084-0.001-0.127-0.005c-0.757-0.069-1.317-0.736-1.257-1.491    c0.009-0.153,0.158-3.327-3.791-6.213c-0.619-0.452-0.753-1.321-0.302-1.938c0.452-0.619,1.321-0.756,1.938-0.302    c5.292,3.867,4.937,8.494,4.92,8.689C233.192,162.585,232.588,163.126,231.878,163.126z"/>
		<path style="fill:#251626;" d="M237.057,179.647c-0.042,0-0.084-0.001-0.127-0.005c-0.757-0.069-1.317-0.735-1.257-1.491    c0.009-0.152,0.16-3.327-3.791-6.213c-0.619-0.452-0.753-1.321-0.302-1.938c0.452-0.619,1.321-0.754,1.938-0.302    c5.292,3.867,4.937,8.494,4.92,8.689C238.371,179.106,237.767,179.647,237.057,179.647z"/>
		<path style="fill:#251626;" d="M248.892,173.236c-0.042,0-0.084-0.001-0.127-0.005c-0.757-0.069-1.317-0.735-1.257-1.491    c0.009-0.153,0.158-3.327-3.791-6.213c-0.619-0.452-0.753-1.321-0.302-1.938c0.454-0.62,1.319-0.754,1.938-0.302    c5.292,3.867,4.937,8.494,4.92,8.689C250.206,172.695,249.602,173.236,248.892,173.236z"/>
	</g>
	<g>
		<path style="fill:#E2394B;" d="M42.823,210.883c0,0-7.412-77.521,31.424-74.747c38.837,2.774,60.335,72.125,32.595,78.367    S44.903,224.06,42.823,210.883z"/>
		<g>
			<path style="fill:#FFFFFF;" d="M37.126,215.765c0,0-3.255-21.157,21.97-26.039c25.225-4.882,45.568-24.818,55.74-18.715     c10.171,6.103,26.039,30.921,6.103,46.382S37.126,235.295,37.126,215.765z"/>
			<path style="fill:#251626;" d="M70.916,231.089c-22.027,0-35.177-5.728-35.177-15.324c-0.019-0.014-3.138-22.322,23.093-27.4     c11.341-2.196,21.609-7.448,30.667-12.084c8.187-4.189,15.257-7.807,20.841-7.807c1.967,0,3.718,0.454,5.209,1.348     c6.122,3.673,15.531,14.985,16.284,27.594c0.496,8.306-2.977,15.593-10.044,21.073     C112.224,225.908,91.303,231.089,70.916,231.089z M110.341,171.248c-4.916,0-11.71,3.477-19.577,7.503     c-9.223,4.719-19.677,10.068-31.403,12.337c-23.643,4.577-20.988,23.657-20.864,24.467c0.016,7.834,12.735,12.761,32.419,12.761     c19.827,0,40.049-4.941,49.173-12.017c6.401-4.964,9.421-11.261,8.975-18.717c-0.662-11.108-9.104-21.877-14.942-25.381     C113.055,171.56,111.817,171.248,110.341,171.248z"/>
		</g>
		<path style="fill:#251626;" d="M42.82,224.066c-0.592,0-1.139-0.381-1.323-0.977c-0.053-0.172-4.989-17.254,20.003-25.726    c5.085-1.723,10.652-3.316,16.036-4.855c14.923-4.267,30.353-8.68,33.157-15.429c0.78-1.877,0.54-3.909-0.731-6.212    c-0.371-0.67-0.127-1.514,0.543-1.884c0.673-0.371,1.516-0.126,1.884,0.543c1.684,3.048,1.975,5.946,0.866,8.617    c-3.317,7.985-18.685,12.379-34.956,17.032c-5.352,1.531-10.886,3.113-15.907,4.815c-22.349,7.576-18.42,21.691-18.241,22.288    c0.218,0.731-0.195,1.505-0.926,1.727C43.089,224.047,42.954,224.066,42.82,224.066z"/>
		<path style="fill:#251626;" d="M77,228.137c-0.106,0-0.211-0.012-0.318-0.038c-0.745-0.175-1.208-0.918-1.033-1.665    c0.122-0.524,3.114-12.898,13.343-18.014c0.962-0.481,2.113-1.016,3.396-1.612c7.944-3.688,21.24-9.864,24.24-19.819    c1.397-4.635,0.396-9.767-2.973-15.253c-0.401-0.653-0.196-1.508,0.456-1.909c0.65-0.401,1.505-0.199,1.909,0.456    c3.801,6.19,4.898,12.08,3.263,17.506c-3.358,11.146-17.361,17.649-25.726,21.535c-1.256,0.582-2.384,1.107-3.324,1.577    c-9.048,4.524-11.856,16.048-11.883,16.165C78.198,227.705,77.628,228.137,77,228.137z"/>
		<path style="fill:#251626;" d="M105.479,223.662c-0.091,0-0.182-0.009-0.274-0.027c-0.752-0.15-1.238-0.88-1.088-1.632    c0.087-0.433,2.186-10.671,7.742-15.8c1.042-0.962,2.392-1.929,3.821-2.954c6.4-4.588,13.655-9.789,7.306-20.975    c-0.378-0.665-0.144-1.512,0.523-1.891c0.664-0.375,1.513-0.145,1.891,0.523c7.578,13.355-1.858,20.12-8.104,24.598    c-1.357,0.973-2.64,1.892-3.556,2.736c-4.89,4.515-6.885,14.21-6.904,14.308C106.705,223.207,106.127,223.662,105.479,223.662z"/>
		<path style="fill:#251626;" d="M57.904,159.032c-0.622,0-1.187-0.42-1.344-1.051c-1.589-6.359,1.644-9.686,1.783-9.824    c0.542-0.542,1.42-0.542,1.961,0c0.539,0.538,0.542,1.409,0.009,1.952c-0.121,0.127-2.244,2.471-1.063,7.201    c0.187,0.742-0.265,1.495-1.009,1.681C58.128,159.018,58.015,159.032,57.904,159.032z"/>
		<path style="fill:#251626;" d="M66.042,169.633c-0.622,0-1.187-0.42-1.344-1.051c-1.592-6.359,1.644-9.685,1.783-9.823    c0.542-0.542,1.42-0.542,1.961,0c0.538,0.538,0.542,1.409,0.011,1.95c-0.107,0.112-2.251,2.454-1.065,7.201    c0.187,0.742-0.265,1.495-1.009,1.681C66.266,169.62,66.153,169.633,66.042,169.633z"/>
		<path style="fill:#251626;" d="M50.507,178.264c-0.622,0-1.187-0.42-1.344-1.051c-1.592-6.359,1.644-9.686,1.783-9.824    c0.542-0.542,1.42-0.542,1.961,0c0.538,0.538,0.542,1.409,0.011,1.95c-0.104,0.111-2.251,2.453-1.065,7.202    c0.187,0.742-0.265,1.495-1.009,1.681C50.732,178.251,50.618,178.264,50.507,178.264z"/>
		<path style="fill:#251626;" d="M60.617,184.675c-0.622,0-1.187-0.42-1.344-1.051c-1.592-6.359,1.644-9.685,1.783-9.823    c0.542-0.542,1.42-0.542,1.961,0c0.538,0.538,0.542,1.409,0.011,1.951c-0.107,0.112-2.251,2.454-1.065,7.201    c0.187,0.742-0.265,1.495-1.009,1.681C60.842,184.662,60.728,184.675,60.617,184.675z"/>
		<path style="fill:#251626;" d="M70.973,151.14c-0.622,0-1.187-0.42-1.344-1.051c-1.592-6.359,1.644-9.685,1.783-9.823    c0.542-0.542,1.42-0.542,1.961,0c0.538,0.538,0.542,1.409,0.011,1.951c-0.107,0.112-2.251,2.454-1.065,7.201    c0.187,0.742-0.265,1.495-1.009,1.681C71.198,151.127,71.084,151.14,70.973,151.14z"/>
		<path style="fill:#251626;" d="M77.338,174.328c-0.509,0-0.998-0.28-1.242-0.765c-2.935-5.862-0.501-9.812-0.396-9.977    c0.41-0.647,1.268-0.837,1.914-0.427c0.643,0.408,0.836,1.257,0.435,1.902c-0.084,0.14-1.661,2.891,0.528,7.259    c0.343,0.685,0.065,1.518-0.619,1.862C77.758,174.281,77.547,174.328,77.338,174.328z"/>
		<path style="fill:#251626;" d="M84.854,152.955c-0.042,0-0.084-0.001-0.127-0.005c-0.757-0.069-1.317-0.735-1.257-1.491    c0.009-0.152,0.16-3.327-3.791-6.213c-0.619-0.452-0.753-1.321-0.302-1.938c0.452-0.619,1.319-0.754,1.938-0.302    c5.292,3.867,4.937,8.494,4.92,8.689C86.168,152.414,85.564,152.955,84.854,152.955z"/>
		<path style="fill:#251626;" d="M90.033,169.476c-0.042,0-0.084-0.001-0.127-0.005c-0.757-0.069-1.317-0.736-1.257-1.491    c0.009-0.153,0.158-3.327-3.791-6.213c-0.619-0.452-0.753-1.321-0.302-1.938c0.452-0.618,1.321-0.753,1.938-0.302    c5.292,3.867,4.937,8.494,4.92,8.689C91.347,168.934,90.742,169.476,90.033,169.476z"/>
		<path style="fill:#251626;" d="M101.868,163.064c-0.042,0-0.084-0.001-0.127-0.005c-0.759-0.069-1.318-0.737-1.257-1.494    c0.011-0.172,0.145-3.332-3.791-6.21c-0.619-0.452-0.753-1.321-0.302-1.938c0.454-0.619,1.319-0.752,1.938-0.302    c5.292,3.87,4.937,8.494,4.92,8.689C103.182,162.522,102.578,163.064,101.868,163.064z"/>
	</g>
	<g>
		<path style="fill:#E2394B;" d="M133.015,97.666c0,0-6.731-70.394,28.535-67.875s54.788,65.494,29.598,71.161    C165.958,106.62,134.904,109.631,133.015,97.666z"/>
		<g>
			<path style="fill:#FFFFFF;" d="M127.843,102.099c0,0-2.956-19.211,19.95-23.645c22.906-4.433,41.378-22.536,50.615-16.995     c9.236,5.542,23.645,28.078,5.542,42.117S127.843,119.833,127.843,102.099z"/>
			<path style="fill:#251626;" d="M158.525,116.141c-20.081,0-32.069-5.249-32.069-14.042l0,0c-0.016,0-2.862-20.373,21.073-25.006     c10.281-1.99,19.596-6.756,27.814-10.962c7.448-3.812,13.882-7.103,18.983-7.103c1.808,0,3.423,0.417,4.796,1.242     c5.583,3.351,14.163,13.664,14.848,25.161c0.451,7.585-2.72,14.239-9.17,19.241C196.092,111.425,177.064,116.141,158.525,116.141     z M194.326,61.802c-4.433,0-10.59,3.151-17.72,6.798c-8.382,4.29-17.882,9.151-28.549,11.215     c-21.351,4.133-18.956,21.342-18.844,22.072c0.016,7.057,11.516,11.479,29.312,11.479c17.98,0,36.31-4.477,44.574-10.886     c5.777-4.479,8.502-10.16,8.101-16.884c-0.599-10.044-8.229-19.78-13.506-22.948C196.745,62.078,195.644,61.802,194.326,61.802z"/>
		</g>
		<path style="fill:#251626;" d="M133.013,109.764c-0.593,0-1.139-0.381-1.323-0.977c-0.047-0.157-4.566-15.785,18.244-23.518    c4.622-1.567,9.679-3.012,14.572-4.412c13.521-3.867,27.501-7.866,30.023-13.937c0.692-1.666,0.477-3.474-0.658-5.529    c-0.371-0.67-0.127-1.514,0.543-1.884c0.673-0.374,1.513-0.126,1.884,0.543c1.55,2.802,1.816,5.472,0.794,7.933    c-3.035,7.308-17.018,11.306-31.823,15.54c-4.86,1.39-9.885,2.827-14.443,4.372c-20.166,6.836-16.642,19.543-16.482,20.081    c0.218,0.733-0.196,1.506-0.926,1.727C133.282,109.745,133.145,109.764,133.013,109.764z"/>
		<path style="fill:#251626;" d="M164.05,113.462c-0.104,0-0.21-0.012-0.317-0.037c-0.745-0.173-1.21-0.92-1.035-1.666    c0.111-0.478,2.842-11.772,12.184-16.442c0.874-0.436,1.921-0.924,3.088-1.466c7.194-3.342,19.234-8.933,21.942-17.919    c1.257-4.172,0.354-8.798-2.686-13.747c-0.401-0.653-0.196-1.508,0.456-1.909c0.65-0.401,1.504-0.199,1.909,0.456    c3.47,5.654,4.473,11.037,2.977,15.999c-3.067,10.176-15.814,16.097-23.429,19.634c-1.141,0.53-2.163,1.005-3.016,1.432    c-8.189,4.095-10.699,14.488-10.724,14.592C165.25,113.03,164.68,113.462,164.05,113.462z"/>
		<path style="fill:#251626;" d="M189.912,109.397c-0.091,0-0.182-0.009-0.274-0.027c-0.752-0.15-1.238-0.88-1.088-1.632    c0.079-0.396,1.994-9.732,7.069-14.416c0.952-0.879,2.181-1.76,3.482-2.693c5.768-4.135,12.306-8.822,6.596-18.879    c-0.378-0.665-0.144-1.512,0.523-1.891c0.664-0.378,1.512-0.144,1.891,0.523c6.939,12.226-1.686,18.409-7.394,22.501    c-1.23,0.882-2.391,1.715-3.216,2.476c-4.41,4.07-6.214,12.835-6.232,12.923C191.137,108.942,190.559,109.397,189.912,109.397z"/>
		<path style="fill:#251626;" d="M146.711,50.709c-0.622,0-1.187-0.42-1.344-1.051c-1.463-5.843,1.524-8.914,1.651-9.041    c0.542-0.542,1.42-0.542,1.961,0c0.538,0.538,0.542,1.407,0.011,1.95c-0.107,0.114-1.987,2.201-0.933,6.419    c0.187,0.742-0.265,1.495-1.009,1.681C146.936,50.695,146.822,50.709,146.711,50.709z"/>
		<path style="fill:#251626;" d="M154.1,60.337c-0.622,0-1.187-0.42-1.344-1.051c-1.463-5.843,1.524-8.914,1.651-9.041    c0.542-0.542,1.42-0.542,1.961,0c0.538,0.538,0.542,1.407,0.011,1.95c-0.107,0.114-1.987,2.201-0.933,6.419    c0.187,0.742-0.265,1.495-1.009,1.681C154.325,60.323,154.211,60.337,154.1,60.337z"/>
		<path style="fill:#251626;" d="M139.992,68.174c-0.622,0-1.187-0.42-1.344-1.051c-1.462-5.845,1.525-8.914,1.653-9.041    c0.542-0.542,1.42-0.542,1.961,0c0.538,0.538,0.542,1.407,0.011,1.95c-0.107,0.114-1.988,2.201-0.935,6.419    c0.187,0.742-0.265,1.495-1.009,1.681C140.217,68.16,140.104,68.174,139.992,68.174z"/>
		<path style="fill:#251626;" d="M149.173,73.995c-0.622,0-1.187-0.42-1.344-1.051c-1.463-5.843,1.524-8.914,1.651-9.041    c0.542-0.542,1.42-0.542,1.961,0c0.538,0.538,0.542,1.407,0.011,1.951c-0.107,0.114-1.987,2.201-0.933,6.419    c0.187,0.742-0.265,1.495-1.009,1.681C149.398,73.982,149.284,73.995,149.173,73.995z"/>
		<path style="fill:#251626;" d="M158.578,43.543c-0.622,0-1.187-0.42-1.344-1.051c-1.463-5.843,1.524-8.914,1.651-9.041    c0.542-0.542,1.42-0.542,1.961,0c0.538,0.538,0.542,1.407,0.011,1.95c-0.107,0.114-1.987,2.201-0.933,6.419    c0.187,0.742-0.265,1.495-1.009,1.681C158.803,43.53,158.689,43.543,158.578,43.543z"/>
		<path style="fill:#251626;" d="M164.357,64.599c-0.509,0-0.998-0.28-1.242-0.765c-2.697-5.387-0.451-9.033-0.354-9.185    c0.412-0.647,1.266-0.838,1.914-0.427c0.642,0.408,0.836,1.256,0.436,1.9c-0.077,0.13-1.464,2.578,0.485,6.468    c0.343,0.685,0.065,1.518-0.619,1.862C164.777,64.552,164.566,64.599,164.357,64.599z"/>
		<path style="fill:#251626;" d="M171.183,45.19c-0.042,0-0.084-0.001-0.127-0.005c-0.757-0.069-1.318-0.735-1.257-1.493    c0.009-0.156,0.119-2.962-3.392-5.526c-0.619-0.452-0.753-1.319-0.302-1.938c0.452-0.616,1.318-0.754,1.938-0.302    c4.865,3.554,4.536,7.824,4.52,8.004C172.497,44.65,171.893,45.19,171.183,45.19z"/>
		<path style="fill:#251626;" d="M175.886,60.193c-0.042,0-0.084-0.001-0.127-0.005c-0.757-0.069-1.317-0.734-1.257-1.49    c0.008-0.138,0.131-2.956-3.392-5.53c-0.619-0.452-0.753-1.321-0.302-1.938c0.454-0.62,1.319-0.753,1.938-0.302    c4.864,3.556,4.536,7.825,4.52,8.005C177.201,59.651,176.595,60.193,175.886,60.193z"/>
		<path style="fill:#251626;" d="M186.632,54.371c-0.042,0-0.084-0.001-0.127-0.005c-0.757-0.069-1.318-0.736-1.257-1.493    c0.009-0.156,0.119-2.962-3.39-5.528c-0.619-0.452-0.753-1.321-0.302-1.938c0.454-0.619,1.319-0.754,1.938-0.302    c4.864,3.556,4.535,7.825,4.519,8.005C187.946,53.831,187.342,54.371,186.632,54.371z"/>
	</g>
	<g>
		<path style="fill:#E2394B;" d="M256.977,138.639c0,0-6.731-70.394,28.535-67.875s54.788,65.494,29.598,71.161    S258.866,150.604,256.977,138.639z"/>
		<g>
			<path style="fill:#FFFFFF;" d="M251.804,143.072c0,0-2.956-19.211,19.95-23.645c22.906-4.433,41.378-22.536,50.615-16.995     s23.645,28.078,5.542,42.117C309.808,158.589,251.804,160.806,251.804,143.072z"/>
			<path style="fill:#251626;" d="M282.486,157.115c-20.081,0-32.068-5.25-32.068-14.042l0,0c-0.016,0-2.862-20.373,21.072-25.007     c10.279-1.99,19.594-6.756,27.812-10.961c7.448-3.812,13.882-7.103,18.983-7.103c1.81,0,3.424,0.417,4.798,1.242     c5.582,3.348,14.161,13.66,14.848,25.157c0.452,7.587-2.719,14.241-9.17,19.245C320.053,152.399,301.025,157.115,282.486,157.115     z M318.285,102.776c-4.433,0-10.59,3.151-17.72,6.798c-8.382,4.288-17.882,9.15-28.548,11.214     c-21.273,4.119-18.951,21.346-18.843,22.076c0.016,7.053,11.515,11.477,29.31,11.477c17.98,0,36.309-4.477,44.574-10.886     c5.777-4.481,8.504-10.163,8.101-16.888c-0.599-10.044-8.229-19.779-13.506-22.944     C320.706,103.052,319.603,102.776,318.285,102.776z"/>
		</g>
		<path style="fill:#251626;" d="M256.976,150.741c-0.593,0-1.142-0.383-1.326-0.979c-0.047-0.157-4.566-15.787,18.245-23.52    c4.62-1.566,9.678-3.012,14.568-4.41c13.522-3.867,27.503-7.864,30.025-13.938c0.692-1.665,0.477-3.474-0.658-5.529    c-0.371-0.67-0.127-1.514,0.543-1.884c0.675-0.371,1.513-0.126,1.884,0.543c1.55,2.802,1.816,5.472,0.794,7.935    c-3.037,7.308-17.021,11.306-31.826,15.54c-4.859,1.39-9.883,2.826-14.439,4.371c-20.286,6.877-16.525,19.945-16.484,20.077    c0.225,0.731-0.186,1.508-0.918,1.734C257.248,150.722,257.11,150.741,256.976,150.741z"/>
		<path style="fill:#251626;" d="M288.012,154.434c-0.104,0-0.21-0.012-0.317-0.037c-0.745-0.173-1.21-0.92-1.035-1.666    c0.111-0.478,2.84-11.769,12.182-16.442c0.874-0.438,1.922-0.924,3.09-1.466c7.192-3.342,19.233-8.933,21.94-17.917    c1.257-4.172,0.354-8.798-2.686-13.747c-0.401-0.653-0.196-1.508,0.456-1.909c0.65-0.401,1.505-0.198,1.909,0.456    c3.47,5.654,4.473,11.037,2.977,15.999c-3.067,10.175-15.813,16.096-23.429,19.632c-1.139,0.53-2.163,1.005-3.016,1.432    c-8.189,4.096-10.698,14.488-10.722,14.592C289.212,154.002,288.642,154.434,288.012,154.434z"/>
		<path style="fill:#251626;" d="M313.874,150.371c-0.089,0-0.182-0.008-0.274-0.027c-0.75-0.15-1.238-0.88-1.088-1.632    c0.079-0.394,1.992-9.732,7.068-14.416c0.952-0.879,2.181-1.76,3.482-2.693c5.768-4.135,12.306-8.823,6.596-18.881    c-0.378-0.665-0.144-1.512,0.523-1.891c0.664-0.377,1.512-0.144,1.891,0.523c6.939,12.227-1.686,18.411-7.394,22.503    c-1.23,0.882-2.391,1.715-3.216,2.476c-4.421,4.081-6.213,12.835-6.231,12.923C315.101,149.916,314.521,150.371,313.874,150.371z"/>
		<path style="fill:#251626;" d="M270.672,91.681c-0.622,0-1.187-0.42-1.344-1.051c-1.463-5.843,1.524-8.914,1.651-9.041    c0.542-0.542,1.42-0.542,1.961,0c0.538,0.538,0.542,1.407,0.012,1.949c-0.1,0.107-1.991,2.193-0.935,6.42    c0.187,0.742-0.265,1.495-1.009,1.681C270.897,91.668,270.783,91.681,270.672,91.681z"/>
		<path style="fill:#251626;" d="M278.061,101.311c-0.622,0-1.187-0.42-1.344-1.051c-1.463-5.845,1.525-8.914,1.652-9.041    c0.542-0.542,1.42-0.542,1.961,0c0.538,0.538,0.542,1.409,0.011,1.951c-0.11,0.116-1.988,2.202-0.935,6.419    c0.187,0.742-0.265,1.495-1.009,1.681C278.285,101.297,278.172,101.311,278.061,101.311z"/>
		<path style="fill:#251626;" d="M263.955,109.146c-0.622,0-1.187-0.42-1.344-1.051c-1.463-5.843,1.524-8.914,1.651-9.041    c0.542-0.542,1.42-0.542,1.961,0c0.538,0.538,0.542,1.407,0.012,1.949c-0.1,0.107-1.991,2.193-0.935,6.42    c0.187,0.742-0.266,1.495-1.009,1.681C264.179,109.133,264.066,109.146,263.955,109.146z"/>
		<path style="fill:#251626;" d="M273.134,114.968c-0.622,0-1.187-0.42-1.344-1.051c-1.462-5.845,1.525-8.914,1.652-9.041    c0.542-0.542,1.42-0.542,1.961,0c0.538,0.538,0.542,1.407,0.012,1.949c-0.1,0.107-1.991,2.194-0.936,6.42    c0.187,0.742-0.266,1.495-1.009,1.681C273.359,114.954,273.245,114.968,273.134,114.968z"/>
		<path style="fill:#251626;" d="M282.539,84.517c-0.622,0-1.187-0.42-1.344-1.051c-1.462-5.845,1.525-8.914,1.652-9.041    c0.542-0.542,1.42-0.542,1.961,0c0.538,0.538,0.542,1.407,0.011,1.951c-0.107,0.114-1.988,2.201-0.935,6.419    c0.187,0.742-0.265,1.495-1.009,1.681C282.763,84.504,282.65,84.517,282.539,84.517z"/>
		<path style="fill:#251626;" d="M288.318,105.573c-0.509,0-0.998-0.28-1.242-0.767c-2.695-5.387-0.45-9.033-0.352-9.185    c0.41-0.647,1.268-0.838,1.914-0.427c0.642,0.408,0.836,1.256,0.436,1.9c-0.077,0.13-1.464,2.578,0.484,6.47    c0.343,0.684,0.065,1.518-0.62,1.861C288.738,105.526,288.527,105.573,288.318,105.573z"/>
		<path style="fill:#251626;" d="M295.145,86.164c-0.042,0-0.084-0.001-0.127-0.005c-0.757-0.069-1.317-0.734-1.257-1.49    c0.008-0.138,0.131-2.956-3.392-5.53c-0.619-0.452-0.753-1.321-0.302-1.938c0.455-0.619,1.321-0.753,1.938-0.302    c4.864,3.556,4.536,7.825,4.52,8.005C296.46,85.623,295.855,86.164,295.145,86.164z"/>
		<path style="fill:#251626;" d="M299.846,101.166c-0.042,0-0.084-0.001-0.127-0.005c-0.757-0.069-1.317-0.734-1.257-1.49    c0.008-0.138,0.131-2.956-3.392-5.529c-0.619-0.452-0.753-1.321-0.302-1.938c0.454-0.619,1.319-0.756,1.938-0.302    c4.864,3.554,4.536,7.824,4.52,8.004C301.162,100.624,300.556,101.166,299.846,101.166z"/>
		<path style="fill:#251626;" d="M310.595,95.345c-0.042,0-0.084-0.001-0.127-0.005c-0.757-0.069-1.317-0.734-1.257-1.491    c0.009-0.152,0.121-2.962-3.392-5.529c-0.619-0.452-0.753-1.321-0.302-1.938c0.452-0.619,1.319-0.756,1.938-0.302    c4.864,3.554,4.536,7.825,4.52,8.005C311.91,94.803,311.304,95.345,310.595,95.345z"/>
	</g>
	<g>
		<path style="fill:#241726;" d="M405.699,262.836c-0.696,0-1.296-0.523-1.376-1.231c-0.087-0.76,0.461-1.448,1.222-1.533    c3.052-0.347,7.895-1.211,9.106-2.045c0.628-0.433,1.494-0.276,1.929,0.355c0.435,0.63,0.276,1.494-0.355,1.929    c-2.216,1.528-9.025,2.365-10.369,2.517C405.803,262.833,405.75,262.836,405.699,262.836z"/>
		<path style="fill:#241726;" d="M395.57,275.646c-0.696,0-1.296-0.523-1.376-1.231c-0.087-0.76,0.461-1.448,1.222-1.533    c3.052-0.347,7.895-1.211,9.105-2.047c0.63-0.433,1.493-0.279,1.93,0.354c0.435,0.631,0.276,1.494-0.354,1.93    c-2.217,1.529-9.026,2.366-10.37,2.518C395.674,275.643,395.621,275.646,395.57,275.646z"/>
		<path style="fill:#241726;" d="M381.926,266.482c-0.696,0-1.296-0.523-1.376-1.231c-0.087-0.76,0.461-1.448,1.222-1.533    c3.052-0.347,7.895-1.211,9.106-2.045c0.626-0.436,1.491-0.278,1.929,0.355c0.435,0.63,0.276,1.494-0.355,1.929    c-2.216,1.528-9.025,2.365-10.369,2.517C382.03,266.48,381.977,266.482,381.926,266.482z"/>
		<path style="fill:#241726;" d="M374.758,274.96c-2.801,0-5.952-0.382-6.817-0.496c-0.76-0.099-1.295-0.794-1.196-1.554    c0.098-0.76,0.779-1.31,1.554-1.196c3.049,0.393,7.956,0.721,9.333,0.199c0.714-0.271,1.517,0.091,1.788,0.807    c0.271,0.717-0.091,1.517-0.807,1.788C377.72,274.846,376.291,274.96,374.758,274.96z"/>
		<path style="fill:#241726;" d="M366.479,264.667c-2.801,0-5.952-0.382-6.817-0.496c-0.76-0.098-1.295-0.794-1.196-1.554    c0.098-0.76,0.78-1.296,1.554-1.196c3.048,0.394,7.959,0.717,9.331,0.199c0.718-0.274,1.516,0.092,1.788,0.807    c0.271,0.717-0.091,1.517-0.807,1.788C369.44,264.552,368.012,264.667,366.479,264.667z"/>
		<path style="fill:#241726;" d="M386.39,255.144c-0.696,0-1.296-0.523-1.376-1.231c-0.087-0.76,0.461-1.448,1.222-1.533    c3.052-0.347,7.895-1.211,9.106-2.045c0.627-0.436,1.493-0.278,1.929,0.355c0.435,0.63,0.276,1.494-0.355,1.929    c-2.216,1.528-9.025,2.365-10.369,2.517C386.495,255.141,386.442,255.144,386.39,255.144z"/>
		<path style="fill:#241726;" d="M413.141,249.004c-0.696,0-1.296-0.523-1.376-1.23c-0.087-0.761,0.461-1.449,1.22-1.535    c3.053-0.348,7.897-1.212,9.108-2.047c0.63-0.435,1.491-0.276,1.929,0.355c0.435,0.63,0.276,1.494-0.355,1.929    c-2.216,1.528-9.025,2.366-10.367,2.518C413.245,249.001,413.192,249.004,413.141,249.004z"/>
		<path style="fill:#241726;" d="M419.251,268.942c-0.696,0-1.296-0.523-1.376-1.231c-0.087-0.76,0.461-1.448,1.222-1.533    c3.052-0.347,7.895-1.211,9.106-2.045c0.627-0.435,1.493-0.276,1.929,0.355c0.435,0.63,0.276,1.494-0.355,1.929    c-2.216,1.528-9.025,2.365-10.369,2.517C419.355,268.939,419.302,268.942,419.251,268.942z"/>
		<path style="fill:#241726;" d="M432.463,254.637c-0.696,0-1.296-0.523-1.376-1.23c-0.087-0.761,0.461-1.449,1.22-1.535    c3.053-0.348,7.897-1.212,9.108-2.047c0.628-0.436,1.491-0.278,1.929,0.355c0.435,0.63,0.276,1.494-0.355,1.929    c-2.216,1.528-9.025,2.366-10.367,2.518C432.567,254.634,432.514,254.637,432.463,254.637z"/>
	</g>
	<g>
		<path style="fill:#241726;" d="M265.978,429.524c-0.727,0-1.338-0.568-1.383-1.303c-0.046-0.765,0.536-1.422,1.3-1.468    c3.068-0.186,7.95-0.791,9.203-1.562c0.647-0.4,1.505-0.198,1.909,0.456c0.401,0.653,0.196,1.506-0.456,1.907    c-2.295,1.41-9.139,1.885-10.488,1.967C266.035,429.522,266.007,429.524,265.978,429.524z"/>
		<path style="fill:#241726;" d="M255.186,441.779c-0.727,0-1.338-0.568-1.383-1.304c-0.046-0.764,0.536-1.421,1.3-1.467    c3.068-0.186,7.951-0.791,9.203-1.56c0.652-0.405,1.506-0.199,1.907,0.455c0.402,0.653,0.198,1.506-0.455,1.907    c-2.293,1.41-9.139,1.885-10.488,1.967C255.242,441.778,255.214,441.779,255.186,441.779z"/>
		<path style="fill:#241726;" d="M242.045,431.907c-0.727,0-1.338-0.568-1.383-1.303c-0.046-0.765,0.536-1.422,1.3-1.468    c3.068-0.186,7.95-0.791,9.203-1.562c0.65-0.401,1.505-0.199,1.909,0.456c0.401,0.653,0.196,1.506-0.456,1.907    c-2.295,1.41-9.139,1.885-10.488,1.967C242.102,431.906,242.074,431.907,242.045,431.907z"/>
		<path style="fill:#241726;" d="M235.671,440.029c-3.045,0-7.09-0.708-8.086-0.893c-0.753-0.14-1.252-0.861-1.112-1.616    c0.14-0.752,0.853-1.257,1.616-1.112c3.019,0.555,7.904,1.138,9.307,0.694c0.726-0.238,1.51,0.172,1.743,0.901    c0.232,0.73-0.171,1.51-0.901,1.743C237.594,439.951,236.69,440.029,235.671,440.029z"/>
		<path style="fill:#241726;" d="M227.948,429.312c-3.045,0-7.091-0.708-8.088-0.893c-0.753-0.14-1.25-0.861-1.112-1.616    c0.138-0.754,0.86-1.264,1.616-1.112c3.021,0.555,7.902,1.142,9.308,0.694c0.723-0.234,1.509,0.171,1.743,0.901    c0.232,0.73-0.171,1.51-0.901,1.743C229.871,429.234,228.966,429.312,227.948,429.312z"/>
		<path style="fill:#241726;" d="M247.103,420.821c-0.727,0-1.338-0.568-1.383-1.304c-0.046-0.764,0.536-1.421,1.3-1.467    c3.068-0.186,7.951-0.791,9.204-1.562c0.65-0.4,1.505-0.198,1.909,0.456c0.401,0.653,0.196,1.506-0.456,1.907    c-2.295,1.41-9.14,1.885-10.489,1.967C247.16,420.819,247.132,420.821,247.103,420.821z"/>
		<path style="fill:#241726;" d="M274.141,416.104c-0.727,0-1.338-0.568-1.383-1.304c-0.046-0.764,0.536-1.421,1.3-1.467    c3.068-0.186,7.951-0.791,9.203-1.56c0.65-0.404,1.506-0.2,1.907,0.455c0.402,0.653,0.198,1.506-0.455,1.907    c-2.293,1.41-9.139,1.885-10.488,1.967C274.197,416.103,274.169,416.104,274.141,416.104z"/>
		<path style="fill:#241726;" d="M279.187,436.338c-0.727,0-1.338-0.568-1.383-1.304c-0.046-0.764,0.536-1.421,1.3-1.467    c3.068-0.186,7.951-0.791,9.204-1.562c0.649-0.4,1.505-0.198,1.909,0.456c0.401,0.653,0.196,1.506-0.456,1.907    c-2.295,1.41-9.14,1.885-10.489,1.967C279.244,436.337,279.216,436.338,279.187,436.338z"/>
		<path style="fill:#241726;" d="M293.138,422.751c-0.727,0-1.338-0.568-1.383-1.304c-0.046-0.764,0.536-1.421,1.3-1.467    c3.068-0.186,7.951-0.791,9.204-1.562c0.647-0.398,1.505-0.198,1.908,0.456c0.401,0.653,0.196,1.506-0.456,1.907    c-2.295,1.41-9.14,1.885-10.489,1.967C293.194,422.75,293.166,422.751,293.138,422.751z"/>
	</g>
	<g>
		<path style="fill:#241726;" d="M119.088,266.314c-1.032,0-1.85-0.023-2.23-0.037c-0.767-0.026-1.365-0.668-1.338-1.433    c0.027-0.767,0.684-1.364,1.433-1.338c3.072,0.107,7.99-0.037,9.31-0.685c0.689-0.336,1.518-0.053,1.856,0.634    c0.337,0.687,0.054,1.518-0.634,1.856C125.748,266.164,121.721,266.314,119.088,266.314z"/>
		<path style="fill:#241726;" d="M107.179,277.497c-1.028,0-1.842-0.023-2.221-0.037c-0.765-0.026-1.365-0.668-1.338-1.433    c0.027-0.765,0.68-1.402,1.433-1.338c3.08,0.108,7.989-0.037,9.31-0.685c0.688-0.341,1.518-0.053,1.856,0.634    c0.337,0.688,0.054,1.518-0.634,1.856C113.846,277.347,109.811,277.497,107.179,277.497z"/>
		<path style="fill:#241726;" d="M95.029,266.43c-1.028,0-1.842-0.023-2.221-0.037c-0.765-0.026-1.365-0.668-1.338-1.433    c0.027-0.764,0.672-1.352,1.433-1.338c3.068,0.102,7.989-0.038,9.31-0.685c0.691-0.341,1.518-0.053,1.856,0.634    c0.337,0.688,0.054,1.518-0.634,1.856C101.696,266.279,97.661,266.43,95.029,266.43z"/>
		<path style="fill:#241726;" d="M86.939,273.942c-3.058,0-8.169-1.402-9.295-1.722c-0.737-0.21-1.165-0.977-0.955-1.713    c0.21-0.733,0.974-1.162,1.713-0.955c2.954,0.838,7.751,1.877,9.201,1.569c0.741-0.169,1.486,0.313,1.65,1.062    c0.163,0.748-0.313,1.487-1.062,1.65C87.84,273.908,87.413,273.942,86.939,273.942z"/>
		<path style="fill:#241726;" d="M80.263,262.543c-3.06,0-8.17-1.402-9.296-1.722c-0.737-0.21-1.165-0.977-0.955-1.713    c0.21-0.734,0.97-1.168,1.713-0.955c2.954,0.84,7.752,1.885,9.203,1.569c0.746-0.161,1.487,0.312,1.65,1.062    c0.163,0.748-0.313,1.487-1.062,1.65C81.162,262.51,80.737,262.543,80.263,262.543z"/>
		<path style="fill:#241726;" d="M101.113,255.87c-1.029,0-1.843-0.023-2.223-0.037c-0.765-0.026-1.365-0.668-1.338-1.433    c0.027-0.765,0.669-1.368,1.433-1.338c3.08,0.104,7.992-0.037,9.31-0.685c0.689-0.336,1.517-0.053,1.856,0.634    c0.337,0.687,0.054,1.518-0.634,1.856C107.779,255.719,103.744,255.87,101.113,255.87z"/>
		<path style="fill:#241726;" d="M128.474,253.726c-1.028,0-1.842-0.023-2.221-0.037c-0.765-0.026-1.365-0.668-1.338-1.433    c0.026-0.765,0.662-1.376,1.433-1.338c3.076,0.107,7.99-0.037,9.31-0.685c0.688-0.341,1.518-0.053,1.856,0.634    c0.337,0.688,0.054,1.518-0.634,1.856C135.141,253.575,131.105,253.726,128.474,253.726z"/>
		<path style="fill:#241726;" d="M131.597,274.345c-1.033,0-1.852-0.023-2.231-0.037c-0.767-0.026-1.365-0.668-1.338-1.433    c0.026-0.764,0.714-1.353,1.433-1.338c3.067,0.104,7.989-0.037,9.308-0.685c0.696-0.333,1.52-0.053,1.857,0.633    c0.337,0.688,0.054,1.52-0.633,1.857C138.257,274.195,134.229,274.345,131.597,274.345z"/>
		<path style="fill:#241726;" d="M146.766,262.136c-1.032,0-1.85-0.023-2.23-0.037c-0.767-0.026-1.365-0.668-1.338-1.433    c0.027-0.767,0.679-1.364,1.433-1.338c3.072,0.11,7.99-0.035,9.31-0.685c0.691-0.333,1.52-0.053,1.856,0.634    c0.337,0.687,0.054,1.518-0.634,1.856C153.426,261.985,149.4,262.136,146.766,262.136z"/>
	</g>
	<path style="fill:#241726;" d="M166.529,122.507c-4.413,0-7.014-0.614-7.32-0.691c-0.742-0.186-1.193-0.936-1.009-1.678   s0.937-1.192,1.678-1.013c0.222,0.06,21.982,5.07,50.618-16.407c0.61-0.462,1.48-0.337,1.941,0.278   c0.461,0.612,0.336,1.482-0.278,1.941C192.159,119.936,175.557,122.507,166.529,122.507z"/>
	<path style="fill:#241726;" d="M288.718,163.162c-10.411,0-17.893-1.451-18.484-1.569c-0.75-0.15-1.238-0.88-1.088-1.632   c0.149-0.75,0.883-1.249,1.632-1.088c0.274,0.054,27.618,5.341,50.97-4.54c0.706-0.298,1.52,0.031,1.818,0.737   c0.298,0.706-0.031,1.52-0.737,1.818C311.077,161.86,298.583,163.162,288.718,163.162z"/>
	<path style="fill:#241726;" d="M106.837,230.971c-0.692,0-1.289-0.516-1.375-1.219c-0.093-0.76,0.448-1.452,1.208-1.544   c12.743-1.555,21.79-5.903,26.887-12.925c6.051-8.334,4.303-17.699,4.286-17.793c-0.148-0.75,0.34-1.48,1.09-1.629   c0.761-0.145,1.479,0.339,1.629,1.088c0.085,0.428,2.018,10.588-4.731,19.925c-5.564,7.694-15.261,12.433-28.825,14.087   C106.949,230.968,106.892,230.971,106.837,230.971z"/>
	<path style="fill:#241726;" d="M369.449,234.67c-0.096,0-0.194-0.009-0.293-0.031c-9.673-2.072-15.691-5.812-17.888-11.115   c-2.563-6.186,1.135-12.017,1.294-12.262c0.416-0.643,1.271-0.824,1.914-0.412c0.643,0.413,0.829,1.271,0.417,1.915   c-0.031,0.049-3.068,4.894-1.052,9.721c1.837,4.397,7.186,7.573,15.898,9.441c0.749,0.16,1.226,0.898,1.065,1.647   C370.664,234.225,370.089,234.67,369.449,234.67z"/>
	<path style="fill:#241726;" d="M261.259,238.368c-0.681,0-1.276-0.503-1.372-1.196c-0.106-0.759,0.424-1.459,1.182-1.564   c31.446-4.367,30.311-21.802,30.248-22.542c-0.065-0.761,0.496-1.436,1.257-1.504c0.74-0.066,1.433,0.486,1.505,1.246   c0.02,0.207,1.581,20.796-32.627,25.546C261.386,238.364,261.323,238.368,261.259,238.368z"/>
</g>















</svg>
