<?xml version="1.0" encoding="UTF-8"?>
<!-- Generator: Adobe Illustrator 25.2.0, SVG Export Plug-In . SVG Version: 6.00 Build 0)  -->
<svg xmlns="http://www.w3.org/2000/svg" xmlns:xlink="http://www.w3.org/1999/xlink" version="1.1" id="Capa_1" x="0px" y="0px" viewBox="0 0 512 512" style="enable-background:new 0 0 512 512;" xml:space="preserve" width="512" height="512">
<g>
	<path style="fill:#251626;" d="M229.626,428.391c-49.998,0.002-98.186-5.608-136.73-15.139   C39.882,400.14,7.625,381.047,2.065,359.488c-4.281-16.606-1.9-32.318,7.077-46.706c28.406-45.527,114.799-63.752,115.669-63.933   c0.629-0.125,1.271,0.283,1.401,0.926c0.132,0.643-0.281,1.269-0.923,1.404c-0.858,0.176-86.27,18.2-114.133,62.866   c-8.617,13.812-10.9,28.9-6.789,44.85c5.253,20.374,37.726,39.346,89.098,52.051c114.344,28.279,314.018,21.989,391.523-63.369   c22.856-25.174,29.007-46.952,18.281-64.729c-20.095-33.295-92.871-44.775-134.463-48.655   c-64.051-5.977-126.586-1.619-155.247,5.77c-0.638,0.16-1.283-0.218-1.448-0.854c-0.162-0.636,0.218-1.283,0.854-1.448   c64.836-16.715,257.656-13.513,292.336,43.959c11.334,18.782,5.091,41.511-18.555,67.553   C434.825,406.359,328.699,428.389,229.626,428.391z"/>
	<path style="fill:#F9DD96;" d="M156.21,198.318c0,0,220.596-50.283,277.841,53.523c61.307,111.17-189.435,170.082-320.271,112.368   S84.921,215.256,156.21,198.318z"/>
	<path style="fill:#EF9B65;" d="M159.396,157.952c0,0,220.596-50.283,277.841,53.523c61.307,111.17-189.435,170.082-320.271,112.368   S88.107,174.89,159.396,157.952z"/>
	<path style="fill:#F9DD96;" d="M163.409,135.703c0,0,220.596-50.283,277.841,53.523c61.307,111.17-189.435,170.082-320.271,112.368   S92.12,152.642,163.409,135.703z"/>
	<path style="fill:#EF9B65;" d="M161.225,106.196c0,0,220.596-50.283,277.841,53.523c61.307,111.17-189.435,170.082-320.271,112.368   S89.936,123.134,161.225,106.196z"/>
	<path style="fill:#F9DD96;" d="M167.48,84.125c0,0,223.143-57.791,277.841,53.523c55.99,113.941-189.435,170.082-320.271,112.368   S96.191,101.063,167.48,84.125z"/>
	<path style="fill:#251626;" d="M217.095,442.872c-168.549,0-206.846-61.857-214.99-83.258c-0.232-0.613,0.077-1.299,0.689-1.534   c0.608-0.225,1.299,0.077,1.534,0.689c9.251,24.32,58.295,101.734,300.793,76.887c57.439-5.889,134.92-22.847,177.844-70.2   c25.531-28.167,26.652-54.021,26.659-54.281c0.023-0.652,0.457-1.169,1.227-1.148c0.654,0.021,1.169,0.571,1.148,1.227   c-0.035,1.088-1.162,26.991-27.276,55.799c-43.43,47.91-121.507,65.035-179.361,70.966   C272.559,441.382,243.25,442.872,217.095,442.872z"/>
	<path style="fill:#F09945;" d="M195.576,106.574c0,0-76.129,16.977-78.173,53.087c-2.853,50.401,66.789,23.272,83.59,52.724   s53.579,48.105,80.971,28.892s-1.881,123.603,30.189,130.635c32.07,7.032,9.767-109.481,20.182-113.159   c10.415-3.678-7.178,62.434,14.065,64.111c21.243,1.677-6.426-73.933,20.035-95.805c20.931-17.302,45.956-24.498,41.956-62.429   C406.269,144.523,393.407,63.493,195.576,106.574z"/>
	<path style="fill:#251626;" d="M299.659,237.65c-0.401,0-0.796-0.204-1.019-0.575c-5.821-9.682-10.803-8.323-19.852-5.847   c-6.701,1.833-15.051,4.109-26.673,2.673c-27.664-3.425-34.411-22.223-34.685-23.021c-0.213-0.619,0.116-1.292,0.736-1.508   c0.617-0.213,1.297,0.116,1.51,0.736c0.063,0.181,6.606,18.202,32.731,21.436c11.158,1.385,19.253-0.831,25.754-2.608   c9.151-2.501,15.763-4.309,22.515,6.914c0.336,0.561,0.155,1.292-0.406,1.631C300.079,237.594,299.868,237.65,299.659,237.65z"/>
	<path style="fill:#251626;" d="M314.896,363.015c-0.675,0-1.378-0.072-2.114-0.216c-7.1-1.392-11.146-12.578-12.026-33.246   c-0.638-15.012,0.664-29.84,0.677-29.989c0.058-0.654,0.638-1.135,1.29-1.077s1.135,0.636,1.077,1.29   c-1.436,16.084-2.538,58.341,9.441,60.692c2.306,0.452,4.118,0,5.515-1.378c5.313-5.258,3.471-22.657,2.313-28.919   c-0.121-0.645,0.306-1.265,0.951-1.383c0.626-0.128,1.265,0.304,1.383,0.951c0.181,0.97,4.311,23.828-2.977,31.04   C318.924,362.268,317.07,363.015,314.896,363.015z"/>
	<path style="fill:#251626;" d="M345.82,272.476c-0.613,0-1.132-0.471-1.181-1.093c-0.116-1.432-2.722-35.158,6.81-43.293   c1.339-1.144,3.323-2.689,5.835-4.643c14.58-11.343,44.921-34.947,41.798-52.824c-0.114-0.645,0.318-1.262,0.965-1.374   c0.633-0.13,1.26,0.316,1.374,0.965c3.369,19.283-27.731,43.478-42.678,55.107c-2.49,1.937-4.455,3.466-5.754,4.573   c-8.617,7.357-6.009,40.959-5.984,41.297c0.053,0.654-0.434,1.227-1.088,1.278C345.885,272.474,345.852,272.476,345.82,272.476z"/>
	<path style="fill:#251626;" d="M195.96,195.835c-0.232,0-0.464-0.067-0.668-0.206c-1.951-1.327-8.288-2.587-15.624-4.046   c-17.448-3.466-41.344-8.216-49.144-20.511c-2.478-3.905-3.128-8.318-1.933-13.121c3.016-12.114,12.594-22.531,27.701-30.123   c11.313-5.689,21.576-7.782,22.005-7.868c0.636-0.128,1.269,0.285,1.399,0.93c0.13,0.645-0.288,1.269-0.93,1.399   c-0.411,0.081-40.97,8.527-47.868,36.237c-1.046,4.204-0.513,7.891,1.633,11.272c7.253,11.436,31.534,16.262,47.599,19.455   c8.214,1.633,14.149,2.812,16.499,4.413c0.543,0.369,0.682,1.107,0.313,1.65C196.712,195.654,196.338,195.835,195.96,195.835z"/>
	<path style="fill:#251626;" d="M392.319,155.264c-0.555,0-1.049-0.39-1.162-0.956c-6.276-31.385-34.566-38.019-34.852-38.081   c-0.64-0.144-1.044-0.777-0.903-1.418c0.142-0.638,0.77-1.044,1.418-0.903c0.299,0.067,30.088,7.051,36.666,39.938   c0.13,0.643-0.288,1.269-0.933,1.397C392.477,155.257,392.398,155.264,392.319,155.264z"/>
	<g>
		<path style="fill:#E2394B;" d="M186.746,161.845c0,0-18.525-53.089,3.969-50.281c22.494,2.808,48.958,14.19,40.978,36.792    S190.986,173.538,186.746,161.845z"/>
		<g>
			<path style="fill:#FFFFFF;" d="M197.703,120.842c0,0,5.07,1.067,6.938,2.936"/>
			<path style="fill:#251626;" d="M204.642,124.964c-0.304,0-0.608-0.116-0.84-0.348c-1.325-1.323-5.03-2.334-6.346-2.613     c-0.64-0.135-1.051-0.766-0.916-1.408c0.135-0.64,0.763-1.058,1.406-0.916c0.555,0.116,5.476,1.2,7.536,3.258     c0.464,0.464,0.464,1.216,0,1.68C205.25,124.848,204.946,124.964,204.642,124.964z"/>
		</g>
		<g>
			<path style="fill:#FFFFFF;" d="M210.598,126.772c0,0,4.209,3.022,5.165,5.485"/>
			<path style="fill:#251626;" d="M215.763,133.445c-0.476,0-0.926-0.288-1.107-0.759c-0.68-1.749-3.661-4.165-4.752-4.949     c-0.531-0.383-0.654-1.125-0.271-1.659s1.123-0.654,1.659-0.271c0.459,0.332,4.524,3.309,5.578,6.021     c0.239,0.61-0.065,1.299-0.678,1.536C216.051,133.419,215.907,133.445,215.763,133.445z"/>
		</g>
		<g>
			<path style="fill:#FFFFFF;" d="M222.264,131.919c0,0,4.209,3.022,5.165,5.485"/>
			<path style="fill:#251626;" d="M227.429,138.591c-0.476,0-0.926-0.288-1.107-0.759c-0.68-1.749-3.661-4.165-4.752-4.949     c-0.531-0.383-0.654-1.125-0.271-1.659c0.383-0.534,1.123-0.657,1.659-0.271c0.459,0.332,4.524,3.309,5.578,6.021     c0.239,0.61-0.065,1.299-0.677,1.536C227.717,138.565,227.573,138.591,227.429,138.591z"/>
		</g>
		<g>
			<path style="fill:#FFFFFF;" d="M208.883,141.183c0,0,4.209,3.022,5.165,5.485"/>
			<path style="fill:#251626;" d="M214.048,147.856c-0.476,0-0.926-0.288-1.107-0.759c-0.68-1.749-3.661-4.165-4.752-4.949     c-0.531-0.383-0.654-1.125-0.271-1.659s1.125-0.654,1.659-0.271c0.459,0.332,4.524,3.309,5.578,6.021     c0.239,0.61-0.065,1.299-0.678,1.536C214.336,147.83,214.192,147.856,214.048,147.856z"/>
		</g>
		<g>
			<path style="fill:#FFFFFF;" d="M188.296,146.673c0,0,4.209,3.022,5.165,5.485"/>
			<path style="fill:#251626;" d="M193.461,153.345c-0.476,0-0.926-0.288-1.107-0.759c-0.68-1.749-3.661-4.165-4.752-4.949     c-0.531-0.383-0.654-1.125-0.271-1.659c0.383-0.536,1.123-0.652,1.659-0.271c0.459,0.332,4.524,3.309,5.578,6.021     c0.239,0.61-0.065,1.299-0.677,1.536C193.749,153.32,193.605,153.345,193.461,153.345z"/>
		</g>
		<g>
			<path style="fill:#FFFFFF;" d="M218.833,141.183c0,0,4.209,3.022,5.165,5.485"/>
			<path style="fill:#251626;" d="M223.997,147.856c-0.476,0-0.926-0.288-1.107-0.759c-0.68-1.749-3.661-4.165-4.752-4.949     c-0.531-0.383-0.654-1.125-0.271-1.659c0.383-0.534,1.125-0.654,1.659-0.271c0.459,0.332,4.524,3.309,5.578,6.021     c0.239,0.61-0.065,1.299-0.677,1.536C224.285,147.83,224.141,147.856,223.997,147.856z"/>
		</g>
		<g>
			<path style="fill:#FFFFFF;" d="M207.51,153.192c0,0,4.209,3.022,5.165,5.485"/>
			<path style="fill:#251626;" d="M212.675,159.865c-0.476,0-0.926-0.288-1.107-0.759c-0.677-1.745-3.659-4.165-4.752-4.949     c-0.531-0.383-0.654-1.125-0.271-1.659c0.383-0.529,1.121-0.657,1.659-0.271c0.459,0.329,4.524,3.306,5.578,6.021     c0.239,0.61-0.065,1.299-0.677,1.536C212.962,159.839,212.819,159.865,212.675,159.865z"/>
		</g>
		<g>
			<path style="fill:#FFFFFF;" d="M199.276,142.556c0,0,4.209,3.022,5.165,5.485"/>
			<path style="fill:#251626;" d="M204.44,149.229c-0.476,0-0.926-0.288-1.107-0.759c-0.678-1.745-3.659-4.165-4.752-4.949     c-0.531-0.383-0.654-1.125-0.271-1.659c0.383-0.529,1.123-0.654,1.659-0.271c0.459,0.329,4.524,3.306,5.578,6.021     c0.239,0.61-0.065,1.299-0.678,1.536C204.728,149.204,204.584,149.229,204.44,149.229z"/>
		</g>
		<g>
			<path style="fill:#FFFFFF;" d="M187.61,120.253c0,0,4.209,3.022,5.165,5.485"/>
			<path style="fill:#251626;" d="M192.774,126.925c-0.476,0-0.926-0.288-1.107-0.759c-0.677-1.742-3.659-4.162-4.752-4.947     c-0.531-0.383-0.654-1.125-0.271-1.659c0.383-0.529,1.121-0.654,1.659-0.271c0.459,0.329,4.524,3.306,5.578,6.019     c0.239,0.61-0.065,1.299-0.678,1.536C193.062,126.9,192.918,126.925,192.774,126.925z"/>
		</g>
		<g>
			<path style="fill:#FFFFFF;" d="M199.728,155.363c0,0,3.286,4.006,3.574,6.632"/>
			<path style="fill:#251626;" d="M203.299,163.183c-0.596,0-1.111-0.45-1.179-1.058c-0.204-1.861-2.459-4.968-3.311-6.007     c-0.415-0.508-0.341-1.258,0.165-1.673c0.51-0.415,1.258-0.341,1.673,0.165c0.36,0.439,3.517,4.362,3.835,7.255     c0.072,0.652-0.399,1.239-1.051,1.311C203.387,163.181,203.343,163.183,203.299,163.183z"/>
		</g>
		<g>
			<path style="fill:#FFFFFF;" d="M189.946,133.054c0,0,3.896,3.416,4.609,5.959"/>
			<path style="fill:#251626;" d="M194.556,140.201c-0.52,0-0.998-0.343-1.144-0.868c-0.506-1.807-3.239-4.499-4.248-5.385     c-0.494-0.432-0.543-1.183-0.111-1.675c0.434-0.497,1.186-0.543,1.675-0.111c0.427,0.374,4.188,3.729,4.972,6.531     c0.176,0.631-0.193,1.288-0.824,1.464C194.77,140.187,194.661,140.201,194.556,140.201z"/>
		</g>
		<g>
			<path style="fill:#FFFFFF;" d="M197.436,130.449c0,0,5.07,1.067,6.938,2.936"/>
			<path style="fill:#251626;" d="M204.375,134.572c-0.304,0-0.608-0.116-0.84-0.348c-1.325-1.323-5.03-2.334-6.346-2.613     c-0.64-0.135-1.051-0.766-0.916-1.408c0.135-0.643,0.773-1.058,1.406-0.916c0.555,0.116,5.476,1.2,7.536,3.258     c0.464,0.464,0.464,1.216,0,1.68C204.983,134.456,204.679,134.572,204.375,134.572z"/>
		</g>
	</g>
	<g>
		<circle style="fill:#87506C;" cx="250.012" cy="114.606" r="30.777"/>
		<path style="fill:#251626;" d="M273.949,108.649c-0.497,0-0.961-0.316-1.128-0.812c-5.726-17.188-17.295-14.453-17.789-14.323    c-0.624,0.146-1.281-0.22-1.445-0.854c-0.162-0.633,0.213-1.278,0.847-1.445c0.142-0.037,14.188-3.492,20.643,15.87    c0.207,0.622-0.13,1.295-0.752,1.503C274.2,108.63,274.074,108.649,273.949,108.649z"/>
	</g>
	<g>
		<circle style="fill:#87506C;" cx="175.244" cy="361.665" r="30.777"/>
		<path style="fill:#251626;" d="M199.18,355.709c-0.497,0-0.961-0.316-1.128-0.812c-5.729-17.186-17.295-14.448-17.789-14.323    c-0.629,0.148-1.281-0.22-1.445-0.854c-0.162-0.633,0.213-1.278,0.847-1.445c0.137-0.039,14.19-3.492,20.643,15.87    c0.206,0.622-0.13,1.295-0.752,1.503C199.431,355.69,199.306,355.709,199.18,355.709z"/>
	</g>
	<g>
		<circle style="fill:#87506C;" cx="124.044" cy="354.351" r="30.777"/>
		<path style="fill:#251626;" d="M139.95,336.277c-0.255,0-0.51-0.081-0.726-0.248c-14.404-11.144-22.668-2.09-22.75-1.998    c-0.436,0.49-1.183,0.538-1.678,0.104c-0.492-0.434-0.538-1.186-0.104-1.677c0.095-0.111,9.845-10.805,25.984,1.691    c0.52,0.401,0.615,1.148,0.213,1.666C140.656,336.119,140.305,336.277,139.95,336.277z"/>
	</g>
	<g>
		<circle style="fill:#87506C;" cx="314.173" cy="121.811" r="30.777"/>
		<path style="fill:#251626;" d="M338.112,115.853c-0.497,0-0.961-0.316-1.128-0.812c-5.759-17.279-17.671-14.353-17.787-14.323    c-0.624,0.176-1.283-0.213-1.45-0.847s0.211-1.283,0.847-1.45c0.137-0.039,14.19-3.49,20.645,15.868    c0.206,0.622-0.13,1.295-0.752,1.503C338.362,115.834,338.237,115.853,338.112,115.853z"/>
	</g>
	<g>
		<path style="fill:#E2394B;" d="M346.967,167.237c0,0,18.525-53.089-3.969-50.281c-22.494,2.808-48.958,14.19-40.978,36.792    S342.728,178.929,346.967,167.237z"/>
		<g>
			<path style="fill:#FFFFFF;" d="M336.01,126.234c0,0-5.07,1.067-6.938,2.936"/>
			<path style="fill:#251626;" d="M329.072,130.357c-0.304,0-0.608-0.116-0.84-0.348c-0.464-0.464-0.464-1.216,0-1.68     c2.058-2.058,6.979-3.142,7.534-3.258c0.626-0.148,1.269,0.276,1.406,0.916c0.135,0.643-0.276,1.274-0.916,1.408     c-1.316,0.278-5.021,1.29-6.343,2.613C329.68,130.241,329.376,130.357,329.072,130.357z"/>
		</g>
		<g>
			<path style="fill:#FFFFFF;" d="M323.115,132.164c0,0-4.209,3.022-5.165,5.485"/>
			<path style="fill:#251626;" d="M317.949,138.837c-0.144,0-0.288-0.026-0.429-0.081c-0.613-0.237-0.916-0.926-0.677-1.536     c1.053-2.715,5.118-5.691,5.578-6.021c0.538-0.383,1.276-0.258,1.659,0.271c0.383,0.534,0.26,1.276-0.271,1.659     c-1.093,0.784-4.074,3.204-4.752,4.949C318.875,138.549,318.425,138.837,317.949,138.837z"/>
		</g>
		<g>
			<path style="fill:#FFFFFF;" d="M311.449,137.311c0,0-4.209,3.022-5.165,5.485"/>
			<path style="fill:#251626;" d="M306.283,143.983c-0.144,0-0.288-0.026-0.429-0.081c-0.613-0.237-0.916-0.926-0.677-1.536     c1.053-2.712,5.118-5.689,5.578-6.021c0.538-0.385,1.278-0.26,1.659,0.271c0.383,0.534,0.26,1.276-0.271,1.659     c-1.093,0.784-4.074,3.204-4.752,4.949C307.209,143.695,306.759,143.983,306.283,143.983z"/>
		</g>
		<g>
			<path style="fill:#FFFFFF;" d="M324.831,146.575c0,0-4.209,3.022-5.165,5.485"/>
			<path style="fill:#251626;" d="M319.666,153.248c-0.144,0-0.288-0.026-0.429-0.081c-0.613-0.237-0.916-0.926-0.677-1.536     c1.053-2.715,5.118-5.691,5.578-6.021c0.538-0.383,1.278-0.258,1.659,0.271c0.383,0.534,0.26,1.276-0.271,1.659     c-1.093,0.784-4.074,3.204-4.752,4.949C320.592,152.96,320.142,153.248,319.666,153.248z"/>
		</g>
		<g>
			<path style="fill:#FFFFFF;" d="M345.417,152.065c0,0-4.209,3.022-5.165,5.485"/>
			<path style="fill:#251626;" d="M340.251,158.737c-0.144,0-0.288-0.026-0.429-0.081c-0.613-0.237-0.916-0.926-0.677-1.536     c1.053-2.715,5.121-5.691,5.582-6.021c0.534-0.385,1.276-0.258,1.657,0.271c0.383,0.534,0.26,1.276-0.271,1.659     c-1.093,0.784-4.077,3.204-4.754,4.949C341.177,158.45,340.727,158.737,340.251,158.737z"/>
		</g>
		<g>
			<path style="fill:#FFFFFF;" d="M314.88,146.575c0,0-4.209,3.022-5.165,5.485"/>
			<path style="fill:#251626;" d="M309.715,153.248c-0.144,0-0.288-0.026-0.429-0.081c-0.613-0.237-0.916-0.926-0.677-1.536     c1.053-2.715,5.118-5.691,5.578-6.021c0.541-0.383,1.276-0.258,1.659,0.271c0.383,0.534,0.26,1.276-0.271,1.659     c-1.093,0.784-4.074,3.204-4.752,4.949C310.641,152.96,310.191,153.248,309.715,153.248z"/>
		</g>
		<g>
			<path style="fill:#FFFFFF;" d="M326.203,158.584c0,0-4.209,3.022-5.165,5.485"/>
			<path style="fill:#251626;" d="M321.037,165.257c-0.144,0-0.288-0.026-0.429-0.081c-0.613-0.237-0.916-0.926-0.677-1.536     c1.053-2.715,5.118-5.691,5.578-6.021c0.538-0.385,1.278-0.26,1.659,0.271c0.383,0.534,0.26,1.276-0.271,1.659     c-1.093,0.784-4.074,3.204-4.752,4.949C321.963,164.969,321.513,165.257,321.037,165.257z"/>
		</g>
		<g>
			<path style="fill:#FFFFFF;" d="M334.438,147.947c0,0-4.209,3.022-5.165,5.485"/>
			<path style="fill:#251626;" d="M329.272,154.619c-0.144,0-0.288-0.026-0.429-0.081c-0.613-0.237-0.917-0.926-0.678-1.536     c1.053-2.712,5.118-5.689,5.578-6.019c0.541-0.385,1.278-0.26,1.659,0.271c0.383,0.534,0.26,1.276-0.271,1.659     c-1.093,0.784-4.074,3.204-4.752,4.947C330.198,154.331,329.748,154.619,329.272,154.619z"/>
		</g>
		<g>
			<path style="fill:#FFFFFF;" d="M346.103,125.645c0,0-4.209,3.022-5.165,5.485"/>
			<path style="fill:#251626;" d="M340.938,132.317c-0.144,0-0.288-0.026-0.429-0.081c-0.613-0.237-0.916-0.926-0.677-1.536     c1.053-2.712,5.118-5.689,5.578-6.021c0.538-0.385,1.278-0.26,1.659,0.271c0.383,0.534,0.26,1.276-0.271,1.659     c-1.093,0.784-4.074,3.204-4.752,4.949C341.864,132.029,341.413,132.317,340.938,132.317z"/>
		</g>
		<g>
			<path style="fill:#FFFFFF;" d="M333.985,160.755c0,0-3.286,4.006-3.574,6.632"/>
			<path style="fill:#251626;" d="M330.413,168.575c-0.044,0-0.088-0.002-0.132-0.007c-0.652-0.072-1.123-0.659-1.051-1.311     c0.318-2.893,3.476-6.817,3.835-7.255c0.415-0.506,1.16-0.58,1.673-0.165c0.506,0.415,0.58,1.165,0.165,1.673     c-0.852,1.039-3.107,4.146-3.311,6.007C331.525,168.125,331.01,168.575,330.413,168.575z"/>
		</g>
		<g>
			<path style="fill:#FFFFFF;" d="M343.767,138.446c0,0-3.897,3.416-4.609,5.959"/>
			<path style="fill:#251626;" d="M339.158,145.593c-0.104,0-0.213-0.014-0.32-0.044c-0.631-0.176-1-0.833-0.824-1.464     c0.784-2.803,4.543-6.158,4.968-6.531c0.494-0.429,1.246-0.383,1.677,0.109c0.432,0.494,0.383,1.244-0.109,1.678     c-1.012,0.886-3.742,3.582-4.248,5.385C340.156,145.25,339.678,145.593,339.158,145.593z"/>
		</g>
		<g>
			<path style="fill:#FFFFFF;" d="M336.277,135.841c0,0-5.07,1.067-6.938,2.936"/>
			<path style="fill:#251626;" d="M329.339,139.965c-0.304,0-0.608-0.116-0.84-0.348c-0.464-0.464-0.464-1.216,0-1.68     c2.058-2.058,6.979-3.142,7.534-3.258c0.629-0.144,1.271,0.274,1.406,0.916c0.135,0.643-0.276,1.274-0.916,1.408     c-1.316,0.278-5.021,1.29-6.343,2.613C329.947,139.849,329.643,139.965,329.339,139.965z"/>
		</g>
	</g>
	<g>
		<path style="fill:#E2394B;" d="M458.307,342.78c0,0,18.525-53.089-3.969-50.281c-22.494,2.808-48.958,14.19-40.979,36.792    C421.339,351.893,454.067,354.472,458.307,342.78z"/>
		<g>
			<path style="fill:#FFFFFF;" d="M447.35,301.776c0,0-5.07,1.067-6.938,2.935"/>
			<path style="fill:#251626;" d="M440.412,305.898c-0.304,0-0.608-0.116-0.84-0.348c-0.464-0.464-0.464-1.216,0-1.68     c2.058-2.058,6.979-3.142,7.534-3.258c0.624-0.146,1.269,0.274,1.406,0.916c0.135,0.643-0.276,1.274-0.916,1.408     c-1.316,0.278-5.021,1.29-6.343,2.613C441.02,305.782,440.716,305.898,440.412,305.898z"/>
		</g>
		<g>
			<path style="fill:#FFFFFF;" d="M434.454,307.707c0,0-4.209,3.022-5.165,5.485"/>
			<path style="fill:#251626;" d="M429.289,314.379c-0.144,0-0.288-0.026-0.429-0.081c-0.613-0.237-0.916-0.926-0.677-1.536     c1.053-2.712,5.118-5.689,5.578-6.021c0.538-0.385,1.278-0.26,1.659,0.271c0.383,0.534,0.26,1.276-0.271,1.659     c-1.093,0.784-4.074,3.204-4.752,4.949C430.215,314.091,429.764,314.379,429.289,314.379z"/>
		</g>
		<g>
			<path style="fill:#FFFFFF;" d="M422.789,312.854c0,0-4.209,3.022-5.165,5.485"/>
			<path style="fill:#251626;" d="M417.623,319.525c-0.144,0-0.288-0.026-0.429-0.081c-0.613-0.237-0.916-0.926-0.677-1.536     c1.053-2.712,5.118-5.689,5.578-6.019c0.538-0.385,1.278-0.258,1.659,0.271c0.383,0.534,0.26,1.276-0.271,1.659     c-1.093,0.784-4.074,3.204-4.752,4.947C418.549,319.237,418.098,319.525,417.623,319.525z"/>
		</g>
		<g>
			<path style="fill:#FFFFFF;" d="M436.17,322.118c0,0-4.209,3.022-5.165,5.485"/>
			<path style="fill:#251626;" d="M431.006,328.79c-0.144,0-0.288-0.026-0.429-0.081c-0.613-0.237-0.916-0.926-0.677-1.536     c1.053-2.712,5.118-5.689,5.578-6.021c0.541-0.385,1.278-0.26,1.659,0.271c0.383,0.534,0.26,1.276-0.271,1.659     c-1.093,0.784-4.074,3.204-4.752,4.949C431.932,328.502,431.481,328.79,431.006,328.79z"/>
		</g>
		<g>
			<path style="fill:#FFFFFF;" d="M456.757,327.607c0,0-4.209,3.022-5.165,5.485"/>
			<path style="fill:#251626;" d="M451.591,334.279c-0.144,0-0.288-0.026-0.429-0.081c-0.613-0.237-0.916-0.926-0.678-1.536     c1.053-2.712,5.121-5.689,5.58-6.021c0.541-0.385,1.278-0.258,1.659,0.271c0.383,0.534,0.26,1.276-0.271,1.659     c-1.093,0.784-4.077,3.204-4.754,4.949C452.516,333.991,452.066,334.279,451.591,334.279z"/>
		</g>
		<g>
			<path style="fill:#FFFFFF;" d="M426.22,322.118c0,0-4.209,3.022-5.165,5.485"/>
			<path style="fill:#251626;" d="M421.054,328.79c-0.144,0-0.288-0.026-0.429-0.081c-0.613-0.237-0.917-0.926-0.677-1.536     c1.053-2.712,5.118-5.689,5.578-6.021c0.538-0.385,1.278-0.26,1.659,0.271c0.383,0.534,0.26,1.276-0.271,1.659     c-1.093,0.784-4.074,3.204-4.752,4.949C421.98,328.502,421.53,328.79,421.054,328.79z"/>
		</g>
		<g>
			<path style="fill:#FFFFFF;" d="M437.542,334.126c0,0-4.209,3.022-5.165,5.485"/>
			<path style="fill:#251626;" d="M432.377,340.799c-0.144,0-0.288-0.026-0.429-0.081c-0.613-0.237-0.916-0.926-0.678-1.536     c1.053-2.712,5.118-5.689,5.578-6.021c0.541-0.385,1.276-0.258,1.659,0.271c0.383,0.534,0.26,1.276-0.271,1.659     c-1.093,0.784-4.074,3.204-4.752,4.949C433.303,340.511,432.853,340.799,432.377,340.799z"/>
		</g>
		<g>
			<path style="fill:#FFFFFF;" d="M445.777,323.49c0,0-4.209,3.022-5.165,5.485"/>
			<path style="fill:#251626;" d="M440.611,330.163c-0.144,0-0.288-0.026-0.429-0.081c-0.613-0.237-0.916-0.926-0.677-1.536     c1.053-2.715,5.118-5.691,5.578-6.021c0.541-0.385,1.278-0.26,1.659,0.271c0.383,0.534,0.26,1.276-0.271,1.659     c-1.093,0.784-4.074,3.204-4.752,4.949C441.537,329.875,441.087,330.163,440.611,330.163z"/>
		</g>
		<g>
			<path style="fill:#FFFFFF;" d="M457.443,301.188c0,0-4.209,3.022-5.165,5.485"/>
			<path style="fill:#251626;" d="M452.277,307.861c-0.144,0-0.288-0.026-0.429-0.081c-0.613-0.237-0.916-0.926-0.677-1.536     c1.053-2.715,5.118-5.691,5.578-6.021c0.541-0.385,1.278-0.258,1.659,0.271c0.383,0.534,0.26,1.276-0.271,1.659     c-1.093,0.784-4.074,3.204-4.752,4.949C453.203,307.574,452.753,307.861,452.277,307.861z"/>
		</g>
		<g>
			<path style="fill:#FFFFFF;" d="M445.325,336.297c0,0-3.286,4.006-3.574,6.632"/>
			<path style="fill:#251626;" d="M441.753,344.117c-0.044,0-0.088-0.002-0.132-0.007c-0.652-0.072-1.123-0.659-1.051-1.311     c0.318-2.893,3.476-6.817,3.835-7.255c0.415-0.506,1.162-0.58,1.673-0.165c0.506,0.415,0.58,1.165,0.165,1.673     c-0.852,1.039-3.107,4.146-3.311,6.007C442.864,343.667,442.349,344.117,441.753,344.117z"/>
		</g>
		<g>
			<path style="fill:#FFFFFF;" d="M455.106,313.989c0,0-3.897,3.415-4.609,5.959"/>
			<path style="fill:#251626;" d="M450.498,321.135c-0.104,0-0.213-0.014-0.32-0.044c-0.631-0.176-1-0.833-0.824-1.464     c0.784-2.803,4.543-6.158,4.968-6.531c0.497-0.429,1.246-0.383,1.678,0.109c0.432,0.494,0.383,1.244-0.109,1.678     c-1.012,0.886-3.742,3.582-4.248,5.385C451.495,320.792,451.018,321.135,450.498,321.135z"/>
		</g>
		<g>
			<path style="fill:#FFFFFF;" d="M447.617,311.383c0,0-5.07,1.067-6.938,2.935"/>
			<path style="fill:#251626;" d="M440.679,315.506c-0.304,0-0.608-0.116-0.84-0.348c-0.464-0.464-0.464-1.216,0-1.68     c2.058-2.058,6.979-3.142,7.534-3.258c0.626-0.142,1.269,0.274,1.406,0.916c0.135,0.643-0.276,1.274-0.917,1.408     c-1.316,0.278-5.021,1.29-6.343,2.613C441.287,315.39,440.983,315.506,440.679,315.506z"/>
		</g>
	</g>
	<g>
		<path style="fill:#E2394B;" d="M255.624,182.826c0,0,56.228-0.03,46.155-20.337c-10.073-20.308-29.549-41.534-48.253-26.543    S243.187,182.682,255.624,182.826z"/>
		<g>
			<path style="fill:#FFFFFF;" d="M290.716,158.953c0,0-2.681-4.434-5.061-5.581"/>
			<path style="fill:#251626;" d="M290.715,160.141c-0.401,0-0.793-0.204-1.016-0.573c-0.696-1.151-2.872-4.313-4.559-5.128     c-0.592-0.285-0.84-0.995-0.555-1.585c0.285-0.594,1.002-0.842,1.585-0.555c2.624,1.265,5.269,5.552,5.562,6.037     c0.339,0.561,0.16,1.292-0.401,1.631C291.137,160.085,290.926,160.141,290.715,160.141z"/>
		</g>
		<g>
			<path style="fill:#FFFFFF;" d="M280.862,148.736c0,0-4.241-2.976-6.882-3.066"/>
			<path style="fill:#251626;" d="M280.859,149.925c-0.234,0-0.473-0.07-0.68-0.216c-1.102-0.77-4.369-2.789-6.241-2.852     c-0.654-0.023-1.167-0.573-1.146-1.23c0.026-0.654,0.578-1.118,1.23-1.146c2.907,0.1,7.058,2.958,7.522,3.283     c0.538,0.376,0.666,1.116,0.29,1.654C281.601,149.749,281.234,149.925,280.859,149.925z"/>
		</g>
		<g>
			<path style="fill:#FFFFFF;" d="M272.154,139.422c0,0-4.241-2.976-6.882-3.066"/>
			<path style="fill:#251626;" d="M272.151,140.61c-0.234,0-0.473-0.07-0.68-0.216c-1.102-0.77-4.369-2.787-6.239-2.849     c-0.657-0.023-1.169-0.571-1.149-1.227c0.023-0.643,0.55-1.148,1.188-1.148c0.012,0,0.026,0,0.039,0     c2.91,0.097,7.06,2.956,7.524,3.281c0.538,0.376,0.666,1.116,0.29,1.654C272.893,140.433,272.527,140.61,272.151,140.61z"/>
		</g>
		<g>
			<path style="fill:#FFFFFF;" d="M267.824,155.111c0,0-4.241-2.976-6.882-3.066"/>
			<path style="fill:#251626;" d="M267.821,156.299c-0.234,0-0.473-0.07-0.68-0.216c-1.102-0.77-4.369-2.789-6.241-2.852     c-0.654-0.023-1.167-0.573-1.146-1.23c0.026-0.654,0.575-1.135,1.23-1.146c2.907,0.1,7.058,2.958,7.522,3.283     c0.538,0.376,0.666,1.116,0.29,1.654C268.564,156.122,268.197,156.299,267.821,156.299z"/>
		</g>
		<g>
			<path style="fill:#FFFFFF;" d="M269.435,176.356c0,0-4.241-2.976-6.882-3.066"/>
			<path style="fill:#251626;" d="M269.432,177.545c-0.234,0-0.473-0.07-0.68-0.216c-1.102-0.77-4.369-2.789-6.241-2.852     c-0.654-0.023-1.167-0.573-1.146-1.23c0.023-0.654,0.594-1.137,1.23-1.146c2.907,0.1,7.058,2.958,7.522,3.283     c0.538,0.376,0.666,1.116,0.29,1.654C270.174,177.369,269.807,177.545,269.432,177.545z"/>
		</g>
		<g>
			<path style="fill:#FFFFFF;" d="M264.541,145.718c0,0-4.241-2.976-6.882-3.066"/>
			<path style="fill:#251626;" d="M264.538,146.907c-0.234,0-0.473-0.07-0.68-0.216c-1.102-0.77-4.369-2.789-6.241-2.852     c-0.654-0.023-1.167-0.573-1.146-1.23c0.023-0.654,0.599-1.142,1.23-1.146c2.907,0.1,7.058,2.958,7.522,3.283     c0.538,0.376,0.666,1.116,0.29,1.654C265.281,146.73,264.914,146.907,264.538,146.907z"/>
		</g>
		<g>
			<path style="fill:#FFFFFF;" d="M256.941,160.369c0,0-4.241-2.976-6.882-3.066"/>
			<path style="fill:#251626;" d="M256.94,161.556c-0.234,0-0.473-0.07-0.68-0.216c-1.102-0.77-4.369-2.787-6.239-2.849     c-0.657-0.023-1.169-0.571-1.148-1.227c0.023-0.643,0.55-1.148,1.188-1.148c0.012,0,0.026,0,0.039,0     c2.91,0.097,7.06,2.956,7.524,3.281c0.538,0.376,0.666,1.116,0.29,1.654C257.682,161.38,257.315,161.556,256.94,161.556z"/>
		</g>
		<g>
			<path style="fill:#FFFFFF;" d="M269.699,164.633c0,0-4.241-2.976-6.882-3.066"/>
			<path style="fill:#251626;" d="M269.696,165.821c-0.234,0-0.473-0.07-0.68-0.216c-1.102-0.77-4.369-2.789-6.241-2.852     c-0.654-0.023-1.167-0.573-1.146-1.23c0.023-0.654,0.601-1.148,1.23-1.146c2.907,0.1,7.058,2.958,7.522,3.283     c0.538,0.376,0.666,1.116,0.29,1.654C270.439,165.645,270.072,165.821,269.696,165.821z"/>
		</g>
		<g>
			<path style="fill:#FFFFFF;" d="M294.601,168.286c0,0-4.241-2.976-6.882-3.066"/>
			<path style="fill:#251626;" d="M294.599,169.475c-0.234,0-0.473-0.07-0.68-0.216c-1.102-0.77-4.369-2.789-6.241-2.852     c-0.654-0.023-1.167-0.573-1.146-1.23c0.026-0.654,0.582-1.109,1.23-1.146c2.907,0.1,7.058,2.958,7.522,3.283     c0.538,0.376,0.666,1.116,0.29,1.654C295.341,169.299,294.975,169.475,294.599,169.475z"/>
		</g>
		<g>
			<path style="fill:#FFFFFF;" d="M257.459,168.432c0,0-4.866-1.78-7.44-1.186"/>
			<path style="fill:#251626;" d="M257.459,169.619c-0.135,0-0.274-0.023-0.408-0.072c-1.262-0.462-4.944-1.561-6.766-1.144     c-0.65,0.153-1.276-0.251-1.425-0.891c-0.146-0.638,0.251-1.276,0.891-1.425c2.845-0.647,7.585,1.033,8.116,1.227     c0.615,0.225,0.933,0.907,0.708,1.524C258.399,169.32,257.944,169.619,257.459,169.619z"/>
		</g>
		<g>
			<path style="fill:#FFFFFF;" d="M281.746,170.304c0,0-4.51-2.551-7.146-2.385"/>
			<path style="fill:#251626;" d="M281.745,171.491c-0.197,0-0.397-0.049-0.582-0.153c-1.174-0.661-4.675-2.385-6.487-2.232     c-0.65,0.058-1.218-0.455-1.26-1.111c-0.042-0.654,0.455-1.218,1.111-1.26c2.872-0.206,7.311,2.255,7.805,2.534     c0.571,0.323,0.773,1.049,0.45,1.62C282.564,171.273,282.16,171.491,281.745,171.491z"/>
		</g>
		<g>
			<path style="fill:#FFFFFF;" d="M281.735,162.375c0,0-2.681-4.434-5.061-5.581"/>
			<path style="fill:#251626;" d="M281.736,163.563c-0.401,0-0.793-0.204-1.016-0.573c-0.696-1.151-2.875-4.313-4.561-5.128     c-0.589-0.285-0.838-0.995-0.552-1.587c0.285-0.592,0.998-0.84,1.587-0.552c2.62,1.265,5.267,5.552,5.559,6.037     c0.339,0.561,0.16,1.29-0.401,1.631C282.158,163.508,281.947,163.563,281.736,163.563z"/>
		</g>
	</g>
	<g>
		<path style="fill:#E2394B;" d="M210.018,398.199c0,0,56.228-0.03,46.155-20.337c-10.073-20.308-29.549-41.534-48.253-26.543    C189.217,366.309,197.581,398.055,210.018,398.199z"/>
		<g>
			<path style="fill:#FFFFFF;" d="M245.109,374.326c0,0-2.681-4.434-5.061-5.581"/>
			<path style="fill:#251626;" d="M245.109,375.514c-0.401,0-0.794-0.204-1.016-0.573c-0.696-1.151-2.872-4.313-4.559-5.125     c-0.592-0.283-0.84-0.993-0.555-1.585s1.002-0.842,1.585-0.555c2.624,1.262,5.269,5.55,5.562,6.035     c0.339,0.561,0.16,1.292-0.401,1.631C245.531,375.458,245.32,375.514,245.109,375.514z"/>
		</g>
		<g>
			<path style="fill:#FFFFFF;" d="M235.255,364.11c0,0-4.241-2.976-6.882-3.066"/>
			<path style="fill:#251626;" d="M235.253,365.298c-0.234,0-0.473-0.07-0.68-0.216c-1.102-0.77-4.369-2.789-6.241-2.852     c-0.654-0.023-1.167-0.573-1.146-1.23c0.023-0.654,0.599-1.121,1.23-1.146c2.907,0.1,7.058,2.958,7.522,3.283     c0.538,0.376,0.666,1.116,0.29,1.654C235.995,365.122,235.629,365.298,235.253,365.298z"/>
		</g>
		<g>
			<path style="fill:#FFFFFF;" d="M226.548,354.796c0,0-4.241-2.976-6.882-3.066"/>
			<path style="fill:#251626;" d="M226.545,355.985c-0.234,0-0.473-0.07-0.68-0.216c-1.102-0.77-4.369-2.789-6.241-2.852     c-0.654-0.023-1.167-0.573-1.146-1.23c0.023-0.654,0.615-1.1,1.23-1.146c2.907,0.1,7.058,2.958,7.522,3.283     c0.538,0.376,0.666,1.116,0.29,1.654C227.287,355.808,226.921,355.985,226.545,355.985z"/>
		</g>
		<g>
			<path style="fill:#FFFFFF;" d="M222.218,370.484c0,0-4.241-2.976-6.882-3.066"/>
			<path style="fill:#251626;" d="M222.215,371.672c-0.234,0-0.471-0.07-0.68-0.216c-1.1-0.77-4.369-2.787-6.241-2.849     c-0.654-0.023-1.167-0.573-1.146-1.23c0.023-0.654,0.596-1.142,1.23-1.146c2.907,0.1,7.058,2.956,7.522,3.281     c0.536,0.376,0.666,1.116,0.29,1.654C222.96,371.495,222.591,371.672,222.215,371.672z"/>
		</g>
		<g>
			<path style="fill:#FFFFFF;" d="M223.828,391.729c0,0-4.241-2.976-6.882-3.066"/>
			<path style="fill:#251626;" d="M223.826,392.918c-0.234,0-0.473-0.07-0.68-0.216c-1.102-0.77-4.369-2.789-6.241-2.852     c-0.654-0.023-1.167-0.573-1.146-1.23c0.023-0.654,0.617-1.142,1.23-1.146c2.907,0.1,7.058,2.958,7.522,3.283     c0.538,0.376,0.666,1.116,0.29,1.654C224.568,392.741,224.202,392.918,223.826,392.918z"/>
		</g>
		<g>
			<path style="fill:#FFFFFF;" d="M218.935,361.091c0,0-4.241-2.976-6.882-3.066"/>
			<path style="fill:#251626;" d="M218.932,362.279c-0.234,0-0.473-0.07-0.68-0.216c-1.102-0.77-4.369-2.789-6.241-2.852     c-0.654-0.023-1.167-0.573-1.146-1.23c0.023-0.654,0.619-1.146,1.23-1.146c2.907,0.1,7.058,2.958,7.522,3.283     c0.538,0.376,0.666,1.116,0.29,1.654C219.675,362.103,219.308,362.279,218.932,362.279z"/>
		</g>
		<g>
			<path style="fill:#FFFFFF;" d="M211.334,375.742c0,0-4.241-2.976-6.882-3.066"/>
			<path style="fill:#251626;" d="M211.331,376.931c-0.234,0-0.473-0.07-0.68-0.216c-1.102-0.77-4.369-2.789-6.241-2.852     c-0.654-0.023-1.167-0.573-1.146-1.23c0.023-0.654,0.615-1.128,1.23-1.146c2.907,0.1,7.058,2.958,7.522,3.283     c0.538,0.376,0.666,1.116,0.29,1.654C212.074,376.755,211.707,376.931,211.331,376.931z"/>
		</g>
		<g>
			<path style="fill:#FFFFFF;" d="M224.092,380.006c0,0-4.241-2.976-6.882-3.066"/>
			<path style="fill:#251626;" d="M224.09,381.194c-0.234,0-0.473-0.07-0.68-0.216c-1.102-0.77-4.369-2.787-6.239-2.849     c-0.657-0.023-1.169-0.571-1.148-1.227c0.023-0.654,0.478-1.151,1.227-1.148c2.91,0.097,7.06,2.956,7.524,3.281     c0.538,0.376,0.666,1.116,0.29,1.654C224.833,381.017,224.466,381.194,224.09,381.194z"/>
		</g>
		<g>
			<path style="fill:#FFFFFF;" d="M248.995,383.66c0,0-4.241-2.976-6.882-3.066"/>
			<path style="fill:#251626;" d="M248.993,384.848c-0.234,0-0.473-0.07-0.68-0.216c-1.102-0.77-4.369-2.789-6.241-2.852     c-0.654-0.023-1.167-0.573-1.146-1.23c0.023-0.654,0.606-1.111,1.23-1.146c2.907,0.1,7.058,2.958,7.522,3.283     c0.538,0.376,0.666,1.116,0.29,1.654C249.735,384.672,249.369,384.848,248.993,384.848z"/>
		</g>
		<g>
			<path style="fill:#FFFFFF;" d="M211.853,383.805c0,0-4.866-1.78-7.44-1.186"/>
			<path style="fill:#251626;" d="M211.853,384.994c-0.137,0-0.274-0.023-0.408-0.072c-1.262-0.462-4.928-1.575-6.766-1.144     c-0.626,0.153-1.276-0.251-1.425-0.891c-0.148-0.638,0.251-1.276,0.891-1.425c2.847-0.647,7.585,1.035,8.116,1.227     c0.617,0.225,0.933,0.907,0.708,1.524C212.793,384.695,212.338,384.994,211.853,384.994z"/>
		</g>
		<g>
			<path style="fill:#FFFFFF;" d="M236.14,385.678c0,0-4.51-2.551-7.146-2.385"/>
			<path style="fill:#251626;" d="M236.137,386.867c-0.197,0-0.397-0.049-0.582-0.153c-1.172-0.664-4.664-2.369-6.487-2.234     c-0.668,0.039-1.22-0.455-1.26-1.111c-0.042-0.654,0.455-1.218,1.111-1.26c2.896-0.193,7.313,2.26,7.805,2.536     c0.571,0.325,0.773,1.049,0.45,1.62C236.953,386.648,236.552,386.867,236.137,386.867z"/>
		</g>
		<g>
			<path style="fill:#FFFFFF;" d="M236.128,377.748c0,0-2.681-4.434-5.061-5.581"/>
			<path style="fill:#251626;" d="M236.127,378.936c-0.401,0-0.794-0.204-1.016-0.573c-0.696-1.151-2.872-4.313-4.559-5.128     c-0.592-0.285-0.84-0.995-0.555-1.585c0.285-0.592,1.005-0.84,1.585-0.555c2.624,1.265,5.269,5.552,5.562,6.037     c0.339,0.561,0.16,1.292-0.401,1.631C236.55,378.88,236.339,378.936,236.127,378.936z"/>
		</g>
	</g>
	<g>
		<path style="fill:#E2394B;" d="M98.114,345.42c0,0-3.588-56.114-23.218-44.775s-39.58,32.119-23.436,49.836    S98.757,357.84,98.114,345.42z"/>
		<g>
			<path style="fill:#FFFFFF;" d="M72.068,311.909c0,0-4.256,2.956-5.25,5.404"/>
			<path style="fill:#251626;" d="M66.818,318.502c-0.148,0-0.302-0.028-0.448-0.088c-0.608-0.246-0.9-0.94-0.652-1.548     c1.095-2.696,5.207-5.608,5.673-5.933c0.543-0.369,1.281-0.237,1.652,0.299c0.376,0.538,0.241,1.278-0.297,1.652     c-1.102,0.768-4.123,3.142-4.828,4.877C67.729,318.223,67.286,318.502,66.818,318.502z"/>
		</g>
		<g>
			<path style="fill:#FFFFFF;" d="M62.496,322.39c0,0-2.702,4.421-2.625,7.062"/>
			<path style="fill:#251626;" d="M59.871,330.639c-0.64,0-1.169-0.51-1.188-1.153c-0.084-2.91,2.503-7.232,2.798-7.715     c0.346-0.561,1.07-0.736,1.633-0.394c0.559,0.341,0.736,1.072,0.394,1.633c-0.701,1.146-2.506,4.536-2.45,6.406     c0.019,0.657-0.499,1.204-1.153,1.223C59.894,330.639,59.882,330.639,59.871,330.639z"/>
		</g>
		<g>
			<path style="fill:#FFFFFF;" d="M53.752,331.67c0,0-2.702,4.421-2.625,7.062"/>
			<path style="fill:#251626;" d="M51.126,339.92c-0.64,0-1.169-0.51-1.188-1.153c-0.084-2.91,2.506-7.234,2.8-7.717     c0.343-0.561,1.07-0.738,1.633-0.394c0.559,0.341,0.736,1.074,0.394,1.633c-0.701,1.148-2.508,4.538-2.452,6.408     c0.019,0.657-0.499,1.204-1.153,1.223C51.149,339.92,51.138,339.92,51.126,339.92z"/>
		</g>
		<g>
			<path style="fill:#FFFFFF;" d="M69.683,334.998c0,0-2.702,4.421-2.625,7.062"/>
			<path style="fill:#251626;" d="M67.059,343.247c-0.64,0-1.167-0.508-1.188-1.153c-0.086-2.91,2.503-7.232,2.798-7.715     c0.346-0.561,1.079-0.738,1.633-0.394c0.559,0.343,0.736,1.074,0.394,1.633c-0.701,1.146-2.506,4.536-2.45,6.406     c0.019,0.654-0.497,1.202-1.153,1.223C67.082,343.247,67.07,343.247,67.059,343.247z"/>
		</g>
		<g>
			<path style="fill:#FFFFFF;" d="M90.783,332.046c0,0-2.702,4.421-2.625,7.062"/>
			<path style="fill:#251626;" d="M88.159,340.295c-0.64,0-1.169-0.51-1.188-1.153c-0.084-2.91,2.504-7.232,2.798-7.717     c0.343-0.561,1.07-0.738,1.633-0.394c0.559,0.341,0.736,1.072,0.394,1.633c-0.701,1.148-2.506,4.538-2.45,6.408     c0.019,0.657-0.499,1.204-1.153,1.223C88.182,340.295,88.17,340.295,88.159,340.295z"/>
		</g>
		<g>
			<path style="fill:#FFFFFF;" d="M60.517,338.869c0,0-2.702,4.421-2.625,7.062"/>
			<path style="fill:#251626;" d="M57.892,347.119c-0.64,0-1.169-0.51-1.188-1.153c-0.084-2.91,2.503-7.232,2.798-7.717     c0.346-0.559,1.072-0.738,1.633-0.394c0.559,0.341,0.736,1.072,0.394,1.633c-0.701,1.148-2.506,4.538-2.45,6.408     c0.019,0.657-0.499,1.204-1.153,1.223C57.915,347.119,57.903,347.119,57.892,347.119z"/>
		</g>
		<g>
			<path style="fill:#FFFFFF;" d="M75.619,345.527c0,0-2.702,4.421-2.625,7.062"/>
			<path style="fill:#251626;" d="M72.994,353.776c-0.64,0-1.169-0.51-1.188-1.153c-0.084-2.91,2.504-7.232,2.798-7.715     c0.346-0.559,1.07-0.736,1.633-0.394c0.559,0.341,0.736,1.072,0.394,1.633c-0.701,1.146-2.506,4.536-2.45,6.406     c0.019,0.657-0.499,1.204-1.153,1.223C73.017,353.776,73.006,353.776,72.994,353.776z"/>
		</g>
		<g>
			<path style="fill:#FFFFFF;" d="M79.067,332.525c0,0-2.702,4.421-2.625,7.062"/>
			<path style="fill:#251626;" d="M76.442,340.773c-0.64,0-1.169-0.51-1.188-1.153c-0.084-2.91,2.504-7.232,2.798-7.715     c0.343-0.559,1.07-0.736,1.633-0.394c0.559,0.341,0.736,1.072,0.394,1.633c-0.701,1.146-2.506,4.536-2.45,6.406     c0.019,0.657-0.499,1.204-1.153,1.223C76.465,340.773,76.453,340.773,76.442,340.773z"/>
		</g>
		<g>
			<path style="fill:#FFFFFF;" d="M81.137,307.441c0,0-2.702,4.421-2.625,7.062"/>
			<path style="fill:#251626;" d="M78.514,315.69c-0.64,0-1.167-0.508-1.188-1.153c-0.086-2.91,2.504-7.232,2.798-7.715     c0.343-0.561,1.077-0.738,1.633-0.394c0.559,0.343,0.736,1.074,0.394,1.633c-0.701,1.146-2.506,4.536-2.45,6.406     c0.019,0.654-0.497,1.202-1.153,1.223C78.537,315.69,78.525,315.69,78.514,315.69z"/>
		</g>
		<g>
			<path style="fill:#FFFFFF;" d="M83.633,344.499c0,0-1.469,4.969-0.712,7.5"/>
			<path style="fill:#251626;" d="M82.92,353.186c-0.513,0-0.984-0.332-1.139-0.847c-0.833-2.791,0.552-7.633,0.712-8.176     c0.186-0.631,0.856-0.984,1.476-0.803c0.629,0.186,0.988,0.847,0.803,1.476c-0.381,1.29-1.248,5.028-0.712,6.821     c0.188,0.629-0.169,1.292-0.798,1.48C83.147,353.17,83.031,353.186,82.92,353.186z"/>
		</g>
		<g>
			<path style="fill:#FFFFFF;" d="M83.965,320.142c0,0-2.261,4.662-1.928,7.283"/>
			<path style="fill:#251626;" d="M82.036,328.613c-0.589,0-1.1-0.439-1.176-1.037c-0.369-2.889,1.789-7.443,2.035-7.951     c0.29-0.592,0.998-0.84,1.587-0.552c0.592,0.288,0.838,0.998,0.552,1.587c-0.587,1.211-2.053,4.759-1.817,6.615     c0.084,0.652-0.378,1.246-1.028,1.329C82.138,328.611,82.087,328.613,82.036,328.613z"/>
		</g>
		<g>
			<path style="fill:#FFFFFF;" d="M76.052,320.656c0,0-4.256,2.956-5.25,5.404"/>
			<path style="fill:#251626;" d="M70.801,327.247c-0.148,0-0.302-0.028-0.448-0.088c-0.608-0.246-0.9-0.94-0.652-1.548     c1.095-2.696,5.207-5.608,5.673-5.93c0.541-0.376,1.283-0.239,1.652,0.297c0.376,0.538,0.241,1.278-0.297,1.652     c-1.102,0.768-4.123,3.142-4.828,4.877C71.713,326.968,71.27,327.247,70.801,327.247z"/>
		</g>
	</g>
	<g>
		<circle style="fill:#87506C;" cx="349.119" cy="372.934" r="30.777"/>
		<path style="fill:#251626;" d="M338.833,353.841c-0.246,0-0.494-0.077-0.708-0.234c-0.524-0.39-0.636-1.13-0.248-1.657    c0.086-0.116,8.847-11.629,26.028-0.606c0.552,0.355,0.715,1.088,0.36,1.64c-0.355,0.557-1.093,0.712-1.64,0.36    c-15.248-9.777-22.536-0.385-22.838,0.019C339.553,353.676,339.195,353.841,338.833,353.841z"/>
	</g>
	<g>
		<circle style="fill:#87506C;" cx="401.132" cy="342.864" r="30.777"/>
		<path style="fill:#251626;" d="M425.071,336.908c-0.497,0-0.961-0.316-1.128-0.812c-5.759-17.281-17.671-14.353-17.787-14.325    c-0.629,0.174-1.283-0.211-1.45-0.847c-0.167-0.633,0.211-1.283,0.847-1.45c0.139-0.039,14.188-3.492,20.645,15.87    c0.207,0.622-0.13,1.295-0.752,1.503C425.321,336.889,425.196,336.908,425.071,336.908z"/>
	</g>
	<path style="fill:#F9DD96;" d="M129.592,233.981c0,0,3.121,4.681,10.142,7.022"/>
	<g>
		<path style="fill:#241726;" d="M153.667,239.937c-2.914,0-9.35-2.831-10.095-3.162c-0.601-0.267-0.87-0.97-0.603-1.568    c0.267-0.601,0.977-0.865,1.568-0.603c2.705,1.207,7.638,3.111,9.234,2.954c0.657-0.042,1.223,0.445,1.271,1.1    c0.046,0.654-0.445,1.223-1.1,1.271C153.855,239.933,153.763,239.937,153.667,239.937z"/>
		<path style="fill:#241726;" d="M141.435,246.963c-2.914,0-9.35-2.831-10.095-3.162c-0.601-0.267-0.87-0.97-0.603-1.568    c0.269-0.601,0.974-0.868,1.568-0.603c2.703,1.207,7.62,3.084,9.234,2.954c0.638-0.046,1.223,0.445,1.271,1.1    c0.046,0.654-0.445,1.223-1.1,1.271C141.623,246.958,141.53,246.963,141.435,246.963z"/>
		<path style="fill:#241726;" d="M134.141,231.752c-2.912,0-9.35-2.833-10.095-3.165c-0.601-0.269-0.87-0.97-0.603-1.568    c0.267-0.601,0.979-0.868,1.568-0.603c2.701,1.204,7.55,3.114,9.234,2.956c0.589-0.049,1.223,0.445,1.269,1.102    c0.046,0.654-0.448,1.223-1.102,1.269C134.326,231.747,134.236,231.752,134.141,231.752z"/>
		<path style="fill:#241726;" d="M119.372,236.323c-0.067,0-0.135-0.005-0.204-0.016c-2.724-0.469-8.645-5.033-9.311-5.552    c-0.517-0.404-0.61-1.151-0.206-1.668c0.404-0.517,1.146-0.613,1.668-0.206c2.334,1.819,6.638,4.807,8.253,5.084    c0.645,0.111,1.081,0.726,0.97,1.374C120.442,235.914,119.939,236.323,119.372,236.323z"/>
		<path style="fill:#241726;" d="M117.412,222.905c-0.067,0-0.135-0.005-0.204-0.016c-2.724-0.469-8.645-5.033-9.311-5.552    c-0.517-0.404-0.61-1.151-0.206-1.668c0.401-0.517,1.148-0.613,1.668-0.206c2.334,1.819,6.638,4.807,8.253,5.084    c0.645,0.111,1.081,0.726,0.97,1.374C118.482,222.496,117.978,222.905,117.412,222.905z"/>
		<path style="fill:#241726;" d="M146.424,227.445c-2.914,0-9.35-2.831-10.095-3.162c-0.601-0.267-0.87-0.97-0.603-1.568    c0.269-0.601,0.977-0.868,1.568-0.603c2.703,1.206,7.615,3.086,9.234,2.954c0.654-0.049,1.223,0.445,1.271,1.1    c0.046,0.654-0.445,1.223-1.1,1.271C146.612,227.441,146.519,227.445,146.424,227.445z"/>
		<path style="fill:#241726;" d="M166.002,233.522c-2.912,0-9.353-2.833-10.098-3.165c-0.601-0.267-0.87-0.97-0.603-1.568    c0.267-0.601,0.979-0.868,1.568-0.603c2.703,1.204,7.566,3.086,9.237,2.956c0.596-0.051,1.223,0.445,1.269,1.102    c0.046,0.654-0.448,1.223-1.102,1.269C166.187,233.517,166.097,233.522,166.002,233.522z"/>
		<path style="fill:#241726;" d="M165.876,253.371c-2.912,0-9.353-2.833-10.098-3.165c-0.601-0.267-0.87-0.97-0.603-1.568    c0.269-0.601,0.977-0.87,1.568-0.603c2.703,1.204,7.571,3.1,9.237,2.956c0.596-0.056,1.223,0.445,1.269,1.102    c0.046,0.654-0.448,1.223-1.102,1.269C166.062,253.367,165.971,253.371,165.876,253.371z"/>
		<path style="fill:#241726;" d="M176.273,246.629c-2.912,0-9.35-2.833-10.095-3.165c-0.601-0.269-0.87-0.97-0.603-1.568    c0.267-0.601,0.977-0.868,1.568-0.603c2.701,1.204,7.559,3.102,9.234,2.956c0.608-0.06,1.223,0.445,1.269,1.102    c0.046,0.654-0.448,1.223-1.102,1.269C176.459,246.624,176.368,246.629,176.273,246.629z"/>
		<path style="fill:#241726;" d="M185.983,257.796c-2.914,0-9.35-2.831-10.095-3.162c-0.601-0.267-0.87-0.97-0.603-1.568    c0.267-0.603,0.979-0.865,1.568-0.603c2.703,1.207,7.62,3.093,9.234,2.954c0.657-0.049,1.223,0.445,1.271,1.1    c0.046,0.654-0.445,1.223-1.1,1.271C186.171,257.791,186.078,257.796,185.983,257.796z"/>
		<path style="fill:#241726;" d="M188.897,242.258c-2.914,0-9.35-2.833-10.098-3.165c-0.599-0.269-0.868-0.97-0.601-1.571    c0.267-0.599,0.97-0.868,1.571-0.601c2.703,1.207,7.654,3.135,9.232,2.956c0.657-0.046,1.223,0.445,1.271,1.1    c0.046,0.654-0.445,1.223-1.1,1.271C189.085,242.253,188.992,242.258,188.897,242.258z"/>
		<path style="fill:#241726;" d="M200.067,255.369c-2.912,0-9.35-2.833-10.095-3.165c-0.601-0.269-0.87-0.97-0.603-1.568    c0.269-0.601,0.974-0.865,1.568-0.603c2.701,1.204,7.552,3.084,9.234,2.956c0.592-0.063,1.223,0.445,1.269,1.102    c0.046,0.654-0.448,1.223-1.102,1.269C200.252,255.364,200.162,255.369,200.067,255.369z"/>
	</g>
	<g>
		<path style="fill:#241726;" d="M391.126,106.656c-0.165,0-0.332-0.035-0.492-0.107c-2.696-1.223-7.685-3.118-9.214-3.021    c-0.694,0.053-1.22-0.457-1.262-1.109c-0.042-0.657,0.455-1.22,1.109-1.262c2.794-0.179,9.58,2.882,10.35,3.23    c0.596,0.271,0.861,0.974,0.589,1.573C392.008,106.396,391.576,106.656,391.126,106.656z"/>
		<path style="fill:#241726;" d="M401.813,101.591c-0.195,0-0.392-0.046-0.573-0.148c-2.592-1.429-7.313-3.703-8.951-3.726    c-0.657-0.009-1.181-0.548-1.172-1.204c0.009-0.65,0.538-1.172,1.188-1.172c0.005,0,0.012,0,0.016,0    c2.766,0.037,9.327,3.615,10.065,4.023c0.575,0.316,0.784,1.039,0.466,1.613C402.637,101.368,402.231,101.591,401.813,101.591z"/>
		<path style="fill:#241726;" d="M407.792,117.368c-0.195,0-0.392-0.046-0.573-0.148c-2.592-1.429-7.313-3.705-8.951-3.726    c-0.654-0.009-1.181-0.548-1.172-1.204c0.009-0.65,0.538-1.172,1.188-1.172c0.005,0,0.009,0,0.016,0    c2.766,0.035,9.327,3.615,10.065,4.023c0.575,0.316,0.784,1.039,0.466,1.613C408.616,117.148,408.21,117.368,407.792,117.368z"/>
		<path style="fill:#241726;" d="M421.878,116.243c-0.29,0-0.578-0.104-0.807-0.316c-2.172-2.012-6.209-5.355-7.794-5.768    c-0.636-0.165-1.016-0.812-0.849-1.448c0.165-0.631,0.807-1.03,1.448-0.849c2.677,0.696,8.19,5.747,8.81,6.32    c0.48,0.445,0.51,1.197,0.065,1.68C422.516,116.115,422.198,116.243,421.878,116.243z"/>
		<path style="fill:#241726;" d="M422.695,129.777c-0.29,0-0.578-0.104-0.807-0.316c-2.172-2.009-6.209-5.353-7.794-5.766    c-0.636-0.165-1.016-0.812-0.849-1.448c0.165-0.631,0.805-1.03,1.448-0.849c2.677,0.696,8.19,5.745,8.81,6.318    c0.48,0.445,0.51,1.197,0.065,1.68C423.333,129.649,423.015,129.777,422.695,129.777z"/>
		<path style="fill:#241726;" d="M379.017,93.136c-0.165,0-0.332-0.035-0.492-0.107c-2.694-1.223-7.578-3.104-9.214-3.019    c-0.645,0.058-1.218-0.455-1.262-1.109c-0.042-0.654,0.455-1.22,1.109-1.262c2.824-0.179,9.582,2.879,10.35,3.227    c0.596,0.271,0.861,0.974,0.589,1.573C379.899,92.876,379.467,93.136,379.017,93.136z"/>
		<path style="fill:#241726;" d="M368.569,99.804c-0.165,0-0.332-0.035-0.492-0.107c-2.694-1.223-7.573-3.111-9.211-3.019    c-0.645,0.039-1.218-0.455-1.262-1.109c-0.042-0.654,0.455-1.22,1.109-1.262c2.794-0.179,9.58,2.879,10.348,3.227    c0.596,0.271,0.861,0.974,0.589,1.573C369.451,99.547,369.019,99.804,368.569,99.804z"/>
		<path style="fill:#241726;" d="M358.938,88.567c-0.165,0-0.332-0.035-0.492-0.107c-2.694-1.223-7.557-3.095-9.211-3.021    c-0.622,0.079-1.22-0.452-1.262-1.109c-0.042-0.657,0.455-1.22,1.109-1.262c2.819-0.162,9.58,2.882,10.348,3.23    c0.596,0.271,0.861,0.974,0.589,1.573C359.82,88.308,359.388,88.567,358.938,88.567z"/>
		<path style="fill:#241726;" d="M344.84,90.895c-0.165,0-0.332-0.035-0.492-0.107c-2.698-1.223-7.671-3.109-9.214-3.021    c-0.719,0.074-1.22-0.457-1.262-1.109c-0.042-0.657,0.455-1.22,1.109-1.262c2.819-0.183,9.582,2.882,10.35,3.23    c0.596,0.271,0.861,0.974,0.589,1.573C345.722,90.635,345.291,90.895,344.84,90.895z"/>
	</g>
</g>















</svg>
