<?xml version="1.0" encoding="UTF-8"?>
<!-- Generator: Adobe Illustrator 25.2.0, SVG Export Plug-In . SVG Version: 6.00 Build 0)  -->
<svg xmlns="http://www.w3.org/2000/svg" xmlns:xlink="http://www.w3.org/1999/xlink" version="1.1" id="Capa_1" x="0px" y="0px" viewBox="0 0 512 512" style="enable-background:new 0 0 512 512;" xml:space="preserve" width="512" height="512">
<g>
	<path style="fill:#AC2E2D;" d="M152.969,163.489c0,0-11.685-90.293,86.044-103.04s124.285,80.732,104.102,125.348   c-20.183,44.615-82.857,65.861-140.219,47.802S152.969,163.489,152.969,163.489z"/>
	<path style="fill:#F9DD96;" d="M81.5,256.204c0,0-11.685-90.293,86.044-103.04s124.285,80.732,104.102,125.348   s-82.857,65.861-140.219,47.802S81.5,256.204,81.5,256.204z"/>
	<path style="fill:#EB867B;" d="M246.65,233.025c0,0-11.685-90.293,86.044-103.04s124.285,80.732,104.102,125.348   s-82.857,65.861-140.219,47.802S246.65,233.025,246.65,233.025z"/>
	<path style="fill:#251626;" d="M182.661,512c-4.344,0-8.119-0.018-11.202-0.053c-2.812-0.033-5.734-0.352-6.087-2.472   c-1.056-6.375,44.085-23.398,71.758-33.201l-0.78-39.698c-2.84,0.181-5.722,0.272-8.592,0.272   c-20.221,0-49.884-4.491-76.361-25.888c-31.424-25.415-50.979-71.658-65.257-105.423c-6.446-15.245-12.012-28.412-17.075-35.86   c-4.454-6.546-5.385-13.024-2.621-18.246c2.88-5.44,9.311-8.688,17.206-8.688c11.911,0,24.213,7.354,32.908,19.672   c1.245,1.757,2.435,3.477,3.561,5.146c0.345-10.479,3.164-22.872,10.312-30.258c8.066-8.333,19.872-8.536,34.009-0.371   c11.871,6.857,21.197,15.052,27.166,23.841c2.492-10.377,10.214-31.918,31.26-31.918c4.588,0,9.57,1.061,14.809,3.155   c19.439,7.77,28.609,18.702,32.93,27.349c6.977-15.827,19.567-31.754,35.415-31.754c3.614,0,7.284,0.84,10.908,2.499   c12.726,5.816,23.172,15.633,29.024,27.179c8.063-15.203,22.143-30.689,35.581-30.689c5.184,0,9.909,2.259,14.047,6.714   c7.133,7.685,11.818,15.162,13.961,22.265c4.52-5.218,13.184-13.641,22.022-13.641c3.478,0,6.62,1.298,9.334,3.858   c12.103,11.439,4.444,25.478-5.254,43.252c-5.033,9.222-10.734,19.674-14.673,31.493c-9.474,28.406-27.525,56.4-49.525,76.805   c-27.475,25.482-60.528,38.951-95.586,38.951c-2.306,0-4.65-0.058-6.984-0.172l-0.8,37.461   c21.632,4.916,86.456,20.33,86.356,28.424c-0.03,2.486-3.639,3.208-5,3.48C326.406,510.089,229.452,512,182.661,512z    M168.015,508.943c0.357,0.152,1.28,0.404,3.473,0.429c3.073,0.035,6.841,0.053,11.172,0.053c46.703,0,143.418-1.896,166.268-6.466   c2.573-0.514,2.95-1.087,2.953-1.092c-1.044-4.371-44.233-16.696-85.4-26.007c-0.596-0.136-1.016-0.672-1.004-1.284l0.85-39.842   c0.008-0.35,0.156-0.682,0.415-0.918c0.254-0.238,0.599-0.357,0.948-0.34c2.724,0.158,5.473,0.239,8.169,0.239   c38.868,0,112.654-24.009,142.666-113.996c4.012-12.036,9.774-22.596,14.857-31.912c9.525-17.457,16.409-30.07,5.747-40.146   c-2.218-2.094-4.766-3.155-7.565-3.155c-6.185,0-13.906,5.146-21.245,14.141c1.341,6.592,0.274,12.647-2.96,16.689   c-2.05,2.565-4.749,3.92-7.113,3.569c-0.865-0.122-1.552-0.668-1.881-1.494c-1.346-3.403,3.659-12.425,9.17-19.412   c-1.745-7.208-6.401-14.922-13.841-22.94c-3.632-3.91-7.724-5.892-12.16-5.892c-12.309,0-26.439,15.536-34.203,31.06   c3.355,7.788,4.027,15.074,1.69,18.676c-1.313,2.02-3.486,2.72-5.993,1.88c-1.134-0.381-1.997-1.214-2.497-2.411   c-1.972-4.716,1.906-13.915,3.959-18.198c-5.392-11.778-15.795-21.865-28.632-27.731c-3.285-1.503-6.595-2.265-9.837-2.265   c-15.322,0-27.55,16.637-33.979,32.386c3.569,9.012,2.784,16.722,0.503,20.126c-1.255,1.872-3.111,2.608-4.894,1.942   c-0.536-0.202-1.28-0.678-1.776-1.802c-1.461-3.301-0.131-11.214,3.388-20.249c-3.629-8.467-12.221-20.058-32.543-28.18   c-4.932-1.972-9.593-2.972-13.853-2.972c-21.077,0-27.679,24.225-29.306,32.45c6.416,11.079,5.993,19.954,4.112,23.25   c-0.971,1.704-2.216,1.958-2.87,1.958c-0.795,0-1.979-0.353-3.104-2.035c-2.301-3.441-2.648-12.933-0.85-22.698   c-5.629-9.268-15.194-17.97-27.696-25.192c-13.016-7.52-23.624-7.554-30.87-0.069c-7.518,7.768-9.887,21.729-9.6,32.345   c7.032,10.873,13.82,23.568,11.989,26.943c-0.357,0.655-0.986,1.03-1.728,1.03c-0.664,0-2.689,0-7.86-7.529   c-2.842-4.144-4.643-11.288-4.955-19.644c-1.708-2.63-3.614-5.433-5.674-8.336c-8.214-11.637-19.731-18.584-30.805-18.584   c-6.821,0-12.54,2.804-14.93,7.318c-2.294,4.337-1.416,9.874,2.472,15.592c5.206,7.66,10.82,20.934,17.319,36.305   c14.173,33.515,33.582,79.414,64.505,104.424c25.89,20.923,54.935,25.314,74.741,25.314c3.265,0,6.547-0.121,9.756-0.357   c0.35-0.028,0.699,0.093,0.963,0.332c0.262,0.238,0.412,0.573,0.42,0.927l0.825,41.979c0.01,0.555-0.335,1.054-0.858,1.239   C205.495,490.188,170.379,504.655,168.015,508.943z M123.063,276.864c0.672,5.76,2.138,10.636,4.145,13.561   c2.638,3.841,4.366,5.511,5.229,6.12C132.268,294.413,129.984,288.102,123.063,276.864z M192.864,268.053   c-1.157,8.447-0.508,15.347,0.978,17.567c0.488,0.732,0.858,0.892,0.961,0.892c0.101,0,0.36-0.179,0.634-0.659   C196.904,283.278,196.878,276.349,192.864,268.053z M270.631,266.32c-2.674,7.705-3.28,13.482-2.402,15.468   c0.103,0.233,0.226,0.395,0.327,0.434c0.853,0.321,1.532-0.489,1.851-0.965C271.831,279.131,272.847,273.625,270.631,266.32z    M345.835,263.417c-2.762,6.302-3.906,11.625-2.928,13.964c0.282,0.675,0.669,0.873,0.938,0.962   c1.368,0.46,2.334,0.213,3.016-0.839C348.217,275.411,348.36,270.253,345.835,263.417z M408.162,261.422   c-5.594,7.554-7.998,13.898-7.397,15.052c-0.025-0.098,0.103-0.091,0.224-0.091c1.401,0,3.028-0.992,4.359-2.655   C406.539,272.241,408.962,268.28,408.162,261.422z"/>
	<path style="fill:#EB867B;" d="M94.067,198.17c0,0-13.736,27.472,10.302,32.05s24.61-40.063,38.918-32.05   c14.308,8.013,12.019,31.478,29.189,26.899c17.17-4.579-8.917-52.878,12.591-43.497c13.45,5.866,25.039,18.457,49.077,12.734   c24.038-5.723,21.462-16.74-6.725-35.055C203.207,143.521,123.255,144.372,94.067,198.17z"/>
	<path style="fill:#251626;" d="M220.407,168.552c-0.39,0-0.777-0.177-1.031-0.516c-2.243-2.993-8.177-4.218-8.237-4.23   c-0.697-0.141-1.147-0.819-1.009-1.517c0.141-0.698,0.85-1.148,1.514-1.009c0.284,0.057,6.954,1.427,9.794,5.211   c0.425,0.568,0.309,1.376-0.259,1.802C220.948,168.468,220.676,168.552,220.407,168.552z"/>
	<path style="fill:#251626;" d="M236.718,180.142c-0.39,0-0.777-0.177-1.031-0.516c-2.243-2.993-8.177-4.218-8.237-4.23   c-0.697-0.141-1.147-0.819-1.009-1.517c0.141-0.698,0.848-1.148,1.514-1.009c0.284,0.057,6.954,1.427,9.794,5.211   c0.425,0.568,0.309,1.376-0.259,1.802C237.258,180.057,236.987,180.142,236.718,180.142z"/>
	<path style="fill:#251626;" d="M188.214,175.421c-0.39,0-0.777-0.177-1.031-0.516c-2.243-2.994-8.177-4.219-8.237-4.232   c-0.697-0.141-1.147-0.819-1.009-1.517c0.141-0.699,0.85-1.154,1.514-1.009c0.284,0.057,6.954,1.427,9.794,5.213   c0.425,0.568,0.309,1.376-0.259,1.802C188.755,175.337,188.483,175.421,188.214,175.421z"/>
	<path style="fill:#251626;" d="M178.792,164.763c-0.282,0-0.563-0.092-0.802-0.28c-2.44-1.94-7.357-2.113-9.037-2.016   c-0.825,0.063-1.318-0.502-1.361-1.211c-0.04-0.711,0.5-1.319,1.21-1.359c0.292-0.019,7.09-0.373,10.792,2.572   c0.556,0.443,0.649,1.253,0.206,1.808C179.547,164.597,179.17,164.763,178.792,164.763z"/>
	<path style="fill:#251626;" d="M222.553,181.86c-0.39,0-0.777-0.177-1.031-0.516c-2.243-2.994-8.177-4.219-8.237-4.232   c-0.697-0.141-1.147-0.819-1.009-1.517c0.141-0.699,0.848-1.154,1.514-1.009c0.284,0.057,6.954,1.427,9.794,5.213   c0.425,0.568,0.309,1.376-0.259,1.802C223.093,181.775,222.822,181.86,222.553,181.86z"/>
	<path style="fill:#251626;" d="M207.1,174.133c-0.39,0-0.777-0.177-1.031-0.516c-2.243-2.994-8.177-4.219-8.237-4.232   c-0.697-0.141-1.147-0.819-1.009-1.517c0.141-0.699,0.848-1.154,1.514-1.009c0.284,0.057,6.954,1.427,9.794,5.213   c0.425,0.568,0.309,1.376-0.259,1.802C207.641,174.049,207.369,174.133,207.1,174.133z"/>
	<path style="fill:#251626;" d="M195.634,161.594c-0.231,0-0.465-0.062-0.677-0.192c-2.651-1.64-7.548-1.229-9.213-0.934   c-0.714,0.13-1.371-0.341-1.494-1.043c-0.126-0.699,0.342-1.368,1.041-1.493c0.284-0.049,6.997-1.21,11.019,1.279   c0.606,0.373,0.792,1.167,0.42,1.772C196.486,161.378,196.064,161.594,195.634,161.594z"/>
	<path style="fill:#F9DD96;" d="M177.925,87.579c0,0-19.011,24.123,3.603,33.472s32.208-34.253,44.599-23.511   c12.391,10.742,5.4,33.259,23.141,32.25c17.741-1.009,9.923-38.304,29.088-24.764c11.984,8.467,12.831,7.859,37.529,7.118   c24.698-0.74,24.406-12.051,0.508-35.69C295.866,56.147,217.396,40.8,177.925,87.579z"/>
	<path style="fill:#251626;" d="M307.905,84.168c-0.483,0-0.946-0.273-1.164-0.739c-1.592-3.388-7.155-5.788-7.211-5.812   c-0.654-0.278-0.961-1.034-0.682-1.688c0.279-0.656,1.036-0.957,1.688-0.683c0.264,0.113,6.522,2.806,8.534,7.086   c0.304,0.644,0.028,1.411-0.616,1.714C308.275,84.129,308.089,84.168,307.905,84.168z"/>
	<path style="fill:#251626;" d="M321.534,98.819c-0.483,0-0.946-0.273-1.164-0.739c-1.595-3.387-7.155-5.788-7.211-5.812   c-0.654-0.278-0.961-1.034-0.682-1.689c0.277-0.654,1.036-0.958,1.688-0.682c0.264,0.113,6.519,2.806,8.534,7.086   c0.304,0.644,0.028,1.411-0.616,1.713C321.906,98.78,321.718,98.819,321.534,98.819z"/>
	<path style="fill:#251626;" d="M274.987,84.379c-0.483,0-0.946-0.273-1.164-0.739c-1.592-3.388-7.155-5.788-7.211-5.812   c-0.654-0.278-0.961-1.034-0.682-1.688c0.279-0.655,1.039-0.958,1.688-0.683c0.264,0.113,6.522,2.806,8.534,7.086   c0.304,0.644,0.028,1.411-0.616,1.714C275.357,84.34,275.171,84.379,274.987,84.379z"/>
	<path style="fill:#251626;" d="M267.917,72.035c-0.367,0-0.734-0.157-0.988-0.463c-1.997-2.396-6.773-3.558-8.446-3.804   c-0.702-0.103-1.19-0.758-1.087-1.461c0.106-0.704,0.755-1.188,1.464-1.087c0.284,0.042,7.017,1.069,10.045,4.702   c0.455,0.547,0.382,1.358-0.163,1.815C268.501,71.937,268.209,72.035,267.917,72.035z"/>
	<path style="fill:#251626;" d="M307.314,97.634c-0.483,0-0.946-0.273-1.164-0.739c-1.592-3.388-7.155-5.788-7.211-5.812   c-0.654-0.278-0.961-1.034-0.682-1.688c0.279-0.656,1.039-0.957,1.688-0.683c0.264,0.113,6.522,2.806,8.534,7.086   c0.304,0.644,0.028,1.411-0.616,1.714C307.684,97.595,307.497,97.634,307.314,97.634z"/>
	<path style="fill:#251626;" d="M293.745,86.94c-0.483,0-0.946-0.273-1.164-0.739c-1.328-2.822-5.656-5.151-7.211-5.81   c-0.654-0.278-0.961-1.034-0.682-1.689c0.277-0.655,1.036-0.958,1.688-0.683c0.264,0.113,6.519,2.804,8.534,7.085   c0.304,0.644,0.028,1.411-0.616,1.713C294.117,86.901,293.929,86.94,293.745,86.94z"/>
	<path style="fill:#251626;" d="M285.05,72.341c-0.317,0-0.636-0.117-0.885-0.352c-2.264-2.143-7.143-2.734-8.831-2.78   c-0.712-0.02-1.273-0.612-1.253-1.323c0.023-0.712,0.661-1.214,1.323-1.253c0.289,0.009,7.098,0.234,10.531,3.485   c0.516,0.489,0.538,1.304,0.05,1.821C285.732,72.206,285.392,72.341,285.05,72.341z"/>
	<path style="fill:#AC2E2D;" d="M281,150.308c0,0-21.273,22.154,0.321,33.664c21.594,11.509,35.396-30.949,46.679-19.049   s7.805,37.995,21.824,48.915c30.268,23.576,14.44-57.84,32.193-42.495c11.101,9.595,9.236,15.196,33.889,16.868   s25.465-9.613,3.987-35.471C401.445,130.53,324.846,107.603,281,150.308z"/>
	<path style="fill:#251626;" d="M410.82,159.597c-0.528,0-1.026-0.328-1.212-0.855c-1.258-3.526-6.557-6.458-6.61-6.486   c-0.624-0.341-0.855-1.123-0.513-1.747c0.34-0.622,1.114-0.856,1.745-0.514c0.254,0.137,6.215,3.428,7.802,7.882   c0.239,0.67-0.111,1.407-0.78,1.646C411.109,159.573,410.964,159.597,410.82,159.597z"/>
	<path style="fill:#251626;" d="M422.953,175.508c-0.531,0-1.026-0.328-1.212-0.856c-1.046-2.936-5.126-5.678-6.61-6.486   c-0.624-0.34-0.855-1.122-0.516-1.747c0.342-0.625,1.124-0.854,1.748-0.514c0.254,0.137,6.217,3.428,7.802,7.885   c0.239,0.67-0.111,1.406-0.78,1.645C423.242,175.484,423.096,175.508,422.953,175.508z"/>
	<path style="fill:#251626;" d="M378.038,156.597c-0.528,0-1.026-0.328-1.212-0.856c-1.255-3.525-6.557-6.456-6.61-6.485   c-0.624-0.341-0.855-1.123-0.513-1.747c0.34-0.621,1.112-0.86,1.745-0.514c0.254,0.137,6.217,3.428,7.802,7.884   c0.239,0.67-0.111,1.406-0.78,1.645C378.328,156.573,378.182,156.597,378.038,156.597z"/>
	<path style="fill:#251626;" d="M372.206,143.623c-0.41,0-0.815-0.197-1.064-0.563c-2.105-3.095-7.975-4.595-8.033-4.61   c-0.689-0.172-1.109-0.871-0.938-1.561c0.174-0.689,0.865-1.105,1.562-0.938c0.279,0.07,6.879,1.749,9.537,5.66   c0.4,0.589,0.249,1.39-0.34,1.789C372.709,143.551,372.457,143.623,372.206,143.623z"/>
	<path style="fill:#251626;" d="M408.919,172.941c-0.528,0-1.026-0.328-1.212-0.855c-1.258-3.526-6.557-6.458-6.61-6.486   c-0.624-0.341-0.855-1.123-0.513-1.748c0.337-0.62,1.117-0.859,1.745-0.513c0.254,0.137,6.215,3.428,7.802,7.882   c0.239,0.67-0.111,1.407-0.78,1.646C409.208,172.917,409.062,172.941,408.919,172.941z"/>
	<path style="fill:#251626;" d="M396.456,160.975c-0.531,0-1.026-0.328-1.212-0.856c-1.046-2.936-5.126-5.678-6.61-6.486   c-0.624-0.34-0.855-1.122-0.516-1.747c0.342-0.626,1.124-0.853,1.748-0.514c0.254,0.137,6.217,3.428,7.802,7.885   c0.239,0.67-0.111,1.406-0.78,1.645C396.746,160.952,396.6,160.975,396.456,160.975z"/>
	<path style="fill:#251626;" d="M389.228,145.597c-0.36,0-0.717-0.15-0.973-0.443c-2.452-2.824-8.458-3.62-8.519-3.628   c-0.707-0.091-1.205-0.734-1.117-1.44c0.091-0.707,0.739-1.198,1.439-1.115c0.287,0.036,7.04,0.924,10.143,4.493   c0.465,0.537,0.407,1.351-0.128,1.817C389.829,145.493,389.527,145.597,389.228,145.597z"/>
	<path style="fill:#251626;" d="M284.794,147.52c-0.385,0-0.767-0.174-1.021-0.504c-0.433-0.563-0.327-1.372,0.236-1.805   c31.376-24.069,61.992-21.324,62.294-21.293c0.707,0.07,1.222,0.702,1.152,1.408c-0.07,0.708-0.697,1.225-1.408,1.154   c-0.292-0.025-29.937-2.647-60.468,20.772C285.345,147.433,285.068,147.52,284.794,147.52z"/>
	<path style="fill:#251626;" d="M255.606,184.005c-0.38,0-0.757-0.167-1.011-0.489c-25.063-31.747-66.424-32.983-66.839-32.992   c-0.709-0.015-1.275-0.604-1.26-1.314c0.015-0.709,0.659-1.26,1.313-1.261c0.428,0.009,42.975,1.25,68.808,33.97   c0.44,0.558,0.345,1.368-0.214,1.81C256.167,183.914,255.885,184.005,255.606,184.005z"/>
	<path style="fill:#251626;" d="M140.568,144.944c-0.538,0-1.041-0.341-1.222-0.88c-9.728-29.186,4.469-54.244,4.615-54.493   c0.357-0.616,1.144-0.825,1.758-0.469c0.616,0.356,0.827,1.143,0.47,1.759c-0.138,0.239-13.75,24.334-4.399,52.388   c0.224,0.675-0.141,1.405-0.815,1.629C140.84,144.923,140.704,144.944,140.568,144.944z"/>
	<path style="fill:#251626;" d="M241.345,47.308c-0.576,0-1.099-0.387-1.247-0.97c-7.128-27.989,15.641-45.893,15.873-46.072   c0.568-0.435,1.371-0.326,1.803,0.235c0.435,0.563,0.329,1.372-0.231,1.806c-0.219,0.167-21.65,17.076-14.95,43.394   c0.176,0.689-0.241,1.391-0.931,1.566C241.557,47.296,241.449,47.308,241.345,47.308z"/>
	<path style="fill:#251626;" d="M343.076,111.695c-0.576,0-1.099-0.387-1.247-0.97c-7.128-27.989,15.641-45.893,15.873-46.072   c0.568-0.436,1.371-0.326,1.803,0.235c0.435,0.563,0.329,1.372-0.231,1.806c-0.219,0.167-21.65,17.076-14.95,43.394   c0.176,0.689-0.241,1.391-0.931,1.566C343.287,111.682,343.179,111.695,343.076,111.695z"/>
	<path style="fill:#E2394B;" d="M241.151,31.04c0,0,14.955-0.648,23.344,13.447s-2.512,31.493-32.116,27.493   C208.044,68.692,212.03,30.727,241.151,31.04z"/>
	<path style="fill:#E2394B;" d="M136.422,133.017c0,0,14.301-4.423,25.993,7.081c11.692,11.504,5.565,31.099-24.085,34.745   C113.958,177.84,108.175,140.107,136.422,133.017z"/>
	<path style="fill:#251626;" d="M163.101,151.383c-0.606,0-1.147-0.431-1.263-1.05c-1.743-9.295-13.614-11.18-13.735-11.197   c-0.704-0.106-1.187-0.762-1.081-1.465c0.106-0.705,0.767-1.176,1.464-1.083c0.563,0.084,13.808,2.196,15.883,13.27   c0.131,0.699-0.329,1.372-1.029,1.503C163.259,151.375,163.181,151.383,163.101,151.383z"/>
	<path style="fill:#251626;" d="M260.968,50.94c-0.606,0-1.147-0.431-1.263-1.05c-1.743-9.295-13.614-11.18-13.735-11.197   c-0.704-0.106-1.187-0.762-1.081-1.465c0.106-0.707,0.77-1.182,1.464-1.083c0.563,0.084,13.808,2.196,15.883,13.27   c0.131,0.699-0.329,1.372-1.029,1.503C261.127,50.932,261.049,50.94,260.968,50.94z"/>
	<path style="fill:#E2394B;" d="M344.17,96.07c0,0,14.955-0.648,23.344,13.447c8.389,14.095-2.512,31.493-32.116,27.493   C311.062,133.722,315.048,95.757,344.17,96.07z"/>
	<path style="fill:#251626;" d="M365.274,116.614c-0.606,0-1.147-0.431-1.263-1.05c-1.743-9.295-13.614-11.18-13.735-11.197   c-0.704-0.106-1.187-0.762-1.081-1.465c0.106-0.705,0.77-1.176,1.464-1.083c0.563,0.084,13.808,2.196,15.883,13.27   c0.131,0.699-0.329,1.372-1.029,1.503C365.433,116.607,365.355,116.614,365.274,116.614z"/>
	<path style="fill:#251626;" d="M208.818,417.943c-0.312,0-0.619-0.113-0.858-0.328c-3.016-2.697-73.831-66.518-73.831-106.553   c0-3.199,2.093-3.447,2.734-3.447c11.65,0,70.317,80.566,74.731,102.626c0.815,4.074,0.048,6.634-2.281,7.603   C209.152,417.91,208.984,417.943,208.818,417.943z M136.858,310.186c-0.025,0-0.153,0.22-0.153,0.875   c0,36.708,64.349,96.747,72.196,103.93c0.639-0.917,0.47-2.736,0.169-4.247c-4.691-23.443-63.033-100.555-72.206-100.555   C136.861,310.187,136.861,310.186,136.858,310.186z"/>
	<path style="fill:#251626;" d="M237.608,412.623c-1.134,0-2.357-0.434-3.735-1.325c-0.201-0.13-0.36-0.312-0.463-0.527   c-4.676-9.808-45.423-96.219-36.534-110.303c0.943-1.494,2.402-2.284,4.215-2.284c16.836,0,41.597,79.117,41.597,103.99   c0,3.086-0.335,5.504-0.996,7.188C240.639,412.059,238.888,412.623,237.608,412.623z M235.573,409.322   c0.797,0.477,1.496,0.726,2.035,0.726c0.287,0,1.051,0,1.688-1.624c0.541-1.383,0.817-3.486,0.817-6.25   c0-28.643-26.014-101.415-39.022-101.415c-0.936,0-1.564,0.335-2.037,1.083C192.205,312.697,222.935,382.767,235.573,409.322z"/>
	<path style="fill:#251626;" d="M259.268,410.038c-0.692,0-1.705-0.296-2.603-1.705c-0.093-0.148-0.156-0.314-0.184-0.487   c-0.611-3.79-14.769-93.017,0.01-110.365c1.788-2.096,3.944-3.16,6.411-3.16c4.439,0,7.724,3.7,9.756,10.996   c1.67,5.987,2.518,14.364,2.518,24.894C275.176,359.53,267.314,410.038,259.268,410.038z M258.979,407.153   c0.156,0.208,0.264,0.283,0.304,0.306c4.844-1.015,15.805-54.755,12.845-89.532c-1.154-13.561-4.432-21.03-9.225-21.03   c-1.7,0-3.156,0.738-4.449,2.255C244.829,315.143,258.091,401.495,258.979,407.153z"/>
	<path style="fill:#251626;" d="M279.696,411.814c-0.709,0-1.288-0.576-1.288-1.288c0-0.678,0.526-1.234,1.19-1.284   c6.142-2.316,53.677-84.874,53.677-105.166c0-1.547-0.297-2.325-0.543-2.706c-0.199-0.306-0.508-0.619-1.298-0.619   c-0.712,0-1.288-0.577-1.288-1.288c0-0.712,0.576-1.288,1.288-1.288c1.499,0,2.696,0.619,3.458,1.791   c0.644,0.993,0.958,2.338,0.958,4.11c0,13.741-19.419,50.706-25.37,61.708C309.464,367.662,285.513,411.814,279.696,411.814z"/>
	<path style="fill:#251626;" d="M303.828,418.89c-2.835,0-4.932-1.498-6.064-4.332c-0.153-0.38-0.116-0.81,0.101-1.158   c6.879-11.053,67.706-107.988,85.543-107.988c0.941,0,1.788,0.235,2.52,0.7c2.359,1.5,2.731,4.883,1.142,10.338   c-3.77,12.949-18.748,37.557-37.269,61.233C342.241,387.349,316.577,418.89,303.828,418.89z M300.415,414.178   c0.744,1.454,1.841,2.137,3.413,2.137c16.756,0,72.82-73.277,80.77-100.584c1.157-3.974,1.139-6.688-0.053-7.446   c-0.314-0.201-0.687-0.298-1.137-0.298C369.615,307.987,319.188,384.067,300.415,414.178z"/>
</g>















</svg>
