<?xml version="1.0" encoding="UTF-8"?>
<!-- Generator: Adobe Illustrator 25.2.0, SVG Export Plug-In . SVG Version: 6.00 Build 0)  -->
<svg xmlns="http://www.w3.org/2000/svg" xmlns:xlink="http://www.w3.org/1999/xlink" version="1.1" id="Capa_1" x="0px" y="0px" viewBox="0 0 512 512" style="enable-background:new 0 0 512 512;" xml:space="preserve" width="512" height="512">
<g>
	<g>
		<g>
			<path style="fill:#FFFFFF;" d="M95.785,125.606c0,0,146.471-54.292,176.189-30.518s39.773,74.107,21.942,85.994     c-17.831,11.887-134.729,56.137-165.44,47.551C100.534,220.822,80.926,128.577,95.785,125.606z"/>
			<path style="fill:#241726;" d="M138.382,230.751c-4.06,0-7.485-0.382-10.179-1.136c-13.65-3.817-23.5-25.67-28.157-38.357     c-6.696-18.244-10.852-39.598-10.343-53.134c0.312-8.252,2.29-12.8,5.883-13.519c0.833-0.322,99.189-36.559,150.599-36.559     c12.356,0,21.247,2.101,26.427,6.245c21.344,17.076,31.962,47.029,31.115,66.542c-0.437,10.061-3.634,17.356-9.246,21.097     C278.555,192.548,180.125,230.751,138.382,230.751z M246.185,90.085c-51.049,0-149.06,36.111-150.045,36.476     c-2.594,0.531-4.141,4.758-4.4,11.641c-0.97,25.775,15.55,83.451,37.012,89.451c2.515,0.703,5.754,1.06,9.63,1.06     c40.438,0,139.601-38.232,154.969-48.478c4.976-3.318,7.938-10.239,8.34-19.489c0.825-19.012-9.533-48.205-30.353-64.861     C266.528,92.036,258.065,90.085,246.185,90.085z"/>
		</g>
		<path style="fill:#F9DD96;" d="M255.01,76.953c0,0-170.598,37.791-177.076,47.508s13.533,50.143,17.852,56.621    c4.319,6.478,198.435-50.141,202.754-58.779S273.366,71.554,255.01,76.953z"/>
		<path style="fill:#241726;" d="M147.96,103.151c0,0,51.631,29.381,53.622,43.319s3.61,66.138,5.602,69.456    s36.237-7.152,38.892-10.471s-4.007-62.968-5.998-73.587s-46.501-43.26-55.793-40.606S139.995,97.841,147.96,103.151z"/>
		<path style="fill:#FFFFFF;" d="M207.398,146.438c-0.454,0-0.867-0.305-0.986-0.764c-0.14-0.545,0.188-1.101,0.732-1.242    c0.204-0.052,20.509-5.302,27.645-7.896c0.532-0.19,1.114,0.08,1.306,0.609c0.193,0.528-0.081,1.114-0.609,1.306    c-7.228,2.629-26.994,7.739-27.832,7.956C207.568,146.428,207.483,146.438,207.398,146.438z"/>
		<g>
			<path style="fill:#241726;" d="M112.964,129.812c-0.314,0-0.624-0.144-0.824-0.418c-0.331-0.454-0.233-1.092,0.222-1.424     c1.559-1.139,6.409-1.87,7.367-2.005c0.554-0.085,1.074,0.31,1.151,0.867c0.079,0.557-0.31,1.073-0.867,1.151     c-2.17,0.307-5.605,1.016-6.449,1.633C113.383,129.748,113.172,129.812,112.964,129.812z"/>
			<path style="fill:#241726;" d="M119.946,120.469c-0.314,0-0.624-0.144-0.824-0.418c-0.331-0.454-0.233-1.092,0.222-1.424     c1.558-1.139,6.409-1.871,7.367-2.006c0.559-0.076,1.073,0.31,1.151,0.867c0.079,0.556-0.31,1.073-0.867,1.151     c-2.17,0.308-5.605,1.017-6.449,1.634C120.365,120.405,120.154,120.469,119.946,120.469z"/>
			<path style="fill:#241726;" d="M129.866,126.744c-0.314,0-0.624-0.144-0.824-0.418c-0.331-0.454-0.233-1.092,0.222-1.424     c1.559-1.139,6.41-1.87,7.368-2.005c0.554-0.086,1.074,0.31,1.151,0.867c0.079,0.557-0.31,1.073-0.867,1.151     c-2.17,0.307-5.606,1.016-6.45,1.633C130.285,126.68,130.074,126.744,129.866,126.744z"/>
			<path style="fill:#241726;" d="M139.332,119.056c-0.401,0-0.781-0.238-0.943-0.633c-0.213-0.521,0.036-1.116,0.557-1.33     c1.784-0.729,6.671-0.276,7.632-0.179c0.56,0.058,0.967,0.558,0.911,1.118c-0.057,0.56-0.554,0.965-1.118,0.911     c-2.183-0.224-5.687-0.36-6.653,0.038C139.592,119.032,139.462,119.056,139.332,119.056z"/>
			<path style="fill:#241726;" d="M145.444,126.243c-0.401,0-0.781-0.239-0.943-0.633c-0.213-0.521,0.037-1.116,0.557-1.33     c1.784-0.731,6.673-0.277,7.633-0.179c0.56,0.058,0.967,0.558,0.911,1.118c-0.057,0.56-0.555,0.961-1.118,0.911     c-2.181-0.224-5.687-0.361-6.654,0.038C145.704,126.219,145.573,126.243,145.444,126.243z"/>
			<path style="fill:#241726;" d="M126.9,134.926c-0.314,0-0.624-0.144-0.824-0.417c-0.331-0.455-0.233-1.093,0.222-1.425     c1.557-1.139,6.409-1.87,7.367-2.005c0.556-0.085,1.074,0.31,1.151,0.867c0.079,0.557-0.31,1.073-0.867,1.151     c-2.17,0.307-5.605,1.016-6.448,1.633C127.319,134.863,127.109,134.926,126.9,134.926z"/>
			<path style="fill:#241726;" d="M107.921,139.834c-0.314,0-0.624-0.144-0.824-0.418c-0.331-0.454-0.233-1.092,0.222-1.424     c1.558-1.139,6.409-1.871,7.367-2.006c0.563-0.085,1.073,0.31,1.151,0.867c0.079,0.556-0.31,1.073-0.867,1.151     c-2.17,0.308-5.605,1.017-6.449,1.634C108.34,139.77,108.129,139.834,107.921,139.834z"/>
			<path style="fill:#241726;" d="M103.169,125.717c-0.314,0-0.624-0.145-0.824-0.418c-0.332-0.455-0.233-1.093,0.222-1.424     c1.559-1.138,6.409-1.87,7.367-2.005c0.56-0.082,1.073,0.31,1.151,0.867c0.079,0.556-0.31,1.073-0.867,1.151     c-2.17,0.308-5.605,1.017-6.449,1.633C103.588,125.653,103.377,125.717,103.169,125.717z"/>
			<path style="fill:#241726;" d="M94.016,136.189c-0.314,0-0.624-0.144-0.824-0.417c-0.331-0.455-0.233-1.093,0.222-1.425     c1.557-1.139,6.409-1.871,7.367-2.006c0.564-0.079,1.074,0.311,1.151,0.867c0.079,0.557-0.31,1.073-0.867,1.151     c-2.17,0.308-5.605,1.017-6.448,1.634C94.435,136.126,94.225,136.189,94.016,136.189z"/>
		</g>
		<g>
			<path style="fill:#241726;" d="M231.11,97.734c-0.314,0-0.624-0.144-0.824-0.417c-0.331-0.455-0.233-1.093,0.221-1.425     c1.558-1.139,6.41-1.87,7.368-2.005c0.564-0.081,1.074,0.31,1.151,0.867c0.079,0.557-0.31,1.073-0.867,1.151     c-2.17,0.307-5.605,1.016-6.449,1.633C231.529,97.671,231.319,97.734,231.11,97.734z"/>
			<path style="fill:#241726;" d="M238.092,88.391c-0.314,0-0.624-0.144-0.824-0.417c-0.331-0.455-0.233-1.093,0.222-1.425     c1.557-1.139,6.409-1.87,7.367-2.005c0.557-0.084,1.073,0.31,1.151,0.867c0.079,0.557-0.31,1.073-0.867,1.151     c-2.17,0.307-5.605,1.016-6.448,1.633C238.51,88.328,238.301,88.391,238.092,88.391z"/>
			<path style="fill:#241726;" d="M248.012,94.666c-0.314,0-0.624-0.144-0.824-0.417c-0.331-0.455-0.233-1.093,0.222-1.425     c1.557-1.139,6.409-1.87,7.367-2.005c0.565-0.081,1.073,0.311,1.151,0.867c0.079,0.557-0.31,1.073-0.867,1.151     c-2.17,0.307-5.605,1.016-6.448,1.633C248.431,94.602,248.221,94.666,248.012,94.666z"/>
			<path style="fill:#241726;" d="M257.477,86.978c-0.401,0-0.781-0.239-0.943-0.633c-0.213-0.521,0.037-1.116,0.557-1.33     c1.785-0.73,6.672-0.277,7.632-0.179c0.56,0.058,0.967,0.558,0.911,1.118c-0.057,0.56-0.553,0.97-1.118,0.911     c-2.182-0.224-5.686-0.359-6.653,0.038C257.737,86.954,257.607,86.978,257.477,86.978z"/>
			<path style="fill:#241726;" d="M263.59,94.165c-0.401,0-0.781-0.239-0.943-0.633c-0.213-0.521,0.037-1.116,0.557-1.33     c1.785-0.731,6.672-0.277,7.632-0.179c0.56,0.058,0.967,0.558,0.911,1.118c-0.057,0.56-0.554,0.966-1.118,0.911     c-2.181-0.224-5.685-0.359-6.653,0.038C263.85,94.142,263.719,94.165,263.59,94.165z"/>
			<path style="fill:#241726;" d="M245.045,102.849c-0.314,0-0.624-0.144-0.824-0.418c-0.331-0.454-0.233-1.092,0.222-1.424     c1.559-1.139,6.41-1.87,7.368-2.005c0.554-0.08,1.074,0.311,1.151,0.867c0.079,0.557-0.31,1.073-0.867,1.151     c-2.17,0.307-5.606,1.016-6.45,1.633C245.464,102.785,245.253,102.849,245.045,102.849z"/>
			<path style="fill:#241726;" d="M221.315,93.64c-0.314,0-0.624-0.144-0.824-0.417c-0.331-0.455-0.233-1.093,0.221-1.425     c1.558-1.139,6.41-1.871,7.368-2.006c0.559-0.077,1.073,0.31,1.151,0.867c0.079,0.557-0.31,1.073-0.867,1.151     c-2.17,0.308-5.605,1.017-6.449,1.634C221.734,93.576,221.524,93.64,221.315,93.64z"/>
		</g>
		<path style="fill:#241726;" d="M182.069,210.455c-4.335,0-6.602-7.553-6.86-8.467c-0.153-0.541,0.161-1.104,0.703-1.257    c0.543-0.149,1.106,0.162,1.258,0.703c0.563,1.984,2.728,7.528,5.323,6.934c3.37-0.766,4.248-6.375,4.256-6.432    c0.067-0.447,0.42-0.796,0.867-0.859c0.454-0.064,0.883,0.177,1.07,0.588c0.59,1.302,2.713,4.93,4.622,4.466    c1.443-0.339,1.349-4.946,0.726-8.142c-0.107-0.552,0.253-1.087,0.805-1.195c0.55-0.111,1.087,0.252,1.195,0.804    c0.312,1.594,1.669,9.593-2.258,10.517c-2.452,0.572-4.444-1.535-5.667-3.342c-0.748,2.131-2.264,4.923-5.163,5.582    C182.644,210.423,182.352,210.455,182.069,210.455z"/>
		<path style="fill:#241726;" d="M270.237,155.969c-4.335,0-6.602-7.553-6.86-8.467c-0.153-0.541,0.161-1.104,0.703-1.257    c0.546-0.151,1.105,0.162,1.258,0.703c0.563,1.983,2.737,7.525,5.324,6.933c3.33-0.756,4.247-6.373,4.255-6.43    c0.066-0.447,0.418-0.797,0.866-0.861c0.459-0.053,0.885,0.178,1.071,0.589c0.59,1.302,2.714,4.931,4.622,4.466    c1.428-0.335,1.336-5.027,0.727-8.141c-0.108-0.552,0.252-1.088,0.804-1.196c0.558-0.114,1.087,0.253,1.196,0.804    c0.312,1.594,1.668,9.593-2.259,10.517c-2.451,0.571-4.444-1.535-5.667-3.342c-0.748,2.131-2.263,4.923-5.162,5.582    C270.813,155.936,270.521,155.969,270.237,155.969z"/>
		<path style="fill:#241726;" d="M139.472,208.474c-4.336,0.001-6.603-7.553-6.861-8.467c-0.153-0.541,0.161-1.104,0.703-1.257    c0.543-0.15,1.105,0.162,1.258,0.703c0.563,1.985,2.778,7.542,5.323,6.934c3.37-0.766,4.248-6.375,4.256-6.432    c0.067-0.447,0.42-0.796,0.867-0.859c0.454-0.057,0.883,0.176,1.07,0.588c0.59,1.302,2.71,4.928,4.622,4.466    c1.443-0.339,1.349-4.946,0.726-8.142c-0.107-0.552,0.253-1.087,0.805-1.195c0.549-0.107,1.087,0.253,1.195,0.804    c0.312,1.594,1.669,9.593-2.258,10.517c-2.456,0.574-4.444-1.535-5.667-3.342c-0.748,2.131-2.264,4.923-5.163,5.583    C140.046,208.442,139.754,208.474,139.472,208.474z"/>
		<path style="fill:#241726;" d="M162.517,184.553c-0.721,0-1.253-0.283-1.604-0.563c-1.91-1.527-1.769-5.732-1.722-6.56    c0.032-0.561,0.52-0.987,1.075-0.958c0.561,0.032,0.991,0.514,0.959,1.075c-0.088,1.577,0.156,4.211,0.96,4.853    c0.08,0.064,0.23,0.185,0.643,0.067c2.346-0.673,4.831-4.894,5.59-6.465c0.175-0.361,0.538-0.607,0.946-0.574    c0.401,0.011,0.757,0.257,0.912,0.627c0.509,1.22,2.225,4.531,4.036,5.191c0.44,0.161,0.838,0.135,1.249-0.077    c2.912-1.504,2.492-5.926,2.488-5.97c-0.041-0.392,0.148-0.773,0.486-0.977c0.338-0.203,0.763-0.196,1.091,0.022    c1.845,1.222,4.419,2.341,5.137,2.002c0.024-0.011,0.096-0.045,0.125-0.314c0.32-2.86-1.527-5.03-1.546-5.051    c-0.368-0.426-0.322-1.07,0.103-1.438c0.426-0.368,1.068-0.322,1.438,0.103c0.101,0.116,2.449,2.875,2.031,6.613    c-0.102,0.907-0.559,1.593-1.289,1.935c-1.505,0.705-3.892-0.299-5.559-1.207c-0.169,1.896-0.894,4.712-3.57,6.095    c-0.916,0.472-1.911,0.536-2.886,0.179c-1.904-0.696-3.422-2.882-4.322-4.501c-1.2,2.008-3.377,5.045-5.899,5.767    C163.073,184.515,162.782,184.553,162.517,184.553z"/>
		<path style="fill:#241726;" d="M257.62,182.572c-0.721,0-1.253-0.283-1.604-0.563c-1.91-1.527-1.77-5.732-1.722-6.56    c0.032-0.561,0.521-0.981,1.075-0.958c0.561,0.032,0.991,0.514,0.959,1.075c-0.088,1.577,0.156,4.211,0.96,4.853    c0.08,0.065,0.23,0.185,0.643,0.067c2.345-0.674,4.831-4.895,5.59-6.466c0.175-0.361,0.533-0.626,0.946-0.574    c0.401,0.011,0.757,0.257,0.912,0.627c0.509,1.22,2.225,4.531,4.036,5.191c0.44,0.16,0.836,0.136,1.249-0.077    c2.932-1.513,2.493-5.924,2.488-5.967c-0.043-0.393,0.146-0.774,0.484-0.98c0.338-0.202,0.764-0.197,1.093,0.021    c1.846,1.224,4.424,2.345,5.138,2.003c0.024-0.011,0.096-0.045,0.125-0.314c0.316-2.831-1.531-5.032-1.549-5.054    c-0.365-0.427-0.316-1.07,0.109-1.436c0.425-0.363,1.066-0.319,1.433,0.104c0.101,0.116,2.449,2.875,2.032,6.613    c-0.102,0.907-0.559,1.593-1.289,1.935c-1.505,0.703-3.892-0.298-5.56-1.207c-0.169,1.896-0.894,4.713-3.57,6.095    c-0.914,0.472-1.913,0.536-2.886,0.179c-1.904-0.696-3.421-2.882-4.322-4.501c-1.2,2.008-3.376,5.045-5.898,5.768    C258.176,182.535,257.885,182.572,257.62,182.572z"/>
		<g>
			<path style="fill:#FFFFFF;" d="M232.628,161.828c-0.048,0-0.097-0.003-0.145-0.01c-0.557-0.08-0.944-0.596-0.865-1.153     c0.294-2.056-0.993-5.209-1.515-6.251c-0.252-0.504-0.048-1.116,0.456-1.367c0.504-0.25,1.115-0.048,1.367,0.456     c0.088,0.176,2.153,4.35,1.71,7.451C233.563,161.462,233.127,161.828,232.628,161.828z"/>
			<path style="fill:#FFFFFF;" d="M230.272,175.021c-0.048,0-0.096-0.003-0.144-0.01c-0.557-0.08-0.945-0.596-0.866-1.152     c0.294-2.057-0.994-5.21-1.515-6.252c-0.252-0.504-0.048-1.116,0.456-1.367c0.504-0.249,1.117-0.049,1.367,0.456     c0.088,0.176,2.152,4.35,1.71,7.45C231.208,174.654,230.772,175.021,230.272,175.021z"/>
			<path style="fill:#FFFFFF;" d="M237.575,174.078c-0.048,0-0.097-0.003-0.145-0.01c-0.557-0.08-0.944-0.596-0.865-1.153     c0.294-2.056-0.993-5.209-1.515-6.251c-0.252-0.504-0.048-1.116,0.456-1.367c0.503-0.252,1.115-0.049,1.367,0.456     c0.088,0.176,2.153,4.35,1.71,7.451C238.51,173.712,238.075,174.078,237.575,174.078z"/>
			<path style="fill:#FFFFFF;" d="M236.868,187.271c-0.048,0-0.096-0.003-0.144-0.01c-0.557-0.08-0.945-0.596-0.866-1.152     c0.294-2.057-0.994-5.21-1.515-6.252c-0.252-0.504-0.048-1.116,0.456-1.367c0.504-0.251,1.117-0.048,1.367,0.456     c0.088,0.176,2.152,4.35,1.71,7.45C237.804,186.904,237.368,187.271,236.868,187.271z"/>
			<path style="fill:#FFFFFF;" d="M231.449,191.511c-0.048,0-0.097-0.003-0.145-0.01c-0.557-0.08-0.944-0.596-0.865-1.153     c0.294-2.056-0.993-5.209-1.515-6.251c-0.252-0.504-0.048-1.116,0.456-1.367c0.504-0.251,1.115-0.048,1.367,0.456     c0.088,0.176,2.153,4.35,1.71,7.451C232.385,191.145,231.949,191.511,231.449,191.511z"/>
			<path style="fill:#FFFFFF;" d="M239.459,198.814c-0.048,0-0.097-0.003-0.145-0.01c-0.557-0.08-0.944-0.596-0.865-1.153     c0.293-2.048-0.993-5.207-1.514-6.252c-0.251-0.504-0.047-1.116,0.457-1.366c0.504-0.248,1.115-0.048,1.366,0.456     c0.088,0.176,2.152,4.35,1.709,7.451C240.394,198.448,239.959,198.814,239.459,198.814z"/>
		</g>
		<g>
			<path style="fill:#FFFFFF;" d="M187.785,102.29c-0.298,0-0.592-0.129-0.794-0.379c-1.304-1.614-4.489-2.82-5.607-3.15     c-0.539-0.158-0.849-0.725-0.69-1.265c0.158-0.539,0.719-0.854,1.265-0.69c0.189,0.055,4.651,1.388,6.618,3.825     c0.353,0.438,0.285,1.079-0.153,1.433C188.236,102.217,188.009,102.29,187.785,102.29z"/>
			<path style="fill:#FFFFFF;" d="M195.838,113.003c-0.298,0-0.592-0.129-0.794-0.379c-1.305-1.614-4.489-2.82-5.607-3.15     c-0.539-0.158-0.849-0.725-0.69-1.265c0.159-0.538,0.721-0.852,1.265-0.69c0.189,0.055,4.65,1.388,6.618,3.825     c0.353,0.437,0.285,1.079-0.153,1.433C196.288,112.929,196.063,113.003,195.838,113.003z"/>
			<path style="fill:#FFFFFF;" d="M200.124,107.016c-0.298,0-0.592-0.129-0.794-0.379c-1.3-1.609-4.489-2.82-5.608-3.151     c-0.54-0.159-0.849-0.726-0.69-1.265c0.158-0.539,0.719-0.85,1.265-0.69c0.189,0.055,4.651,1.388,6.619,3.826     c0.353,0.438,0.285,1.079-0.153,1.433C200.575,106.942,200.348,107.016,200.124,107.016z"/>
			<path style="fill:#FFFFFF;" d="M209.299,116.521c-0.298,0-0.592-0.129-0.794-0.379c-1.305-1.615-4.489-2.821-5.607-3.15     c-0.539-0.158-0.849-0.725-0.69-1.265c0.158-0.539,0.719-0.854,1.265-0.69c0.189,0.055,4.65,1.387,6.618,3.825     c0.353,0.438,0.285,1.079-0.153,1.433C209.75,116.447,209.523,116.521,209.299,116.521z"/>
			<path style="fill:#FFFFFF;" d="M208.712,123.376c-0.298,0-0.592-0.129-0.794-0.379c-1.305-1.614-4.49-2.82-5.608-3.15     c-0.539-0.158-0.849-0.725-0.69-1.265c0.159-0.539,0.721-0.849,1.265-0.69c0.189,0.055,4.651,1.388,6.619,3.825     c0.353,0.437,0.285,1.079-0.153,1.433C209.163,123.302,208.937,123.376,208.712,123.376z"/>
			<path style="fill:#FFFFFF;" d="M219.515,122.488c-0.298,0-0.592-0.129-0.794-0.379c-1.305-1.614-4.49-2.82-5.608-3.15     c-0.539-0.158-0.849-0.725-0.69-1.265c0.158-0.538,0.722-0.852,1.265-0.69c0.189,0.055,4.651,1.388,6.619,3.825     c0.353,0.437,0.285,1.079-0.153,1.433C219.966,122.415,219.74,122.488,219.515,122.488z"/>
		</g>
	</g>
	<g>
		<g>
			<path style="fill:#FFFFFF;" d="M262.565,196.84c0,0,139.779-37.56,167.704-11.703c27.925,25.857,23.636,85.139,4.993,95.708     c-18.642,10.57-150.099,36.122-165.383,20.809C228.206,259.905,247.531,198.731,262.565,196.84z"/>
			<path style="fill:#241726;" d="M294.5,307.441c-13.649,0-21.939-1.658-25.342-5.068c-26.48-26.527-29.768-63.358-21.281-88.092     c3.676-10.714,9.257-17.784,14.561-18.452c0.638-0.181,77.936-20.795,128.6-20.795c19.787,0,33.219,3.148,39.924,9.356     c18.186,16.839,21.962,45.857,19.671,65.589c-1.815,15.634-7.374,27.504-14.868,31.753     C420.777,290.229,337.665,307.441,294.5,307.441z M391.038,177.072c-50.398,0-127.435,20.544-128.208,20.752     c-4.596,0.588-9.655,7.297-13.025,17.119c-8.282,24.135-5.064,60.084,20.796,85.992c2.034,2.038,7.832,4.469,23.899,4.469     c42.922,0,125.426-17.035,140.26-25.445c6.931-3.929,12.108-15.225,13.848-30.215c2.237-19.258-1.405-47.537-19.031-63.859     C423.261,180.037,410.296,177.072,391.038,177.072z"/>
		</g>
		<path style="fill:#E2394B;" d="M406.788,170.631c0,0-48.752-16.139-143.188,20.893c-39.868,15.633-49.959,51.913,4.174,62.008    c55.908,10.425,117.585-6.809,151.887-34.478c14.85-11.978,16.519-23.924,28.357-28.212c8.082-2.927,16.668,0.828,41.664,7.468    c46.105,12.248,14.762-50.671-39.357-29c0,0,26.703-9.976,5.958-37.458C435.537,104.369,447.513,145.202,406.788,170.631z"/>
		<path style="fill:#241726;" d="M438.195,156.127c-0.316,0-0.629-0.147-0.828-0.425c-0.328-0.457-0.224-1.093,0.232-1.422    c0.095-0.067,9.397-6.863,10.058-15.992c0.041-0.561,0.536-0.978,1.09-0.942c0.561,0.04,0.983,0.528,0.942,1.09    c-0.729,10.091-10.486,17.203-10.901,17.501C438.608,156.065,438.401,156.127,438.195,156.127z"/>
		<path style="fill:#241726;" d="M446.986,161.896c-0.645,0-1.059-0.058-1.116-0.066c-0.555-0.082-0.938-0.597-0.859-1.152    c0.081-0.556,0.598-0.925,1.152-0.865c0.039,0.009,3.99,0.524,6.741-2.319c2.754-2.847,3.502-8.005,2.224-15.329    c-0.097-0.554,0.275-1.083,0.829-1.179c0.562-0.097,1.082,0.275,1.179,0.829c1.398,8.021,0.461,13.782-2.79,17.119    C451.834,161.515,448.647,161.896,446.986,161.896z"/>
		<path style="fill:#241726;" d="M489.284,190.55c-0.324,0-0.645-0.156-0.844-0.446c-0.305-0.449-7.687-10.934-24.042-6.766    c-0.551,0.143-1.099-0.193-1.238-0.735c-0.139-0.545,0.191-1.101,0.736-1.239c17.796-4.535,26.152,7.477,26.232,7.598    c0.315,0.466,0.193,1.097-0.273,1.412C489.68,190.493,489.481,190.55,489.284,190.55z"/>
		<path style="fill:#241726;" d="M490.082,178.981c-0.239,0-0.478-0.083-0.671-0.252c-9.052-7.921-25.243-3.814-25.406-3.771    c-0.537,0.14-1.101-0.184-1.242-0.729c-0.143-0.544,0.183-1.101,0.727-1.244c0.709-0.184,17.394-4.426,27.263,4.209    c0.424,0.371,0.468,1.015,0.096,1.438C490.647,178.863,490.365,178.981,490.082,178.981z"/>
		<path style="fill:#241726;" d="M364.508,242.435c-0.06,0-0.12-0.005-0.181-0.016c-33.629-6.047-49.582-34.148-49.739-34.431    c-5.196-8.295-6.948-16.21-5.177-23.48c2.489-10.225,11.003-15.355,11.364-15.569c0.482-0.283,1.109-0.126,1.394,0.358    c0.287,0.485,0.127,1.109-0.356,1.396c-0.082,0.049-8.156,4.938-10.428,14.321c-1.625,6.71,0.043,14.09,4.957,21.939    c0.18,0.32,15.694,27.589,48.345,33.46c0.554,0.1,0.923,0.63,0.823,1.183C365.421,242.089,364.991,242.435,364.508,242.435z"/>
		<path style="fill:#241726;" d="M318.984,252.025c-0.069,0-0.138-0.007-0.208-0.021c-38.108-7.915-48.098-28.898-48.504-29.787    c-10.104-13.929,12.327-38.01,13.287-39.028c0.384-0.411,1.03-0.43,1.44-0.043c0.41,0.386,0.429,1.031,0.043,1.44    c-0.223,0.238-22.24,23.866-13.017,36.61c0.196,0.38,10.149,21.123,47.165,28.811c0.551,0.114,0.906,0.655,0.791,1.205    C319.88,251.694,319.456,252.025,318.984,252.025z"/>
		<path style="fill:#241726;" d="M239.357,235.954c-0.412,0-0.8-0.252-0.953-0.66c-0.199-0.526,0.068-1.115,0.594-1.313    c1.076-0.406,108.444-40.674,180.568-51.257c0.57-0.091,1.074,0.304,1.156,0.86c0.082,0.557-0.304,1.075-0.86,1.156    c-71.906,10.55-179.072,50.743-180.146,51.147C239.598,235.933,239.477,235.954,239.357,235.954z"/>
		<path style="fill:#241726;" d="M302.927,178.478c0,0,52.445,38.782,53.425,52.827c0.98,14.045-1.172,66.226,0.575,69.68    c1.746,3.454,36.659-4.519,39.546-7.637c2.887-3.118,0.548-63.093-0.672-73.828c-1.22-10.735-46.096-56.905-55.555-54.927    C330.786,166.57,295.366,172.607,302.927,178.478z"/>
		<g>
			<path style="fill:#FFFFFF;" d="M384.975,255.946c-0.072,0-0.144-0.007-0.218-0.023c-0.549-0.12-0.899-0.663-0.779-1.213     c0.441-2.028-0.615-5.267-1.06-6.343c-0.214-0.52,0.034-1.117,0.553-1.332c0.518-0.212,1.117,0.032,1.332,0.553     c0.075,0.182,1.832,4.494,1.167,7.555C385.866,255.62,385.444,255.946,384.975,255.946z"/>
			<path style="fill:#FFFFFF;" d="M381.673,268.934c-0.072,0-0.144-0.007-0.218-0.023c-0.549-0.12-0.899-0.663-0.779-1.213     c0.442-2.029-0.614-5.268-1.059-6.344c-0.214-0.52,0.034-1.117,0.553-1.332c0.519-0.209,1.117,0.033,1.332,0.553     c0.075,0.182,1.832,4.495,1.166,7.556C382.564,268.609,382.142,268.934,381.673,268.934z"/>
			<path style="fill:#FFFFFF;" d="M389.026,268.521c-0.072,0-0.144-0.007-0.217-0.023c-0.55-0.119-0.9-0.663-0.78-1.212     c0.441-2.029-0.615-5.268-1.06-6.344c-0.214-0.52,0.034-1.117,0.553-1.332c0.521-0.21,1.118,0.033,1.332,0.553     c0.075,0.182,1.832,4.493,1.167,7.554C389.917,268.196,389.495,268.521,389.026,268.521z"/>
			<path style="fill:#FFFFFF;" d="M387.369,281.628c-0.072,0-0.144-0.007-0.218-0.023c-0.549-0.12-0.899-0.663-0.779-1.213     c0.441-2.028-0.615-5.267-1.06-6.342c-0.214-0.521,0.034-1.117,0.553-1.332c0.521-0.21,1.117,0.032,1.332,0.553     c0.075,0.182,1.832,4.494,1.167,7.555C388.26,281.303,387.838,281.628,387.369,281.628z"/>
			<path style="fill:#FFFFFF;" d="M381.658,285.467c-0.072,0-0.144-0.007-0.218-0.023c-0.549-0.12-0.899-0.663-0.779-1.213     c0.442-2.029-0.615-5.267-1.059-6.343c-0.215-0.52,0.032-1.117,0.552-1.331c0.518-0.215,1.116,0.032,1.331,0.552     c0.076,0.182,1.834,4.493,1.168,7.555C382.549,285.141,382.127,285.467,381.658,285.467z"/>
			<path style="fill:#FFFFFF;" d="M389.12,293.329c-0.072,0-0.144-0.007-0.217-0.023c-0.55-0.119-0.9-0.663-0.78-1.212     c0.441-2.029-0.615-5.269-1.06-6.345c-0.214-0.52,0.034-1.117,0.553-1.332c0.519-0.211,1.117,0.032,1.332,0.553     c0.075,0.182,1.832,4.494,1.167,7.555C390.011,293.003,389.589,293.329,389.12,293.329z"/>
		</g>
		<g>
			<path style="fill:#FFFFFF;" d="M343.572,182.308c-0.322,0-0.64-0.152-0.838-0.438c-1.184-1.706-4.274-3.138-5.365-3.546     c-0.526-0.197-0.794-0.784-0.597-1.312c0.198-0.526,0.783-0.794,1.312-0.597c0.184,0.069,4.538,1.72,6.325,4.292     c0.321,0.463,0.207,1.098-0.256,1.418C343.975,182.249,343.772,182.308,343.572,182.308z"/>
			<path style="fill:#FFFFFF;" d="M350.83,193.574c-0.322,0-0.64-0.152-0.838-0.438c-1.184-1.706-4.274-3.139-5.365-3.547     c-0.527-0.197-0.794-0.784-0.597-1.312c0.197-0.525,0.787-0.791,1.312-0.597c0.184,0.069,4.538,1.721,6.325,4.293     c0.321,0.463,0.207,1.098-0.256,1.418C351.234,193.515,351.031,193.574,350.83,193.574z"/>
			<path style="fill:#FFFFFF;" d="M355.538,187.911c-0.322,0-0.64-0.152-0.838-0.438c-1.185-1.706-4.275-3.139-5.366-3.547     c-0.527-0.197-0.794-0.784-0.597-1.312c0.197-0.525,0.788-0.791,1.312-0.597c0.184,0.069,4.538,1.721,6.326,4.293     c0.321,0.462,0.207,1.097-0.256,1.418C355.941,187.852,355.738,187.911,355.538,187.911z"/>
			<path style="fill:#FFFFFF;" d="M364.003,198.053c-0.322,0-0.64-0.152-0.838-0.438c-1.185-1.705-4.275-3.138-5.366-3.546     c-0.527-0.197-0.794-0.784-0.597-1.312c0.198-0.525,0.785-0.792,1.312-0.597c0.184,0.069,4.538,1.721,6.326,4.292     c0.321,0.462,0.207,1.097-0.256,1.418C364.406,197.994,364.204,198.053,364.003,198.053z"/>
			<path style="fill:#FFFFFF;" d="M362.922,204.848c-0.322,0-0.64-0.152-0.838-0.438c-1.185-1.706-4.275-3.138-5.366-3.546     c-0.526-0.197-0.794-0.784-0.597-1.312c0.198-0.525,0.785-0.791,1.312-0.597c0.184,0.069,4.538,1.72,6.326,4.292     c0.321,0.462,0.207,1.097-0.256,1.418C363.325,204.79,363.122,204.848,362.922,204.848z"/>
			<path style="fill:#FFFFFF;" d="M373.761,204.743c-0.322,0-0.64-0.152-0.838-0.438c-1.185-1.706-4.275-3.139-5.366-3.547     c-0.527-0.197-0.794-0.784-0.597-1.312c0.198-0.525,0.785-0.791,1.312-0.597c0.184,0.069,4.538,1.721,6.326,4.293     c0.321,0.462,0.207,1.097-0.256,1.418C374.164,204.684,373.961,204.743,373.761,204.743z"/>
		</g>
		<path style="fill:#FFFFFF;" d="M362.459,237.672c-0.46,0-0.878-0.313-0.99-0.781c-0.131-0.547,0.206-1.098,0.753-1.229    l29.651-7.125c0.547-0.126,1.098,0.206,1.229,0.753c0.131,0.547-0.206,1.098-0.753,1.229l-29.651,7.125    C362.618,237.663,362.537,237.672,362.459,237.672z"/>
		<path style="fill:#241726;" d="M412.003,275.926c-4.525,0.001-6.31-8-6.506-8.949c-0.113-0.551,0.241-1.09,0.792-1.204    c0.548-0.115,1.091,0.24,1.204,0.792c0.418,2.019,2.189,7.676,4.81,7.3c3.416-0.521,4.695-6.053,4.708-6.109    c0.099-0.441,0.476-0.764,0.927-0.794c0.454-0.022,0.868,0.241,1.024,0.664c0.495,1.342,2.371,5.084,4.287,4.787    c1.464-0.234,1.702-4.836,1.311-8.067c-0.067-0.558,0.33-1.066,0.89-1.134c0.561-0.07,1.066,0.33,1.135,0.888    c0.196,1.612,0.972,9.688-3.013,10.325c-2.477,0.389-4.32-1.849-5.41-3.741c-0.901,2.071-2.613,4.747-5.552,5.195    C412.403,275.911,412.2,275.926,412.003,275.926z"/>
		<path style="fill:#241726;" d="M272.951,274.35c-4.525,0.001-6.309-8-6.505-8.949c-0.113-0.551,0.241-1.09,0.792-1.204    c0.547-0.117,1.09,0.24,1.204,0.792c0.417,2.018,2.179,7.661,4.809,7.3c3.416-0.522,4.695-6.053,4.708-6.109    c0.099-0.441,0.476-0.764,0.927-0.794c0.454-0.031,0.868,0.241,1.024,0.664c0.496,1.342,2.356,5.085,4.287,4.788    c1.448-0.232,1.695-4.917,1.312-8.067c-0.068-0.559,0.33-1.067,0.889-1.136c0.572-0.061,1.067,0.33,1.136,0.889    c0.195,1.613,0.971,9.688-3.014,10.326c-2.472,0.396-4.32-1.85-5.41-3.742c-0.9,2.071-2.613,4.747-5.552,5.195    C273.351,274.335,273.148,274.35,272.951,274.35z"/>
		<path style="fill:#241726;" d="M411.922,248.598c-0.828,0-1.404-0.351-1.764-0.686c-1.794-1.66-1.351-5.845-1.243-6.667    c0.073-0.556,0.578-0.954,1.142-0.879c0.557,0.073,0.951,0.583,0.879,1.142c-0.202,1.566-0.148,4.211,0.607,4.908    c0.077,0.072,0.221,0.202,0.637,0.113c2.388-0.502,5.171-4.534,6.042-6.045c0.2-0.348,0.582-0.55,0.984-0.506    c0.399,0.041,0.738,0.312,0.865,0.692c0.42,1.254,1.893,4.68,3.65,5.47c0.428,0.19,0.825,0.197,1.251,0.014    c3.034-1.299,2.914-5.728,2.913-5.773c-0.014-0.395,0.201-0.762,0.552-0.942c0.352-0.181,0.775-0.143,1.089,0.101    c1.751,1.35,4.226,2.653,4.98,2.368c0.024-0.01,0.098-0.038,0.147-0.305c0.525-2.829-1.159-5.126-1.176-5.149    c-0.337-0.451-0.245-1.09,0.206-1.426c0.451-0.339,1.089-0.246,1.426,0.206c0.092,0.122,2.235,3.044,1.549,6.742    c-0.167,0.897-0.673,1.55-1.425,1.836c-1.546,0.59-3.859-0.577-5.457-1.604c-0.307,1.879-1.232,4.636-4.002,5.821    c-0.945,0.407-1.945,0.394-2.89-0.029c-1.849-0.831-3.205-3.122-3.987-4.802c-1.343,1.917-3.731,4.788-6.299,5.327    C412.356,248.575,412.131,248.598,411.922,248.598z"/>
		<path style="fill:#241726;" d="M287.979,296.201c-0.827,0-1.403-0.351-1.764-0.685c-1.794-1.66-1.35-5.845-1.243-6.667    c0.073-0.557,0.573-0.95,1.142-0.879c0.557,0.073,0.951,0.583,0.88,1.142c-0.203,1.566-0.149,4.21,0.606,4.908    c0.076,0.071,0.215,0.201,0.636,0.112c2.389-0.502,5.172-4.533,6.044-6.044c0.2-0.348,0.569-0.541,0.985-0.506    c0.398,0.041,0.737,0.311,0.864,0.692c0.419,1.254,1.892,4.68,3.649,5.469c0.427,0.191,0.823,0.196,1.251,0.015    c3.034-1.299,2.914-5.728,2.913-5.773c-0.014-0.395,0.201-0.761,0.552-0.942c0.35-0.181,0.774-0.142,1.089,0.1    c1.752,1.352,4.224,2.646,4.981,2.369c0.024-0.01,0.098-0.038,0.147-0.305c0.525-2.83-1.16-5.126-1.177-5.149    c-0.337-0.451-0.245-1.089,0.206-1.426c0.451-0.338,1.089-0.245,1.426,0.206c0.092,0.122,2.236,3.043,1.55,6.742    c-0.167,0.897-0.673,1.55-1.425,1.836c-1.554,0.592-3.861-0.578-5.458-1.604c-0.307,1.879-1.232,4.636-4.002,5.821    c-0.944,0.406-1.946,0.395-2.89-0.029c-1.849-0.832-3.205-3.123-3.986-4.802c-1.344,1.917-3.733,4.788-6.301,5.326    C288.414,296.178,288.188,296.201,287.979,296.201z"/>
		<path style="fill:#241726;" d="M320.846,271.991c-0.827,0-1.403-0.351-1.764-0.685c-1.794-1.66-1.352-5.845-1.244-6.667    c0.073-0.557,0.588-0.951,1.141-0.879c0.558,0.072,0.952,0.583,0.881,1.142c-0.202,1.566-0.149,4.21,0.607,4.908    c0.076,0.07,0.215,0.202,0.636,0.112c2.382-0.5,5.169-4.533,6.043-6.045c0.201-0.346,0.578-0.55,0.985-0.504    c0.399,0.04,0.737,0.311,0.864,0.691c0.419,1.254,1.892,4.68,3.649,5.469c0.43,0.193,0.827,0.198,1.252,0.014    c3.033-1.298,2.913-5.727,2.912-5.772c-0.014-0.395,0.201-0.761,0.552-0.942c0.35-0.18,0.775-0.14,1.089,0.1    c1.752,1.352,4.227,2.65,4.981,2.369c0.024-0.01,0.098-0.038,0.147-0.305c0.525-2.83-1.16-5.126-1.177-5.149    c-0.337-0.451-0.245-1.089,0.206-1.426c0.452-0.338,1.09-0.244,1.426,0.206c0.092,0.122,2.236,3.043,1.55,6.742    c-0.167,0.897-0.673,1.55-1.425,1.836c-1.552,0.596-3.862-0.578-5.458-1.604c-0.307,1.879-1.232,4.636-4.001,5.821    c-0.946,0.408-1.947,0.395-2.891-0.03c-1.849-0.831-3.205-3.122-3.986-4.801c-1.343,1.917-3.732,4.788-6.3,5.326    C321.281,271.968,321.055,271.991,320.846,271.991z"/>
		<path style="fill:#241726;" d="M419.661,220.072c-0.144,0-0.291-0.031-0.43-0.096c-1.448-0.676-35.549-16.698-42.082-29.415    c-6.762-13.164,7.155-23.852,7.296-23.959c0.45-0.338,1.089-0.248,1.426,0.201c0.339,0.449,0.25,1.088-0.199,1.427    c-0.521,0.393-12.685,9.769-6.71,21.399c6.216,12.103,40.782,28.337,41.13,28.499c0.51,0.238,0.73,0.844,0.493,1.354    C420.412,219.854,420.045,220.072,419.661,220.072z"/>
	</g>
	<g>
		<g>
			<path style="fill:#FFFFFF;" d="M34.998,249.485c0,0,136.704-47.549,166.422-23.775s29.718,83.211,11.887,95.098     c-17.831,11.887-147.101,46.86-163.45,32.69C5.28,314.865,20.139,252.457,34.998,249.485z"/>
			<path style="fill:#241726;" d="M66.011,357.843c-8.544,0-14.046-1.169-16.822-3.574c-28.325-24.549-34.262-61.047-27.581-86.329     c2.894-10.951,7.949-18.406,13.191-19.453c0.741-0.269,88.094-30.452,137.902-30.452c13.773,0,23.65,2.315,29.357,6.88     c19.354,15.484,25.215,44.153,24.354,63.998c-0.683,15.724-5.37,27.965-12.539,32.744     C199.342,331.344,106.541,357.843,66.011,357.843z M172.7,220.073c-49.463,0-136.494,30.071-137.368,30.375     c-4.54,0.919-9.101,7.974-11.754,18.012c-6.52,24.67-0.716,60.294,26.946,84.268c1.619,1.403,5.62,3.076,15.487,3.076     c40.263,0,132.338-26.248,146.731-35.844c6.629-4.42,10.978-16.059,11.633-31.136c0.841-19.369-4.834-47.312-23.592-62.317     C195.447,222.238,185.999,220.073,172.7,220.073z"/>
		</g>
		<path style="fill:#F08760;" d="M43.417,232.624c0,0,75.663-26.548,116.15-28.54s93.583,40.486,74.999,74.336    s-67.035-10.619-112.167,6.637c-45.132,17.257-41.15,55.088-89.601,56.415S-9.016,249.881,43.417,232.624z"/>
		<path style="fill:#241726;" d="M76.047,225.387c0,0,52.989,37.768,54.98,51.706c1.991,13.938,3.61,66.138,5.602,69.457    c1.991,3.319,36.237-7.152,38.892-10.471c2.655-3.319-4.007-62.968-5.998-73.587c-1.991-10.619-52.61-53.002-61.902-50.347    S68.083,220.077,76.047,225.387z"/>
		<path style="fill:#241726;" d="M116.34,342.588c-4.335,0-6.603-7.553-6.861-8.466c-0.153-0.541,0.161-1.105,0.703-1.258    c0.544-0.147,1.106,0.162,1.258,0.703c0.564,1.985,2.764,7.535,5.324,6.933c3.33-0.756,4.248-6.373,4.256-6.43    c0.066-0.448,0.419-0.797,0.866-0.861c0.454-0.054,0.885,0.178,1.071,0.589c0.59,1.302,2.712,4.929,4.621,4.465    c1.428-0.335,1.336-5.026,0.727-8.14c-0.108-0.552,0.252-1.088,0.804-1.196c0.559-0.108,1.088,0.253,1.196,0.804    c0.311,1.594,1.668,9.593-2.26,10.516c-2.447,0.572-4.443-1.535-5.665-3.341c-0.749,2.131-2.265,4.923-5.163,5.582    C116.915,342.555,116.623,342.587,116.34,342.588z"/>
		<path style="fill:#241726;" d="M186.794,310.085c-4.335,0-6.603-7.553-6.861-8.466c-0.153-0.541,0.161-1.105,0.703-1.258    c0.548-0.15,1.105,0.162,1.258,0.703c0.564,1.984,2.744,7.524,5.324,6.934c3.33-0.757,4.248-6.374,4.256-6.431    c0.066-0.448,0.419-0.797,0.866-0.861c0.454-0.05,0.885,0.178,1.071,0.589c0.59,1.302,2.706,4.913,4.622,4.466    c1.427-0.335,1.335-5.027,0.726-8.141c-0.108-0.552,0.252-1.088,0.804-1.196c0.557-0.107,1.087,0.253,1.196,0.804    c0.312,1.594,1.668,9.593-2.259,10.517c-2.449,0.578-4.444-1.535-5.666-3.342c-0.748,2.131-2.265,4.923-5.163,5.582    C187.369,310.053,187.077,310.085,186.794,310.085z"/>
		<path style="fill:#241726;" d="M76.114,347.528c-0.575,0-1.034-0.192-1.36-0.398c-2.067-1.305-2.395-5.501-2.44-6.329    c-0.03-0.561,0.401-1.041,0.962-1.072c0.538-0.05,1.042,0.399,1.073,0.961c0.088,1.577,0.623,4.167,1.494,4.716    c0.087,0.055,0.251,0.157,0.646-0.006c2.25-0.927,4.255-5.4,4.838-7.046c0.133-0.378,0.477-0.643,0.876-0.676    c0.416-0.019,0.781,0.172,0.976,0.521c0.641,1.156,2.714,4.257,4.587,4.711c0.454,0.111,0.847,0.041,1.233-0.215    c2.727-1.818,1.817-6.165,1.808-6.209c-0.084-0.385,0.062-0.785,0.374-1.025c0.312-0.242,0.734-0.281,1.086-0.101    c1.97,1.009,4.642,1.842,5.33,1.419c0.022-0.014,0.09-0.055,0.09-0.326c0-2.849-2.079-4.831-2.1-4.851    c-0.41-0.384-0.433-1.028-0.051-1.439c0.385-0.41,1.023-0.436,1.436-0.056c0.112,0.104,2.753,2.585,2.753,6.345    c0,0.913-0.378,1.646-1.066,2.066c-1.416,0.863-3.903,0.135-5.659-0.581c0.042,1.903-0.365,4.783-2.871,6.453    c-0.858,0.572-1.842,0.745-2.847,0.499c-1.971-0.48-3.721-2.484-4.796-3.993c-0.97,2.13-2.795,5.388-5.221,6.387    C76.842,347.461,76.458,347.528,76.114,347.528z"/>
		<path style="fill:#241726;" d="M96.788,316.686c-0.721,0-1.253-0.283-1.604-0.563c-1.91-1.527-1.769-5.732-1.722-6.56    c0.032-0.562,0.52-0.992,1.075-0.958c0.561,0.032,0.991,0.514,0.959,1.075c-0.088,1.577,0.156,4.211,0.96,4.853    c0.081,0.065,0.228,0.185,0.643,0.067c2.346-0.673,4.831-4.894,5.59-6.465c0.175-0.361,0.534-0.595,0.946-0.574    c0.401,0.011,0.757,0.257,0.912,0.627c0.509,1.22,2.225,4.531,4.035,5.191c0.443,0.161,0.837,0.134,1.249-0.077    c2.933-1.514,2.493-5.924,2.488-5.967c-0.043-0.393,0.146-0.774,0.484-0.98c0.336-0.203,0.762-0.196,1.093,0.021    c1.846,1.223,4.415,2.349,5.139,2.002c0.023-0.011,0.095-0.044,0.124-0.313c0.317-2.832-1.53-5.032-1.548-5.054    c-0.364-0.427-0.316-1.07,0.109-1.436c0.423-0.365,1.066-0.319,1.433,0.103c0.1,0.115,2.449,2.874,2.031,6.613    c-0.102,0.907-0.559,1.593-1.289,1.934c-1.501,0.707-3.892-0.298-5.559-1.206c-0.17,1.896-0.895,4.712-3.571,6.095    c-0.915,0.473-1.91,0.535-2.885,0.179c-1.904-0.696-3.421-2.882-4.322-4.501c-1.2,2.008-3.377,5.045-5.899,5.767    C97.344,316.648,97.053,316.686,96.788,316.686z"/>
		<path style="fill:#FFFFFF;" d="M87.972,302.789c0,0-1.321-6.604-20.143-7.265c-18.822-0.66-29.72,0.991-35.003-9.907    s0-21.464-4.623-30.05c0,0,6.935,9.576,9.907,20.474c2.972,10.897,9.907,13.539,20.474,13.539S85.991,294.204,87.972,302.789z"/>
		<path style="fill:#FFFFFF;" d="M62.545,322.107c0,0-26.252,3.467-43.341-3.963S7.812,285.7,7.812,285.7s6.192,18.327,15.85,23.776    S62.545,322.107,62.545,322.107z"/>
		<path style="fill:#FFFFFF;" d="M111.087,277.775c0,0-1.486-1.981-21.051-2.724s-30.215-8.421-32.692-17.584    c-2.477-9.164-1.486-15.851-3.715-21.299c0,0,6.935,3.467,9.907,13.374s10.897,16.841,25.757,18.575    S111.087,277.775,111.087,277.775z"/>
		<path style="fill:#241726;" d="M69.48,330.556c-0.563,0-1.019-0.456-1.019-1.019c0-5.732-5.723-7.107-16.691-9.23    c-7.396-1.431-16.601-3.213-25.353-7.695C5.823,302.064,4.131,273.825,4.069,272.627c-0.029-0.562,0.403-1.041,0.965-1.07    c0.54-0.044,1.041,0.401,1.071,0.964c0.014,0.282,1.703,28.268,21.242,38.277c8.493,4.35,17.541,6.101,24.811,7.508    c10.248,1.982,18.342,3.549,18.342,11.23C70.499,330.1,70.043,330.556,69.48,330.556z"/>
		<path style="fill:#241726;" d="M119.014,286.967c-0.358,0-0.707-0.19-0.893-0.525c-0.082-0.146-8.347-14.66-27.431-16.32    c-20.11-1.749-25.688-12.771-30.61-22.495c-3.523-6.961-6.565-12.973-14.527-14.167c-0.556-0.084-0.94-0.603-0.857-1.159    c0.084-0.555,0.594-0.931,1.159-0.857c9.003,1.351,12.422,8.108,16.043,15.264c4.681,9.25,9.987,19.733,28.969,21.384    c20.201,1.757,28.686,16.728,29.037,17.364c0.273,0.493,0.094,1.112-0.398,1.383C119.35,286.926,119.181,286.967,119.014,286.967z    "/>
		<path style="fill:#241726;" d="M91.275,306.779c-0.39,0-0.761-0.224-0.932-0.602c-0.078-0.172-8.007-17.163-34.66-15.251    c-13.093,0.939-16.45-9.111-19.692-18.827c-3.023-9.064-6.151-18.436-17.161-19.813c-0.558-0.07-0.954-0.579-0.885-1.138    c0.07-0.558,0.576-0.948,1.138-0.885c12.285,1.536,15.768,11.977,18.842,21.19c3.27,9.799,6.099,18.253,17.613,17.44    c14.654-1.048,23.818,3.443,28.93,7.392c5.587,4.318,7.652,8.869,7.738,9.06c0.228,0.514-0.003,1.115-0.517,1.344    C91.555,306.751,91.414,306.779,91.275,306.779z"/>
		<path style="fill:#FFFFFF;" d="M135.947,278.053c-0.463,0-0.882-0.316-0.991-0.787c-0.128-0.547,0.212-1.096,0.76-1.224    c7.067-1.654,25.691-6.041,26.988-6.474c0.536-0.176,1.112,0.111,1.29,0.645c0.177,0.534-0.111,1.112-0.645,1.29    c-1.651,0.549-26.127,6.28-27.169,6.524C136.102,278.044,136.023,278.053,135.947,278.053z"/>
		<g>
			<path style="fill:#FFFFFF;" d="M163.241,294.653c-0.048,0-0.097-0.003-0.145-0.01c-0.557-0.08-0.944-0.596-0.865-1.153     c0.294-2.056-0.993-5.209-1.515-6.251c-0.252-0.504-0.048-1.116,0.456-1.367c0.505-0.249,1.115-0.047,1.367,0.456     c0.088,0.176,2.153,4.35,1.71,7.451C164.177,294.286,163.741,294.653,163.241,294.653z"/>
			<path style="fill:#FFFFFF;" d="M160.886,307.845c-0.048,0-0.097-0.003-0.145-0.01c-0.557-0.08-0.944-0.596-0.865-1.153     c0.294-2.056-0.993-5.209-1.515-6.251c-0.252-0.504-0.048-1.116,0.456-1.367c0.504-0.252,1.115-0.047,1.367,0.456     c0.088,0.176,2.153,4.35,1.71,7.451C161.821,307.479,161.385,307.845,160.886,307.845z"/>
			<path style="fill:#FFFFFF;" d="M168.189,306.903c-0.048,0-0.097-0.003-0.145-0.01c-0.557-0.08-0.944-0.596-0.865-1.153     c0.294-2.056-0.993-5.209-1.515-6.251c-0.252-0.504-0.048-1.116,0.456-1.367c0.504-0.251,1.114-0.048,1.367,0.456     c0.088,0.176,2.153,4.35,1.71,7.451C169.124,306.536,168.688,306.903,168.189,306.903z"/>
			<path style="fill:#FFFFFF;" d="M167.482,320.095c-0.048,0-0.097-0.003-0.145-0.01c-0.557-0.08-0.944-0.596-0.865-1.153     c0.294-2.056-0.993-5.209-1.515-6.251c-0.252-0.504-0.048-1.116,0.456-1.367c0.505-0.25,1.115-0.048,1.367,0.456     c0.088,0.176,2.153,4.35,1.71,7.451C168.418,319.729,167.982,320.095,167.482,320.095z"/>
			<path style="fill:#FFFFFF;" d="M162.063,324.336c-0.048,0-0.097-0.003-0.145-0.01c-0.557-0.08-0.944-0.596-0.865-1.153     c0.293-2.048-0.993-5.207-1.514-6.252c-0.251-0.504-0.047-1.116,0.457-1.366c0.506-0.248,1.116-0.047,1.366,0.456     c0.088,0.176,2.152,4.35,1.709,7.451C162.999,323.97,162.563,324.336,162.063,324.336z"/>
			<path style="fill:#FFFFFF;" d="M170.074,331.639c-0.048,0-0.097-0.003-0.145-0.01c-0.557-0.08-0.944-0.596-0.865-1.153     c0.294-2.056-0.993-5.209-1.515-6.251c-0.252-0.504-0.048-1.116,0.456-1.367c0.503-0.251,1.115-0.049,1.367,0.456     c0.088,0.176,2.153,4.35,1.71,7.451C171.009,331.272,170.573,331.639,170.074,331.639z"/>
		</g>
		<g>
			<path style="fill:#FFFFFF;" d="M116.632,224.193c-0.298,0-0.592-0.129-0.794-0.379c-1.305-1.614-4.489-2.82-5.607-3.15     c-0.539-0.158-0.849-0.725-0.69-1.265c0.158-0.539,0.723-0.855,1.265-0.69c0.189,0.055,4.65,1.388,6.618,3.825     c0.353,0.437,0.285,1.079-0.153,1.433C117.083,224.12,116.857,224.193,116.632,224.193z"/>
			<path style="fill:#FFFFFF;" d="M124.685,234.906c-0.298,0-0.592-0.129-0.794-0.379c-1.305-1.614-4.49-2.82-5.608-3.15     c-0.539-0.158-0.849-0.725-0.69-1.265c0.159-0.538,0.72-0.853,1.265-0.69c0.189,0.055,4.651,1.388,6.619,3.825     c0.353,0.437,0.285,1.079-0.153,1.433C125.136,234.832,124.91,234.906,124.685,234.906z"/>
			<path style="fill:#FFFFFF;" d="M128.97,228.919c-0.298,0-0.592-0.129-0.794-0.379c-1.305-1.615-4.489-2.821-5.607-3.15     c-0.539-0.158-0.849-0.725-0.69-1.265c0.158-0.538,0.722-0.851,1.265-0.69c0.189,0.055,4.65,1.387,6.618,3.825     c0.353,0.438,0.285,1.079-0.153,1.433C129.421,228.845,129.194,228.919,128.97,228.919z"/>
			<path style="fill:#FFFFFF;" d="M138.146,238.424c-0.298,0-0.592-0.129-0.794-0.379c-1.305-1.615-4.49-2.821-5.608-3.15     c-0.539-0.158-0.849-0.725-0.69-1.265c0.158-0.539,0.717-0.854,1.265-0.69c0.189,0.055,4.651,1.387,6.619,3.825     c0.353,0.438,0.285,1.079-0.153,1.433C138.597,238.35,138.37,238.424,138.146,238.424z"/>
			<path style="fill:#FFFFFF;" d="M137.558,245.279c-0.298,0-0.592-0.129-0.794-0.379c-1.304-1.614-4.489-2.82-5.607-3.15     c-0.539-0.158-0.849-0.725-0.69-1.265c0.158-0.539,0.718-0.85,1.265-0.69c0.189,0.055,4.651,1.388,6.618,3.825     c0.353,0.438,0.285,1.079-0.153,1.433C138.009,245.205,137.782,245.279,137.558,245.279z"/>
			<path style="fill:#FFFFFF;" d="M148.361,244.391c-0.298,0-0.592-0.129-0.794-0.379c-1.305-1.614-4.489-2.82-5.607-3.15     c-0.539-0.158-0.849-0.725-0.69-1.265c0.159-0.538,0.72-0.853,1.265-0.69c0.189,0.055,4.65,1.388,6.618,3.825     c0.353,0.437,0.285,1.079-0.153,1.433C148.812,244.318,148.586,244.391,148.361,244.391z"/>
		</g>
		<path style="fill:#FFFFFF;" d="M195.789,282.976c0,0-7.705-23.539-19.593-30.474c-11.888-6.935-19.774-9.649-19.278-22.032    c0.495-12.383-2.736-17.335-7.194-19.812c0,0,4.458,0.495,10.402,11.393s0.495,13.869,15.355,22.29    C189.358,252.205,196.284,275.051,195.789,282.976z"/>
		<path style="fill:#241726;" d="M195.294,291.921c-0.047,0-0.095-0.003-0.142-0.01c-0.557-0.079-0.945-0.593-0.868-1.15    c0.043-0.311,3.985-31.252-25.266-48.514c-5.866-3.462-6.845-8.864-7.793-14.088c-1.46-8.056-2.97-16.386-21.628-20.468    c-0.549-0.12-0.898-0.663-0.777-1.213c0.119-0.551,0.663-0.898,1.213-0.777c19.986,4.372,21.693,13.787,23.198,22.094    c0.943,5.21,1.76,9.709,6.821,12.697c30.449,17.97,26.295,50.229,26.249,50.553C196.231,291.552,195.795,291.921,195.294,291.921z    "/>
		<path style="fill:#FFFFFF;" d="M225.013,268.612c0,0-6.439-6.439-20.804-13.869c-14.365-7.43-15.161-20.601-6.935-37.15    c0,0-1.486,16.841,1.486,22.785S221.546,258.21,225.013,268.612z"/>
		<path style="fill:#241726;" d="M227.986,284.985c-0.014,0-0.028,0-0.042,0c-0.562-0.023-0.999-0.498-0.977-1.059    c0.009-0.233,0.596-23.401-26.259-39.705c-6.879-4.176-5.498-11.973-4.279-18.853c1.322-7.457,1.863-12.111-3.417-13.735    c-0.538-0.166-0.84-0.736-0.675-1.274c0.166-0.535,0.734-0.84,1.274-0.675c7.269,2.237,6.027,9.254,4.825,16.039    c-1.158,6.541-2.356,13.304,3.329,16.756c27.931,16.956,27.248,41.286,27.238,41.53    C228.98,284.557,228.529,284.985,227.986,284.985z"/>
	</g>
	<g>
		<g>
			<path style="fill:#FFFFFF;" d="M171.858,327.166c0,0,136.704-47.549,166.422-23.775c29.718,23.775,29.718,83.211,11.887,95.098     c-17.831,11.887-147.101,46.86-163.45,32.69C142.14,392.546,156.999,330.138,171.858,327.166z"/>
			<path style="fill:#241726;" d="M202.872,435.523c-8.545,0-14.046-1.169-16.822-3.574c-28.325-24.548-34.262-61.047-27.582-86.329     c2.894-10.95,7.949-18.406,13.191-19.453c0.741-0.269,88.094-30.452,137.902-30.452c13.773,0,23.65,2.315,29.357,6.88     c19.354,15.484,25.216,44.153,24.355,63.998c-0.683,15.724-5.37,27.965-12.539,32.744     C336.202,409.025,243.401,435.523,202.872,435.523z M309.56,297.754c-49.467,0-136.494,30.071-137.368,30.375     c-4.54,0.919-9.101,7.974-11.754,18.013c-6.519,24.67-0.715,60.294,26.947,84.267c1.619,1.403,5.62,3.076,15.487,3.076     c40.261,0,132.337-26.248,146.731-35.844c6.63-4.42,10.978-16.06,11.633-31.136c0.84-19.369-4.834-47.312-23.593-62.317     C332.307,299.918,322.858,297.754,309.56,297.754z"/>
		</g>
		<path style="fill:#F08760;" d="M180.278,310.305c0,0,75.663-26.548,116.15-28.54c40.486-1.991,93.583,40.486,74.999,74.336    c-18.584,33.849-67.035-10.619-112.167,6.637s-41.15,55.088-89.601,56.415S127.845,327.561,180.278,310.305z"/>
		<path style="fill:#241726;" d="M212.908,303.067c0,0,52.989,37.768,54.98,51.706c1.991,13.938,3.61,66.138,5.602,69.456    c1.991,3.319,36.237-7.152,38.892-10.471s-4.007-62.968-5.998-73.587c-1.991-10.619-52.61-53.002-61.902-50.347    S204.943,297.757,212.908,303.067z"/>
		<path style="fill:#241726;" d="M253.2,420.269c-4.335,0-6.602-7.553-6.86-8.467c-0.153-0.541,0.161-1.104,0.703-1.257    c0.546-0.146,1.105,0.161,1.258,0.703c0.564,1.985,2.781,7.544,5.323,6.933c3.37-0.765,4.248-6.374,4.256-6.431    c0.067-0.447,0.42-0.796,0.867-0.859c0.456-0.062,0.884,0.177,1.07,0.588c0.59,1.301,2.711,4.931,4.622,4.465    c1.443-0.339,1.349-4.946,0.726-8.141c-0.107-0.552,0.253-1.087,0.805-1.195c0.547-0.11,1.086,0.252,1.195,0.804    c0.311,1.594,1.669,9.592-2.258,10.516c-2.451,0.571-4.444-1.535-5.667-3.341c-0.748,2.131-2.264,4.923-5.163,5.582    C253.775,420.236,253.483,420.268,253.2,420.269z"/>
		<path style="fill:#241726;" d="M323.654,387.766c-4.335,0-6.602-7.553-6.86-8.467c-0.153-0.541,0.161-1.104,0.703-1.257    c0.544-0.149,1.105,0.162,1.258,0.703c0.563,1.985,2.78,7.532,5.323,6.933c3.37-0.765,4.248-6.374,4.256-6.431    c0.067-0.447,0.42-0.796,0.867-0.859c0.457-0.06,0.884,0.177,1.07,0.588c0.59,1.3,2.712,4.94,4.622,4.465    c1.428-0.335,1.336-5.026,0.725-8.14c-0.108-0.552,0.252-1.088,0.804-1.196c0.555-0.109,1.087,0.252,1.196,0.804    c0.311,1.594,1.669,9.593-2.259,10.516c-2.444,0.577-4.444-1.536-5.666-3.341c-0.748,2.131-2.264,4.923-5.163,5.582    C324.229,387.733,323.937,387.765,323.654,387.766z"/>
		<path style="fill:#241726;" d="M212.975,425.209c-0.576,0-1.035-0.192-1.361-0.398c-2.067-1.305-2.395-5.501-2.44-6.329    c-0.03-0.561,0.401-1.041,0.962-1.072c0.534-0.05,1.042,0.399,1.073,0.961c0.088,1.577,0.623,4.167,1.494,4.715    c0.086,0.055,0.247,0.158,0.646-0.005c2.256-0.929,4.258-5.401,4.838-7.046c0.134-0.378,0.477-0.643,0.877-0.676    c0.406-0.036,0.782,0.172,0.976,0.522c0.641,1.156,2.714,4.257,4.586,4.711c0.459,0.109,0.848,0.042,1.233-0.215    c2.728-1.818,1.818-6.165,1.809-6.209c-0.084-0.385,0.062-0.785,0.374-1.025c0.311-0.241,0.733-0.281,1.086-0.1    c1.972,1.01,4.646,1.839,5.329,1.419c0.022-0.014,0.09-0.055,0.09-0.326c0-2.849-2.079-4.831-2.1-4.851    c-0.41-0.384-0.433-1.028-0.051-1.439c0.385-0.41,1.025-0.437,1.436-0.056c0.112,0.103,2.753,2.585,2.753,6.345    c0,0.913-0.378,1.646-1.066,2.066c-1.414,0.865-3.902,0.135-5.658-0.581c0.042,1.903-0.366,4.783-2.872,6.453    c-0.858,0.572-1.841,0.744-2.846,0.499c-1.971-0.48-3.721-2.484-4.797-3.993c-0.97,2.129-2.795,5.388-5.221,6.387    C213.702,425.141,213.318,425.209,212.975,425.209z"/>
		<path style="fill:#241726;" d="M233.648,394.366c-0.721,0-1.253-0.283-1.604-0.563c-1.91-1.527-1.769-5.732-1.722-6.56    c0.033-0.561,0.516-0.982,1.075-0.958c0.561,0.032,0.991,0.514,0.959,1.075c-0.088,1.577,0.156,4.211,0.96,4.853    c0.081,0.065,0.227,0.186,0.643,0.067c2.346-0.673,4.831-4.895,5.59-6.466c0.176-0.36,0.54-0.62,0.946-0.574    c0.401,0.011,0.757,0.257,0.912,0.627c0.509,1.22,2.225,4.532,4.036,5.192c0.438,0.161,0.836,0.137,1.249-0.077    c2.912-1.504,2.492-5.926,2.488-5.97c-0.041-0.392,0.148-0.773,0.486-0.977c0.338-0.204,0.761-0.195,1.091,0.021    c1.845,1.223,4.413,2.354,5.138,2.002c0.023-0.011,0.095-0.044,0.124-0.313c0.317-2.832-1.53-5.032-1.548-5.054    c-0.364-0.427-0.316-1.07,0.109-1.436c0.423-0.364,1.066-0.32,1.433,0.104c0.1,0.115,2.449,2.874,2.031,6.613    c-0.102,0.907-0.559,1.593-1.289,1.934c-1.499,0.703-3.893-0.298-5.559-1.206c-0.169,1.896-0.894,4.712-3.57,6.095    c-0.917,0.474-1.912,0.536-2.885,0.179c-1.905-0.696-3.422-2.883-4.323-4.502c-1.2,2.009-3.377,5.046-5.899,5.768    C234.204,394.328,233.913,394.366,233.648,394.366z"/>
		<path style="fill:#FFFFFF;" d="M224.833,380.47c0,0-1.321-6.604-20.143-7.265s-29.72,0.991-35.003-9.907    c-5.284-10.897,0-21.464-4.623-30.05c0,0,6.935,9.576,9.907,20.474s9.907,13.539,20.474,13.539S222.851,371.884,224.833,380.47z"/>
		<path style="fill:#FFFFFF;" d="M199.406,399.788c0,0-26.252,3.467-43.341-3.963c-17.089-7.43-11.393-32.444-11.393-32.444    s6.192,18.327,15.85,23.776S199.406,399.788,199.406,399.788z"/>
		<path style="fill:#FFFFFF;" d="M247.948,355.456c0,0-1.486-1.981-21.051-2.724c-19.565-0.743-30.215-8.421-32.692-17.584    c-2.477-9.164-1.486-15.85-3.715-21.299c0,0,6.935,3.467,9.907,13.374s10.897,16.841,25.757,18.575    C241.013,347.53,247.948,355.456,247.948,355.456z"/>
		<path style="fill:#241726;" d="M206.34,408.236c-0.563,0-1.019-0.456-1.019-1.019c0-5.733-5.723-7.108-16.693-9.23    c-7.395-1.431-16.6-3.213-25.351-7.695c-20.594-10.548-22.285-38.789-22.348-39.986c-0.029-0.562,0.403-1.041,0.965-1.07    c0.535-0.054,1.041,0.401,1.071,0.964c0.014,0.282,1.702,28.269,21.241,38.278c8.493,4.349,17.54,6.1,24.81,7.507    c10.248,1.983,18.343,3.55,18.343,11.231C207.359,407.781,206.903,408.236,206.34,408.236z"/>
		<path style="fill:#241726;" d="M255.874,364.648c-0.358,0-0.707-0.19-0.893-0.525c-0.082-0.146-8.346-14.66-27.43-16.32    c-20.11-1.749-25.688-12.771-30.61-22.494c-3.523-6.962-6.566-12.974-14.528-14.168c-0.556-0.084-0.94-0.603-0.857-1.159    s0.6-0.929,1.159-0.857c9.003,1.351,12.423,8.109,16.044,15.264c4.681,9.25,9.988,19.733,28.969,21.384    c20.201,1.757,28.686,16.728,29.036,17.363c0.273,0.493,0.094,1.112-0.398,1.383C256.21,364.606,256.041,364.648,255.874,364.648z    "/>
		<path style="fill:#241726;" d="M228.135,384.46c-0.39,0-0.761-0.224-0.932-0.602c-0.077-0.172-8.014-17.145-34.66-15.251    c-13.093,0.957-16.449-9.112-19.691-18.827c-3.023-9.063-6.151-18.436-17.161-19.813c-0.558-0.07-0.954-0.579-0.885-1.138    c0.071-0.557,0.571-0.944,1.138-0.885c12.285,1.536,15.768,11.977,18.842,21.19c3.27,9.799,6.097,18.24,17.612,17.44    c14.646-1.059,23.817,3.441,28.93,7.392c5.587,4.317,7.652,8.869,7.738,9.06c0.228,0.514-0.003,1.115-0.517,1.344    C228.415,384.432,228.274,384.46,228.135,384.46z"/>
		<path style="fill:#FFFFFF;" d="M272.808,355.734c-0.463,0-0.882-0.316-0.991-0.787c-0.128-0.547,0.212-1.096,0.76-1.224    c7.067-1.654,25.691-6.041,26.987-6.473c0.54-0.181,1.112,0.109,1.289,0.644c0.178,0.534-0.11,1.112-0.644,1.289    c-1.65,0.55-26.126,6.281-27.168,6.525C272.963,355.725,272.884,355.734,272.808,355.734z"/>
		<g>
			<path style="fill:#FFFFFF;" d="M300.102,372.333c-0.048,0-0.096-0.003-0.144-0.01c-0.557-0.08-0.945-0.596-0.866-1.152     c0.294-2.057-0.994-5.21-1.515-6.252c-0.252-0.504-0.048-1.116,0.456-1.367c0.504-0.252,1.117-0.047,1.367,0.456     c0.088,0.176,2.152,4.35,1.71,7.45C301.038,371.966,300.602,372.333,300.102,372.333z"/>
			<path style="fill:#FFFFFF;" d="M297.746,385.526c-0.048,0-0.097-0.003-0.145-0.01c-0.557-0.08-0.944-0.596-0.865-1.153     c0.293-2.048-0.993-5.207-1.514-6.252c-0.251-0.504-0.047-1.116,0.457-1.366c0.505-0.247,1.116-0.048,1.366,0.456     c0.088,0.176,2.152,4.35,1.709,7.451C298.681,385.159,298.245,385.526,297.746,385.526z"/>
			<path style="fill:#FFFFFF;" d="M305.05,384.583c-0.048,0-0.096-0.003-0.144-0.01c-0.557-0.08-0.945-0.596-0.866-1.152     c0.294-2.057-0.994-5.21-1.515-6.252c-0.252-0.504-0.048-1.116,0.456-1.367c0.503-0.25,1.116-0.048,1.367,0.456     c0.088,0.176,2.152,4.35,1.71,7.45C305.985,384.216,305.549,384.583,305.05,384.583z"/>
			<path style="fill:#FFFFFF;" d="M304.342,397.776c-0.048,0-0.097-0.003-0.145-0.01c-0.557-0.08-0.944-0.596-0.865-1.153     c0.293-2.048-0.993-5.207-1.514-6.252c-0.251-0.504-0.047-1.116,0.457-1.366c0.503-0.249,1.116-0.048,1.366,0.456     c0.088,0.176,2.152,4.35,1.709,7.451C305.277,397.41,304.842,397.776,304.342,397.776z"/>
			<path style="fill:#FFFFFF;" d="M298.924,402.016c-0.048,0-0.097-0.003-0.145-0.01c-0.557-0.08-0.944-0.596-0.865-1.153     c0.294-2.056-0.993-5.209-1.515-6.251c-0.252-0.504-0.048-1.116,0.456-1.367c0.504-0.25,1.116-0.048,1.367,0.456     c0.088,0.176,2.153,4.35,1.71,7.451C299.86,401.65,299.424,402.016,298.924,402.016z"/>
			<path style="fill:#FFFFFF;" d="M306.934,409.319c-0.048,0-0.097-0.003-0.145-0.01c-0.557-0.08-0.944-0.596-0.865-1.153     c0.293-2.048-0.993-5.207-1.514-6.252c-0.251-0.504-0.047-1.116,0.457-1.366c0.503-0.247,1.116-0.048,1.366,0.456     c0.088,0.176,2.152,4.35,1.709,7.451C307.869,408.953,307.433,409.319,306.934,409.319z"/>
		</g>
		<g>
			<path style="fill:#FFFFFF;" d="M253.493,301.874c-0.298,0-0.592-0.129-0.794-0.379c-1.305-1.614-4.49-2.82-5.608-3.15     c-0.539-0.158-0.849-0.725-0.69-1.265c0.158-0.538,0.717-0.853,1.265-0.69c0.189,0.055,4.651,1.388,6.619,3.825     c0.353,0.437,0.285,1.079-0.153,1.433C253.944,301.8,253.718,301.874,253.493,301.874z"/>
			<path style="fill:#FFFFFF;" d="M261.545,312.586c-0.298,0-0.592-0.129-0.794-0.379c-1.305-1.614-4.489-2.82-5.607-3.15     c-0.539-0.158-0.849-0.725-0.69-1.265c0.159-0.538,0.719-0.852,1.265-0.69c0.189,0.055,4.65,1.388,6.618,3.825     c0.353,0.437,0.285,1.079-0.153,1.433C261.996,312.513,261.77,312.586,261.545,312.586z"/>
			<path style="fill:#FFFFFF;" d="M265.831,306.599c-0.298,0-0.592-0.129-0.794-0.379c-1.3-1.609-4.489-2.82-5.608-3.151     c-0.54-0.159-0.849-0.725-0.69-1.265c0.158-0.539,0.723-0.855,1.265-0.69c0.189,0.055,4.651,1.388,6.619,3.826     c0.353,0.438,0.285,1.079-0.153,1.433C266.282,306.525,266.055,306.599,265.831,306.599z"/>
			<path style="fill:#FFFFFF;" d="M275.006,316.104c-0.298,0-0.592-0.129-0.794-0.379c-1.305-1.615-4.489-2.821-5.607-3.15     c-0.539-0.158-0.849-0.725-0.69-1.265c0.158-0.538,0.722-0.853,1.265-0.69c0.189,0.055,4.65,1.387,6.618,3.825     c0.353,0.438,0.285,1.079-0.153,1.433C275.457,316.031,275.23,316.104,275.006,316.104z"/>
			<path style="fill:#FFFFFF;" d="M274.419,322.959c-0.298,0-0.592-0.129-0.794-0.379c-1.305-1.614-4.489-2.82-5.607-3.15     c-0.539-0.158-0.849-0.725-0.69-1.265c0.158-0.538,0.718-0.854,1.265-0.69c0.189,0.055,4.65,1.388,6.618,3.825     c0.353,0.437,0.285,1.079-0.153,1.433C274.87,322.886,274.644,322.959,274.419,322.959z"/>
			<path style="fill:#FFFFFF;" d="M285.222,322.072c-0.298,0-0.592-0.129-0.794-0.379c-1.305-1.614-4.49-2.82-5.608-3.15     c-0.539-0.158-0.849-0.725-0.69-1.265c0.159-0.538,0.72-0.852,1.265-0.69c0.189,0.055,4.651,1.388,6.619,3.825     c0.353,0.437,0.285,1.079-0.153,1.433C285.673,321.998,285.447,322.072,285.222,322.072z"/>
		</g>
		<path style="fill:#FFFFFF;" d="M332.649,360.657c0,0-7.705-23.539-19.593-30.474s-19.774-9.649-19.278-22.032    c0.495-12.383-2.736-17.335-7.194-19.811c0,0,4.458,0.495,10.402,11.393c5.944,10.897,0.495,13.869,15.355,22.29    C326.218,329.885,333.144,352.731,332.649,360.657z"/>
		<path style="fill:#241726;" d="M332.154,369.601c-0.047,0-0.095-0.003-0.142-0.01c-0.557-0.079-0.945-0.593-0.868-1.15    c0.043-0.311,3.986-31.252-25.265-48.514c-5.867-3.462-6.846-8.864-7.793-14.089c-1.46-8.055-2.97-16.385-21.628-20.467    c-0.549-0.12-0.898-0.663-0.777-1.213c0.118-0.551,0.664-0.899,1.213-0.777c19.985,4.372,21.692,13.787,23.197,22.094    c0.944,5.21,1.76,9.709,6.822,12.697c30.449,17.97,26.294,50.229,26.248,50.553C333.091,369.233,332.655,369.601,332.154,369.601z    "/>
		<path style="fill:#FFFFFF;" d="M361.873,346.292c0,0-6.439-6.439-20.804-13.869c-14.365-7.43-15.161-20.601-6.935-37.15    c0,0-1.486,16.841,1.486,22.785C338.593,324.002,358.406,335.89,361.873,346.292z"/>
		<path style="fill:#241726;" d="M364.846,362.666c-0.014,0-0.028,0-0.042,0c-0.562-0.023-0.999-0.498-0.977-1.059    c0.009-0.233,0.597-23.401-26.258-39.705c-6.879-4.176-5.498-11.974-4.279-18.854c1.321-7.457,1.862-12.11-3.417-13.734    c-0.538-0.166-0.84-0.736-0.675-1.274c0.167-0.535,0.736-0.839,1.274-0.675c7.269,2.236,6.026,9.253,4.825,16.039    c-1.158,6.541-2.357,13.304,3.329,16.756c27.931,16.956,27.247,41.286,27.237,41.53    C365.84,362.238,365.389,362.666,364.846,362.666z"/>
	</g>
</g>















</svg>
