<?xml version="1.0" encoding="UTF-8"?>
<!-- Generator: Adobe Illustrator 25.2.0, SVG Export Plug-In . SVG Version: 6.00 Build 0)  -->
<svg xmlns="http://www.w3.org/2000/svg" xmlns:xlink="http://www.w3.org/1999/xlink" version="1.1" id="Capa_1" x="0px" y="0px" viewBox="0 0 512 512" style="enable-background:new 0 0 512 512;" xml:space="preserve" width="512" height="512">
<g>
	<g>
		<path style="fill:#EF9B65;" d="M192.292,33.925C86.092,33.925,0,117.752,0,221.157s86.092,187.232,192.292,187.232    c106.2,0,192.292-83.827,192.292-187.232S298.492,33.925,192.292,33.925z M197.78,278.155c-30.222,0-54.722-24.5-54.722-54.722    c0-30.222,24.5-54.722,54.722-54.722c30.222,0,54.722,24.5,54.722,54.722C252.503,253.656,228.003,278.155,197.78,278.155z"/>
		<path style="fill:#AC2E2D;" d="M369.227,195.555c-11.938-51.891-14.591-50.594-45.099-70.053    c-30.508-19.459-27.856-40.215-51.732-57.08C248.52,51.558,225.97,52.855,225.97,52.855    c-64.996-11.675-55.711,9.081-103.463,16.865c-47.752,7.784-45.099,28.54-61.017,53.188    c-15.918,24.648-26.529,28.54-37.141,72.647c-10.612,44.107,19.418,48.569,11.459,86.189    c-7.959,37.621,27.008,65.591,64.148,82.456c37.141,16.865,41.12,31.134,100.81,29.837c59.69-1.297,63.67-25.945,95.505-40.215    c31.835-14.27,49.079-40.215,58.364-72.647C363.921,248.743,381.165,247.446,369.227,195.555z M197.78,278.155    c-30.222,0-54.722-24.5-54.722-54.722c0-30.222,24.5-54.722,54.722-54.722c30.222,0,54.722,24.5,54.722,54.722    C252.503,253.656,228.003,278.155,197.78,278.155z"/>
		<path style="fill:#F9DD96;" d="M246.096,126.421c0,0-18.071,19.783-10.045,24.138C244.84,155.327,263.88,114.646,246.096,126.421z    "/>
		<path style="fill:#EB867B;" d="M194.623,126.654c0,0-24.488-10.875-26.076-1.882C166.808,134.617,211.424,139.792,194.623,126.654    z"/>
		<path style="fill:#EB867B;" d="M83.379,229.837c0,0-24.488-10.875-26.076-1.882C55.564,237.8,100.18,242.975,83.379,229.837z"/>
		<path style="fill:#F9DD96;" d="M116.632,249.251c0,0-19.991,17.841-12.449,22.99C112.44,277.879,135.521,239.347,116.632,249.251z    "/>
		<path style="fill:#EB867B;" d="M73.33,277.768c0,0,0.404,26.791,9.234,24.459C92.23,299.674,78.205,257.005,73.33,277.768z"/>
		<path style="fill:#EB867B;" d="M152.2,312.901c0,0-17.698-20.117-22.901-12.612C123.603,308.505,161.97,331.86,152.2,312.901z"/>
		<path style="fill:#F9DD96;" d="M306.673,208.071c0,0-24.488-10.875-26.076-1.882C278.858,216.035,323.474,221.209,306.673,208.071    z"/>
		<path style="fill:#F9DD96;" d="M108.369,324.958c0,0-24.488-10.875-26.076-1.882C80.553,332.922,125.17,338.096,108.369,324.958z"/>
		<path style="fill:#EB867B;" d="M337.202,187.59c0,0-9.275-25.138-16.83-20.007C312.101,173.2,339.495,208.795,337.202,187.59z"/>
		<path style="fill:#F9DD96;" d="M201.072,91.184c0,0-24.488-10.875-26.076-1.882C173.257,99.148,217.873,104.322,201.072,91.184z"/>
		<path style="fill:#EB867B;" d="M299.49,127.627c0,0-13.226-23.302-19.85-17.015C272.389,117.495,305.19,148.179,299.49,127.627z"/>
		<path style="fill:#EB867B;" d="M318.837,259.83c0,0-13.226-23.302-19.85-17.015C291.736,249.699,324.537,280.382,318.837,259.83z"/>
		<path style="fill:#EB867B;" d="M199.532,346.891c0,0-13.226-23.302-19.85-17.015C172.431,336.759,205.231,367.443,199.532,346.891    z"/>
		<path style="fill:#EB867B;" d="M282.562,309.81c0,0-13.226-23.302-19.85-17.015C255.461,299.678,288.262,330.362,282.562,309.81z"/>
		<path style="fill:#EB867B;" d="M329.918,294.454c0,0-25.166,9.198-20.058,16.769C315.452,319.51,351.129,292.225,329.918,294.454z    "/>
		<path style="fill:#EB867B;" d="M282.299,159.398c0,0-25.669,7.684-21.021,15.545C266.367,183.55,303.605,158.436,282.299,159.398z    "/>
		<path style="fill:#EB867B;" d="M260.529,85.449c0,0-25.53-8.132-26.126,0.981C233.751,96.407,278.666,96.671,260.529,85.449z"/>
		<path style="fill:#EB867B;" d="M134.555,149.331c0,0,15.812-21.631,7.359-25.087C132.659,120.46,118.158,162.97,134.555,149.331z"/>
		<path style="fill:#F9DD96;" d="M227.258,332.319c0,0,15.812-21.631,7.359-25.087C225.363,303.448,210.862,345.959,227.258,332.319    z"/>
		<path style="fill:#F9DD96;" d="M86.805,131.023c0,0,26.743,1.654,25.096-7.328C110.098,113.861,66.478,124.568,86.805,131.023z"/>
		<path style="fill:#EB867B;" d="M103.922,211.402c0,0,15.812-21.631,7.359-25.087C102.027,182.531,87.526,225.041,103.922,211.402z    "/>
		<path style="fill:#EB867B;" d="M57.458,173.849c0,0,26.569,3.465,25.536-5.608C81.862,158.307,37.615,166.029,57.458,173.849z"/>
		<path style="fill:#251626;" d="M329.319,275.501c-0.242,0-0.487-0.07-0.705-0.214c-0.585-0.39-0.743-1.181-0.353-1.765    l14.586-21.882c15.851-23.773,19.087-46.535,9.622-67.653c-10.275-22.918-26.964-35.02-27.131-35.139    c-0.572-0.41-0.705-1.206-0.296-1.777c0.41-0.567,1.206-0.699,1.775-0.296c0.706,0.505,17.42,12.629,27.973,36.173    c9.848,21.966,6.542,45.553-9.826,70.104l-14.586,21.882C330.134,275.302,329.73,275.501,329.319,275.501z"/>
		<path style="fill:#251626;" d="M106.472,89.93c-0.661,0-1.221-0.512-1.268-1.181c-0.051-0.701,0.477-1.31,1.178-1.362    c0.225-0.015,22.821-1.715,47.476-10.466c8.348-2.961,13.729-6.342,18.477-9.325c9.237-5.802,15.908-9.999,35.772-4.475    c0.677,0.186,1.074,0.89,0.886,1.566c-0.188,0.679-0.891,1.074-1.567,0.885c-18.778-5.213-24.73-1.477-33.737,4.179    c-4.859,3.053-10.367,6.513-18.98,9.571c-24.994,8.867-47.916,10.588-48.145,10.605C106.533,89.93,106.502,89.93,106.472,89.93z"/>
		<path style="fill:#251626;" d="M206.867,288.453c-2.8,0-5.565-0.271-8.268-0.823c-0.689-0.142-1.134-0.815-0.992-1.504    c0.142-0.686,0.81-1.129,1.502-0.992c16.23,3.319,34.942-4.189,48.844-19.594c14.992-16.606,20.417-37.754,14.514-56.571    c-12.548-39.997-41.478-41.237-41.769-41.245c-0.702-0.02-1.257-0.604-1.238-1.308s0.631-1.236,1.308-1.238    c0.308,0.01,31.042,1.318,44.129,43.03c6.176,19.684,0.548,41.754-15.053,59.039C237.63,280.776,221.779,288.453,206.867,288.453z    "/>
		<path style="fill:#251626;" d="M165.817,281.514c-0.164,0-0.332-0.032-0.492-0.099c-0.27-0.112-26.994-11.669-34.689-45.014    c-5.015-21.735-2.13-42.107,7.914-55.897c8.037-11.033,20.029-17.302,35.645-18.63c0.715-0.052,1.316,0.46,1.376,1.161    c0.06,0.699-0.46,1.315-1.16,1.375c-14.847,1.263-26.221,7.182-33.804,17.593c-9.61,13.193-12.34,32.812-7.49,53.826    c7.404,32.086,32.935,43.129,33.193,43.239c0.649,0.271,0.953,1.017,0.681,1.666C166.787,281.221,166.314,281.514,165.817,281.514    z"/>
		<path style="fill:#251626;" d="M190.776,382.151c-18.794,0-30.739-7.383-43.318-15.157c-11.086-6.851-22.549-13.934-39.445-15.731    c-0.7-0.075-1.206-0.701-1.131-1.4c0.075-0.699,0.685-1.208,1.4-1.131c17.473,1.857,29.187,9.096,40.514,16.097    c13.534,8.36,26.31,16.248,47.922,14.533c39.419-3.155,65.094-26.048,65.349-26.277c0.521-0.472,1.326-0.433,1.799,0.087    c0.472,0.522,0.433,1.325-0.088,1.797c-0.261,0.239-26.584,23.706-66.855,26.928C194.793,382.069,192.747,382.151,190.776,382.151    z"/>
		<path style="fill:#251626;" d="M58.975,314.19c-0.372,0-0.74-0.162-0.991-0.472c-0.571-0.706-13.987-17.613-13.987-46.749    c0-15.264-4.36-26.602-7.863-35.714c-3.233-8.405-5.787-15.045-4.195-21.812c0.16-0.686,0.846-1.119,1.531-0.947    c0.684,0.159,1.108,0.845,0.947,1.529c-1.412,6.004,1.017,12.32,4.092,20.318c3.58,9.307,8.033,20.89,8.033,36.626    c0,28.241,13.286,44.981,13.421,45.148c0.443,0.547,0.358,1.347-0.189,1.79C59.539,314.098,59.256,314.19,58.975,314.19z"/>
	</g>
	<g>
		<path style="fill:#F9DD96;" d="M493.72,310.288c0,0,46.432,56.841-8.706,94.272s-229.256,74.863-264.08,73.477    c-34.824-1.386-47.883-38.818-44.981-56.841C178.856,403.174,493.72,310.288,493.72,310.288z"/>
		<path style="fill:#EB867B;" d="M210.639,335.038c0,0,202.125-82.5,251.625-67.375s53.625,70.125,19.25,85.25    s-45.375-9.625-61.875,12.375c-16.5,22-16.5,49.5-60.5,42.625c-44-6.875-38.5,2.75-71.5,19.25s-37.125-1.375-57.75,11    s-50.875,19.25-57.75,2.75S141.889,365.288,210.639,335.038z"/>
		<path style="fill:#E2394B;" d="M215.776,374.429c0,0-24.488-10.875-26.076-1.882C187.96,382.393,232.577,387.567,215.776,374.429z    "/>
		<path style="fill:#E2394B;" d="M252.38,342.3c0,0-26.578,3.399-23.273,11.912C232.726,363.532,273.558,344.821,252.38,342.3z"/>
		<path style="fill:#F9DD96;" d="M267.296,360.514c0,0-22.072,15.191-15.236,21.246    C259.545,388.389,287.279,353.059,267.296,360.514z"/>
		<path style="fill:#F9DD96;" d="M321.482,310.68c0,0-26.578,3.399-23.273,11.912C301.828,331.912,342.66,313.201,321.482,310.68z"/>
		<path style="fill:#F9DD96;" d="M394.839,325.996c0,0-26.578,3.399-23.273,11.912C375.184,347.229,416.017,328.518,394.839,325.996    z"/>
		<path style="fill:#E2394B;" d="M389.823,297.306c0,0-24.98-9.692-26.136-0.633C362.42,306.59,407.233,309.626,389.823,297.306z"/>
		<path style="fill:#F9DD96;" d="M431.505,297.659c0,0,21.182-16.409,14.016-22.07C437.676,269.392,411.974,306.227,431.505,297.659    z"/>
		<path style="fill:#E2394B;" d="M314.618,374.24c0,0,21.182-16.409,14.016-22.07C320.789,345.973,295.087,382.808,314.618,374.24z"/>
		<path style="fill:#251626;" d="M396.514,380.794c-0.195,0-0.393-0.045-0.579-0.139c-0.625-0.321-0.873-1.089-0.552-1.713    c15.209-29.697,19.551-30.398,43.641-34.279c4.768-0.768,10.171-1.641,16.65-2.881c19.855-3.801,27.302-10.543,30.053-15.527    c2.965-5.37,1.264-9.864,1.245-9.909c-0.256-0.656,0.067-1.395,0.722-1.651c0.653-0.259,1.392,0.067,1.649,0.721    c0.088,0.229,2.147,5.666-1.388,12.069c-4.384,7.945-15.084,13.596-31.802,16.798c-6.517,1.248-11.94,2.121-16.724,2.894    c-24.067,3.878-27.159,4.375-41.782,32.924C397.423,380.541,396.977,380.794,396.514,380.794z"/>
		<path style="fill:#251626;" d="M200.683,444.418c-4.454,0-9.201-1.743-14.573-6.22c-0.539-0.45-0.613-1.253-0.163-1.792    c0.45-0.537,1.253-0.614,1.794-0.162c12.477,10.396,20.651,4.661,31.967-3.289c10.174-7.147,22.84-16.035,42.08-13.114    c37.232,5.668,41.66-17.484,41.829-18.471c0.119-0.694,0.784-1.161,1.468-1.042c0.691,0.117,1.158,0.771,1.043,1.462    c-0.044,0.266-4.902,26.622-44.723,20.566c-18.246-2.777-29.925,5.434-40.233,12.681    C214.206,439.933,207.823,444.418,200.683,444.418z"/>
		<g>
			<path style="fill:#241726;" d="M472.441,392.806c-0.418,0-0.827-0.206-1.07-0.582c-0.382-0.592-0.213-1.38,0.378-1.76     c2.421-1.564,6.133-4.311,6.804-5.519c0.341-0.617,1.117-0.833,1.73-0.497c0.614,0.343,0.837,1.116,0.495,1.73     c-1.221,2.203-6.584,5.738-7.647,6.424C472.917,392.742,472.677,392.806,472.441,392.806z"/>
			<path style="fill:#241726;" d="M469.274,407.779c-0.418,0-0.827-0.206-1.07-0.582c-0.382-0.592-0.213-1.38,0.378-1.76     c2.421-1.564,6.132-4.311,6.803-5.519c0.341-0.617,1.117-0.835,1.73-0.497c0.614,0.343,0.837,1.116,0.495,1.73     c-1.221,2.203-6.583,5.738-7.646,6.424C469.75,407.715,469.51,407.779,469.274,407.779z"/>
			<path style="fill:#241726;" d="M454.004,405.771c-0.418,0-0.827-0.206-1.07-0.582c-0.382-0.592-0.213-1.38,0.378-1.76     c2.421-1.564,6.132-4.311,6.803-5.519c0.341-0.617,1.117-0.835,1.73-0.497c0.614,0.343,0.837,1.116,0.495,1.73     c-1.221,2.203-6.583,5.738-7.646,6.424C454.48,405.706,454.24,405.771,454.004,405.771z"/>
			<path style="fill:#241726;" d="M445.74,418.23c-0.528,0-1.022-0.331-1.203-0.86c-0.229-0.664,0.124-1.387,0.789-1.616     c2.726-0.937,6.988-2.712,7.929-3.726c0.481-0.512,1.288-0.542,1.799-0.065c0.515,0.48,0.544,1.285,0.066,1.8     c-1.714,1.842-7.77,3.987-8.966,4.398C446.018,418.208,445.877,418.23,445.74,418.23z"/>
			<path style="fill:#241726;" d="M434.503,413.04c-0.528,0-1.022-0.331-1.203-0.858c-0.229-0.666,0.124-1.39,0.789-1.618     c2.726-0.94,6.988-2.715,7.929-3.729c0.48-0.512,1.285-0.542,1.799-0.065c0.515,0.48,0.544,1.285,0.066,1.8     c-1.714,1.842-7.769,3.99-8.966,4.4C434.78,413.017,434.639,413.04,434.503,413.04z"/>
			<path style="fill:#241726;" d="M453.029,394.392c-0.418,0-0.827-0.206-1.07-0.582c-0.382-0.592-0.213-1.38,0.378-1.76     c2.421-1.564,6.132-4.311,6.803-5.519c0.341-0.617,1.119-0.833,1.73-0.497c0.614,0.343,0.837,1.116,0.495,1.73     c-1.221,2.203-6.583,5.738-7.646,6.424C453.505,394.328,453.265,394.392,453.029,394.392z"/>
			<path style="fill:#241726;" d="M472.927,378.094c-0.418,0-0.827-0.206-1.07-0.582c-0.382-0.592-0.213-1.38,0.378-1.76     c2.421-1.564,6.132-4.311,6.802-5.519c0.341-0.617,1.115-0.833,1.732-0.497c0.614,0.341,0.837,1.116,0.496,1.73     c-1.221,2.203-6.584,5.738-7.647,6.424C473.403,378.03,473.163,378.094,472.927,378.094z"/>
			<path style="fill:#241726;" d="M486.361,392.289c-0.418,0-0.827-0.206-1.07-0.582c-0.382-0.592-0.213-1.38,0.378-1.76     c2.421-1.564,6.132-4.311,6.802-5.519c0.342-0.614,1.115-0.835,1.732-0.497c0.614,0.341,0.837,1.116,0.496,1.73     c-1.221,2.203-6.584,5.738-7.647,6.424C486.837,392.225,486.597,392.289,486.361,392.289z"/>
			<path style="fill:#241726;" d="M491.494,374.776c-0.418,0-0.827-0.206-1.07-0.582c-0.382-0.592-0.213-1.38,0.378-1.76     c2.421-1.564,6.133-4.311,6.804-5.519c0.341-0.617,1.117-0.833,1.73-0.497c0.614,0.343,0.837,1.116,0.495,1.73     c-1.221,2.203-6.584,5.738-7.647,6.424C491.97,374.711,491.73,374.776,491.494,374.776z"/>
		</g>
	</g>
</g>















</svg>
