<?xml version="1.0" encoding="UTF-8"?>
<!-- Generator: Adobe Illustrator 25.2.0, SVG Export Plug-In . SVG Version: 6.00 Build 0)  -->
<svg xmlns="http://www.w3.org/2000/svg" xmlns:xlink="http://www.w3.org/1999/xlink" version="1.1" id="Capa_1" x="0px" y="0px" viewBox="0 0 512 512" style="enable-background:new 0 0 512 512;" xml:space="preserve" width="512" height="512">
<g>
	<g>
		<g>
			<g>
				<path style="fill:#FFFFFF;" d="M238.422,320.155c-15.642,2.133-19.03-20.754-18.032-12.773      c3.005,24.043-25.772,25.605-32.307,6.011c-5.41-16.22,15.157,2.698-9.016,10.519s-31.072-16.61-22.54-18.032      s4.049,17.361-17.281,18.783s-17.991-28.784-14.436-23.807c3.555,4.977-1.464,26.172-23.882,25.31      c-19.893-0.765-20.942-24.089-16.808-23.777c7.549,0.57,0.813,21.216-20.007,18.517c-23.281-3.018-13.409-26.338-11.276-22.783      c2.133,3.555,0.711,10.665-14.931,14.22c-15.642,3.555-16.904-18.331-10.609-16.982c10.519,2.254-11.22,11.876-17.281,6.011      c-23.291-22.54,5.744-41.081,14.275-36.815s-10.519,7.513-7.694-20.178c1.602-15.705,21.987-30.179,24.143-24.143      c3.72,10.416-12.438-4.895-9.233-18.095c4.922-20.275,24.884-19.197,23.462-11.376s-16.403-8.104-1.422-27.728      c12.618-16.529,19.482,0.699,15.216-1.434c-4.266-2.133-0.996-28.427,11.09-31.982c12.087-3.555,13.509,6.399,6.399,4.266      c-7.11-2.133-2.133-24.173,19.197-40.526s24.173-40.526,49.769-30.572c0,0,36.295,27.318,63.669,49.999      c26.297,21.789,20.004,36.977,15.027,39.821c-4.977,2.844-8.005-8.733,7.333-5.924c26.277,4.813,24.173,36.971,14.931,36.971      c-9.243,0,1.759-7.203,13.509,0.711c15.318,10.317,5.688,36.971-1.422,34.127c-7.11-2.844,10.497-13.473,22.751-0.519      c11.148,11.785,1.423,40.334-3.554,36.068c-4.977-4.266,15.817-10.588,20.083,1.498c4.266,12.087-7.312,23.759-11.577,23.759      s12.41-5.041,13.831,7.046c1.422,12.087-3.591,24.947-18.032,22.54c-10.347-1.724-19.212-11.141-11.27-13.524      c4.311-1.293,5.204,13.806-9.016,18.783c-14.22,4.977-23.955-12.043-18.032-15.778      C258.075,295.449,254.064,318.022,238.422,320.155z"/>
				<path style="fill:#241726;" d="M205.799,328.032c-6.45,0-12.525-3.384-16.226-8.935c-2.173,2.45-5.579,4.437-10.15,5.915      c-3.273,1.06-6.418,1.596-9.348,1.598c-7.859,0-12.386-3.714-14.679-6.51c-3.116,2.477-8.249,5.197-16.072,5.719      c-7.539,0.484-13.065-2.708-16.059-8.996c-3.162,4.812-9.793,10.94-22.381,10.499c-10.355-0.398-15.296-6.46-17.547-10.974      c-2.721,2.658-7.685,5.958-15.554,5.961c-1.239,0-2.524-0.086-3.819-0.253c-11.443-1.483-14.888-7.638-15.843-12.152      c-2.616,1.46-5.956,2.658-9.958,3.567c-1.225,0.278-2.419,0.42-3.548,0.42c-6.855,0-10.759-5.235-11.76-10.56      c-2.342,0.692-4.724,1.065-6.83,1.065c-3.018,0-5.31-0.737-6.814-2.193c-10.191-9.862-10.109-18.451-8.246-23.921      c2.658-7.801,10.555-13.578,17.111-15.101c-1.945-3.386-3.622-9.197-2.631-18.919c1.137-11.146,11.206-21.785,18.669-25.363      c-1.98-3.131-5.454-9.939-3.733-17.03c2.714-11.177,9.923-16.18,15.8-17.249c-0.912-4.616-0.851-12.726,6.445-22.285      c4.576-5.992,9.193-8.531,13.201-7.461c0.138-8.888,4.384-23.623,13.699-26.363c0.869-0.255,1.717-0.454,2.532-0.59      c0.019-8.98,7.729-24.01,22.686-35.476c6.938-5.321,11.955-11.562,16.382-17.07c6.931-8.623,12.918-16.071,23.27-16.071      c3.397,0,7.074,0.787,11.24,2.407c0.099,0.038,0.192,0.09,0.277,0.154c0.363,0.274,36.63,27.594,63.711,50.033      c18.681,15.477,20.63,27.122,19.732,33.336c0.674,0.077,1.377,0.181,2.099,0.312c11.748,2.154,17.217,9.274,19.736,14.869      c3.236,7.188,2.95,14.842,0.963,19.484c2.809,0.579,5.607,1.777,8.178,3.508c9.795,6.598,9.751,19.229,7.181,27.133      c3.872,0.093,9.351,1.365,14.342,6.641c7.431,7.855,6.03,21.937,3.155,30.23c0.388-0.023,0.774-0.034,1.16-0.034      c6.176,0,10.72,2.835,12.465,7.78c3.178,9.005-1.93,17.699-6.67,22.1c3.436,0.486,8.207,2.367,8.983,8.953      c0.917,7.794-0.835,15.034-4.688,19.365c-3.509,3.947-8.524,5.481-14.683,4.453c-3.138-0.522-6.295-1.736-9.024-3.454      c-2.146,3.935-5.893,6.987-10.689,8.664c-1.838,0.644-3.692,0.97-5.514,0.97c-5.65,0-10.054-3.065-12.698-6.401      c-2.136,4.035-6.755,10.364-15.073,11.496c-0.755,0.104-1.485,0.151-2.189,0.151c-5.923,0.002-10.831-3.379-14.628-10.063      c-0.136,5.712-2.204,9.36-4.114,11.526c-2.914,3.3-7.12,5.117-11.845,5.117H205.799z M191.028,317.069      c3.216,5.353,8.818,8.648,14.77,8.648c0,0,0.001,0,0.002,0c4.053,0,7.643-1.539,10.111-4.335      c2.901-3.287,4.053-8.079,3.331-13.854c-0.222-1.77-0.268-2.138,0.141-2.602c0.219-0.249,0.548-0.398,0.88-0.398      c0.828,0,1.076,0.588,1.526,1.652c1.439,3.415,5.978,14.252,16.477,12.828c8.118-1.108,12.296-7.975,13.9-11.413      c-2.402-4.286-2.156-8.429,0.666-10.208c1.158-0.735,2.36-0.506,3.009,0.488c1.212,1.849,0.324,6.121-1.07,9.541      c2.154,3.216,6.221,6.474,11.579,6.474c1.561,0,3.159-0.283,4.75-0.839c5.416-1.896,8.161-5.154,9.547-7.821      c-3.082-2.423-4.682-5.131-4.312-7.364c0.197-1.184,1.021-2.773,3.83-3.614c1.266-0.389,2.521,0.124,3.308,1.331      c1.286,1.971,1.283,5.511,0.05,8.858c2.511,1.627,5.538,2.816,8.435,3.3c5.341,0.884,9.61-0.375,12.574-3.709      c3.42-3.845,4.959-10.407,4.118-17.554c-0.723-6.148-5.895-7.066-8.913-7.066c-0.217,0-0.428,0.005-0.635,0.014      c-1.178,0.683-2.231,1.028-3.134,1.028c-1.578,0-1.838-0.802-1.854-1.279c-0.012-0.427-0.052-1.702,4.272-2.025      c4.548-2.943,11.353-11.917,8.066-21.227c-1.986-5.626-7.851-6.234-10.281-6.234c-0.701,0-1.406,0.043-2.106,0.131      c-1.234,2.78-3.127,5.807-5.522,5.809h-0.001c-0.659,0-1.293-0.246-1.835-0.71c-1.338-1.148-1.243-2.369-1.067-2.995      c0.625-2.224,3.909-3.608,6.784-4.182c3.129-8.011,4.448-21.894-2.25-28.973c-4.815-5.093-10.015-6.042-13.54-5.918      c-2.306,5.26-5.807,7.92-8.8,6.713c-2.428-0.97-2.439-2.656-2.33-3.336c0.419-2.642,4.617-5.07,9.527-5.592      c2.605-7.1,3.077-19.204-5.992-25.312c-2.543-1.713-5.318-2.844-8.068-3.296c-1.292,1.802-2.971,2.783-4.793,2.783      c-1.27,0-2.283-0.129-3.011-0.384c-1.438-0.502-1.594-1.46-1.594-1.849c0-2.023,3.404-3.083,6.766-3.083      c0.457,0,0.931,0.018,1.424,0.059c1.972-3.944,2.391-11.361-0.683-18.191c-2.292-5.09-7.282-11.571-18.043-13.542      c-0.759-0.14-1.491-0.246-2.186-0.316c-0.841,2.76-2.431,5.002-4.365,6.107c-1.968,1.123-4.21,0.561-5.236-1.214      c-0.724-1.257-0.706-2.85,0.05-4.159c0.688-1.196,2.558-3.311,7.733-3.155c0.738-4.867-0.351-16.049-18.885-31.408      c-26.228-21.731-61.101-48.06-63.498-49.868c-3.832-1.476-7.187-2.193-10.253-2.193c-9.244,0-14.638,6.711-21.467,15.208      c-4.508,5.608-9.618,11.966-16.778,17.455c-15.837,12.143-21.599,26.365-21.773,33.413c4.787-0.133,7.329,2.33,7.33,4.622      c0,1.46-1.129,3.033-3.608,3.033c-0.67,0-1.405-0.118-2.182-0.353c-1.931-0.579-3.209-2.251-3.669-4.76      c-0.666,0.12-1.358,0.287-2.072,0.495c-8.472,2.493-12.247,17.407-12.033,25.241c2.188,1.562,3.362,4.168,2.958,5.655      c-0.322,1.18-1.523,1.677-2.859,1.01c-1.303-0.651-2.089-2.43-2.338-5.292c-0.601-0.262-1.243-0.396-1.915-0.396      c-1.981,0-5.242,1.178-9.525,6.79c-6.888,9.023-6.841,16.523-5.968,20.655c0.046-0.002,0.093-0.002,0.139-0.002      c2.772,0,5.116,0.904,6.431,2.48c0.958,1.148,1.318,2.566,1.04,4.1c-0.504,2.767-2.379,2.981-2.943,2.981      c-2.438,0-5.039-2.927-6.399-7.088c-5.178,0.861-11.656,5.334-14.135,15.549c-1.319,5.434,0.954,11.492,3.678,15.617      c2.813-0.836,4.826-0.131,5.521,1.815c0.753,2.107,0.826,3.418,0.238,4.252c-0.33,0.468-0.859,0.737-1.452,0.737      c-1.798,0.002-4.009-2.523-5.157-4.01c-6.813,3.072-16.653,13.307-17.71,23.671c-1.022,10.009,0.882,15.443,2.819,18.311      c1.651-0.108,3.097,0.142,4.242,0.714c2.69,1.345,3.012,2.656,2.808,3.519c-0.171,0.723-0.868,1.496-2.315,1.496      c-1.502,0-3.761-0.875-5.788-3.284c-6.054,0.977-13.831,6.358-16.358,13.775c-2.363,6.935,0.287,14.374,7.664,21.512      c1.043,1.008,2.842,1.542,5.204,1.542c2.009,0,4.316-0.384,6.577-1.092c-0.062-2.41,0.516-4.491,1.606-5.685      c0.877-0.961,2.064-1.345,3.332-1.076c2.393,0.513,3.652,1.494,3.741,2.911c0.162,2.579-3.977,4.559-6.206,5.434      c0.611,3.698,3.153,9.003,9.539,9.003c0.957,0,1.978-0.122,3.036-0.362c4.23-0.963,7.64-2.242,10.151-3.809      c-0.197-4.123,1.173-8.192,2.709-9.876c1.139-1.252,2.616-1.175,3.319-0.002c1.633,2.721,1.616,7.186-3.598,11.024      c0.631,4.512,3.655,9.862,14.031,11.207c1.196,0.156,2.38,0.235,3.521,0.235c7.75-0.002,12.326-3.517,14.562-5.947      c-1.657-4.525-1.812-9.435-0.32-11.645c0.511-0.757,1.226-1.173,2.014-1.173c1.857,0.133,3.142,1.051,3.786,2.59      c1.153,2.755-0.002,7.059-2.812,10.66c1.789,4.035,6.115,10.151,15.958,10.529c12.854,0.542,18.796-6.478,21.227-10.899      c-1.74-5.499-1.378-11.853,0.162-14.007c0.565-0.791,1.21-0.956,1.651-0.956c0.455,0,1.127,0.179,1.74,1.038      c2.023,2.835,1.563,8.831-1.042,14.116c1.692,4.568,5.649,9.812,14.46,9.211c7.329-0.488,12.058-3.024,14.884-5.298      c-2.122-3.488-2.775-7.527-1.606-10.314c0.73-1.74,2.11-2.862,3.889-3.158c2.512-0.425,4.313,0.572,5.064,2.545      c1.178,3.088-0.57,7.615-4.271,11.281c1.976,2.437,5.942,5.73,12.944,5.73c2.686-0.002,5.592-0.502,8.636-1.485      c4.559-1.476,7.79-3.438,9.618-5.841c-0.521-1.019-0.972-2.095-1.343-3.21c-1.18-3.537-1.328-5.85-0.45-7.066      c0.388-0.538,0.956-0.834,1.601-0.834c1.13,0,2.307,0.927,3.144,2.477C192.413,310.428,192.891,313.76,191.028,317.069z       M157.408,306.961c-0.217,0-0.446,0.02-0.691,0.061c-0.993,0.165-1.711,0.762-2.134,1.77c-0.839,2-0.331,5.077,1.219,7.825      c3.119-3.23,4.127-6.697,3.437-8.508C158.945,307.336,158.346,306.961,157.408,306.961z M188.338,308.301      c-0.093,0.495-0.131,1.806,0.842,4.726c0.153,0.457,0.32,0.909,0.502,1.349c0.609-2.032,0.113-3.691-0.194-4.43      C189.109,309.036,188.632,308.52,188.338,308.301z M84.034,303.543c-0.555,0.319-1.304,3.723,0.018,8.293      c1.82-2.855,2.25-5.662,1.639-7.122C85.387,303.986,84.844,303.604,84.034,303.543z M124.035,301.793      c-0.565,1.264-1.045,4.808-0.314,8.852C125.029,306.735,124.855,303.306,124.035,301.793z M52.065,299.135      c-0.598,0.773-1.753,3.284-1.944,6.496C52.62,303.236,52.82,300.797,52.065,299.135z M254.008,299.393      c-1.383,1.038-1.399,3.099-0.67,5.192C254.154,301.968,254.192,300.103,254.008,299.393z M281.006,296.439      c-1.516,0.432-2.259,1.031-2.389,1.808c-0.203,1.225,0.953,3.042,2.955,4.751c0.842-2.681,0.661-5.077-0.04-6.15      C281.357,296.577,281.179,296.439,281.006,296.439z M26.752,296.457c-0.199,0-0.502,0.043-0.834,0.407      c-0.572,0.628-0.927,1.835-0.992,3.275c2.859-1.223,4.046-2.475,4.046-2.855c-0.046-0.097-0.504-0.488-1.917-0.791      C26.949,296.47,26.847,296.457,26.752,296.457z M22.915,265.28c0.689,0.486,1.32,0.748,1.808,0.863      c-0.234-0.163-0.545-0.35-0.948-0.552C23.516,265.463,23.229,265.359,22.915,265.28z M291.179,250.445      c-2.028,0.651-3.155,1.553-3.31,2.107c-0.02,0.07-0.071,0.253,0.345,0.61c0.175,0.151,0.285,0.154,0.328,0.154h0.002      C289.032,253.316,290.039,252.513,291.179,250.445z M37.801,220.054c0.975,1.178,1.785,1.874,2.304,2.213      c-0.054-0.346-0.179-0.872-0.453-1.643c-0.079-0.222-0.226-0.633-1.173-0.633C38.273,219.991,38.045,220.014,37.801,220.054z       M273.934,213.133c-3.748,0.705-5.994,2.527-6.144,3.461c-0.06,0.377,0.541,0.678,0.904,0.825      C270.283,218.052,272.299,216.257,273.934,213.133z M49.168,186.721c1.217,3.275,3.129,4.919,3.999,4.919      c0.408,0,0.592-0.678,0.665-1.083c0.155-0.848-0.026-1.589-0.538-2.202C52.507,187.415,50.989,186.818,49.168,186.721z       M254.621,182.401c0.368,0.057,0.873,0.097,1.557,0.097c0.717,0,1.335-0.278,1.855-0.683      C256.458,181.847,255.32,182.128,254.621,182.401z M236.45,147.402c-2.581,0.066-4.445,0.784-5.143,1.996      c-0.349,0.604-0.367,1.293-0.05,1.842c0.212,0.371,1.027,0.967,2.083,0.362C234.377,151.009,235.651,149.624,236.45,147.402z       M84.563,130.004c0.252,1.221,0.815,2.412,2.023,2.776c0.562,0.167,1.073,0.253,1.518,0.253c0.303,0,1.293-0.052,1.293-0.719      C89.397,131.496,88.024,130.06,84.563,130.004z"/>
			</g>
			<path style="fill:#241726;" d="M79.891,127.063c0,0-1.14,72.221,3.837,74.354c4.977,2.133,142.794,0.537,144.927-3.729     c1.866-3.733,6.754-56.125,2.564-74.555c-0.599-2.633-53.249-67.455-77.422-69.588C129.623,51.412,79.891,118.798,79.891,127.063     z"/>
			<g>
				<path style="fill:#FFFFFF;" d="M235.915,217.071c0,0,11.376,10.309-1.066,18.486c-12.442,8.176-17.419-8.532-14.22-6.043      s2.488,11.02-9.243,13.153c-11.731,2.133-18.486-21.685-12.087-19.907s0.711,15.286-14.22,15.642      c-14.931,0.355-20.263-15.997-11.02-20.974"/>
				<path style="fill:#241726;" d="M209.941,243.955c-3.973,0-7.812-2.593-10.732-7.324c-0.339-0.549-0.662-1.128-0.966-1.725      c-3.006,2.541-7.403,4.514-13.135,4.65c-9.191,0.246-14.84-5.441-16.353-11.153c-1.329-5.016,0.538-9.726,4.756-11.998      c0.564-0.301,1.267-0.093,1.569,0.47c0.303,0.563,0.092,1.266-0.47,1.569c-3.935,2.118-4.448,6.227-3.617,9.367      c1.279,4.83,6.044,9.679,14.061,9.43c5.498-0.131,9.586-2.086,12.208-4.491c-1.601-3.974-2.214-8.225-0.753-10.169      c0.712-0.947,1.843-1.284,3.101-0.936c2.432,0.674,3.731,2.803,3.388,5.556c-0.226,1.824-1.24,3.999-3.019,6.01      c0.35,0.737,0.749,1.476,1.198,2.204c1.644,2.665,5.137,7.005,10.002,6.112c6.87-1.25,8.968-4.541,9.605-6.363      c-1.587-1.998-3.041-5.307-1.769-6.618c0.162-0.167,1.035-0.949,2.324,0.054c1.624,1.264,2.371,3.544,1.985,5.933      c0.374,0.371,0.792,0.717,1.255,1.019c2.718,1.777,5.961,1.453,9.635-0.965c3.289-2.161,5.064-4.645,5.277-7.38      c0.382-4.928-4.305-9.238-4.352-9.281c-0.474-0.429-0.51-1.16-0.08-1.634c0.427-0.472,1.162-0.511,1.635-0.079      c0.227,0.206,5.574,5.126,5.105,11.173c-0.271,3.488-2.395,6.562-6.314,9.136c-6.169,4.053-10.497,2.355-12.937,0.407      c-1.165,2.358-4.012,5.612-10.954,6.876C211.041,243.906,210.489,243.955,209.941,243.955z M198.664,223.82      c-0.192,0-0.254,0.084-0.304,0.151c-0.643,0.854-0.485,3.635,0.637,6.853c0.986-1.345,1.556-2.717,1.704-3.91      c0.14-1.13-0.042-2.577-1.711-3.04C198.851,223.836,198.746,223.82,198.664,223.82z"/>
			</g>
			<g>
				<path style="fill:#FFFFFF;" d="M261.511,257.597c0,0,7.821,7.11-4.621,15.286c-12.442,8.176-19.907-6.043-15.286-6.754      c4.621-0.711,7.11,15.642-10.309,14.575s-14.22-15.997-11.02-14.22c3.199,1.777-0.179,15.286-13.153,15.286      c-17.419,0-9.243-15.997-9.243-15.997"/>
				<path style="fill:#241726;" d="M207.121,282.929c-5.475,0-9.189-1.533-11.04-4.557c-3.202-5.23,0.602-12.805,0.765-13.126      c0.292-0.567,0.991-0.791,1.556-0.504c0.568,0.289,0.795,0.988,0.505,1.557c-0.034,0.066-3.378,6.747-0.849,10.87      c1.401,2.285,4.451,3.445,9.062,3.445c5.424,0,8.884-2.538,10.872-5.26c-0.425-0.726-0.714-1.419-0.911-2.025      c-1.061-3.271-0.24-6.426,1.169-7.586c0.775-0.637,1.739-0.737,2.585-0.271c1.633,0.909,2.156,3.366,1.366,6.415      c-0.301,1.162-0.771,2.326-1.406,3.44c1.651,1.971,4.751,3.865,10.569,4.222c7.165,0.443,10.211-2.168,11.488-4.433      c0.103-0.181,0.197-0.368,0.283-0.556c-2.757-1.969-4.498-5.23-3.978-7.47c0.269-1.157,1.096-1.924,2.269-2.104      c1.284-0.203,2.534,0.427,3.422,1.711c1.096,1.585,1.646,4.173,1.068,6.806c2.187,0.992,5.705,1.458,10.337-1.587      c4.084-2.683,6.272-5.463,6.505-8.259c0.253-3.054-2.008-5.185-2.031-5.208c-0.468-0.432-0.5-1.164-0.069-1.632      c0.429-0.472,1.156-0.504,1.63-0.077c0.127,0.115,3.108,2.877,2.779,7.07c-0.278,3.556-2.816,6.935-7.544,10.041      c-5.443,3.576-9.762,2.934-12.361,1.84c-0.09,0.188-0.189,0.377-0.294,0.563c-1.311,2.326-4.812,6.173-13.647,5.606      c-6.166-0.377-9.723-2.387-11.772-4.561C216.852,280.517,212.688,282.929,207.121,282.929z M219.712,267.497      c-0.313,0.142-1.062,1.713-0.711,3.942c0.066,0.409,0.182,0.92,0.393,1.485c0.251-0.572,0.439-1.119,0.567-1.616      C220.504,269.213,220.165,267.748,219.712,267.497z M241.887,267.264c-0.036,0-0.072,0.005-0.108,0.009      c-0.231,0.036-0.313,0.111-0.366,0.339c-0.211,0.911,0.533,2.909,2.372,4.516c0.164-1.627-0.183-3.167-0.839-4.114      C242.746,267.725,242.354,267.264,241.887,267.264z"/>
			</g>
			<g>
				<path style="fill:#FFFFFF;" d="M137.226,222.015c0,0,6.426,8.392-7.276,14.215s-18.509-9.5-13.835-9.375      c4.674,0.126,4.203,16.66-12.746,12.5c-16.949-4.159-11.135-18.279-8.304-15.959c2.831,2.32-2.905,15.009-15.671,12.692      c-17.139-3.11-6.238-17.39-6.238-17.39"/>
				<path style="fill:#241726;" d="M108.415,241.177c-1.548,0-3.313-0.206-5.322-0.698c-6.001-1.471-9.14-4.084-10.768-6.589      c-3.133,2.703-7.658,4.326-13.137,3.339c-5.388-0.979-8.768-3.149-10.048-6.453c-2.215-5.719,2.879-12.491,3.097-12.778      c0.39-0.509,1.117-0.604,1.621-0.217c0.509,0.387,0.607,1.112,0.22,1.621c-0.046,0.061-4.529,6.035-2.777,10.542      c0.971,2.5,3.763,4.184,8.301,5.007c5.333,0.972,9.195-0.909,11.635-3.232c-0.288-0.791-0.448-1.526-0.533-2.156      c-0.461-3.409,0.911-6.365,2.504-7.253c0.875-0.49,1.846-0.418,2.591,0.194c1.444,1.184,1.521,3.696,0.199,6.557      c-0.504,1.087-1.174,2.15-1.997,3.131c1.273,2.233,3.985,4.652,9.644,6.042c6.992,1.713,10.437-0.31,12.096-2.31      c0.133-0.16,0.259-0.328,0.376-0.495c-2.36-2.43-3.491-5.949-2.579-8.063c0.471-1.089,1.394-1.659,2.608-1.666      c1.3,0.034,2.416,0.87,3.062,2.294c0.796,1.756,0.874,4.401-0.165,6.89c1.977,1.363,5.354,2.45,10.453,0.283      c4.499-1.912,7.148-4.256,7.876-6.966c0.795-2.959-1.05-5.461-1.069-5.486c-0.382-0.509-0.284-1.234,0.225-1.618      c0.505-0.384,1.229-0.292,1.616,0.217c0.104,0.136,2.545,3.386,1.473,7.452c-0.909,3.449-4.009,6.32-9.215,8.531      c-5.988,2.55-10.128,1.148-12.49-0.396c-0.123,0.17-0.253,0.337-0.39,0.502C116.216,238.974,113.48,241.177,108.415,241.177z       M116.053,228.013c-0.211,0-0.301,0.063-0.39,0.269c-0.371,0.859,0.006,2.957,1.528,4.867c0.453-1.573,0.385-3.149-0.09-4.2      c-0.156-0.344-0.495-0.922-1.016-0.936C116.074,228.013,116.063,228.013,116.053,228.013z M94.332,224.293      c-0.333,0.086-1.352,1.499-1.403,3.752c-0.01,0.414,0.015,0.938,0.12,1.533c0.349-0.518,0.632-1.024,0.848-1.49      C94.805,226.123,94.734,224.62,94.332,224.293z"/>
			</g>
			<g>
				<path style="fill:#FFFFFF;" d="M152.935,267.788c0,0,1.702,10.211-11.345,14.749c-13.047,4.538-15.316-16.451-11.913-14.749      c3.404,1.702,0,18.153-13.615,17.018c-13.615-1.135-10.778-18.72-7.375-18.72s5.673,12.48-12.48,14.749      c-18.153,2.269-11.345-17.018-11.345-17.018"/>
				<path style="fill:#241726;" d="M117.389,286.021c-0.463,0-0.937-0.02-1.423-0.061c-5.38-0.448-8.499-3.323-10.036-6.826      c-2.378,1.318-5.522,2.344-9.579,2.85c-5.435,0.676-9.356-0.427-11.66-3.289c-4.334-5.384-1.061-14.862-0.92-15.262      c0.212-0.606,0.869-0.922,1.476-0.707c0.602,0.212,0.919,0.872,0.707,1.476c-0.031,0.086-2.986,8.671,0.542,13.045      c1.768,2.195,4.994,3.011,9.567,2.441c3.987-0.5,6.964-1.51,9.113-2.783c-0.373-1.501-0.505-3.047-0.444-4.514      c0.154-3.707,1.562-7.461,3.956-7.461c1.851,0,3.314,1.919,3.478,4.561c0.17,2.721-1.022,5.87-4.283,8.37      c1.039,2.654,3.32,5.38,8.276,5.793c6.293,0.511,10.25-2.981,12.203-7.077c-1.5-3.827-1.651-8.006-0.422-9.405      c0.581-0.665,1.444-0.823,2.256-0.418c2.155,1.078,2.215,4.787,1.318,7.988c-0.172,0.61-0.384,1.232-0.637,1.849      c0.346,0.746,0.763,1.476,1.261,2.161c2.257,3.097,5.307,4.005,9.073,2.692c11.913-4.143,10.643-13.09,10.583-13.469      c-0.099-0.628,0.329-1.223,0.957-1.325c0.643-0.12,1.223,0.321,1.327,0.949c0.019,0.111,1.703,11.227-12.108,16.033      c-4.886,1.693-9.145,0.301-11.995-3.933c-0.13-0.194-0.257-0.393-0.379-0.594C127.267,282.874,123.249,286.021,117.389,286.021z       M108.688,267.244c-0.648,0.215-2.024,3.431-1.565,7.477c0.025,0.219,0.057,0.45,0.096,0.687c2-1.829,2.752-3.931,2.637-5.773      C109.758,268.064,109.044,267.244,108.688,267.244z M129.488,269.285c-0.114,0.698-0.096,1.876,0.14,3.253      C129.857,271.023,129.726,269.886,129.488,269.285z"/>
			</g>
		</g>
		<g>
			<path style="fill:#FFFFFF;" d="M200.349,115.859c-0.472,0-0.915-0.292-1.087-0.762c-1.31-3.589-4.617-6.241-4.65-6.268     c-0.501-0.398-0.585-1.126-0.188-1.625c0.398-0.502,1.125-0.588,1.625-0.188c0.157,0.124,3.854,3.09,5.386,7.287     c0.219,0.601-0.09,1.266-0.691,1.485C200.614,115.836,200.481,115.859,200.349,115.859z"/>
			<path style="fill:#FFFFFF;" d="M198.932,101.187c-0.472,0-0.915-0.292-1.087-0.759c-1.31-3.592-4.617-6.243-4.65-6.27     c-0.501-0.398-0.585-1.126-0.188-1.625c0.397-0.502,1.126-0.585,1.625-0.188c0.157,0.124,3.854,3.09,5.386,7.287     c0.219,0.601-0.09,1.266-0.691,1.485C199.197,101.164,199.064,101.187,198.932,101.187z"/>
			<path style="fill:#FFFFFF;" d="M186.896,102.082c-0.472,0-0.917-0.292-1.087-0.762c-1.303-3.574-4.617-6.243-4.65-6.27     c-0.5-0.398-0.583-1.126-0.185-1.625c0.399-0.502,1.125-0.585,1.624-0.188c0.157,0.124,3.855,3.09,5.385,7.292     c0.219,0.599-0.09,1.264-0.691,1.483C187.162,102.059,187.027,102.082,186.896,102.082z"/>
			<path style="fill:#FFFFFF;" d="M177.761,87.446c-0.472,0-0.917-0.292-1.087-0.762c-1.31-3.592-4.616-6.241-4.648-6.268     c-0.501-0.396-0.585-1.123-0.189-1.625c0.396-0.502,1.125-0.585,1.626-0.188c0.157,0.124,3.855,3.088,5.385,7.29     c0.219,0.599-0.09,1.264-0.691,1.483C178.027,87.423,177.892,87.446,177.761,87.446z"/>
			<path style="fill:#FFFFFF;" d="M180.221,109.887c-0.472,0-0.917-0.292-1.087-0.762c-1.303-3.574-4.617-6.243-4.65-6.27     c-0.5-0.398-0.583-1.126-0.185-1.625c0.398-0.504,1.126-0.585,1.624-0.188c0.157,0.124,3.855,3.09,5.385,7.292     c0.219,0.599-0.09,1.264-0.691,1.483C180.487,109.864,180.353,109.887,180.221,109.887z"/>
			<path style="fill:#FFFFFF;" d="M193.961,123.856c-0.472,0-0.915-0.292-1.087-0.762c-1.303-3.574-4.617-6.241-4.651-6.268     c-0.5-0.398-0.583-1.126-0.185-1.625c0.399-0.502,1.125-0.585,1.624-0.188c0.157,0.124,3.854,3.088,5.386,7.29     c0.219,0.599-0.09,1.264-0.691,1.483C194.227,123.833,194.093,123.856,193.961,123.856z"/>
			<path style="fill:#FFFFFF;" d="M213.964,115.4c-0.472,0-0.917-0.292-1.087-0.762c-1.31-3.592-4.616-6.241-4.648-6.268     c-0.501-0.396-0.585-1.123-0.189-1.625c0.4-0.5,1.127-0.588,1.626-0.188c0.157,0.124,3.855,3.088,5.385,7.29     c0.219,0.599-0.09,1.264-0.691,1.483C214.23,115.377,214.095,115.4,213.964,115.4z"/>
			<path style="fill:#FFFFFF;" d="M213.945,129.111c-0.472,0-0.915-0.292-1.087-0.762c-1.303-3.574-4.618-6.243-4.651-6.27     c-0.5-0.398-0.583-1.126-0.185-1.625c0.397-0.502,1.125-0.585,1.624-0.188c0.157,0.124,3.854,3.09,5.386,7.292     c0.219,0.599-0.09,1.264-0.691,1.483C214.211,129.088,214.077,129.111,213.945,129.111z"/>
		</g>
	</g>
	<g>
		<g>
			<g>
				<path style="fill:#FFFFFF;" d="M439.235,327.414c-15.642,2.133-19.03-20.754-18.032-12.773      c3.005,24.043-25.772,25.605-32.307,6.011c-5.41-16.22,15.157,2.698-9.016,10.519s-31.072-16.61-22.54-18.032      c8.532-1.422,4.049,17.361-17.281,18.783s-17.991-28.784-14.436-23.807c3.555,4.977-1.464,26.172-23.882,25.31      c-19.893-0.765-20.942-24.089-16.808-23.777c7.549,0.57,0.813,21.216-20.007,18.517c-23.281-3.018-13.409-26.338-11.276-22.783      c2.133,3.555,0.711,10.665-14.931,14.22c-15.642,3.555-16.904-18.331-10.609-16.982c10.519,2.254-11.22,11.876-17.281,6.011      c-23.291-22.54,5.744-41.081,14.275-36.815c8.532,4.266-10.519,7.513-7.694-20.178c1.602-15.705,21.987-30.179,24.143-24.143      c3.72,10.416-12.438-4.895-9.233-18.095c4.922-20.275,24.884-19.197,23.462-11.376c-1.422,7.821-16.403-8.104-1.422-27.728      c12.618-16.529,19.482,0.699,15.216-1.434c-4.266-2.133-0.996-28.427,11.09-31.982c12.087-3.555,13.509,6.399,6.399,4.266      c-7.11-2.133-2.133-24.173,19.197-40.526c21.329-16.353,24.173-40.526,49.769-30.572c0,0,36.295,27.318,63.669,49.999      c26.297,21.789,20.004,36.977,15.027,39.821c-4.977,2.844-8.005-8.733,7.333-5.924c26.277,4.813,24.173,36.971,14.931,36.971      c-9.243,0,1.759-7.203,13.509,0.711c15.318,10.317,5.688,36.971-1.422,34.127c-7.11-2.844,10.497-13.473,22.751-0.519      c11.148,11.785,1.423,40.334-3.554,36.068s15.817-10.588,20.083,1.498c4.266,12.087-7.312,23.759-11.577,23.759      c-4.266,0,12.41-5.041,13.831,7.046c1.422,12.087-3.591,24.947-18.032,22.54c-10.347-1.724-19.212-11.141-11.27-13.524      c4.311-1.293,5.204,13.806-9.016,18.783s-23.955-12.043-18.032-15.778C458.888,302.708,454.877,325.281,439.235,327.414z"/>
				<path style="fill:#241726;" d="M406.615,335.292c-6.449,0-12.526-3.384-16.228-8.937c-2.173,2.453-5.577,4.439-10.15,5.918      c-3.274,1.06-6.418,1.596-9.348,1.596c-7.86,0.002-12.387-3.712-14.68-6.51c-3.117,2.477-8.25,5.197-16.072,5.719      c-7.552,0.486-13.066-2.71-16.059-8.996c-3.161,4.812-9.743,10.94-22.38,10.502c-10.356-0.4-15.297-6.462-17.549-10.976      c-2.72,2.658-7.685,5.958-15.552,5.961c-1.239,0-2.524-0.086-3.819-0.253c-11.443-1.483-14.887-7.638-15.842-12.152      c-2.616,1.46-5.957,2.658-9.959,3.567c-1.225,0.278-2.42,0.42-3.549,0.42h-0.002c-6.852,0-10.756-5.235-11.756-10.558      c-2.342,0.692-4.724,1.065-6.83,1.065c-3.018,0-5.31-0.737-6.814-2.193c-10.193-9.864-10.109-18.456-8.245-23.926      c2.659-7.803,10.555-13.578,17.11-15.097c-1.945-3.388-3.622-9.2-2.631-18.921c1.137-11.144,11.206-21.783,18.669-25.364      c-1.98-3.131-5.454-9.939-3.733-17.03c2.714-11.177,9.923-16.177,15.8-17.247c-0.912-4.616-0.851-12.728,6.445-22.287      c4.576-5.994,9.188-8.537,13.201-7.461c0.139-8.885,4.384-23.623,13.699-26.36c0.869-0.255,1.717-0.454,2.532-0.59      c0.018-8.98,7.727-24.01,22.686-35.479c6.939-5.321,11.956-11.562,16.382-17.07c6.931-8.623,12.917-16.069,23.269-16.069      c3.398,0,7.075,0.787,11.241,2.407c0.099,0.038,0.192,0.09,0.277,0.154c0.363,0.273,36.63,27.594,63.712,50.033      c18.68,15.477,20.629,27.122,19.731,33.336c0.674,0.077,1.377,0.181,2.099,0.312c11.749,2.152,17.218,9.274,19.737,14.871      c3.235,7.186,2.949,14.839,0.961,19.482c2.809,0.579,5.608,1.777,8.179,3.508c9.795,6.598,9.751,19.227,7.182,27.131      c3.871,0.093,9.35,1.365,14.341,6.641c7.431,7.855,6.03,21.939,3.155,30.232c0.388-0.023,0.774-0.034,1.161-0.034      c6.175,0,10.719,2.834,12.465,7.78c3.178,9.005-1.931,17.699-6.671,22.1c3.436,0.486,8.207,2.367,8.983,8.953      c0.917,7.794-0.835,15.034-4.687,19.365c-3.51,3.949-8.528,5.486-14.684,4.453c-3.138-0.522-6.295-1.736-9.023-3.454      c-2.146,3.935-5.894,6.987-10.69,8.664c-1.837,0.644-3.692,0.97-5.513,0.97c-5.651,0-10.055-3.067-12.699-6.401      c-2.136,4.035-6.755,10.361-15.073,11.496c-0.754,0.104-1.485,0.151-2.187,0.151c-5.926,0.002-10.833-3.379-14.63-10.063      c-0.137,5.712-2.204,9.36-4.115,11.523C415.546,333.472,411.34,335.292,406.615,335.292z M391.842,324.329      c3.218,5.353,8.82,8.648,14.773,8.648c4.052,0,7.642-1.542,10.109-4.335c2.901-3.287,4.053-8.079,3.331-13.856      c-0.222-1.77-0.268-2.138,0.141-2.602c0.219-0.249,0.548-0.398,0.879-0.398c0.83,0,1.077,0.588,1.526,1.652      c1.44,3.418,5.984,14.261,16.478,12.83c8.118-1.108,12.296-7.977,13.9-11.415c-2.402-4.286-2.155-8.429,0.666-10.208      c1.163-0.737,2.362-0.502,3.009,0.488c1.212,1.849,0.324,6.121-1.07,9.541c2.153,3.216,6.219,6.476,11.58,6.476      c1.561,0,3.158-0.283,4.749-0.839c5.417-1.896,8.162-5.154,9.547-7.821c-3.082-2.423-4.682-5.131-4.312-7.364      c0.197-1.184,1.021-2.773,3.83-3.614c1.261-0.389,2.521,0.12,3.308,1.329c1.286,1.973,1.284,5.513,0.05,8.861      c2.511,1.627,5.538,2.816,8.435,3.3c5.331,0.884,9.609-0.371,12.574-3.707c3.42-3.845,4.959-10.409,4.118-17.556      c-0.723-6.148-5.895-7.066-8.914-7.066c-0.216,0-0.427,0.005-0.634,0.014c-1.179,0.683-2.232,1.028-3.134,1.028      c-1.578,0-1.839-0.802-1.853-1.279c-0.012-0.427-0.052-1.702,4.271-2.025c4.549-2.943,11.355-11.917,8.068-21.227      c-1.986-5.626-7.852-6.234-10.281-6.234c-0.701,0-1.407,0.043-2.107,0.131c-1.234,2.78-3.128,5.807-5.522,5.807      c-0.659,0-1.293-0.244-1.834-0.707c-1.339-1.148-1.244-2.369-1.068-2.995c0.625-2.224,3.908-3.608,6.783-4.182      c3.129-8.013,4.447-21.896-2.25-28.976c-4.817-5.093-10.027-6.037-13.538-5.918c-2.307,5.262-5.808,7.92-8.801,6.716      c-2.426-0.97-2.438-2.656-2.33-3.334c0.419-2.645,4.618-5.072,9.527-5.597c2.606-7.098,3.077-19.202-5.992-25.309      c-2.544-1.713-5.319-2.846-8.069-3.296c-1.292,1.799-2.971,2.78-4.792,2.78c-1.27,0-2.283-0.129-3.011-0.384      c-1.438-0.502-1.592-1.46-1.592-1.849c0-2.023,3.402-3.081,6.763-3.081c0.457,0,0.932,0.018,1.425,0.057      c1.973-3.942,2.394-11.358-0.681-18.189c-2.291-5.09-7.281-11.571-18.042-13.542c-0.761-0.14-1.492-0.246-2.187-0.316      c-0.841,2.76-2.431,5.002-4.365,6.107c-1.97,1.117-4.213,0.561-5.235-1.216c-0.726-1.255-0.707-2.848,0.049-4.159      c0.688-1.193,2.615-3.149,7.733-3.155c0.738-4.867-0.352-16.049-18.884-31.405c-26.23-21.731-61.102-48.06-63.5-49.868      c-3.831-1.476-7.187-2.193-10.253-2.193c-9.243,0-14.637,6.709-21.464,15.205c-4.508,5.608-9.619,11.966-16.779,17.454      c-15.839,12.145-21.599,26.367-21.773,33.415c4.75-0.113,7.329,2.328,7.33,4.62c0,1.46-1.128,3.033-3.606,3.033      c-0.67,0-1.406-0.118-2.184-0.353c-1.931-0.579-3.207-2.249-3.669-4.758c-0.666,0.12-1.358,0.285-2.072,0.495      c-8.472,2.491-12.247,17.405-12.033,25.239c2.189,1.562,3.362,4.168,2.958,5.658c-0.32,1.173-1.525,1.673-2.859,1.01      c-1.303-0.651-2.089-2.432-2.338-5.292c-0.601-0.264-1.243-0.398-1.916-0.398c-1.98,0-5.241,1.178-9.524,6.79      c-6.89,9.023-6.841,16.523-5.968,20.655c0.045,0,0.092,0,0.138,0c2.772,0,5.116,0.904,6.432,2.48      c0.958,1.148,1.318,2.566,1.04,4.1c-0.504,2.767-2.379,2.981-2.943,2.981c-2.438,0-5.039-2.927-6.399-7.088      c-5.178,0.859-11.656,5.332-14.135,15.547c-1.319,5.434,0.954,11.492,3.678,15.617c2.812-0.839,4.826-0.131,5.521,1.815      c0.753,2.107,0.826,3.418,0.238,4.252c-0.335,0.477-0.85,0.739-1.452,0.739h-0.001c-1.797,0-4.008-2.523-5.156-4.012      c-6.813,3.074-16.653,13.309-17.71,23.67c-1.022,10.009,0.882,15.443,2.819,18.311c1.655-0.093,3.096,0.145,4.242,0.717      c2.691,1.345,3.013,2.656,2.809,3.519c-0.171,0.723-0.868,1.494-2.315,1.494c-1.502,0.002-3.761-0.875-5.788-3.284      c-6.052,0.974-13.829,6.356-16.357,13.772c-2.364,6.937,0.285,14.376,7.663,21.516c1.043,1.008,2.842,1.542,5.204,1.542      c2.009,0,4.316-0.384,6.577-1.092c-0.063-2.41,0.515-4.491,1.605-5.685c0.876-0.961,2.065-1.347,3.333-1.076      c2.393,0.513,3.652,1.494,3.741,2.911c0.162,2.579-3.977,4.559-6.206,5.434c0.613,3.698,3.154,9.003,9.539,9.001      c0.957,0,1.978-0.122,3.036-0.362c4.23-0.961,7.641-2.242,10.152-3.809c-0.198-4.123,1.173-8.189,2.709-9.873      c1.14-1.252,2.621-1.171,3.318-0.002c1.759,2.929,1.282,7.412-3.597,11.022c0.63,4.512,3.653,9.862,14.03,11.207      c1.196,0.156,2.38,0.235,3.521,0.235c7.747-0.002,12.325-3.517,14.561-5.945c-1.656-4.527-1.811-9.435-0.32-11.645      c0.512-0.757,1.227-1.173,2.015-1.173c1.857,0.133,3.142,1.051,3.786,2.59c1.154,2.755-0.002,7.057-2.812,10.658      c1.789,4.035,6.115,10.154,15.959,10.531c12.815,0.536,18.794-6.48,21.226-10.899c-1.74-5.499-1.379-11.853,0.162-14.01      c0.565-0.791,1.21-0.956,1.652-0.956c0.454,0,1.126,0.181,1.739,1.038c2.024,2.834,1.563,8.831-1.042,14.116      c1.692,4.57,5.619,9.808,14.46,9.211c7.328-0.488,12.058-3.024,14.883-5.298c-2.121-3.49-2.772-7.527-1.604-10.316      c0.729-1.738,2.11-2.859,3.888-3.155c2.516-0.423,4.313,0.572,5.065,2.545c1.178,3.088-0.571,7.617-4.273,11.281      c1.977,2.437,5.944,5.732,12.946,5.73c2.686,0,5.592-0.5,8.636-1.483c4.559-1.476,7.79-3.438,9.617-5.841      c-0.52-1.019-0.971-2.098-1.343-3.212c-1.18-3.537-1.328-5.848-0.451-7.066c0.388-0.538,0.957-0.834,1.603-0.834      c1.13,0,2.307,0.927,3.145,2.477C393.225,317.686,393.705,321.02,391.842,324.329z M358.22,314.219      c-0.217,0-0.446,0.02-0.691,0.061c-0.992,0.165-1.71,0.759-2.133,1.768c-0.84,2.003-0.332,5.079,1.218,7.828      c3.119-3.228,4.129-6.695,3.437-8.508C359.758,314.594,359.158,314.219,358.22,314.219z M389.151,315.559      c-0.093,0.495-0.131,1.806,0.842,4.726c0.154,0.459,0.321,0.909,0.502,1.352c0.61-2.034,0.113-3.693-0.193-4.43      C389.922,316.294,389.445,315.778,389.151,315.559z M284.847,310.803c-0.555,0.319-1.305,3.723,0.018,8.291      c1.82-2.855,2.251-5.66,1.639-7.122C286.2,311.246,285.658,310.864,284.847,310.803z M324.847,309.052      c-0.565,1.264-1.047,4.808-0.314,8.852C325.843,313.993,325.668,310.564,324.847,309.052z M252.877,306.396      c-0.598,0.773-1.753,3.284-1.943,6.496C253.433,310.494,253.632,308.057,252.877,306.396z M454.82,306.651      c-1.383,1.038-1.399,3.099-0.67,5.192C454.967,309.226,455.004,307.361,454.82,306.651z M481.82,303.699      c-1.517,0.432-2.26,1.031-2.39,1.808c-0.203,1.225,0.953,3.042,2.955,4.751c0.842-2.681,0.661-5.077-0.04-6.15      C482.169,303.837,481.993,303.699,481.82,303.699z M227.565,303.717c-0.199,0-0.502,0.043-0.834,0.407      c-0.573,0.628-0.927,1.838-0.993,3.275c2.86-1.223,4.047-2.475,4.047-2.855c-0.046-0.097-0.504-0.488-1.917-0.791      C227.761,303.731,227.66,303.717,227.565,303.717z M223.729,272.54c0.688,0.484,1.318,0.746,1.806,0.863      c-0.235-0.163-0.545-0.35-0.947-0.552C224.33,272.723,224.043,272.619,223.729,272.54z M491.992,257.705      c-2.028,0.651-3.154,1.553-3.31,2.107c-0.019,0.07-0.071,0.253,0.346,0.61c0.177,0.151,0.288,0.151,0.329,0.151      C489.846,260.574,490.853,259.773,491.992,257.705z M238.612,227.312c0.976,1.178,1.786,1.876,2.306,2.215      c-0.054-0.348-0.179-0.875-0.453-1.646c-0.079-0.222-0.226-0.633-1.173-0.633C239.086,227.249,238.859,227.272,238.612,227.312z       M474.746,220.393c-3.748,0.705-5.994,2.527-6.143,3.461c-0.06,0.38,0.54,0.678,0.903,0.825      C471.096,225.31,473.112,223.517,474.746,220.393z M249.982,193.981c1.216,3.275,3.128,4.919,3.997,4.919      c0.408,0,0.592-0.678,0.665-1.083c0.155-0.848-0.026-1.589-0.538-2.202C253.319,194.673,251.801,194.078,249.982,193.981z       M455.436,189.662c0.367,0.054,0.872,0.095,1.555,0.095c0.715,0,1.332-0.278,1.852-0.683      C457.272,189.108,456.135,189.386,455.436,189.662z M437.263,154.662c-2.581,0.066-4.445,0.784-5.143,1.994      c-0.349,0.606-0.367,1.295-0.05,1.844c0.214,0.371,1.025,0.972,2.083,0.362C435.19,158.27,436.464,156.884,437.263,154.662z       M285.377,137.262c0.252,1.223,0.815,2.412,2.022,2.776c0.563,0.167,1.074,0.253,1.519,0.253c0.303,0,1.292-0.052,1.292-0.719      C290.211,138.758,288.801,137.3,285.377,137.262z"/>
			</g>
			<path style="fill:#241726;" d="M280.704,134.322c0,0-1.14,72.221,3.837,74.354s142.794,0.537,144.927-3.729     c1.866-3.733,6.754-56.125,2.564-74.555c-0.599-2.633-53.249-67.455-77.422-69.588     C330.436,58.671,280.704,126.057,280.704,134.322z"/>
			<g>
				<path style="fill:#FFFFFF;" d="M436.728,224.33c0,0,11.376,10.309-1.066,18.486c-12.442,8.176-17.419-8.532-14.22-6.043      c3.199,2.488,2.488,11.02-9.243,13.153c-11.731,2.133-18.486-21.685-12.087-19.907c6.399,1.777,0.711,15.286-14.22,15.642      c-14.931,0.355-20.263-15.997-11.02-20.974"/>
				<path style="fill:#241726;" d="M410.751,251.213c-3.97,0-7.807-2.59-10.728-7.319c-0.34-0.549-0.665-1.128-0.969-1.727      c-3.006,2.541-7.403,4.514-13.135,4.65c-9.201,0.24-14.843-5.445-16.353-11.153c-1.329-5.018,0.538-9.726,4.756-11.998      c0.565-0.298,1.266-0.093,1.569,0.47s0.092,1.266-0.47,1.569c-3.935,2.118-4.448,6.227-3.618,9.365      c1.281,4.833,6.098,9.699,14.062,9.432c5.499-0.131,9.586-2.086,12.208-4.491c-1.601-3.974-2.214-8.225-0.753-10.172      c0.711-0.947,1.843-1.286,3.101-0.936c2.432,0.674,3.731,2.803,3.389,5.556c-0.227,1.824-1.241,4.001-3.02,6.013      c0.351,0.737,0.75,1.478,1.201,2.206c1.644,2.66,5.124,7.005,9.999,6.107c6.873-1.248,8.968-4.541,9.605-6.363      c-1.587-1.998-3.04-5.31-1.769-6.618c0.164-0.167,1.038-0.949,2.324,0.054c1.624,1.264,2.371,3.544,1.985,5.936      c0.374,0.368,0.792,0.714,1.256,1.017c2.716,1.779,5.955,1.456,9.634-0.963c3.289-2.161,5.064-4.645,5.277-7.38      c0.382-4.928-4.305-9.238-4.352-9.281c-0.474-0.429-0.51-1.16-0.08-1.634c0.428-0.472,1.162-0.511,1.635-0.079      c0.227,0.206,5.574,5.127,5.105,11.173c-0.271,3.488-2.395,6.562-6.314,9.136c-6.169,4.053-10.497,2.351-12.937,0.407      c-1.164,2.355-4.011,5.612-10.954,6.874C411.853,251.164,411.3,251.213,410.751,251.213z M399.478,231.08      c-0.192,0-0.255,0.084-0.305,0.149c-0.643,0.857-0.485,3.635,0.637,6.856c0.986-1.345,1.556-2.719,1.705-3.91      c0.14-1.132-0.043-2.579-1.712-3.042C399.665,231.094,399.559,231.08,399.478,231.08z"/>
			</g>
			<g>
				<path style="fill:#FFFFFF;" d="M462.323,264.856c0,0,7.821,7.11-4.621,15.286c-12.442,8.176-19.907-6.043-15.286-6.754      c4.621-0.711,7.11,15.642-10.309,14.575s-14.22-15.997-11.02-14.22c3.199,1.777-0.179,15.286-13.153,15.286      c-17.419,0-9.243-15.997-9.243-15.997"/>
				<path style="fill:#241726;" d="M407.934,290.187c-5.476,0-9.189-1.533-11.04-4.557c-3.201-5.23,0.604-12.805,0.766-13.124      c0.293-0.57,0.991-0.793,1.556-0.504c0.568,0.289,0.794,0.988,0.505,1.557c-0.034,0.066-3.378,6.747-0.85,10.868      c1.401,2.285,4.451,3.445,9.062,3.445c5.424,0,8.885-2.538,10.872-5.258c-0.425-0.728-0.714-1.422-0.911-2.028      c-1.061-3.271-0.24-6.426,1.169-7.586c0.775-0.635,1.742-0.739,2.585-0.271c1.634,0.909,2.158,3.368,1.366,6.419      c-0.302,1.162-0.772,2.324-1.405,3.436c1.651,1.971,4.751,3.865,10.568,4.222c7.198,0.461,10.212-2.168,11.488-4.43      c0.103-0.183,0.197-0.368,0.283-0.556c-2.755-1.969-4.497-5.228-3.977-7.47c0.268-1.16,1.095-1.926,2.268-2.107      c1.294-0.203,2.535,0.427,3.423,1.713c1.096,1.585,1.644,4.173,1.067,6.806c2.186,0.988,5.704,1.458,10.337-1.589      c4.098-2.692,6.287-5.481,6.508-8.286c0.241-3.072-2.007-5.154-2.03-5.174c-0.472-0.429-0.507-1.162-0.078-1.634      c0.432-0.475,1.165-0.506,1.635-0.079c0.127,0.115,3.108,2.877,2.779,7.068c-0.278,3.556-2.816,6.935-7.544,10.041      c-5.438,3.576-9.759,2.938-12.361,1.84c-0.09,0.19-0.189,0.377-0.294,0.565c-1.311,2.326-4.815,6.169-13.647,5.603      c-6.166-0.377-9.723-2.387-11.772-4.561C417.665,287.775,413.501,290.187,407.934,290.187z M420.524,274.753      c-0.312,0.145-1.061,1.716-0.71,3.944c0.066,0.409,0.183,0.92,0.393,1.487c0.251-0.572,0.437-1.119,0.566-1.616      C421.317,276.473,420.978,275.006,420.524,274.753z M442.7,274.522c-0.036,0-0.071,0.005-0.108,0.009      c-0.231,0.036-0.312,0.113-0.365,0.341c-0.211,0.911,0.533,2.909,2.372,4.516c0.164-1.627-0.183-3.167-0.839-4.116      C443.56,274.983,443.168,274.522,442.7,274.522z"/>
			</g>
			<g>
				<path style="fill:#FFFFFF;" d="M338.039,229.274c0,0,6.426,8.392-7.276,14.215s-18.509-9.5-13.835-9.375      c4.674,0.126,4.203,16.66-12.746,12.5c-16.949-4.159-11.135-18.279-8.304-15.959c2.831,2.32-2.905,15.009-15.671,12.692      c-17.139-3.11-6.238-17.39-6.238-17.39"/>
				<path style="fill:#241726;" d="M309.229,248.438c-1.548,0-3.314-0.206-5.322-0.698c-6.001-1.471-9.142-4.084-10.77-6.589      c-3.132,2.703-7.66,4.326-13.137,3.339c-5.386-0.979-8.768-3.149-10.048-6.453c-2.216-5.721,2.879-12.493,3.097-12.78      c0.39-0.509,1.117-0.604,1.621-0.217c0.509,0.387,0.607,1.112,0.22,1.621c-0.046,0.061-4.529,6.037-2.777,10.545      c0.971,2.5,3.764,4.184,8.301,5.007c5.33,0.974,9.196-0.909,11.635-3.232c-0.287-0.791-0.448-1.526-0.533-2.156      c-0.461-3.409,0.912-6.367,2.504-7.256c0.875-0.488,1.846-0.418,2.592,0.194c1.445,1.184,1.52,3.698,0.198,6.56      c-0.503,1.087-1.174,2.147-1.996,3.128c1.273,2.236,3.984,4.654,9.645,6.044c6.986,1.709,10.434-0.31,12.094-2.31      c0.134-0.16,0.261-0.328,0.379-0.497c-2.36-2.428-3.492-5.949-2.58-8.063c0.471-1.087,1.395-1.641,2.607-1.666      c1.302,0.036,2.419,0.872,3.064,2.297c0.794,1.756,0.872,4.399-0.165,6.89c1.974,1.358,5.351,2.45,10.452,0.283      c4.514-1.919,7.166-4.27,7.884-6.991c0.785-2.981-1.054-5.432-1.073-5.456c-0.389-0.506-0.293-1.234,0.216-1.623      c0.507-0.387,1.234-0.289,1.622,0.217c0.104,0.136,2.544,3.386,1.473,7.452c-0.91,3.449-4.01,6.32-9.217,8.531      c-5.991,2.547-10.129,1.148-12.488-0.396c-0.124,0.17-0.255,0.337-0.392,0.504C317.027,246.234,314.292,248.438,309.229,248.438      z M316.866,235.271c-0.21,0-0.301,0.063-0.389,0.269c-0.371,0.859,0.006,2.957,1.528,4.867c0.451-1.571,0.384-3.149-0.092-4.197      c-0.156-0.344-0.495-0.924-1.017-0.938C316.886,235.271,316.876,235.271,316.866,235.271z M295.145,231.551      c-0.333,0.086-1.352,1.499-1.403,3.754c-0.01,0.414,0.015,0.938,0.121,1.53c0.348-0.518,0.629-1.022,0.845-1.487      C295.617,233.381,295.546,231.881,295.145,231.551z"/>
			</g>
			<g>
				<path style="fill:#FFFFFF;" d="M353.748,275.047c0,0,1.702,10.211-11.345,14.749c-13.047,4.538-15.316-16.451-11.913-14.749      c3.404,1.702,0,18.153-13.615,17.018c-13.615-1.135-10.778-18.72-7.375-18.72c3.404,0,5.673,12.48-12.48,14.749      c-18.153,2.269-11.345-17.018-11.345-17.018"/>
				<path style="fill:#241726;" d="M318.202,293.279c-0.463,0-0.937-0.02-1.423-0.061c-5.379-0.448-8.499-3.323-10.036-6.826      c-2.377,1.32-5.521,2.344-9.578,2.85c-5.438,0.678-9.358-0.427-11.66-3.289c-4.335-5.384-1.062-14.862-0.921-15.262      c0.214-0.606,0.874-0.92,1.476-0.707c0.602,0.212,0.919,0.872,0.707,1.476c-0.031,0.086-2.986,8.671,0.542,13.045      c1.77,2.195,4.992,3.013,9.568,2.441c3.988-0.497,6.964-1.51,9.112-2.78c-0.372-1.503-0.505-3.049-0.444-4.516      c0.155-3.707,1.563-7.461,3.956-7.461c1.851,0,3.314,1.919,3.479,4.564c0.168,2.719-1.023,5.87-4.283,8.37      c1.039,2.651,3.319,5.377,8.275,5.791c6.293,0.518,10.25-2.981,12.203-7.077c-1.5-3.827-1.651-8.006-0.422-9.405      c0.58-0.662,1.444-0.823,2.256-0.418c2.155,1.078,2.215,4.787,1.318,7.988c-0.172,0.61-0.384,1.232-0.637,1.849      c0.346,0.746,0.763,1.476,1.261,2.161c2.256,3.097,5.311,4.005,9.073,2.692c11.913-4.141,10.643-13.09,10.583-13.469      c-0.099-0.628,0.329-1.223,0.957-1.325c0.643-0.111,1.223,0.321,1.327,0.949c0.019,0.111,1.703,11.229-12.108,16.033      c-4.884,1.693-9.145,0.301-11.995-3.933c-0.13-0.194-0.257-0.393-0.379-0.594C328.08,290.132,324.062,293.279,318.202,293.279z       M309.501,274.502c-0.648,0.215-2.025,3.436-1.564,7.482c0.025,0.219,0.056,0.448,0.095,0.685c2-1.829,2.752-3.931,2.638-5.773      C310.571,275.325,309.857,274.502,309.501,274.502z M330.3,276.543c-0.114,0.698-0.096,1.876,0.14,3.253      C330.67,278.281,330.539,277.144,330.3,276.543z"/>
			</g>
		</g>
		<g>
			<path style="fill:#FFFFFF;" d="M393.22,123.496c-0.472,0-0.915-0.292-1.087-0.762c-1.303-3.574-4.617-6.241-4.651-6.268     c-0.5-0.398-0.583-1.126-0.185-1.625c0.398-0.504,1.123-0.585,1.624-0.188c0.157,0.124,3.854,3.088,5.386,7.29     c0.219,0.599-0.09,1.264-0.691,1.483C393.485,123.474,393.352,123.496,393.22,123.496z"/>
			<path style="fill:#FFFFFF;" d="M391.802,108.824c-0.472,0-0.917-0.292-1.087-0.762c-1.302-3.574-4.617-6.241-4.651-6.268     c-0.5-0.398-0.583-1.126-0.185-1.625c0.398-0.502,1.126-0.585,1.624-0.188c0.156,0.124,3.855,3.088,5.386,7.29     c0.219,0.599-0.09,1.264-0.691,1.483C392.068,108.802,391.934,108.824,391.802,108.824z"/>
			<path style="fill:#FFFFFF;" d="M379.767,109.717c-0.472,0-0.917-0.292-1.087-0.762c-1.302-3.571-4.617-6.241-4.65-6.268     c-0.5-0.398-0.583-1.126-0.185-1.625c0.397-0.502,1.125-0.585,1.624-0.188c0.157,0.124,3.855,3.09,5.385,7.29     c0.219,0.599-0.09,1.264-0.691,1.483C380.033,109.695,379.899,109.717,379.767,109.717z"/>
			<path style="fill:#FFFFFF;" d="M370.632,95.084c-0.472,0-0.917-0.292-1.087-0.762c-1.303-3.574-4.617-6.243-4.65-6.27     c-0.5-0.398-0.583-1.126-0.185-1.625c0.397-0.504,1.123-0.585,1.624-0.188c0.157,0.124,3.855,3.09,5.385,7.292     c0.219,0.599-0.09,1.264-0.691,1.483C370.898,95.061,370.763,95.084,370.632,95.084z"/>
			<path style="fill:#FFFFFF;" d="M373.092,117.522c-0.472,0-0.917-0.292-1.087-0.762c-1.302-3.571-4.617-6.241-4.65-6.268     c-0.5-0.398-0.583-1.126-0.185-1.625c0.398-0.504,1.126-0.585,1.624-0.188c0.157,0.124,3.855,3.09,5.385,7.29     c0.219,0.599-0.09,1.264-0.691,1.483C373.358,117.5,373.225,117.522,373.092,117.522z"/>
			<path style="fill:#FFFFFF;" d="M386.832,131.493c-0.472,0-0.917-0.292-1.087-0.762c-1.302-3.574-4.617-6.241-4.651-6.268     c-0.5-0.398-0.583-1.126-0.185-1.625c0.397-0.502,1.125-0.585,1.624-0.188c0.156,0.124,3.855,3.088,5.386,7.29     c0.219,0.599-0.09,1.264-0.691,1.483C387.098,131.471,386.963,131.493,386.832,131.493z"/>
			<path style="fill:#FFFFFF;" d="M406.835,123.037c-0.472,0-0.917-0.292-1.087-0.762c-1.303-3.574-4.617-6.243-4.65-6.27     c-0.5-0.398-0.583-1.126-0.185-1.625c0.398-0.504,1.126-0.585,1.624-0.188c0.157,0.124,3.855,3.09,5.385,7.292     c0.219,0.599-0.09,1.264-0.691,1.483C407.101,123.015,406.966,123.037,406.835,123.037z"/>
			<path style="fill:#FFFFFF;" d="M406.816,136.749c-0.472,0-0.917-0.292-1.087-0.762c-1.302-3.574-4.618-6.243-4.651-6.27     c-0.5-0.398-0.583-1.126-0.185-1.625c0.399-0.502,1.125-0.585,1.624-0.188c0.157,0.124,3.856,3.09,5.386,7.292     c0.219,0.599-0.09,1.264-0.691,1.483C407.081,136.726,406.947,136.749,406.816,136.749z"/>
		</g>
	</g>
	<g>
		<g>
			<g>
				<path style="fill:#FFFFFF;" d="M342.119,450.627c-15.642,2.133-19.03-20.754-18.032-12.773      c3.005,24.043-25.772,25.605-32.307,6.011c-5.41-16.22,15.157,2.698-9.016,10.519c-24.173,7.821-31.072-16.61-22.54-18.032      s4.049,17.361-17.281,18.783c-21.329,1.422-17.991-28.784-14.436-23.807c3.555,4.977-1.464,26.172-23.882,25.31      c-19.893-0.765-20.942-24.089-16.808-23.777c7.549,0.57,0.813,21.216-20.007,18.517c-23.281-3.018-13.409-26.338-11.276-22.783      c2.133,3.555,0.711,10.665-14.931,14.22c-15.642,3.555-16.904-18.331-10.609-16.982c10.519,2.254-11.22,11.876-17.281,6.011      c-23.291-22.54,5.744-41.081,14.275-36.815s-10.519,7.513-7.694-20.178c1.602-15.705,21.987-30.179,24.143-24.143      c3.72,10.416-12.438-4.895-9.233-18.095c4.922-20.275,24.884-19.197,23.462-11.376s-16.403-8.103-1.422-27.728      c12.618-16.529,19.482,0.699,15.216-1.434c-4.266-2.133-0.996-28.427,11.09-31.982s13.509,6.399,6.399,4.266      c-7.11-2.133-2.133-24.173,19.197-40.526s24.173-40.526,49.769-30.572c0,0,36.295,27.318,63.669,49.999      c26.297,21.789,20.004,36.977,15.027,39.821c-4.977,2.844-8.005-8.733,7.333-5.924c26.277,4.813,24.173,36.971,14.931,36.971      s1.759-7.203,13.509,0.711c15.318,10.317,5.688,36.971-1.422,34.127c-7.11-2.844,10.497-13.473,22.751-0.519      c11.148,11.785,1.423,40.334-3.554,36.068c-4.977-4.266,15.817-10.588,20.083,1.498c4.266,12.087-7.312,23.759-11.577,23.759      c-4.266,0,12.409-5.041,13.831,7.046c1.422,12.087-3.591,24.947-18.032,22.54c-10.347-1.724-19.212-11.141-11.27-13.524      c4.311-1.293,5.204,13.806-9.016,18.783s-23.955-12.043-18.032-15.778C361.772,425.921,357.761,448.494,342.119,450.627z"/>
				<path style="fill:#241726;" d="M309.498,458.504c-6.449,0-12.526-3.384-16.228-8.937c-2.173,2.452-5.577,4.439-10.15,5.918      c-3.274,1.06-6.419,1.596-9.349,1.598c-7.86,0-12.387-3.714-14.68-6.51c-3.116,2.475-8.249,5.194-16.071,5.716      c-0.516,0.034-1.022,0.052-1.512,0.052c-6.669,0-11.757-3.189-14.545-9.046c-3.162,4.812-9.791,11.003-22.381,10.499      c-10.356-0.398-15.297-6.46-17.549-10.974c-2.72,2.656-7.685,5.956-15.552,5.958c-1.239,0-2.524-0.086-3.819-0.253      c-11.443-1.483-14.887-7.635-15.842-12.152c-2.616,1.462-5.956,2.66-9.959,3.569c-1.225,0.278-2.419,0.42-3.547,0.42      c-6.855,0-10.759-5.237-11.761-10.56c-2.342,0.692-4.723,1.065-6.83,1.065c-3.018,0-5.31-0.737-6.814-2.193      c-10.191-9.862-10.108-18.454-8.245-23.924c2.658-7.801,10.554-13.578,17.109-15.099c-1.944-3.386-3.621-9.197-2.63-18.919      c1.137-11.146,11.207-21.785,18.671-25.363c-1.981-3.133-5.454-9.939-3.733-17.03c2.714-11.177,9.922-16.18,15.799-17.249      c-0.912-4.616-0.851-12.726,6.445-22.285c4.575-5.992,9.197-8.535,13.201-7.461c0.139-8.888,4.384-23.623,13.7-26.363      c0.869-0.255,1.717-0.454,2.53-0.59c0.018-8.98,7.729-24.01,22.687-35.479c6.938-5.321,11.955-11.562,16.381-17.068      c6.931-8.623,12.918-16.071,23.27-16.071c3.398,0,7.075,0.787,11.241,2.407c0.099,0.038,0.192,0.09,0.277,0.154      c0.363,0.274,36.629,27.594,63.711,50.033c18.677,15.477,20.628,27.122,19.731,33.336c0.674,0.077,1.377,0.181,2.099,0.312      c11.75,2.152,17.219,9.274,19.737,14.871c3.236,7.186,2.949,14.839,0.961,19.482c2.81,0.579,5.608,1.777,8.18,3.508      c9.794,6.598,9.75,19.229,7.181,27.133c3.871,0.09,9.35,1.363,14.342,6.639c7.431,7.857,6.03,21.939,3.155,30.232      c0.387-0.023,0.773-0.034,1.16-0.034c6.175,0,10.719,2.834,12.465,7.78c3.179,9.005-1.93,17.699-6.67,22.1      c3.435,0.486,8.206,2.367,8.982,8.953c0.918,7.794-0.834,15.031-4.686,19.365c-3.51,3.949-8.526,5.481-14.686,4.453      c-3.139-0.522-6.295-1.736-9.023-3.454c-2.146,3.938-5.894,6.987-10.69,8.664c-1.838,0.644-3.692,0.97-5.514,0.97      c-5.651,0-10.054-3.065-12.698-6.401c-2.136,4.035-6.755,10.362-15.073,11.496c-0.755,0.104-1.485,0.151-2.189,0.151      c-5.924,0.002-10.831-3.379-14.628-10.063c-0.136,5.712-2.204,9.36-4.114,11.523      C318.431,456.685,314.224,458.504,309.498,458.504z M294.726,447.542c3.218,5.353,8.82,8.648,14.773,8.648      c4.052,0,7.642-1.542,10.111-4.335c2.9-3.287,4.052-8.079,3.33-13.856c-0.222-1.77-0.267-2.138,0.141-2.602      c0.219-0.249,0.548-0.398,0.88-0.398c0.83,0,1.077,0.588,1.526,1.655c1.44,3.418,5.996,14.247,16.477,12.828      c8.118-1.108,12.296-7.975,13.9-11.415c-2.402-4.286-2.155-8.427,0.666-10.206c1.157-0.735,2.361-0.506,3.01,0.488      c1.21,1.849,0.323,6.121-1.071,9.539c2.153,3.219,6.219,6.476,11.579,6.476c1.561,0,3.159-0.283,4.75-0.839      c5.417-1.896,8.162-5.154,9.547-7.821c-3.081-2.423-4.681-5.131-4.311-7.364c0.197-1.184,1.021-2.773,3.83-3.614      c1.264-0.384,2.52,0.124,3.308,1.331c1.285,1.971,1.283,5.511,0.049,8.858c2.512,1.627,5.538,2.816,8.435,3.3      c5.345,0.884,9.611-0.375,12.576-3.709c3.42-3.845,4.958-10.407,4.117-17.554c-0.723-6.148-5.895-7.066-8.913-7.066      c-0.217,0-0.428,0.005-0.635,0.014c-1.179,0.683-2.231,1.028-3.134,1.028c-1.578,0-1.838-0.802-1.852-1.279      c-0.014-0.427-0.053-1.702,4.271-2.025c4.549-2.943,11.354-11.917,8.067-21.227c-1.986-5.626-7.852-6.234-10.281-6.234      c-0.701,0-1.406,0.043-2.106,0.131c-1.234,2.78-3.128,5.807-5.523,5.807c-0.659,0-1.293-0.244-1.834-0.707      c-1.339-1.148-1.244-2.369-1.069-2.995c0.626-2.224,3.909-3.608,6.786-4.182c3.129-8.013,4.448-21.894-2.25-28.976      c-4.816-5.088-10.025-5.994-13.54-5.918c-2.307,5.262-5.809,7.927-8.8,6.716c-2.426-0.97-2.438-2.656-2.33-3.334      c0.419-2.645,4.617-5.072,9.526-5.594c2.606-7.1,3.079-19.204-5.991-25.312c-2.544-1.713-5.32-2.846-8.071-3.296      c-1.292,1.799-2.971,2.78-4.792,2.78c-1.27,0-2.283-0.129-3.01-0.384c-1.439-0.502-1.594-1.46-1.594-1.849      c0-2.023,3.403-3.081,6.764-3.081c0.455,0,0.932,0.018,1.425,0.057c1.972-3.942,2.393-11.358-0.681-18.189      c-2.292-5.09-7.282-11.571-18.043-13.542c-0.761-0.14-1.492-0.246-2.186-0.316c-0.841,2.76-2.431,5.002-4.365,6.108      c-1.969,1.121-4.213,0.558-5.236-1.216c-0.726-1.257-0.706-2.85,0.049-4.159c0.688-1.193,2.564-3.192,7.733-3.155      c0.738-4.867-0.353-16.049-18.884-31.405c-26.229-21.731-61.101-48.06-63.499-49.868c-3.831-1.476-7.187-2.193-10.253-2.193      c-9.244,0-14.637,6.709-21.466,15.205c-4.508,5.61-9.618,11.966-16.778,17.455c-15.838,12.145-21.599,26.367-21.774,33.415      c4.793-0.145,7.33,2.328,7.33,4.62c0,1.46-1.128,3.033-3.606,3.033c-0.67,0-1.406-0.118-2.184-0.353      c-1.931-0.579-3.209-2.249-3.669-4.758c-0.666,0.12-1.358,0.285-2.07,0.495c-8.473,2.493-12.248,17.407-12.033,25.241      c2.188,1.562,3.362,4.168,2.957,5.655c-0.32,1.18-1.517,1.682-2.858,1.01c-1.303-0.651-2.089-2.43-2.338-5.292      c-0.602-0.262-1.244-0.396-1.916-0.396c-1.981,0-5.242,1.178-9.525,6.79c-6.888,9.023-6.841,16.523-5.968,20.655      c2.822-0.145,5.233,0.875,6.57,2.477c0.958,1.148,1.318,2.566,1.039,4.1c-0.503,2.767-2.378,2.981-2.942,2.981      c-2.438,0-5.039-2.925-6.399-7.089c-5.177,0.861-11.654,5.334-14.134,15.549c-1.32,5.434,0.954,11.489,3.676,15.615      c2.813-0.836,4.826-0.129,5.521,1.817c0.753,2.107,0.827,3.418,0.24,4.252c-0.33,0.468-0.86,0.737-1.453,0.737      c-1.797,0-4.009-2.523-5.157-4.012c-6.813,3.074-16.653,13.309-17.71,23.673c-1.022,10.009,0.882,15.443,2.818,18.311      c1.669-0.108,3.099,0.142,4.243,0.714c2.69,1.345,3.012,2.656,2.808,3.519c-0.171,0.723-0.868,1.496-2.315,1.496      c-1.502,0-3.761-0.875-5.789-3.284c-6.052,0.976-13.83,6.358-16.357,13.775c-2.363,6.935,0.287,14.374,7.664,21.512      c1.043,1.008,2.842,1.542,5.204,1.542c2.009,0,4.317-0.384,6.578-1.092c-0.063-2.41,0.515-4.491,1.604-5.685      c0.878-0.961,2.065-1.343,3.333-1.076c2.394,0.513,3.652,1.494,3.741,2.911c0.162,2.579-3.976,4.559-6.206,5.434      c0.613,3.698,3.155,9.003,9.541,9.003c0.955,0,1.977-0.122,3.033-0.362c4.23-0.963,7.641-2.242,10.152-3.811      c-0.198-4.121,1.173-8.189,2.709-9.873c1.141-1.252,2.62-1.171,3.318-0.002c1.633,2.721,1.616,7.186-3.597,11.024      c0.631,4.509,3.654,9.86,14.03,11.205c1.196,0.156,2.38,0.235,3.521,0.235c7.749-0.002,12.326-3.517,14.561-5.945      c-1.656-4.525-1.811-9.435-0.32-11.645c0.512-0.757,1.227-1.173,2.015-1.173c1.857,0.133,3.142,1.051,3.787,2.59      c1.153,2.755-0.003,7.057-2.813,10.658c1.789,4.037,6.115,10.154,15.959,10.531c12.849,0.531,18.796-6.478,21.227-10.899      c-1.74-5.499-1.379-11.853,0.16-14.007c0.565-0.791,1.21-0.956,1.651-0.956c0.455,0,1.128,0.179,1.74,1.038      c2.024,2.835,1.564,8.831-1.041,14.114c1.691,4.57,5.606,9.812,14.458,9.211c7.328-0.488,12.057-3.022,14.883-5.298      c-2.121-3.488-2.772-7.525-1.604-10.312c0.729-1.74,2.11-2.862,3.888-3.158c2.507-0.425,4.313,0.572,5.065,2.545      c1.177,3.085-0.571,7.615-4.273,11.279c1.977,2.439,5.944,5.732,12.945,5.732c2.688-0.002,5.593-0.502,8.637-1.485      c4.559-1.476,7.79-3.438,9.617-5.841c-0.52-1.019-0.971-2.098-1.343-3.212c-1.18-3.537-1.327-5.848-0.45-7.066      c0.388-0.538,0.956-0.834,1.601-0.834c1.131,0,2.307,0.927,3.145,2.477C296.109,440.898,296.588,444.232,294.726,447.542z       M261.105,437.433c-0.217,0-0.448,0.02-0.691,0.061c-0.993,0.165-1.712,0.762-2.135,1.77c-0.839,2-0.331,5.077,1.218,7.823      c3.12-3.228,4.13-6.695,3.438-8.506C262.642,437.808,262.043,437.433,261.105,437.433z M292.035,438.771      c-0.092,0.495-0.131,1.806,0.842,4.726c0.154,0.459,0.321,0.909,0.502,1.352c0.61-2.034,0.114-3.693-0.193-4.43      C292.805,439.506,292.33,438.991,292.035,438.771z M187.73,434.016c-0.555,0.319-1.305,3.723,0.018,8.293      c1.821-2.855,2.251-5.662,1.64-7.125C189.083,434.459,188.542,434.077,187.73,434.016z M227.731,432.266      c-0.564,1.264-1.044,4.808-0.313,8.849C228.727,437.207,228.551,433.778,227.731,432.266z M155.761,429.608      c-0.598,0.773-1.753,3.287-1.943,6.496C156.317,433.708,156.516,431.271,155.761,429.608z M357.704,429.866      c-1.383,1.037-1.399,3.099-0.669,5.19C357.851,432.44,357.888,430.575,357.704,429.866z M384.704,426.911      c-1.516,0.432-2.26,1.031-2.389,1.808c-0.203,1.225,0.953,3.042,2.954,4.751c0.843-2.681,0.662-5.077-0.038-6.15      C385.054,427.049,384.877,426.911,384.704,426.911z M130.448,426.929c-0.199,0-0.502,0.043-0.834,0.407      c-0.573,0.628-0.927,1.835-0.992,3.275c2.859-1.223,4.046-2.475,4.046-2.855c-0.045-0.097-0.503-0.488-1.916-0.791      C130.645,426.943,130.543,426.929,130.448,426.929z M126.611,395.752c0.689,0.486,1.32,0.748,1.808,0.866      c-0.234-0.165-0.545-0.353-0.948-0.554C127.213,395.935,126.926,395.831,126.611,395.752z M394.877,380.917      c-2.028,0.649-3.155,1.553-3.311,2.107c-0.019,0.07-0.071,0.253,0.346,0.61c0.177,0.151,0.288,0.151,0.329,0.151      C392.729,383.786,393.736,382.986,394.877,380.917z M141.497,350.525c0.975,1.178,1.785,1.876,2.304,2.215      c-0.054-0.348-0.179-0.875-0.453-1.643c-0.079-0.222-0.226-0.633-1.173-0.633C141.969,350.464,141.742,350.484,141.497,350.525z       M377.63,343.606c-3.748,0.708-5.993,2.527-6.141,3.461c-0.06,0.38,0.54,0.678,0.903,0.825      C373.985,348.517,375.997,346.729,377.63,343.606z M152.864,317.193c1.217,3.275,3.129,4.919,3.999,4.919      c0.408,0,0.592-0.678,0.665-1.083c0.155-0.848-0.026-1.589-0.538-2.202C156.204,317.885,154.685,317.291,152.864,317.193z       M358.32,312.874c0.367,0.054,0.872,0.095,1.555,0.095c0.715,0,1.332-0.278,1.854-0.683      C360.155,312.32,359.018,312.598,358.32,312.874z M340.148,277.874c-2.582,0.066-4.446,0.784-5.145,1.994      c-0.349,0.606-0.367,1.295-0.05,1.844c0.214,0.373,1.028,0.972,2.084,0.362C338.075,281.482,339.349,280.094,340.148,277.874z       M188.26,260.474c0.251,1.223,0.814,2.412,2.022,2.776c0.563,0.167,1.074,0.253,1.519,0.253c0.303,0,1.292-0.052,1.292-0.719      C193.093,261.97,191.677,260.549,188.26,260.474z"/>
			</g>
			<path style="fill:#241726;" d="M183.588,257.535c0,0-1.14,72.221,3.837,74.354c4.977,2.133,142.794,0.537,144.927-3.729     c1.866-3.733,6.754-56.125,2.564-74.555c-0.599-2.633-53.249-67.455-77.422-69.588     C233.32,181.884,183.588,249.27,183.588,257.535z"/>
			<g>
				<path style="fill:#FFFFFF;" d="M339.612,347.543c0,0,11.376,10.309-1.066,18.486c-12.442,8.176-17.419-8.532-14.22-6.043      c3.199,2.488,2.488,11.02-9.243,13.153c-11.731,2.133-18.486-21.685-12.087-19.908c6.399,1.777,0.711,15.286-14.22,15.642      c-14.931,0.355-20.263-15.997-11.02-20.974"/>
				<path style="fill:#241726;" d="M313.638,374.428c-3.973,0-7.811-2.593-10.732-7.324c-0.339-0.549-0.663-1.128-0.967-1.725      c-3.006,2.541-7.403,4.514-13.135,4.65c-9.174,0.314-14.839-5.443-16.353-11.153c-1.329-5.016,0.539-9.726,4.758-11.998      c0.563-0.301,1.266-0.09,1.568,0.47c0.303,0.563,0.092,1.266-0.471,1.569c-3.934,2.118-4.448,6.227-3.617,9.367      c1.279,4.833,6.075,9.704,14.061,9.43c5.498-0.131,9.586-2.086,12.208-4.491c-1.601-3.976-2.214-8.225-0.753-10.172      c0.712-0.947,1.846-1.284,3.101-0.936c2.433,0.676,3.732,2.805,3.389,5.558c-0.227,1.824-1.241,3.999-3.02,6.01      c0.351,0.737,0.75,1.476,1.2,2.204c1.644,2.663,5.137,7.007,10.001,6.112c6.87-1.25,8.968-4.541,9.605-6.363      c-1.587-1.998-3.041-5.31-1.77-6.621c0.162-0.167,1.039-0.949,2.324,0.054c1.626,1.264,2.372,3.544,1.986,5.936      c0.374,0.368,0.791,0.714,1.253,1.017c2.717,1.779,5.956,1.456,9.636-0.963c3.284-2.159,5.06-4.638,5.276-7.371      c0.388-4.91-4.306-9.247-4.353-9.29c-0.471-0.429-0.506-1.162-0.077-1.634c0.428-0.472,1.161-0.509,1.633-0.079      c0.227,0.206,5.574,5.126,5.105,11.173c-0.27,3.488-2.395,6.562-6.313,9.136c-6.165,4.055-10.498,2.355-12.937,0.407      c-1.165,2.358-4.012,5.612-10.954,6.876C314.739,374.378,314.186,374.428,313.638,374.428z M302.36,354.293      c-0.191,0-0.254,0.084-0.304,0.149c-0.643,0.854-0.485,3.635,0.637,6.856c0.986-1.345,1.556-2.717,1.704-3.91      c0.141-1.13-0.042-2.577-1.711-3.042C302.548,354.306,302.443,354.293,302.36,354.293z"/>
			</g>
			<g>
				<path style="fill:#FFFFFF;" d="M365.207,388.069c0,0,7.821,7.11-4.621,15.286c-12.442,8.176-19.907-6.043-15.286-6.754      c4.621-0.711,7.11,15.642-10.309,14.575c-17.419-1.066-14.22-15.997-11.02-14.22c3.199,1.777-0.179,15.286-13.153,15.286      c-17.419,0-9.243-15.997-9.243-15.997"/>
				<path style="fill:#241726;" d="M310.817,413.399c-5.476,0-9.19-1.533-11.04-4.557c-3.201-5.23,0.604-12.805,0.766-13.124      c0.292-0.567,0.991-0.791,1.556-0.504c0.568,0.289,0.794,0.988,0.505,1.557c-0.034,0.066-3.378,6.747-0.85,10.868      c1.401,2.285,4.451,3.445,9.062,3.445c5.423,0,8.884-2.538,10.872-5.258c-0.425-0.726-0.714-1.422-0.911-2.028      c-1.061-3.273-0.238-6.426,1.17-7.583c0.775-0.64,1.742-0.739,2.585-0.269c1.632,0.906,2.155,3.363,1.365,6.413      c-0.301,1.162-0.771,2.326-1.405,3.438c1.65,1.971,4.751,3.867,10.568,4.225c7.18,0.463,10.211-2.168,11.488-4.433      c0.103-0.183,0.197-0.368,0.283-0.556c-2.754-1.969-4.497-5.23-3.977-7.473c0.269-1.157,1.095-1.924,2.268-2.104      c1.295-0.199,2.535,0.427,3.423,1.713c1.096,1.585,1.644,4.173,1.068,6.806c2.187,0.99,5.704,1.456,10.336-1.587      c4.098-2.694,6.287-5.481,6.508-8.289c0.241-3.072-2.007-5.154-2.03-5.174c-0.472-0.429-0.507-1.162-0.078-1.634      c0.432-0.475,1.165-0.506,1.635-0.079c0.127,0.115,3.108,2.877,2.779,7.068c-0.278,3.556-2.816,6.935-7.544,10.043      c-5.443,3.576-9.76,2.932-12.36,1.84c-0.092,0.188-0.19,0.377-0.295,0.563c-1.311,2.324-4.826,6.123-13.646,5.606      c-6.167-0.377-9.724-2.389-11.773-4.561C320.548,410.987,316.384,413.399,310.817,413.399z M323.409,397.97      c-0.313,0.142-1.064,1.716-0.71,3.942c0.064,0.409,0.182,0.92,0.392,1.485c0.251-0.572,0.439-1.119,0.567-1.618      C324.201,399.685,323.862,398.22,323.409,397.97z M345.584,397.734c-0.036,0-0.071,0.005-0.109,0.009      c-0.229,0.036-0.312,0.113-0.365,0.341c-0.211,0.911,0.533,2.909,2.372,4.516c0.164-1.627-0.183-3.167-0.839-4.116      C346.444,398.196,346.052,397.734,345.584,397.734z"/>
			</g>
			<g>
				<path style="fill:#FFFFFF;" d="M240.923,352.487c0,0,6.426,8.392-7.276,14.215c-13.702,5.824-18.509-9.5-13.835-9.375      s4.203,16.66-12.746,12.5s-11.135-18.279-8.304-15.959s-2.905,15.009-15.671,12.692c-17.139-3.11-6.238-17.39-6.238-17.39"/>
				<path style="fill:#241726;" d="M212.113,371.65c-1.548,0-3.313-0.206-5.322-0.698c-6.001-1.471-9.141-4.084-10.769-6.589      c-3.131,2.703-7.664,4.324-13.137,3.339c-5.386-0.979-8.768-3.149-10.047-6.453c-2.216-5.721,2.879-12.493,3.097-12.78      c0.389-0.509,1.118-0.604,1.621-0.217c0.509,0.387,0.607,1.112,0.22,1.621c-0.046,0.061-4.53,6.037-2.778,10.545      c0.971,2.5,3.765,4.184,8.301,5.007c5.342,0.97,9.195-0.909,11.636-3.232c-0.288-0.791-0.449-1.526-0.535-2.159      c-0.46-3.409,0.912-6.363,2.504-7.254c0.876-0.488,1.847-0.416,2.592,0.197c1.444,1.184,1.521,3.696,0.2,6.555      c-0.504,1.089-1.174,2.152-1.997,3.133c1.273,2.233,3.985,4.652,9.644,6.042c6.99,1.713,10.436-0.31,12.096-2.31      c0.133-0.16,0.259-0.328,0.376-0.497c-2.36-2.428-3.491-5.947-2.579-8.06c0.471-1.089,1.392-1.655,2.608-1.666      c1.3,0.034,2.416,0.87,3.062,2.294c0.796,1.756,0.874,4.399-0.165,6.89c1.973,1.358,5.353,2.45,10.453,0.283      c4.498-1.912,7.148-4.256,7.876-6.966c0.795-2.959-1.05-5.461-1.069-5.486c-0.382-0.509-0.284-1.234,0.225-1.618      c0.504-0.384,1.229-0.292,1.616,0.217c0.104,0.136,2.545,3.386,1.473,7.452c-0.91,3.449-4.01,6.32-9.214,8.531      c-5.992,2.55-10.13,1.146-12.491-0.396c-0.124,0.17-0.254,0.337-0.39,0.502C219.913,369.446,217.177,371.65,212.113,371.65z       M219.751,358.486c-0.211,0-0.301,0.063-0.39,0.269c-0.371,0.859,0.006,2.957,1.528,4.867c0.452-1.573,0.385-3.149-0.092-4.2      c-0.155-0.344-0.495-0.922-1.015-0.936C219.771,358.486,219.761,358.486,219.751,358.486z M198.029,354.765      c-0.333,0.086-1.352,1.499-1.403,3.752c-0.01,0.414,0.015,0.938,0.121,1.533c0.349-0.518,0.632-1.024,0.848-1.49      C198.502,356.596,198.43,355.093,198.029,354.765z"/>
			</g>
			<g>
				<path style="fill:#FFFFFF;" d="M256.632,398.26c0,0,1.702,10.211-11.345,14.749c-13.047,4.538-15.316-16.451-11.913-14.749      c3.404,1.702,0,18.153-13.615,17.018c-13.615-1.135-10.778-18.72-7.375-18.72c3.404,0,5.673,12.48-12.48,14.749      c-18.153,2.269-11.345-17.018-11.345-17.018"/>
				<path style="fill:#241726;" d="M221.087,416.491c-0.463,0-0.937-0.02-1.423-0.061c-5.38-0.448-8.499-3.32-10.036-6.824      c-2.378,1.318-5.522,2.344-9.579,2.85c-5.434,0.674-9.357-0.427-11.66-3.289c-4.335-5.384-1.062-14.862-0.921-15.262      c0.214-0.606,0.872-0.92,1.476-0.707c0.602,0.212,0.919,0.872,0.707,1.476c-0.031,0.086-2.986,8.671,0.542,13.045      c1.769,2.195,4.995,3.015,9.568,2.441c3.987-0.5,6.964-1.51,9.112-2.783c-0.372-1.501-0.505-3.045-0.444-4.512      c0.155-3.709,1.563-7.464,3.957-7.464c1.85,0,3.313,1.919,3.478,4.561c0.17,2.721-1.022,5.87-4.283,8.37      c1.039,2.654,3.319,5.377,8.276,5.791c6.28,0.511,10.247-2.979,12.201-7.075c-1.499-3.827-1.651-8.008-0.422-9.408      c0.583-0.662,1.449-0.821,2.255-0.418c2.156,1.078,2.216,4.787,1.319,7.986c-0.172,0.613-0.384,1.234-0.637,1.854      c0.346,0.744,0.762,1.474,1.26,2.159c2.256,3.097,5.306,4.01,9.075,2.694c11.912-4.143,10.642-13.092,10.582-13.472      c-0.099-0.628,0.329-1.223,0.957-1.325c0.639-0.113,1.223,0.321,1.327,0.949c0.019,0.111,1.703,11.229-12.106,16.035      c-4.887,1.695-9.144,0.301-11.996-3.933c-0.13-0.194-0.257-0.393-0.379-0.594C230.963,413.345,226.947,416.491,221.087,416.491z       M212.385,397.716c-0.648,0.215-2.025,3.433-1.565,7.48c0.025,0.217,0.057,0.448,0.096,0.685c2-1.829,2.751-3.931,2.637-5.773      C213.457,398.56,212.731,397.716,212.385,397.716z M233.184,399.755c-0.114,0.698-0.096,1.876,0.14,3.255      C233.554,401.496,233.422,400.357,233.184,399.755z"/>
			</g>
		</g>
		<g>
			<path style="fill:#FFFFFF;" d="M291.565,244.062c-0.472,0-0.917-0.292-1.087-0.762c-1.31-3.592-4.616-6.241-4.648-6.268     c-0.501-0.396-0.585-1.123-0.189-1.625c0.399-0.502,1.126-0.588,1.626-0.188c0.157,0.124,3.855,3.088,5.385,7.29     c0.219,0.599-0.09,1.264-0.691,1.483C291.83,244.039,291.696,244.062,291.565,244.062z"/>
			<path style="fill:#FFFFFF;" d="M290.148,229.39c-0.472,0-0.915-0.292-1.087-0.762c-1.303-3.574-4.617-6.241-4.651-6.268     c-0.5-0.398-0.583-1.126-0.185-1.625c0.398-0.504,1.126-0.585,1.624-0.188c0.157,0.124,3.854,3.088,5.386,7.29     c0.219,0.599-0.09,1.264-0.691,1.483C290.414,229.367,290.281,229.39,290.148,229.39z"/>
			<path style="fill:#FFFFFF;" d="M278.113,230.285c-0.472,0-0.917-0.292-1.087-0.762c-1.303-3.574-4.617-6.243-4.65-6.27     c-0.5-0.398-0.583-1.126-0.185-1.625c0.399-0.504,1.125-0.585,1.624-0.188c0.157,0.124,3.855,3.09,5.385,7.292     c0.219,0.599-0.09,1.264-0.691,1.483C278.379,230.262,278.244,230.285,278.113,230.285z"/>
			<path style="fill:#FFFFFF;" d="M268.978,215.649c-0.472,0-0.917-0.292-1.087-0.762c-1.31-3.592-4.616-6.241-4.648-6.268     c-0.501-0.396-0.585-1.123-0.189-1.625c0.398-0.502,1.126-0.588,1.626-0.188c0.157,0.124,3.855,3.088,5.385,7.29     c0.219,0.599-0.09,1.264-0.691,1.483C269.243,215.626,269.109,215.649,268.978,215.649z"/>
			<path style="fill:#FFFFFF;" d="M271.438,238.088c-0.472,0-0.917-0.292-1.087-0.762c-1.302-3.571-4.617-6.241-4.65-6.268     c-0.5-0.398-0.583-1.126-0.185-1.625c0.398-0.504,1.126-0.585,1.624-0.188c0.157,0.124,3.855,3.09,5.385,7.29     c0.219,0.599-0.09,1.264-0.691,1.483C271.704,238.065,271.571,238.088,271.438,238.088z"/>
			<path style="fill:#FFFFFF;" d="M285.178,252.059c-0.472,0-0.915-0.292-1.087-0.762c-1.303-3.574-4.617-6.241-4.651-6.268     c-0.5-0.398-0.583-1.126-0.185-1.625c0.398-0.504,1.125-0.585,1.624-0.188c0.157,0.124,3.854,3.088,5.386,7.29     c0.219,0.599-0.09,1.264-0.691,1.483C285.443,252.036,285.31,252.059,285.178,252.059z"/>
			<path style="fill:#FFFFFF;" d="M305.181,243.603c-0.472,0-0.917-0.292-1.087-0.762c-1.31-3.592-4.616-6.241-4.648-6.268     c-0.501-0.396-0.585-1.123-0.189-1.625c0.4-0.502,1.127-0.588,1.626-0.188c0.157,0.124,3.855,3.088,5.385,7.29     c0.219,0.599-0.09,1.264-0.691,1.483C305.447,243.58,305.312,243.603,305.181,243.603z"/>
			<path style="fill:#FFFFFF;" d="M305.162,257.314c-0.472,0-0.915-0.292-1.087-0.762c-1.303-3.574-4.618-6.243-4.651-6.27     c-0.5-0.398-0.583-1.126-0.185-1.625c0.397-0.504,1.125-0.585,1.624-0.188c0.157,0.124,3.854,3.09,5.386,7.292     c0.219,0.599-0.09,1.264-0.691,1.483C305.427,257.292,305.294,257.314,305.162,257.314z"/>
		</g>
	</g>
</g>















</svg>
