<?xml version="1.0" encoding="UTF-8"?>
<!-- Generator: Adobe Illustrator 25.2.0, SVG Export Plug-In . SVG Version: 6.00 Build 0)  -->
<svg xmlns="http://www.w3.org/2000/svg" xmlns:xlink="http://www.w3.org/1999/xlink" version="1.1" id="Capa_1" x="0px" y="0px" viewBox="0 0 512 512" style="enable-background:new 0 0 512 512;" xml:space="preserve" width="512" height="512">
<g>
	<g>
		<path style="fill:#241726;" d="M242.548,146.348c0,0,11.869,153.316,0.753,157.661c-125.925,49.212-200.496,5.897-210.628,4.45    c-10.132-1.447-2.895-146.189-2.895-146.189L242.548,146.348z"/>
		<path style="fill:#E2394B;" d="M156.386,91.437c0,0,7.805-21.568,23.947-17.843s8.807,24.301,8.807,24.301    s18.778-28.759,35.542-18.204s2.815,26.118,2.815,26.118s17.205-8.078,32.727,6.823c15.522,14.901-12.859,30.43-12.859,30.43    s22.351,1.863,17.384,18.626s-39.736,11.797-39.736,11.797s16.763,15.522-8.071,25.456s-37.252-7.45-37.252-7.45    s3.179,14.78-21.656,19.747c-24.835,4.967-27.291-22.841-27.291-22.841s-7.385,27.312-31.068,21.391    c-18.335-4.584-18.844-21.9-18.844-21.9s-12.898,15.4-30.282,12.917S37.51,174.105,37.51,174.105s-20.987,10.298-29.132,3.517    c-24.418-20.33,12.306-31.717,12.306-31.717S-6.743,134.981,7.537,120.08s34.747-2.348,34.747-2.348s-9.642-33.474,16.434-30.991    s29.112,17.843,29.112,17.843s-0.297-23.99,12.678-27.234c16.904-4.226,19.721,21.599,19.721,21.599s1.064-24.751,15.965-27.234    C151.096,69.232,156.386,91.437,156.386,91.437z"/>
		<path style="fill:#241726;" d="M106.852,190.27c-0.315,0-0.634-0.011-0.955-0.032c-3.281-0.219-6.021-1.596-8.142-4.092    c-4.362-5.133-5.005-13.849-4.983-18.794c-6.177,5.08-20.524,15.545-28.993,10.71c-2.29-1.307-3.698-3.235-4.193-5.732    c-0.94-4.757,1.815-10.617,4.135-14.498c-7.285,2.528-20.45,5.92-23.618-1.215c-0.82-1.844-0.796-3.771,0.07-5.572    c2.984-6.206,15.231-9.572,16.618-9.936c0.848-0.216,1.693,0.282,1.913,1.119c0.22,0.837-0.282,1.694-1.117,1.913    c-3.382,0.889-12.593,4.105-14.591,8.265c-0.471,0.986-0.481,1.919-0.028,2.938c2.485,5.602,18.705,0.161,24.194-2.186    c0.658-0.282,1.42-0.084,1.858,0.482c0.438,0.566,0.435,1.356-0.003,1.919c-2.118,2.729-7.389,10.952-6.354,16.165    c0.315,1.586,1.188,2.769,2.672,3.617c7.126,4.063,22.7-7.782,28.102-12.692c0.478-0.436,1.175-0.528,1.754-0.242    c0.579,0.291,0.921,0.906,0.86,1.552c-0.015,0.138-1.252,13.871,4.096,20.162c1.573,1.849,3.523,2.827,5.96,2.989    c2.666,0.167,4.879-0.565,6.789-2.276c5.709-5.119,6.272-16.831,6.275-16.948c0.037-0.863,0.634-1.596,1.635-1.498    c0.863,0.037,1.537,0.768,1.5,1.633c-0.024,0.534-0.637,13.157-7.319,19.148C112.686,189.229,109.955,190.27,106.852,190.27z"/>
		<path style="fill:#241726;" d="M165.337,175.342c-4.258,0-7.726-1.195-10.34-3.571c-5.344-4.853-4.992-12.776-4.974-13.112    c0.046-0.863,0.787-1.48,1.644-1.481c0.863,0.044,1.527,0.781,1.485,1.644c-0.003,0.067-0.279,6.804,3.967,10.643    c2.657,2.403,6.593,3.238,11.736,2.463c3.854-0.577,6.348-2.086,7.42-4.481c2.651-5.938-3.269-15.782-4.227-17.31    c-0.077-0.121-0.129-0.202-0.15-0.236c-0.453-0.727-0.236-1.685,0.487-2.147c0.713-0.465,1.68-0.262,2.152,0.456    c0.021,0.031,0.07,0.106,0.144,0.219c1.032,1.575,8.607,12.662,18.433,14.907c4.12,0.934,8.142,0.184,11.974-2.234    c4.059-2.564,6.327-5.75,6.743-9.469c0.955-8.568-7.845-17.479-7.934-17.568c-0.612-0.611-0.612-1.601,0-2.213    c0.612-0.615,1.607-0.614,2.213-0.005c0.003,0,0.003,0.002,0.003,0.002l0,0c0,0,0,0.002,0.003,0.002    c0.493,0.488,10.928,10.589,23.034,4.319c2.329-1.204,3.538-2.677,3.691-4.5c0.441-5.272-7.662-12.585-10.817-14.957    c-0.692-0.52-0.833-1.501-0.312-2.195c0.52-0.693,1.506-0.826,2.192-0.312c1.304,0.978,12.721,9.784,12.06,17.723    c-0.245,2.945-2.054,5.308-5.375,7.026c-7.264,3.762-14.059,2.423-18.972,0.204c2.085,3.607,3.848,8.174,3.33,12.822    c-0.526,4.714-3.281,8.673-8.188,11.772c-4.567,2.885-9.391,3.771-14.356,2.635c-5.145-1.178-9.633-4.354-13.089-7.608    c0.888,3.33,1.169,6.922-0.178,9.939c-1.534,3.44-4.836,5.563-9.816,6.31C167.923,175.236,166.595,175.342,165.337,175.342z"/>
		<path style="fill:#241726;" d="M125.058,138.134c-0.857,0-1.717-0.164-2.577-0.491c-7.04-2.683-9.44-10.147-10.257-15.008    c-3.493,4.789-9.945,12.636-15.47,13.786c-1.699,0.349-3.214,0.09-4.518-0.781c-7.772-5.184-3.578-19.993-3.398-20.622    c0.242-0.83,1.117-1.316,1.941-1.067c0.833,0.24,1.31,1.11,1.071,1.941c-1.059,3.667-2.743,13.894,2.124,17.14    c0.6,0.399,1.286,0.499,2.14,0.32c5.335-1.11,13.312-11.913,15.938-15.983c0.376-0.583,1.084-0.852,1.757-0.654    c0.667,0.196,1.126,0.807,1.126,1.501c0,0.132,0.129,13.245,8.659,16.495c1.148,0.436,2.265,0.36,3.401-0.23    c5.124-2.674,9.085-14.584,10.178-18.947c0.181-0.713,0.725-1.143,1.573-1.185c0.738,0.024,1.359,0.56,1.491,1.287    c0.122,0.683,3.214,16.713,17.842,17.131c3.327,0.096,5.513-0.758,6.783-2.602c2.908-4.209,0.328-12.945-0.909-15.957    c-0.331-0.799,0.052-1.716,0.851-2.045c0.805-0.332,1.717,0.049,2.045,0.849c0.208,0.505,5.063,12.455,0.597,18.929    c-1.901,2.752-5.066,4.07-9.458,3.959c-11.5-0.329-16.924-8.956-19.266-14.688c-1.84,5.352-5.338,13.47-10.276,16.045    C127.332,137.844,126.2,138.134,125.058,138.134z"/>
		<path style="fill:#FFFFFF;" d="M122.854,309.461c-9.366,0-17.799-0.308-25.188-0.77c-33.398-2.088-53.233-7.704-53.432-7.761    c-0.83-0.239-1.31-1.107-1.071-1.939c0.236-0.833,1.108-1.316,1.938-1.073c0.781,0.22,78.88,21.958,190.185-5.617    c0.845-0.211,1.69,0.305,1.898,1.145c0.208,0.84-0.303,1.69-1.145,1.898C191.502,306.377,152.515,309.461,122.854,309.461z"/>
		<g>
			<path style="fill:#FFFFFF;" d="M223.351,280.105c-0.643,0-1.273-0.046-1.879-0.152c-0.851-0.148-1.423-0.96-1.273-1.814     c0.147-0.856,0.973-1.425,1.812-1.275c4.022,0.692,10.199-2.126,10.26-2.155c0.802-0.364,1.72-0.017,2.081,0.767     c0.361,0.785,0.021,1.716-0.765,2.078C233.333,277.673,228.016,280.105,223.351,280.105z"/>
			<path style="fill:#FFFFFF;" d="M202.074,275.636c-0.643,0-1.273-0.046-1.876-0.15c-0.851-0.148-1.423-0.96-1.273-1.812     c0.147-0.856,0.973-1.419,1.812-1.276c3.991,0.699,10.196-2.127,10.26-2.156c0.802-0.361,1.72-0.015,2.081,0.767     c0.361,0.785,0.021,1.716-0.765,2.078C212.059,273.204,206.739,275.636,202.074,275.636z"/>
			<path style="fill:#FFFFFF;" d="M203.247,287.523c-0.643,0-1.273-0.046-1.879-0.152c-0.851-0.148-1.423-0.96-1.273-1.814     c0.147-0.856,0.964-1.42,1.812-1.275c4.022,0.696,10.196-2.126,10.257-2.155c0.802-0.361,1.72-0.015,2.081,0.767     c0.361,0.785,0.021,1.716-0.765,2.078C213.225,285.091,207.911,287.523,203.247,287.523z"/>
			<path style="fill:#FFFFFF;" d="M181.893,285.728c-0.643,0-1.276-0.046-1.879-0.152c-0.851-0.148-1.423-0.961-1.273-1.814     c0.147-0.854,0.97-1.414,1.812-1.275c4.019,0.706,10.196-2.124,10.257-2.155c0.802-0.36,1.72-0.018,2.081,0.767     c0.361,0.785,0.021,1.716-0.765,2.078C191.872,283.296,186.555,285.728,181.893,285.728z"/>
			<path style="fill:#FFFFFF;" d="M175.285,276.735c-0.643,0-1.276-0.046-1.879-0.152c-0.851-0.148-1.423-0.961-1.273-1.814     c0.147-0.856,0.967-1.423,1.812-1.275c4.022,0.702,10.196-2.124,10.257-2.155c0.802-0.364,1.72-0.017,2.081,0.767     c0.361,0.785,0.021,1.716-0.765,2.078C185.264,274.303,179.947,276.735,175.285,276.735z"/>
			<path style="fill:#FFFFFF;" d="M163.05,289.361c-0.643,0-1.276-0.046-1.879-0.152c-0.851-0.148-1.423-0.961-1.273-1.814     c0.147-0.854,0.97-1.414,1.812-1.275c4.019,0.704,10.196-2.124,10.257-2.155c0.805-0.36,1.717-0.018,2.081,0.767     c0.361,0.785,0.021,1.716-0.765,2.078C173.029,286.93,167.712,289.361,163.05,289.361z"/>
		</g>
	</g>
	<g>
		<path style="fill:#241726;" d="M489.079,125.89c0,0,11.869,153.316,0.753,157.661c-125.925,49.212-200.496,5.897-210.628,4.45    c-10.132-1.447-2.895-146.189-2.895-146.189L489.079,125.89z"/>
		<path style="fill:#F08760;" d="M402.917,70.98c0,0,7.805-21.568,23.947-17.843s8.807,24.301,8.807,24.301    s18.778-28.759,35.542-18.204s2.815,26.118,2.815,26.118s17.205-8.078,32.727,6.823c15.522,14.901-12.859,30.43-12.859,30.43    s22.351,1.863,17.384,18.626c-4.967,16.763-39.736,11.797-39.736,11.797s16.763,15.522-8.071,25.456    c-24.835,9.934-37.252-7.45-37.252-7.45s3.179,14.78-21.656,19.747c-24.835,4.967-27.291-22.841-27.291-22.841    s-7.385,27.312-31.068,21.391c-18.335-4.584-18.844-21.9-18.844-21.9s-12.898,15.4-30.282,12.917    c-17.384-2.483-13.038-26.697-13.038-26.697s-20.987,10.298-29.132,3.517c-24.418-20.33,12.306-31.717,12.306-31.717    s-27.428-10.925-13.148-25.825c14.28-14.901,34.747-2.348,34.747-2.348s-9.642-33.474,16.434-30.991    c26.077,2.483,29.112,17.843,29.112,17.843s-0.297-23.99,12.678-27.234c16.904-4.226,19.721,21.599,19.721,21.599    s1.064-24.751,15.965-27.234S402.917,70.98,402.917,70.98z"/>
		<path style="fill:#241726;" d="M353.382,169.812c-0.315,0-0.634-0.011-0.955-0.032c-3.281-0.219-6.021-1.596-8.142-4.092    c-4.362-5.133-5.005-13.849-4.983-18.794c-6.177,5.083-20.539,15.542-28.99,10.71c-2.29-1.307-3.701-3.235-4.193-5.733    c-0.943-4.755,1.815-10.615,4.135-14.497c-7.285,2.53-20.453,5.92-23.621-1.215c-0.82-1.844-0.796-3.771,0.07-5.571    c2.984-6.208,15.234-9.572,16.621-9.936c0.848-0.208,1.696,0.282,1.913,1.119c0.22,0.837-0.282,1.694-1.117,1.915    c-3.382,0.888-12.596,4.102-14.595,8.261c-0.471,0.986-0.481,1.919-0.028,2.939c2.485,5.602,18.708,0.161,24.197-2.186    c0.661-0.286,1.423-0.084,1.858,0.482c0.438,0.566,0.435,1.356-0.003,1.919c-2.118,2.729-7.389,10.952-6.358,16.163    c0.315,1.587,1.191,2.77,2.675,3.618c7.129,4.077,22.697-7.782,28.099-12.692c0.478-0.433,1.172-0.533,1.754-0.24    c0.579,0.289,0.921,0.905,0.86,1.55c-0.015,0.138-1.252,13.871,4.096,20.162c1.573,1.849,3.523,2.827,5.96,2.989    c2.666,0.165,4.879-0.566,6.789-2.276c5.709-5.119,6.272-16.831,6.275-16.948c0.037-0.865,0.631-1.586,1.635-1.498    c0.863,0.037,1.537,0.768,1.5,1.633c-0.024,0.534-0.637,13.157-7.319,19.148C359.217,168.771,356.486,169.812,353.382,169.812z"/>
		<path style="fill:#241726;" d="M411.868,154.884c-4.258,0-7.726-1.195-10.34-3.571c-5.344-4.853-4.992-12.776-4.974-13.112    c0.043-0.863,0.826-1.471,1.644-1.482c0.863,0.044,1.527,0.781,1.485,1.644c-0.003,0.067-0.279,6.804,3.967,10.643    c2.657,2.401,6.593,3.24,11.736,2.463c3.854-0.577,6.348-2.086,7.42-4.483c2.651-5.937-3.266-15.782-4.224-17.308    c-0.077-0.121-0.129-0.202-0.15-0.236c-0.453-0.727-0.236-1.685,0.487-2.147c0.713-0.464,1.68-0.263,2.152,0.456    c0.021,0.032,0.07,0.106,0.144,0.219c1.032,1.573,8.604,12.66,18.43,14.905c4.108,0.937,8.142,0.188,11.977-2.233    c4.059-2.564,6.327-5.75,6.74-9.467c0.955-8.569-7.845-17.481-7.934-17.57c-0.612-0.611-0.612-1.601,0-2.213    c0.612-0.615,1.607-0.614,2.213-0.005c0.003,0,0.003,0.002,0.003,0.002l0,0c0,0,0,0.002,0.003,0.002    c0.493,0.488,10.928,10.586,23.034,4.319c2.329-1.204,3.538-2.677,3.691-4.5c0.441-5.272-7.662-12.585-10.817-14.957    c-0.692-0.52-0.833-1.501-0.312-2.195c0.517-0.693,1.503-0.826,2.192-0.312c1.304,0.978,12.721,9.784,12.06,17.723    c-0.245,2.945-2.054,5.308-5.375,7.026c-7.267,3.76-14.062,2.42-18.972,0.204c2.085,3.607,3.848,8.176,3.33,12.822    c-0.526,4.714-3.278,8.675-8.185,11.772c-4.567,2.885-9.406,3.766-14.359,2.635c-5.145-1.178-9.633-4.354-13.086-7.609    c0.885,3.33,1.166,6.924-0.181,9.94c-1.534,3.44-4.836,5.563-9.816,6.31C414.454,154.778,413.126,154.884,411.868,154.884z"/>
		<path style="fill:#241726;" d="M371.589,117.678c-0.857,0-1.717-0.164-2.577-0.491c-7.04-2.683-9.44-10.147-10.257-15.009    c-3.493,4.789-9.945,12.639-15.47,13.788c-1.687,0.344-3.211,0.087-4.515-0.782c-7.775-5.182-3.581-19.993-3.401-20.622    c0.239-0.83,1.114-1.312,1.941-1.067c0.833,0.24,1.31,1.11,1.071,1.941c-1.059,3.667-2.743,13.894,2.127,17.14    c0.597,0.399,1.286,0.499,2.14,0.32c5.338-1.11,13.312-11.913,15.935-15.983c0.376-0.582,1.084-0.854,1.757-0.654    c0.667,0.196,1.126,0.807,1.126,1.501c0,0.132,0.129,13.246,8.659,16.497c1.148,0.436,2.256,0.36,3.401-0.23    c5.124-2.674,9.085-14.584,10.178-18.949c0.181-0.713,0.732-1.169,1.573-1.185c0.738,0.024,1.359,0.56,1.491,1.287    c0.122,0.683,3.214,16.713,17.842,17.131c3.321,0.112,5.513-0.758,6.783-2.602c2.908-4.209,0.328-12.945-0.909-15.955    c-0.331-0.799,0.052-1.716,0.851-2.045c0.802-0.331,1.717,0.049,2.045,0.849c0.208,0.505,5.063,12.453,0.597,18.927    c-1.901,2.752-5.041,4.037-9.458,3.959c-11.5-0.329-16.924-8.956-19.266-14.688c-1.84,5.352-5.338,13.471-10.276,16.047    C373.863,117.387,372.728,117.678,371.589,117.678z"/>
		<path style="fill:#FFFFFF;" d="M369.388,289.003c-9.37,0-17.799-0.308-25.188-0.768c-33.398-2.088-53.233-7.706-53.432-7.763    c-0.83-0.239-1.31-1.107-1.071-1.939c0.239-0.833,1.111-1.309,1.938-1.073c0.781,0.222,78.874,21.956,190.182-5.617    c0.845-0.208,1.69,0.305,1.898,1.145c0.208,0.84-0.303,1.69-1.145,1.898C438.036,285.919,399.046,289.003,369.388,289.003z"/>
		<g>
			<path style="fill:#FFFFFF;" d="M469.879,259.649c-0.643,0-1.273-0.047-1.876-0.152c-0.851-0.148-1.423-0.96-1.273-1.812     c0.147-0.857,0.964-1.42,1.812-1.276c3.995,0.696,10.199-2.127,10.26-2.156c0.802-0.361,1.717-0.015,2.081,0.767     c0.361,0.785,0.021,1.716-0.765,2.078C479.863,257.216,474.543,259.649,469.879,259.649z"/>
			<path style="fill:#FFFFFF;" d="M448.605,255.18c-0.643,0-1.273-0.047-1.876-0.152c-0.851-0.148-1.423-0.96-1.273-1.812     c0.147-0.857,0.961-1.425,1.812-1.276c3.318,0.583,8.54-1.358,10.26-2.153c0.79-0.363,1.717-0.021,2.081,0.764     c0.361,0.787,0.021,1.717-0.765,2.08C458.59,252.748,453.27,255.18,448.605,255.18z"/>
			<path style="fill:#FFFFFF;" d="M449.774,267.066c-0.643,0-1.273-0.046-1.876-0.15c-0.851-0.148-1.423-0.96-1.273-1.812     c0.147-0.856,0.967-1.416,1.812-1.276c3.998,0.701,10.199-2.127,10.26-2.156c0.805-0.366,1.72-0.015,2.081,0.767     c0.361,0.785,0.021,1.716-0.765,2.078C459.759,264.634,454.439,267.066,449.774,267.066z"/>
			<path style="fill:#FFFFFF;" d="M428.421,265.27c-0.643,0-1.273-0.046-1.876-0.15c-0.851-0.148-1.423-0.96-1.273-1.812     c0.147-0.857,0.961-1.423,1.812-1.276c4.004,0.696,10.196-2.127,10.257-2.156c0.802-0.364,1.717-0.017,2.081,0.767     c0.361,0.785,0.021,1.716-0.765,2.078C438.403,262.838,433.083,265.27,428.421,265.27z"/>
			<path style="fill:#FFFFFF;" d="M421.816,256.277c-0.643,0-1.276-0.046-1.879-0.152c-0.851-0.148-1.423-0.961-1.273-1.814     c0.147-0.854,0.973-1.416,1.812-1.275c4.019,0.695,10.196-2.126,10.257-2.155c0.802-0.361,1.72-0.015,2.081,0.767     c0.361,0.785,0.021,1.716-0.765,2.078C431.794,253.845,426.478,256.277,421.816,256.277z"/>
			<path style="fill:#FFFFFF;" d="M409.578,268.904c-0.643,0-1.273-0.046-1.876-0.15c-0.851-0.148-1.423-0.96-1.273-1.812     c0.147-0.857,0.961-1.423,1.812-1.276c4.004,0.695,10.196-2.127,10.257-2.156c0.802-0.364,1.72-0.017,2.081,0.767     c0.361,0.785,0.021,1.716-0.765,2.078C419.56,266.472,414.24,268.904,409.578,268.904z"/>
		</g>
	</g>
	<g>
		<g>
			<path style="fill:#241726;" d="M482.711,279.83c0,0,11.869,153.316,0.753,157.661c-125.925,49.212-200.496,5.897-210.628,4.45     c-10.132-1.447-2.895-146.189-2.895-146.189L482.711,279.83z"/>
			<path style="fill:#FFFFFF;" d="M363.015,442.944c-9.366,0-17.796-0.308-25.185-0.77c-33.398-2.088-53.233-7.704-53.429-7.761     c-0.833-0.239-1.313-1.107-1.074-1.939c0.236-0.833,1.108-1.309,1.938-1.073c0.777,0.22,78.877,21.955,190.182-5.618     c0.839-0.21,1.687,0.305,1.898,1.145c0.208,0.84-0.303,1.69-1.145,1.898C431.663,439.859,392.676,442.944,363.015,442.944z"/>
			<g>
				<path style="fill:#FFFFFF;" d="M463.515,413.588c-0.643,0-1.276-0.046-1.879-0.152c-0.851-0.148-1.423-0.961-1.273-1.814      c0.147-0.854,0.97-1.416,1.812-1.275c4.031,0.706,10.196-2.124,10.257-2.155c0.802-0.361,1.717-0.017,2.081,0.767      c0.361,0.785,0.021,1.716-0.765,2.078C473.494,411.156,468.177,413.588,463.515,413.588z"/>
				<path style="fill:#FFFFFF;" d="M442.241,409.119c-0.643,0-1.276-0.046-1.879-0.152c-0.851-0.148-1.423-0.961-1.273-1.814      c0.147-0.856,0.967-1.419,1.812-1.275c4.031,0.704,10.196-2.124,10.257-2.155c0.805-0.366,1.72-0.015,2.081,0.767      c0.361,0.785,0.021,1.716-0.765,2.078C452.22,406.687,446.903,409.119,442.241,409.119z"/>
				<path style="fill:#FFFFFF;" d="M443.408,421.006c-0.643,0-1.273-0.046-1.879-0.152c-0.851-0.148-1.423-0.96-1.273-1.814      c0.147-0.856,0.961-1.425,1.812-1.275c4.019,0.698,10.199-2.126,10.26-2.155c0.805-0.364,1.717-0.015,2.081,0.767      c0.361,0.785,0.021,1.716-0.765,2.078C453.389,418.574,448.073,421.006,443.408,421.006z"/>
				<path style="fill:#FFFFFF;" d="M422.055,419.211c-0.643,0-1.273-0.046-1.879-0.152c-0.851-0.148-1.423-0.96-1.273-1.814      c0.147-0.856,0.97-1.419,1.812-1.275c4.028,0.704,10.199-2.124,10.26-2.155c0.799-0.363,1.717-0.017,2.081,0.767      c0.361,0.785,0.021,1.716-0.765,2.078C432.036,416.779,426.719,419.211,422.055,419.211z"/>
				<path style="fill:#FFFFFF;" d="M415.443,410.216c-0.643,0-1.273-0.046-1.876-0.15c-0.851-0.148-1.423-0.96-1.273-1.812      c0.147-0.856,0.967-1.416,1.812-1.276c3.998,0.695,10.199-2.127,10.26-2.156c0.805-0.36,1.72-0.015,2.081,0.767      c0.361,0.785,0.021,1.716-0.765,2.078C425.428,407.784,420.108,410.216,415.443,410.216z"/>
				<path style="fill:#FFFFFF;" d="M403.211,422.844c-0.643,0-1.273-0.046-1.879-0.152c-0.851-0.148-1.423-0.96-1.273-1.814      c0.147-0.854,0.97-1.417,1.812-1.275c4.028,0.69,10.199-2.126,10.26-2.155c0.805-0.364,1.72-0.017,2.081,0.767      c0.361,0.785,0.021,1.716-0.765,2.078C413.193,420.412,407.876,422.844,403.211,422.844z"/>
			</g>
			<g>
				<path style="fill:#FFFFFF;" d="M346.447,235.5c0,0,80.417-10.339,118.328,17.232c41.974,30.526,24.125,59.738-71.226,70.078      s-130.804-14.134-122.923-42.506C282.114,238.947,346.447,235.5,346.447,235.5z"/>
				<path style="fill:#241726;" d="M352.348,326.794c-39.547,0-67.552-8.193-78.859-23.067c-5.268-6.931-6.78-15.176-4.371-23.842      c11.653-41.961,74.571-45.807,77.246-45.951c0.031-0.008,14.98-1.901,34.714-1.901c26.413,0,62.535,3.372,84.62,19.432      c16.924,12.307,24.319,24.621,21.39,35.611c-4.876,18.301-37.163,31.196-93.371,37.291      C378.877,325.978,364.959,326.794,352.348,326.794z M381.078,235.168c-19.535,0-34.286,1.867-34.432,1.887      c-0.747,0.044-63.456,3.883-74.509,43.669c-2.164,7.796-0.869,14.898,3.851,21.107c14.166,18.638,57.236,25.943,117.393,19.422      c54.026-5.859,86.23-18.283,90.68-34.982c2.565-9.631-4.42-20.79-20.205-32.27C442.453,238.435,407.028,235.168,381.078,235.168      z"/>
			</g>
		</g>
		<path style="fill:#EB867B;" d="M342.955,272.471c0,0,1.677,20.127,28.513,24.6c26.836,4.473,40.254-3.355,39.136-10.623    c-1.118-7.268-23.482-37.459-43.609-31.868C346.868,260.171,342.955,272.471,342.955,272.471z"/>
		<path style="fill:#F08760;" d="M367.402,299.395c0,0-5.997,2.443-17.102-6.219c-11.105-8.662-6.885-13.326-12.216-15.992    s-12.216,9.551-14.881,18.213s20.212,19.101,32.427,16.88S372.288,301.616,367.402,299.395z"/>
		<path style="fill:#9BA058;" d="M398.053,259.86c0,0,4.442,1.777,9.995,10.439s3.776,19.545,10.217,16.214    s15.769-13.77,9.773-22.433C422.04,255.418,397.608,253.641,398.053,259.86z"/>
		<g>
			<path style="fill:#FFFFFF;" d="M449.235,287.005c0,0,5.204,3.903-2.168,9.107c-7.373,5.204-12.143,0.434-12.143,0.434     s4.77,6.505-1.735,9.975c-6.505,3.469-17.781-3.903-17.781-3.903s3.036,5.204-5.638,9.541c-8.674,4.337-16.48-8.24-16.48-8.24"/>
			<path style="fill:#241726;" d="M405.979,314.659c-7.763,0-13.725-9.44-14.019-9.914c-0.456-0.735-0.23-1.7,0.505-2.156     c0.738-0.458,1.705-0.228,2.158,0.502c0.07,0.113,7.147,11.307,14.448,7.666c2.798-1.397,4.561-3.044,5.103-4.76     c0.468-1.477-0.104-2.565-0.129-2.611c-0.34-0.631-0.217-1.425,0.312-1.91c0.52-0.485,1.304-0.566,1.91-0.17     c2.923,1.908,11.531,6.312,16.186,3.832c1.414-0.753,2.228-1.676,2.495-2.818c0.53-2.296-1.273-4.827-1.292-4.852     c-0.478-0.663-0.37-1.584,0.251-2.114c0.628-0.526,1.549-0.496,2.124,0.083c0.153,0.142,4.001,3.724,10.132-0.606     c2.118-1.495,3.257-2.975,3.287-4.279c0.034-1.348-1.154-2.294-1.166-2.303c-0.676-0.53-0.808-1.511-0.285-2.192     c0.523-0.683,1.494-0.822,2.176-0.306c0.101,0.075,2.452,1.873,2.409,4.824c-0.034,2.388-1.589,4.68-4.616,6.818     c-3.866,2.729-7.331,3.04-9.957,2.45c0.196,0.983,0.245,2.065-0.006,3.16c-0.468,2.058-1.84,3.707-4.077,4.899     c-5.127,2.736-12.455-0.231-16.477-2.314c-0.043,0.393-0.125,0.807-0.254,1.237c-0.784,2.629-3.046,4.894-6.725,6.734     C408.929,314.331,407.423,314.657,405.979,314.659z"/>
		</g>
		<g>
			<path style="fill:#FFFFFF;" d="M334.31,251.01c0,0-11.709-2.168-15.179,3.469s0.434,9.541,0.434,9.541s-13.01-0.867-16.48,6.505     s4.337,15.179,4.337,15.179s-10.842,1.301-11.276,7.373c-0.434,6.071,6.505,9.975,6.505,9.975"/>
			<path style="fill:#241726;" d="M302.647,304.619c-0.26,0-0.523-0.064-0.765-0.202c-0.318-0.179-7.796-4.471-7.3-11.453     c0.37-5.152,6.309-7.398,9.924-8.292c-2.287-3.059-5.595-8.95-2.837-14.813c2.822-5.999,10.762-7.208,15.103-7.406     c-0.872-2.215-1.099-5.341,1.025-8.794c3.988-6.478,16.278-4.285,16.798-4.19c0.851,0.158,1.414,0.975,1.255,1.826     c-0.153,0.848-0.961,1.419-1.824,1.257c-2.966-0.542-11.182-1.111-13.56,2.75c-2.7,4.389-0.089,7.303,0.217,7.62     c0.45,0.467,0.572,1.166,0.3,1.752c-0.276,0.588-0.875,0.921-1.521,0.911c-0.113-0.008-11.987-0.706-14.959,5.609     c-2.951,6.275,3.961,13.333,4.031,13.404c0.419,0.424,0.563,1.053,0.367,1.619c-0.196,0.565-0.695,0.97-1.292,1.044     c-2.657,0.323-9.621,2.02-9.899,5.927c-0.355,4.991,5.65,8.465,5.712,8.5c0.753,0.427,1.016,1.382,0.591,2.135     C303.725,304.332,303.195,304.619,302.647,304.619z"/>
		</g>
		<g>
			<path style="fill:#FFFFFF;" d="M448.802,268.357c0,0,2.168-10.408-4.77-13.878s-12.143-0.434-12.143-0.434     s1.735-9.541-6.505-9.541s-11.709,5.204-11.709,5.204s-2.168-9.541-11.276-7.373s-9.541,6.505-9.541,6.505"/>
			<path style="fill:#241726;" d="M448.804,269.923c-0.107,0-0.214-0.011-0.321-0.032c-0.845-0.174-1.39-1.004-1.215-1.85     c0.018-0.093,1.827-9.278-3.936-12.16c-6.033-3.017-10.475-0.583-10.661-0.476c-0.526,0.3-1.185,0.266-1.68-0.084     s-0.747-0.953-0.643-1.55c0.006-0.041,0.686-4.037-1.154-6.229c-0.826-0.989-2.075-1.469-3.811-1.469     c-7.23,0-10.285,4.33-10.41,4.513c-0.349,0.514-0.967,0.774-1.586,0.657c-0.609-0.115-1.099-0.577-1.24-1.182     c-0.009-0.038-0.912-3.785-3.768-5.551c-1.543-0.95-3.428-1.172-5.617-0.649c-7.68,1.829-8.347,5.156-8.353,5.19     c-0.144,0.83-0.937,1.425-1.76,1.313c-0.836-0.115-1.436-0.84-1.35-1.679c0.055-0.557,0.829-5.514,10.735-7.873     c3.049-0.722,5.739-0.369,8.017,1.047c2.133,1.328,3.45,3.336,4.215,4.942c1.98-1.706,5.577-3.863,11.117-3.863     c2.691,0,4.784,0.875,6.226,2.602c1.558,1.869,1.953,4.339,1.996,6.185c2.43-0.646,6.434-0.995,11.13,1.353     c7.928,3.964,5.699,15.127,5.602,15.6C450.182,269.416,449.53,269.923,448.804,269.923z"/>
		</g>
	</g>
	<g>
		<g>
			<path style="fill:#241726;" d="M249.678,278.968c0,0,11.869,153.316,0.753,157.661c-125.925,49.212-200.496,5.897-210.628,4.45     S36.908,294.89,36.908,294.89L249.678,278.968z"/>
			<path style="fill:#FFFFFF;" d="M129.983,442.082c-9.366,0-17.799-0.308-25.185-0.77c-33.398-2.088-53.233-7.704-53.432-7.761     c-0.83-0.239-1.31-1.107-1.071-1.939c0.236-0.833,1.105-1.309,1.938-1.073c0.781,0.222,78.865,21.961,190.182-5.618     c0.842-0.216,1.69,0.305,1.898,1.145c0.208,0.84-0.303,1.69-1.145,1.898C198.631,438.997,159.64,442.082,129.983,442.082z"/>
			<g>
				<path style="fill:#FFFFFF;" d="M230.48,412.726c-0.643,0-1.273-0.046-1.879-0.152c-0.851-0.148-1.423-0.96-1.273-1.814      c0.147-0.856,0.973-1.42,1.812-1.275c4.022,0.702,10.199-2.126,10.26-2.155c0.802-0.363,1.72-0.017,2.081,0.767      c0.361,0.785,0.021,1.716-0.765,2.078C240.461,410.294,235.145,412.726,230.48,412.726z"/>
				<path style="fill:#FFFFFF;" d="M209.209,408.257c-0.643,0-1.276-0.046-1.879-0.152c-0.851-0.148-1.423-0.961-1.273-1.814      c0.147-0.856,0.97-1.425,1.812-1.275c4.028,0.699,10.196-2.126,10.257-2.155c0.802-0.36,1.717-0.018,2.081,0.767      c0.361,0.785,0.021,1.716-0.765,2.078C219.188,405.826,213.871,408.257,209.209,408.257z"/>
				<path style="fill:#FFFFFF;" d="M210.376,420.145c-0.643,0-1.273-0.046-1.879-0.152c-0.851-0.148-1.423-0.96-1.273-1.814      c0.147-0.854,0.964-1.416,1.812-1.275c4.025,0.693,10.199-2.126,10.26-2.155c0.805-0.36,1.72-0.018,2.081,0.767      s0.021,1.716-0.765,2.078C220.357,417.713,215.04,420.145,210.376,420.145z"/>
				<path style="fill:#FFFFFF;" d="M189.022,418.349c-0.643,0-1.273-0.046-1.879-0.151c-0.851-0.148-1.423-0.96-1.273-1.814      c0.147-0.856,0.97-1.423,1.812-1.275c4.031,0.698,10.196-2.126,10.257-2.155c0.802-0.364,1.72-0.017,2.081,0.767      c0.361,0.785,0.021,1.716-0.765,2.078C199.001,415.917,193.687,418.349,189.022,418.349z"/>
				<path style="fill:#FFFFFF;" d="M182.411,409.356c-0.643,0-1.273-0.047-1.876-0.152c-0.851-0.148-1.423-0.96-1.273-1.812      c0.147-0.857,0.967-1.42,1.812-1.276c4.001,0.703,10.199-2.129,10.26-2.156c0.805-0.361,1.717-0.015,2.081,0.767      c0.361,0.785,0.021,1.716-0.765,2.078C192.396,406.923,187.076,409.356,182.411,409.356z"/>
				<path style="fill:#FFFFFF;" d="M170.179,421.983c-0.643,0-1.273-0.046-1.879-0.152c-0.851-0.148-1.423-0.96-1.273-1.814      c0.147-0.856,0.97-1.423,1.812-1.275c4.031,0.699,10.199-2.126,10.26-2.155c0.802-0.364,1.717-0.015,2.081,0.767      c0.361,0.785,0.021,1.716-0.765,2.078C180.161,419.551,174.844,421.983,170.179,421.983z"/>
			</g>
			<g>
				<path style="fill:#FFFFFF;" d="M113.415,234.638c0,0,80.417-10.339,118.328,17.232c41.974,30.526,24.125,59.738-71.226,70.078      S29.712,307.814,37.593,279.442C49.081,238.085,113.415,234.638,113.415,234.638z"/>
				<path style="fill:#241726;" d="M119.316,325.932c-39.547,0-67.552-8.193-78.859-23.067c-5.268-6.93-6.783-15.175-4.374-23.842      c11.656-41.961,74.574-45.807,77.249-45.951c0.031-0.008,14.98-1.901,34.714-1.901c26.413,0,62.535,3.372,84.62,19.432      c16.924,12.308,24.319,24.622,21.39,35.611c-4.876,18.301-37.163,31.196-93.371,37.291      C145.845,325.116,131.927,325.932,119.316,325.932z M148.046,234.306c-19.535,0-34.286,1.867-34.432,1.887      c-0.747,0.044-63.456,3.883-74.512,43.669c-2.164,7.796-0.869,14.898,3.851,21.107c14.169,18.64,57.236,25.941,117.396,19.422      c54.026-5.859,86.23-18.281,90.68-34.982c2.565-9.63-4.42-20.79-20.205-32.27C209.42,237.573,173.996,234.306,148.046,234.306z"/>
			</g>
		</g>
		<path style="fill:#EB867B;" d="M109.922,271.61c0,0,1.677,20.127,28.513,24.6c26.836,4.473,40.254-3.355,39.136-10.623    c-1.118-7.268-23.482-37.459-43.609-31.868S109.922,271.61,109.922,271.61z"/>
		<path style="fill:#F08760;" d="M134.369,298.533c0,0-5.997,2.443-17.102-6.219s-6.885-13.326-12.216-15.992    s-12.216,9.551-14.881,18.213c-2.665,8.662,20.212,19.101,32.427,16.88C134.814,309.194,139.256,300.754,134.369,298.533z"/>
		<path style="fill:#9BA058;" d="M165.02,258.999c0,0,4.442,1.777,9.995,10.439s3.776,19.545,10.217,16.214    c6.441-3.332,15.769-13.771,9.773-22.433C189.007,254.557,164.576,252.78,165.02,258.999z"/>
		<g>
			<path style="fill:#FFFFFF;" d="M216.203,286.143c0,0,5.204,3.903-2.168,9.107s-12.143,0.434-12.143,0.434s4.77,6.505-1.735,9.975     c-6.505,3.469-17.781-3.903-17.781-3.903s3.036,5.204-5.638,9.541c-8.674,4.337-16.48-8.24-16.48-8.24"/>
			<path style="fill:#241726;" d="M172.946,313.797c-7.763,0-13.725-9.438-14.019-9.913c-0.456-0.735-0.23-1.7,0.505-2.156     c0.738-0.459,1.702-0.228,2.158,0.502c0.07,0.113,7.141,11.301,14.448,7.665c2.798-1.397,4.561-3.044,5.103-4.76     c0.468-1.477-0.104-2.565-0.129-2.611c-0.34-0.631-0.217-1.425,0.312-1.91c0.52-0.481,1.304-0.568,1.91-0.17     c2.926,1.909,11.534,6.312,16.183,3.832c1.414-0.755,2.231-1.676,2.498-2.819c0.53-2.294-1.273-4.826-1.292-4.85     c-0.478-0.663-0.37-1.584,0.251-2.114c0.627-0.528,1.549-0.496,2.124,0.083c0.153,0.144,4.001,3.722,10.132-0.606     c2.118-1.495,3.257-2.975,3.287-4.279c0.034-1.348-1.154-2.294-1.166-2.303c-0.676-0.53-0.808-1.511-0.285-2.192     s1.494-0.825,2.176-0.306c0.101,0.075,2.452,1.873,2.409,4.824c-0.034,2.388-1.589,4.68-4.616,6.818     c-3.869,2.73-7.331,3.044-9.957,2.45c0.196,0.983,0.242,2.063-0.006,3.159c-0.468,2.058-1.843,3.708-4.08,4.902     c-5.118,2.735-12.449-0.233-16.474-2.316c-0.046,0.393-0.126,0.807-0.254,1.237c-0.784,2.629-3.046,4.894-6.725,6.734     C175.897,313.469,174.388,313.795,172.946,313.797z"/>
		</g>
		<g>
			<path style="fill:#FFFFFF;" d="M101.278,250.148c0,0-11.709-2.168-15.179,3.469c-3.469,5.638,0.434,9.541,0.434,9.541     s-13.01-0.867-16.48,6.505c-3.469,7.373,4.337,15.179,4.337,15.179s-10.842,1.301-11.276,7.373     c-0.434,6.072,6.505,9.975,6.505,9.975"/>
			<path style="fill:#241726;" d="M69.618,303.757c-0.26,0-0.526-0.064-0.768-0.201c-0.318-0.181-7.799-4.47-7.3-11.454     c0.37-5.152,6.309-7.398,9.924-8.292c-2.287-3.059-5.595-8.95-2.837-14.813c2.822-5.999,10.762-7.208,15.103-7.406     c-0.872-2.215-1.099-5.341,1.025-8.794c3.988-6.477,16.278-4.287,16.798-4.19c0.851,0.158,1.414,0.975,1.255,1.826     c-0.156,0.848-0.967,1.42-1.824,1.257c-2.966-0.542-11.182-1.113-13.56,2.75c-2.7,4.389-0.089,7.303,0.217,7.62     c0.45,0.467,0.572,1.166,0.3,1.752c-0.275,0.588-0.888,0.935-1.521,0.911c-0.116-0.009-11.987-0.706-14.959,5.609     c-2.951,6.275,3.961,13.333,4.031,13.404c0.419,0.424,0.563,1.053,0.367,1.619c-0.196,0.565-0.695,0.97-1.292,1.044     c-2.657,0.323-9.621,2.02-9.899,5.927c-0.361,5.025,5.647,8.464,5.709,8.497c0.753,0.425,1.022,1.38,0.597,2.135     C70.696,303.469,70.163,303.757,69.618,303.757z"/>
		</g>
		<g>
			<path style="fill:#FFFFFF;" d="M215.769,267.495c0,0,2.168-10.408-4.77-13.878c-6.939-3.469-12.143-0.434-12.143-0.434     s1.735-9.541-6.505-9.541s-11.709,5.204-11.709,5.204s-2.168-9.541-11.276-7.373c-9.107,2.168-9.541,6.505-9.541,6.505"/>
			<path style="fill:#241726;" d="M215.772,269.061c-0.107,0-0.211-0.011-0.318-0.032c-0.848-0.174-1.393-1.004-1.218-1.85     c0.018-0.093,1.827-9.278-3.936-12.16c-6.113-3.056-10.612-0.508-10.655-0.481c-0.526,0.305-1.185,0.28-1.687-0.07     c-0.499-0.349-0.753-0.96-0.646-1.561c0.006-0.04,0.689-4.036-1.151-6.227c-0.83-0.989-2.075-1.469-3.811-1.469     c-7.23,0-10.285,4.33-10.41,4.513c-0.349,0.516-0.973,0.779-1.586,0.657c-0.609-0.115-1.099-0.577-1.24-1.182     c-0.009-0.037-0.915-3.786-3.771-5.551c-1.546-0.952-3.431-1.171-5.614-0.649c-7.68,1.829-8.347,5.156-8.353,5.19     c-0.144,0.83-0.943,1.425-1.76,1.313c-0.836-0.115-1.436-0.84-1.35-1.679c0.055-0.557,0.83-5.514,10.735-7.873     c3.049-0.719,5.739-0.369,8.014,1.047c2.137,1.328,3.45,3.336,4.218,4.943c1.98-1.708,5.577-3.864,11.117-3.864     c2.691,0,4.784,0.875,6.223,2.602c1.561,1.869,1.956,4.339,1.996,6.185c2.43-0.646,6.428-0.999,11.133,1.353     c7.925,3.964,5.699,15.127,5.602,15.6C217.149,268.555,216.497,269.061,215.772,269.061z"/>
		</g>
	</g>
</g>















</svg>
