<?xml version="1.0" encoding="UTF-8"?>
<!-- Generator: Adobe Illustrator 25.2.0, SVG Export Plug-In . SVG Version: 6.00 Build 0)  -->
<svg xmlns="http://www.w3.org/2000/svg" xmlns:xlink="http://www.w3.org/1999/xlink" version="1.1" id="Capa_1" x="0px" y="0px" viewBox="0 0 512 512" style="enable-background:new 0 0 512 512;" xml:space="preserve" width="512" height="512">
<g>
	<path style="fill:#241726;" d="M221.976,445.469c-145.442,0-194.39-51.959-210.834-85.813c-0.282-0.585-0.039-1.286,0.543-1.571   c0.585-0.282,1.286-0.039,1.571,0.543c18.444,37.972,78.588,99.055,274.267,81.36c53.928-4.87,128.837-19.767,179.443-63.07   c30.14-25.793,37.36-49.694,37.429-49.932c0.183-0.624,0.828-0.972,1.456-0.8c0.624,0.181,0.981,0.835,0.8,1.456   c-0.291,1.002-7.491,24.816-38.16,51.06c-51.074,43.707-126.486,58.723-180.757,63.625   C263.88,444.483,242.002,445.469,221.976,445.469z"/>
	<path style="fill:#241726;" d="M204.261,426.621C53.495,426.621,0,368.582,0,318.879c0-70.329,97.475-143.075,260.597-143.075   c2.758,0,5.521,0.021,8.319,0.062c0.002,0,0.674-0.009,1.917-0.009c10.359,0,47.456,0.578,89.899,8.007   c55.453,9.708,96,26.73,120.518,50.595c28.179,27.43,37.736,62.086,25.57,92.708c-32.994,83.032-198.026,97.908-293.463,99.385   C210.293,426.598,207.253,426.621,204.261,426.621z M260.597,178.152c-161.652,0-258.249,71.551-258.249,140.728   c0,28.64,17.304,54.623,48.726,73.161c35.746,21.088,88.716,32.233,153.187,32.233c2.981,0,6.01-0.023,9.059-0.071   c220.98-3.419,277.371-62.806,291.317-97.903c11.806-29.711,2.451-63.414-25.024-90.158   c-24.174-23.529-64.306-40.341-119.287-49.964c-42.255-7.397-79.182-7.972-89.493-7.972c-1.247,0-1.91,0.009-1.917,0.009   C266.095,178.172,263.344,178.152,260.597,178.152z"/>
	<g>
		<path style="fill:#E2394B;" d="M159.023,221.115c0,0,16.396,54.655,32.793,68.319s36.428-35.456,90.602-26.392    c65.829,11.015,67.839-43.026,103.364-48.492c35.526-5.465,46.515,6.565,51.98-9.832s-21.862-76.517-32.793-81.982    c-10.931-5.465-54.617-5.084-77.91,31.733c-13.068,20.656-42.331,22.921-83.322,20.189S183.618,185.589,159.023,221.115z"/>
		<path style="fill:#FFFFFF;" d="M171.397,234.968c0,0,33.179-34.455,64.443-37.007c31.265-2.552,48.492,11.485,76.566-1.914    c28.074-13.399,42.75-40.197,96.346-59.977c0,0-15.313-7.019-41.473,15.313c-26.16,22.332-54.872,42.749-84.223,45.302    C259.953,198.693,203.938,178.181,171.397,234.968z"/>
		<path style="fill:#241726;" d="M170.021,237.544c-0.165,0-0.332-0.034-0.493-0.108c-0.587-0.273-0.844-0.97-0.573-1.559    c0.183-0.397,18.783-39.738,58.104-42.005c11.357-0.656,21.136-0.181,30.596,0.273c23.009,1.117,41.194,1.99,66.514-14.363    c9.261-5.98,17.816-12.464,26.091-18.735c23.759-18.006,44.269-33.554,66.636-24.956c0.605,0.234,0.906,0.913,0.674,1.518    c-0.232,0.603-0.906,0.908-1.518,0.674c-21.138-8.131-41.173,7.055-64.375,24.635c-8.307,6.296-16.901,12.808-26.233,18.836    c-25.958,16.763-45.392,15.821-67.904,14.736c-9.394-0.452-19.111-0.922-30.349-0.275c-37.892,2.187-55.928,40.263-56.104,40.648    C170.888,237.292,170.464,237.544,170.021,237.544z"/>
		<path style="fill:#FFFFFF;" d="M420.876,155.849c0,0-45.94,13.399-61.253,29.35c-15.313,15.951-34.349,47.04-60.615,44.026    c-38.921-4.466-76.566-17.865-116.764,24.246c0,0,22.97-29.35,43.388-32.541s50.406,4.466,79.757-1.914    s42.749-36.369,65.719-47.854S408.753,153.297,420.876,155.849z"/>
		<path style="fill:#241726;" d="M179.789,261.589c-0.165,0-0.332-0.034-0.493-0.108c-0.587-0.273-0.844-0.97-0.573-1.559    c0.188-0.406,4.691-10.05,13.824-19.934c8.465-9.165,22.638-20.175,42.07-20.572c8.105-0.167,16.486,0.257,24.584,0.663    c29.748,1.495,57.842,2.912,79.762-21.315c34.783-38.445,72.829-51.675,86.54-39.928c0.493,0.422,0.55,1.162,0.128,1.655    c-0.42,0.493-1.165,0.553-1.655,0.128c-14.209-12.18-53.119,6.388-83.27,39.719c-22.67,25.052-52.638,23.541-81.624,22.085    c-8.055-0.406-16.373-0.823-24.419-0.66c-35.668,0.729-53.63,38.759-53.807,39.144    C180.656,261.337,180.231,261.589,179.789,261.589z"/>
		<path style="fill:#FFFFFF;" d="M189.263,275.803c0,0,29.35-22.332,45.302-23.608s51.044,7.019,77.204-1.276    c26.16-8.295,73.376-70.824,105.917-58.063c0,0-25.522-11.485-55.511,13.399c-29.988,24.884-31.903,42.111-72.1,40.197    C249.878,244.538,210.318,250.281,189.263,275.803z"/>
		<path style="fill:#241726;" d="M185.801,282.627c-0.197,0-0.394-0.048-0.576-0.151c-0.566-0.319-0.766-1.034-0.447-1.598    c22.181-39.357,74.764-36.464,106.172-34.732c2.132,0.117,4.175,0.229,6.113,0.326c19.354,0.958,35.088-13.34,51.668-28.471    c8.922-8.142,18.146-16.559,28.072-22.461c28.145-16.731,58.09,4.35,58.39,4.563c0.525,0.378,0.647,1.112,0.268,1.637    c-0.376,0.527-1.107,0.653-1.637,0.271c-0.287-0.204-29.023-20.386-55.82-4.453c-9.722,5.78-18.857,14.115-27.691,22.179    c-16.201,14.784-32.866,30.131-53.364,29.078c-1.942-0.094-3.99-0.206-6.127-0.323c-30.871-1.704-82.534-4.547-103.998,33.538    C186.608,282.411,186.209,282.627,185.801,282.627z"/>
	</g>
	<g>
		<path style="fill:#E2394B;" d="M47.802,275.217c0,0,41.647,39.007,62.69,42.577c21.043,3.57,13.669-48.962,65.059-68.357    c62.445-23.567,37.018-71.295,64.982-93.878s43.511-17.706,39.994-34.628c-3.517-16.922-57.361-55.159-69.558-54.389    c-12.197,0.77-49.772,23.059-51.401,66.595c-0.914,24.425-25.073,41.093-61.883,59.335S51.206,232.143,47.802,275.217z"/>
		<path style="fill:#FFFFFF;" d="M65.462,280.972c0,0,11.364-46.463,37.108-64.385s47.694-14.446,65.228-40.141    s16.751-56.238,53.142-100.278c0,0-16.766,1.63-28.156,34.085c-11.39,32.455-25.948,64.538-50.038,81.498    C123.784,205.101,65.049,215.524,65.462,280.972z"/>
		<path style="fill:#241726;" d="M64.976,284.05c-0.598,0-1.11-0.456-1.167-1.064c-0.041-0.436-3.737-43.794,29.117-65.519    c9.488-6.276,18.178-10.781,26.581-15.14c20.457-10.609,36.613-18.987,50.285-45.855c4.998-9.827,9.137-19.735,13.14-29.317    c11.487-27.503,21.409-51.257,45.06-55.061c0.624-0.122,1.24,0.33,1.344,0.972c0.103,0.64-0.33,1.243-0.972,1.344    c-22.36,3.598-32.048,26.795-43.267,53.651c-4.017,9.621-8.174,19.57-13.214,29.475c-14.012,27.54-31.289,36.5-51.294,46.876    c-8.351,4.329-16.983,8.807-26.37,15.014c-31.69,20.957-28.113,62.919-28.072,63.341c0.06,0.644-0.413,1.217-1.059,1.279    C65.051,284.048,65.014,284.05,64.976,284.05z"/>
		<path style="fill:#FFFFFF;" d="M241.363,87.173c0,0-32.979,34.675-38.199,56.162c-5.22,21.487-6.049,57.931-30.271,68.528    c-35.892,15.703-75.171,23.042-88.753,79.652c0,0,5.104-36.919,21.151-49.94c16.047-13.021,45.82-21.476,67.986-41.745    s18.675-52.929,32.759-74.403S229.6,91.061,241.363,87.173z"/>
		<path style="fill:#241726;" d="M85.506,299.926c-0.598,0-1.11-0.456-1.167-1.064c-0.041-0.436-3.753-43.796,27.959-63.109    c6.931-4.223,14.383-8.069,21.587-11.788c26.467-13.659,51.466-26.558,58.237-58.519c10.747-50.718,36.973-81.237,54.745-78.017    c0.637,0.119,1.059,0.731,0.942,1.369c-0.119,0.635-0.727,1.043-1.369,0.942c-18.403-3.43-42.705,32.222-52.021,76.192    c-7.002,33.05-33.669,46.811-59.457,60.119c-7.17,3.701-14.583,7.528-21.445,11.705c-30.47,18.559-26.882,60.463-26.84,60.885    c0.06,0.644-0.413,1.218-1.059,1.279C85.582,299.924,85.545,299.926,85.506,299.926z"/>
		<path style="fill:#FFFFFF;" d="M101.433,307.294c0,0,14.148-34.059,27.296-43.18c13.148-9.121,47.655-19.59,66.101-39.91    s27.832-98.109,62.378-103.434c0,0-27.836,2.9-41.253,39.486c-13.416,36.586-6.412,52.441-42.124,70.992    S106.806,274.646,101.433,307.294z"/>
		<path style="fill:#241726;" d="M101.279,315.094c-0.642,0-1.165-0.516-1.174-1.158c-0.605-45.174,46.298-69.098,74.319-83.394    c1.905-0.97,3.728-1.901,5.455-2.795c17.277-8.949,23.63-29.172,30.358-50.583c3.62-11.522,7.362-23.435,12.978-33.526    c15.91-28.604,52.406-25.433,52.771-25.405c0.644,0.062,1.119,0.635,1.057,1.282c-0.064,0.644-0.61,1.105-1.282,1.057    c-0.349-0.039-35.338-3.036-50.496,24.208c-5.496,9.882-9.204,21.679-12.787,33.088c-6.576,20.927-13.374,42.567-31.52,51.966    c-1.729,0.894-3.556,1.827-5.464,2.802c-27.537,14.046-73.624,37.555-73.04,81.269c0.009,0.649-0.509,1.181-1.158,1.19    C101.29,315.094,101.283,315.094,101.279,315.094z"/>
	</g>
	<g>
		<g>
			<path style="fill:#FFFFFF;" d="M184.633,224.533c0,0,64.61-1.947,91.862,44.848c34.739,59.652-25.501,102.691-96.361,108.369     c-70.86,5.678-127.996-7.685-143.514-54.703S74.69,226.076,184.633,224.533z"/>
			<path style="fill:#241726;" d="M150.967,380.149c-64.189,0-103.035-19.088-115.46-56.735     c-5.471-16.573-2.632-33.377,8.208-48.595c22.294-31.295,74.968-50.533,140.902-51.459c-0.005,0,0.39-0.011,1.117-0.011     c4.59,0,21.01,0.454,39.527,6.282c23.926,7.532,41.503,20.707,52.248,39.158c12.049,20.689,13.498,41.038,4.187,58.844     c-14.305,27.363-54.135,47.492-101.467,51.285C170.051,379.734,160.206,380.149,150.967,380.149z M185.734,225.697     c-0.686,0-1.055,0.011-1.066,0.011c-65.207,0.915-117.177,19.783-139.04,50.473c-10.389,14.585-13.118,30.665-7.892,46.5     c12.072,36.574,50.168,55.121,113.231,55.121c9.176,0,18.958-0.413,29.074-1.222c46.548-3.73,85.634-23.369,99.575-50.033     c8.917-17.057,7.486-36.62-4.134-56.574C250.421,226.939,192.281,225.697,185.734,225.697z"/>
		</g>
		<path style="fill:#F9DD96;" d="M129.751,272.886c0,0,54.203-27.08,83.122,2.938c32.973,34.227-28.075,71.681-73.478,58.095    S94.467,288.182,129.751,272.886z"/>
		<path style="fill:#241726;" d="M211.036,294.368c-0.431,0-0.848-0.241-1.052-0.656c-13.879-28.15-62.242-16.522-62.733-16.401    c-0.637,0.147-1.266-0.232-1.422-0.858c-0.156-0.628,0.227-1.266,0.858-1.422c0.126-0.03,12.732-3.091,26.941-2.524    c19.047,0.789,32.348,7.761,38.461,20.168c0.287,0.58,0.048,1.284-0.534,1.571C211.389,294.329,211.211,294.368,211.036,294.368z"/>
		<g>
			<path style="fill:#241726;" d="M63.588,287.65c-0.103,0-0.206-0.014-0.312-0.041c-0.626-0.172-0.993-0.819-0.821-1.444     c0.587-2.126,4.407-6.218,5.166-7.016c0.452-0.47,1.192-0.484,1.66-0.041c0.47,0.447,0.488,1.19,0.041,1.66     c-1.722,1.809-4.288,4.875-4.602,6.021C64.577,287.309,64.104,287.65,63.588,287.65z"/>
			<path style="fill:#241726;" d="M63.208,274.356c-0.103,0-0.209-0.014-0.312-0.044c-0.626-0.172-0.993-0.819-0.819-1.442     c0.587-2.125,4.405-6.218,5.164-7.018c0.449-0.47,1.192-0.484,1.66-0.041c0.47,0.447,0.488,1.19,0.041,1.66     c-1.72,1.811-4.285,4.877-4.604,6.023C64.196,274.014,63.724,274.356,63.208,274.356z"/>
			<path style="fill:#241726;" d="M76.518,272.937c-0.103,0-0.209-0.014-0.312-0.044c-0.626-0.172-0.993-0.819-0.819-1.442     c0.587-2.126,4.405-6.218,5.164-7.018c0.449-0.47,1.192-0.484,1.66-0.041c0.47,0.447,0.488,1.19,0.041,1.66     c-1.72,1.811-4.285,4.877-4.604,6.023C77.506,272.595,77.034,272.937,76.518,272.937z"/>
			<path style="fill:#241726;" d="M79.533,259.361c-0.195,0-0.392-0.048-0.573-0.149c-0.566-0.319-0.768-1.034-0.452-1.598     c1.078-1.924,5.769-4.98,6.7-5.574c0.537-0.344,1.27-0.188,1.621,0.36c0.349,0.546,0.188,1.27-0.36,1.621     c-2.105,1.344-5.331,3.703-5.911,4.739C80.342,259.145,79.943,259.361,79.533,259.361z"/>
			<path style="fill:#241726;" d="M90.085,261.452c-0.195,0-0.394-0.048-0.576-0.151c-0.564-0.316-0.766-1.034-0.447-1.598     c1.08-1.919,5.769-4.978,6.697-5.572c0.543-0.344,1.273-0.19,1.621,0.358c0.351,0.548,0.19,1.273-0.355,1.621     c-2.107,1.346-5.333,3.708-5.918,4.744C90.892,261.236,90.493,261.452,90.085,261.452z"/>
			<path style="fill:#241726;" d="M79.664,282.349c-0.103,0-0.209-0.014-0.312-0.044c-0.626-0.172-0.993-0.819-0.819-1.442     c0.587-2.125,4.405-6.216,5.164-7.016c0.449-0.47,1.192-0.484,1.66-0.041c0.47,0.447,0.488,1.19,0.041,1.66     c-1.72,1.809-4.285,4.875-4.604,6.021C80.652,282.007,80.18,282.349,79.664,282.349z"/>
			<path style="fill:#241726;" d="M66.182,300.178c-0.103,0-0.206-0.014-0.312-0.041c-0.626-0.172-0.993-0.819-0.821-1.445     c0.587-2.125,4.407-6.218,5.166-7.018c0.452-0.47,1.192-0.484,1.66-0.041c0.47,0.447,0.488,1.19,0.041,1.66     c-1.722,1.811-4.288,4.877-4.602,6.023C67.17,299.837,66.697,300.178,66.182,300.178z"/>
			<path style="fill:#241726;" d="M51.934,290.929c-0.103,0-0.209-0.014-0.314-0.044c-0.624-0.172-0.991-0.819-0.816-1.444     c0.587-2.121,4.407-6.214,5.166-7.014c0.449-0.47,1.192-0.486,1.66-0.041c0.47,0.447,0.488,1.19,0.041,1.66     c-1.722,1.811-4.288,4.877-4.606,6.023C52.922,290.587,52.45,290.929,51.934,290.929z"/>
			<path style="fill:#241726;" d="M51.172,306.77c-0.103,0-0.209-0.014-0.314-0.044c-0.624-0.172-0.991-0.819-0.816-1.445     c0.587-2.121,4.405-6.214,5.164-7.014c0.449-0.47,1.192-0.486,1.66-0.041c0.47,0.447,0.488,1.19,0.041,1.66     c-1.72,1.811-4.285,4.877-4.604,6.023C52.161,306.429,51.688,306.77,51.172,306.77z"/>
		</g>
	</g>
	<g>
		<g>
			<path style="fill:#FFFFFF;" d="M342.197,204.856c0,0,70.718-10.841,105.362,40.223s-27.289,74.082-39.891,110.848     s-88.92,39.051-148.798-2.016S247.174,216.532,342.197,204.856z"/>
			<path style="fill:#241726;" d="M350.851,385.281c-30.708,0-64.476-11.081-92.648-30.401     c-22.328-15.314-31.364-39.55-24.786-66.491c8.649-35.427,46.334-77.043,108.636-84.697c0.225-0.034,6.452-0.972,16.165-0.972     c23.163,0,65.695,5.418,90.312,41.701c23.516,34.659,3.375,56.838-16.101,78.286c-9.584,10.556-19.494,21.47-23.653,33.602     C402.558,374.449,380.904,385.281,350.851,385.281z M358.218,205.068c-9.52,0-15.782,0.94-15.846,0.949     c-61.229,7.523-98.211,48.26-106.674,82.929c-6.333,25.939,2.355,49.265,23.834,63.999     c27.787,19.058,61.073,29.988,91.318,29.988c29.003,0,49.826-10.238,55.705-27.386c4.315-12.59,14.39-23.688,24.135-34.418     c19.735-21.732,38.374-42.26,15.894-75.392C422.579,210.35,380.918,205.068,358.218,205.068z"/>
		</g>
		<path style="fill:#F9DD96;" d="M322.469,256.878c0,0,46.734-25.699,68.752,9.186s-11.27,69.301-62.686,56.102    C277.118,308.967,303.655,267.97,322.469,256.878z"/>
		<path style="fill:#241726;" d="M379.443,307.13c-0.298,0-0.596-0.112-0.825-0.339c-0.461-0.454-0.465-1.197-0.009-1.66    c5.929-6.012,8.66-12.32,8.112-18.749c-0.991-11.657-12.421-19.987-12.537-20.07c-0.525-0.378-0.647-1.112-0.268-1.639    c0.381-0.527,1.112-0.647,1.639-0.268c0.507,0.365,12.425,9.055,13.505,21.778c0.608,7.145-2.346,14.076-8.782,20.599    C380.049,307.014,379.746,307.13,379.443,307.13z"/>
		<g>
			<path style="fill:#241726;" d="M263.016,273.613c-0.103,0-0.206-0.014-0.312-0.041c-0.626-0.172-0.993-0.819-0.821-1.445     c0.587-2.125,4.407-6.218,5.166-7.016c0.449-0.47,1.192-0.484,1.66-0.041c0.47,0.447,0.488,1.19,0.041,1.66     c-1.722,1.809-4.288,4.875-4.602,6.021C264.004,273.272,263.532,273.613,263.016,273.613z"/>
			<path style="fill:#241726;" d="M262.635,260.319c-0.103,0-0.209-0.014-0.312-0.044c-0.626-0.172-0.993-0.819-0.819-1.442     c0.587-2.125,4.405-6.218,5.164-7.018c0.449-0.47,1.192-0.484,1.66-0.041c0.47,0.447,0.488,1.19,0.041,1.66     c-1.72,1.811-4.285,4.877-4.604,6.023C263.623,259.977,263.151,260.319,262.635,260.319z"/>
			<path style="fill:#241726;" d="M275.945,258.9c-0.103,0-0.209-0.014-0.312-0.044c-0.626-0.172-0.993-0.819-0.819-1.442     c0.587-2.126,4.405-6.218,5.164-7.018c0.452-0.47,1.192-0.484,1.66-0.041c0.47,0.447,0.488,1.19,0.041,1.66     c-1.72,1.811-4.285,4.877-4.604,6.023C276.934,258.558,276.461,258.9,275.945,258.9z"/>
			<path style="fill:#241726;" d="M278.958,245.324c-0.195,0-0.392-0.048-0.576-0.151c-0.564-0.316-0.766-1.032-0.447-1.598     c1.08-1.921,5.769-4.978,6.7-5.572c0.537-0.344,1.268-0.19,1.621,0.36c0.349,0.546,0.188,1.27-0.36,1.621     c-2.105,1.344-5.331,3.703-5.916,4.742C279.765,245.108,279.369,245.324,278.958,245.324z"/>
			<path style="fill:#241726;" d="M289.512,247.415c-0.195,0-0.394-0.048-0.576-0.151c-0.564-0.316-0.766-1.034-0.447-1.598     c1.08-1.919,5.767-4.978,6.695-5.569c0.543-0.349,1.27-0.195,1.621,0.355c0.351,0.548,0.19,1.273-0.355,1.621     c-2.105,1.346-5.331,3.708-5.916,4.744C290.319,247.199,289.92,247.415,289.512,247.415z"/>
			<path style="fill:#241726;" d="M279.091,268.312c-0.103,0-0.209-0.014-0.314-0.044c-0.624-0.172-0.991-0.819-0.816-1.445     c0.587-2.121,4.405-6.214,5.164-7.014c0.449-0.472,1.192-0.486,1.66-0.041c0.47,0.447,0.488,1.19,0.041,1.66     c-1.72,1.811-4.285,4.877-4.604,6.023C280.079,267.97,279.607,268.312,279.091,268.312z"/>
			<path style="fill:#241726;" d="M265.607,286.141c-0.103,0-0.209-0.014-0.312-0.044c-0.626-0.172-0.993-0.819-0.819-1.442     c0.587-2.125,4.407-6.218,5.166-7.018c0.452-0.47,1.195-0.484,1.66-0.041c0.47,0.447,0.488,1.19,0.041,1.66     c-1.722,1.811-4.288,4.877-4.606,6.023C266.595,285.8,266.123,286.141,265.607,286.141z"/>
			<path style="fill:#241726;" d="M251.361,276.892c-0.103,0-0.209-0.014-0.314-0.044c-0.624-0.172-0.991-0.819-0.816-1.445     c0.587-2.121,4.405-6.214,5.164-7.014c0.452-0.47,1.192-0.486,1.66-0.041c0.47,0.447,0.488,1.19,0.041,1.66     c-1.72,1.811-4.285,4.877-4.604,6.023C252.349,276.55,251.877,276.892,251.361,276.892z"/>
			<path style="fill:#241726;" d="M250.6,292.734c-0.103,0-0.209-0.014-0.314-0.044c-0.624-0.172-0.991-0.819-0.816-1.445     c0.587-2.121,4.405-6.214,5.164-7.014c0.452-0.47,1.195-0.486,1.66-0.041c0.47,0.447,0.488,1.19,0.041,1.66     c-1.72,1.811-4.285,4.877-4.604,6.023C251.588,292.392,251.116,292.734,250.6,292.734z"/>
		</g>
	</g>
	<g>
		<path style="fill:#9BA058;" d="M169.777,378.773c0,0-8.309-12.732-1.163-18.22c7.146-5.488,16.612,6.488,11.227,8.352    c-5.385,1.864-5.949-19.705,8.931-11.604c16.369,8.911,7.441,22.88,3.393,18.7c-7.885-8.142,21.047-9.069,19.542,7.592    c-1.505,16.661-18.744,15.533-23.252,6.097s16.862,0.943,5.175,14.181c-9.874,11.184-18.247-10.427-18.198-15.41    c0,0-7.762,9.842-11.411,10.573c-3.649,0.731-12.664-18.141-10.173-18.117S169.777,378.773,169.777,378.773z"/>
		<path style="fill:#241726;" d="M187.915,408.214c-2.1,0-4.164-1.007-6.133-2.994c-3.623-3.659-6.188-9.908-7.129-13.964    c-2.598,3.056-7.44,8.335-10.4,8.928c-0.076,0.016-0.367,0.044-0.445,0.044c-1.878,0-4.24-2.442-7.023-7.259    c-0.057-0.101-5.718-9.96-4.279-12.453c0.28-0.484,0.78-0.773,1.337-0.773l0,0c1.825,0,9.637-1.167,14.046-1.859    c-2.064-3.74-6.411-13.328,0.009-18.263c2.405-1.846,5.379-2.162,8.282-0.915c2.091-4.643,7.035-5.767,13.154-2.437    c8.245,4.489,9.866,10.011,10.07,13.024c4.377,0.527,8.332,2.456,10.738,5.269c2.135,2.499,3.054,5.574,2.733,9.135    c-0.931,10.318-7.404,13.993-13.147,13.993c-0.516,0-1.032-0.028-1.55-0.087c-0.422,2.396-1.653,4.76-3.669,7.044    C192.418,407.013,190.201,408.214,187.915,408.214z M175.43,387.287c0.131,0,0.261,0.021,0.39,0.066    c0.475,0.167,0.789,0.617,0.784,1.119c-0.028,2.774,2.845,11.056,6.847,15.094c3.157,3.192,6.186,3.056,9.298-0.475    c1.738-1.967,2.786-3.962,3.125-5.945c-3.76-1.068-6.883-3.611-8.479-6.95c-0.86-1.8-0.979-3.215-0.355-4.203    c0.456-0.725,1.254-1.121,2.249-1.121c1.747,0,4.04,1.231,5.842,3.134c1.965,2.08,3.082,4.62,3.203,7.25    c0.465,0.057,0.931,0.085,1.394,0.085c4.707,0,10.02-3.114,10.809-11.856c0.264-2.91-0.47-5.397-2.178-7.399    c-1.999-2.339-5.331-3.957-9.059-4.441c-0.569,3.515-2.884,6.289-5.446,6.289c-0.947,0-1.823-0.385-2.534-1.119    c-1.963-2.027-1.871-3.641-1.449-4.636c0.8-1.889,3.481-3.02,7.174-3.031c-0.255-2.777-1.933-7.06-8.834-10.815    c-2.052-1.119-3.875-1.685-5.413-1.685c-2.577,0-3.891,1.603-4.561,3.219c2.751,1.942,4.579,4.93,4.345,7.252    c-0.14,1.389-0.977,2.417-2.355,2.896c-0.346,0.119-0.692,0.179-1.034,0.179c-0.692,0-1.704-0.245-2.579-1.419    c-1.314-1.766-1.759-4.93-1.153-7.819c-2.183-1.009-4.345-0.841-6.131,0.527c-6.198,4.762,1.355,16.532,1.433,16.649    c0.216,0.335,0.25,0.754,0.089,1.117c-0.16,0.365-0.493,0.621-0.885,0.683c-0.509,0.083-11.623,1.871-15.351,2.13    c0.365,2.359,3.795,10.091,7.156,14.099c1.403,1.674,2.029,1.72,2.036,1.72c2.332-0.468,7.803-6.473,10.701-10.146    C174.735,387.445,175.077,387.287,175.43,387.287z M189.009,387.264c0.009,0-0.181,0.484,0.504,1.919    c1.224,2.561,3.563,4.554,6.418,5.524c-0.31-2.41-1.644-4.173-2.506-5.086c-1.49-1.577-3.21-2.401-4.136-2.401    C189.091,387.221,189.015,387.26,189.009,387.264z M196.944,371.498c-2.793,0.028-4.581,0.816-4.911,1.596    c-0.289,0.681,0.585,1.688,0.974,2.089c0.264,0.273,0.541,0.404,0.846,0.404C194.924,375.587,196.477,374.027,196.944,371.498z     M177.611,362.354c-0.234,2.093,0.197,4.09,0.885,5.017c0.321,0.426,0.594,0.557,0.963,0.424c0.635-0.22,0.754-0.585,0.786-0.91    C180.36,365.755,179.337,363.845,177.611,362.354z"/>
	</g>
	<g>
		<path style="fill:#9BA058;" d="M227.65,377.613c0,0-14.673,3.978-17.691-4.512c-3.018-8.49,11.294-13.802,11.407-8.105    c0.113,5.697-20.579-0.417-8.285-12.074c13.524-12.824,24.059-0.024,18.835,2.538c-10.176,4.99-2.137-22.817,13.248-16.249    c15.385,6.569,8.997,22.621-1.369,23.999c-10.366,1.378,6.096-15.75,15.086-0.55c7.595,12.841-15.545,14.143-20.27,12.56    c0,0,6.969,10.418,6.539,14.115c-0.43,3.697-21.162,6.453-20.371,4.091C225.569,391.065,227.65,377.613,227.65,377.613z"/>
		<path style="fill:#241726;" d="M227.742,395.48c-2.219,0-3.341-0.3-3.873-1.039c-0.291-0.404-0.365-0.908-0.206-1.385    c0.546-1.623,1.853-9.481,2.561-13.925c-1.424,0.273-3.572,0.587-5.895,0.587c-6.06,0-10.029-2.153-11.476-6.225    c-1.023-2.873-0.406-5.785,1.683-8.16c-1.493-1.362-2.373-3.038-2.513-4.822c-0.213-2.724,1.215-5.565,4.249-8.44    c5.175-4.907,9.687-5.936,12.56-5.936c1.011,0,1.997,0.124,2.939,0.367c2.135-4.577,6.553-9.474,12.732-9.474    c1.681,0,3.403,0.371,5.12,1.105c6.019,2.57,8.362,6.305,9.268,8.988c1,2.962,0.784,6.282-0.571,9.282    c2.148,1.14,4.017,3.04,5.569,5.661c1.933,3.27,2.206,6.166,0.812,8.61c-2.635,4.62-10.896,6.257-17.169,6.257    c-0.894,0-1.738-0.034-2.502-0.099c2.109,3.414,5.631,9.644,5.285,12.641C245.826,393.673,232.05,395.48,227.742,395.48z     M226.105,393.033c0.323,0.053,0.839,0.099,1.637,0.099c6.464,0,15.773-2.483,16.245-3.948c0.273-2.359-3.753-9.419-6.356-13.308    c-0.277-0.417-0.261-0.968,0.044-1.367s0.825-0.555,1.307-0.401c0.683,0.232,2.24,0.475,4.551,0.475    c6.09,0,13.131-1.568,15.131-5.072c0.945-1.658,0.676-3.76-0.796-6.25c-1.337-2.261-2.912-3.873-4.691-4.808    c-2.178,3.249-5.558,5.436-9.229,5.925c-0.463,0.06-0.883,0.089-1.254,0.089h-0.002c-1.887,0-2.715-0.743-3.075-1.367    c-0.28-0.488-0.624-1.532,0.243-3.033c1.394-2.412,5.322-4.909,9.488-4.909c0.952,0,1.885,0.126,2.788,0.374    c1.153-2.486,1.353-5.228,0.532-7.661c-1.078-3.194-3.834-5.815-7.965-7.578c-1.424-0.608-2.836-0.917-4.198-0.917    c-5.008,0-8.679,4.081-10.531,7.959c2.577,1.314,4.361,3.565,4.473,5.769c0.078,1.504-0.658,2.747-2.015,3.414    c-2.373,1.167-4.37,0.858-5.432-0.702c-1.036-1.529-1.059-4.132-0.096-7.108c-3.962-0.883-8.624,0.903-13.017,5.07    c-2.456,2.33-3.675,4.595-3.522,6.551c0.117,1.5,0.997,2.63,1.91,3.412c1.894-1.408,4.242-2.286,6.209-2.286    c2.458,0,4.013,1.35,4.056,3.522c0.016,0.844-0.273,1.596-0.837,2.169c-1.676,1.71-6.003,1.415-9.249-0.429    c-1.142,1.236-2.346,3.299-1.389,5.994c1.101,3.093,4.217,4.661,9.266,4.661c3.687,0,6.982-0.88,7.014-0.89    c0.378-0.103,0.793-0.009,1.089,0.257c0.298,0.266,0.438,0.663,0.378,1.055C228.733,378.301,227.013,389.383,226.105,393.033z     M214.453,365.099c2.126,0.958,4.872,1.117,5.574,0.404c0.085-0.087,0.17-0.213,0.165-0.482c-0.007-0.365-0.023-1.22-1.708-1.22    C217.264,363.801,215.776,364.296,214.453,365.099z M249.348,357.505c-3.045,0-5.911,1.667-7.17,3.313    c-0.507,0.66-0.539,1.05-0.52,1.119c0.034,0.03,0.33,0.181,1.034,0.181c0,0,0,0,0.002,0c0.28,0,0.596-0.023,0.947-0.071    c2.811-0.374,5.43-1.986,7.232-4.4C250.373,357.553,249.864,357.505,249.348,357.505z M229.106,349.528    c-0.766,2.435-0.653,4.244-0.163,4.969c0.188,0.277,0.429,0.394,0.805,0.394c0.303,0,0.837-0.085,1.651-0.484    c0.507-0.25,0.731-0.626,0.704-1.185C232.046,352.101,230.989,350.551,229.106,349.528z"/>
	</g>
	<g>
		<path style="fill:#9BA058;" d="M300.81,379.309c0,0-4.208,14.609-13.032,12.787c-8.824-1.823-5.944-16.814-1.014-13.956    c4.93,2.858-11.029,17.379-14.62,0.823c-3.951-18.214,12.457-20.583,11.938-14.788c-1.01,11.289-20.618-10.006-7.023-19.754    c13.595-9.748,24.007,4.038,19.81,13.617c-4.197,9.578-10.305-13.38,7.353-13.184c14.918,0.166,4.031,20.626,0.227,23.845    c0,0,12.522-0.556,15.46,1.728c2.938,2.284-5.457,21.441-7.066,19.539C311.232,388.064,300.81,379.309,300.81,379.309z"/>
		<path style="fill:#241726;" d="M289.283,393.427c-0.571,0-1.158-0.062-1.743-0.183c-2.988-0.617-5.157-2.653-6.106-5.67    c-0.803,0.238-1.596,0.358-2.373,0.358c-2.304,0-6.42-1.133-8.064-8.72c-1.99-9.176,1.13-14.012,3.277-16.135    c-2.46-3.655-3.586-7.91-3.029-11.57c0.498-3.249,2.224-5.955,5.131-8.039c3.29-2.359,6.592-3.556,9.814-3.556    c4.136,0,7.91,2.068,10.316,5.592c2.034-1.213,4.549-1.827,7.493-1.827c0.005,0,0.232,0.002,0.236,0.002    c5.413,0.062,7.482,2.664,8.266,4.836c2.011,5.59-2.272,14.576-5.448,18.953c0.206-0.002,0.42-0.002,0.64-0.002    c6.847,0,11.201,0.686,12.936,2.036c0.58,0.452,2.346,1.823-0.511,10.153c-0.163,0.475-4.019,11.62-7.005,11.62    c-0.454,0-0.867-0.195-1.167-0.548c-1.105-1.307-7.142-6.5-10.575-9.41c-1.371,3.694-5.242,12.109-12.086,12.111    C289.285,393.427,289.285,393.427,289.283,393.427z M283.61,386.652c0.465,1.616,1.607,3.714,4.407,4.295    c0.426,0.087,0.853,0.133,1.266,0.133c0.002,0,0.002,0,0.002,0c6.817-0.002,10.362-11.976,10.396-12.097    c0.11-0.381,0.406-0.681,0.786-0.798c0.376-0.119,0.793-0.032,1.096,0.225c0.397,0.332,9.002,7.566,11.641,10.229    c1.552-1.818,5.166-9.474,6-14.64c0.346-2.148-0.025-2.651-0.03-2.655c-1.229-0.954-5.526-1.529-11.483-1.529    c-1.866,0-3.18,0.057-3.192,0.057c-0.55,0.08-0.963-0.275-1.146-0.743c-0.183-0.468-0.048-1,0.335-1.325    c2.382-2.015,8.644-12.815,6.601-18.492c-0.782-2.171-2.772-3.247-6.083-3.283c-0.002,0-0.005,0-0.007,0    c-2.71,0-4.856,0.511-6.535,1.52c1.646,3.545,1.763,7.571,0.277,10.962c-0.885,2.018-1.99,3.04-3.288,3.04    c-1.275,0-2.359-1.03-2.972-2.827c-1.169-3.43-0.479-8.548,2.946-11.801c-1.967-2.935-5.06-4.661-8.44-4.661    c-2.722,0-5.562,1.048-8.447,3.116c-2.373,1.701-3.779,3.884-4.175,6.487c-0.465,3.04,0.484,6.62,2.557,9.758    c2.923-1.814,6.622-1.843,8.254-0.064c0.665,0.727,0.968,1.669,0.874,2.724c-0.346,3.866-2.635,4.283-3.602,4.285l0,0    c-1.804,0-3.969-1.33-5.943-3.609c-1.935,2.009-4.081,6.078-2.417,13.755c0.681,3.137,2.233,6.872,5.771,6.872    c0.615,0,1.254-0.108,1.91-0.323c-0.257-2.74,0.431-5.604,1.786-7.225c1.245-1.49,2.999-1.834,4.595-0.91    c1.041,0.603,1.58,1.614,1.516,2.848C288.751,382.252,286.509,385.047,283.61,386.652z M285.534,378.953    c-0.321,0-0.649,0.199-0.974,0.589c-0.727,0.869-1.309,2.593-1.3,4.567c1.878-1.286,3.205-3.109,3.265-4.258    c0.021-0.399-0.119-0.562-0.351-0.695C285.942,379.021,285.727,378.953,285.534,378.953z M277.553,363.499    c1.639,1.862,3.219,2.719,4.097,2.719l0,0c0.711-0.002,1.135-0.725,1.263-2.148c0.034-0.39-0.053-0.692-0.268-0.929    C281.854,362.279,279.442,362.398,277.553,363.499z M295.781,349.102c-2.054,2.3-2.573,5.517-2.109,7.956    c0.284,1.497,0.83,2.096,1,2.146c-0.009-0.007,0.482-0.179,1.121-1.637C296.932,354.967,296.911,351.894,295.781,349.102z"/>
	</g>
</g>















</svg>
