<?xml version="1.0" encoding="UTF-8"?>
<!-- Generator: Adobe Illustrator 25.2.0, SVG Export Plug-In . SVG Version: 6.00 Build 0)  -->
<svg xmlns="http://www.w3.org/2000/svg" xmlns:xlink="http://www.w3.org/1999/xlink" version="1.1" id="Capa_1" x="0px" y="0px" viewBox="0 0 512 512" style="enable-background:new 0 0 512 512;" xml:space="preserve" width="512" height="512">
<g>
	<path style="fill:#EF9B65;" d="M469.581,305.143c0,0,57.185,38.132,13.256,78.564c-36.184,33.304-320.891,40.829-397.928,33.699   c-77.037-7.131-52.596-78.444-33.749-84.887C70.007,326.077,469.581,305.143,469.581,305.143z"/>
	<g>
		<path style="fill:#E2394B;" d="M111.054,300.15c0,0,123.391,25.296,127.849,29.193c4.458,3.897-25.487,72.402-79.909,59.912    S99.678,298.976,111.054,300.15z"/>
		<path style="fill:#241726;" d="M170.61,375.188c-0.599,0-1.201-0.015-1.814-0.048c-14.824-0.756-26.471-13.228-33.684-36.063    c-5.363-16.984-6.449-33.972-6.459-34.143c-0.044-0.708,0.496-1.318,1.205-1.361c0.698-0.068,1.318,0.497,1.361,1.205    c0.04,0.66,4.425,66.095,37.707,67.797c33.41,1.677,45.184-47.997,45.299-48.501c0.159-0.69,0.848-1.12,1.54-0.964    c0.693,0.158,1.125,0.848,0.965,1.541C216.614,325.165,204.708,375.188,170.61,375.188z"/>
		<path style="fill:#241726;" d="M164.208,361.947c-0.432,0-0.857-0.088-1.266-0.259c-2.382-0.999-5.14-4.448-1.581-22.81    c0.979-5.053,2.214-10.033,3.174-13.658c-6.026,6.74-16.8,17.719-21.73,16.341c-0.915-0.261-1.566-0.894-1.836-1.782    c-1.54-5.081,12.006-21.492,16.194-26.399c0.462-0.542,1.274-0.605,1.812-0.143c0.54,0.459,0.604,1.27,0.143,1.81    c-9.426,11.047-16.75,22.275-15.675,24.027c3.546,0.929,15.509-11.004,22.88-19.85c0.392-0.469,1.056-0.597,1.596-0.309    c0.537,0.289,0.798,0.916,0.623,1.501c-5.231,17.446-8.481,37.278-4.606,38.902c0.167,0.068,0.393,0.115,0.798-0.093    c4.799-2.425,11.884-25.149,15.223-38.905c0.151-0.617,0.74-1.017,1.362-0.976c0.633,0.055,1.131,0.567,1.17,1.2    c0.468,7.523,3.114,27.868,9.641,31.613c0.448,0.256,0.766,0.326,0.948,0.201c2.503-1.775,1.232-18.071-1.381-32.15    c-0.129-0.698,0.331-1.368,1.029-1.496c0.697-0.133,1.368,0.329,1.499,1.029c1.344,7.247,5.343,31.166,0.339,34.713    c-0.732,0.52-1.969,0.936-3.714-0.068c-6.252-3.587-9.044-17.719-10.199-26.51c-3.002,10.982-9.107,30.787-14.758,33.644    C165.333,361.803,164.765,361.944,164.208,361.947z"/>
	</g>
	<g>
		<path style="fill:#E2394B;" d="M251.113,334.092c0,0,109.503-62.245,115.424-62.248c5.921-0.004,28.514,71.264-20.661,97.714    C296.701,396.008,241.78,340.703,251.113,334.092z"/>
		<path style="fill:#241726;" d="M326.446,358.312c-9.134,0-19.78-3.605-31.59-10.779c-15.222-9.245-27.23-21.314-27.349-21.434    c-0.5-0.505-0.495-1.318,0.01-1.817c0.503-0.5,1.319-0.495,1.817,0.01c0.466,0.469,46.863,46.817,73.029,26.173    c26.211-20.681,2.38-65.879,2.136-66.333c-0.336-0.625-0.102-1.403,0.525-1.74c0.625-0.331,1.404-0.098,1.74,0.525    c0.255,0.472,25.093,47.55-2.809,69.566C339.026,356.372,333.142,358.309,326.446,358.312z"/>
		<path style="fill:#241726;" d="M329.412,346.431c-2.632,0-6.969-2.663-14.938-16.336c-2.592-4.445-4.944-9.009-6.607-12.368    c-0.095,9.042-0.95,24.409-5.589,26.61c-0.861,0.407-1.766,0.356-2.554-0.131c-4.506-2.809-5.123-24.08-5.205-30.533    c-0.009-0.708,0.559-1.29,1.269-1.3c0.005,0,0.011,0,0.016,0c0.703,0,1.276,0.565,1.285,1.268    c0.185,14.521,2.068,27.792,4.031,28.402c3.339-1.586,4.42-18.495,4.14-30.006c-0.015-0.61,0.402-1.145,0.998-1.283    c0.59-0.138,1.205,0.163,1.457,0.72c7.554,16.569,18.166,33.659,22.158,32.303c0.171-0.055,0.369-0.171,0.54-0.595    c2.013-4.985-7.625-26.751-14.172-39.299c-0.294-0.565-0.132-1.258,0.382-1.632c0.513-0.379,1.224-0.321,1.671,0.131    c5.308,5.352,20.701,18.914,28.076,17.435c0.511-0.103,0.794-0.261,0.846-0.472c0.714-2.985-10.976-14.408-22.215-23.282    c-0.557-0.439-0.653-1.248-0.213-1.805c0.441-0.555,1.251-0.65,1.805-0.213c5.786,4.568,24.552,19.931,23.124,25.897    c-0.21,0.874-0.872,2.001-2.839,2.395c-7.095,1.401-18.478-7.375-25.137-13.228c4.975,10.241,13.427,29.165,11.057,35.037    c-0.417,1.032-1.146,1.747-2.109,2.071C330.312,346.343,329.89,346.431,329.412,346.431z"/>
	</g>
	<path style="fill:#B05179;" d="M141.95,361.128c0,0,83.388-88.444,83.986-85.826c0.597,2.618,2.703,14.258,2.703,14.258   s-72.787,82.995-76.003,80.974C149.42,368.514,141.95,361.128,141.95,361.128z"/>
	<path style="fill:#B05179;" d="M175.467,381.262c0,0-41.675-114.189-39.067-113.549c2.608,0.64,13.956,3.976,13.956,3.976   s41.557,102.27,38.309,104.239C185.418,377.896,175.467,381.262,175.467,381.262z"/>
	<path style="fill:#B05179;" d="M222.754,381.659c0,0-53.446-109.176-50.785-108.814s14.297,2.487,14.297,2.487   s52.076,97.336,49.053,99.635C232.295,377.265,222.754,381.659,222.754,381.659z"/>
	<path style="fill:#B05179;" d="M443.444,350.654c0,0-70.929-98.717-68.245-98.805c2.684-0.087,14.512,0.064,14.512,0.064   s67.6,87.272,65.003,90.044C452.117,344.728,443.444,350.654,443.444,350.654z"/>
	<path style="fill:#B05179;" d="M325.759,360.678c0,0-70.929-98.717-68.245-98.805c2.684-0.087,14.512,0.064,14.512,0.064   s67.6,87.272,65.003,90.043C334.433,354.753,325.759,360.678,325.759,360.678z"/>
	<path style="fill:#B05179;" d="M471.883,331.556c0,0-115.555-37.724-113.441-39.38c2.114-1.657,11.745-8.523,11.745-8.523   s106.106,30.458,105.649,34.228C475.379,321.65,471.883,331.556,471.883,331.556z"/>
	<path style="fill:#B05179;" d="M45.37,370.536c0,0,53.914-108.946,55.25-106.617s6.75,12.846,6.75,12.846   S62.003,377.403,58.337,376.41S45.37,370.536,45.37,370.536z"/>
	<path style="fill:#B05179;" d="M4.202,337.57c0,0,101.33-67.143,101.316-64.457c-0.014,2.685-0.613,14.499-0.613,14.499   s-89.767,64.249-92.439,61.55S4.202,337.57,4.202,337.57z"/>
	<g>
		
			<ellipse transform="matrix(0.7623 -0.6472 0.6472 0.7623 -153.1557 248.8066)" style="fill:#70A471;" cx="262.167" cy="332.921" rx="43.912" ry="46.08"/>
		
			<ellipse transform="matrix(0.7623 -0.6472 0.6472 0.7623 -152.6912 247.9857)" style="fill:#A5B370;" cx="261.281" cy="331.878" rx="33.889" ry="35.562"/>
		<path style="fill:#241726;" d="M266.047,357.682c-2.731,0-6.9-1.258-12.863-6.075c-0.287-0.231-0.461-0.575-0.477-0.941    c-0.016-0.369,0.126-0.725,0.39-0.981c0.157-0.151,3.92-3.677,9.025-3.138c3.799,0.422,7.249,2.959,10.258,7.538    c0.389,0.592,0.225,1.391-0.369,1.78c-0.469,0.306-1.068,0.264-1.491-0.055c-0.058,0.148-0.146,0.286-0.264,0.412    C270.007,356.482,268.713,357.682,266.047,357.682z M256.096,350.621c8.96,6.735,12.296,3.831,12.329,3.798    c0.227-0.211,0.512-0.326,0.802-0.346c-2.285-3-4.757-4.669-7.362-4.968C259.438,348.826,257.34,349.818,256.096,350.621z"/>
		<path style="fill:#241726;" d="M277.019,341.76h-0.001c-0.368,0-0.719-0.158-0.963-0.434c-0.144-0.163-3.525-4.064-2.724-9.16    c0.594-3.775,3.282-7.106,7.992-9.903c0.609-0.369,1.397-0.166,1.762,0.449c0.286,0.482,0.22,1.079-0.124,1.486    c0.146,0.063,0.282,0.158,0.4,0.281c0.507,0.53,4.66,5.505-5.38,16.846C277.737,341.602,277.387,341.76,277.019,341.76z     M281.17,325.411c-3.1,2.146-4.88,4.541-5.295,7.129c-0.388,2.417,0.51,4.553,1.251,5.834c7.134-8.647,4.384-12.109,4.354-12.144    C281.28,325.994,281.177,325.703,281.17,325.411z"/>
		<path style="fill:#241726;" d="M262.583,321.455h-0.001c-0.368,0-0.718-0.158-0.963-0.434c-0.144-0.163-3.524-4.061-2.724-9.157    c0.592-3.775,3.282-7.109,7.992-9.905c0.607-0.369,1.398-0.166,1.761,0.449c0.287,0.482,0.221,1.079-0.123,1.486    c0.146,0.063,0.282,0.158,0.4,0.281c0.507,0.53,4.66,5.505-5.38,16.846C263.301,321.297,262.951,321.455,262.583,321.455z     M266.734,305.107c-3.1,2.149-4.88,4.541-5.295,7.131c-0.388,2.415,0.51,4.551,1.251,5.831c7.135-8.647,4.384-12.109,4.354-12.144    C266.844,305.689,266.741,305.398,266.734,305.107z"/>
		<path style="fill:#241726;" d="M242.446,331.551c0,0,0,0-0.001,0c-0.368,0-0.718-0.158-0.963-0.434    c-0.144-0.163-3.524-4.061-2.724-9.157c0.592-3.775,3.282-7.109,7.992-9.905c0.607-0.369,1.398-0.166,1.761,0.449    c0.287,0.482,0.221,1.079-0.123,1.486c0.146,0.063,0.282,0.158,0.4,0.281c0.507,0.53,4.66,5.505-5.38,16.846    C243.163,331.393,242.813,331.551,242.446,331.551z M246.596,315.203c-3.1,2.149-4.88,4.541-5.295,7.131    c-0.388,2.415,0.51,4.551,1.251,5.831c7.135-8.647,4.384-12.109,4.354-12.144C246.707,315.785,246.604,315.494,246.596,315.203z"/>
		<path style="fill:#241726;" d="M246.06,345.844c-2.086,0-4.615-0.269-7.681-0.934c-0.36-0.078-0.669-0.306-0.848-0.628    c-0.181-0.321-0.213-0.705-0.093-1.052c0.073-0.206,1.82-5.063,6.657-6.858c3.586-1.325,7.807-0.61,12.547,2.131    c0.615,0.354,0.826,1.14,0.471,1.755c-0.281,0.487-0.821,0.723-1.358,0.62c0.015,0.158,0,0.324-0.05,0.487    C255.535,341.921,254.047,345.844,246.06,345.844z M240.53,342.719c11.038,1.998,12.713-2.096,12.728-2.141    c0.108-0.289,0.311-0.52,0.562-0.668c-3.401-1.662-6.366-2.038-8.832-1.125C242.685,339.639,241.273,341.454,240.53,342.719z"/>
	</g>
	<g>
		
			<ellipse transform="matrix(0.0984 -0.9951 0.9951 0.0984 -235.8223 404.7636)" style="fill:#70A471;" cx="105.48" cy="332.533" rx="46.08" ry="43.912"/>
		
			<ellipse transform="matrix(0.0984 -0.9951 0.9951 0.0984 -234.346 403.6702)" style="fill:#A5B370;" cx="105.615" cy="331.172" rx="35.562" ry="33.889"/>
		<path style="fill:#241726;" d="M96.105,355.588c-0.094,0-0.188-0.01-0.284-0.03c-0.55-0.125-0.936-0.582-0.995-1.115    c-0.151,0.065-0.291,0.115-0.491,0.098c-0.784,0-7.197-0.467-8.536-15.483c-0.033-0.366,0.094-0.728,0.346-0.997    c0.254-0.266,0.595-0.409,0.978-0.402c0.217,0.008,5.373,0.228,8.527,4.31c2.336,3.025,2.911,7.269,1.707,12.613    C97.224,355.182,96.693,355.588,96.105,355.588z M88.533,340.46c1.382,11.13,5.79,11.509,5.836,11.512    c0.307,0.018,0.59,0.143,0.806,0.336c0.571-3.74,0.049-6.685-1.559-8.765C92.114,341.599,89.962,340.794,88.533,340.46z"/>
		<path style="fill:#241726;" d="M110.369,349.747c-0.348,0-0.682-0.141-0.925-0.392c-0.256-0.266-0.385-0.628-0.356-0.997    c0.018-0.216,0.472-5.357,4.693-8.321c3.128-2.199,7.394-2.578,12.677-1.135c0.685,0.188,1.088,0.894,0.901,1.579    c-0.148,0.542-0.623,0.909-1.153,0.944c0.054,0.151,0.082,0.311,0.074,0.482c-0.029,0.733-0.72,7.179-15.854,7.839    C110.407,349.747,110.388,349.747,110.369,349.747z M120.675,340.615c-2.149,0-3.953,0.505-5.396,1.511    c-2.008,1.401-2.921,3.529-3.323,4.953c11.176-0.879,11.754-5.264,11.759-5.309c0.03-0.306,0.168-0.582,0.372-0.788    C122.867,340.738,121.73,340.615,120.675,340.615z"/>
		<path style="fill:#241726;" d="M114.938,325.258c-0.348,0-0.682-0.141-0.925-0.392c-0.256-0.266-0.385-0.628-0.356-0.997    c0.018-0.216,0.472-5.357,4.693-8.321c3.128-2.196,7.394-2.578,12.678-1.135c0.685,0.188,1.088,0.894,0.901,1.579    c-0.148,0.542-0.624,0.909-1.155,0.944c0.054,0.151,0.082,0.311,0.074,0.482c-0.029,0.733-0.719,7.179-15.853,7.839    C114.975,325.258,114.956,325.258,114.938,325.258z M125.243,316.126c-2.149,0-3.953,0.505-5.396,1.511    c-2.008,1.401-2.921,3.529-3.323,4.953c11.175-0.879,11.753-5.264,11.758-5.309c0.03-0.306,0.168-0.582,0.372-0.791    C127.436,316.249,126.299,316.126,125.243,316.126z"/>
		<path style="fill:#241726;" d="M93.685,317.793c-0.348,0-0.682-0.141-0.925-0.392c-0.256-0.266-0.385-0.628-0.356-0.997    c0.018-0.216,0.472-5.357,4.693-8.324c3.126-2.196,7.395-2.58,12.678-1.135c0.684,0.188,1.088,0.894,0.901,1.579    c-0.148,0.542-0.624,0.909-1.156,0.944c0.055,0.151,0.083,0.314,0.075,0.484c-0.029,0.733-0.719,7.177-15.853,7.839    C93.723,317.793,93.704,317.793,93.685,317.793z M103.993,308.661c-2.149,0-3.955,0.505-5.398,1.511    c-2.008,1.398-2.919,3.529-3.323,4.953c11.174-0.881,11.753-5.264,11.758-5.309c0.03-0.309,0.168-0.585,0.373-0.791    C106.185,308.782,105.048,308.661,103.993,308.661z"/>
		<path style="fill:#241726;" d="M92.861,334.179c-2.506,0-7.041-1.556-12.532-10.42c-0.195-0.314-0.245-0.695-0.139-1.049    c0.107-0.351,0.359-0.643,0.694-0.796c0.197-0.093,4.904-2.211,9.555,0.023c3.445,1.654,5.864,5.186,7.189,10.502    c0.171,0.69-0.249,1.386-0.936,1.559c-0.543,0.128-1.097-0.098-1.387-0.545c-0.105,0.121-0.235,0.223-0.387,0.301    C94.715,333.858,93.995,334.179,92.861,334.179z M83.404,323.79c6.175,9.227,10.307,7.696,10.347,7.676    c0.286-0.148,0.604-0.176,0.897-0.103c-1.166-3.572-2.944-5.957-5.299-7.096C87.144,323.197,84.841,323.446,83.404,323.79z"/>
	</g>
	<g>
		
			<ellipse transform="matrix(0.2095 -0.9778 0.9778 0.2095 -17.9049 620.5655)" style="fill:#70A471;" cx="374.837" cy="321.356" rx="43.912" ry="46.08"/>
		
			<ellipse transform="matrix(0.2095 -0.9778 0.9778 0.2095 -18.6822 619.0308)" style="fill:#A5B370;" cx="373.499" cy="321.069" rx="33.889" ry="35.562"/>
		<path style="fill:#241726;" d="M380.315,341.66c-0.39,0-0.789-0.005-1.201-0.015c-0.368-0.01-0.715-0.176-0.953-0.457    c-0.237-0.281-0.343-0.653-0.289-1.017c0.031-0.216,0.83-5.311,5.24-7.987c3.264-1.981,7.547-2.073,12.724-0.284    c0.671,0.233,1.027,0.966,0.793,1.637c-0.183,0.53-0.682,0.863-1.214,0.863h-0.001c0.045,0.153,0.061,0.319,0.043,0.487    C395.383,335.598,394.317,341.66,380.315,341.66z M389.09,333.193c-1.777,0-3.322,0.392-4.622,1.175    c-2.097,1.263-3.149,3.326-3.647,4.717c11.209-0.126,12.079-4.461,12.088-4.506c0.051-0.304,0.207-0.57,0.424-0.763    C391.798,333.401,390.382,333.193,389.09,333.193z"/>
		<path style="fill:#241726;" d="M391.215,319.57c-0.082,0-0.163-0.008-0.245-0.023c-0.215-0.043-5.271-1.072-7.745-5.598    c-1.832-3.354-1.733-7.636,0.295-12.724c0.261-0.66,1.009-0.976,1.669-0.72c0.522,0.208,0.833,0.723,0.808,1.255    c0.156-0.038,0.32-0.045,0.49-0.02c0.724,0.11,7.051,1.519,6.011,16.632c-0.026,0.369-0.207,0.708-0.5,0.931    C391.772,319.477,391.496,319.57,391.215,319.57z M385.309,303.839c-1.143,3.595-1.087,6.574,0.171,8.878    c1.179,2.156,3.178,3.291,4.537,3.843c0.375-11.1-3.874-12.272-3.92-12.28C385.778,304.233,385.503,304.07,385.309,303.839z"/>
		<path style="fill:#241726;" d="M367.392,312.283c-0.082,0-0.163-0.008-0.245-0.023c-0.215-0.043-5.271-1.072-7.745-5.598    c-1.832-3.354-1.733-7.636,0.295-12.724c0.261-0.663,1.009-0.974,1.669-0.72c0.522,0.208,0.833,0.723,0.808,1.255    c0.157-0.038,0.319-0.045,0.489-0.02c0.724,0.11,7.051,1.519,6.011,16.632c-0.026,0.369-0.207,0.708-0.5,0.931    C367.949,312.19,367.673,312.283,367.392,312.283z M361.487,296.552c-1.143,3.595-1.087,6.574,0.171,8.878    c1.178,2.156,3.178,3.291,4.537,3.843c0.375-11.1-3.874-12.272-3.92-12.28C361.955,296.946,361.68,296.783,361.487,296.552z"/>
		<path style="fill:#241726;" d="M357.589,332.563c-0.082,0-0.163-0.008-0.245-0.023c-0.215-0.043-5.271-1.069-7.745-5.598    c-1.832-3.351-1.733-7.633,0.295-12.721c0.262-0.66,1.013-0.976,1.669-0.72c0.522,0.208,0.832,0.72,0.808,1.253    c0.157-0.038,0.323-0.045,0.491-0.02c0.725,0.11,7.05,1.521,6.009,16.632c-0.026,0.369-0.207,0.708-0.5,0.931    C358.146,332.47,357.87,332.563,357.589,332.563z M351.692,316.807c-1.152,3.607-1.099,6.597,0.162,8.903    c1.178,2.156,3.178,3.291,4.537,3.843c0.384-11.208-3.91-12.277-3.955-12.285C352.134,317.201,351.875,317.035,351.692,316.807z"/>
		<path style="fill:#241726;" d="M362.746,345.488c-0.172,0-0.344-0.035-0.506-0.103c-0.339-0.146-0.599-0.429-0.714-0.778    c-0.069-0.208-1.645-5.121,1.094-9.493c2.029-3.238,5.812-5.246,11.243-5.967c0.712-0.095,1.35,0.402,1.443,1.107    c0.074,0.557-0.222,1.079-0.698,1.318c0.108,0.115,0.197,0.256,0.257,0.417c0.257,0.688,2.121,6.895-11.571,13.377    C363.122,345.447,362.934,345.488,362.746,345.488z M372.484,331.983c-3.707,0.758-6.289,2.267-7.686,4.496    c-1.304,2.081-1.317,4.38-1.133,5.836c9.965-5.146,8.796-9.413,8.782-9.458C372.356,332.56,372.376,332.254,372.484,331.983z"/>
	</g>
	<path style="fill:#F9DD96;" d="M241.879,277.515c0,0-54.022,49.434-91.527,52.69s-92.37-47.59-92.37-47.59L241.879,277.515z"/>
	<path style="fill:#F9DD96;" d="M418.509,264.534c0,0-54.022,49.434-91.527,52.69s-92.37-47.59-92.37-47.59L418.509,264.534z"/>
	<g>
		<path style="fill:#E2394B;" d="M212.71,217.437c0,0,88.129,89.991,89.644,95.716c1.515,5.724-61.627,45.757-99.751,4.961    S203.936,210.1,212.71,217.437z"/>
		<path style="fill:#241726;" d="M239.179,318.662c-7.021,0-14.068-1.883-20.556-6.762c-11.864-8.919-14.543-25.772-7.746-48.737    c5.054-17.077,13.659-31.768,13.746-31.914c0.359-0.612,1.146-0.813,1.76-0.454c0.611,0.361,0.815,1.147,0.454,1.76    c-0.336,0.57-33.306,57.264-6.669,77.292c26.688,20.064,64.302-14.511,64.68-14.863c0.522-0.484,1.334-0.457,1.817,0.063    c0.483,0.517,0.456,1.33-0.063,1.815C286.299,297.145,262.9,318.662,239.179,318.662z"/>
		<path style="fill:#241726;" d="M251.481,309.166c-0.894,0-2.107-0.382-2.967-2.134c-3.175-6.471,2.415-19.747,6.376-27.679    c-8.634,7.423-24.763,20.42-31.054,19.632c-1.104-0.141-1.983-0.663-2.539-1.511c-1.417-2.161-1.772-6.564,11.449-19.793    c3.637-3.64,7.446-7.079,10.27-9.544c-8.765,2.214-23.839,5.314-27.155,1.386c-0.612-0.725-0.799-1.614-0.525-2.503    c1.566-5.073,21.974-11.097,28.191-12.822c0.682-0.193,1.393,0.208,1.583,0.894c0.19,0.685-0.211,1.393-0.895,1.581    c-13.992,3.886-26.343,9.092-26.433,11.145c2.39,2.826,19.013-0.442,30.07-3.652c0.581-0.166,1.21,0.095,1.495,0.638    c0.285,0.54,0.149,1.205-0.324,1.591c-14.094,11.534-27.881,26.156-25.578,29.667c0.099,0.151,0.261,0.314,0.713,0.371    c5.27,0.685,23.917-14.197,34.381-23.731c0.472-0.427,1.184-0.449,1.676-0.05c0.493,0.402,0.62,1.102,0.299,1.652    c-3.82,6.496-13.008,24.838-9.693,31.593c0.23,0.469,0.535,0.73,0.673,0.698c3.066-0.07,11.129-14.288,16.841-27.421    c0.281-0.653,1.033-0.946,1.691-0.668c0.651,0.284,0.95,1.042,0.666,1.692c-2.939,6.76-13.006,28.824-19.139,28.967    C251.529,309.166,251.505,309.166,251.481,309.166z"/>
	</g>
	<g>
		<path style="fill:#E2394B;" d="M400.471,195.539c0,0,88.129,89.991,89.644,95.716c1.515,5.724-61.627,45.757-99.751,4.961    S391.698,188.202,400.471,195.539z"/>
		<path style="fill:#241726;" d="M426.94,296.763c-7.021,0-14.068-1.883-20.556-6.762c-11.864-8.921-14.543-25.774-7.746-48.737    c5.054-17.077,13.659-31.768,13.746-31.914c0.36-0.612,1.147-0.813,1.76-0.454c0.611,0.361,0.815,1.147,0.454,1.76    c-0.336,0.57-33.306,57.264-6.669,77.292c26.689,20.064,64.302-14.511,64.68-14.863c0.522-0.482,1.332-0.454,1.817,0.063    c0.483,0.517,0.456,1.33-0.063,1.815C474.061,275.246,450.661,296.763,426.94,296.763z"/>
		<path style="fill:#241726;" d="M439.242,287.267c-0.894,0-2.107-0.382-2.967-2.134c-3.175-6.471,2.415-19.747,6.376-27.679    c-8.634,7.423-24.753,20.415-31.054,19.632c-1.104-0.141-1.983-0.663-2.539-1.511c-1.417-2.161-1.772-6.564,11.449-19.795    c3.637-3.64,7.448-7.079,10.27-9.544c-8.764,2.216-23.84,5.311-27.155,1.388c-0.612-0.725-0.799-1.614-0.525-2.503    c1.566-5.073,21.974-11.097,28.191-12.822c0.685-0.196,1.392,0.208,1.583,0.894c0.19,0.685-0.211,1.393-0.895,1.581    c-13.992,3.886-26.343,9.092-26.433,11.145c2.393,2.834,19.014-0.444,30.072-3.655c0.58-0.166,1.211,0.095,1.495,0.638    c0.285,0.54,0.149,1.205-0.324,1.591c-14.094,11.534-27.883,26.158-25.58,29.67c0.099,0.151,0.261,0.314,0.713,0.371    c5.28,0.668,23.917-14.197,34.382-23.731c0.472-0.427,1.184-0.447,1.676-0.05c0.493,0.402,0.62,1.102,0.299,1.652    c-3.82,6.496-13.008,24.838-9.693,31.593c0.227,0.464,0.451,0.698,0.666,0.698c0.003,0,0.005,0,0.006,0    c3.066-0.07,11.129-14.288,16.841-27.421c0.281-0.653,1.033-0.946,1.691-0.668c0.651,0.284,0.95,1.042,0.666,1.692    c-2.939,6.76-13.006,28.824-19.139,28.967C439.29,287.267,439.266,287.267,439.242,287.267z"/>
	</g>
	<g>
		<path style="fill:#E2394B;" d="M147.685,267.612c0,0-96.736,80.669-102.562,81.722c-5.827,1.053-40.694-65.082,3.013-99.829    S155.699,259.451,147.685,267.612z"/>
		<path style="fill:#241726;" d="M63.626,335.417c-0.379,0-0.754-0.166-1.008-0.487c-0.334-0.419-33.123-42.349-9.566-68.959    c9.839-11.115,26.851-12.443,49.199-3.833c16.62,6.398,30.577,16.148,30.717,16.246c0.58,0.409,0.72,1.21,0.313,1.79    c-0.41,0.582-1.21,0.723-1.791,0.314c-0.541-0.382-54.425-37.76-76.512-12.814c-22.145,25.016,9.333,65.256,9.654,65.66    c0.442,0.555,0.349,1.363-0.207,1.805C64.189,335.326,63.906,335.417,63.626,335.417z"/>
		<path style="fill:#241726;" d="M81.101,320.552c-0.205,0-0.41-0.048-0.604-0.151c-6.504-3.469-27.694-15.264-27.346-21.389    c0.05-0.896,0.503-2.121,2.37-2.859c6.696-2.651,19.49,3.981,27.082,8.562c-6.712-9.197-18.384-26.321-17.093-32.519    c0.227-1.089,0.818-1.923,1.709-2.41c2.262-1.245,6.68-1.245,18.816,12.99c3.339,3.916,6.462,7.99,8.694,10.999    c-1.509-8.914-3.391-24.19,0.783-27.177c0.771-0.557,1.672-0.668,2.537-0.326c4.932,1.965,9.311,22.792,10.535,29.128    c0.136,0.695-0.32,1.371-1.018,1.506c-0.703,0.12-1.372-0.321-1.505-1.019c-2.756-14.258-6.963-26.987-9.003-27.238    c-3.006,2.154-1.073,18.987,1.243,30.265c0.123,0.597-0.192,1.2-0.753,1.441c-0.564,0.238-1.215,0.05-1.563-0.449    c-10.372-14.973-23.873-29.883-27.533-27.865c-0.159,0.088-0.334,0.236-0.427,0.68c-1.097,5.264,12.246,24.976,20.913,36.164    c0.39,0.505,0.354,1.215-0.085,1.674c-0.438,0.462-1.148,0.535-1.668,0.166c-6.171-4.325-23.721-14.943-30.722-12.182    c-0.483,0.191-0.735,0.399-0.748,0.615c-0.174,3.065,13.355,12.234,25.99,18.974c0.626,0.334,0.863,1.112,0.528,1.74    C82.004,320.306,81.56,320.552,81.101,320.552z"/>
	</g>
	<g>
		<path style="fill:#A5B370;" d="M188.889,143.584c0,0-51.011-3.883-61.801,21.966s22.94,34.29,20.871,14.935    s-73.958-12.875-63.458,14.915s32.625,3.74,18.387,0.143s-58.203,7.728-54.199,31.092s37.044,22.543,29.029,9.546    S3.76,223.307,21.859,268.656s70.776,22.551,64.834,12.043c-5.942-10.508-31.108,13.264-4.568,24.883s60.555-16.713,56.411-30.124    c-4.144-13.411-36.916,18.101,2.621,21.705s65.676-39.246,48.119-40.079s-21.85,29.441,15.339,25.164s54.75-20.309,40.513-32.34    s-29.722-1.943-11.201,13.545s55.296,7.34,52.267-43.535"/>
		<path style="fill:#70A471;" d="M176.932,160.911c0,0-38.108-2.901-46.168,16.41s17.138,25.617,15.592,11.158    c-1.546-14.459-55.25-9.618-47.406,11.142s24.372,2.794,13.736,0.107c-10.637-2.688-43.48,5.773-40.49,23.227    c2.991,17.454,27.674,16.841,21.686,7.131c-5.988-9.709-55.25-9.618-41.729,24.26s52.873,16.847,48.434,8.997    c-4.439-7.85-23.239,9.909-3.413,18.589c19.827,8.68,45.238-12.486,42.142-22.504c-3.096-10.018-27.578,13.523,1.958,16.215    s49.063-29.319,35.947-29.941c-13.116-0.623-16.323,21.994,11.459,18.799s40.901-15.172,30.266-24.159    c-10.635-8.988-22.204-1.451-8.368,10.119c13.836,11.57,41.309,5.484,39.046-32.523"/>
		<path style="fill:#241726;" d="M95.55,309.59c-4.729,0-9.447-0.863-13.941-2.831c-7.431-3.253-10.663-7.312-11.946-10.851    c-4.589,1.052-9.65,1.478-14.741,0.976c-11.011-1.092-25.893-6.792-34.257-27.75c-9.052-22.679,3.032-32.825,11.041-36.857    c4.749-2.39,10.3-3.818,15.904-4.435c-0.068-0.324-0.132-0.653-0.188-0.989c-1.158-6.755,1.273-12.972,7.225-18.477    c7.123-6.592,18.211-11.02,28.41-13.196c-1.935-5.753-0.676-11.133,3.661-15.598c7.746-7.975,24.091-11.86,38.08-11.486    c0.3-0.976,0.665-1.991,1.103-3.04c11.021-26.402,60.963-22.913,63.085-22.754c0.708,0.055,1.238,0.673,1.184,1.381    c-0.054,0.708-0.65,1.222-1.379,1.185c-0.498-0.043-50.21-3.514-60.517,21.178c-0.306,0.733-0.577,1.461-0.813,2.179    c4.286,0.294,8.263,1.014,11.601,2.166c6.189,2.134,9.707,5.578,10.175,9.96c0.546,5.106-1.264,9.094-4.968,10.942    c-4.461,2.227-10.878,0.861-15.269-3.243c-2.323-2.174-6.833-7.791-4.863-17.375c-13.146-0.138-28.508,3.426-35.574,10.698    c-3.749,3.861-4.744,8.336-2.957,13.309c7.087-1.273,13.53-1.413,17.597-0.382c5.254,1.325,5.668,4.92,5.601,6.406    c-0.188,4.232-4.282,8.306-9.127,9.079c-3.013,0.487-10.378,0.183-15.67-12.167c-9.954,2.093-20.878,6.411-27.615,12.644    c-5.273,4.88-7.439,10.314-6.437,16.16c0.07,0.407,0.148,0.806,0.235,1.195c12.779-0.846,25.223,2.38,28.622,7.889    c2.37,3.843,1.28,6.431,0.419,7.628c-2.196,3.062-7.705,4.194-13.699,2.811c-6.682-1.539-14.333-6.436-17.276-15.656    c-5.328,0.562-10.688,1.918-15.393,4.285c-8.822,4.44-17.685,13.874-9.81,33.606c7.886,19.757,21.822,25.124,32.124,26.146    c4.944,0.484,9.667,0.063,13.864-0.901c-0.168-1.157-0.154-2.206-0.063-3.08c0.697-6.702,6.521-12.32,11.524-13.364    c3.164-0.653,5.829,0.462,7.31,3.085c1.002,1.77,0.797,3.903-0.575,6.009c-2.383,3.66-8.025,7.154-15.091,9.192    c1.171,3.037,4.105,6.341,10.496,9.137c14.935,6.536,32.651-0.048,44.081-9.704c-4.922-2.766-6.047-6.356-6.145-8.828    c-0.269-6.825,6.608-13.891,12.426-14.888c3.274-0.56,5.795,0.971,6.76,4.094c1.574,5.093-1.628,12.187-8.412,18.876    c2.692,0.921,6.016,1.571,9.923,1.928c16.886,1.551,31.849-5.665,41.602-15.033c-3.026-1.617-4.819-3.577-5.86-5.153    c-2.627-3.974-2.788-9.029-0.418-13.193c2.533-4.453,7.298-6.956,12.739-6.702c3.677,0.173,5.324,1.968,6.058,3.444    c1.753,3.524,0.26,9.34-3.995,15.56c-1.184,1.727-2.538,3.444-4.049,5.116c4.506,1.446,10.339,1.83,17.117,1.049    c17.594-2.021,29.868-6.544,36.958-11.549c-2.983-1.207-5.801-2.872-8.324-4.98c-6.476-5.417-9.616-10.821-8.841-15.219    c0.439-2.485,2.093-4.368,4.661-5.296c3.76-1.361,10.211-0.766,17.035,5.003c5.819,4.917,5.886,9.764,4.919,12.965    c-0.688,2.274-2.109,4.461-4.174,6.516c6.456,1.519,13.369,0.848,19.356-2.169c13.331-6.72,20.203-23.575,18.854-46.244    c-0.043-0.708,0.498-1.315,1.206-1.358c0.751-0.06,1.318,0.5,1.359,1.207c1.413,23.738-5.972,41.488-20.262,48.689    c-7.069,3.564-15.312,4.122-22.827,1.915c-7.931,6.255-22.093,11.06-39.626,13.075c-8.855,1.014-15.056,0.105-19.378-1.541    c-10.209,10.161-26.247,18.083-44.343,16.459c-5.057-0.462-8.887-1.373-11.783-2.535C120.555,303.581,108.016,309.59,95.55,309.59    z M134.325,273.436c-0.277,0-0.574,0.028-0.887,0.08c-4.673,0.801-10.502,6.888-10.292,12.255    c0.117,2.957,2.048,5.364,5.608,7.119c6.538-6.157,9.879-12.764,8.555-17.054C136.811,274.227,135.831,273.436,134.325,273.436z     M82.249,279.363c-0.384,0-0.792,0.045-1.224,0.136c-4.03,0.841-8.921,5.61-9.492,11.112c-0.07,0.675-0.08,1.401,0.003,2.159    c6.693-1.973,11.705-5.271,13.546-8.098c0.846-1.298,1.012-2.422,0.492-3.341C84.833,280.023,83.718,279.363,82.249,279.363z     M188.58,258.35c-4.188,0-7.8,1.998-9.748,5.422c-1.916,3.369-1.794,7.297,0.328,10.507c1.274,1.928,3.18,3.482,5.628,4.636    c1.696-1.807,3.202-3.677,4.492-5.565c3.665-5.357,5.127-10.324,3.814-12.962c-0.621-1.25-1.927-1.93-3.879-2.023    C189.002,258.355,188.79,258.35,188.58,258.35z M232.665,245.89c-1.113,0-2.083,0.168-2.867,0.452    c-1.179,0.427-2.656,1.35-3.005,3.326c-0.284,1.609-0.077,6.08,7.958,12.799c2.707,2.264,5.785,3.971,9.042,5.098    c2.456-2.146,3.994-4.335,4.622-6.416c1.084-3.582-0.301-7.033-4.117-10.259C239.903,247.175,235.736,245.89,232.665,245.89z     M50.881,230.073c3.391,9.87,12.325,12.699,15.227,13.367c4.846,1.12,9.485,0.356,11.035-1.802c0.867-1.21,0.692-2.819-0.52-4.782    C73.924,232.478,62.763,229.381,50.881,230.073z M86.597,197.118c3.248,7.239,7.789,10.889,12.675,10.128    c3.957-0.633,6.846-4.016,6.964-6.657c0.105-2.35-1.934-3.364-3.664-3.8C98.866,195.855,93.043,195.993,86.597,197.118z     M126.76,170.771c-1.366,6.213,0.006,11.67,3.995,15.4c3.633,3.394,8.828,4.581,12.366,2.821c2.727-1.36,3.991-4.333,3.559-8.371    c-0.448-4.192-4.847-6.557-8.458-7.802C134.979,171.7,131.028,171.02,126.76,170.771z"/>
		<path style="fill:#241726;" d="M105.368,270.557c-0.256,0-0.516-0.003-0.782-0.01c-3.928-0.105-8.658-1.524-10.151-5.188    c-1.584-3.883,0.861-9.205,7.267-15.814c2.026-2.091,4.681-3.775,7.738-5.101c-5.791-5.6-13.134-7.661-20.054-5.527    c-0.671,0.218-1.396-0.171-1.606-0.848c-0.21-0.678,0.169-1.398,0.848-1.606c8.183-2.533,16.843,0.073,23.425,6.966    c8.892-3.087,20.296-3.61,29.573-2.553c0.323-1.125,0.729-2.297,1.23-3.517c7.874-19.167,36.676-8.906,36.967-8.798    c0.666,0.243,1.01,0.981,0.767,1.647c-0.245,0.668-0.981,1.007-1.648,0.768c-0.267-0.095-26.771-9.526-33.709,7.362    c-0.409,0.997-0.751,1.958-1.029,2.882c1.952,0.299,3.777,0.67,5.428,1.102c4.821,1.268,10.806,3.695,11.952,8.073    c0.653,2.493-0.378,5.073-3.064,7.671c-3.332,3.223-8.45,3.582-12.444,0.874c-3.694-2.505-6.523-7.751-5.044-15.578    c-9.001-1.014-19.199-0.319-27.12,2.204c4.929,6.225,6.653,13.567,4.276,18.6C116.796,267.108,113.44,270.557,105.368,270.557z     M111.342,246.48c-3.197,1.27-5.888,2.884-7.795,4.852c-7.013,7.237-7.532,11.095-6.732,13.058    c1.028,2.52,4.866,3.509,7.839,3.587c5.753,0.171,9.619-1.546,11.21-4.912C117.881,258.797,116.021,252.017,111.342,246.48z     M143.585,243.701c-1.304,6.697,0.938,11.077,3.933,13.108c2.977,2.021,6.767,1.777,9.215-0.592    c1.969-1.905,2.765-3.645,2.365-5.173c-0.639-2.442-4.327-4.714-10.118-6.235C147.275,244.361,145.464,243.99,143.585,243.701z"/>
	</g>
	<g>
		<path style="fill:#A5B370;" d="M303.196,136.801c0,0,50.367-8.967,63.688,15.673s-19.395,36.413-19.272,16.949    c0.122-19.465,72.299-20.209,64.632,8.492c-7.667,28.701-32.087,6.986-18.28,1.981c13.807-5.004,58.684,1.866,57.038,25.514    s-34.603,26.136-27.928,12.402s72.299-20.209,58.827,26.723s-68.165,29.519-63.304,18.469c4.861-11.05,32.279,10.085,7.035,24.301    c-25.245,14.216-61.923-10.571-59.142-24.329c2.782-13.758,38.541,14.317-0.437,21.858c-38.978,7.541-69.273-32.478-51.887-35.064    c17.385-2.586,24.686,27.107-12.745,26.573s-56.507-14.729-43.546-28.124c12.961-13.395,29.379-4.906,12.5,12.357    c-16.879,17.263-54.284,12.836-56.36-38.087"/>
		<path style="fill:#70A471;" d="M274.723,151.801c0,0,37.627-6.699,47.578,11.708c9.952,18.407-14.489,27.203-14.397,12.661    c0.091-14.541,54.011-15.097,48.283,6.344c-5.728,21.441-23.971,5.219-13.656,1.48s43.84,1.394,42.61,19.06    s-25.85,19.525-20.864,9.265c4.986-10.26,54.011-15.097,43.947,19.963c-10.064,35.06-50.922,22.052-47.291,13.797    c3.631-8.255,24.114,7.534,5.255,18.154c-18.859,10.62-46.26-7.897-44.182-18.175c2.078-10.278,28.792,10.696-0.326,16.329    s-51.75-24.263-38.762-26.195s18.441,20.25-9.521,19.851c-27.962-0.399-42.214-11.004-32.531-21.01    c9.683-10.006,21.947-3.665,9.338,9.231c-12.609,12.896-40.553,9.589-42.104-28.453"/>
		<path style="fill:#241726;" d="M408.631,292.837c-11.148,0-22.457-4.41-30.865-10.445c-2.765,1.446-6.485,2.739-11.47,3.702    c-17.855,3.449-34.595-2.854-45.768-11.938c-4.138,2.068-10.218,3.597-19.126,3.469c-17.646-0.251-32.216-3.617-40.735-9.044    c-7.256,2.947-15.519,3.218-22.904,0.379c-14.94-5.738-24.064-22.657-25.032-46.42c-0.029-0.71,0.522-1.308,1.231-1.338    c0.69-0.018,1.308,0.525,1.337,1.232c0.925,22.689,9.449,38.772,23.386,44.126c6.26,2.405,13.206,2.377,19.477,0.221    c-2.263-1.84-3.897-3.873-4.808-6.067c-1.283-3.087-1.699-7.917,3.597-13.392c6.211-6.418,12.575-7.653,16.449-6.679    c2.648,0.668,4.483,2.372,5.167,4.802c1.212,4.3-1.371,9.99-7.273,16.027c-2.298,2.35-4.935,4.287-7.783,5.786    c7.556,4.27,20.222,7.543,37.928,7.797c6.804,0.098,12.586-0.871,16.925-2.756c-1.671-1.511-3.189-3.082-4.538-4.684    c-4.857-5.763-6.926-11.401-5.534-15.083c0.582-1.541,2.042-3.492,5.683-4.034c5.398-0.813,10.379,1.217,13.346,5.394    c2.774,3.906,3.12,8.954,0.905,13.168c-0.879,1.672-2.467,3.803-5.318,5.716c10.642,8.341,26.261,14.022,42.898,10.794    c3.852-0.746,7.094-1.724,9.68-2.909c-7.419-5.979-11.314-12.716-10.259-17.94c0.649-3.203,3.02-4.963,6.318-4.752    c5.889,0.409,13.437,6.752,13.852,13.57c0.151,2.467-0.609,6.155-5.23,9.4c12.341,8.464,30.625,13.244,44.832,5.246    c6.077-3.424,8.668-7.003,9.529-10.143c-7.236-1.32-13.197-4.235-15.936-7.636c-1.576-1.958-1.993-4.061-1.173-5.921    c1.211-2.754,3.754-4.122,6.964-3.8c5.082,0.537,11.44,5.545,12.804,12.144c0.177,0.861,0.297,1.903,0.246,3.07    c4.275,0.54,9.014,0.497,13.884-0.492c10.147-2.046,23.476-8.778,29.346-29.226c5.861-20.423-3.901-28.922-13.123-32.456    c-4.919-1.885-10.388-2.696-15.745-2.724c-2.007,9.468-9.129,15.109-15.624,17.307c-5.829,1.973-11.422,1.398-13.911-1.426    c-0.976-1.109-2.318-3.572-0.345-7.633c2.83-5.821,14.906-10.282,27.688-10.716c0.048-0.397,0.087-0.801,0.114-1.215    c0.412-5.914-2.288-11.107-8.024-15.432c-7.326-5.527-18.627-8.733-28.739-9.82c-4.029,12.817-11.33,13.841-14.374,13.675    c-4.897-0.284-9.378-3.928-9.989-8.12c-0.215-1.471-0.162-5.088,4.932-6.933c3.943-1.433,10.366-1.94,17.547-1.383    c1.279-5.123-0.157-9.478-4.274-12.942c-7.755-6.529-23.391-8.627-36.465-7.086c2.918,9.338-1.007,15.38-3.101,17.772    c-3.959,4.526-10.216,6.524-14.869,4.757c-3.869-1.466-6.071-5.254-6.038-10.389c0.028-4.408,3.185-8.188,9.129-10.929    c3.204-1.481,7.092-2.593,11.325-3.316c-0.306-0.69-0.649-1.386-1.027-2.086c-12.736-23.55-61.839-15.109-62.332-15.018    c-0.708,0.12-1.367-0.341-1.491-1.039c-0.124-0.7,0.341-1.368,1.039-1.491c2.097-0.372,51.44-8.843,65.045,16.329    c0.541,0.999,1.005,1.97,1.402,2.912c13.875-1.79,30.532,0.459,39.038,7.621c4.762,4.009,6.553,9.235,5.204,15.151    c10.364,1.145,21.838,4.44,29.586,10.284c6.474,4.885,9.516,10.826,9.04,17.666c-0.024,0.339-0.054,0.673-0.09,1.004    c5.64,0.053,11.302,0.919,16.268,2.821c8.371,3.208,21.41,12.094,14.673,35.564c-6.225,21.688-20.461,28.849-31.308,31.038    c-5.014,1.014-10.092,1.089-14.765,0.505c-0.922,3.65-3.731,8.012-10.8,11.993C420.769,291.519,414.725,292.837,408.631,292.837z     M370.959,260.519c-1.79,0-2.841,0.889-3.209,2.708c-0.89,4.4,3.095,10.641,10.216,16.113c3.367-2.101,5.049-4.691,4.868-7.646    c-0.326-5.362-6.736-10.831-11.465-11.16C371.229,260.524,371.092,260.519,370.959,260.519z M423.422,261.202    c-1.746,0-2.971,0.778-3.648,2.317c-0.424,0.966-0.148,2.068,0.823,3.276c2.116,2.628,7.433,5.407,14.289,6.702    c0.006-0.763-0.077-1.483-0.213-2.149c-1.12-5.417-6.462-9.674-10.558-10.108C423.875,261.214,423.644,261.202,423.422,261.202z     M316.268,250.895c-0.628,0-1.266,0.048-1.913,0.143c-1.934,0.289-3.164,1.097-3.657,2.402c-1.043,2.756,0.91,7.553,5.094,12.518    c1.472,1.747,3.155,3.456,5.024,5.086c2.318-1.396,4.06-3.133,5.136-5.178c1.79-3.406,1.519-7.325-0.725-10.487    C323.183,252.499,319.923,250.895,316.268,250.895z M270.894,242.918c-3.146,0-7.63,1.579-12.095,6.193    c-3.474,3.59-4.507,7.161-3.07,10.618c0.833,2.008,2.583,4.034,5.242,5.924c3.128-1.448,6.019-3.454,8.486-5.977    c7.322-7.488,7.081-11.958,6.637-13.532c-0.545-1.93-2.107-2.701-3.322-3.007C272.222,242.996,271.59,242.918,270.894,242.918z     M449.164,209.051c-11.896,0.5-22.687,4.699-24.935,9.323c-1.009,2.076-1.022,3.692-0.038,4.807    c1.753,1.996,6.449,2.284,11.159,0.693C438.171,222.917,446.777,219.21,449.164,209.051z M405.406,179.645    c-4.476,0-8.344,0.494-11.003,1.458c-1.677,0.607-3.605,1.82-3.264,4.147c0.38,2.616,3.593,5.693,7.594,5.926    c4.916,0.266,9.091-3.818,11.598-11.346C408.632,179.707,406.981,179.645,405.406,179.645z M367.733,157.636    c-4.222,0.675-8.084,1.745-11.2,3.183c-3.469,1.601-7.609,4.395-7.636,8.612c-0.025,4.061,1.53,6.89,4.379,7.972    c3.689,1.396,8.745-0.301,12.022-4.046C368.896,169.248,369.714,163.68,367.733,157.636z"/>
		<path style="fill:#241726;" d="M342.144,250.453c-1.45,0-3.081-0.171-4.917-0.562c-3.842-0.821-8.233-3.077-9.034-6.953    c-0.848-4.109,2.526-8.893,10.031-14.222c2.373-1.687,5.293-2.859,8.54-3.605c-4.673-6.562-11.533-9.945-18.707-9.092    c-0.723,0.085-1.343-0.424-1.426-1.13c-0.083-0.703,0.423-1.343,1.127-1.426c8.499-0.981,16.546,3.145,21.76,11.125    c9.305-1.416,20.612,0.148,29.542,2.887c0.522-1.047,1.136-2.124,1.85-3.231c11.238-17.408,37.689-2.063,37.953-1.905    c0.611,0.361,0.813,1.15,0.453,1.76c-0.36,0.612-1.148,0.813-1.761,0.454c-0.242-0.143-24.581-14.255-34.487,1.087    c-0.585,0.906-1.094,1.787-1.537,2.643c1.864,0.65,3.591,1.348,5.134,2.076c4.508,2.124,9.953,5.603,10.28,10.116    c0.187,2.57-1.298,4.92-4.412,6.986c-3.866,2.563-8.962,1.975-12.395-1.413c-3.175-3.138-4.998-8.811-2.117-16.236    c-8.666-2.648-18.821-3.823-27.066-2.784c3.71,7.021,4.065,14.556,0.81,19.067C350.226,248.229,347.367,250.453,342.144,250.453z     M348.261,227.46c-3.374,0.665-6.316,1.762-8.55,3.349c-8.217,5.836-9.431,9.534-9.001,11.609    c0.551,2.666,4.143,4.338,7.054,4.958c5.613,1.202,9.738,0.233,11.917-2.784C352.443,240.764,351.85,233.758,348.261,227.46z     M380.47,230.613c-2.504,6.343-1.101,11.062,1.475,13.605c2.559,2.53,6.329,2.98,9.168,1.099c2.284-1.514,3.384-3.08,3.269-4.654    c-0.183-2.518-3.395-5.427-8.813-7.98C383.975,231.933,382.265,231.241,380.47,230.613z"/>
	</g>
	<path style="fill:#EF9B65;" d="M34.165,192.751c0,0,43.863-85.394,183.713-94.523c224.224-14.637,261.77,68.195,292.694,101.94   s-450.26,48.649-494.666,48.796S34.165,192.751,34.165,192.751z"/>
	<path style="fill:#241726;" d="M248.308,191.462c-31.398,0-63.32-82.042-64.694-85.614c-0.255-0.663,0.077-1.406,0.738-1.662   c0.661-0.254,1.407,0.075,1.662,0.738c0.338,0.876,34.102,87.566,64.153,83.854c29.915-3.697,25.763-94.374,25.718-95.29   c-0.035-0.708,0.511-1.31,1.22-1.345c0.679-0.095,1.313,0.51,1.348,1.22c0.191,3.836,4.296,93.977-27.969,97.966   C249.76,191.42,249.031,191.462,248.308,191.462z"/>
	<path style="fill:#241726;" d="M373.714,195.938c-0.719,0-1.446-0.03-2.183-0.095c-15.633-1.358-26.797-17.435-33.18-47.791   c-4.684-22.275-4.926-44.452-4.929-44.676c-0.006-0.708,0.565-1.29,1.274-1.295c0.727-0.078,1.291,0.565,1.297,1.275   c0.008,0.869,1.158,86.921,35.762,89.926c5.933,0.51,11.273-1.32,15.837-5.467c19.001-17.245,19.739-68.525,19.744-69.039   c0.008-0.705,0.581-1.273,1.285-1.273c0.004,0,0.009,0,0.013,0c0.71,0.008,1.28,0.587,1.273,1.298   c-0.021,2.154-0.763,52.926-20.587,70.919C384.765,193.852,379.525,195.938,373.714,195.938z"/>
	<path style="fill:#241726;" d="M133.582,224.18c-15.89,0.003-31.423-11.619-45.117-33.834   c-10.929-17.729-16.974-36.209-17.033-36.392c-0.218-0.675,0.151-1.401,0.826-1.619c0.682-0.218,1.401,0.156,1.619,0.826   c0.228,0.703,22.621,68.447,59.657,68.452c1.015,0,2.037-0.05,3.074-0.153c2.352-0.238,4.297-1.443,5.948-3.687   c14.491-19.715-2.894-105.389-3.071-106.252c-0.143-0.695,0.305-1.376,1-1.519c0.692-0.146,1.376,0.309,1.517,1.002   c0.733,3.569,17.788,87.662,2.624,108.29c-2.076,2.824-4.686,4.413-7.76,4.722C135.771,224.124,134.674,224.18,133.582,224.18z"/>
	<path style="fill:#241726;" d="M128.588,230.814c-59.08,0-85.25-3.364-85.776-3.436c-0.703-0.095-1.196-0.743-1.101-1.446   c0.095-0.703,0.739-1.212,1.447-1.099c1.084,0.146,111.704,14.33,396.046-16.218c0.713-0.068,1.34,0.437,1.414,1.14   c0.077,0.705-0.434,1.34-1.141,1.416C292.4,226.971,191.71,230.814,128.588,230.814z"/>
	<path style="fill:#241726;" d="M192.049,410.438c-32.094,0-64.615-1.732-95.748-6.082c-0.703-0.098-1.192-0.748-1.094-1.451   c0.097-0.703,0.749-1.187,1.451-1.094c152.435,21.286,338.739-20.327,340.603-20.749c0.698-0.168,1.382,0.276,1.539,0.969   c0.157,0.69-0.277,1.381-0.969,1.536C436.342,383.905,317.577,410.438,192.049,410.438z"/>
</g>















</svg>
