<?xml version="1.0" encoding="UTF-8"?>
<!-- Generator: Adobe Illustrator 25.2.0, SVG Export Plug-In . SVG Version: 6.00 Build 0)  -->
<svg xmlns="http://www.w3.org/2000/svg" xmlns:xlink="http://www.w3.org/1999/xlink" version="1.1" id="Capa_1" x="0px" y="0px" viewBox="0 0 512 512" style="enable-background:new 0 0 512 512;" xml:space="preserve" width="512" height="512">
<g>
	<g>
		<path style="fill:#FFFFFF;" d="M323.348,219.498c0,0,142.549,13.739,181.282,76.313S394.666,425.037,199.636,415.55    S-47.933,295.124,47.631,246.022S323.348,219.498,323.348,219.498z"/>
		<path style="fill:#241726;" d="M236.757,417.622c-12.277,0-24.785-0.306-37.178-0.909    c-56.433-2.746-105.155-14.326-140.895-33.489c-31.823-17.063-52.195-39.623-57.366-63.523    c-6.333-29.279,10.354-56.512,45.781-74.715c51.208-26.311,126.867-31.834,181.319-31.834c53.044,0,94.662,5.139,95.076,5.191    c1.397,0.134,143.536,14.511,182.126,76.855c8.189,13.226,8.496,26.832,0.917,40.44    C480.07,383.142,366.613,417.622,236.757,417.622z M228.417,215.481c-54.195,0-129.46,5.479-180.254,31.577    c-34.416,17.684-50.66,43.981-44.568,72.15c12.932,59.788,107.807,90.883,196.098,95.178c12.354,0.602,24.824,0.906,37.064,0.906    c146.229,0,245.379-40.642,267.744-80.789c7.138-12.813,6.849-25.626-0.86-38.08c-37.992-61.373-178.985-75.629-180.404-75.767    C322.79,220.602,281.307,215.481,228.417,215.481z"/>
	</g>
	<g>
		<path style="fill:#EC7B3F;" d="M388.683,214.022c0,0,17.24,44.281-3.709,80.093c-20.949,35.812-142.536,101.067-246.287,87.854    C40.77,369.499,24.288,317.167,19.362,271.836"/>
		<path style="fill:#F09945;" d="M245.862,344.076c0,0-161.55,36.899-210.436-29.791c-41.059-56.012,2.604-120.971,83.14-150.944    s243.069-30.912,265.811,32.569C407.12,259.391,383.464,300.828,245.862,344.076z"/>
		<path style="fill:#EE8642;" d="M50.03,232.18c0,0,48.921-18.379,48.701-22.948c-0.22-4.569-3.206-23.407-13.617-17.722    C47.182,212.223,43.928,233.847,50.03,232.18z"/>
		<path style="fill:#EE8642;" d="M54.207,244.058c0,0,49.273-22.976,51.667-20.801c2.394,2.175,13.076,24.331,10.651,26.279    c-2.425,1.948-46.621,16.208-48.655,16.763S54.207,244.058,54.207,244.058z"/>
		<path style="fill:#EE8642;" d="M74.24,279.733c0,0,47.684-22.67,51.135-17.569c3.451,5.101,16.698,23.47,13.827,25.669    c-2.871,2.199-38.57,16.966-44.978,17.045S74.24,279.733,74.24,279.733z"/>
		<path style="fill:#EE8642;" d="M114.507,340.998c0,0-14.829-27.453-11.903-28.509c2.926-1.057,42.223-21.95,45.729-15.707    c3.506,6.243,15,21.491,11.598,26.921C156.528,329.133,114.507,340.998,114.507,340.998z"/>
		<path style="fill:#EE8642;" d="M176.588,346.316c0,0-3.152-13.187-8.363-12.021c-5.211,1.166-31.92,10.006-31.92,10.006    S146.163,349.323,176.588,346.316z"/>
		<path style="fill:#EE8642;" d="M41.687,240.824c0,0,12.83,27.549,9.925,27.86s-23.614,11.243-24.181,7.859    C25.746,266.492,26.976,242.046,41.687,240.824z"/>
		<path style="fill:#EE8642;" d="M33.335,288.625c0,0,23.494-11.433,27.379-9.215c3.885,2.218,16.321,25.148,11.304,27.965    s-17.978,11.855-22.467,7.777C45.061,311.074,34.961,293.871,33.335,288.625z"/>
		<path style="fill:#EE8642;" d="M63.441,321.869c0,0,17.433-8.909,20.273-6.985c2.84,1.924,15.611,24.667,14.649,26.087    C97.4,342.392,60.431,323.56,63.441,321.869z"/>
		<path style="fill:#EE8642;" d="M185.711,328.876c0,0,5.006,11.266,8.891,13.484c3.885,2.218,52.347-7.839,54.271-10.679    s-2.912-17.721-8.428-18.143S186.11,326.452,185.711,328.876z"/>
		<path style="fill:#EE8642;" d="M163.403,289.933c0,0,12.431,29.972,15.336,29.661c2.905-0.311,49.929-15.279,50.181-17.18    c0.252-1.901-10.887-26.44-15.066-27.613S163.403,289.933,163.403,289.933z"/>
		<path style="fill:#EE8642;" d="M142.639,254.522c0,0,8.194,23.993,12.935,26.17c4.741,2.177,51.894-17.262,51.876-21.212    s-9.802-25.29-14.795-25.565C187.662,233.64,142.639,254.522,142.639,254.522z"/>
		<path style="fill:#EE8642;" d="M118.184,210.186c0,0,13.205,28.217,17.906,29.537c4.7,1.32,49.594-15.091,49.805-17.849    s-12.372-25.166-15.881-26.715C166.504,193.611,118.184,210.186,118.184,210.186z"/>
		<path style="fill:#EE8642;" d="M103.306,182.908c0,0,4.831,21.922,9.93,20.818c5.099-1.104,55.174-16.905,53.296-20.249    c-1.878-3.345-7.823-16.283-12.565-18.459S116.29,170.778,103.306,182.908z"/>
		<path style="fill:#EE8642;" d="M227.751,272.129c0,0,11.824,22.101,18.146,25.003s48.178-12.39,47.067-16.458    c-1.111-4.068-8.476-28.674-14.884-28.595C271.672,252.159,227.751,272.129,227.751,272.129z"/>
		<path style="fill:#EE8642;" d="M208.813,225.868c0,0,8.977,29.566,13.35,30.042c4.374,0.477,47.873-13.978,48.014-15.817    s-14.297-30.684-17.028-30.324C250.419,210.131,208.813,225.868,208.813,225.868z"/>
		<path style="fill:#EE8642;" d="M254.105,310.706c0,0,5.979,14.826,9.515,16.946s42.357-14.4,43.53-18.578    c1.173-4.178-6.034-15.968-6.034-15.968L254.105,310.706z"/>
		<path style="fill:#EE8642;" d="M186.66,193.73c0,0,9.594,23.353,12.575,23.439c2.981,0.086,43.75-14.009,45.674-16.849    c1.924-2.84-9.704-25.638-11.989-25.528C230.637,174.902,186.66,193.73,186.66,193.73z"/>
		<path style="fill:#EE8642;" d="M168.827,160.926c0,0,9.093,22.461,12.325,22.993c3.231,0.532,50.103-15.23,49.993-17.515    s-8.263-14.716-11.941-14.997S170.892,156.247,168.827,160.926z"/>
		<path style="fill:#EE8642;" d="M236.839,151.476c0,0,5.173,12.346,8.85,12.627s20.427-8.538,23.995-10.541    C273.251,151.559,238.122,149.583,236.839,151.476z"/>
		<path style="fill:#EE8642;" d="M250.392,171.434c0,0,11.128,21.906,13.021,23.189c1.893,1.283,46.645-10.942,46.731-13.923    c0.086-2.981-9.594-23.353-16.002-23.274C287.734,157.504,250.392,171.434,250.392,171.434z"/>
		<path style="fill:#EE8642;" d="M318.098,160.396c0,0,7.927,17.251,10.908,17.337c2.981,0.086,13.738-4.782,13.183-6.816    C341.633,168.882,323.254,158.087,318.098,160.396z"/>
		<path style="fill:#EE8642;" d="M272.153,204.965c0,0,45.173-17.741,48.514-14.925c3.341,2.816,15.47,26.506,13.045,28.454    c-2.425,1.948-42.443,17.381-45.173,17.741C285.809,236.596,272.153,204.965,272.153,204.965z"/>
		<path style="fill:#EE8642;" d="M336.495,185.845c0,0,11.488,24.636,13.772,24.527c2.285-0.11,22.431-4.97,24.355-7.811    c1.924-2.84-15.055-22.633-18.928-22.218C351.821,180.758,336.495,185.845,336.495,185.845z"/>
		<path style="fill:#EE8642;" d="M354.157,224.611c0,0,15.385,29.487,18.365,29.572c2.981,0.086,14.346-35.037,10.058-38.494    C378.292,212.231,355.941,223.609,354.157,224.611z"/>
		<path style="fill:#EE8642;" d="M342.398,227.694c0,0-48.796,18.602-47.544,20.832c1.252,2.23,12.153,28.955,14.884,28.595    c2.73-0.36,43.139-17.185,44.172-19.525C354.942,255.257,342.398,227.694,342.398,227.694z"/>
		<path style="fill:#EE8642;" d="M316.835,286.626c0,0,44.563-20.917,46.12-17.1s-12.219,22.111-38.749,32.316    C324.207,301.843,313.964,288.825,316.835,286.626z"/>
	</g>
	<g>
		<path style="fill:#EC7B3F;" d="M495.855,267.311c0,0-9.046,46.65-45.871,65.761c-36.826,19.111-174.477,9.427-255.176-57.105    c-76.161-62.791-64.736-110.008-44.715-150.975"/>
		<path style="fill:#F09945;" d="M305.671,301.103c0,0-156.321-54.988-162.083-137.476c-4.84-69.281,66.747-100.924,150.854-83.303    s222.072,103.548,207.436,169.372S445.125,337.944,305.671,301.103z"/>
		<path style="fill:#EE8642;" d="M199.747,101.977c0,0,51.182,10.558,53.434,6.576c2.252-3.982,9.778-21.507-2.061-22.254    C207.986,83.579,193.696,100.131,199.747,101.977z"/>
		<path style="fill:#EE8642;" d="M196.942,114.252c0,0,53.932,6.858,54.796,9.975c0.865,3.117-1.923,27.555-5.014,27.909    s-48.078-11.167-50.095-11.783S196.942,114.252,196.942,114.252z"/>
		<path style="fill:#EE8642;" d="M194.85,155.113c0,0,52.426,6.269,52.623,12.424s1.6,28.76-2.001,29.087    c-3.601,0.328-41.673-6.23-47.135-9.583S194.85,155.113,194.85,155.113z"/>
		<path style="fill:#EE8642;" d="M196.218,228.414c0,0,2.106-31.13,5.144-30.463s47.423,3.964,47.056,11.115    c-0.366,7.151,1.22,26.18-4.555,28.957C238.089,240.8,196.218,228.414,196.218,228.414z"/>
		<path style="fill:#EE8642;" d="M245.886,266.036c0,0,4.37-12.835-0.659-14.629c-5.029-1.794-32.336-8.569-32.336-8.569    S218.55,252.346,245.886,266.036z"/>
		<path style="fill:#EE8642;" d="M188.078,104.837c0,0-3.848,30.145-6.47,28.859c-2.623-1.287-25.97-3.09-24.645-6.255    C160.901,118.04,174.984,98.021,188.078,104.837z"/>
		<path style="fill:#EE8642;" d="M155.51,140.809c0,0,25.97,2.866,28.073,6.814s0.386,29.978-5.36,29.684    c-5.746-0.294-21.531,0.434-23.152-5.41S154.086,146.113,155.51,140.809z"/>
		<path style="fill:#EE8642;" d="M163.234,184.989c0,0,19.497,1.766,20.873,4.909c1.375,3.143,0.042,29.192-1.53,29.88    S159.787,184.812,163.234,184.989z"/>
		<path style="fill:#EE8642;" d="M262.908,256.153c0,0-1.777,12.199,0.326,16.148s48.455,21.3,51.598,19.925    c3.143-1.375,6.992-16.541,2.552-19.841S264.538,254.316,262.908,256.153z"/>
		<path style="fill:#EE8642;" d="M264.819,211.314c0,0-5.478,31.982-2.855,33.268c2.623,1.286,50.38,13.717,51.608,12.244    c1.228-1.473,4.899-28.171,1.991-31.392C312.655,222.213,264.819,211.314,264.819,211.314z"/>
		<path style="fill:#EE8642;" d="M266.151,170.286c0,0-5.872,24.664-3.023,29.035c2.849,4.371,53.101,13.089,55.193,9.739    c2.092-3.35,5.204-26.619,1.127-29.516C315.372,176.647,266.151,170.286,266.151,170.286z"/>
		<path style="fill:#EE8642;" d="M269.316,123.043c0,0-4.08,27.608-0.809,31.232s49.997,13.698,51.647,11.478    s2.964-27.886,0.822-31.068S269.316,123.043,269.316,123.043z"/>
		<path style="fill:#EE8642;" d="M271.095,88.731c0,0-7.61,21.119-2.709,22.906s55.684,15.141,55.88,11.311    s2.071-17.946-0.778-22.316C320.639,96.26,288.549,85.399,271.095,88.731z"/>
		<path style="fill:#EE8642;" d="M328.741,230.59c0,0-1.792,25.001,2.006,30.829c3.798,5.828,47.358,15.227,48.589,11.193    c1.231-4.034,8.13-28.774,2.669-32.126C376.544,237.134,328.741,230.59,328.741,230.59z"/>
		<path style="fill:#EE8642;" d="M337.407,181.359c0,0-8.183,29.795-4.738,32.532c3.445,2.737,47.947,13.721,49.047,12.241    c1.1-1.48,4.28-33.58,1.778-34.732C380.993,190.248,337.407,181.359,337.407,181.359z"/>
		<path style="fill:#EE8642;" d="M330.448,277.278c0,0-2.854,15.729-0.994,19.409c1.86,3.68,43.507,10.421,46.729,7.513    c3.221-2.908,3.417-16.724,3.417-16.724L330.448,277.278z"/>
		<path style="fill:#EE8642;" d="M335.819,142.358c0,0-4.346,24.871-1.871,26.534c2.475,1.663,44.477,11.495,47.62,10.119    c3.143-1.375,5.472-26.861,3.481-27.987S335.819,142.358,335.819,142.358z"/>
		<path style="fill:#EE8642;" d="M338.238,105.099c0,0-4.294,23.849-1.844,26.023s50.501,13.852,51.627,11.861    c1.126-1.991,0.863-16.855-2.097-19.055C382.964,121.727,342.481,102.243,338.238,105.099z"/>
		<path style="fill:#EE8642;" d="M400.803,133.395c0,0-2.212,13.201,0.748,15.401c2.96,2.2,21.832,3.678,25.918,3.887    C431.555,152.893,402.898,132.478,400.803,133.395z"/>
		<path style="fill:#EE8642;" d="M401.617,157.505c0,0-2.277,24.464-1.36,26.56s45.289,15.633,46.952,13.158    c1.663-2.475,4.346-24.87-1.116-28.223C440.632,165.648,401.617,157.505,401.617,157.505z"/>
		<path style="fill:#EE8642;" d="M464.77,184.295c0,0-2.5,18.82-0.024,20.483s14.171,3.286,14.786,1.269    C480.147,204.03,470.362,185.094,464.77,184.295z"/>
		<path style="fill:#EE8642;" d="M402.131,197.476c0,0,47.672,9.098,48.995,13.262c1.323,4.165-1.058,30.672-4.149,31.026    c-3.091,0.354-45.17-7.946-47.672-9.098C396.803,231.514,402.131,197.476,402.131,197.476z"/>
		<path style="fill:#EE8642;" d="M466.75,215.635c0,0-3.429,26.966-1.438,28.092c1.991,1.126,21.623,7.764,24.766,6.389    s-0.657-27.175-4.154-28.89C482.427,219.51,466.75,215.635,466.75,215.635z"/>
		<path style="fill:#EE8642;" d="M461.004,257.845c0,0-2.721,33.147-0.246,34.81c2.475,1.663,30.827-21.978,29.046-27.191    S463.048,257.95,461.004,257.845z"/>
		<path style="fill:#EE8642;" d="M449.414,254.179c0,0-51.195-10.303-51.326-7.749c-0.131,2.554-5.17,30.974-2.669,32.126    c2.502,1.152,45.655,8.483,47.776,7.055C445.317,284.183,449.414,254.179,449.414,254.179z"/>
		<path style="fill:#EE8642;" d="M396.35,290.382c0,0,48.85,6.086,48.13,10.146c-0.72,4.06-22.132,12.182-50.015,6.657    C394.466,307.185,392.749,290.71,396.35,290.382z"/>
	</g>
	<path style="fill:#241726;" d="M156.739,364.721c-14.237,0-22.845-0.852-23.102-0.879c-0.641-0.067-1.106-0.639-1.037-1.28   c0.066-0.64,0.639-1.11,1.278-1.036c0.787,0.081,79.251,7.825,157.703-24.484c0.596-0.24,1.276,0.04,1.52,0.634   c0.246,0.595-0.039,1.276-0.632,1.521C239.275,361.101,186.067,364.721,156.739,364.721z"/>
	<path style="fill:#241726;" d="M408.606,328.176c-27.176,0.001-55.555-5.671-78.434-11.86   c-41.067-11.107-73.728-26.223-74.053-26.374c-41.654-20.107-94.58-54.998-110.253-107.066   c-9.415-31.278-0.985-53.565-0.621-54.498c0.234-0.598,0.91-0.899,1.506-0.662c0.601,0.233,0.896,0.908,0.664,1.507   c-0.086,0.222-8.516,22.592,0.728,53.138c15.491,51.177,67.809,85.606,108.974,105.477c0.307,0.143,32.817,15.185,73.696,26.24   c37.624,10.172,90.233,18.961,127.213,3.042c0.587-0.249,1.276,0.018,1.529,0.61c0.255,0.591-0.018,1.276-0.61,1.531   C443.987,325.699,426.558,328.176,408.606,328.176z"/>
	<path style="fill:#241726;" d="M262.706,436.471c-10.407,0-21.173-0.357-32.299-1.131c-51.047-3.552-122.647-14.411-173.867-45.981   c-30.795-18.981-39.484-36.246-39.839-36.972c-0.282-0.578-0.043-1.274,0.535-1.557c0.571-0.281,1.274-0.046,1.558,0.532   c0.341,0.693,36.122,69.433,211.777,81.653c154.311,10.754,257.412-57.699,267.455-89.258c0.196-0.611,0.851-0.951,1.463-0.756   c0.614,0.196,0.953,0.851,0.757,1.463c-5.132,16.13-32.665,41.709-82.606,62.495C383.887,421.008,331.17,436.471,262.706,436.471z"/>
	<g>
		<path style="fill:#241726;" d="M204.01,109.697c-0.318,0-0.639-0.131-0.869-0.388c-0.428-0.48-0.387-1.216,0.093-1.645    c1.629-1.458,7.013-2.819,8.075-3.078c0.635-0.15,1.258,0.232,1.406,0.856c0.152,0.626-0.23,1.255-0.855,1.407    c-2.409,0.586-6.194,1.764-7.074,2.55C204.565,109.599,204.287,109.697,204.01,109.697z"/>
		<path style="fill:#241726;" d="M210.834,98.404c-0.321,0-0.639-0.132-0.869-0.389c-0.428-0.48-0.387-1.217,0.093-1.645    c1.631-1.456,7.015-2.817,8.077-3.075c0.635-0.155,1.256,0.233,1.406,0.856c0.152,0.626-0.23,1.255-0.855,1.407    c-2.409,0.586-6.196,1.764-7.077,2.55C211.387,98.306,211.109,98.404,210.834,98.404z"/>
		<path style="fill:#241726;" d="M222.699,104.371c-0.321,0-0.639-0.131-0.869-0.389c-0.428-0.479-0.387-1.216,0.093-1.645    c1.629-1.456,7.013-2.817,8.075-3.075c0.632-0.15,1.258,0.232,1.406,0.856c0.152,0.626-0.23,1.255-0.855,1.407    c-2.409,0.586-6.194,1.764-7.074,2.55C223.252,104.273,222.976,104.371,222.699,104.371z"/>
		<path style="fill:#241726;" d="M232.505,94.667c-0.416,0-0.821-0.225-1.03-0.62c-0.3-0.569-0.082-1.274,0.487-1.574    c1.931-1.021,7.543-1.032,8.578-1.048c0.644,0.002,1.162,0.525,1.16,1.169c-0.002,0.641-0.523,1.16-1.165,1.16    c-0.05,0.005-0.098,0-0.15,0c-2.484,0-6.312,0.235-7.336,0.777C232.876,94.623,232.689,94.667,232.505,94.667z"/>
		<path style="fill:#241726;" d="M240.182,102.082c-0.416,0-0.821-0.225-1.028-0.62c-0.303-0.569-0.084-1.273,0.482-1.574    c1.934-1.024,7.522-1.042,8.58-1.049c0.644,0.002,1.162,0.525,1.16,1.169c-0.002,0.641-0.523,1.16-1.165,1.16    c-0.046-0.003-0.098,0-0.15,0c-2.484,0-6.312,0.237-7.334,0.778C240.553,102.039,240.367,102.082,240.182,102.082z"/>
		<path style="fill:#241726;" d="M220.265,113.912c-0.318,0-0.639-0.131-0.869-0.388c-0.428-0.48-0.387-1.216,0.093-1.645    c1.629-1.458,7.015-2.819,8.077-3.078c0.637-0.15,1.256,0.232,1.406,0.856c0.152,0.626-0.23,1.255-0.855,1.407    c-2.409,0.586-6.196,1.764-7.077,2.55C220.82,113.814,220.542,113.912,220.265,113.912z"/>
		<path style="fill:#241726;" d="M199.442,121.538c-0.321,0-0.639-0.131-0.869-0.389c-0.428-0.479-0.387-1.216,0.093-1.645    c1.629-1.456,7.013-2.818,8.075-3.077c0.632-0.156,1.258,0.233,1.406,0.856c0.152,0.624-0.23,1.255-0.855,1.407    c-2.407,0.586-6.194,1.765-7.074,2.551C199.995,121.44,199.72,121.538,199.442,121.538z"/>
		<path style="fill:#241726;" d="M192.53,106.171c-0.321,0-0.639-0.131-0.869-0.389c-0.428-0.479-0.387-1.216,0.093-1.645    c1.629-1.456,7.013-2.817,8.075-3.075c0.635-0.155,1.258,0.233,1.406,0.856c0.152,0.626-0.23,1.255-0.855,1.407    c-2.409,0.586-6.194,1.764-7.074,2.55C193.082,106.073,192.807,106.171,192.53,106.171z"/>
		<path style="fill:#241726;" d="M183.383,118.974c-0.321,0-0.639-0.131-0.869-0.389c-0.428-0.479-0.387-1.216,0.093-1.645    c1.629-1.456,7.013-2.817,8.075-3.075c0.635-0.151,1.258,0.232,1.406,0.856c0.152,0.626-0.23,1.254-0.855,1.407    c-2.409,0.586-6.194,1.764-7.074,2.55C183.936,118.876,183.66,118.974,183.383,118.974z"/>
	</g>
	<g>
		<path style="fill:#241726;" d="M76.849,219.003c-0.205,0-0.412-0.053-0.598-0.166c-0.553-0.33-0.732-1.045-0.4-1.597    c1.124-1.875,5.857-4.777,6.797-5.34c0.55-0.332,1.267-0.15,1.597,0.399c0.33,0.552,0.152,1.267-0.4,1.598    c-2.125,1.276-5.389,3.527-5.996,4.539C77.63,218.802,77.245,219.003,76.849,219.003z"/>
		<path style="fill:#241726;" d="M80.007,206.192c-0.205,0-0.409-0.053-0.598-0.165c-0.55-0.33-0.732-1.045-0.403-1.597    c1.121-1.877,5.857-4.779,6.797-5.342c0.553-0.331,1.267-0.152,1.597,0.399c0.33,0.552,0.152,1.267-0.4,1.598    c-2.125,1.275-5.389,3.527-5.992,4.539C80.789,205.989,80.403,206.192,80.007,206.192z"/>
		<path style="fill:#241726;" d="M93.107,208.359c-0.205,0-0.412-0.053-0.598-0.165c-0.553-0.331-0.732-1.046-0.4-1.598    c1.124-1.877,5.857-4.778,6.797-5.341c0.55-0.333,1.267-0.151,1.597,0.399c0.33,0.552,0.152,1.267-0.4,1.598    c-2.125,1.275-5.389,3.527-5.996,4.54C93.887,208.156,93.503,208.359,93.107,208.359z"/>
		<path style="fill:#241726;" d="M99.583,196.176c-0.296,0-0.594-0.113-0.821-0.338c-0.455-0.454-0.46-1.191-0.005-1.647    c1.54-1.551,6.833-3.232,7.88-3.554c0.61-0.191,1.267,0.157,1.454,0.771c0.189,0.615-0.155,1.267-0.771,1.456    c-2.368,0.728-6.078,2.13-6.911,2.967C100.181,196.062,99.883,196.176,99.583,196.176z"/>
		<path style="fill:#241726;" d="M109.118,200.97c-0.296,0-0.594-0.113-0.821-0.338c-0.455-0.454-0.459-1.191-0.005-1.647    c1.54-1.551,6.833-3.232,7.88-3.554c0.614-0.188,1.267,0.158,1.454,0.771c0.189,0.615-0.155,1.267-0.771,1.456    c-2.368,0.728-6.078,2.13-6.911,2.967C109.717,200.855,109.419,200.97,109.118,200.97z"/>
		<path style="fill:#241726;" d="M93.623,218.191c-0.205,0-0.412-0.053-0.598-0.166c-0.553-0.33-0.732-1.045-0.4-1.597    c1.124-1.875,5.857-4.777,6.797-5.34c0.553-0.333,1.267-0.151,1.597,0.399c0.33,0.552,0.152,1.267-0.4,1.598    c-2.125,1.276-5.389,3.527-5.996,4.539C94.403,217.99,94.019,218.191,93.623,218.191z"/>
		<path style="fill:#241726;" d="M76.012,231.667c-0.205,0-0.409-0.053-0.598-0.165c-0.55-0.33-0.732-1.045-0.403-1.597    c1.121-1.877,5.857-4.779,6.797-5.342c0.55-0.334,1.265-0.15,1.597,0.399c0.33,0.552,0.152,1.267-0.4,1.598    c-2.125,1.275-5.389,3.527-5.992,4.539C76.795,231.465,76.408,231.667,76.012,231.667z"/>
		<path style="fill:#241726;" d="M64.839,219.053c-0.205,0-0.412-0.053-0.598-0.166c-0.553-0.33-0.732-1.045-0.4-1.597    c1.124-1.876,5.857-4.777,6.797-5.34c0.55-0.331,1.267-0.152,1.597,0.399s0.152,1.267-0.4,1.598    c-2.125,1.276-5.389,3.527-5.996,4.539C65.619,218.852,65.235,219.053,64.839,219.053z"/>
		<path style="fill:#241726;" d="M59.917,233.998c-0.205,0-0.412-0.053-0.598-0.166c-0.553-0.33-0.732-1.045-0.4-1.597    c1.124-1.875,5.857-4.777,6.797-5.34c0.55-0.333,1.267-0.151,1.597,0.399c0.33,0.552,0.152,1.267-0.4,1.598    c-2.125,1.276-5.389,3.527-5.996,4.539C60.697,233.797,60.312,233.998,59.917,233.998z"/>
	</g>
	<path style="fill:#F9DD96;" d="M268.019,159.373c0,0-18.288,17.61,4.747,43.131s51.164-3.176,64.891,23.027   c13.727,26.204-9.276,22.708,29.321,38.593s3.267,72.033,38.542,62.248s-2.88-56.945,14.962-88.487s13.187-53.804-22.802-75.351   S299.762,105.36,268.019,159.373z"/>
	<path style="fill:#FDF29C;" d="M294.017,172.295c0,0,23.741-33.558,33.909-28.401c10.168,5.157,35.01,18.02,39.28,25.193   s-5.066,31.037-10.965,33.053C350.342,204.157,280.412,188.985,294.017,172.295z"/>
	<path style="fill:#241726;" d="M349.523,241.392c-0.566,0-1.062-0.415-1.149-0.992c-0.02-0.134-2.172-13.492-16.457-25.62   c-8.721-7.403-16.105-8.163-23.921-8.966c-5.268-0.541-10.716-1.102-16.919-3.621c-15.8-6.419-17.047-13.715-17.092-14.024   c-0.093-0.636,0.348-1.228,0.983-1.322c0.653-0.096,1.219,0.339,1.319,0.967c0.027,0.139,1.388,6.419,15.668,12.22   c5.894,2.395,11.173,2.938,16.28,3.462c8.187,0.842,15.918,1.637,25.188,9.507c14.997,12.73,17.169,26.476,17.256,27.055   c0.093,0.636-0.346,1.226-0.983,1.32C349.639,241.388,349.58,241.392,349.523,241.392z"/>
	<path style="fill:#241726;" d="M410.535,275.204c-0.425,0-0.837-0.235-1.042-0.643c-0.541-1.083-13.175-26.704-1.87-42.888   c10.848-15.531,14.033-27.366,10.025-37.247c-0.243-0.596,0.043-1.275,0.641-1.517c0.591-0.245,1.276,0.045,1.515,0.641   c4.336,10.682,1.071,23.219-10.27,39.456c-10.52,15.06,1.915,40.258,2.043,40.511c0.287,0.574,0.055,1.275-0.519,1.563   C410.89,275.164,410.712,275.204,410.535,275.204z"/>
	<path style="fill:#241726;" d="M350.021,197.439c-8.507,0-24.007-5.861-27.626-7.276c-0.598-0.234-0.894-0.91-0.66-1.509   c0.234-0.598,0.905-0.895,1.51-0.661c9.843,3.851,26.662,9.031,29.908,6.525c3.792-2.928,6.562-13.494,7.311-17.317   c0.121-0.634,0.742-1.045,1.365-0.92c0.632,0.123,1.044,0.735,0.921,1.366c-0.118,0.597-2.916,14.657-8.173,18.716   C353.592,197.123,351.995,197.439,350.021,197.439z"/>
</g>















</svg>
