<?xml version="1.0" encoding="UTF-8"?>
<!-- Generator: Adobe Illustrator 25.2.0, SVG Export Plug-In . SVG Version: 6.00 Build 0)  -->
<svg xmlns="http://www.w3.org/2000/svg" xmlns:xlink="http://www.w3.org/1999/xlink" version="1.1" id="Capa_1" x="0px" y="0px" viewBox="0 0 512 512" style="enable-background:new 0 0 512 512;" xml:space="preserve" width="512" height="512">
<g>
	<path style="fill:#241726;" d="M174.487,512c-0.635,0-1.157-0.072-1.598-0.219c-14.207-4.735-114.388-128.475-138.09-184.778   c-5.404-12.838-6.803-21.609-4.274-26.815c11.036-22.724,189.27-113.503,306.62-113.503c47.022,0,78.708,14.284,94.182,42.456   c4.795,4.413,74.166,68.972,72.22,107.022c-0.388,7.581-3.602,13.669-9.55,18.094C456.648,382.039,199.536,512,174.487,512z    M337.145,189.307c-116.585,0-293.37,89.598-304.262,112.026c-1.478,3.042-1.926,9.788,4.332,24.652   c24.948,59.261,124.453,179.292,136.504,183.309c0.093,0.031,0.318,0.083,0.768,0.083c24.847,0,280.718-129.535,317.945-157.226   c5.292-3.936,8.15-9.36,8.495-16.123c1.912-37.346-70.797-104.429-71.532-105.103c-0.106-0.097-0.196-0.213-0.265-0.339   C414.189,203.197,383.241,189.307,337.145,189.307z"/>
	<path style="fill:#F9DD96;" d="M436.495,213.06c0,0,102.434,93.862,62.933,123.244c-39.501,29.383-304.177,162.578-319.911,157.333   S23.203,314.159,37.918,283.86C52.632,253.561,373.562,97.683,436.495,213.06z"/>
	<g>
		<path style="fill:#E2394B;" d="M313.755,321.895c0,0,56.471,106.244,56.314,111.898c-0.157,5.654-68.819,25.298-92.744-22.373    S307.695,312.805,313.755,321.895z"/>
		<path style="fill:#241726;" d="M323.628,423.606c-11.091,0-22.354-3.215-30.013-13.508c-8.485-11.404-6.393-27.602,6.052-46.843    c9.244-14.293,21.101-25.439,21.22-25.55c0.527-0.493,1.356-0.467,1.853,0.063c0.494,0.529,0.466,1.358-0.063,1.853    c-0.461,0.431-45.916,43.433-26.957,68.913c19.006,25.546,62.735,4.029,63.174,3.81c0.65-0.324,1.437-0.063,1.759,0.584    c0.325,0.648,0.064,1.435-0.584,1.759C359.783,414.831,341.945,423.606,323.628,423.606z"/>
		<path style="fill:#241726;" d="M325.336,416.605c-0.27,0-0.525-0.031-0.763-0.095c-0.699-0.188-1.922-0.808-2.27-2.842    c-1.161-6.78,7.17-17.116,12.996-23.386c-10.019,4.497-27.907,11.814-33.388,9.416c-0.997-0.435-1.677-1.17-1.965-2.122    c-1.972-6.511,16.48-15.987,27.463-20.98c-8.694-0.361-22.937-1.635-24.897-6.087c-0.378-0.859-0.307-1.752,0.2-2.516    c2.828-4.262,23.19-4.287,29.366-4.182c0.723,0.012,1.302,0.608,1.291,1.332c-0.013,0.723-0.679,1.332-1.332,1.291    c-13.65-0.201-26.343,1.202-27.15,3.028c1.265,2.805,15.751,4.602,28.463,4.653c0.624,0.003,1.157,0.443,1.28,1.054    c0.123,0.611-0.202,1.223-0.776,1.465c-15.995,6.751-32.547,16.388-31.397,20.183c0.029,0.097,0.09,0.297,0.507,0.48    c4.676,2.035,25.693-6.563,37.839-12.468c0.585-0.283,1.287-0.099,1.653,0.437c0.369,0.534,0.291,1.256-0.183,1.699    c-5.244,4.915-18.59,19.213-17.384,26.262c0.045,0.256,0.151,0.695,0.369,0.754c2.773,0.731,13.986-10.084,22.747-20.555    c0.462-0.554,1.289-0.63,1.846-0.164c0.556,0.464,0.629,1.291,0.164,1.846C345.677,400.291,331.53,416.604,325.336,416.605z"/>
	</g>
	<g>
		<path style="fill:#E2394B;" d="M389.427,360.582c0,0,86.648-83.479,92.127-84.882c5.48-1.402,43.227,59.224,3.96,95.322    S382.35,368.906,389.427,360.582z"/>
		<path style="fill:#241726;" d="M454.85,366.455c-6.421,0-13.712-1.224-21.784-3.686c-16.283-4.964-30.258-13.303-30.396-13.386    c-0.621-0.373-0.822-1.178-0.449-1.799c0.373-0.62,1.175-0.823,1.799-0.449c0.54,0.324,54.373,32.222,73.668,6.995    c19.33-25.277-13.356-61.43-13.687-61.791c-0.49-0.534-0.455-1.364,0.079-1.853c0.531-0.487,1.361-0.456,1.851,0.078    c0.347,0.379,34.504,38.136,13.838,65.159C474.315,362.855,465.861,366.455,454.85,366.455z"/>
		<path style="fill:#241726;" d="M437.591,358.669c-0.266,0-0.536-0.042-0.805-0.128c-4.876-1.549-10.484-21.125-12.087-27.088    c-0.188-0.699,0.227-1.419,0.926-1.607c0.695-0.193,1.419,0.225,1.607,0.926c3.545,13.188,8.39,24.999,10.368,25.275    c2.35-1.987,0.099-16.411-3.344-28.647c-0.168-0.599,0.108-1.234,0.662-1.52c0.553-0.287,1.232-0.142,1.622,0.343    c10.887,13.527,24.701,26.796,28.031,24.647c0.085-0.055,0.26-0.168,0.321-0.618c0.681-5.063-13.367-22.903-22.381-32.96    c-0.433-0.484-0.448-1.21-0.036-1.711c0.412-0.499,1.127-0.626,1.685-0.289c6.168,3.693,23.591,12.596,30.026,9.5    c0.234-0.113,0.627-0.335,0.624-0.561c-0.042-2.896-13.536-10.677-26.012-16.225c-0.662-0.294-0.959-1.069-0.666-1.731    c0.297-0.661,1.07-0.958,1.731-0.666c6.445,2.867,27.482,12.676,27.569,18.583c0.01,0.723-0.25,2.069-2.11,2.963    c-6.198,2.978-18.427-2.193-26.056-6.072c7.075,8.395,19.024,23.581,18.224,29.517c-0.145,1.079-0.663,1.935-1.499,2.474    c-5.725,3.673-19.901-11.456-27.718-20.646c2.041,8.459,4.727,22.505,0.985,25.614    C438.76,358.457,438.186,358.669,437.591,358.669z"/>
	</g>
	<g>
		<path style="fill:#E2394B;" d="M83.207,367.623c0,0,108.342,52.332,111.557,56.986c3.215,4.654-40.564,61.078-88.037,36.762    S72.947,363.871,83.207,367.623z"/>
		<path style="fill:#241726;" d="M128.543,452.128c-3.054,0-6.209-0.449-9.454-1.449c-13.587-4.186-21.472-18.49-22.804-41.365    c-0.99-16.993,1.987-32.993,2.018-33.152c0.136-0.712,0.827-1.173,1.531-1.045c0.712,0.134,1.179,0.819,1.045,1.531    c-0.117,0.621-11.371,62.174,18.98,71.523c30.417,9.376,52.99-33.824,53.214-34.26c0.329-0.644,1.124-0.896,1.764-0.568    c0.644,0.33,0.899,1.12,0.568,1.764C175.195,415.518,156.071,452.128,128.543,452.128z"/>
		<path style="fill:#241726;" d="M146.821,437.747c-0.689,0-1.561-0.252-2.483-1.143c-4.944-4.782-4.332-18.046-3.338-26.546    c-5.421,9.548-15.523,26.02-21.368,27.327c-1.056,0.241-2.043,0.05-2.84-0.549c-5.439-4.088,3.846-22.636,9.755-33.154    c-7.228,4.848-19.469,12.233-23.682,9.803c-0.812-0.469-1.283-1.232-1.325-2.147c-0.237-5.11,16.18-17.157,21.217-20.727    c0.592-0.423,1.408-0.28,1.827,0.311c0.419,0.59,0.28,1.408-0.311,1.827c-11.141,7.899-20.539,16.537-20.111,18.489    c2.671,1.504,15.425-5.598,25.71-13.068c0.503-0.365,1.196-0.329,1.656,0.092s0.56,1.106,0.241,1.641    c-8.913,14.898-16.571,32.454-13.402,34.835c0.081,0.061,0.254,0.184,0.691,0.088c4.986-1.116,16.85-20.478,23.158-32.421    c0.301-0.572,0.981-0.842,1.59-0.626c0.612,0.214,0.977,0.842,0.857,1.48c-1.325,7.064-3.641,26.487,1.498,31.459    c0.187,0.179,0.52,0.469,0.743,0.391c2.703-1.045,5.324-16.399,6.201-30.025c0.046-0.722,0.65-1.273,1.393-1.224    c0.722,0.046,1.27,0.67,1.224,1.393c-0.453,7.038-2.361,30.171-7.873,32.301C147.595,437.653,147.241,437.747,146.821,437.747z"/>
	</g>
	<path style="fill:#F09945;" d="M474.686,292.08c0,0-41.783,76.858-62.761,87.347c-20.978,10.489-99.644-10.489-99.644-10.489   S466.647,270.288,474.686,292.08z"/>
	<path style="fill:#F09945;" d="M312.108,360.258c0,0-41.783,76.858-62.761,87.347c-20.978,10.489-104.807-20.575-104.807-20.575   S304.07,338.466,312.108,360.258z"/>
	<path style="fill:#9BA058;" d="M471.071,223.4c0,0,20.483-2.41,22.893,24.098s-6.025,48.196-19.279,44.582   c-13.254-3.615-19.279-34.942-1.205-16.869c18.074,18.074,22.893,32.533-30.123,44.582s-49.401-37.352-39.762-25.303   s25.303,27.713-13.254,49.401s-50.606-18.074-38.557-16.869c12.049,1.205,20.483,14.459-6.025,32.533   c-26.508,18.074-57.836,10.844-39.762-4.82c18.074-15.664,33.737,24.098-3.615,37.352c-37.352,13.254-55.426-22.893-37.352-18.074   c18.074,4.82,13.254,25.303-9.639,38.557c-22.893,13.254-53.016-13.254-37.352-18.074s33.737-1.205-6.025,27.713   s-67.475-18.074-50.606-19.279c16.869-1.205,19.279,28.918-16.869,24.098s-68.68-33.737-37.352-44.582   c31.328-10.844,1.205,45.787-21.688,20.483c-22.893-25.303-38.557-73.5-12.049-65.065c26.508,8.434,8.434,42.172-20.483,18.074   s-15.664-63.86,3.615-51.811s-15.664,30.123-27.713,13.254s-6.025-50.606,9.639-45.787s-2.41,54.221-26.508,6.025   s18.074-68.68,44.582-40.967"/>
	<path style="fill:#241726;" d="M186.539,432.892c-9.071,0-15.774-3.586-19.22-5.965c-0.444-0.306-0.878-0.622-1.303-0.946   c-5.33,2.676-12.804,3.527-21.647,2.349c-16.481-2.197-32.527-9.429-42.116-17.905c-6.312,1.398-12.507-0.845-17.724-6.613   c-9.877-10.917-19.039-27.062-23.471-40.918c-2.745-1.356-5.73-3.279-8.931-5.946c-12.038-10.033-16.934-22.464-17.293-33.072   c-2.809-1.252-5.211-3.18-7.032-5.73c-4.833-6.767-6.849-15.837-6.65-24.272c-3.188-3.333-6.659-8.334-10.325-15.665   c-13.083-26.166-6.622-43.318,3.786-50.647c12.148-8.55,30.199-5.11,42.917,8.187c0.501,0.524,0.483,1.353-0.041,1.854   c-0.524,0.503-1.355,0.481-1.854-0.041c-13.385-13.993-30.007-14.543-39.513-7.855c-9.516,6.7-15.289,22.651-2.95,47.329   c2.949,5.896,5.702,10.135,8.21,13.157c0.615-6.004,2.373-11.433,5.034-15.125c3.259-4.518,7.69-6.196,12.477-4.723   c4.524,1.392,7.054,6.056,6.767,12.479c-0.315,7.087-4.311,15.399-11.098,16.843c-2.808,0.594-6.475,0.115-10.751-3.332   c0.214,7.205,2.119,14.681,6.124,20.288c1.306,1.827,2.974,3.28,4.915,4.33c0.269-5.885,1.958-11.034,4.572-14.645   c4.507-6.229,11.183-7.46,17.855-3.289c5.932,3.708,6.641,7.687,6.193,10.372c-0.837,5.008-6.707,9.727-14.272,11.477   c-4.146,0.962-8.098,0.931-11.59-0.01c0.667,9.722,5.346,21.032,16.198,30.075c2.064,1.721,4.142,3.182,6.197,4.372   c-2.232-8.376-2.478-15.6,0.246-19.833c1.752-2.72,5.525-5.422,13.599-2.854c8.066,2.567,13.214,7.914,13.768,14.303   c0.463,5.335-2.431,10.452-7.378,13.036c-2.513,1.314-8.072,3.207-16.024,0.297c4.349,12.507,12.532,27.051,22.257,37.799   c4.663,5.155,9.356,6.461,13.377,6.081c-3.776-3.901-6.137-7.987-6.531-11.913c-0.46-4.566,1.498-10.877,13.441-15.011   c9.826-3.397,13.222-0.078,14.376,2.204c2.992,5.931-2.648,17.636-11.385,23.632c-1.515,1.038-3.043,1.863-4.572,2.472   c9.311,7.629,24.394,14.194,39.536,16.213c7.759,1.037,14.32,0.453,19.084-1.59c-6.225-5.62-9.823-12.963-8.456-17.975   c0.739-2.705,2.86-4.319,5.973-4.54c4.944-0.36,9.293,1.808,11.608,5.785c2.358,4.052,2.14,9.093-0.571,13.157   c-1.014,1.52-2.323,2.842-3.895,3.955c0.115,0.083,0.233,0.165,0.351,0.246c5.78,3.99,21.481,11.621,42.437-3.617   c4.691-3.412,8.465-6.389,11.495-8.984c-0.557-0.335-1.093-0.68-1.608-1.031c-5.928-4.036-9.251-8.931-8.672-12.773   c0.255-1.684,1.361-3.938,5.195-5.119c7.943-2.44,16.961-2.903,19.203,1.583c1.821,3.641-1.394,9.27-9.572,16.802   c7.709,3.627,18.138,5.196,27.45-0.192c8.616-4.988,15.034-11.358,18.066-17.525c-5.545-2.083-9.981-5.365-12.943-9.15   c-3.109-3.973-4.038-7.958-2.425-10.401c0.782-1.186,2.858-2.973,7.936-1.615c6.892,1.837,11.107,6.009,11.869,11.744   c0.333,2.504,0.008,5.138-0.908,7.81c6.702,1.955,15.322,2.202,25.615-1.449c11.509-4.084,19.229-11.494,21.361-20.262   c-10.47,2.131-19.325,0.745-22.667-3.594c-1.613-2.095-3.174-6.602,4.499-13.252c6.141-5.323,11.198-4.077,13.663-2.864   c5.014,2.469,8.102,8.94,7.685,16.103c-0.003,0.038-0.005,0.077-0.008,0.115c5.96-1.632,12.388-4.43,18.542-8.626   c4.926-3.358,8.851-6.728,11.677-9.97c-1.72-0.969-3.037-2.005-3.972-2.857c-5.993-5.46-7.827-13.051-6.087-16.954   c0.949-2.129,2.864-3.21,5.275-2.974c6.232,0.624,11.064,4.186,12.308,9.075c0.673,2.643,0.641,7.033-3.451,12.801   c6.09,2.375,15.462,2.726,28.926-4.845c13.576-7.637,21.259-14.939,23.414-22.272c-9.911-3.89-13.785-11.225-15.052-14.454   c-2.417-6.162-1.938-12.59,1.069-14.329c0.804-0.465,2.944-1.205,5.49,1.977l1.465,1.813c5.115,6.293,11.449,14.088,10.089,23.266   c6.311,1.962,14.987,2.471,26.893-0.236c25.437-5.781,38.917-12.454,41.21-20.403c0.571-1.976,0.498-4.078-0.271-6.406   c-2.926,2.006-6.246,2.57-9.667,1.639c-7.806-2.129-12.891-12.383-13.421-18.656c-0.351-4.142,1.305-5.553,2.323-6.025   c2.548-1.182,6.201,0.657,11.166,5.622c4.074,4.073,8.101,8.53,10.532,13.088c6.21-6.999,9.287-22.501,7.718-39.756   c-0.782-8.611-3.588-14.938-8.338-18.81c-5.951-4.849-13.029-4.109-13.1-4.105c-0.725,0.079-1.369-0.435-1.451-1.152   c-0.083-0.718,0.43-1.367,1.147-1.452c0.333-0.04,8.194-0.891,15.024,4.648c5.339,4.332,8.477,11.274,9.329,20.633   c1.714,18.87-1.859,35.304-9.145,42.556c1.156,2.973,1.52,5.965,0.672,8.904c-2.618,9.073-16.329,16.138-43.149,22.234   c-12.269,2.786-21.355,2.288-28.057,0.264c-2.411,7.984-10.489,15.756-24.608,23.699c-14.913,8.389-25.368,7.381-31.84,4.664   c-2.746,3.279-6.787,6.946-12.645,10.94c-6.664,4.544-13.759,7.6-20.371,9.301c-1.891,10.194-10.389,18.801-23.307,23.384   c-10.421,3.696-19.851,3.667-27.491,1.433c-3.188,6.751-9.973,13.562-19.281,18.95c-10.586,6.134-22.434,4.07-30.871-0.191   c-3.416,2.979-7.548,6.234-12.392,9.757C202.8,430.535,193.891,432.89,186.539,432.892z M162.387,404.207   c-0.291,0-0.586,0.012-0.885,0.032c-2.001,0.143-3.188,0.999-3.63,2.617c-1.02,3.74,2.116,10.631,8.415,15.979   c1.606-1.022,2.912-2.266,3.883-3.725c2.151-3.224,2.337-7.202,0.487-10.383C168.968,405.826,165.985,404.207,162.387,404.207z    M228.584,394.03c-2.845,0-6.421,0.571-10.159,1.721c-2.031,0.625-3.166,1.635-3.373,3.003c-0.414,2.752,2.621,6.856,7.554,10.215   c0.695,0.474,1.433,0.935,2.21,1.378c10.603-9.539,10.234-13.269,9.695-14.347C233.858,394.69,231.644,394.03,228.584,394.03z    M114.173,382.367c-2.239,0-4.757,0.698-6.556,1.321c-5.698,1.972-12.352,5.702-11.691,12.27c0.379,3.764,2.928,7.757,6.976,11.566   c2.127-0.65,3.96-1.677,5.365-2.641c8.162-5.6,12.686-16.01,10.529-20.288C117.953,382.925,116.173,382.367,114.173,382.367z    M262.03,374.879c-1.164,0-2.003,0.312-2.408,0.927c-0.758,1.15-0.362,3.936,2.302,7.34c2.225,2.844,6.256,6.17,11.906,8.317   c0.796-2.297,1.087-4.534,0.809-6.627c-0.622-4.682-4.061-7.987-9.946-9.557C263.687,375.012,262.789,374.879,262.03,374.879z    M314.309,352.453c-2.398,0-4.954,1.108-7.452,3.273c-2.595,2.248-6.584,6.497-4.139,9.671c2.621,3.403,10.96,4.603,21.076,2.366   c0.032-0.31,0.056-0.62,0.074-0.932c0.357-6.125-2.143-11.59-6.224-13.599C316.586,352.71,315.465,352.453,314.309,352.453z    M63.131,360.916c5.938,2.68,11.529,2.996,15.895,0.716c4.004-2.092,6.351-6.207,5.979-10.484   c-0.467-5.379-4.823-9.764-11.951-12.032c-5.212-1.659-8.776-1.061-10.598,1.773C59.978,344.739,60.494,352.156,63.131,360.916z    M351.26,328.306c-1.06,0-1.79,0.478-2.225,1.453c-1.374,3.083,0.492,9.422,5.458,13.947c1.005,0.915,2.282,1.889,3.853,2.753   c2.978-4.023,4.16-7.792,3.338-11.02c-0.971-3.809-4.906-6.6-10.029-7.113C351.518,328.313,351.387,328.306,351.26,328.306z    M37.527,322.089c3.261,1.051,7.055,1.155,11.082,0.224c6.457-1.493,11.619-5.428,12.276-9.354   c0.575-3.438-2.401-6.095-4.997-7.718c-5.448-3.403-10.675-2.457-14.34,2.604C39.093,311.235,37.582,316.287,37.527,322.089z    M400.704,293.896c-0.095,0-0.182,0.022-0.261,0.068c-1.234,0.713-2.148,5.47,0.06,11.101c1.119,2.851,4.499,9.214,13.146,12.777   c0.877-7.815-4.675-14.646-9.598-20.704l-1.479-1.828C401.994,294.585,401.242,293.896,400.704,293.896z M23.84,292.858   c4.503,4.338,8.022,4.703,10.178,4.243c5.298-1.128,8.749-8.205,9.024-14.395c0.229-5.154-1.609-8.837-4.918-9.855   c-3.737-1.154-6.958,0.113-9.58,3.749C25.811,280.391,24.138,286.364,23.84,292.858z M464.853,270.944   c-0.202,0-0.37,0.033-0.506,0.096c-0.656,0.305-0.968,1.618-0.816,3.428c0.466,5.513,5.178,14.622,11.499,16.347   c2.858,0.778,5.522,0.243,7.936-1.59c-1.853-3.685-5.265-7.938-10.412-13.085C468.682,272.267,466.114,270.944,464.853,270.944z"/>
	<g>
		<path style="fill:#FFFFFF;" d="M497.221,204.192c0,0,1.468,64.608-36.709,74.887c-38.178,10.279-14.684-19.089-45.52-8.81    c-30.836,10.279-217.319,138.027-248.155,140.964C136.001,414.169,20,246.775,21.468,224.749s22.026-32.304,22.026-32.304"/>
		<path style="fill:#241726;" d="M166.045,412.581c-6.817,0-17.196-6.731-30.878-20.03C88.673,347.356,18.981,242.343,20.16,224.662    c1.502-22.517,21.88-32.956,22.747-33.39c0.648-0.319,1.434-0.061,1.758,0.585c0.324,0.648,0.063,1.435-0.584,1.761    c-0.2,0.1-19.905,10.226-21.304,31.218c-1.123,16.829,69.243,122.116,114.219,165.835c17.103,16.626,25.602,19.654,29.716,19.257    c17.421-1.659,86.677-44.653,147.782-82.585c46.59-28.923,86.828-53.9,100.083-58.319c14.612-4.871,17.996-1.27,21.189,4.349    c2.666,4.693,5.425,9.549,24.404,4.438c36.741-9.891,35.753-72.955,35.739-73.591c-0.015-0.723,0.558-1.324,1.282-1.341    c0.809-0.032,1.324,0.558,1.341,1.282c0.06,2.68,1.046,65.758-37.68,76.183c-20.937,5.635-24.352-0.374-27.366-5.675    c-2.451-4.312-4.384-7.722-18.079-3.159c-12.964,4.321-55.013,30.424-99.53,58.06c-61.349,38.084-130.883,81.249-148.916,82.966    C166.663,412.567,166.357,412.581,166.045,412.581z"/>
	</g>
	<path style="fill:#F9DD96;" d="M29.081,206.361c0,0,94.402,175.689,141.6,175.689s241.064-159.01,260.463-129.401   c27.899,42.583,91.835-30.144,60.37-93.074S412.851-17.417,318.456,2.249s-42.361,43.934-63.517,55.106   C124.254,126.368,20.271,168.183,29.081,206.361z"/>
	<path style="fill:#241726;" d="M456.51,242.801c-1.794,0-3.704-0.371-5.712-1.124c-0.677-0.255-1.02-1.01-0.767-1.689   s1.009-1.02,1.689-0.767c6.465,2.429,11.329,0.256,14.462-6.443c14.4-30.789-14.11-150.245-94.236-195.721   c-38-21.569-53.991-20.248-60.719-15.344c-8.17,5.954-5.556,19.049-5.527,19.181c0.147,0.708-0.309,1.402-1.018,1.551   c-0.713,0.134-1.403-0.309-1.551-1.018c-0.125-0.604-2.97-14.893,6.552-21.833c10.69-7.794,32.075-2.686,63.557,15.181   c47.646,27.042,72.804,76.898,83.559,104.21c15.112,38.372,19.947,77.398,11.759,94.904   C465.81,239.762,461.636,242.801,456.51,242.801z"/>
	<g>
		<path style="fill:#241726;" d="M201.665,118.464c-0.323,0-0.647-0.119-0.9-0.357c-0.526-0.497-0.551-1.328-0.054-1.854    c1.69-1.79,7.599-3.831,8.767-4.223c0.689-0.225,1.429,0.141,1.659,0.827c0.23,0.686-0.14,1.429-0.827,1.659    c-2.644,0.887-6.78,2.57-7.691,3.536C202.361,118.325,202.014,118.464,201.665,118.464z"/>
		<path style="fill:#241726;" d="M208.243,105.145c-0.323,0-0.647-0.119-0.9-0.357c-0.526-0.497-0.551-1.328-0.054-1.854    c1.69-1.79,7.599-3.831,8.767-4.223c0.689-0.225,1.429,0.14,1.659,0.827c0.23,0.686-0.14,1.429-0.827,1.659    c-2.644,0.887-6.78,2.57-7.691,3.536C208.938,105.007,208.591,105.145,208.243,105.145z"/>
		<path style="fill:#241726;" d="M222.121,110.704c-0.323,0-0.647-0.119-0.9-0.357c-0.526-0.497-0.551-1.328-0.054-1.854    c1.69-1.79,7.599-3.831,8.767-4.223c0.689-0.225,1.429,0.138,1.659,0.827c0.23,0.686-0.14,1.429-0.827,1.659    c-2.644,0.887-6.78,2.57-7.691,3.536C222.816,110.566,222.469,110.704,222.121,110.704z"/>
		<path style="fill:#241726;" d="M232.195,98.883c-0.431,0-0.853-0.213-1.104-0.602c-0.392-0.609-0.216-1.42,0.393-1.812    c2.07-1.332,8.297-1.896,9.523-1.996c0.723-0.033,1.355,0.479,1.414,1.201c0.058,0.722-0.479,1.355-1.201,1.414    c-2.781,0.225-7.2,0.868-8.317,1.586C232.684,98.815,232.438,98.883,232.195,98.883z"/>
		<path style="fill:#241726;" d="M241.516,106.466c-0.431,0-0.853-0.213-1.104-0.602c-0.392-0.608-0.216-1.42,0.393-1.812    c2.069-1.332,8.296-1.896,9.522-1.996c0.709-0.041,1.355,0.48,1.414,1.201c0.058,0.722-0.479,1.355-1.201,1.414    c-2.781,0.225-7.198,0.868-8.316,1.586C242.005,106.399,241.759,106.466,241.516,106.466z"/>
		<path style="fill:#241726;" d="M220.302,121.639c-0.323,0-0.647-0.119-0.9-0.357c-0.526-0.497-0.551-1.328-0.054-1.854    c1.69-1.79,7.599-3.831,8.767-4.223c0.69-0.229,1.428,0.14,1.659,0.827c0.23,0.686-0.14,1.429-0.827,1.659    c-2.644,0.887-6.78,2.57-7.691,3.536C220.998,121.501,220.651,121.639,220.302,121.639z"/>
		<path style="fill:#241726;" d="M197.673,132.182c-0.323,0-0.647-0.119-0.9-0.357c-0.526-0.497-0.551-1.328-0.054-1.854    c1.69-1.79,7.599-3.831,8.767-4.223c0.69-0.23,1.43,0.141,1.659,0.827c0.23,0.686-0.14,1.429-0.827,1.659    c-2.644,0.887-6.78,2.57-7.691,3.536C198.368,132.043,198.021,132.182,197.673,132.182z"/>
		<path style="fill:#241726;" d="M188.45,115.606c-0.323,0-0.647-0.119-0.9-0.357c-0.526-0.497-0.551-1.328-0.054-1.854    c1.69-1.79,7.599-3.831,8.767-4.223c0.686-0.227,1.429,0.14,1.659,0.827c0.23,0.686-0.14,1.429-0.827,1.659    c-2.644,0.887-6.78,2.57-7.691,3.536C189.146,115.468,188.799,115.606,188.45,115.606z"/>
		<path style="fill:#241726;" d="M179.415,130.841c-0.323,0-0.647-0.119-0.9-0.357c-0.526-0.497-0.551-1.328-0.054-1.854    c1.69-1.79,7.599-3.831,8.767-4.223c0.686-0.23,1.429,0.138,1.659,0.827c0.23,0.686-0.14,1.429-0.827,1.659    c-2.644,0.887-6.78,2.57-7.691,3.536C180.11,130.703,179.763,130.841,179.415,130.841z"/>
	</g>
	<g>
		<path style="fill:#241726;" d="M358.767,254.274c-0.323,0-0.647-0.119-0.9-0.357c-0.526-0.497-0.551-1.328-0.054-1.854    c1.69-1.79,7.599-3.831,8.767-4.223c0.69-0.227,1.43,0.14,1.659,0.827c0.23,0.686-0.14,1.429-0.827,1.659    c-2.644,0.887-6.78,2.57-7.691,3.536C359.462,254.135,359.115,254.274,358.767,254.274z"/>
		<path style="fill:#241726;" d="M365.344,240.955c-0.323,0-0.647-0.119-0.9-0.357c-0.526-0.497-0.551-1.328-0.054-1.854    c1.69-1.79,7.599-3.831,8.767-4.223c0.689-0.228,1.429,0.14,1.659,0.827c0.23,0.686-0.14,1.429-0.827,1.659    c-2.644,0.887-6.78,2.57-7.691,3.536C366.039,240.817,365.692,240.955,365.344,240.955z"/>
		<path style="fill:#241726;" d="M379.222,246.514c-0.323,0-0.647-0.119-0.9-0.357c-0.526-0.497-0.551-1.328-0.054-1.854    c1.69-1.79,7.599-3.831,8.767-4.223c0.689-0.227,1.429,0.14,1.659,0.827c0.23,0.686-0.14,1.429-0.827,1.659    c-2.644,0.887-6.78,2.57-7.691,3.536C379.917,246.376,379.57,246.514,379.222,246.514z"/>
		<path style="fill:#241726;" d="M389.296,234.693c-0.431,0-0.853-0.213-1.104-0.602c-0.392-0.609-0.216-1.42,0.393-1.812    c2.07-1.332,8.297-1.896,9.523-1.996c0.721-0.05,1.355,0.48,1.414,1.201c0.058,0.722-0.479,1.355-1.201,1.414    c-2.781,0.225-7.2,0.868-8.317,1.586C389.785,234.625,389.539,234.693,389.296,234.693z"/>
		<path style="fill:#241726;" d="M398.616,242.276c-0.431,0-0.853-0.213-1.104-0.602c-0.392-0.609-0.216-1.42,0.393-1.812    c2.07-1.332,8.297-1.896,9.523-1.996c0.707-0.058,1.355,0.479,1.414,1.201c0.058,0.722-0.479,1.355-1.201,1.414    c-2.781,0.225-7.2,0.868-8.317,1.586C399.105,242.209,398.859,242.276,398.616,242.276z"/>
		<path style="fill:#241726;" d="M377.404,257.449c-0.323,0-0.647-0.119-0.9-0.357c-0.526-0.497-0.551-1.328-0.054-1.854    c1.69-1.79,7.599-3.831,8.767-4.223c0.69-0.225,1.428,0.141,1.659,0.827c0.23,0.686-0.14,1.429-0.827,1.659    c-2.644,0.887-6.78,2.57-7.691,3.536C378.099,257.311,377.752,257.449,377.404,257.449z"/>
		<path style="fill:#241726;" d="M354.774,267.992c-0.323,0-0.647-0.119-0.9-0.357c-0.526-0.497-0.551-1.328-0.054-1.854    c1.69-1.79,7.599-3.831,8.767-4.223c0.685-0.225,1.429,0.14,1.659,0.827c0.23,0.686-0.14,1.429-0.827,1.659    c-2.644,0.887-6.78,2.57-7.691,3.536C355.47,267.853,355.123,267.992,354.774,267.992z"/>
		<path style="fill:#241726;" d="M345.552,251.416c-0.323,0-0.647-0.119-0.9-0.357c-0.526-0.497-0.551-1.328-0.054-1.854    c1.69-1.79,7.599-3.831,8.767-4.223c0.688-0.229,1.429,0.14,1.659,0.827c0.23,0.686-0.14,1.429-0.827,1.659    c-2.644,0.887-6.78,2.57-7.691,3.536C346.247,251.277,345.9,251.416,345.552,251.416z"/>
		<path style="fill:#241726;" d="M336.516,266.651c-0.323,0-0.647-0.119-0.9-0.357c-0.526-0.497-0.551-1.328-0.054-1.854    c1.69-1.79,7.599-3.831,8.767-4.223c0.686-0.225,1.429,0.14,1.659,0.827c0.23,0.686-0.14,1.429-0.827,1.659    c-2.644,0.887-6.78,2.57-7.691,3.536C337.211,266.513,336.864,266.651,336.516,266.651z"/>
	</g>
	<g>
		<path style="fill:#241726;" d="M177.834,343.429c-0.323,0-0.647-0.119-0.9-0.357c-0.526-0.497-0.551-1.328-0.054-1.854    c1.69-1.79,7.599-3.831,8.767-4.223c0.685-0.229,1.429,0.14,1.659,0.827c0.23,0.686-0.14,1.429-0.827,1.659    c-2.644,0.887-6.78,2.57-7.691,3.536C178.529,343.291,178.182,343.429,177.834,343.429z"/>
		<path style="fill:#241726;" d="M184.411,330.11c-0.323,0-0.647-0.119-0.9-0.357c-0.526-0.497-0.551-1.328-0.054-1.854    c1.69-1.79,7.599-3.831,8.767-4.223c0.685-0.229,1.429,0.14,1.659,0.827c0.23,0.686-0.14,1.429-0.827,1.659    c-2.644,0.887-6.78,2.57-7.691,3.536C185.106,329.972,184.759,330.11,184.411,330.11z"/>
		<path style="fill:#241726;" d="M198.289,335.67c-0.323,0-0.647-0.119-0.9-0.357c-0.526-0.497-0.551-1.328-0.054-1.854    c1.69-1.79,7.599-3.831,8.767-4.223c0.685-0.229,1.429,0.14,1.659,0.827c0.23,0.686-0.14,1.429-0.827,1.659    c-2.644,0.887-6.78,2.57-7.691,3.536C198.984,335.532,198.637,335.67,198.289,335.67z"/>
		<path style="fill:#241726;" d="M208.363,323.848c-0.431,0-0.853-0.213-1.104-0.602c-0.392-0.609-0.216-1.42,0.393-1.812    c2.07-1.332,8.297-1.896,9.523-1.996c0.707-0.041,1.355,0.48,1.414,1.201c0.058,0.722-0.479,1.355-1.201,1.414    c-2.781,0.225-7.2,0.868-8.317,1.586C208.852,323.78,208.606,323.848,208.363,323.848z"/>
		<path style="fill:#241726;" d="M217.683,331.432c-0.431,0-0.853-0.213-1.104-0.602c-0.392-0.609-0.216-1.42,0.393-1.812    c2.07-1.332,8.297-1.896,9.523-1.996c0.718-0.049,1.355,0.48,1.414,1.201c0.058,0.722-0.479,1.355-1.201,1.414    c-2.781,0.225-7.2,0.868-8.317,1.586C218.172,331.364,217.926,331.432,217.683,331.432z"/>
		<path style="fill:#241726;" d="M196.471,346.604c-0.323,0-0.647-0.119-0.9-0.357c-0.526-0.497-0.551-1.328-0.054-1.854    c1.69-1.79,7.599-3.831,8.767-4.223c0.686-0.227,1.429,0.14,1.659,0.827c0.23,0.686-0.14,1.429-0.827,1.659    c-2.644,0.887-6.78,2.57-7.691,3.536C197.166,346.466,196.819,346.604,196.471,346.604z"/>
		<path style="fill:#241726;" d="M173.841,357.147c-0.323,0-0.647-0.119-0.9-0.357c-0.526-0.497-0.551-1.328-0.054-1.854    c1.69-1.79,7.599-3.831,8.767-4.223c0.686-0.228,1.429,0.14,1.659,0.827c0.23,0.686-0.14,1.429-0.827,1.659    c-2.644,0.887-6.78,2.57-7.691,3.536C174.537,357.009,174.19,357.147,173.841,357.147z"/>
		<path style="fill:#241726;" d="M164.619,340.571c-0.323,0-0.647-0.119-0.9-0.357c-0.526-0.497-0.551-1.328-0.054-1.854    c1.69-1.79,7.599-3.831,8.767-4.223c0.689-0.224,1.429,0.138,1.659,0.827c0.23,0.686-0.14,1.429-0.827,1.659    c-2.644,0.887-6.78,2.57-7.691,3.536C165.314,340.433,164.967,340.571,164.619,340.571z"/>
		<path style="fill:#241726;" d="M155.583,355.806c-0.323,0-0.647-0.119-0.9-0.357c-0.526-0.497-0.551-1.328-0.054-1.854    c1.69-1.79,7.599-3.831,8.767-4.223c0.689-0.228,1.429,0.14,1.659,0.827c0.23,0.686-0.14,1.429-0.827,1.659    c-2.644,0.887-6.78,2.57-7.691,3.536C156.278,355.668,155.931,355.806,155.583,355.806z"/>
	</g>
	<path style="fill:#241726;" d="M128.781,327.592c-0.274,0-0.549-0.086-0.785-0.262c-19.116-14.335-74.468-112.513-76.815-116.686   c-0.356-0.631-0.132-1.43,0.499-1.785c0.634-0.356,1.429-0.131,1.786,0.499c0.571,1.017,57.425,101.867,76.102,115.874   c0.58,0.434,0.698,1.256,0.262,1.835C129.573,327.411,129.18,327.592,128.781,327.592z"/>
</g>















</svg>
