<?xml version="1.0" encoding="UTF-8"?>
<!-- Generator: Adobe Illustrator 25.2.0, SVG Export Plug-In . SVG Version: 6.00 Build 0)  -->
<svg xmlns="http://www.w3.org/2000/svg" xmlns:xlink="http://www.w3.org/1999/xlink" version="1.1" id="Capa_1" x="0px" y="0px" viewBox="0 0 512 512" style="enable-background:new 0 0 512 512;" xml:space="preserve" width="512" height="512">
<g>
	<path style="fill:#EF9B65;" d="M478.299,367.959c0,0,33.124,61.203-7.3,86.808c-44.742,28.339-256.825,49.542-374.026,46.818   c-61.66-1.433-49.692-81.249-39.175-85.626C71.552,410.233,478.299,367.959,478.299,367.959z"/>
	<path style="fill:#AC2E2D;" d="M470.33,328.7c0,0,48.67,36.846,1.886,58.389c-48.656,22.405-275.387,50.104-369.041,41.158   c-93.654-8.946-63.237-60.283-19.809-74.9S455.764,291.218,470.33,328.7z"/>
	<path style="fill:#FBE998;" d="M477.548,321.562c0,0-57.307,78.6-87.692,76.332c-50.835-3.795-121.042-45.273-121.042-45.273   S474.314,316.103,477.548,321.562z"/>
	<path style="fill:#FBE998;" d="M281.515,348.717c0,0-96.999,77.006-127.157,72.662c-67.316-9.696-98.146-64.35-98.146-64.35   S278.648,343.058,281.515,348.717z"/>
	<g>
		<path style="fill:#70A471;" d="M406.998,331.916c0,0,29.84,18.706,9.614,44.179s-84.18-5.569-72.378-37.039    S387.313,313.42,406.998,331.916z"/>
		<g>
			<path style="fill:#A6B470;" d="M402.984,335.733c0,0,23.247,14.573,7.49,34.417c-15.757,19.844-65.58-4.338-56.385-28.855     C363.283,316.779,387.647,321.324,402.984,335.733z"/>
			<path style="fill:#241726;" d="M357.742,356.373c-0.599,0-1.169-0.347-1.424-0.931c-0.056-0.127-1.336-3.133,0.132-6.202     c1.119-2.338,3.448-4.005,6.924-4.954c8.081-2.208,8.063-3.749,6.713-9.289c-0.67-2.755,0.067-5.247,2.134-7.209     c2.382-2.264,6.443-3.454,8.219-2.915c0.822,0.246,1.289,1.112,1.043,1.932c-0.246,0.82-1.113,1.289-1.932,1.043     c-0.676-0.105-3.659,0.547-5.42,2.419c-1.069,1.136-1.404,2.443-1.027,3.996c1.783,7.324,0.705,10.392-8.912,13.02     c-2.567,0.701-4.229,1.811-4.94,3.298c-0.849,1.773-0.097,3.6-0.089,3.618c0.344,0.787-0.015,1.701-0.801,2.044     C358.159,356.332,357.948,356.373,357.742,356.373z"/>
			<path style="fill:#241726;" d="M372.548,364.835c-0.599,0-1.169-0.347-1.424-0.931c-0.056-0.127-1.336-3.131,0.132-6.201     c1.119-2.338,3.448-4.005,6.924-4.956c8.081-2.206,8.063-3.747,6.713-9.289c-0.67-2.755,0.067-5.247,2.134-7.209     c2.384-2.262,6.448-3.451,8.219-2.915c0.822,0.246,1.289,1.112,1.043,1.932c-0.247,0.82-1.108,1.287-1.932,1.043     c-0.673-0.1-3.658,0.547-5.42,2.419c-1.069,1.136-1.404,2.443-1.027,3.996c1.783,7.326,0.705,10.393-8.912,13.02     c-2.567,0.701-4.229,1.811-4.94,3.298c-0.849,1.774-0.097,3.6-0.089,3.618c0.344,0.786-0.015,1.701-0.801,2.044     C372.965,364.794,372.754,364.835,372.548,364.835z"/>
			<path style="fill:#241726;" d="M386.323,372.738c-0.599,0-1.171-0.347-1.425-0.931c-0.055-0.127-1.334-3.133,0.135-6.202     c1.119-2.338,3.448-4.005,6.924-4.954c8.081-2.208,8.063-3.749,6.712-9.291c-0.67-2.754,0.067-5.247,2.132-7.207     c2.382-2.262,6.449-3.451,8.22-2.914c0.822,0.246,1.289,1.112,1.043,1.932c-0.247,0.822-1.107,1.281-1.932,1.043     c-0.669-0.117-3.659,0.549-5.42,2.419c-1.069,1.136-1.404,2.441-1.027,3.994c1.785,7.324,0.707,10.393-8.91,13.021     c-2.567,0.701-4.229,1.811-4.942,3.298c-0.849,1.774-0.097,3.601-0.088,3.618c0.343,0.787-0.017,1.701-0.802,2.046     C386.74,372.697,386.529,372.738,386.323,372.738z"/>
		</g>
	</g>
	<g>
		<path style="fill:#70A471;" d="M290.165,384.014c0,0-23.559,26.178-45.174,1.873s19.964-81.968,48.935-64.929    C322.897,337.996,311.77,367.802,290.165,384.014z"/>
		<g>
			<path style="fill:#A6B470;" d="M287.095,379.402c0,0-18.354,20.394-35.192,1.459c-16.839-18.935,15.553-63.857,38.122-50.583     C312.595,343.552,303.927,366.772,287.095,379.402z"/>
			<path style="fill:#241726;" d="M300.281,359.92c-0.232,0-0.469-0.052-0.691-0.164c-0.767-0.382-1.08-1.315-0.696-2.082     c0.223-0.616,0.089-3.697-1.451-5.756c-0.934-1.248-2.184-1.798-3.758-1.697c-7.523,0.502-10.363-1.095-11.294-11.018     c-0.25-2.649-1.057-4.478-2.4-5.435c-1.601-1.14-3.53-0.713-3.55-0.71c-0.834,0.206-1.673-0.311-1.876-1.142     c-0.203-0.833,0.308-1.673,1.142-1.876c0.13-0.032,3.315-0.779,6.087,1.198c2.111,1.504,3.351,4.085,3.689,7.673     c0.782,8.339,2.309,8.586,7.996,8.21c2.849-0.17,5.157,0.969,6.734,3.339c1.82,2.736,2.287,6.942,1.459,8.599     C301.4,359.605,300.851,359.92,300.281,359.92z"/>
			<path style="fill:#241726;" d="M289.398,373.049c-0.234,0-0.47-0.053-0.693-0.164c-0.767-0.384-1.078-1.316-0.695-2.084     c0.223-0.614,0.089-3.695-1.451-5.753c-0.936-1.248-2.149-1.818-3.759-1.698c-7.518,0.494-10.36-1.093-11.293-11.018     c-0.25-2.649-1.057-4.478-2.4-5.435c-1.598-1.14-3.527-0.713-3.548-0.708c-0.832,0.202-1.673-0.309-1.876-1.142     c-0.203-0.832,0.308-1.673,1.142-1.876c0.135-0.029,3.313-0.776,6.085,1.196c2.111,1.504,3.351,4.085,3.689,7.673     c0.785,8.34,2.3,8.584,7.996,8.21c2.842-0.173,5.159,0.969,6.736,3.342c1.818,2.737,2.285,6.941,1.457,8.598     C290.517,372.735,289.968,373.049,289.398,373.049z"/>
			<path style="fill:#241726;" d="M279.244,385.261c-0.234,0-0.47-0.053-0.693-0.164c-0.767-0.384-1.078-1.316-0.695-2.084     c0.223-0.614,0.089-3.697-1.453-5.755c-0.933-1.248-2.17-1.797-3.756-1.697c-7.538,0.497-10.362-1.095-11.294-11.018     c-0.25-2.649-1.057-4.478-2.4-5.435c-1.598-1.139-3.526-0.713-3.548-0.708c-0.831,0.203-1.673-0.309-1.876-1.142     c-0.203-0.832,0.308-1.673,1.142-1.876c0.132-0.032,3.315-0.778,6.085,1.196c2.111,1.504,3.351,4.085,3.689,7.673     c0.785,8.339,2.302,8.587,7.996,8.21c2.852-0.179,5.157,0.969,6.734,3.341c1.82,2.737,2.287,6.942,1.459,8.599     C280.363,384.947,279.814,385.261,279.244,385.261z"/>
		</g>
	</g>
	<g>
		<path style="fill:#70A471;" d="M162.76,349.881c0,0,23.811,25.95-2.447,45.146c-26.257,19.196-79.689-27.695-59.963-54.908    S148.684,326.827,162.76,349.881z"/>
		<g>
			<path style="fill:#A6B470;" d="M157.877,352.497c0,0,18.55,20.216-1.906,35.171c-20.456,14.955-62.081-21.575-46.714-42.776     C124.624,323.692,146.911,334.537,157.877,352.497z"/>
			<path style="fill:#241726;" d="M109.189,360.454c-0.76,0-1.424-0.558-1.536-1.331c-0.018-0.136-0.456-3.374,1.773-5.943     c1.694-1.952,4.37-2.94,7.957-2.94c0.047-0.002,0.106,0,0.159,0c8.258,0,8.643-1.504,8.81-7.177     c0.085-2.834,1.456-5.04,3.967-6.384c2.895-1.553,7.129-1.612,8.7-0.634c0.728,0.455,0.949,1.413,0.496,2.14     c-0.455,0.725-1.413,0.948-2.14,0.496c-0.596-0.282-3.674-0.443-5.868,0.895c-1.331,0.811-2.002,1.982-2.049,3.579     c-0.223,7.512-2.065,10.192-11.946,10.192c-0.042,0-0.077,0-0.13,0c-2.645,0-4.533,0.629-5.609,1.87     c-1.287,1.485-1.046,3.445-1.043,3.465c0.121,0.849-0.467,1.636-1.316,1.758C109.338,360.449,109.262,360.454,109.189,360.454z"/>
			<path style="fill:#241726;" d="M121.22,372.54c-0.76,0-1.424-0.558-1.536-1.331c-0.02-0.136-0.455-3.374,1.774-5.943     c1.694-1.952,4.37-2.94,7.957-2.94c0.042,0,0.105,0,0.159,0c8.257,0,8.642-1.504,8.81-7.177c0.085-2.834,1.457-5.044,3.97-6.386     c2.899-1.55,7.13-1.607,8.697-0.629c0.728,0.455,0.948,1.413,0.493,2.14c-0.455,0.731-1.41,0.949-2.14,0.493     c-0.594-0.282-3.671-0.444-5.865,0.895c-1.331,0.811-2.002,1.982-2.049,3.579c-0.224,7.512-2.067,10.192-11.946,10.192     c-0.041,0-0.079,0-0.13,0c-2.645,0-4.533,0.629-5.609,1.87c-1.289,1.485-1.048,3.445-1.045,3.465     c0.121,0.849-0.467,1.636-1.316,1.759C121.369,372.535,121.293,372.54,121.22,372.54z"/>
			<path style="fill:#241726;" d="M132.408,383.813c-0.76,0-1.424-0.558-1.536-1.331c-0.018-0.136-0.456-3.374,1.773-5.943     c1.694-1.952,4.37-2.94,7.957-2.94c0.049-0.002,0.105,0,0.159,0c8.257,0,8.642-1.504,8.81-7.177     c0.085-2.834,1.456-5.042,3.967-6.386c2.895-1.55,7.129-1.613,8.7-0.631c0.726,0.453,0.948,1.412,0.493,2.14     c-0.455,0.726-1.413,0.951-2.14,0.493c-0.59-0.281-3.67-0.443-5.867,0.896c-1.331,0.811-2,1.982-2.047,3.579     c-0.224,7.512-2.067,10.192-11.946,10.192c-0.042,0-0.077,0-0.13,0c-2.645,0-4.533,0.629-5.609,1.87     c-1.287,1.485-1.046,3.445-1.043,3.465c0.121,0.849-0.467,1.636-1.316,1.758C132.557,383.808,132.481,383.813,132.408,383.813z"/>
		</g>
	</g>
	<path style="fill:#AC2E2D;" d="M476.062,254.671c0,0,23.15,8.615,2.806,55.933S171.285,373.119,77.63,364.173   c-93.654-8.946-45.145-78.87-1.718-93.488C119.34,256.067,461.496,217.189,476.062,254.671z"/>
	<path style="fill:#A6B470;" d="M457.046,168.405c0,0,66.653,14.117,51.028,46.988s-90.275,57.317-73.683,31.106   s56.18,12.238,41.466,27.977c-14.714,15.738-145.06,31.276-105.159,1.678s38.136,28.46-3.7,44.739s-90.986-41.182-57.688-46.02   s45.763,34.152-23.195,50.971c-68.958,16.819-105.756-49.237-77.666-43.118s47.158,20.349-17.503,43.344   c-64.661,22.995-72.458-54.075-51.028-46.988c21.43,7.087,31.476,29.428-32.274,35.29s-52.963-60.307-23.906-47.528   c29.057,12.779-13.912,50.68-57.74,29.847S3.622,238.958,64.526,236.91"/>
	<path style="fill:#70A471;" d="M427.269,159.051c0,0,55.552,11.766,42.53,39.162s-75.241,47.771-61.412,25.925   c13.829-21.846,46.823,10.2,34.56,23.317c-12.263,13.117-120.902,26.067-87.646,1.398s31.785,23.72-3.084,37.288   c-34.869,13.568-75.833-34.324-48.08-38.356c27.753-4.032,38.142,28.465-19.332,42.482c-57.474,14.018-88.143-41.037-64.732-35.937   c23.412,5.1,39.304,16.96-14.588,36.126s-60.391-45.069-42.53-39.162s26.234,24.527-26.899,29.413s-44.143-50.263-19.924-39.613   c24.218,10.651-17.425,29.625-53.954,12.262s5.827-70.448,56.588-72.155"/>
	<path style="fill:#241726;" d="M168.392,331.95c-17.408,0.002-27.321-8.903-32.266-15.476c-1.108-1.474-2.102-3.001-2.981-4.561   c-7.056,1.754-15.543,3.103-25.36,4.006c-31.903,2.916-42.676-12.09-45.833-18.684c-0.881-1.841-1.548-3.761-2.009-5.712   c-12.451,0.523-27.148-1.692-41.608-8.565c-17.267-8.208-19.325-17.463-18.01-23.78c3.782-18.191,40.171-34.108,81.117-35.485   c0.758-0.033,1.576,0.641,1.603,1.5c0.029,0.857-0.641,1.574-1.5,1.603c-34.681,1.168-74.373,14.712-78.179,33.015   c-1.559,7.497,4.079,14.532,16.304,20.342c13.467,6.401,27.62,8.578,39.714,8.217c-0.904-7.474,1.151-14.997,5.855-19.856   c4.965-5.128,11.936-6.257,19.123-3.092c5.961,2.62,9.17,5.814,9.537,9.49c0.22,2.194-0.532,5.523-5.36,8.921   c-5.119,3.603-14.248,6.634-25.447,7.506c0.403,1.551,0.957,3.08,1.662,4.554c6.084,12.7,21.671,18.887,42.747,16.932   c10.039-0.922,17.959-2.214,24.205-3.697c-5.18-10.982-5.121-22.876-1.096-28.482c2.35-3.272,5.832-4.352,9.797-3.037   c11.177,3.695,18.157,10.807,17.37,17.696c-0.758,6.637-8.21,12.013-21.518,15.783c0.711,1.204,1.494,2.382,2.35,3.52   c6.301,8.375,21.418,20.811,51.815,9.999c10.768-3.829,18.876-7.307,24.957-10.419c-5.609-4.331-9.879-8.941-12.723-12.995   c-5.04-7.186-6.561-13.713-4.07-17.458c1.257-1.892,4.047-3.865,10.19-2.526c12.114,2.64,26.673,7.649,27.237,16.521   c0.346,5.432-4.608,11.062-15.035,17.002c21.724,14.339,50.111,13.185,64.765,9.605c12.78-3.118,22.831-7.051,30.405-11.344   c-2.343-1.701-4.501-3.488-6.434-5.295c-9.838-9.197-14.598-19.22-12.424-26.159c0.972-3.101,3.806-7.041,11.793-8.201   c14.432-2.099,26.35,3.865,28.349,14.169c1.447,7.447-2.538,17.026-15.507,25.642c12.328,7.705,28.714,12.442,44.506,6.299   c13.535-5.266,23.011-15.134,27.847-25.051c-10.465,0.34-19.508-0.205-25.309-1.927c-4.381-1.3-6.84-3.303-7.309-5.952   c-0.588-3.328,2.064-7.127,8.108-11.61c13.516-10.025,21.236-9.476,25.328-7.254c4.191,2.281,6.354,7.392,5.932,14.028   c-0.19,2.98-0.866,6.157-2.012,9.39c29.576-1.653,68.156-9.584,75.701-17.654c3.921-4.196,3.022-9.684,1.576-13.551   c-1.303-3.483-3.442-6.844-6.085-9.807c-11.3,5.461-22.34,8.744-29.495,9.027c-4.887,0.203-8.134-0.943-9.544-3.389   c-1.404-2.437-0.764-5.811,1.906-10.029c5.611-8.865,13.141-10.075,18.492-9.515c6.595,0.684,13.693,4.607,19.234,10.083   c14.829-7.509,29.797-18.74,35.866-31.509c2.833-5.959,2.94-11.67,0.32-16.973c-9.371-18.959-49.859-27.741-50.267-27.827   c-0.839-0.179-1.375-1.002-1.198-1.841c0.177-0.837,1.005-1.371,1.841-1.198c1.726,0.365,42.367,9.182,52.407,29.488   c3.065,6.199,2.965,12.823-0.297,19.686c-6.329,13.312-21.336,24.822-36.424,32.581c2.664,3.096,4.815,6.557,6.154,10.137   c2.479,6.627,1.692,12.578-2.215,16.758c-8.198,8.768-48.655,17.208-79.244,18.717c-4.934,11.07-15.231,22.268-30.187,28.087   c-17.393,6.766-35.376,1.23-48.537-7.37c-7.852,4.658-18.5,8.957-32.54,12.383c-30.084,7.335-53.277-0.614-68.286-11.097   c-6.883,3.632-15.783,7.383-26.733,11.277C182.615,330.68,174.967,331.95,168.392,331.95z M205.053,283.871   c-1.595,0-3.084,0.387-3.879,1.582c-1.395,2.099-0.691,7.227,4.028,13.955c3.762,5.367,8.154,9.757,12.93,13.322   c12.721-6.991,14.965-11.981,14.786-14.803c-0.34-5.338-9.379-10.325-24.801-13.684   C207.158,284.034,206.082,283.871,205.053,283.871z M314.768,276.021c-1.688,0-3.438,0.126-5.236,0.387   c-5.128,0.746-8.249,2.784-9.276,6.058c-1.788,5.7,2.758,14.714,11.581,22.961c2.141,2,4.566,3.973,7.221,5.824   c12.034-7.62,16.691-16.142,15.329-23.155C332.95,280.693,325.036,276.021,314.768,276.021z M137.265,280.178   c-1.66,0-3.045,0.761-4.134,2.279c-3.542,4.933-3.213,15.949,1.651,25.889c16.65-4.528,19.572-10.456,19.907-13.393   c0.607-5.304-5.668-11.224-15.259-14.397C138.663,280.303,137.942,280.178,137.265,280.178z M389.459,269.414   c-4.601,0-10.744,2.725-17.836,7.985c-6.473,4.802-7.101,7.435-6.9,8.575c0.24,1.356,2.062,2.605,5.135,3.517   c5.741,1.701,15.038,2.171,25.811,1.741c1.307-3.359,2.07-6.669,2.266-9.749c0.343-5.379-1.231-9.424-4.316-11.102   C392.428,269.734,391.034,269.414,389.459,269.414z M76.488,266.756c-3.415,0-6.502,1.319-9.02,3.918   c-4.114,4.249-5.864,10.909-4.989,17.542c10.574-0.732,19.316-3.436,24.27-6.922c2.81-1.979,4.252-4.135,4.058-6.072   c-0.24-2.41-2.974-4.88-7.696-6.957C80.818,267.256,78.59,266.756,76.488,266.756z M449.432,239.145   c-5.605,0-10.322,2.802-13.729,8.184c-1.947,3.075-2.599,5.495-1.839,6.816c0.766,1.327,3.156,1.968,6.731,1.838   c6.513-0.259,16.714-3.297,27.286-8.314c-4.898-4.595-10.973-7.843-16.629-8.428C450.636,239.177,450.028,239.145,449.432,239.145z   "/>
	<path style="fill:#EF9B65;" d="M14.209,240.884c0,0,23.401-237.205,260.008-230.568c191.746,5.379,221.828,188.538,206.409,195.269   C285.518,290.759,10.83,278.351,14.209,240.884z"/>
	<path style="fill:#241726;" d="M175.715,242.914c-7.753,0-15.088-0.144-21.985-0.394c-69.542-2.525-110.659-16.151-111.065-16.289   c-0.813-0.273-1.25-1.154-0.975-1.967c0.273-0.813,1.151-1.257,1.967-0.975c1.615,0.543,164.283,53.427,397.899-34.264   c0.805-0.299,1.697,0.105,2,0.908c0.3,0.804-0.106,1.698-0.908,2C333.211,233.01,240.062,242.914,175.715,242.914z"/>
	<g>
		<path style="fill:#241726;" d="M400.778,87.001c-0.393,0-0.787-0.149-1.089-0.446c-2.734-2.69-7.829-7.18-9.864-7.781    c-0.822-0.243-1.292-1.105-1.049-1.929c0.241-0.82,1.102-1.293,1.929-1.049c3.441,1.014,10.383,7.778,11.162,8.545    c0.611,0.602,0.62,1.585,0.018,2.196C401.581,86.846,401.18,87.001,400.778,87.001z"/>
		<path style="fill:#241726;" d="M422.508,86.754c-0.393,0-0.787-0.149-1.089-0.446c-2.734-2.69-7.829-7.18-9.864-7.781    c-0.822-0.243-1.292-1.105-1.049-1.929c0.241-0.819,1.099-1.295,1.929-1.049c3.441,1.014,10.383,7.778,11.162,8.545    c0.611,0.602,0.62,1.585,0.018,2.196C423.311,86.599,422.91,86.754,422.508,86.754z"/>
		<path style="fill:#241726;" d="M424.454,108.538c-0.393,0-0.787-0.149-1.089-0.446c-2.734-2.69-7.831-7.18-9.864-7.781    c-0.822-0.243-1.292-1.105-1.049-1.929c0.243-0.82,1.104-1.29,1.929-1.049c3.439,1.014,10.383,7.778,11.162,8.545    c0.611,0.602,0.62,1.585,0.018,2.196C425.258,108.384,424.856,108.538,424.454,108.538z"/>
		<path style="fill:#241726;" d="M444.282,116.128c-0.522,0-1.031-0.262-1.324-0.74c-2.009-3.268-5.878-8.85-7.708-9.92    c-0.74-0.432-0.989-1.384-0.557-2.124c0.434-0.738,1.38-0.987,2.124-0.557c3.096,1.811,8.213,10.043,8.784,10.976    c0.45,0.731,0.221,1.686-0.51,2.135C444.84,116.054,444.56,116.128,444.282,116.128z"/>
		<path style="fill:#241726;" d="M440.567,133.31c-0.522,0-1.031-0.262-1.324-0.74c-2.009-3.268-5.878-8.85-7.709-9.92    c-0.74-0.432-0.989-1.383-0.557-2.124c0.432-0.737,1.384-0.99,2.124-0.557c3.098,1.811,8.214,10.043,8.786,10.976    c0.45,0.731,0.221,1.686-0.509,2.135C441.125,133.236,440.845,133.31,440.567,133.31z"/>
		<path style="fill:#241726;" d="M408.987,113.413c-0.393,0-0.787-0.149-1.089-0.446c-2.734-2.69-7.829-7.182-9.863-7.781    c-0.823-0.241-1.293-1.105-1.051-1.927c0.243-0.822,1.104-1.3,1.927-1.051c3.442,1.013,10.384,7.778,11.164,8.545    c0.611,0.602,0.619,1.585,0.018,2.196C409.789,113.259,409.389,113.413,408.987,113.413z"/>
		<path style="fill:#241726;" d="M380.24,90.884c-0.393,0-0.787-0.149-1.089-0.446c-2.734-2.69-7.829-7.18-9.864-7.781    c-0.822-0.243-1.292-1.105-1.049-1.929c0.241-0.819,1.098-1.295,1.929-1.049c3.441,1.014,10.383,7.778,11.162,8.545    c0.611,0.602,0.62,1.585,0.018,2.196C381.043,90.73,380.642,90.884,380.24,90.884z"/>
		<path style="fill:#241726;" d="M395.749,67.872c-0.393,0-0.787-0.149-1.089-0.446c-2.734-2.69-7.829-7.182-9.863-7.781    c-0.823-0.241-1.293-1.105-1.051-1.927c0.241-0.82,1.108-1.298,1.927-1.051c3.442,1.013,10.384,7.778,11.164,8.545    c0.611,0.602,0.619,1.585,0.018,2.196C396.551,67.717,396.15,67.872,395.749,67.872z"/>
		<path style="fill:#241726;" d="M369.889,66.182c-0.393,0-0.787-0.149-1.089-0.446c-2.734-2.69-7.829-7.182-9.863-7.781    c-0.823-0.241-1.293-1.105-1.051-1.927c0.241-0.82,1.101-1.301,1.927-1.051c3.442,1.013,10.384,7.778,11.164,8.545    c0.611,0.602,0.619,1.585,0.018,2.196C370.692,66.028,370.291,66.182,369.889,66.182z"/>
	</g>
	<g>
		<path style="fill:#241726;" d="M384.517,454.158c-3.172,0-6.151-0.232-6.73-0.279c-0.855-0.071-1.491-0.82-1.421-1.676    s0.793-1.463,1.676-1.421c3.858,0.32,10.706,0.506,12.673-0.338c0.781-0.344,1.698,0.024,2.038,0.816    c0.338,0.787-0.027,1.7-0.816,2.038C390.368,453.972,387.364,454.158,384.517,454.158z"/>
		<path style="fill:#241726;" d="M370.796,465.301c-3.172,0-6.15-0.232-6.73-0.279c-0.855-0.071-1.491-0.82-1.421-1.676    c0.07-0.855,0.813-1.463,1.676-1.421c3.858,0.32,10.703,0.506,12.673-0.338c0.781-0.341,1.698,0.026,2.038,0.816    c0.338,0.787-0.027,1.7-0.816,2.038C376.648,465.114,373.644,465.301,370.796,465.301z"/>
		<path style="fill:#241726;" d="M348.102,453.94c-3.169,0-6.143-0.23-6.722-0.277c-0.854-0.071-1.491-0.82-1.421-1.676    c0.07-0.854,0.796-1.486,1.676-1.421c3.853,0.318,10.7,0.503,12.673-0.34c0.778-0.341,1.7,0.023,2.038,0.816    c0.338,0.787-0.027,1.7-0.816,2.038C353.96,453.753,350.951,453.94,348.102,453.94z"/>
		<path style="fill:#241726;" d="M336.624,465.385c-3.169,0-6.143-0.23-6.722-0.277c-0.854-0.071-1.491-0.82-1.421-1.676    c0.071-0.854,0.802-1.491,1.676-1.421c3.852,0.318,10.701,0.506,12.673-0.34c0.782-0.343,1.7,0.024,2.038,0.816    c0.338,0.787-0.027,1.7-0.816,2.038C342.482,465.199,339.474,465.385,336.624,465.385z"/>
		<path style="fill:#241726;" d="M365.951,443.261c-3.172,0-6.15-0.232-6.73-0.279c-0.855-0.071-1.491-0.82-1.421-1.676    c0.071-0.855,0.81-1.466,1.676-1.421c3.856,0.32,10.704,0.506,12.673-0.338c0.779-0.341,1.698,0.026,2.038,0.816    c0.338,0.787-0.027,1.7-0.816,2.038C371.803,443.075,368.799,443.261,365.951,443.261z"/>
		<path style="fill:#241726;" d="M408.101,441.61c-3.169,0-6.143-0.23-6.722-0.277c-0.854-0.071-1.491-0.82-1.421-1.676    c0.071-0.854,0.808-1.472,1.676-1.421c3.85,0.318,10.7,0.507,12.673-0.34c0.781-0.344,1.698,0.024,2.038,0.816    c0.338,0.787-0.027,1.7-0.816,2.038C413.959,441.423,410.95,441.61,408.101,441.61z"/>
		<path style="fill:#241726;" d="M405.955,463.417c-3.174,0-6.152-0.232-6.731-0.279c-0.855-0.071-1.491-0.82-1.421-1.676    c0.07-0.854,0.796-1.477,1.676-1.421c3.858,0.321,10.706,0.508,12.674-0.338c0.778-0.341,1.7,0.023,2.038,0.816    c0.338,0.789-0.027,1.701-0.816,2.038C411.806,463.231,408.802,463.417,405.955,463.417z"/>
		<path style="fill:#241726;" d="M428.927,453.124c-3.172,0-6.149-0.23-6.728-0.277c-0.854-0.071-1.491-0.82-1.421-1.676    c0.07-0.854,0.796-1.485,1.676-1.421c3.855,0.318,10.703,0.503,12.673-0.338c0.781-0.346,1.698,0.024,2.038,0.816    c0.338,0.789-0.027,1.701-0.816,2.038C434.779,452.939,431.774,453.124,428.927,453.124z"/>
	</g>
	<path style="fill:#FBE998;" d="M155.91,66.692c0,0,6.404-25.93,28.24-26.15C184.15,40.541,186.503,56.939,155.91,66.692z"/>
	<path style="fill:#FBE998;" d="M241.156,104.469c0,0,10.259-24.66,31.876-21.57C273.032,82.899,272.873,99.464,241.156,104.469z"/>
	<path style="fill:#FBE998;" d="M181.414,76.941c0,0,25.845-6.739,36.453,12.348C217.867,89.289,204.577,99.178,181.414,76.941z"/>
	<path style="fill:#FBE998;" d="M221.893,40.196c0,0,20.382-17.261,38.206-4.646C260.099,35.55,252.398,50.217,221.893,40.196z"/>
	<path style="fill:#FBE998;" d="M279.431,48.121c0,0,20.382-17.261,38.206-4.646C317.638,43.475,309.937,58.142,279.431,48.121z"/>
	<path style="fill:#FBE998;" d="M290.956,103.058c0,0,20.382-17.261,38.206-4.646C329.162,98.412,321.462,113.079,290.956,103.058z"/>
	<path style="fill:#FBE998;" d="M132.396,107.717c0,0,20.382-17.261,38.206-4.646C170.603,103.071,162.902,117.738,132.396,107.717z   "/>
</g>















</svg>
